<?xml version="1.0" encoding="UTF-8" standalone="no"?>
<!-- Created with Inkscape (http://www.inkscape.org/) -->

<svg
   width="80"
   height="126.66667"
   viewBox="0 0 21.166667 33.51389"
   version="1.1"
   id="svg1"
   xml:space="preserve"
   inkscape:version="1.4.2 (2aeb623e1d, 2025-05-12)"
   sodipodi:docname="cursor-default.svg"
   inkscape:export-filename="../1bd7dc4e/cursor-default.png"
   inkscape:export-xdpi="96"
   inkscape:export-ydpi="96"
   xmlns:inkscape="http://www.inkscape.org/namespaces/inkscape"
   xmlns:sodipodi="http://sodipodi.sourceforge.net/DTD/sodipodi-0.dtd"
   xmlns="http://www.w3.org/2000/svg"
   xmlns:svg="http://www.w3.org/2000/svg"><sodipodi:namedview
     id="namedview1"
     pagecolor="#ffffff"
     bordercolor="#000000"
     borderopacity="0.25"
     inkscape:showpageshadow="2"
     inkscape:pageopacity="0.0"
     inkscape:pagecheckerboard="0"
     inkscape:deskcolor="#d1d1d1"
     inkscape:document-units="px"
     inkscape:zoom="1.0116647"
     inkscape:cx="208.56714"
     inkscape:cy="272.32344"
     inkscape:window-width="1854"
     inkscape:window-height="1011"
     inkscape:window-x="0"
     inkscape:window-y="0"
     inkscape:window-maximized="1"
     inkscape:current-layer="g1"><inkscape:page
       x="0"
       y="0"
       width="21.166668"
       height="33.513889"
       id="page2"
       margin="0"
       bleed="0" /></sodipodi:namedview><defs
     id="defs1" /><g
     inkscape:label="Layer 1"
     inkscape:groupmode="layer"
     id="layer1"
     transform="translate(-241.51945,-15.522226)" /><g
     id="g1"
     inkscape:groupmode="layer"
     inkscape:label="1"
     transform="matrix(0.26458333,0,0,0.26458334,-21.519443,-15.522226)"><g
       id="g2"><path
         id="path10"
         d="m 154.66666,132.00001 v -6.66666 H 148 v -6.66667 h -6.66667 v -6.66667 h -6.66667 v -6.66666 H 128 v -6.666671 h -6.66667 v -6.666666 h -6.66667 V 85.333346 H 108 V 78.66668 h -6.66667 V 72.000013 H 94.666664 V 65.333347 H 87.999998 V 58.66668 h -6.666667 v 113.33333 h 6.666667 6.666666 v -6.66667 h 6.666666 v -6.66666 H 108 v -6.66667 h 6.66666 v 13.33333 h 6.66667 v 13.33334 H 128 v 6.66666 h 13.33333 v -6.66666 H 148 v -13.33334 h -6.66667 v -13.33333 h -6.66667 v -6.66667 h 26.66667 v -6.66666 -6.66667 h -6.66667"
         style="fill:#ffffff;fill-opacity:1;fill-rule:nonzero;stroke:none;stroke-width:0.133333" /><path
         id="path11"
         d="M 87.999998,172.00001 H 81.333331 V 58.66668 h 6.666667 v 113.33333"
         style="fill:#000000;fill-opacity:1;fill-rule:nonzero;stroke:none;stroke-width:0.133333" /><path
         id="path12"
         d="m 94.666664,72.000013 h -6.666666 v -6.666666 h 6.666666 v 6.666666"
         style="fill:#000000;fill-opacity:1;fill-rule:nonzero;stroke:none;stroke-width:0.133333" /><path
         id="path13"
         d="m 101.33333,78.66668 h -6.666666 v -6.666667 h 6.666666 v 6.666667"
         style="fill:#000000;fill-opacity:1;fill-rule:nonzero;stroke:none;stroke-width:0.133333" /><path
         id="path14"
         d="m 108,85.333346 h -6.66667 V 78.66668 H 108 v 6.666666"
         style="fill:#000000;fill-opacity:1;fill-rule:nonzero;stroke:none;stroke-width:0.133333" /><path
         id="path15"
         d="M 114.66666,92.000013 H 108 v -6.666667 h 6.66666 v 6.666667"
         style="fill:#000000;fill-opacity:1;fill-rule:nonzero;stroke:none;stroke-width:0.133333" /><path
         id="path16"
         d="m 121.33333,98.666679 h -6.66667 v -6.666666 h 6.66667 v 6.666666"
         style="fill:#000000;fill-opacity:1;fill-rule:nonzero;stroke:none;stroke-width:0.133333" /><path
         id="path17"
         d="m 128,105.33335 h -6.66667 V 98.666679 H 128 v 6.666671"
         style="fill:#000000;fill-opacity:1;fill-rule:nonzero;stroke:none;stroke-width:0.133333" /><path
         id="path18"
         d="M 134.66666,112.00001 H 128 v -6.66666 h 6.66666 v 6.66666"
         style="fill:#000000;fill-opacity:1;fill-rule:nonzero;stroke:none;stroke-width:0.133333" /><path
         id="path19"
         d="m 141.33333,118.66668 h -6.66667 v -6.66667 h 6.66667 v 6.66667"
         style="fill:#000000;fill-opacity:1;fill-rule:nonzero;stroke:none;stroke-width:0.133333" /><path
         id="path20"
         d="m 148,125.33335 h -6.66667 v -6.66667 H 148 v 6.66667"
         style="fill:#000000;fill-opacity:1;fill-rule:nonzero;stroke:none;stroke-width:0.133333" /><path
         id="path21"
         d="M 154.66666,132.00001 H 148 v -6.66666 h 6.66666 v 6.66666"
         style="fill:#000000;fill-opacity:1;fill-rule:nonzero;stroke:none;stroke-width:0.133333" /><path
         id="path22"
         d="m 161.33333,138.66668 h -6.66667 v -6.66667 h 6.66667 v 6.66667"
         style="fill:#000000;fill-opacity:1;fill-rule:nonzero;stroke:none;stroke-width:0.133333" /><path
         id="path23"
         d="M 161.33333,145.33334 H 128 v -6.66666 h 33.33333 v 6.66666"
         style="fill:#000000;fill-opacity:1;fill-rule:nonzero;stroke:none;stroke-width:0.133333" /><path
         id="path24"
         d="M 134.66666,152.00001 H 128 v -6.66667 h 6.66666 v 6.66667"
         style="fill:#000000;fill-opacity:1;fill-rule:nonzero;stroke:none;stroke-width:0.133333" /><path
         id="path25"
         d="M 114.66666,152.00001 H 108 v -6.66667 h 6.66666 v 6.66667"
         style="fill:#000000;fill-opacity:1;fill-rule:nonzero;stroke:none;stroke-width:0.133333" /><path
         id="path26"
         d="m 121.33333,165.33334 h -6.66667 v -13.33333 h 6.66667 v 13.33333"
         style="fill:#000000;fill-opacity:1;fill-rule:nonzero;stroke:none;stroke-width:0.133333" /><path
         id="path27"
         d="m 128,178.66668 h -6.66667 V 165.33334 H 128 v 13.33334"
         style="fill:#000000;fill-opacity:1;fill-rule:nonzero;stroke:none;stroke-width:0.133333" /><path
         id="path28"
         d="M 141.33333,185.33334 H 128 v -6.66666 h 13.33333 v 6.66666"
         style="fill:#000000;fill-opacity:1;fill-rule:nonzero;stroke:none;stroke-width:0.133333" /><path
         id="path29"
         d="m 141.33333,165.33334 h -6.66667 v -13.33333 h 6.66667 v 13.33333"
         style="fill:#000000;fill-opacity:1;fill-rule:nonzero;stroke:none;stroke-width:0.133333" /><path
         id="path30"
         d="m 148,178.66668 h -6.66667 V 165.33334 H 148 v 13.33334"
         style="fill:#000000;fill-opacity:1;fill-rule:nonzero;stroke:none;stroke-width:0.133333" /><path
         id="path31"
         d="m 108,158.66668 h -6.66667 v -6.66667 H 108 v 6.66667"
         style="fill:#000000;fill-opacity:1;fill-rule:nonzero;stroke:none;stroke-width:0.133333" /><path
         id="path32"
         d="m 101.33333,165.33334 h -6.666666 v -6.66666 h 6.666666 v 6.66666"
         style="fill:#000000;fill-opacity:1;fill-rule:nonzero;stroke:none;stroke-width:0.133333" /><path
         id="path33"
         d="m 94.666664,172.00001 h -6.666666 v -6.66667 h 6.666666 v 6.66667"
         style="fill:#000000;fill-opacity:1;fill-rule:nonzero;stroke:none;stroke-width:0.133333" /></g></g></svg>
