<svg version="1.1" viewBox="0 0 132.29 79.375" xmlns="http://www.w3.org/2000/svg">
 <g transform="translate(-47.128 -89.69)">
  <g transform="matrix(.29201 0 0 .30755 -332.97 -210.55)">
   <path id="a" d="m1301.7 976.25v258.07h453.04v-258.07z" fill="#5091cd" style="stroke-width:.17966"/>
   <path id="b" d="m1301.7 976.24v258.09h453.04v-258.09zm7.7862 8.0388h437.46v84.885h.041v72.236h-.041v84.885h-437.46v-84.885h-.022v-72.236h.022zm4.0085 4.0076v22.674h7.5476v-14.502h122.53v-8.1728zm134.09 0v8.1728h12.199v40.532h-40.5c.9167.8719 1.8154 1.7655 2.6963 2.6734h37.803v127.42h-34.296c-.7874.9055-1.5917 1.7966-2.4124 2.671h36.707v44.355h-12.199v8.1707h78.631v-8.1707h-63.76v-44.355h131.51v44.355h-63.74v8.1707h76.359v-8.1707h-9.9458v-44.355h36.748c-.8217-.8744-1.6264-1.7655-2.4146-2.671h-34.334v-127.42h37.842c.8815-.9078 1.7798-1.8016 2.6973-2.6734h-40.539v-40.532h9.9459v-8.1728h-76.359v8.1728h63.74v40.532h-131.51v-40.532h63.76v-8.1728h-66.433zm163.01 0v8.1728h124.8v14.502h7.5476v-22.674zm-297.08 26.682v54.196h7.5307v-54.196zm421.88 0v54.196h7.5476v-54.196zm-345.21 22.024v32.173h1.5751c.3673 0 .7327.01 1.0973.017v-29.516h23.416c-.9649-.9126-1.9493-1.8039-2.9534-2.6734zm252.94 0c-1.0037.8695-1.9884 1.7608-2.9537 2.6734h22.466v29.557c.6779-.036 1.3603-.058 2.0477-.058h.6253v-32.172zm-180.68 2.6734h131.51v127.42h-131.51zm-148.94 33.509v64.218h7.5307v-64.218zm421.88 0v64.218h7.5476v-64.218zm-344.99.3786-.214.012v63.434l.214.012zm135.81 2.5847c-15.199 1.0301-27.207 13.685-27.207 29.145 0 4.6198 1.073 8.9885 2.9823 12.872 4.4793 9.1121 13.568 15.551 24.225 16.272zm4.0099 0v58.289c10.657-.721 19.748-7.1576 24.226-16.272 1.9092-3.8834 2.9823-8.2523 2.9823-12.872 0-15.461-12.01-28.116-27.209-29.145zm132.42 65.206v25.739h-26.278c.8552.9078 1.7273 1.799 2.6183 2.6709h26.332v-28.351h-.6253c-.6875 0-1.3699-.019-2.0477-.057zm-269.79.041c-.3646.012-.73.016-1.0972.016h-1.5752v28.351h27.282c.8901-.8719 1.7628-1.7631 2.6165-2.6709h-27.225zm-79.346.016v54.196h7.5307v-54.196zm421.88 0v54.196h7.5476v-54.196zm-421.9 58.206v22.672h130.08v-8.1707h-122.53v-14.502zm421.9 0v14.502h-124.8v8.1707h132.35v-22.672z" fill="#363a36" style="stroke-width:.17966"/>
   <path id="c" d="m1309.4 984.28v84.885h-.022v72.236h.022v84.885h437.46v-84.885h.041v-72.236h-.041v-84.885zm4.0085 4.0076h130.08v16.27h4.0085v-16.27h78.631v48.706h4.0098v-48.706h76.359v16.27h4.0095v-16.27h132.35v22.674h-40.769c-20.554 0-39.596 6.609-55.111 17.815-3.4804 2.5152-6.7835 5.2625-9.8855 8.216-.9174.8719-1.8157 1.7655-2.6973 2.6734-16.473 16.988-26.627 40.14-26.627 65.617 0 4.3656.2967 8.6622.874 12.872 2.5439 18.564 10.511 35.422 22.243 48.925.7881.9055 1.5928 1.7965 2.4145 2.6709 5.3227 5.6771 11.34 10.698 17.913 14.926 14.689 9.445 32.153 14.928 50.876 14.928h40.769v22.672h-132.35v-15.426h-4.0095v15.426h-76.359v-52.526h-4.0099v52.526h-78.631v-15.426h-4.0084v15.426h-130.08v-22.672h40.785c18.722 0 36.188-5.4831 50.876-14.928 6.5734-4.2278 12.591-9.2486 17.915-14.926.8207-.8743 1.625-1.7655 2.4124-2.6709 11.734-13.503 19.701-30.362 22.245-48.925.5768-4.2097.8755-8.5063.8755-12.872 0-25.479-10.154-48.629-26.628-65.617-.8807-.9078-1.7795-1.8016-2.6962-2.6734-3.103-2.9535-6.4065-5.7008-9.8877-8.216-15.513-11.206-34.555-17.815-55.111-17.815h-40.785zm.017 26.682h40.769c17.603 0 34.046 5.064 47.95 13.807 3.9078 2.4577 7.6152 5.2075 11.091 8.216 1.0042.8695 1.9886 1.7608 2.9534 2.6734 17.429 16.476 28.321 39.797 28.321 65.617 0 4.3692-.3125 8.6669-.9151 12.872-2.6915 18.779-11.182 35.715-23.596 48.925-.8537.9079-1.7264 1.7991-2.6165 2.6709-5.976 5.8591-12.76 10.894-20.168 14.926-12.797 6.961-27.455 10.918-43.02 10.918h-40.769v-54.196h78.25c.3672 0 .7327 0 1.0972-.016 14.91-.448 27.577-9.9745 32.65-23.228 1.5306-4.0004 2.3698-8.3403 2.3698-12.872 0-19.55-15.61-35.52-35.02-36.102-.3646-.01-.73-.016-1.0972-.016h-78.25zm388.66 0h40.769v54.196h-78.249c-.6875 0-1.3699.022-2.0477.058-18.966 1.0659-34.072 16.832-34.072 36.06 0 4.5321.841 8.8717 2.3717 12.872 4.9656 12.971 17.204 22.374 31.7 23.188.6779.038 1.3604.057 2.0478.057h78.249v54.196h-40.769c-15.565 0-30.223-3.9573-43.018-10.918-7.409-4.0314-14.193-9.0666-20.166-14.926-.8911-.8719-1.7632-1.7631-2.6183-2.6709-12.413-13.211-20.903-30.146-23.594-48.925-.6036-4.2052-.9148-8.5027-.9148-12.872 0-25.82 10.892-49.143 28.321-65.617.9654-.9126 1.9502-1.8039 2.9537-2.6734 3.4758-3.0087 7.1837-5.7583 11.09-8.216 13.903-8.7433 30.345-13.807 47.948-13.807zm-175.96 24.697v14.995c-27.008 1.0564-48.656 23.357-48.656 50.623 0 4.4463.5764 8.7604 1.6573 12.872 5.547 21.1 24.397 36.867 46.999 37.751v11.174h4.0099v-11.174c22.606-.8839 41.455-16.651 47-37.751 1.0827-4.1117 1.6576-8.4256 1.6576-12.872 0-27.264-21.647-49.567-48.658-50.623v-14.995zm0 19.008v93.221c-20.38-.8671-37.418-14.871-42.842-33.739-1.1756-4.0903-1.8064-8.4089-1.8064-12.872 0-25.055 19.852-45.559 44.648-46.61zm4.0099 0c24.8 1.0515 44.65 21.557 44.65 46.61 0 4.4631-.6299 8.7815-1.8061 12.872-5.4232 18.869-22.462 32.871-42.844 33.739zm-216.72 14.502h63.118l1.6783 3.476c1.8438-.8911 3.7828-1.6026 5.7608-2.1176l-.3541-1.3583h5.1928l.048.4888c.4084-.041.8194-.072 1.2316-.098l.2141-.012v63.459l-.2141-.012c-.4122-.024-.8232-.055-1.2316-.096l-.048.4888h-5.1444l.3488-1.3464c-1.9797-.5126-3.9198-1.2215-5.7662-2.1102l-1.6633 3.4566h-63.17zm352.54 0h1.4277l-.048.4814c2.0863.1988 4.1561.6088 6.1514 1.2148l.5151-1.6962h5.8804l-1.7221 3.5261c1.8756.9174 3.6746 2.0242 5.3395 3.2938l2.4289-3.1882c-1.8301-1.3941-3.8015-2.6161-5.8591-3.6317h62.773v64.218h-62.779c1.0301-.5078 2.0361-1.0659 3.0134-1.6695l-2.1127-3.4086c-1.7798 1.1042-3.6747 2.0311-5.6319 2.7593l.8625 2.3186h-5.5048l-.1891-.9484c-1.4924.297-3.0159.4862-4.5465.5677zm-271.64.4193c16.445 1.1881 29.462 14.947 29.462 31.689v.4158.095l-.01.3214v.1014l-.011.3278v.063c-.01.125-.011.2498-.018.3743v.018c-.2115 3.9519-1.1486 7.7137-2.6798 11.156-4.6518 10.456-14.789 17.956-26.736 18.819zm267.63 0v63.38c-11.948-.8623-22.085-8.3602-26.738-18.819-1.5331-3.4417-2.4698-7.2035-2.6805-11.156v-.018c-.01-.1246-.014-.2493-.019-.3744v-.063l-.01-.3277v-.5178-.4158c0-16.745 13.016-30.504 29.463-31.689zm-290.27 2.2303c-1.8944 1.3078-3.6719 2.8072-5.2833 4.4575l2.8682 2.8001c1.4313-1.4659 3.0114-2.8001 4.6931-3.9619zm318.46 4.7498-2.9007 2.7689c1.4468 1.5139 2.75 3.1765 3.8685 4.9419l3.3847-2.1463c-1.2624-1.9883-2.7259-3.8588-4.3525-5.5645zm-327.3 3.9524c-1.3412 1.8828-2.504 3.8996-3.4539 5.9957l3.651 1.6551c.8429-1.8612 1.8749-3.6506 3.0674-5.3226zm334.28 6.6135-3.6819 1.5836c.8264 1.9223 1.4661 3.933 1.8948 5.9776l3.9237-.826c-.4862-2.3044-1.2047-4.5711-2.1366-6.7352zm-339.62 4.5886c-.6133 2.2169-1.0126 4.5095-1.1875 6.8146l3.9977.3028c.1541-2.0473.5092-4.0823 1.052-6.0486zm342.49 7.7513-4.0026.2036c.029.5296.041 1.0626.041 1.5982 0 1.5681-.1152 3.139-.3403 4.6689l3.9667.5818c.2516-1.7204.3808-3.4866.3832-5.2493 0-.6049-.017-1.207-.048-1.8032zm-339.67 4.2861-3.9955.3066c.1761 2.3018.5781 4.5945 1.1951 6.814l3.8626-1.0741c-.5481-1.9688-.9043-4.0039-1.0621-6.0464zm334.25 7.0753c-.3545 1.1242-.7736 2.232-1.2527 3.3137-.3713.8336-.7761 1.6506-1.2169 2.4507l3.5092 1.9354c.7809-1.4133 1.4635-2.8818 2.0432-4.3861.2683-.6963.5152-1.4006.7404-2.1105zm-331.5 3.5872-3.6483 1.66c.9538 2.0961 2.1174 4.1104 3.4602 5.9883l3.2594-2.333c-1.1914-1.6648-2.2245-3.4541-3.0713-5.3153zm326.27 6.3669c-1.2887 1.6504-2.7428 3.1812-4.3261 4.5489l2.6205 3.0324c1.7797-1.5379 3.4158-3.2575 4.865-5.1162zm-320.04 2.7162-2.8653 2.805c1.6128 1.648 3.394 3.1452 5.2913 4.4531l2.2727-3.3008c-1.6845-1.1618-3.2662-2.4938-4.6987-3.9573z" fill="#e3173e" style="stroke-width:.17966"/>
  </g>
 </g>
</svg>
