<svg
  
  
   viewBox="0 0 140.3140 110.6577" 
   version="1.1000"
   id="svg1"
   xml:space="preserve"
   xmlns="http://www.w3.org/2000/svg"
   xmlns:svg="http://www.w3.org/2000/svg"><defs
     id="defs1" /><g
     id="layer1"><g
       id="g178"
       transform="translate(-34.8827,-93.1022)"><path
         id="XMLID_10_"
         class="st0"
         d="m 112.9572,175.1597 5.8738,-1.4499 0.3731,-0.0741 0.1852,-0.3731 1.8971,-3.5322 8.5513,-1.9341 0.3731,2.8998 0.0370,0.2593 0.3731,-0.1111 5.5404,-1.3017 0.6694,-0.1482 -0.0370,-0.4842 -1.4499,-11.3374 c -1.5611,1.3758 -3.1591,2.7146 -4.7969,4.0137 0.1482,1.7463 0.2223,3.6063 0.3334,5.3525 -1.0769,-1.1165 -2.2304,-2.1193 -3.3840,-3.1591 -1.5240,1.0028 -3.0850,1.9341 -4.7202,2.7146 0.8916,-1.4870 1.7463,-2.9739 2.5638,-4.4238 -1.1165,-0.8546 -2.2675,-1.6351 -3.4952,-2.3416 l 5.2044,-0.8176 c 1.0028,-1.8971 1.8971,-3.7915 2.7517,-5.6885 0.0370,0.2593 0.0370,0.5583 0.0370,0.8916 l 3.2332,-7.7338 c -2.4527,0.3731 -4.9451,0.7064 -7.3978,1.0769 l -0.1852,0.2963 -0.9287,1.5981 -0.1482,0.2593 0.2223,0.1482 c 0.4842,0.2593 0.7805,0.7435 0.7805,1.2647 l -10.4828,19.4416 -1.4499,0.3334 -9.8504,2.3045 1.8203,-7.2866 9.1810,-1.6722 2.6776,-4.7202 -10.7447,1.9341 1.7092,-6.8024 10.1124,-1.7092 0.5212,-0.0741 0.1111,-0.3731 1.1165,-3.9767 c -6.3209,0.9657 -12.6762,1.9341 -18.9971,2.9369 l -1.2647,2.3786 0.2593,0.1111 c 0.4842,0.2963 0.7805,0.8176 0.7805,1.3758 l -5.3155,20.5211 c -0.4101,0.7435 -0.9287,1.3758 -1.5981,1.8971 l -0.3334,0.2593 0.0741,2.1564 c 6.2442,-1.5981 12.4539,-3.1962 18.7352,-4.7202 z m 17.2852,-16.7640 c 1.7092,-0.2593 3.3840,-0.5953 5.0562,-0.8917 l -0.8917,-7.0273 -4.3498,5.8738 c 0.0741,0.7064 0.1111,1.3758 0.1852,2.0452 z m -43.3096,8.9958 -7.8819,5.9849 3.4951,-14.2372 5.8367,-1.0769 c 0.2223,-0.0370 1.9711,-0.3334 1.3388,2.2675 l -1.1536,4.4238 c -0.2593,1.0028 -0.8149,1.9315 -1.6351,2.6379 z m 4.3868,13.2345 -0.1482,-0.5583 -1.6351,-9.2207 c 4.9080,-3.6803 5.5007,-6.0960 6.3209,-9.3318 l 0.0370,-0.0741 0.7805,-3.1591 c 1.6722,-6.4691 -5.2784,-5.3525 -5.3525,-5.3525 -5.3155,0.8916 -10.6310,1.7833 -15.9120,2.7517 l -0.1852,0.3731 -0.8916,1.8971 -0.1852,0.3334 0.2593,0.1482 c 0.4842,0.3334 0.7805,0.8917 0.7805,1.4870 l -5.3525,22.3785 c -0.4101,0.7805 -0.9287,1.4499 -1.5981,2.0452 l -0.3731,0.2593 v 0.3334 l 0.0370,1.7092 v 0.3731 l 0.3731,-0.0741 0.8916,-0.2593 5.3896,-1.4870 1.1906,-0.3334 0.5212,-0.1482 0.5953,-2.5268 0.4471,-1.8600 6.3209,-4.9821 1.0028,6.8765 0.0370,0.2593 0.2963,-0.0741 5.4636,-1.4129 z m -43.9023,5.7626 7.0988,-27.4002 8.7365,-1.4129 h 0.0370 c 0.2223,-0.0370 0.4471,0 0.5953,0.1482 0.2593,0.2593 0.3731,0.8916 0.1482,1.7463 l -5.3525,21.1905 c -0.2223,1.2647 -0.8916,2.4527 -1.8203,3.3073 -0.2223,0.1852 -0.4842,0.3334 -0.7805,0.4842 z m 9.9245,3.4184 c 0.0370,-0.0370 6.9136,-1.1906 8.8106,-9.3318 l 1.5981,-6.7654 0.2963,-1.3017 3.5692,-14.4621 c 1.7092,-7.0273 -5.3155,-5.9108 -5.3525,-5.8738 -6.5802,1.0028 -13.4937,2.1193 -19.9628,3.3840 l -1.3017,2.7517 0.2223,0.1482 c 0.5212,0.4101 0.8176,1.0028 0.7805,1.6722 l -8.5487,34.1656 -0.1482,0.5212 0.4842,-0.1482 18.7748,-4.4609 z m 107.2145,-26.6912 0.5212,-0.0741 0.1111,-0.3731 5.4266,-21.0423 0.1482,-0.3334 -0.5212,0.0371 -1.4499,0.1482 -5.5404,0.7435 -0.1482,0.2593 -9.2551,15.1315 -1.4499,-13.7186 -0.0371,-0.1852 c -2.7146,0.3731 -5.4636,0.5953 -8.1783,1.0028 l -1.0769,1.7463 -0.1852,0.2593 0.2593,0.1482 c 0.4471,0.2223 0.7805,0.7064 0.7805,1.1906 l -6.1330,20.7063 -0.1482,0.3731 0.5212,-0.1111 5.8737,-1.3388 0.4842,-0.1482 0.1482,-0.3731 3.3073,-11.2633 0.8917,10.4458 0.0370,0.2223 0.3731,-0.0370 3.6803,-0.8176 0.3731,-0.0370 0.1852,-0.2593 7.1014,-11.6734 -3.0110,10.5569 -0.1482,0.3731 0.4842,-0.1111 z"
         style="fill:#418fde;fill-opacity:1;stroke-width:0.2646" /><path
         id="XMLID_14_"
         style="fill:#ced9e5;fill-opacity:1;stroke-width:0.2646"
         class="st1"
         d="m 149.7810,102.4992 c -0.2411,-0.0090 -0.4826,-0.0050 -0.7240,0.0139 -0.4101,0.1111 -0.7804,0.2593 -1.1534,0.4842 -0.2223,0.0741 -0.4101,0.1850 -0.5953,0.2961 -0.0370,0.0370 -0.1485,0.0373 -0.1855,0.0744 -2.1193,1.1536 -4.4607,2.8628 -5.7624,4.9821 1.3758,-0.8916 3.8285,-1.6723 6.7283,-1.9343 3.3441,-0.3651 5.5747,-0.4015 6.6146,1.7544 1.0024,2.2672 -0.0746,3.4582 -3.4954,6.2441 -7.5830,6.0960 -9.7389,10.6676 -10.3343,12.9377 0.5953,-0.7064 1.2643,-1.3386 2.0448,-1.8598 1.0769,1.4129 4.8341,4.4237 10.0015,5.1671 1.3017,-1.8600 2.3048,-3.9022 3.0112,-6.0586 0.5583,-1.5610 1.0768,-3.4583 1.6350,-5.7257 0.2593,-1.1536 0.5584,-2.3044 0.9658,-3.4210 0.6694,-1.9711 1.5238,-2.7519 3.2701,-2.7890 2.6035,-0.0370 3.4950,2.4901 4.4607,5.1676 0.8546,2.1934 1.2651,4.5350 1.1539,6.8766 0.5953,-1.0769 1.0396,-2.1937 1.3756,-3.3843 0.5583,-1.9711 0.7437,-4.0532 0.5214,-6.0957 -0.3731,-0.9287 -0.9288,-1.7837 -1.6723,-2.4531 -0.4101,-0.4101 -0.8546,-0.7804 -1.3017,-1.1534 l -0.1483,-0.0372 c -1.1165,-0.7064 -1.9713,-1.7461 -2.5270,-2.9368 -0.2593,-0.6694 -0.5212,-1.3014 -0.2222,-1.9337 0.0370,-0.1852 0.1111,-0.3732 0.2222,-0.5214 0.0371,-0.0741 0.0741,-0.1113 0.1111,-0.1483 0.1482,-0.1852 0.3731,-0.3331 0.5953,-0.4098 -0.6694,-0.5953 -1.3758,-1.1537 -2.1193,-1.6723 -0.7435,-0.4471 -1.5239,-0.8546 -2.3415,-1.1906 0.0370,0.2593 2e-5,0.5210 -0.1111,0.7803 -0.0370,0.0370 -0.0739,0.1114 -0.0739,0.1855 -0.1852,0.2963 -0.4843,0.5212 -0.8547,0.5953 -0.4471,0.2223 -0.9288,0.3726 -1.4500,0.3726 -1.3388,0.0370 -2.6404,-0.2961 -3.7543,-1.0025 l -0.1483,-0.0372 c -0.5212,-0.2963 -1.0766,-0.5209 -1.5978,-0.7431 -0.6965,-0.2500 -1.4156,-0.3975 -2.1389,-0.4243 z m -19.1658,19.0562 c -0.7805,1.7463 -1.5978,3.4948 -2.5265,5.2410 -1.5981,0.2593 -3.1963,0.5586 -4.7573,0.7808 1.1165,0.6324 2.1934,1.3387 3.1962,2.1193 -0.7832,1.4870 -1.5637,2.8232 -2.3813,4.1620 1.5240,-0.7064 2.9371,-1.5611 4.3129,-2.4898 1.0769,0.9657 2.0823,1.9337 3.0851,2.8624 -0.0370,-1.6351 -0.1483,-3.2701 -0.2594,-4.9449 1.5610,-1.1906 3.0852,-2.4527 4.5351,-3.7915 -1.5981,0.2593 -3.1593,0.5215 -4.7573,0.7808 -0.1482,-1.5610 -0.2597,-3.1221 -0.4475,-4.7201 z m 22.1196,14.2002 c -0.4842,1.0769 -1.0029,2.1562 -1.5611,3.2701 l -2.9740,0.4842 c 0.7064,0.3731 1.3758,0.8177 2.0082,1.3389 -0.4842,0.8176 -0.9655,1.7089 -1.4867,2.5265 0.9287,-0.4471 1.8600,-0.9286 2.7146,-1.5239 0.6324,0.5583 1.3014,1.1536 1.9337,1.7833 -0.0370,-1.0028 -0.1480,-2.0453 -0.1850,-3.0851 0.9657,-0.7435 1.8971,-1.5239 2.8629,-2.3415 -1.0821,0.1111 -2.0481,0.2591 -3.0536,0.4470 -0.0741,-0.9657 -0.1848,-1.9338 -0.2589,-2.8996 z m -22.9397,17.4356 c -0.8916,1.9341 -1.7464,3.8285 -2.7518,5.6885 -1.7092,0.3334 -3.4579,0.5954 -5.1671,0.8547 1.1906,0.7064 2.3418,1.5239 3.4954,2.3415 -0.8546,1.4870 -1.7096,2.9741 -2.5642,4.4240 1.6351,-0.7805 3.2332,-1.6721 4.7201,-2.7146 1.1536,1.0028 2.2677,2.0821 3.3843,3.1590 -0.0370,-1.8203 -0.1852,-3.6064 -0.3333,-5.3526 1.6351,-1.3017 3.2333,-2.6405 4.7573,-4.0137 0.0370,-0.0370 0.1478,-0.1108 0.1478,-0.1478 -0.0370,0 -0.1108,0.0367 -0.1478,0.0367 -1.7092,0.2593 -3.3844,0.5586 -5.0565,0.8919 -0.1111,-0.6323 -0.1481,-1.3017 -0.2222,-2.0082 l -2.7146,3.7915 2.5270,-6.0591 c -0.0370,-0.2963 -0.0373,-0.5586 -0.0744,-0.8919 z m -0.8175,20.4473 c -0.5953,1.2647 -1.1904,2.4898 -1.8598,3.6804 -1.1906,0.2593 -2.4159,0.4840 -3.6065,0.6692 0.8176,0.4471 1.6355,0.8916 2.4531,1.4128 -0.5583,0.9657 -1.1540,1.9344 -1.7467,2.9001 1.1165,-0.5212 2.2308,-1.1539 3.2706,-1.8603 0.7805,0.5953 1.5980,1.2648 2.3415,1.9342 -0.0370,-1.1536 -0.1483,-2.2674 -0.2594,-3.4210 1.1536,-0.8917 2.3048,-1.8206 3.3843,-2.7890 -1.1880,0.2593 -2.4133,0.4817 -3.6039,0.7436 -0.1111,-1.0769 -0.2223,-2.1562 -0.3731,-3.2701 z" /><path
         id="XMLID_28_"
         style="fill:#c8102e;fill-opacity:1;stroke-width:0.2646"
         class="st2"
         d="m 155.0024,100.2533 c -6.2442,-0.4101 -12.1951,2.5638 -15.6135,7.8078 -3.4211,5.2043 -3.4581,11.3749 -1.1906,16.8041 1.0769,2.8998 1.1167,6.0957 0.0372,9.0325 l -5.2043,12.4168 -3.1962,7.7711 -2.5296,6.0565 16.8036,-28.2525 c 0.0741,0.0370 0.1485,0.1113 0.1855,0.1483 l 0.0739,0.0372 c 0.3731,0.2223 0.7436,0.4470 1.0769,0.6692 0.7064,0.3731 1.3017,0.5953 1.3017,0.5953 l -10.5937,14.6105 9.3317,-9.4061 c 1.9341,-2.0082 4.4610,-3.3073 7.2497,-3.6804 9.5541,0.6323 17.8063,-6.6170 18.4387,-16.1711 0.6323,-9.5541 -6.6170,-17.8068 -16.1711,-18.4392 z m -1.4872,1.3736 c 1.4129,-0.0370 2.8997,0.1136 4.3496,0.4470 0.3731,0.1852 0.4473,0.5955 0.2594,0.7436 -0.2223,0.1111 -0.4470,0.1850 -0.6692,0.1850 -0.8916,0.0741 -1.7835,-0.1850 -2.5270,-0.6692 l -0.2594,-0.1483 c -0.3731,-0.1852 -0.7804,-0.3729 -1.1534,-0.5581 z m -4.4607,0.7829 c 0.9657,-0.0370 1.9342,0.1110 2.8629,0.4470 0.5583,0.1852 1.0766,0.4471 1.5978,0.7064 l 0.1483,0.0744 c 1.1165,0.7064 2.4155,1.0396 3.7543,1.0025 0.5212,0.0370 1.0029,-0.0740 1.4500,-0.3333 0.3334,-0.1111 0.6695,-0.3330 0.8547,-0.6320 0,-0.0371 0.0368,-0.1114 0.0739,-0.1855 0.1111,-0.2223 0.1481,-0.4843 0.1111,-0.7436 0.8176,0.3334 1.5980,0.7435 2.3415,1.1906 0.7435,0.4842 1.4869,1.0399 2.1193,1.6723 -0.2223,0.0741 -0.4471,0.2225 -0.5953,0.4103 -0.0370,0.0741 -0.0741,0.1113 -0.1111,0.1483 -0.1111,0.1482 -0.1852,0.3331 -0.2222,0.5209 -0.2593,0.5583 -0.0370,1.1906 0.2222,1.8970 0.5212,1.2277 1.3760,2.2303 2.5270,2.9368 l 0.1483,0.0744 c 0.4842,0.3334 0.8916,0.7433 1.3017,1.1534 0.7064,0.7064 1.2643,1.5609 1.6717,2.4526 0.2223,2.0452 0.0373,4.0907 -0.5209,6.0963 -0.3334,1.1536 -0.7808,2.2676 -1.3761,3.3471 0.1852,-1.6351 -0.1480,-4.1276 -1.1534,-6.8766 -0.9657,-2.6405 -1.8969,-5.2047 -4.4607,-5.1676 -1.7833,0.0370 -2.6039,0.8178 -3.2706,2.7890 -0.3731,1.1165 -0.7060,2.2674 -0.9653,3.4210 -0.5583,2.2675 -1.1165,4.1277 -1.6350,5.7257 -0.7064,2.1564 -1.7465,4.2017 -3.0112,6.0591 -5.1673,-0.7805 -8.9590,-3.7918 -10.0015,-5.1676 -0.7805,0.5212 -1.4495,1.1168 -2.0448,1.8206 0.5583,-2.2304 2.7142,-6.8026 10.3343,-12.9382 3.4211,-2.7517 4.5352,-3.9399 3.4954,-6.2074 -1.0028,-2.2304 -3.2702,-2.1561 -6.6172,-1.8200 -2.8998,0.2593 -5.3524,1.0770 -6.7283,1.9342 1.3044,-2.0902 3.6457,-3.7280 5.7650,-4.9160 0.0370,-0.0370 0.1109,-0.0744 0.1850,-0.0744 0.1482,-0.0741 0.3731,-0.2222 0.5953,-0.3333 0.3731,-0.1482 0.7809,-0.3334 1.1539,-0.4842 z m 16.3194,4.6090 c 0.2223,0 0.4103,2.1000e-4 0.6325,0.0372 1.0398,1.2277 1.8601,2.6032 2.4898,4.0902 -0.3731,-0.3334 -0.7805,-0.7062 -1.1906,-1.0025 l -0.2594,-0.1855 c -0.7805,-0.4471 -1.3761,-1.1534 -1.7094,-1.9709 -0.1852,-0.2619 -0.2222,-0.5608 -0.1111,-0.8201 z m -15.9443,1.1048 c 0.5159,-0.0090 1.0361,0.0090 1.5560,0.0460 1.0028,0.1482 1.5984,0.5216 1.8603,1.1539 0.0741,0.1852 0.3727,0.7803 -0.5586,1.5978 -0.5212,0.4842 -1.3016,1.1535 -2.4526,2.1193 -3.9767,3.2702 -7.6569,7.0274 -8.7364,9.4800 -2.0452,-3.0480 -2.6406,-10.0753 0.1111,-12.3057 0.2963,-0.2223 0.5952,-0.4099 0.9286,-0.5581 1.8600,-0.7805 3.7913,-1.2276 5.7624,-1.4128 0.5014,-0.0741 1.0132,-0.1111 1.5291,-0.1204 z m 12.0788,6.4409 c 1.1906,-0.0370 2.1191,1.3019 3.2701,4.5351 0.2963,0.8546 0.5581,1.7092 0.7803,2.6035 0.4842,2.1193 0.2249,4.3129 -0.8175,6.2074 -2.5638,2.1934 -5.2781,2.8258 -8.3261,3.0851 -0.9287,0.7805 -2.0086,1.4127 -3.1595,1.8598 2.9369,-2.8258 4.2761,-5.9849 6.2446,-13.7558 0.7064,-2.7887 1.0766,-3.8656 1.4867,-4.2757 0.1482,-0.1111 0.3336,-0.2224 0.5214,-0.2594 z m -30.0385,22.8999 c -0.0741,0 -0.1481,0.0372 -0.2222,0.0372 -0.1852,0 -0.3331,0.0367 -0.5209,0.0367 -0.4842,0.0370 -1.0027,0.1481 -1.5239,0.2222 -0.2223,0 -0.4475,0.0373 -0.6697,0.0744 h -0.1850 c -0.0370,0.0370 -0.0744,0.1113 -0.0744,0.1483 -0.0741,0.1482 -0.1848,0.2964 -0.2589,0.4842 l -0.0744,0.1478 0.1483,0.0372 c 0.1482,0.0370 0.2224,0.1851 0.2594,0.3333 -1.4129,2.3442 -2.8260,4.5746 -4.3129,6.8818 0.8917,-0.1482 1.7091,-0.2593 2.5637,-0.3731 0.1852,-0.2963 0.3731,-0.5951 0.5953,-0.8914 0.8916,-0.1482 1.7836,-0.3332 2.6779,-0.4470 0.0370,0.2593 0.0368,0.5210 0.0739,0.7803 v 0.0372 c 0.7805,-0.1482 1.5609,-0.2223 2.3415,-0.3731 0,-0.0371 -0.0367,-0.1485 -0.0367,-0.1855 -0.2593,-2.2675 -0.4845,-4.5347 -0.7808,-6.8022 z m -4.7966,0.8547 c -0.0741,0.0370 -0.1853,0.0372 -0.2594,0.0372 -1.3017,0.1852 -2.6035,0.3729 -3.9026,0.5581 -0.7435,0.0741 -1.5241,0.1850 -2.2676,0.2961 -0.1111,0.0370 -0.1851,0.0372 -0.3333,0.0372 h -0.2594 c 0,0.0370 -0.0368,0.0743 -0.0739,0.1483 -0.0741,0.1482 -0.1853,0.3334 -0.2594,0.4842 0,0.0370 -0.0368,0.0737 -0.0739,0.1478 l 0.1478,0.0744 c -0.0200,-0.0187 -0.0273,-0.0315 -0.0264,-0.0377 8e-5,-2.6000e-4 4.1000e-4,-0.0010 5.2000e-4,-0.0020 l 5.2000e-4,-5.2000e-4 5.1000e-4,-5.2000e-4 5.2000e-4,-5.1000e-4 c 0.0243,-0.0137 0.2072,0.0923 0.2072,0.2656 -0.0370,0.1111 -0.0372,0.1853 -0.0372,0.2594 0.0741,-0.0370 0.1853,-0.0372 0.2594,-0.0372 0.5583,-0.0371 1.1166,-0.1481 1.6723,-0.2222 -0.5583,2.0823 -1.1538,4.1645 -1.7094,6.2441 l 2.8257,-0.4098 c 0.5953,-2.0823 1.1540,-4.1277 1.7467,-6.2074 0.5583,-0.0370 1.1161,-0.1481 1.6717,-0.2222 0.0741,-0.0370 0.1853,-0.0372 0.2594,-0.0372 0.1111,-0.3731 0.2223,-0.8176 0.3731,-1.1906 0,-0.0371 0.0372,-0.1480 0.0372,-0.1850 z m -7.9163,0.9632 c -0.0741,0 -0.1853,-3.1000e-4 -0.2594,0.0367 -0.6694,0.0741 -1.3389,0.1853 -2.0454,0.2594 -0.0741,0.0370 -0.1853,0.0367 -0.2594,0.0367 -0.0370,0.0741 -0.0367,0.1114 -0.0367,0.1855 -0.3334,1.2647 -0.6697,2.4527 -1.0030,3.6804 -0.5583,-1.1536 -1.1165,-2.3046 -1.6350,-3.4582 l -0.0367,-0.0739 h -0.1483 c -0.0370,0 -0.1483,0.0367 -0.1483,0.0367 -0.4471,0.0370 -0.8918,0.1483 -1.3389,0.1483 -0.1482,0.0370 -0.3331,0.0368 -0.5209,0.0739 -0.8546,0.1482 -0.2966,-0.1849 -1.0030,0.8919 l 0.1483,0.0367 c 0.1111,0.0741 0.2224,0.2223 0.2594,0.3731 -0.5583,2.2304 -1.1907,4.4608 -1.7834,6.7283 0.7751,-0.1799 1.6323,-0.2909 2.4867,-0.4020 h 5.2000e-4 c 0.3333,-1.1906 0.6320,-2.4154 0.9653,-3.6060 0.5212,1.0769 1.0027,2.1565 1.5239,3.2334 0.9287,-0.1482 1.8208,-0.2595 2.7151,-0.4103 z m -11.8959,1.5265 c -0.0370,0 -0.1480,0.0367 -0.1850,0.0367 -0.1482,0.0370 -0.3733,0.0373 -0.5214,0.0744 l -1.5239,0.1478 -0.6692,0.0744 h -0.2222 l -0.0744,0.1850 c -0.0741,0.1482 -0.1483,0.3336 -0.2594,0.5214 0,0.0370 -0.0368,0.1113 -0.0739,0.1483 l 0.1483,0.0367 c 0.1111,0.0741 0.2224,0.1852 0.2594,0.3333 -1.4129,2.4527 -2.8628,4.9085 -4.2757,7.3241 0.8546,-0.1058 1.7463,-0.2940 2.6009,-0.4051 0.1482,-0.2593 0.3334,-0.5581 0.4842,-0.7803 0.8917,-0.1482 1.7832,-0.2595 2.7146,-0.4103 0.0370,0.2223 0.0368,0.4471 0.0739,0.7064 0.7805,-0.1482 1.5609,-0.2593 2.3415,-0.3731 -0.2593,-2.4897 -0.5210,-4.9822 -0.7803,-7.4719 0,-0.0741 -2e-4,-0.1108 -0.0372,-0.1478 z m 22.6751,0.1876 c 0.0741,0.5953 0.1478,1.1907 0.2589,1.7834 -0.5212,0.1111 -1.0396,0.1853 -1.5978,0.2594 0.4101,-0.6667 0.8944,-1.3734 1.3389,-2.0428 z m 41.6373,0.7808 c -0.0370,0.0741 -5.4638,21.0423 -5.4638,21.0793 l -0.2222,0.6692 -0.2961,0.0372 -0.5214,0.0739 -6.5433,1.4867 -0.1478,0.0372 1.5239,1.4872 0.4842,-0.1116 6.5428,-1.5239 0.5214,-0.0739 0.1111,-0.3731 5.4638,-21.0054 0.1483,-0.3333 z m -74.2394,0.1902 c -0.1482,0.0370 -0.2595,0.0372 -0.4103,0.0372 -0.5953,0.0370 -1.2645,0.1481 -1.8598,0.2222 -0.1482,0.0370 -0.2222,0.0367 -0.3333,0.0367 -0.0370,0 -0.1481,0.0372 -0.2222,0.0372 l -0.0744,0.1483 c -0.0741,0.1852 -0.1848,0.3727 -0.2589,0.5209 l -0.0744,0.1483 0.1483,0.0372 c -0.0741,0.1085 0.1483,0.2193 0.1483,0.5183 v 5.1000e-4 c -0.5583,2.3786 -1.1540,4.7571 -1.7467,7.2125 2.0452,-0.3334 4.0537,-0.6695 6.0963,-0.9658 0.1482,-0.3334 0.3732,-0.6692 0.5214,-1.0025 0.0370,-0.1111 0.1109,-0.1853 0.1850,-0.2594 -0.1111,0.0370 -0.2223,0.0367 -0.3731,0.0367 l -3.2701,0.4842 c 0.5953,-2.4156 1.1907,-4.7968 1.7834,-7.2125 z m -3.6091,0.4424 c -2.3416,0.2593 -4.7203,0.5581 -7.0275,0.8914 -0.0370,0.0370 -0.0369,0.1480 -0.0739,0.1850 -0.0741,0.1852 -0.1853,0.3734 -0.2594,0.5586 -0.0370,0.0370 -0.0739,0.1108 -0.0739,0.1478 l 0.1483,0.0372 c 0.0026,0.1508 0.0766,0.2988 0.1137,0.4470 -0.0370,0.1111 -0.0372,0.1853 -0.0372,0.2594 0.0741,-0.0370 0.1853,-0.0372 0.2594,-0.0372 l 1.7089,-0.2222 c -0.5583,2.3416 -1.1533,4.7201 -1.7089,7.1014 0.9657,-0.1482 1.9342,-0.2964 2.8629,-0.4842 0.5583,-2.3416 1.1533,-4.6457 1.7089,-7.0270 l 1.7095,-0.1855 c 0.0741,-0.0370 0.1483,-0.0367 0.2594,-0.0367 0.0370,-0.0741 0.0367,-0.1481 0.0367,-0.2222 z m -9.2521,1.1508 c -1.0769,0.1482 -2.0826,0.2588 -3.1595,0.3726 0,0.0741 -0.0369,0.1485 -0.0739,0.1855 l -0.2594,0.5581 c 0,0.0741 -0.0369,0.1113 -0.0739,0.1483 l 0.1483,0.0372 c 0.1482,0.0741 0.2219,0.2218 0.2589,0.3726 -1.4499,2.6776 -2.8626,5.3896 -4.3496,8.0672 0.8916,-0.0741 1.7835,-0.1879 2.6381,-0.3731 0.1482,-0.2963 0.3727,-0.6323 0.5209,-0.9286 l 2.7518,-0.4098 c 0,0.2593 0.0369,0.5210 0.0739,0.7803 0.7805,-0.1482 1.5615,-0.2593 2.3420,-0.3731 -0.2593,-2.7517 -0.5215,-5.5404 -0.7808,-8.2894 0,-0.0370 3.4900e-4,-0.1478 -0.0367,-0.1478 z m 68.9209,0.8940 c 0.1852,1.9711 1.0028,9.4431 1.1906,11.6365 0.2223,-0.3731 0.5585,-0.9288 1.0030,-1.6723 l -0.8919,-8.4770 -0.0367,-0.2227 z m -48.1407,0.1483 c 0.0370,0.6694 0.1481,1.3389 0.2222,2.0454 -0.5212,0.0370 -1.0770,0.1481 -1.5611,0.2222 z m -22.8255,3.1218 c 0.0741,0.7805 0.1483,1.4874 0.2594,2.2309 -0.5212,0.0370 -1.0770,0.1481 -1.5611,0.2222 z m 53.7182,0.7834 -0.9658,1.3017 c 0.8541,6.2375 2.4877,19.0888 2.4898,19.1053 0.0370,-0.0741 0.0744,-0.1478 0.0744,-0.2589 0,0 0.2591,-0.8915 0.6692,-2.3415 z m -15.2425,0.2935 -1.1906,4.3868 -0.8175,0.1483 c 0,0 -9.1071,1.5611 -9.7394,1.6723 -0.1482,0.5583 -1.0767,4.4605 -1.3756,5.6141 0.2963,-0.0370 1.0027,-0.1481 1.8970,-0.3333 l 0.9653,-3.8654 10.1126,-1.7095 0.4077,-0.1137 0.1111,-0.3731 1.1162,-3.9765 z m -48.3660,5.5774 c 0.1482,0.5212 0.1855,1.0399 0.1855,1.5611 0,0.7064 -0.1112,1.4128 -0.2594,2.1193 l -3.4954,14.4250 -0.2961,1.3389 -1.5984,6.7655 c -1.8600,8.0301 -8.4771,9.5913 -9.2206,9.7394 l -0.7431,0.2222 -18.7725,4.5346 -0.1483,0.0372 1.5245,1.5239 0.4837,-0.1483 18.7751,-4.4979 0.7436,-0.1850 c 0.0370,-0.0370 6.9133,-1.1905 8.8103,-9.3317 l 1.8919,-8.1783 3.5321,-14.4622 c 0.5583,-2.2304 0.1855,-3.6435 -0.5209,-4.5351 -0.1482,-0.1852 -0.5215,-0.5582 -0.8919,-0.9286 z m 25.1675,1.0397 c 0.0741,0.3731 0.1478,0.7809 0.1478,1.1539 0,0.6694 -0.1107,1.3014 -0.2589,1.9337 l -0.8175,3.2706 c -0.8176,3.1591 -1.5240,5.7253 -6.2839,9.4056 0.1111,0.5953 1.5236,8.8110 1.5606,8.8480 0.0370,0.0370 0.3333,1.0764 0.3333,1.0764 l -6.7283,1.7467 h -0.0367 l 1.4867,1.4867 0.3333,-0.0372 5.4637,-1.4128 0.7803,-0.2222 -0.1478,-0.5581 -1.7436,-9.3292 c 4.9080,-3.6804 5.5003,-6.0959 6.3205,-9.3317 l 0.0372,-0.0744 0.8175,-3.1218 c 0.5212,-1.9711 0.1852,-3.2703 -0.4842,-4.0535 -0.2223,-0.2963 -0.4840,-0.5586 -0.7803,-0.7808 z m 61.8303,2.1988 c -2.2013,3.4158 -5.1356,8.1757 -5.1356,8.1757 l -0.3333,0.4470 -0.1850,0.0372 -0.3731,0.0367 -3.6804,0.8175 1.5239,1.4872 0.3731,-0.0372 3.6804,-0.8175 0.3731,-0.0367 0.1850,-0.2594 1.1534,-1.7095 c 0.2223,-0.6323 0.4842,-1.4867 0.4842,-1.4867 0,0 1.0029,-3.5693 1.9343,-6.6544 z m -95.7714,0.5162 c 0,0 -7.7336,1.3015 -8.3633,1.3756 -0.1482,0.6694 -6.3952,24.6089 -6.8027,26.1726 0.3731,-0.0741 1.0770,-0.2595 1.9342,-0.4103 l 6.3211,-24.3122 6.9133,-1.0769 c 0.0344,-0.3360 0.0718,-0.5214 0.0718,-0.5214 0.0741,-0.2593 0.1108,-0.5210 0.1478,-0.7803 0,-0.3731 -0.0369,-0.4470 -0.0739,-0.4470 z m 25.1897,0.4010 c -0.0315,0.0010 -0.0639,0.0040 -0.0966,0.0090 0,0 -4.9078,0.9286 -5.5004,1.0397 -0.1482,0.5583 -2.4526,10.0382 -3.0479,12.4168 0.5953,-0.4842 1.4128,-1.0764 2.2304,-1.6717 l 2.2676,-9.2950 4.7201,-0.8914 c 0.0741,-0.2593 0.1108,-0.5582 0.1478,-0.8175 0,-0.2593 -0.0367,-0.4842 -0.1478,-0.5953 -0.1621,-0.1296 -0.3525,-0.2029 -0.5731,-0.1943 z m 59.2785,0.3421 c -1.0451,3.4211 -2.5688,8.5514 -2.5688,8.5514 l -0.2222,0.6692 -0.7808,0.1855 -5.8735,1.3389 -1.3756,0.3333 -0.7808,0.1478 -5.5402,1.3017 -0.0372,0.0372 1.4872,1.4500 0.3731,-0.0744 5.5402,-1.3017 0.6692,-0.1478 -0.0367,-0.4842 -0.1483,-0.9658 1.1906,1.1906 0.4842,-0.1483 5.8735,-1.3389 0.5214,-0.1111 0.1111,-0.3731 1.5239,-5.1671 c -0.1482,-1.5240 -0.2595,-3.4951 -0.4103,-5.0932 z m -30.1914,0.9286 -2.7146,4.7971 c 0.0767,-0.0371 -8.3636,1.5239 -9.0330,1.6350 -0.1482,0.5583 -1.1906,4.8342 -1.5239,6.0963 0.3334,-0.0370 0.9656,-0.2223 1.7462,-0.3731 l 1.0769,-4.2018 9.2950,-1.7089 2.6774,-4.7206 z m 11.7104,8.6997 c -1.0028,0.2223 -7.2496,1.6348 -7.6941,1.7089 -0.3731,0.7805 -1.7462,3.3073 -1.7462,3.3073 l -0.2961,0.5586 -0.2594,0.0367 -0.3731,0.0744 -5.9108,1.4495 -0.7808,0.1855 c -5.8738,1.4499 -11.9693,2.9737 -18.1420,4.5718 l 1.4867,1.4872 c 6.2442,-1.5981 12.4539,-3.1591 18.6981,-4.7201 l 0.4842,-0.1483 5.9108,-1.4500 0.3731,-0.0739 0.1850,-0.3333 1.8970,-3.5693 6.3583,-1.4500 c -0.0423,-0.4445 -0.1166,-1.1879 -0.1907,-1.6350 z m -45.9502,7.7313 c -1.1880,0.9313 -5.2413,4.0904 -5.5376,4.2783 -0.1482,0.4842 -0.4103,1.6717 -0.4103,1.6717 l -0.6692,2.8629 -0.7803,0.2222 -1.1906,0.3333 -5.3899,1.4500 -1.0025,0.2594 1.5239,1.4867 0.3731,-0.0739 0.9286,-0.2594 5.3893,-1.4495 1.1906,-0.3731 0.4842,-0.1483 0.1483,-0.4842 0.9286,-3.9026 4.3868,-3.4210 c -0.1482,-1.0028 -0.2593,-1.9340 -0.3731,-2.4526 z" /></g></g><g
     id="layer3" /><style
     type="text/css"
     id="style1">
	.st0{fill:#4891CE;}
	.st1{fill:#C7D9EA;}
	.st2{fill:#E3173E;}
	.st3{fill:#FFFFFF;}
</style></svg>
