<svg
  
  
   viewBox="0 0 140.3140 110.6577"
   version="1.1000"
   id="svg1"
   xml:space="preserve"
   sodipodi:docname="group-team-logo-doc.svg"
   inkscape:version="1.4000.2 (2aeb623e1d, 2025-05-12)"
   xmlns:inkscape="http://www.inkscape.org/namespaces/inkscape"
   xmlns:sodipodi="http://sodipodi.sourceforge.net/DTD/sodipodi-0.dtd"
   xmlns="http://www.w3.org/2000/svg"
   xmlns:svg="http://www.w3.org/2000/svg"><sodipodi:namedview
     id="namedview1"
     pagecolor="#ffffff"
     bordercolor="#000000"
     borderopacity="0.2500"
     inkscape:showpageshadow="2"
     inkscape:pageopacity="0.0000"
     inkscape:pagecheckerboard="0"
     inkscape:deskcolor="#d1d1d1"
     inkscape:document-units="px"
     inkscape:zoom="0.6988"
     inkscape:cx="154.5586"
     inkscape:cy="135.2388"
     inkscape:window-width="1854"
     inkscape:window-height="1011"
     inkscape:window-x="0"
     inkscape:window-y="0"
     inkscape:window-maximized="1"
     inkscape:current-layer="layer5"
     showgrid="false"><inkscape:page
       x="0"
       y="0"
      
      
       id="page2"
       margin="0"
       bleed="0" /><inkscape:grid
       id="grid5"
       units="px"
       originx="0"
       originy="0"
       spacingx="0.2213"
       spacingy="0.2213"
       empcolor="#0099e5"
       empopacity="0.3020"
       color="#0099e5"
       opacity="0.1490"
       empspacing="5"
       enabled="true"
       visible="false" /></sodipodi:namedview><defs
     id="defs1"></defs><g
     inkscape:groupmode="layer"
     id="layer5"
     inkscape:label="new-york-liberty"
     style="fill:#bb0c2f;fill-opacity:1.0000"><path
       d="m 108.2780,72.1575 v -0.0090 L 50.8975,50.9475 c -2.4852,1.0192 -5.7937,1.9006 -5.0041,4.2481 0.4315,1.2763 1.4048,2.2098 2.5893,2.6015 -1.4477,-0.2418 -3.3055,-1.5487 -3.7952,-3.0361 -0.6948,-2.1363 0.0276,-3.4156 3.2014,-4.8480 l 0.0398,-0.0153 v -0.0061 l 38.9524,-15.4837 c -0.9488,-0.5540 -1.8302,-1.2089 -2.6260,-1.9619 L 52.5350,45.5455 83.3952,31.5676 c -0.2938,-0.3214 -0.5632,-0.6672 -0.8264,-1.0192 l -32.6660,14.0696 31.9834,-15.0674 c -0.1653,-0.2693 -0.3183,-0.5478 -0.4652,-0.8233 l -34.0953,14.6726 33.5596,-15.7958 c -0.1439,-0.3458 -0.2693,-0.6856 -0.3856,-1.0406 L 44.7457,42.4114 80.1448,25.2750 c -0.2234,-0.9610 -0.3458,-1.9588 -0.3581,-2.9780 l -43.3353,21.0968 v 0.0122 c -2.8249,1.3497 -4.8878,4.0216 -4.8878,7.3241 0,3.3085 2.0200,6.1304 4.8878,7.3241 l 65.7910,20.4265 0.0581,0.0184 c 1.2793,0.3948 1.7935,1.1906 1.4599,2.2189 -0.2418,0.7162 -1.1691,1.3467 -1.8639,1.4630 0.5754,-0.1898 1.2304,-0.6060 1.2487,-1.2518 0.0306,-0.9518 -1.4018,-1.1998 -2.2710,-1.4446 L 26.8625,108.8972 107.8494,84.3143 c 2.9045,-0.8141 5.0684,-3.0820 5.0684,-6.1273 0,-2.8954 -1.9710,-5.1694 -4.6399,-6.0294"
       id="path342"
       style="fill:#ffffff;fill-opacity:1;fill-rule:nonzero;stroke:none;stroke-width:3.0606" /><path
       d="m 108.2780,72.1575 v -0.0090 L 50.8975,50.9475 c -2.4852,1.0192 -5.7937,1.9006 -5.0041,4.2481 0.4315,1.2763 1.4048,2.2098 2.5893,2.6015 -1.4477,-0.2418 -3.3055,-1.5487 -3.7952,-3.0361 -0.6948,-2.1363 0.0276,-3.4156 3.2014,-4.8480 l 0.0398,-0.0153 v -0.0061 l 38.9524,-15.4837 c -0.9488,-0.5540 -1.8302,-1.2089 -2.6260,-1.9619 L 52.5350,45.5455 83.3952,31.5676 c -0.2938,-0.3214 -0.5632,-0.6672 -0.8264,-1.0192 l -32.6660,14.0696 31.9834,-15.0674 c -0.1653,-0.2693 -0.3183,-0.5478 -0.4652,-0.8233 l -34.0953,14.6726 33.5596,-15.7958 c -0.1439,-0.3458 -0.2693,-0.6856 -0.3856,-1.0406 L 44.7457,42.4114 80.1448,25.2750 c -0.2234,-0.9610 -0.3458,-1.9588 -0.3581,-2.9780 l -43.3353,21.0968 v 0.0122 c -2.8249,1.3497 -4.8878,4.0216 -4.8878,7.3241 0,3.3085 2.0200,6.1304 4.8878,7.3241 l 65.7910,20.4265 0.0581,0.0184 c 1.2793,0.3948 1.7935,1.1906 1.4599,2.2189 -0.2418,0.7162 -1.1691,1.3467 -1.8639,1.4630 0.5754,-0.1898 1.2304,-0.6060 1.2487,-1.2518 0.0306,-0.9518 -1.4018,-1.1998 -2.2710,-1.4446 L 26.8625,108.8972 107.8494,84.3143 c 2.9045,-0.8141 5.0684,-3.0820 5.0684,-6.1273 0,-2.8954 -1.9710,-5.1694 -4.6399,-6.0294 z"
       id="path346"
       style="fill:none;stroke:#ffffff;stroke-width:1.6925;stroke-linecap:round;stroke-linejoin:miter;stroke-miterlimit:20;stroke-dasharray:none;stroke-opacity:1" /><path
       d="m 108.5941,72.1575 v -0.0090 L 51.2137,50.9475 c -2.4822,1.0192 -5.7968,1.9006 -5.0041,4.2481 0.4285,1.2763 1.4079,2.2098 2.5923,2.6015 -1.4507,-0.2418 -3.3085,-1.5487 -3.7952,-3.0361 -0.6948,-2.1363 0.0276,-3.4156 3.1984,-4.8480 l 0.0428,-0.0153 h -0.0030 l 38.9586,-15.4898 c -0.9549,-0.5540 -1.8394,-1.2089 -2.6321,-1.9619 L 52.8511,45.5455 83.7144,31.5676 c -0.2908,-0.3214 -0.5662,-0.6672 -0.8294,-1.0131 l -32.6598,14.0635 31.9804,-15.0674 c -0.1622,-0.2693 -0.3214,-0.5417 -0.4683,-0.8233 l -34.0891,14.6726 33.5535,-15.7958 c -0.1377,-0.3458 -0.2693,-0.6856 -0.3856,-1.0406 L 45.0649,42.4114 80.4609,25.2750 c -0.2204,-0.9610 -0.3428,-1.9588 -0.3581,-2.9780 l -43.3322,21.0968 v 0.0122 c -2.8280,1.3497 -4.8878,4.0216 -4.8878,7.3241 0,3.3085 2.0169,6.1304 4.8878,7.3241 l 65.7849,20.4265 h 0.0030 l 0.0551,0.0184 c 1.2855,0.3948 1.7966,1.1906 1.4630,2.2189 -0.2387,0.7162 -1.1630,1.3467 -1.8578,1.4630 0.5693,-0.1898 1.2242,-0.6029 1.2457,-1.2518 0.0275,-0.9518 -1.4018,-1.1998 -2.2679,-1.4446 L 27.1817,108.9002 108.1656,84.3143 c 2.9045,-0.8141 5.0714,-3.0820 5.0714,-6.1273 0,-2.8953 -1.9710,-5.1694 -4.6429,-6.0294"
       id="path350"
       style="fill:#ffcd00;fill-opacity:1;fill-rule:nonzero;stroke:none;stroke-width:3.0606" /><path
       d="m 88.2842,13.3190 c 0.9672,-0.1714 2.4454,-0.3581 4.0155,-0.5601 1.2059,-0.1530 2.4301,-0.3061 3.4463,-0.4591 -0.6825,-0.2632 -1.3926,-0.4713 -2.1302,-0.6060 -1.5670,-0.2877 -3.2351,-0.2081 -4.9613,0.2387 -0.9365,0.5203 -1.7935,1.1600 -2.5495,1.9098 0.6244,-0.2020 1.3497,-0.3795 2.1791,-0.5234"
       id="path354"
       style="fill:#ffcd00;fill-opacity:1;fill-rule:nonzero;stroke:none;stroke-width:3.0606" /><path
       d="m 99.6856,13.4760 c 0.6519,-0.1622 1.3130,-0.2877 1.9833,-0.3918 -0.7223,-0.5876 -1.5181,-1.0926 -2.3659,-1.4997 l -0.0184,0.1408 c -0.0582,0.2816 -0.2357,0.6335 -0.6948,0.9182 0.3765,0.2540 0.7468,0.5325 1.0957,0.8325"
       id="path358"
       style="fill:#ffcd00;fill-opacity:1;fill-rule:nonzero;stroke:none;stroke-width:3.0606" /><path
       d="m 100.5900,14.3186 c 0.3428,0.3550 0.6672,0.7284 0.9671,1.1171 0.7070,-0.1806 1.4507,-0.0979 2.1761,0.2479 l 0.4499,0.2602 c -0.4407,-0.7039 -0.9549,-1.3497 -1.5242,-1.9466 -0.6978,0.0704 -1.3895,0.1775 -2.0690,0.3214"
       id="path362"
       style="fill:#ffffff;fill-opacity:1;fill-rule:nonzero;stroke:none;stroke-width:3.0606" /><path
       d="m 93.8064,10.6863 c 1.3069,0.2418 2.5495,0.6825 3.6942,1.2946 0.5264,-0.1377 0.7529,-0.3305 0.7835,-0.4713 l -0.1744,-0.4101 c -1.1906,-0.4132 -2.4699,-0.6458 -3.8013,-0.6458 -0.4989,0 -0.9916,0.0398 -1.4752,0.1010 0.3306,0.0276 0.6519,0.0735 0.9733,0.1316"
       id="path366"
       style="fill:#ffffff;fill-opacity:1;fill-rule:nonzero;stroke:none;stroke-width:3.0606" /><path
       d="m 98.4723,13.8158 c -0.3612,-0.2693 -0.7345,-0.5203 -1.1202,-0.7499 -1.1385,0.2357 -3.0606,0.4744 -4.9276,0.7131 -1.5548,0.1989 -3.0208,0.3826 -3.9604,0.5509 -2.7025,0.4775 -3.7248,1.1845 -4.0951,1.7109 -1.0835,1.7660 -1.7048,3.8441 -1.7048,6.0631 0,2.2036 0.6091,4.2604 1.6772,6.0202 2.0873,-6.9017 7.4373,-12.2210 14.1309,-14.3084"
       id="path370"
       style="fill:#ffffff;fill-opacity:1;fill-rule:nonzero;stroke:none;stroke-width:3.0606" /><path
       d="m 112.8716,42.4650 c -1.2916,-3.2443 -4.9674,-4.8205 -8.2086,-3.5228 -0.9518,0.3765 -1.7537,0.9672 -2.3873,1.6833 -0.3887,-0.0551 -0.7958,-0.0153 -1.1936,0.1347 -0.8203,0.3305 -1.3497,1.0804 -1.4293,1.9068 0.1745,-0.6795 0.6611,-1.2732 1.3681,-1.5517 1.1783,-0.4713 2.5097,0.1041 2.9841,1.2763 0.1469,0.3581 0.1898,0.7315 0.1561,1.0865 0.1132,-0.4591 0.0949,-0.9549 -0.0857,-1.4354 -0.2326,-0.5570 -0.6550,-0.9886 -1.1600,-1.2212 0.4683,-0.3703 0.9916,-0.6886 1.5732,-0.9212 3.2412,-1.2916 6.9170,0.2816 8.2086,3.5258 0.3918,0.9763 0.5203,1.9955 0.4193,2.9749 0.3306,-1.2579 0.2816,-2.6321 -0.2449,-3.9360"
       id="path374"
       style="fill:#418fde;fill-opacity:1;fill-rule:nonzero;stroke:none;stroke-width:3.0606" /><path
       d="M 78.9817,32.8271 V 20.9152 l -1.6864,-0.9059 -1.8608,-16.6314 -1.4079,14.6603 -1.4079,-17.0874 -1.5089,15.6979 -2.3628,-1.2793 v 28.6535 l -0.7009,0.2755 -17.0599,6.7364 v 1.0222 16.2243 1.8333 0.7162 0.0030 21.2590 l -0.0030,3.6146 v 2.2159 l 36.8805,-14.6114 V 64.5320 l 3.0729,2.6505 v 14.9174 l 10.2378,-4.0461 V 64.1311 c 0.2112,-0.3489 1.1447,-1.9068 1.1447,-1.9068 l -0.0090,-0.0122 c 0.8753,-1.4569 3.0086,-5.0072 3.0392,-5.0592 0.1469,-0.2326 0.2357,-0.5050 0.2357,-0.8355 v -9.5705 c 0,0 -26.2907,-13.7513 -26.6029,-13.9197"
       id="path378"
       style="fill:#ffffff;fill-opacity:1;fill-rule:nonzero;stroke:none;stroke-width:3.0606" /><path
       d="m 52.4970,52.0569 v 21.8253 1.8394 l 8.8758,-3.5044 v 16.3712 l -1.6527,0.6550 v -14.6389 l -7.2261,2.8556 v 14.6359 3.6115 l 7.2261,-2.8525 1.6527,-0.6519 7.2230,-2.8556 v -19.9889 -3.6085 l -8.8758,3.5075 V 52.8160 l 1.6527,-0.6458 v 14.6359 l 7.2230,-2.8556 V 45.7031 Z m 26.6365,1.5946 -1.6558,2.7699 v -34.6125 l -1.1691,-0.6305 -0.8508,-14.2166 -0.7499,13.3473 -1.3099,-0.7101 -0.8447,-14.7736 -0.7835,13.8952 -1.5150,-0.8264 v 51.6295 l -0.0030,0.7988 h 0.0030 v 18.3270 l 7.2230,-2.8556 v -18.3239 l 0.0367,-0.0612 1.6191,1.4232 v 16.3100 l 7.2261,-2.8556 V 64.1525 l -4.5175,-3.9757 4.5175,-7.5414 V 38.5321 l -7.2261,-3.9115 z m 24.9501,-6.0110 -7.2292,-3.9115 v 13.3412 l -0.8019,1.3436 -0.7988,-0.7101 V 43.0832 l -7.2261,-3.9115 v 23.4321 l 3.7064,3.2443 -0.0060,0.0184 0.7131,0.6244 v 13.3933 l 7.2261,-2.8494 V 63.7118 l 0.7131,-1.1875 -0.0030,-0.0092 3.7064,-6.1671 z"
       id="path382"
       style="fill:#418fde;fill-opacity:1;fill-rule:nonzero;stroke:none;stroke-width:3.0606" /><path
       d="m 68.7504,16.4418 c 0,-0.7039 -0.2173,-1.2702 -0.6091,-1.6497 l -0.0184,-0.0153 -0.0398,-0.0398 -0.3856,-0.3887 -0.3275,-0.2785 c -0.4254,-0.2693 -1.1753,-0.4744 -2.3536,0.0765 -1.1508,0.5387 -1.9802,1.4630 -2.3230,2.5373 l -0.3244,-0.2816 c -0.4193,-0.2724 -1.1569,-0.4775 -2.2587,0.0367 -0.9702,0.4530 -1.6956,1.2212 -2.0935,2.1332 l -0.0490,-0.2663 -0.5203,-0.5172 -2.9963,1.4018 -0.3520,2.0751 -0.0030,-0.0031 -0.4101,-0.4132 -0.3091,-0.2571 c -0.4163,-0.2693 -1.1416,-0.4775 -2.2373,0.0367 -0.6274,0.2938 -1.1539,0.7039 -1.5609,1.1814 l -0.2357,-0.2326 -2.9872,1.3956 c -0.7835,0.3703 -1.9466,0.9090 -2.0200,0.9427 v -0.0031 l -2.9872,1.3987 v 1.0100 l -0.0826,-0.0765 c -0.4132,-0.2693 -1.1416,-0.4652 -2.2373,0.0398 -1.5456,0.7254 -2.5097,2.1332 -2.5097,3.6758 v 3.9696 c 0,0.6733 0.1989,1.2212 0.5601,1.5976 h -0.0030 l 0.5325,0.5356 0.0245,0.0214 0.0214,0.0214 0.2510,0.1959 c 0.4193,0.2693 1.1722,0.4744 2.3475,-0.0735 0.5632,-0.2632 1.0345,-0.6305 1.4201,-1.0620 l 0.1959,0.2020 2.7301,-1.2793 v 0.0031 l 2.9902,-1.3987 2.2710,-1.0590 v -1.1171 l 0.1561,0.1285 c 0.4224,0.2693 1.1722,0.4744 2.3475,-0.0735 0.3122,-0.1469 0.5876,-0.3030 0.8447,-0.5050 l 0.7070,-0.3275 c -0.1041,0.1561 -0.1959,0.3183 -0.2693,0.4958 -0.2081,0.5325 -0.2326,1.1018 -0.0949,1.6160 -0.0428,-0.4009 0.0090,-0.8233 0.1714,-1.2242 0.4071,-1.0192 1.3926,-1.6405 2.4332,-1.6282 h 0.0888 c 0.2877,0.0214 0.5693,0.0704 0.8447,0.1806 l 0.4530,0.2418 c -0.1928,0.1683 -0.3489,0.3795 -0.4499,0.6335 -0.1377,0.3367 -0.1469,0.6948 -0.0643,1.0222 -0.0275,-0.2540 0.0060,-0.5203 0.1071,-0.7774 0.3367,-0.8386 1.2885,-1.2487 2.1302,-0.9121 0.5050,0.2020 0.8539,0.6213 0.9794,1.1079 -0.0612,-0.5876 -0.4346,-1.1232 -1.0253,-1.3559 -0.4897,-0.2020 -1.0222,-0.1347 -1.4477,0.1163 -0.2173,-0.1898 -0.4683,-0.3550 -0.7499,-0.4713 -0.2449,-0.0949 -0.4897,-0.1469 -0.7376,-0.1714 0.0459,-0.2969 0.1224,-0.5999 0.2387,-0.8937 0.7560,-1.8823 2.7913,-2.8709 4.6980,-2.3567 l 0.4591,0.1500 0.1898,0.0826 c 1.1110,0.5111 1.8853,1.4844 2.1791,2.5985 -0.1316,-1.2671 -0.8723,-2.4393 -2.0353,-3.0820 0.8417,-2.4118 3.1402,-4.1380 5.8397,-4.1380 0.3030,0 0.6060,0.0184 0.8937,0.0673 v -0.3581 l 0.0030,0.0031 z"
       id="path386"
       style="fill:#418fde;fill-opacity:1;fill-rule:nonzero;stroke:none;stroke-width:3.0606" /><path
       d="m 41.3426,28.7999 -1.3222,0.6182 V 28.8152 c 0,-0.6489 -0.2969,-0.7835 -0.6397,-0.6213 -0.5325,0.2448 -0.7039,0.6029 -0.7039,1.1814 v 3.9053 c 0,0.5723 0.1714,0.7713 0.7039,0.5234 0.4805,-0.2265 0.6397,-0.5815 0.6397,-1.0804 v -0.9274 l 1.3222,-0.6121 v 0.8815 c 0,1.0865 -0.6397,2.2710 -1.9619,2.8862 -1.3895,0.6489 -2.0292,0.0673 -2.0292,-1.0222 V 29.9599 c 0,-1.0835 0.6397,-2.2679 2.0292,-2.9198 1.3222,-0.6182 1.9619,0.0459 1.9619,1.1936 z"
       id="path390"
       style="fill:#ffffff;fill-opacity:1;fill-rule:nonzero;stroke:none;stroke-width:3.0606" /><path
       d="m 46.2341,31.6490 -1.3222,0.6121 v -3.4095 l -1.4079,0.6611 v 3.4065 l -1.3252,0.6213 V 25.8400 l 1.3252,-0.6152 v 3.1341 l 1.4079,-0.6611 v -3.1341 l 1.3222,-0.6152 z"
       id="path394"
       style="fill:#ffffff;fill-opacity:1;fill-rule:nonzero;stroke:none;stroke-width:3.0606" /><path
       d="m 48.5096,30.5867 -1.3253,0.6152 v -7.7036 l 1.3253,-0.6182 z"
       id="path398"
       style="fill:#ffffff;fill-opacity:1;fill-rule:nonzero;stroke:none;stroke-width:3.0606" /><path
       d="m 53.4531,23.1430 -1.3253,0.6213 v -0.5968 c 0,-0.6550 -0.2938,-0.7896 -0.6366,-0.6335 -0.5325,0.2479 -0.7039,0.6060 -0.7039,1.1845 v 3.9023 c 0,0.5754 0.1714,0.7743 0.7039,0.5264 0.4775,-0.2295 0.6366,-0.5815 0.6366,-1.0804 v -0.9274 l 1.3253,-0.6182 v 0.8876 c 0,1.0865 -0.6427,2.2740 -1.9619,2.8862 -1.3865,0.6489 -2.0261,0.0704 -2.0261,-1.0222 v -3.9696 c 0,-1.0896 0.6397,-2.2740 2.0261,-2.9198 1.3191,-0.6152 1.9619,0.0459 1.9619,1.1967 z"
       id="path402"
       style="fill:#ffffff;fill-opacity:1;fill-rule:nonzero;stroke:none;stroke-width:3.0606" /><path
       d="m 56.9196,26.2238 -0.1714,-1.1936 -1.4538,0.6795 -0.2357,1.8180 -1.2824,0.5938 1.4232,-8.3616 1.6436,-0.7652 1.2457,6.1794 c -0.4530,0.2632 -0.8478,0.6213 -1.1692,1.0498"
       id="path406"
       style="fill:#ffffff;fill-opacity:1;fill-rule:nonzero;stroke:none;stroke-width:3.0606" /><path
       d="m 62.5095,22.3974 c -0.3581,0.4469 -0.6580,0.9519 -0.8815,1.4936 l -0.0030,-0.0092 c -0.2173,0.3612 -0.4132,0.6244 -0.6427,0.8478 -0.7805,-0.1836 -1.5762,-0.1102 -2.2924,0.1561 -0.1071,-0.2142 -0.1714,-0.4928 -0.1714,-0.8417 v -3.9727 c 0,-1.0835 0.6427,-2.2679 1.9435,-2.8770 1.3222,-0.6213 1.9802,0.0337 1.9802,1.1845 v 0.4897 l -1.2549,0.5907 c 0,-1.1539 -0.2326,-1.3405 -0.7560,-1.0957 -0.3214,0.1469 -0.5876,0.4622 -0.5876,1.1110 v 3.9574 c 0,0.4928 0.1592,0.7376 0.6182,0.5234 0.5356,-0.2448 0.7254,-0.6366 0.7254,-1.4018 v -0.7529 l -0.8417,0.3979 v -1.0498 l 2.1639,-1.0069 z"
       id="path410"
       style="fill:#ffffff;fill-opacity:1;fill-rule:nonzero;stroke:none;stroke-width:3.0606" /><path
       d="m 67.4001,19.8926 -0.0122,0.1653 h -0.0428 c -0.4315,0 -0.8570,0.0490 -1.2702,0.1377 v -3.6207 c 0,-0.5754 -0.1683,-0.7713 -0.7039,-0.5295 -0.5325,0.2571 -0.7009,0.6121 -0.7009,1.1875 v 3.4371 c -0.4805,0.2326 -0.9243,0.5203 -1.3253,0.8631 v -3.7156 c 0,-1.0865 0.6397,-2.2679 2.0261,-2.9198 1.3895,-0.6458 2.0292,-0.0582 2.0292,1.0284 z"
       id="path414"
       style="fill:#ffffff;fill-opacity:1;fill-rule:nonzero;stroke:none;stroke-width:3.0606" /><path
       d="m 56.0100,20.9152 -0.5234,3.5534 1.0681,-0.5019 -0.5234,-3.0637 z"
       id="path418"
       style="fill:#418fde;fill-opacity:1;fill-rule:nonzero;stroke:none;stroke-width:3.0606" /><path
       d="m 48.5975,64.0705 -3.2902,5.0041 -0.4254,-0.1959 c -3.2412,-1.2977 -6.9170,0.2816 -8.2116,3.5197 -0.4866,1.2243 -0.5601,2.5036 -0.2969,3.7003 -0.5295,-0.2173 -1.1355,-0.2326 -1.7078,-0.0060 -0.7927,0.3183 -1.3038,1.0222 -1.4201,1.8027 -0.3612,-0.4958 -0.8600,-0.8968 -1.4722,-1.1416 -1.7354,-0.6886 -3.7033,0.1530 -4.3950,1.8884 -0.2816,0.6978 -0.3122,1.4324 -0.1347,2.1026 -0.0551,-0.5234 0.0184,-1.0681 0.2265,-1.5915 0.6948,-1.7323 2.6627,-2.5740 4.3951,-1.8823 1.0345,0.4163 1.7598,1.2824 2.0200,2.2832 -0.0612,-0.5938 -0.2816,-1.1600 -0.6305,-1.6436 0.2020,-0.6427 0.6733,-1.1967 1.3467,-1.4691 0.6244,-0.2479 1.2916,-0.1989 1.8547,0.0704 l -0.0337,-0.2326 c -0.0888,-0.9641 0.0429,-1.9619 0.4254,-2.9198 1.2671,-3.1708 4.8144,-4.7470 8.0066,-3.5932 l -1.1018,1.6680 v 12.2884 l -0.0337,0.0184 0.0184,-0.0184 -3.2626,-1.4171 -0.3489,-5.1877 -0.3520,5.4663 -3.2596,3.9941 0.0276,-0.0060 -0.0090,0.0060 v 15.5693 l 7.2200,-2.8556 7.2292,-2.8525 v -27.8608 z m -2.5801,10.9448 -1.2946,-3.5320 3.7646,-5.7080 1.4507,2.9596 z"
       id="path422"
       style="fill:#418fde;fill-opacity:1;fill-rule:nonzero;stroke:none;stroke-width:3.0606" /><path
       d="m 88.7151,32.2039 0.3550,-0.0337 c 0.6152,-0.6672 1.4936,-1.0896 2.4730,-1.0896 0.4530,0 0.8814,0.0918 1.2763,0.2571 0.4377,-2.3261 2.0996,-4.2083 4.2849,-4.9674 0.3795,-1.2212 0.6244,-2.5770 0.8661,-3.9145 0.4989,-2.7882 0.9763,-5.4295 2.6321,-6.5650 -0.3612,-0.4591 -0.7621,-0.8906 -1.1875,-1.2824 -6.9200,1.9068 -12.4506,7.4281 -14.3145,14.6114 0.9396,1.2120 2.1088,2.2342 3.4493,2.9963 z"
       id="path426"
       style="fill:#ffcd00;fill-opacity:1;fill-rule:nonzero;stroke:none;stroke-width:3.0606" /><path
       d="m 103.9539,25.4516 c -0.1255,0.7039 -0.3214,1.3834 -0.5540,2.0384 0.2846,0.2295 0.5448,0.4928 0.7896,0.7652 1.1171,-1.7782 1.7629,-3.8962 1.7629,-6.1518 0,-0.9886 -0.1255,-1.9496 -0.3520,-2.8586 -0.2204,-0.6703 -1.1477,-2.0720 -2.3169,-2.6352 -0.3734,-0.1867 -0.7284,-0.2602 -1.0835,-0.2357 1.7201,2.7056 2.3475,5.9162 1.7537,9.0778"
       id="path430"
       style="fill:#ffcd00;fill-opacity:1;fill-rule:nonzero;stroke:none;stroke-width:3.0606" /><path
       d="m 89.0720,32.1712 -0.3581,0.0337 -0.1653,0.0122 c -1.3375,-0.7621 -2.5128,-1.7843 -3.4493,-2.9963 0.1745,-0.6642 0.3765,-1.3130 0.6060,-1.9435 1.1630,1.7690 2.8617,3.1586 4.8572,3.9543 0.3122,-0.1010 0.6366,-0.1500 0.9794,-0.1500 0.4530,0 0.8814,0.0888 1.2763,0.2540 0.0643,-0.3336 0.1530,-0.6550 0.2663,-0.9641 -2.8249,-0.5968 -5.2275,-2.3383 -6.6936,-4.7287 2.5342,-5.4081 7.2996,-9.4542 13.0260,-11.0335 0.4254,0.3887 0.8233,0.8202 1.1845,1.2793 -1.6527,1.1385 -2.1302,3.7799 -2.6321,6.5650 -0.2418,1.3375 -0.4897,2.6964 -0.8661,3.9145 0.3734,-0.1316 0.7560,-0.2234 1.1539,-0.2846 0.3030,-1.1049 0.5142,-2.2832 0.7192,-3.4493 0.4683,-2.5740 0.9060,-5.0133 2.2281,-5.9131 1.6742,2.5281 2.2955,5.5611 1.7415,8.5514 -0.1010,0.5448 -0.2449,1.0804 -0.4224,1.6099 0.3091,0.1806 0.6029,0.3795 0.8753,0.6060 0.2357,-0.6519 0.4285,-1.3344 0.5540,-2.0384 0.5938,-3.1616 -0.0337,-6.3722 -1.7507,-9.0778 0.3520,-0.0214 0.7101,0.0520 1.0804,0.2357 1.1691,0.5662 2.0965,1.9680 2.3169,2.6352 0.2265,0.9121 0.3520,1.8700 0.3520,2.8617 0,2.2557 -0.6427,4.3706 -1.7599,6.1518 0.2418,0.2755 0.4560,0.5754 0.6519,0.8845 1.3497,-2.0108 2.1394,-4.4379 2.1394,-7.0364 0,-1.0773 -0.1408,-2.1179 -0.3918,-3.1188 h 0.0030 l -0.0090,-0.0214 c -1.4018,-5.4754 -6.3691,-9.5338 -12.2761,-9.5338 -4.5542,0 -8.5605,2.4179 -10.7948,6.0386 l -0.0275,0.0428 v 0 c -1.1783,1.9190 -1.8517,4.1808 -1.8517,6.5926 0,4.8480 2.7393,9.0655 6.7548,11.1988 0.1469,-0.4224 0.3856,-0.8049 0.6825,-1.1324 m 15.1102,-16.2304 -0.4499,-0.2571 c -0.7223,-0.3458 -1.4691,-0.4285 -2.1761,-0.2479 -0.2999,-0.3887 -0.6244,-0.7621 -0.9671,-1.1171 0.6764,-0.1438 1.3712,-0.2479 2.0690,-0.3214 0.5723,0.5938 1.0835,1.2426 1.5242,1.9435 m -4.8970,-4.2145 0.0184,-0.1408 c 0.8478,0.4071 1.6435,0.9121 2.3628,1.4997 -0.6672,0.1010 -1.3283,0.2265 -1.9802,0.3918 -0.3489,-0.3030 -0.7192,-0.5815 -1.0988,-0.8325 0.4622,-0.2877 0.6397,-0.6366 0.6978,-0.9182 m -4.9767,-1.2702 c 1.3314,0 2.6107,0.2295 3.8013,0.6427 l 0.1744,0.4101 c -0.0306,0.1408 -0.2571,0.3336 -0.7835,0.4713 -1.1447,-0.6091 -2.3904,-1.0529 -3.6942,-1.2946 -0.3214,-0.0582 -0.6427,-0.1010 -0.9733,-0.1316 0.4836,-0.0612 0.9763,-0.0979 1.4752,-0.0979 m -5.6560,1.4783 c 1.7262,-0.4499 3.3973,-0.5295 4.9643,-0.2387 0.7345,0.1347 1.4446,0.3397 2.1241,0.6060 -1.0131,0.1530 -2.2373,0.3030 -3.4432,0.4591 -1.5670,0.1989 -3.0453,0.3856 -4.0125,0.5601 -0.8294,0.1408 -1.5548,0.3183 -2.1792,0.5234 0.7529,-0.7499 1.6099,-1.3895 2.5464,-1.9098 m -4.3124,16.1876 c -1.0651,-1.7568 -1.6772,-3.8166 -1.6772,-6.0172 0,-2.2220 0.6244,-4.3002 1.7048,-6.0661 0.3734,-0.5234 1.3926,-1.2334 4.0982,-1.7109 0.9396,-0.1683 2.4026,-0.3520 3.9574,-0.5509 1.8700,-0.2357 3.7891,-0.4775 4.9276,-0.7101 0.3856,0.2295 0.7590,0.4805 1.1202,0.7499 -5.4754,1.7048 -10.0511,5.5795 -12.6801,10.7091 -0.5999,-1.3161 -0.9365,-2.7790 -0.9365,-4.3185 0,-1.7292 0.4193,-3.3667 1.1722,-4.7990 -1.2763,1.7201 -2.0261,3.8564 -2.0261,6.1610 0,1.6344 0.3795,3.1830 1.0498,4.5634 -0.2663,0.6489 -0.5019,1.3130 -0.7101,1.9894"
       id="path434"
       style="fill:#418fde;fill-opacity:1;fill-rule:nonzero;stroke:none;stroke-width:3.0606" /><path
       d="m 99.2510,26.0047 c 1.1906,0 2.3046,0.3183 3.2718,0.8753 0.1775,-0.5264 0.3214,-1.0620 0.4224,-1.6099 0.5570,-2.9902 -0.0673,-6.0172 -1.7384,-8.5452 -1.3222,0.8937 -1.7629,3.3361 -2.2281,5.9100 -0.2081,1.1661 -0.4193,2.3444 -0.7192,3.4493 0.3244,-0.0490 0.6489,-0.0796 0.9916,-0.0796"
       id="path438"
       style="fill:#ffffff;fill-opacity:1;fill-rule:nonzero;stroke:none;stroke-width:3.0606" /><path
       d="m 108.4056,32.9804 c -0.4836,-1.2059 -1.5701,-1.9925 -2.7729,-2.1486 -0.3581,-2.2036 -1.8333,-4.1716 -4.0614,-5.0653 -3.3789,-1.3528 -7.2139,0.2969 -8.5636,3.6789 -0.1959,0.4805 -0.3244,0.9794 -0.3948,1.4752 -1.7109,-0.6060 -3.5993,0.2357 -4.2726,1.9251 -0.2785,0.6978 -0.3122,1.4354 -0.1316,2.1088 -0.0551,-0.5234 0.0153,-1.0682 0.2234,-1.5915 0.6611,-1.6436 2.4607,-2.4883 4.1257,-1.9802 -0.0581,0.7407 0.0122,1.4722 0.1959,2.1700 -0.1041,-1.0222 0.0306,-2.0843 0.4315,-3.1065 1.3558,-3.3789 5.1877,-5.0255 8.5697,-3.6727 1.8792,0.7499 3.2198,2.2679 3.8105,4.0461 -0.5478,-0.0612 -1.1141,0.0122 -1.6619,0.2265 -1.2426,0.5019 -2.0384,1.6344 -2.1639,2.8770 0.2724,-1.0284 1.0039,-1.9190 2.0690,-2.3475 1.7752,-0.7101 3.7921,0.1561 4.5022,1.9343 0.2142,0.5387 0.2846,1.0957 0.2326,1.6313 0.1806,-0.6886 0.1500,-1.4446 -0.1377,-2.1608"
       id="path442"
       style="fill:#418fde;fill-opacity:1;fill-rule:nonzero;stroke:none;stroke-width:3.0606" /></g><style
     type="text/css"
     id="style1">
	.st0{fill:#4891CE;}
	.st1{fill:#C7D9EA;}
	.st2{fill:#E3173E;}
	.st3{fill:#FFFFFF;}
</style><style
     type="text/css"
     id="style1-7">
	.st0{fill:#211646;}
	.st1{fill:#B3B2B1;}
	.st2{fill:#FFFFFF;}
	.st3{fill:#D35E13;}
</style></svg>
