<svg
  
  
   viewBox="0 0 140.3140 110.6577"
   version="1.1000"
   id="svg1"
   xml:space="preserve"
   sodipodi:docname="group-team-logo-doc.svg"
   inkscape:version="1.4000.2 (2aeb623e1d, 2025-05-12)"
   xmlns:inkscape="http://www.inkscape.org/namespaces/inkscape"
   xmlns:sodipodi="http://sodipodi.sourceforge.net/DTD/sodipodi-0.dtd"
   xmlns="http://www.w3.org/2000/svg"
   xmlns:svg="http://www.w3.org/2000/svg"><sodipodi:namedview
     id="namedview1"
     pagecolor="#ffffff"
     bordercolor="#000000"
     borderopacity="0.2500"
     inkscape:showpageshadow="2"
     inkscape:pageopacity="0.0000"
     inkscape:pagecheckerboard="0"
     inkscape:deskcolor="#d1d1d1"
     inkscape:document-units="px"
     inkscape:zoom="0.9517"
     inkscape:cx="312.0650"
     inkscape:cy="195.9600"
     inkscape:window-width="1854"
     inkscape:window-height="1011"
     inkscape:window-x="0"
     inkscape:window-y="0"
     inkscape:window-maximized="1"
     inkscape:current-layer="layer18"
     showgrid="false"><inkscape:page
       x="0"
       y="0"
      
      
       id="page2"
       margin="0"
       bleed="0" /><inkscape:grid
       id="grid5"
       units="px"
       originx="0"
       originy="0"
       spacingx="0.2213"
       spacingy="0.2213"
       empcolor="#0099e5"
       empopacity="0.3020"
       color="#0099e5"
       opacity="0.1490"
       empspacing="5"
       enabled="true"
       visible="false" /></sodipodi:namedview><defs
     id="defs1"></defs><g
     inkscape:groupmode="layer"
     id="layer18"
     inkscape:label="connecticut-sun"><path
       class="st0"
       d="m 118.6866,55.0270 c -0.1078,-0.0862 -0.3019,-0.1725 -0.4959,-0.2587 -0.1294,-0.0647 -0.2372,-0.1078 -0.2372,-0.1078 -2.1776,-0.9487 -7.8911,-2.6735 -13.2165,-4.0965 0.1294,-2.7166 0.1725,-5.4763 0.1078,-8.3439 6.9209,-8.5595 4.2690,-10.3706 4.2690,-10.3706 -2.4579,1.0565 -4.7649,1.8111 -6.8562,2.3501 C 98.8726,32.8414 95.3798,31.6771 91.8224,30.7716 96.1991,16.4339 92.0811,15.6793 92.0811,15.6793 85.3758,22.8805 78.6058,26.0067 77.1613,26.6320 77.8728,25.6402 72.8277,6.9258 70.9088,2.5274 c 0,0 -0.0431,-0.1078 -0.1078,-0.2372 -0.1078,-0.2372 -0.1940,-0.3881 -0.2587,-0.4959 -0.1078,-0.1725 -0.2372,-0.3234 -0.3234,-0.3234 -0.1078,0 -0.2372,0.1509 -0.3450,0.3234 -0.1078,0.1294 -0.1940,0.3450 -0.3234,0.6468 -1.8973,4.3768 -7.0503,24.5789 -5.8860,24.3201 h -0.0647 l -0.0862,-0.0862 c 0,0 -7.6108,-3.0185 -15.1138,-11.1898 0,0 -4.1396,0.7115 0.1294,15.1138 -3.4928,0.8840 -6.8993,1.9620 -10.2628,3.2772 -2.0051,-0.5390 -4.2690,-1.2721 -6.6622,-2.3716 0,0 -2.6088,1.7033 3.9240,10.0903 -0.1078,3.0831 -0.1078,6.0800 0.0431,8.9691 -5.3039,1.4014 -10.9742,3.1263 -13.1518,4.0749 0,0 -0.1078,0.0431 -0.2372,0.1078 -0.2372,0.1078 -0.3881,0.1940 -0.4959,0.2587 -0.1725,0.1078 -0.3234,0.2372 -0.3234,0.3234 0,0.0862 0.1509,0.2372 0.3234,0.3450 0.1294,0.1078 0.3450,0.1940 0.6468,0.3234 2.2207,0.9487 8.4948,2.7597 14.1436,4.1612 0.3234,2.2638 0.7546,4.4630 1.2074,6.5975 -8.9907,7.8264 -6.5328,10.1118 -6.5328,10.1118 3.4065,-0.8840 6.4681,-1.2289 8.9907,-1.3367 1.7680,5.1098 3.9671,9.7669 6.5544,13.9280 6.0154,1.5739 12.1385,2.5226 18.2617,2.8891 1.4230,6.0154 3.5143,13.4321 4.5924,15.8685 0.1078,0.3019 0.2372,0.4743 0.3234,0.6468 0.1078,0.1941 0.2372,0.3234 0.3450,0.3234 0.1078,0 0.2156,-0.1294 0.3234,-0.3234 0.0862,-0.1078 0.1725,-0.3018 0.2587,-0.5390 0.0647,-0.1294 0.1078,-0.2372 0.1078,-0.2372 1.1211,-2.5226 3.2772,-9.8531 4.7648,-15.7822 5.8860,-0.3234 11.7720,-1.2289 17.5502,-2.6951 2.6088,-4.1396 4.8511,-8.7751 6.6622,-13.8849 2.5226,0.1078 5.6488,0.4743 9.0769,1.4230 0,0 2.5010,-2.2854 -6.5328,-10.2628 0.4959,-2.1992 0.9271,-4.4630 1.2721,-6.7915 5.6488,-1.4014 12.0091,-3.2125 14.2514,-4.1827 0.2587,-0.1078 0.4959,-0.2372 0.6468,-0.3234 0.1940,-0.1078 0.3234,-0.2372 0.3234,-0.3450 0.0862,0 -0.0431,-0.1078 -0.2372,-0.2156 z M 77.0966,26.6535 c 0,0 -0.0431,0 0,0 -0.0431,0 0,0 0,0 z"
       id="path1"
       style="stroke-width:0.2156" /><path
       class="st1"
       d="m 118.6866,55.0270 c -0.1078,-0.0862 -0.3019,-0.1725 -0.4959,-0.2587 -0.1294,-0.0647 -0.2372,-0.1078 -0.2372,-0.1078 -2.1776,-0.9487 -7.8911,-2.6735 -13.2165,-4.0965 0.1294,-2.7166 0.1725,-5.4763 0.1078,-8.3439 6.9209,-8.5595 4.2690,-10.3706 4.2690,-10.3706 -2.4579,1.0565 -4.7649,1.8111 -6.8562,2.3501 C 98.8726,32.8414 95.3798,31.6771 91.8224,30.7716 96.1991,16.4339 92.0811,15.6793 92.0811,15.6793 85.3758,22.8805 78.6058,26.0067 77.1613,26.6320 77.8728,25.6402 72.8277,6.9258 70.9088,2.5274 c 0,0 -0.0431,-0.1078 -0.1078,-0.2372 -0.1078,-0.2372 -0.1940,-0.3881 -0.2587,-0.4959 -0.1078,-0.1725 -0.2372,-0.3234 -0.3234,-0.3234 -0.1078,0 -0.2372,0.1509 -0.3450,0.3234 -0.1078,0.1294 -0.1940,0.3450 -0.3234,0.6468 -1.8973,4.3768 -7.0503,24.5789 -5.8860,24.3201 h -0.0647 l -0.0862,-0.0862 c 0,0 -7.6108,-3.0185 -15.1138,-11.1898 0,0 -4.1396,0.7115 0.1294,15.1138 -3.4928,0.8840 -6.8993,1.9620 -10.2628,3.2772 -2.0051,-0.5390 -4.2690,-1.2721 -6.6622,-2.3716 0,0 -2.6088,1.7033 3.9240,10.0903 -0.1078,3.0831 -0.1078,6.0800 0.0431,8.9691 -5.3039,1.4014 -10.9742,3.1263 -13.1518,4.0749 0,0 -0.1078,0.0431 -0.2372,0.1078 -0.2372,0.1078 -0.3881,0.1940 -0.4959,0.2587 -0.1725,0.1078 -0.3234,0.2372 -0.3234,0.3234 0,0.0862 0.1509,0.2372 0.3234,0.3450 0.1294,0.1078 0.3450,0.1940 0.6468,0.3234 2.2207,0.9487 8.4948,2.7597 14.1436,4.1612 0.3234,2.2638 0.7546,4.4630 1.2074,6.5975 -8.9907,7.8264 -6.5328,10.1118 -6.5328,10.1118 3.4065,-0.8840 6.4681,-1.2289 8.9907,-1.3367 1.7680,5.1098 3.9671,9.7669 6.5544,13.9280 6.0154,1.5739 12.1385,2.5226 18.2617,2.8891 1.4230,6.0154 3.5143,13.4321 4.5924,15.8685 0.1078,0.3019 0.2372,0.4743 0.3234,0.6468 0.1078,0.1941 0.2372,0.3234 0.3450,0.3234 0.1078,0 0.2156,-0.1294 0.3234,-0.3234 0.0862,-0.1078 0.1725,-0.3018 0.2587,-0.5390 0.0647,-0.1294 0.1078,-0.2372 0.1078,-0.2372 1.1211,-2.5226 3.2772,-9.8531 4.7648,-15.7822 5.8860,-0.3234 11.7720,-1.2289 17.5502,-2.6951 2.6088,-4.1396 4.8511,-8.7751 6.6622,-13.8849 2.5226,0.1078 5.6488,0.4743 9.0769,1.4230 0,0 2.5010,-2.2854 -6.5328,-10.2628 0.4959,-2.1992 0.9271,-4.4630 1.2721,-6.7915 5.6488,-1.4014 12.0091,-3.2125 14.2514,-4.1827 0.2587,-0.1078 0.4959,-0.2372 0.6468,-0.3234 0.1940,-0.1078 0.3234,-0.2372 0.3234,-0.3450 0.0862,0 -0.0431,-0.1078 -0.2372,-0.2156 z M 77.0966,26.6535 c 0,0 -0.0431,0 0,0 -0.0431,0 0,0 0,0 z m 24.1045,28.1363 c 0,0.0862 -0.0216,0.1294 -0.0216,0.2156 9.8747,1.0133 7.8911,2.4148 -0.1725,2.1776 -1.1211,11.7289 -4.5061,21.8838 -9.5081,30.0983 -14.2299,3.6437 -28.8909,3.5790 -43.0777,-0.1940 -4.8727,-8.1930 -8.1714,-18.2617 -9.2063,-29.9043 -7.4168,0.1509 -9.1416,-1.1211 -0.1509,-2.1345 0,-0.0862 0,-0.1725 -0.0216,-0.2587 -11.1683,0.2156 -8.3654,-1.4877 -0.1078,-2.1992 -0.1078,-3.3850 -0.0647,-6.8778 0.1940,-10.4784 -3.6221,-2.8029 -4.2690,-4.1827 0.1509,-2.0051 0.0216,-0.3234 0.0647,-0.6037 0.0862,-0.9055 -4.8942,-3.9671 -3.2341,-4.7002 1.8111,-2.3716 3.8378,-1.4877 7.8264,-2.6735 11.8367,-3.5359 -4.8511,-7.8911 -4.6786,-11.9229 3.1478,-0.6037 0.1294,-0.0216 0.3018,-0.0647 0.4312,-0.0862 -5.5626,-10.3921 -1.9620,-9.2925 3.3850,-0.4743 2.0051,-0.2587 3.9887,-0.4096 6.0154,-0.4959 -0.1078,-13.0872 3.1694,-20.2237 3.8593,-0.1078 h 0.3665 c 0.9487,-20.0943 4.1396,-12.9147 3.8809,0.1078 2.2423,0.1078 4.4846,0.3234 6.7053,0.6468 5.4332,-8.9691 9.0769,-10.0903 3.3850,0.5390 0.1294,0.0216 0.2587,0.0647 0.4096,0.0862 8.0420,-11.6642 8.1498,-7.4383 3.1263,0.6468 3.9024,0.9055 7.7402,2.0698 11.4486,3.5359 5.6488,-2.6951 7.5461,-1.9404 1.8326,2.5657 0.0216,0.2587 0.0431,0.5390 0.0647,0.7762 5.2392,-2.7166 4.4199,-1.0565 0.1509,2.1345 0.2156,3.4281 0.2372,6.7700 0.1078,10.0040 8.9044,0.6684 12.0738,2.5226 -0.1294,2.2207 z"
       id="path2"
       style="stroke-width:0.2156;fill:#dc4504;fill-opacity:1.0000" /><path
       class="st2"
       d="m 42.6215,41.6596 c -1.2721,-0.9055 -2.3716,-1.7033 -3.2341,-2.4148 -0.0216,0.3234 -0.0647,0.6253 -0.0862,0.9055 0.8840,0.4528 1.9620,1.0349 3.2772,1.7895 0,-0.1078 0.0216,-0.1940 0.0431,-0.2803 z m 2.5872,31.8878 c 0,0 0,-0.0216 0,0 -0.2372,-0.7546 -0.4528,-1.4661 -0.6684,-2.1992 -0.2156,-0.7546 -0.4096,-1.4877 -0.5821,-2.2638 v -0.0216 c -0.1078,-0.4528 -0.2156,-0.9055 -0.3234,-1.3583 -0.1078,-0.4743 -0.1940,-0.9055 -0.3018,-1.3799 -0.5821,-2.9538 -0.9918,-6.0369 -1.2074,-9.2279 -1.0565,0.0647 -2.0051,0.1078 -2.9107,0.1078 0.5821,6.4897 1.8758,12.5266 3.7515,18.0029 h 2.7597 c -0.1509,-0.5606 -0.3450,-1.1211 -0.5174,-1.6602 z m -2.2207,1.6386 c 0.1294,0.3665 0.2587,0.7546 0.4096,1.1211 -0.1725,-0.3450 -0.2803,-0.7546 -0.4096,-1.1211 z M 53.0568,33.3157 c -4.0534,0.8624 -7.9989,2.0482 -11.8367,3.5359 1.0133,0.4743 2.1560,1.0349 3.3850,1.7248 3.2987,-1.2289 6.6837,-2.1776 10.1549,-2.9107 l -0.8624,-1.0565 C 53.5742,34.1566 53.2939,33.7469 53.0568,33.3157 Z M 42.0178,54.7036 c -1.0565,0.0431 -2.0698,0.0862 -2.9538,0.1078 0,0.0862 0.0216,0.1725 0.0216,0.2587 0.8840,-0.1078 1.8758,-0.1940 2.9538,-0.2587 0,-0.0647 0,-0.0647 -0.0216,-0.1078 z m 0.3018,-10.3059 c -1.2289,-0.8193 -2.2854,-1.5739 -3.1694,-2.2638 -0.2587,3.6006 -0.3234,7.1149 -0.1940,10.4784 0.9271,-0.0862 1.9404,-0.1509 3.0185,-0.2156 -0.0216,-2.6088 0.0862,-5.2823 0.3450,-7.9989 z m 56.8763,-7.3090 c -3.7299,-1.4877 -7.5461,-2.6735 -11.4486,-3.5359 -0.2156,0.3450 -0.4528,0.6899 -0.6899,1.0565 l -1.0349,1.2721 c 3.3634,0.7546 6.6622,1.7248 9.8531,2.9538 1.2074,-0.6899 2.3070,-1.2505 3.3203,-1.7464 z M 82.8317,35.2561 c 0.0647,0.0216 0.1078,0.0216 0.1509,0.0216 0.5606,-0.8624 1.0996,-1.6602 1.5955,-2.3716 -0.1294,-0.0216 -0.2587,-0.0647 -0.4096,-0.0862 -0.3881,0.7546 -0.8409,1.5523 -1.3367,2.4363 z m 14.9629,7.0071 c 1.2721,-0.7546 2.3716,-1.3583 3.2987,-1.8326 -0.0216,-0.2587 -0.0431,-0.5390 -0.0647,-0.7762 -0.9055,0.6899 -1.9620,1.4877 -3.2556,2.3716 -0.0216,0.0862 0.0216,0.1509 0.0216,0.2372 z M 69.9170,34.1134 h 0.1940 c 0.0216,-0.9055 0.0647,-1.7680 0.1078,-2.5872 h -0.3665 c 0.0431,0.8193 0.0647,1.6817 0.0647,2.5872 z M 56.1830,32.6904 c 0.4959,0.7546 1.0349,1.5092 1.6170,2.3932 0.0647,-0.0216 0.1078,-0.0216 0.1725,-0.0431 -0.4959,-0.8840 -0.9487,-1.7033 -1.3583,-2.4363 -0.1509,0.0431 -0.2803,0.0647 -0.4312,0.0862 z m 17.8520,1.5523 c 1.8111,0.1078 3.6006,0.2587 5.4117,0.4743 0.4743,-0.8624 0.9487,-1.6817 1.4014,-2.4363 -2.2207,-0.3234 -4.4630,-0.5390 -6.7053,-0.6468 -0.0431,0.8624 -0.0862,1.7033 -0.1078,2.6088 z M 59.9992,32.1514 c 0.4743,0.7546 0.9271,1.5739 1.4230,2.4579 1.5523,-0.1725 3.1047,-0.3234 4.6355,-0.3881 -0.0431,-0.8840 -0.0647,-1.7248 -0.0647,-2.5872 -2.0051,0.0862 -4.0102,0.2587 -5.9938,0.5174 z M 101.2227,42.5435 c -0.9055,0.6899 -2.0051,1.4445 -3.1909,2.2207 0.2156,2.5872 0.3018,5.1314 0.2587,7.6108 1.0565,0.0431 2.0698,0.1078 3.0185,0.1725 0.1509,-3.2341 0.1294,-6.5544 -0.0862,-10.0040 z m -2.9753,12.1816 c 1.0996,0.0862 2.0698,0.1725 2.9538,0.2587 0,-0.0647 0,-0.1294 0.0216,-0.2156 -0.9055,-0.0216 -1.8973,-0.0647 -2.9538,-0.1078 -0.0216,0.0431 -0.0216,0.0647 -0.0216,0.0647 z m -0.1509,2.2854 c -0.2372,3.4712 -0.7115,6.7915 -1.4014,9.9609 -0.0431,0.1294 -0.0647,0.2587 -0.1078,0.4096 -0.3450,1.5955 -0.7546,3.1694 -1.2074,4.6786 -0.1940,0.6684 -0.4096,1.3152 -0.6253,1.9404 l -0.4312,1.1643 h 2.8029 c 1.9189,-5.4763 3.2341,-11.5133 3.8593,-18.0029 -0.8840,-0.0216 -1.8326,-0.0647 -2.8891,-0.1509 z m -0.9487,18.1754 -0.4528,1.2721 c 0.1509,-0.3881 0.3234,-0.8409 0.4528,-1.2721 z"
       id="path3"
       style="stroke-width:0.2156;fill:#ffc72e;fill-opacity:1.0000" /><path
       class="st3"
       d="m 42.9881,75.1860 c 1.4877,4.3121 3.3203,8.2792 5.4548,11.9013 14.1652,3.7515 28.8478,3.8162 43.0777,0.1940 2.2207,-3.6437 4.1180,-7.6971 5.6488,-12.0738 z m 17.5933,5.9291 c 1.4445,0 2.8675,0.5390 2.8675,1.7680 v 1.7248 c 0,1.2721 -1.1643,1.8326 -2.9107,1.8326 l -6.4250,-0.0431 c -1.4445,0 -2.8460,-0.6253 -2.8460,-1.8326 l 9.1632,0.0431 V 82.9477 l -6.4250,-0.0216 c -1.4445,0 -2.7382,-0.6253 -2.7382,-1.8542 v -1.4661 c 0,-1.4230 1.3152,-2.0051 2.7597,-2.0051 l 6.5544,0.0431 c 1.7033,0 2.8460,0.5606 2.8460,1.8758 l -9.0769,-0.0431 v 1.6170 z m 15.4372,3.5575 c 0,1.0996 -1.2505,1.8111 -2.7382,1.8111 l -5.9722,-0.0216 c -1.4661,0 -2.7166,-0.7546 -2.7166,-1.8326 l 0.0216,-6.9424 h 0.3234 c 1.5739,0 2.6951,0.4096 2.6951,1.5092 l -0.0216,5.4548 5.3901,0.0216 0.0216,-5.4548 c 0,-1.1427 1.1211,-1.4877 2.6951,-1.4877 h 0.3018 z m 12.1169,1.8326 h -0.6037 c -0.6037,0 -1.9189,-0.1078 -2.8460,-0.9271 l -3.1909,-2.9538 -1.2074,-1.0996 -0.0216,4.9589 -3.0185,-0.0216 0.0431,-8.7320 h 0.6253 c 0.6684,0 1.9620,0.1078 2.8675,0.9271 l 3.1909,2.9753 c 0,0 0.6899,0.6468 1.2074,1.0565 l 0.0216,-3.1694 c 0,-1.2289 1.1211,-1.7680 2.8029,-1.7680 h 0.2372 z"
       id="path4"
       style="stroke-width:0.2156;fill:#041e43;fill-opacity:1.0000" /><path
       class="st4"
       d="m 66.1655,36.3773 c -0.0431,-0.7546 -0.1078,-1.4661 -0.1078,-2.1560 -1.5739,0.0862 -3.1047,0.2156 -4.6355,0.3881 0.3234,0.5606 0.6468,1.1643 0.9487,1.7895 h 3.7946 z m 3.9024,0 c 0.0216,-0.7762 0.0431,-1.5523 0.0862,-2.2638 H 69.9601 c 0.0216,0.7115 0.0216,1.4877 0.0431,2.2638 z M 84.9015,73.8277 c 0.0216,0 0.0216,0 0,0 -1.5955,0.6468 -3.1478,0.7546 -3.9456,0.7546 h -0.0647 c -0.3234,0 -0.5390,-0.0216 -0.5390,-0.0216 H 60.1501 c -0.3881,0 -0.7546,-0.0216 -1.0996,-0.0431 -0.1940,0 -0.3881,-0.0216 -0.5821,-0.0431 -2.4148,-0.2372 -4.1180,-0.9487 -5.3254,-1.8758 h -0.0216 c -0.7546,-0.5606 -1.3152,-1.2074 -1.7033,-1.8542 -2.5226,1.4230 -4.7002,2.3716 -6.1878,2.8029 0.1725,0.5390 0.3665,1.1211 0.5606,1.6602 h 48.5756 l 0.4096,-1.1643 c -1.4445,-0.3665 -3.7084,-1.3583 -6.3603,-2.8891 -1.0133,1.3367 -2.2638,2.1776 -3.5143,2.6735 z M 79.4251,34.7171 c -1.7895,-0.2372 -3.6006,-0.3881 -5.4117,-0.4743 -0.0431,0.6899 -0.0862,1.4230 -0.1294,2.1560 h 4.6570 c 0.2803,-0.5821 0.5821,-1.1427 0.8840,-1.6817 z m 8.1067,17.7658 9.6591,-0.1509 c 0.3881,0 0.7546,0.0216 1.1211,0.0431 0.0431,-2.4794 -0.0647,-5.0020 -0.2587,-7.6108 -2.3716,1.5739 -5.2176,3.2556 -8.3870,4.8942 -0.6037,1.1211 -1.3367,2.0698 -2.1345,2.8244 z M 97.7946,42.2633 c 0,-0.0862 -0.0216,-0.1509 -0.0216,-0.2372 -1.4014,0.9918 -3.0185,2.0482 -4.9373,3.2341 1.9189,-1.1858 3.5359,-2.1776 4.9589,-2.9969 z M 96.0913,69.5803 c 0.1940,-0.7115 0.3665,-1.4661 0.5390,-2.1992 -0.1940,0.7762 -0.3665,1.4877 -0.5390,2.1992 z M 83.0042,35.2777 c -0.0647,0 -0.1078,-0.0216 -0.1509,-0.0216 -0.2156,0.3881 -0.4528,0.7762 -0.6899,1.2074 h 0.1078 c 0.2156,-0.4312 0.4743,-0.7977 0.7331,-1.1858 z m 7.4383,6.9640 c 1.9404,-1.3367 3.7731,-2.4579 5.4332,-3.4065 -3.2125,-1.2289 -6.5328,-2.1992 -9.8531,-2.9538 l -0.9271,1.1427 c 2.6519,0.9487 4.5277,2.8460 5.3470,5.2176 z m -13.4321,13.9280 0.1078,-0.0862 h -0.0431 l -0.0862,-6.1232 H 63.7507 v 11.2114 h 15.3941 c 3.9024,-5.0883 11.7720,-4.1180 11.7720,-4.1180 0,0 0.2156,0 -0.4096,5.9507 2.6088,1.4230 4.7217,2.8029 6.1878,3.9887 0.6899,-3.1694 1.1427,-6.5328 1.4014,-9.9609 -3.3203,-0.2372 -7.3737,-0.6899 -11.8151,-1.4877 z M 42.0178,54.7036 v 0.0862 c 1.1427,-0.1078 2.3932,-0.1725 3.7731,-0.2587 -1.3583,0.0647 -2.6088,0.1294 -3.7731,0.1725 z m 8.1714,-2.2638 v -3.3203 c -2.9753,-1.5955 -5.6704,-3.2341 -7.8911,-4.7002 -0.2587,2.7382 -0.3450,5.4117 -0.3234,7.9989 0.5606,-0.0216 1.1427,-0.0647 1.7680,-0.0647 z m 0,3.7515 c -2.9753,0.4312 -5.7135,0.6899 -8.0636,0.8409 0.2156,3.1694 0.6253,6.2525 1.2074,9.2279 1.6602,-1.2289 3.9887,-2.4794 6.8562,-3.7731 z m 48.0581,-1.4661 v -0.0431 c -0.9918,-0.0431 -2.0051,-0.1078 -3.1478,-0.1509 1.1211,0.0647 2.1560,0.1294 3.1478,0.1940 z M 58.8350,36.5929 c -0.3234,-0.5390 -0.6037,-1.0349 -0.8840,-1.4877 -0.0647,0 -0.1078,0.0216 -0.1725,0.0431 0.3234,0.4743 0.6468,0.9918 0.9918,1.4877 0.0431,-0.0431 0.0431,-0.0431 0.0647,-0.0431 z M 42.6215,41.6596 c -0.0216,0.1078 -0.0216,0.1940 -0.0431,0.3018 1.5092,0.8840 3.3634,1.9620 5.4979,3.3203 -2.1560,-1.3583 -3.9671,-2.5657 -5.4548,-3.6221 z m 7.5677,24.8591 v -0.1294 c -2.6735,1.2721 -4.7217,2.1560 -6.2310,2.6519 0.1940,0.7546 0.3881,1.5092 0.5821,2.2638 1.1427,-1.0565 2.9753,-2.4579 5.6488,-4.2043 z m 39.7143,1.2289 c 2.6951,1.8542 4.4630,3.2987 5.4763,4.3336 0.2587,-0.8193 0.4743,-1.6386 0.6899,-2.4794 -1.4230,-0.4743 -3.4065,-1.2721 -6.0154,-2.5872 -0.0431,0.2587 -0.1078,0.4743 -0.1509,0.7331 z M 56.1615,37.4122 54.7600,35.6873 c -3.4712,0.7115 -6.8131,1.6817 -10.1549,2.9107 1.9189,1.0565 4.0749,2.4148 6.4250,4.0534 1.0996,-2.8460 3.1694,-4.3768 5.1314,-5.2392 z"
       id="path5"
       style="stroke-width:0.2156;fill:#ffe9ad;fill-opacity:1.0000" /><path
       class="st5"
       d="m 85.5699,50.6718 c -1.7033,1.3152 -3.1263,1.9404 -5.3039,1.9404 H 79.8779 V 46.3597 H 61.6594 v 16.6446 h 18.1754 c 0,0 0.5390,-1.2289 2.1560,-2.3285 1.6602,-1.2074 3.7299,-1.8111 5.9722,-1.8111 h 0.7546 l -0.5390,6.1232 c -0.3665,4.2043 -3.9887,6.1232 -8.2361,6.1232 H 61.0772 c -4.0749,0 -7.7402,-2.3716 -8.0636,-6.0369 V 45.7992 c -0.3665,-4.3336 3.3850,-7.5893 8.1930,-7.5893 h 19.0378 c 5.4117,0 8.8613,2.8029 8.4517,7.8264 -0.2372,2.6519 -1.9620,4.0102 -3.1263,4.6355 z"
       id="path6"
       style="stroke-width:0.2156;fill:#dc4504;fill-opacity:1.0000" /><path
       class="st3"
       d="m 78.6058,54.2940 h 0.3881 c 2.1992,0 3.6221,-0.6468 5.3039,-1.9404 0.8193,-0.4743 1.9189,-1.2721 2.5872,-2.6088 -0.4528,0.4096 -0.9055,0.7115 -1.3367,0.9487 -1.7033,1.3152 -3.1263,1.9404 -5.3039,1.9404 H 79.8563 V 46.3813 H 61.6594 v 1.6602 H 78.6058 Z M 61.0772,71.1973 c -4.0749,0 -7.7402,-2.3716 -8.0636,-6.0369 V 45.8854 c -0.1078,-1.3152 0.1509,-2.5226 0.6899,-3.5790 -1.3583,1.3583 -2.1560,3.1694 -1.9404,5.2176 v 19.2966 c 0.3234,3.6653 3.9671,6.0154 8.0636,6.0154 h 18.8869 c 3.3203,0 6.2956,-1.2074 7.5677,-3.7515 -1.5092,1.4230 -3.8162,2.1129 -6.3172,2.1129 z"
       id="path7"
       style="stroke-width:0.2156;fill:#041e43;fill-opacity:1.0000" /></g><style
     type="text/css"
     id="style1">
	.st0{fill:#4891CE;}
	.st1{fill:#C7D9EA;}
	.st2{fill:#E3173E;}
	.st3{fill:#FFFFFF;}
</style><style
     type="text/css"
     id="style1-7">
	.st0{fill:#211646;}
	.st1{fill:#B3B2B1;}
	.st2{fill:#FFFFFF;}
	.st3{fill:#D35E13;}
</style><style
     type="text/css"
     id="style1-74">
	.st0{fill:#FFFFFF;}
	.st1{fill:#F3703A;}
	.st2{fill:#FDB927;}
	.st3{fill:#002D62;}
	.st4{fill:#FFE0A8;}
	.st5{fill:#BF2F38;}
</style></svg>
