<?xml version="1.0" encoding="UTF-8" standalone="no"?>
<svg
   viewBox="0 0 140.3140 110.6577"
   version="1.1000"
   id="svg1"
   xml:space="preserve"
   sodipodi:docname="connecticut-sun-logo-negative.svg"
   inkscape:version="1.4.2 (2aeb623e1d, 2025-05-12)"
   xmlns:inkscape="http://www.inkscape.org/namespaces/inkscape"
   xmlns:sodipodi="http://sodipodi.sourceforge.net/DTD/sodipodi-0.dtd"
   xmlns="http://www.w3.org/2000/svg"
   xmlns:svg="http://www.w3.org/2000/svg"><sodipodi:namedview
     id="namedview1"
     pagecolor="#ffffff"
     bordercolor="#000000"
     borderopacity="0.2500"
     inkscape:showpageshadow="2"
     inkscape:pageopacity="0.0000"
     inkscape:pagecheckerboard="0"
     inkscape:deskcolor="#d1d1d1"
     inkscape:document-units="px"
     inkscape:zoom="3.4837533"
     inkscape:cx="54.682402"
     inkscape:cy="35.450271"
     inkscape:window-width="1854"
     inkscape:window-height="1011"
     inkscape:window-x="0"
     inkscape:window-y="0"
     inkscape:window-maximized="1"
     inkscape:current-layer="layer18"
     showgrid="false"><inkscape:page
       x="0"
       y="0"
       id="page2"
       margin="0"
       bleed="0"
       width="140.314"
       height="110.6577" /><inkscape:grid
       id="grid5"
       units="px"
       originx="0"
       originy="0"
       spacingx="0.2213"
       spacingy="0.2213"
       empcolor="#0099e5"
       empopacity="0.3020"
       color="#0099e5"
       opacity="0.149"
       empspacing="5"
       enabled="true"
       visible="false" /></sodipodi:namedview><defs
     id="defs1" /><g
     inkscape:groupmode="layer"
     id="layer18"
     inkscape:label="connecticut-sun"><path
       class="st1"
       d="m 118.6866,55.027 c -0.1078,-0.0862 -0.3019,-0.1725 -0.4959,-0.2587 -0.1294,-0.0647 -0.2372,-0.1078 -0.2372,-0.1078 -2.1776,-0.9487 -7.8911,-2.6735 -13.2165,-4.0965 0.1294,-2.7166 0.1725,-5.4763 0.1078,-8.3439 6.9209,-8.5595 4.269,-10.3706 4.269,-10.3706 -2.4579,1.0565 -4.7649,1.8111 -6.8562,2.3501 -3.385,-1.3582 -6.8778,-2.5225 -10.4352,-3.428 C 96.1991,16.4339 92.0811,15.6793 92.0811,15.6793 85.3758,22.8805 78.6058,26.0067 77.1613,26.632 77.8728,25.6402 72.8277,6.9258 70.9088,2.5274 c 0,0 -0.0431,-0.1078 -0.1078,-0.2372 C 70.6932,2.053 70.607,1.9021 70.5423,1.7943 70.4345,1.6218 70.3051,1.4709 70.2189,1.4709 c -0.1078,0 -0.2372,0.1509 -0.345,0.3234 -0.1078,0.1294 -0.194,0.345 -0.3234,0.6468 -1.8973,4.3768 -7.0503,24.5789 -5.886,24.3201 H 63.5998 L 63.5136,26.675 c 0,0 -7.6108,-3.0185 -15.1138,-11.1898 0,0 -4.1396,0.7115 0.1294,15.1138 -3.4928,0.884 -6.8993,1.962 -10.2628,3.2772 -2.0051,-0.539 -4.269,-1.2721 -6.6622,-2.3716 0,0 -2.6088,1.7033 3.924,10.0903 -0.1078,3.0831 -0.1078,6.08 0.0431,8.9691 -5.3039,1.4014 -10.9742,3.1263 -13.1518,4.0749 0,0 -0.1078,0.0431 -0.2372,0.1078 -0.2372,0.1078 -0.3881,0.194 -0.4959,0.2587 -0.1725,0.1078 -0.3234,0.2372 -0.3234,0.3234 0,0.0862 0.1509,0.2372 0.3234,0.345 0.1294,0.1078 0.345,0.194 0.6468,0.3234 2.2207,0.9487 8.4948,2.7597 14.1436,4.1612 0.3234,2.2638 0.7546,4.463 1.2074,6.5975 -8.9907,7.8264 -6.5328,10.1118 -6.5328,10.1118 3.4065,-0.884 6.4681,-1.2289 8.9907,-1.3367 1.768,5.1098 3.9671,9.7669 6.5544,13.928 6.0154,1.5739 12.1385,2.5226 18.2617,2.8891 1.423,6.0154 3.5143,13.4321 4.5924,15.8685 0.1078,0.3019 0.2372,0.4743 0.3234,0.6468 0.1078,0.1941 0.2372,0.3234 0.345,0.3234 0.1078,0 0.2156,-0.1294 0.3234,-0.3234 0.0862,-0.1078 0.1725,-0.3018 0.2587,-0.539 0.0647,-0.1294 0.1078,-0.2372 0.1078,-0.2372 1.1211,-2.5226 3.2772,-9.8531 4.7648,-15.7822 5.886,-0.3234 11.772,-1.2289 17.5502,-2.6951 2.6088,-4.1396 4.8511,-8.7751 6.6622,-13.8849 2.5226,0.1078 5.6488,0.4743 9.0769,1.423 0,0 2.501,-2.2854 -6.5328,-10.2628 0.4959,-2.1992 0.9271,-4.463 1.2721,-6.7915 5.6488,-1.4014 12.0091,-3.2125 14.2514,-4.1827 0.2587,-0.1078 0.4959,-0.2372 0.6468,-0.3234 0.194,-0.1078 0.3234,-0.2372 0.3234,-0.345 0.0862,0 -0.0431,-0.1078 -0.2372,-0.2156 z m -41.59,-28.3735 c 0,0 -0.0431,0 0,0 -0.0431,0 0,0 0,0 z m 24.1045,28.1363 c 0,0.0862 -0.0216,0.1294 -0.0216,0.2156 9.8747,1.0133 7.8911,2.4148 -0.1725,2.1776 -1.1211,11.7289 -4.5061,21.8838 -9.5081,30.0983 -14.2299,3.6437 -28.8909,3.579 -43.0777,-0.194 -4.8727,-8.193 -8.1714,-18.2617 -9.2063,-29.9043 -7.4168,0.1509 -9.1416,-1.1211 -0.1509,-2.1345 0,-0.0862 0,-0.1725 -0.0216,-0.2587 -11.1683,0.2156 -8.3654,-1.4877 -0.1078,-2.1992 -0.1078,-3.385 -0.0647,-6.8778 0.194,-10.4784 -3.6221,-2.8029 -4.269,-4.1827 0.1509,-2.0051 0.0216,-0.3234 0.0647,-0.6037 0.0862,-0.9055 -4.8942,-3.9671 -3.2341,-4.7002 1.8111,-2.3716 3.8378,-1.4877 7.8264,-2.6735 11.8367,-3.5359 -4.8511,-7.8911 -4.6786,-11.9229 3.1478,-0.6037 0.1294,-0.0216 0.3018,-0.0647 0.4312,-0.0862 -5.5626,-10.3921 -1.962,-9.2925 3.385,-0.4743 2.0051,-0.2587 3.9887,-0.4096 6.0154,-0.4959 -0.1078,-13.0872 3.1694,-20.2237 3.8593,-0.1078 h 0.3665 c 0.9487,-20.0943 4.1396,-12.9147 3.8809,0.1078 2.2423,0.1078 4.4846,0.3234 6.7053,0.6468 5.4332,-8.9691 9.0769,-10.0903 3.385,0.539 0.1294,0.0216 0.2587,0.0647 0.4096,0.0862 8.042,-11.6642 8.1498,-7.4383 3.1263,0.6468 3.9024,0.9055 7.7402,2.0698 11.4486,3.5359 5.6488,-2.6951 7.5461,-1.9404 1.8326,2.5657 0.0216,0.2587 0.0431,0.539 0.0647,0.7762 5.2392,-2.7166 4.4199,-1.0565 0.1509,2.1345 0.2156,3.4281 0.2372,6.77 0.1078,10.004 8.9044,0.6684 12.0738,2.5226 -0.1294,2.2207 z"
       id="path2"
       style="display:inline;fill:#ffffff;fill-opacity:1;stroke-width:0.2156" /><path
       id="path1"
       style="display:inline;fill:#ffffff;fill-opacity:1;stroke-width:0.253867"
       class="st3"
       d="m 51.368198,74.446963 c -1.700891,0 -3.249644,0.686762 -3.249644,2.362338 v 1.726587 c 0,1.447023 1.523598,2.181675 3.224489,2.181675 l 7.56497,0.02744 v 1.952988 l -10.789459,-0.05031 c 0,1.421591 1.649376,2.158807 3.350267,2.158807 l 7.567257,0.05031 c 2.056377,2e-6 3.425733,-0.660914 3.425733,-2.158806 v -2.030741 c 0,-1.447141 -1.67453,-2.081053 -3.375421,-2.081053 l -7.336284,-0.02516 v -1.904963 l 10.68655,0.05031 c 0,-1.548642 -1.34464,-2.206831 -3.350266,-2.206831 z m 12.465737,0.102908 -0.02516,8.173279 c 0,1.26934 1.470721,2.158807 3.197046,2.158807 l 7.03213,0.02515 c 1.751759,0 3.224489,-0.836591 3.224489,-2.131364 v -8.175565 h -0.354466 c -1.853377,0 -3.174177,0.40622 -3.174177,1.751744 l -0.02516,6.423821 -6.346068,-0.02516 0.02516,-6.423822 c 0,-1.294773 -1.320919,-1.776899 -3.174178,-1.776899 z m 14.926409,0.05031 -0.05031,10.281774 3.553798,0.02515 0.02515,-5.838383 1.422434,1.29437 3.757329,3.478331 c 1.091656,0.964722 2.639414,1.090838 3.350267,1.090838 h 0.711217 l 0.128065,-10.30693 h -0.278998 c -1.980311,0 -3.302242,0.634029 -3.302242,2.081053 l -0.02516,3.732174 C 87.44255,79.956143 86.631756,79.194504 86.631756,79.194504 l -3.75733,-3.503486 C 81.808204,74.726297 80.283756,74.60018 79.496717,74.60018 Z"
       sodipodi:nodetypes="cssccccccssccccccccccscsccccscccccccsccsccccsc" /><path
       class="st5"
       d="m 85.67401,49.109607 c -1.7033,1.3152 -3.23041,1.919578 -5.40801,1.919578 H 79.628036 V 44.547643 H 61.6594 v 16.6446 h 18.1754 c 0,0 0.539,-1.2289 2.156,-2.3285 1.6602,-1.2074 3.7299,-1.8111 5.9722,-1.8111 h 0.7546 l -0.539,6.1232 c -0.3665,4.2043 -3.9887,6.1232 -8.2361,6.1232 H 61.0772 c -4.0749,0 -7.7402,-2.3716 -8.0636,-6.0369 v -19.275 c -0.3665,-4.3336 3.385,-7.5893 8.193,-7.5893 h 19.0378 c 5.4117,0 8.8613,2.8029 8.4517,7.8264 -0.2372,2.6519 -1.441451,3.885268 -2.605751,4.510568 z"
       id="path6"
       style="fill:#ffffff;fill-opacity:1;stroke-width:0.2156"
       sodipodi:nodetypes="csccccccsccssccssccc" /><path
       class="st3"
       d="m 78.6058,52.481943 h 0.3881 c 2.1992,0 3.6221,-0.6468 5.3039,-1.9404 0.8193,-0.4743 1.9189,-1.2721 2.5872,-2.6088 -0.4528,0.4096 -0.9055,0.7115 -1.3367,0.9487 -1.7033,1.3152 -3.1263,1.9404 -5.3039,1.9404 H 79.8563 V 44.078141 H 60.873636 v 2.151302 H 78.6058 Z M 61.0772,68.84503 c -4.0749,0 -6.659775,-1.831387 -6.983175,-5.496687 v -19.275 c -0.1078,-1.3152 -0.929525,-2.5226 -0.390525,-3.579 -1.3583,1.3583 -2.156,3.1694 -1.9404,5.2176 v 19.2966 c 0.3234,3.6653 3.9671,6.0154 8.0636,6.0154 h 18.8869 c 3.3203,0 6.2956,-1.360527 7.5677,-3.904627 -1.5092,1.423 -3.8162,1.725814 -6.3172,1.725814 z"
       id="path7"
       style="fill:#ffffff;fill-opacity:1;stroke-width:0.2156"
       sodipodi:nodetypes="cscccsccccccccccccssccc" /></g><style
     type="text/css"
     id="style1">
	.st0{fill:#4891CE;}
	.st1{fill:#C7D9EA;}
	.st2{fill:#E3173E;}
	.st3{fill:#FFFFFF;}
</style><style
     type="text/css"
     id="style1-7">
	.st0{fill:#211646;}
	.st1{fill:#B3B2B1;}
	.st2{fill:#FFFFFF;}
	.st3{fill:#D35E13;}
</style><style
     type="text/css"
     id="style1-74">
	.st0{fill:#FFFFFF;}
	.st1{fill:#F3703A;}
	.st2{fill:#FDB927;}
	.st3{fill:#002D62;}
	.st4{fill:#FFE0A8;}
	.st5{fill:#BF2F38;}
</style></svg>
