<svg
  
  
   viewBox="0 0 140.3140 110.6577"
   version="1.1000"
   id="svg1"
   xml:space="preserve"
   sodipodi:docname="group-team-logo-doc.svg"
   inkscape:version="1.4000.2 (2aeb623e1d, 2025-05-12)"
   xmlns:inkscape="http://www.inkscape.org/namespaces/inkscape"
   xmlns:sodipodi="http://sodipodi.sourceforge.net/DTD/sodipodi-0.dtd"
   xmlns="http://www.w3.org/2000/svg"
   xmlns:svg="http://www.w3.org/2000/svg"><sodipodi:namedview
     id="namedview1"
     pagecolor="#ffffff"
     bordercolor="#000000"
     borderopacity="0.2500"
     inkscape:showpageshadow="2"
     inkscape:pageopacity="0.0000"
     inkscape:pagecheckerboard="0"
     inkscape:deskcolor="#d1d1d1"
     inkscape:document-units="px"
     inkscape:zoom="0.7790"
     inkscape:cx="129.6584"
     inkscape:cy="283.0661"
     inkscape:window-width="1854"
     inkscape:window-height="1011"
     inkscape:window-x="0"
     inkscape:window-y="0"
     inkscape:window-maximized="1"
     inkscape:current-layer="layer5"
     showgrid="false"><inkscape:page
       x="0"
       y="0"
      
      
       id="page2"
       margin="0"
       bleed="0" /><inkscape:grid
       id="grid5"
       units="px"
       originx="0"
       originy="0"
       spacingx="0.2213"
       spacingy="0.2213"
       empcolor="#0099e5"
       empopacity="0.3020"
       color="#0099e5"
       opacity="0.1490"
       empspacing="5"
       enabled="true"
       visible="false" /></sodipodi:namedview><defs
     id="defs1"></defs><g
     inkscape:groupmode="layer"
     id="layer5"
     inkscape:label="new-york-liberty"
     style="fill:#bb0c2f;fill-opacity:1.0000"><g
       id="g1"
       transform="translate(-23.2252,1.2384)"><path
         id="path1-4"
         style="fill:#00a8e0;fill-opacity:1;stroke-width:0.1755"
         class="st0"
         d="m 162.4195,10.1805 -2.5451,1.5799 -0.7897,0.4738 c -0.1229,0.0702 -12.2876,7.4426 -28.5596,13.2353 -4.0197,1.4218 -7.5828,2.4578 -10.7424,3.3530 -9.8650,2.8261 -15.8157,4.5288 -15.3944,13.7267 0.1580,3.4229 -0.4741,5.9858 -1.8081,7.4076 -0.3686,0.3862 -0.8249,0.7196 -1.3339,0.9302 -0.1755,-0.2282 -0.2109,-0.5091 -0.2460,-0.9479 l -0.0173,-0.2105 v -0.4215 c 0.0351,-1.1234 1.0004,-3.5984 1.3339,-4.4410 0.0878,-0.1931 0.1755,-0.4038 0.2632,-0.6320 1.7027,-4.3708 1.0008,-7.2670 0.9657,-7.3899 l -0.0354,-0.1228 -0.0527,-0.1232 c -0.1053,-0.2106 -0.2278,-0.4037 -0.3683,-0.5792 -0.3511,-0.4739 -0.7373,-0.9128 -1.1762,-1.2989 0.4388,-0.6144 0.8074,-1.2815 1.0707,-1.9836 1.1761,-3.1070 0.2109,-6.0734 0.1582,-6.2314 l -0.2987,-0.8775 -0.9129,0.1055 c -3.0192,0.3511 -5.1603,1.3867 -6.5997,2.4224 -0.2282,-0.2633 -0.4918,-0.5091 -0.7902,-0.7197 L 92.9961,26.3296 92.7328,28.1905 C 92.1536,28.0150 91.5565,27.8922 90.9597,27.8395 89.5028,26.8916 87.5019,26.0315 84.8338,25.7331 l -0.9129,-0.1055 -0.2983,0.8775 c -0.0702,0.1931 -1.4748,4.5113 1.2285,8.2150 -0.4388,0.3862 -0.8251,0.8250 -1.1762,1.2989 -0.1404,0.1755 -0.2630,0.3861 -0.3683,0.5792 l -0.0527,0.1232 -0.0354,0.1228 c -0.0351,0.1229 -0.7546,3.0191 0.9657,7.3899 l 0.0700,0.1755 c 0.4037,1.0181 1.4748,3.7389 1.5099,4.9325 v 0.6847 c -0.0351,0.4037 -0.0704,0.6846 -0.2460,0.8952 C 85.0091,50.6938 84.5704,50.3780 84.1842,49.9918 82.8326,48.5875 82.2181,46.0247 82.3760,42.5842 82.7973,33.3862 76.8291,31.6836 66.9817,28.8575 63.8220,27.9622 60.2589,26.9443 56.2392,25.5049 39.9672,19.7123 27.8024,12.3574 27.6796,12.2696 L 26.8898,11.7954 24.3447,10.2155 c 0,0 4.0547,10.8131 10.4792,15.4999 -1.2112,-0.2984 -2.4046,-0.7020 -3.5631,-1.1935 l -3.1948,-1.4221 1.7377,3.0370 c 0.1404,0.2457 2.8613,4.9149 7.4076,8.1096 -0.4213,0 -0.8599,0.0173 -1.2812,0.0173 -1.2638,0.0175 -2.5277,-0.0525 -3.7740,-0.2105 l -3.3003,-0.4915 2.2996,2.4046 c 0.2106,0.2282 4.3007,4.4765 8.6715,6.6356 -1.3341,0.4037 -2.7033,0.7021 -4.0900,0.8952 l -2.3874,0.2805 1.7204,1.6854 c 0.1755,0.1580 3.7035,3.5633 9.8823,6.2314 -2.9314,0.7548 -4.7743,1.1762 -4.7743,1.1762 1.3692,1.6676 3.1772,3.9843 5.6172,6.8279 h -0.0354 l 0.6674,0.7374 c 0.7723,0.8777 1.5972,1.8079 2.4924,2.7734 v 6.0909 c 0,2.1942 1.0883,4.2480 2.9666,5.6172 1.5447,1.0883 3.4054,1.6675 5.3012,1.6499 h 3.7036 v 6.7933 h 10.4796 c 3.3878,2.5628 7.1091,5.1960 11.2166,7.9168 3.1772,2.1415 10.7247,6.7229 10.7247,6.7229 0,0 8.1624,-4.9675 11.5854,-7.3021 3.7389,-2.5101 7.1795,-4.9503 10.3392,-7.3376 h 10.6020 v -6.8284 h 3.5635 c 1.8256,-0.0175 3.5987,-0.5967 5.0907,-1.6499 1.8958,-1.3692 2.9839,-3.4054 2.9839,-5.6172 v -5.7399 c 4.4937,-4.8272 7.3372,-8.5484 9.0048,-10.7074 0,0 -0.6142,-0.1407 -1.6849,-0.3864 v -0.0173 c -0.0176,0 -1.2989,-0.2983 -3.0016,-0.7547 6.1963,-2.6857 9.7244,-6.0736 9.9000,-6.2491 l 1.7204,-1.6849 -2.3874,-0.2810 c -1.3867,-0.1755 -2.7559,-0.4739 -4.0900,-0.8952 4.3708,-2.1415 8.4431,-6.4069 8.6538,-6.6351 l 2.2996,-2.4051 -3.2826,0.4915 c -1.2463,0.1580 -2.5102,0.2285 -3.7740,0.2109 -0.4213,0 -0.8599,-1.7300e-4 -1.2812,-0.0177 4.5463,-3.1772 7.2494,-7.8465 7.3899,-8.0923 l 1.7377,-3.0366 -3.1944,1.4217 c -1.1585,0.4915 -2.3523,0.8955 -3.5635,1.1939 6.4421,-4.6868 10.4969,-15.4999 10.4969,-15.4999 z m -2.7556,3.0543 0.0350,0.0350 c -1.0883,2.4048 -5.1959,10.3742 -12.8843,14.6397 0,0 5.6697,-0.8249 9.1453,-2.3696 0,0 -4.0546,7.0740 -10.4792,9.6017 0,0 5.8450,0.5090 9.3030,0 0,0 -6.2665,6.5648 -11.3394,7.4249 0,0 3.8441,1.5974 7.4426,2.0186 0,0 -4.6514,4.5290 -12.6733,7.1971 3.1421,1.0181 6.3192,1.7377 6.3192,1.7377 0,0 -2.7208,3.6686 -8.2150,9.3735 v 6.3719 c 0,1.8256 -0.9130,3.5460 -2.4928,4.6870 -1.2990,0.9128 -2.8436,1.4041 -4.4410,1.4217 h -4.6865 v 6.7933 H 114.6741 C 107.8634,87.4157 100.7367,92.2605 93.3643,96.6664 85.9919,92.2605 78.8652,87.4155 72.0545,82.1845 H 62.0317 v -6.7756 h -4.8624 c -1.6676,0.0175 -3.2826,-0.4915 -4.6342,-1.4394 -1.5798,-1.1410 -2.4924,-2.8610 -2.4924,-4.6865 v -6.7406 c -5.2660,-5.4942 -7.8640,-8.9875 -7.8640,-8.9875 0,0 3.1771,-0.7196 6.3192,-1.7377 -8.0219,-2.6681 -12.6733,-7.1966 -12.6733,-7.1966 3.5984,-0.4037 7.4426,-2.0186 7.4426,-2.0186 -5.0729,-0.8426 -11.3394,-7.4253 -11.3394,-7.4253 3.4580,0.5090 9.3030,0 9.3030,0 -6.4421,-2.5277 -10.4969,-9.6190 -10.4969,-9.6190 3.4756,1.5623 9.1280,2.3696 9.1280,2.3696 C 32.1733,23.6618 28.0833,15.6924 26.9774,13.2876 l 0.0350,-0.0350 c 0,0 12.1822,7.4251 28.7702,13.3230 16.5880,5.8979 25.8912,4.9677 25.3821,15.9386 -0.3160,6.9687 2.4223,9.0574 4.4760,9.6717 1.0181,-0.5617 1.1061,-1.3166 1.1939,-2.0714 0.0175,-0.2809 0.0349,-0.5616 0.0173,-0.8425 -0.0527,-1.2287 -0.8599,-3.4230 -1.5972,-5.3012 l -0.0527,-0.1405 -0.0173,-0.0350 c -1.5974,-4.0548 -0.9129,-6.6702 -0.9129,-6.6702 0.0878,-0.1404 0.1756,-0.2810 0.2810,-0.4215 0.5266,-0.7197 1.1759,-1.3342 1.9132,-1.8081 -3.3527,-3.4405 -1.7904,-8.0391 -1.7904,-8.0391 3.7564,0.4213 6.0384,2.0007 7.3198,3.2821 0.0527,-0.3160 0.0877,-0.6493 0.0877,-0.9652 0.4213,0.1053 0.8073,0.3160 1.1057,0.6320 0.4915,-0.4388 0.6320,-1.4744 0.6320,-1.4744 0.4915,0.3862 0.9127,0.8775 1.2462,1.4217 1.3516,-1.2112 3.5460,-2.5277 6.9338,-2.9138 0,0 1.5623,4.6166 -1.7904,8.0395 0.7372,0.4739 1.3864,1.0707 1.8955,1.7904 0.1053,0.1229 0.1932,0.2630 0.2810,0.4210 h 0.0177 c 0,0 0.6844,2.5982 -0.9129,6.6706 -0.1053,0.2457 -0.1930,0.4564 -0.2632,0.6320 -0.6670,1.7553 -1.3693,3.7213 -1.4044,4.8447 v 0.5615 0.0177 c 0.1053,0.8426 0.1055,1.7203 1.2289,2.3346 2.0537,-0.5968 4.7920,-2.7035 4.4760,-9.6722 -0.5091,-10.9533 8.7768,-10.0229 25.3648,-15.9209 16.5880,-5.8979 28.7702,-13.3230 28.7702,-13.3230 z" /><path
         id="path2-3"
         style="fill:#0c2440;fill-opacity:1;stroke-width:0.1755"
         class="st1"
         d="m 159.6638,13.2348 c 0,0 -12.1822,7.4251 -28.7702,13.3230 -16.5880,5.8979 -25.8739,4.9676 -25.3648,15.9209 0.3160,6.9687 -2.4223,9.0754 -4.4760,9.6722 -1.1234,-0.6144 -1.1236,-1.4921 -1.2289,-2.3346 v -0.0177 -0.5615 c 0.0351,-1.1234 0.7374,-3.0894 1.4044,-4.8447 0.0702,-0.1755 0.1579,-0.3862 0.2632,-0.6320 1.5974,-4.0724 0.9129,-6.6706 0.9129,-6.6706 h -0.0177 c -0.0878,-0.1580 -0.1756,-0.2981 -0.2810,-0.4210 -0.5091,-0.7197 -1.1582,-1.3165 -1.8955,-1.7904 3.3527,-3.4229 1.7904,-8.0395 1.7904,-8.0395 -3.3878,0.3862 -5.5822,1.7027 -6.9338,2.9138 -0.3335,-0.5442 -0.7547,-1.0355 -1.2462,-1.4217 0,0 -0.1405,1.0356 -0.6320,1.4744 -0.2984,-0.3160 -0.6844,-0.5266 -1.1057,-0.6320 0,0.3160 -0.0351,0.6493 -0.0877,0.9652 -1.2814,-1.2814 -3.5634,-2.8608 -7.3198,-3.2821 0,0 -1.5623,4.5986 1.7904,8.0391 -0.7372,0.4739 -1.3866,1.0884 -1.9132,1.8081 -0.1053,0.1404 -0.1932,0.2810 -0.2810,0.4215 0,0 -0.6844,2.6153 0.9129,6.6702 l 0.0173,0.0350 0.0527,0.1405 c 0.7372,1.8782 1.5445,4.0725 1.5972,5.3012 0.0176,0.2809 2.1000e-4,0.5616 -0.0173,0.8425 -0.0878,0.7548 -0.1758,1.5097 -1.1939,2.0714 C 83.5870,51.5716 80.8488,49.4829 81.1648,42.5142 81.6738,31.5433 72.3706,32.4735 55.7826,26.5756 39.1947,20.6776 27.0125,13.2526 27.0125,13.2526 l -0.0350,0.0350 c 1.1059,2.4048 5.1959,10.3742 12.8843,14.6397 0,0 -5.6524,-0.8074 -9.1280,-2.3696 0,0 4.0548,7.0913 10.4969,9.6190 0,0 -5.8450,0.5090 -9.3030,0 0,0 6.2664,6.5827 11.3394,7.4253 0,0 -3.8442,1.6149 -7.4426,2.0186 0,0 4.6514,4.5285 12.6733,7.1966 -3.1421,1.0181 -6.3192,1.7377 -6.3192,1.7377 0,0 2.5980,3.4933 7.8640,8.9875 v 6.7406 c 0,1.8256 0.9126,3.5456 2.4924,4.6865 1.3516,0.9479 2.9667,1.4570 4.6342,1.4394 h 4.8624 v 6.7756 h 10.0227 c 6.8107,5.2309 13.9374,10.0760 21.3098,14.4819 7.3724,-4.4059 14.4991,-9.2507 21.3098,-14.4992 h 10.0232 v -6.7933 h 4.6865 c 1.5974,-0.0175 3.1421,-0.5089 4.4410,-1.4217 1.5798,-1.1410 2.4928,-2.8614 2.4928,-4.6870 v -6.3719 c 5.4942,-5.7049 8.2150,-9.3735 8.2150,-9.3735 0,0 -3.1771,-0.7196 -6.3192,-1.7377 8.0219,-2.6681 12.6733,-7.1971 12.6733,-7.1971 -3.5985,-0.4213 -7.4426,-2.0186 -7.4426,-2.0186 5.0729,-0.8601 11.3394,-7.4249 11.3394,-7.4249 -3.4580,0.5090 -9.3030,0 -9.3030,0 6.4245,-2.5277 10.4792,-9.6017 10.4792,-9.6017 -3.4756,1.5447 -9.1453,2.3696 -9.1453,2.3696 7.6884,-4.2655 11.7960,-12.2349 12.8843,-14.6397 z M 37.1411,21.4676 c 13.6039,6.6703 22.3279,8.8468 29.6476,11.0234 7.3198,2.1766 9.7243,2.9139 11.4972,6.0559 1.4920,2.6330 -1.0353,6.7056 2.5105,12.8493 2.2117,3.8266 5.8450,4.5460 5.8450,4.5460 -10.8480,-1.0005 -9.7596,-11.9361 -9.7245,-14.6042 0.0351,-2.6857 -2.1065,-4.6341 -7.8113,-6.1964 C 63.4008,33.5794 61.9788,33.0352 52.8510,30.0686 43.7233,27.1021 37.1411,21.4676 37.1411,21.4676 Z m 112.4468,0 c 0,0 -6.5826,5.6345 -15.7104,8.6010 -9.1278,2.9665 -10.5493,3.5107 -16.2541,5.0730 -5.7049,1.5623 -7.8464,3.5107 -7.8113,6.1964 0.0351,2.6681 1.1235,13.6037 -9.7245,14.6042 0,0 3.6332,-0.7194 5.8450,-4.5460 3.5458,-6.1437 1.0181,-10.2163 2.5101,-12.8493 1.7729,-3.1421 4.1778,-3.8793 11.4976,-6.0559 7.3198,-2.1766 16.0437,-4.3531 29.6476,-11.0234 z m -49.2198,7.6181 c 0.0090,0.1272 0.0133,0.2519 0.0147,0.3743 7.7000e-4,0.0662 7.3000e-4,0.1318 -4.3000e-4,0.1967 4.4000e-4,-0.0293 -0.0020,-0.0608 -0.0020,-0.0903 -0.0040,2.8094 -1.8295,4.3493 -2.9787,5.0488 0.5793,0.5617 1.2639,1.3163 1.5272,1.9482 3.9000e-4,2.2700e-4 1.0888,0.6321 1.5626,1.2639 l -4.3000e-4,4.3200e-4 c 0.0050,0.0475 0.4508,4.0678 -1.8591,5.5541 -0.0248,0.0191 -0.0500,0.0382 -0.0756,0.0571 -0.0181,0.1484 0.2304,1.5641 -0.8208,4.2007 -0.0030,-0.0104 -0.0060,-0.0207 -0.0090,-0.0311 -0.0090,0.0222 -0.0173,0.0444 -0.0259,0.0666 -0.1920,-0.5761 -0.3183,-1.1770 -0.3791,-1.7857 -0.3704,0.9501 -0.9364,3.1157 -0.1478,6.6127 -0.0922,-0.1164 -0.1804,-0.2357 -0.2645,-0.3575 0.2365,0.3835 0.5338,0.8535 0.6860,1.1122 0.0020,0.0036 0.0040,0.0073 0.0060,0.0112 0.0080,-0.0137 0.0216,-0.0330 0.0290,-0.0462 0.2457,0.4037 -1.4040,3.4230 -1.4040,3.4230 0,0 -0.0149,0.0102 -0.0311,0.0212 7.6000e-4,-5.1400e-4 0.0040,-0.0021 0.0050,-0.0026 -0.0060,0.0109 -0.0090,0.0164 -0.0090,0.0164 0,0 -0.8423,0.6319 -2.6679,0.7197 h -0.1932 -0.1932 c -1.8080,-0.0878 -2.6679,-0.7197 -2.6679,-0.7197 0,0 -1.6502,-3.0018 -1.4044,-3.4230 0.1168,-0.1868 0.3188,-0.5056 0.5135,-0.8222 -0.0188,0.0227 -0.0378,0.0451 -0.0571,0.0674 0.8075,-3.5458 0.2108,-5.7401 -0.1578,-6.6529 -0.0702,0.5968 -0.1933,1.2111 -0.3864,1.7904 -0.0010,-0.0026 -0.0020,-0.0052 -0.0030,-0.0078 -0.0050,0.0143 -0.0090,0.0289 -0.0143,0.0432 -0.1781,-0.4512 -0.3283,-0.9145 -0.4496,-1.3858 0.1163,0.4056 0.2677,0.8532 0.4638,1.3426 -0.8252,-2.0595 -0.8558,-3.3822 -0.8338,-3.9245 -0.0030,-0.0818 -0.0050,-0.1637 -0.0060,-0.2455 -0.5648,-0.4042 -0.9262,-0.8480 -1.1550,-1.2730 -5.5000e-4,-0.0010 -0.0010,-0.0020 -0.0020,-0.0030 -6e-5,-1.0500e-4 6e-5,-3.2700e-4 0,-4.3200e-4 -0.8256,-1.4432 -0.8031,-3.3691 -0.7612,-4.0796 -2.5000e-4,-0.0809 0.0010,-0.1621 0.0050,-0.2434 0.0050,-0.0070 0.0103,-0.0137 0.0156,-0.0208 9.7000e-4,-0.0093 0.0020,-0.0143 0.0020,-0.0143 0.0020,0.0017 0.0030,0.0035 0.0050,0.0052 0.4849,-0.6383 1.5397,-1.2341 1.5397,-1.2341 0.0105,-0.0253 0.0223,-0.0508 0.0341,-0.0765 -0.0106,0.0145 -0.0237,0.0269 -0.0341,0.0415 0.2600,-0.6239 0.9307,-1.3672 1.5051,-1.9266 -1.1495,-0.7054 -2.9530,-2.2544 -2.9601,-5.0431 -2e-5,-0.0085 -1e-5,-0.0170 0,-0.0255 10e-6,0.0037 4.2000e-4,0.0071 4.3000e-4,0.0108 -4.8000e-4,-0.1549 0.0040,-0.3132 0.0151,-0.4759 0.1709,0.1241 0.3950,0.3145 0.5982,0.4759 -0.1885,-0.1497 -0.3982,-0.3301 -0.5593,-0.4478 0.7068,0.1927 1.4129,0.4695 2.0852,0.7971 0.9128,0.4915 1.7199,1.1410 2.3869,1.9309 0.1931,0.2106 0.3511,0.4212 0.4915,0.6142 1.4394,2.0537 -0.2630,3.7391 0.7551,5.8104 0.7899,1.6325 2.0186,1.7027 2.0186,1.7027 0,0 -0.7902,-1.2464 0.2805,-2.8788 1.3867,-2.1240 1.6675,-3.8793 1.4744,-5.2485 0.1053,-0.1580 0.2283,-0.3158 0.3687,-0.4738 1.2638,-1.5798 4.1250,-2.2996 4.1250,-2.2996 z m -1.8120,14.3531 c 3.3000e-4,-0.0027 8e-4,-0.0051 0.0010,-0.0069 -5.1000e-4,0.0019 -9.7000e-4,0.0042 -0.0010,0.0069 z M 42.9688,29.7527 c 6.8809,1.9133 18.3957,5.1957 25.5926,7.3021 7.1969,2.1064 6.4073,3.7213 6.4424,9.1102 0.0175,5.3889 4.2301,9.7599 4.2301,9.7599 -3.4229,-0.3160 -5.8450,-5.7577 -5.8450,-5.7577 -3.8793,4.1953 -6.9511,4.8975 -6.9511,4.8975 2.8612,-2.9490 6.2487,-7.6535 6.2487,-7.6535 0,0 -5.2834,2.4227 -10.2510,3.8972 -4.9852,1.4745 -10.5674,0.9830 -10.5674,0.9830 16.0438,-3.7915 20.1514,-7.4953 20.1514,-7.4953 0,0 -4.2303,0.8424 -13.8145,1.3339 -9.5842,0.4915 -12.9016,-1.1412 -12.9016,-1.1412 7.2145,0.0702 26.4878,-2.5274 26.4878,-2.5274 0,0 -5.8101,-0.2458 -15.6927,-1.5272 -9.8826,-1.2814 -12.9016,-3.6163 -12.9016,-3.6163 6.0033,1.0532 26.6106,2.6333 26.6106,2.6333 0,0 -7.6006,-2.6155 -15.4294,-4.8447 -7.8288,-2.2293 -11.4094,-5.3539 -11.4094,-5.3539 z m 100.7915,0 c 0,0 -3.5810,3.1246 -11.4099,5.3539 -7.8288,2.2293 -15.4294,4.8447 -15.4294,4.8447 0,0 20.6078,-1.5801 26.6110,-2.6333 0,0 -3.0190,2.3349 -12.9016,3.6163 -9.8650,1.2990 -15.6927,1.5272 -15.6927,1.5272 0,0 19.2732,2.5976 26.4701,2.5274 0,0 -3.3174,1.6327 -12.9016,1.1412 -9.5841,-0.4915 -13.8145,-1.3339 -13.8145,-1.3339 0,0 4.1076,3.7038 20.1514,7.4953 0,0 -5.5822,0.4915 -10.5674,-0.9830 -4.9676,-1.4745 -10.2510,-3.8972 -10.2510,-3.8972 0,0 3.3879,4.7046 6.2491,7.6535 0,0 -3.0718,-0.7022 -6.9511,-4.8975 0,0 -2.4225,5.4417 -5.8454,5.7577 0,0 4.2129,-4.3710 4.2305,-9.7599 0.0351,-5.3889 -0.7550,-7.0038 6.4419,-9.1102 7.1969,-2.1064 18.7294,-5.3888 25.6104,-7.3021 z M 86.3410,29.8888 c 0.0040,0.0664 0.0040,0.1352 0.0100,0.2001 -0.0060,-0.0649 -0.0060,-0.1337 -0.0100,-0.2001 z m 1.1381,0.1202 c 0.2391,0.2088 0.4801,0.4708 0.7227,0.7150 -0.2434,-0.2451 -0.4829,-0.5055 -0.7227,-0.7150 z m -1.0953,0.3484 c 0.0100,0.0721 0.0161,0.1464 0.0281,0.2166 -0.0120,-0.0701 -0.0186,-0.1445 -0.0281,-0.2166 z m 0.0804,0.4629 c 0.0148,0.0680 0.0267,0.1383 0.0437,0.2045 -0.0170,-0.0661 -0.0288,-0.1364 -0.0437,-0.2045 z m 2.2568,0.4202 c 0.1246,0.1425 0.2394,0.2952 0.3566,0.4457 -0.1174,-0.1506 -0.2319,-0.3031 -0.3566,-0.4457 z m -2.1371,0.0376 c 0.0178,0.0572 0.0330,0.1167 0.0523,0.1725 -0.0193,-0.0557 -0.0346,-0.1153 -0.0523,-0.1725 z m 0.1331,0.3795 c 0.0253,0.0642 0.0488,0.1306 0.0761,0.1928 -0.0273,-0.0622 -0.0507,-0.1285 -0.0761,-0.1928 z m 2.5706,0.2935 c 0.1198,0.1663 0.2228,0.3417 0.3285,0.5157 -0.1057,-0.1741 -0.2087,-0.3493 -0.3285,-0.5157 z M 86.8926,32.0553 c 0.0266,0.0541 0.0512,0.1101 0.0791,0.1625 -0.0279,-0.0524 -0.0526,-0.1085 -0.0791,-0.1625 z m 0.3635,0.6160 c 0.0464,0.0696 0.0869,0.1482 0.1353,0.2144 -0.0484,-0.0662 -0.0889,-0.1448 -0.1353,-0.2144 z m 2.5218,0.0514 c 0.0506,0.0922 0.0958,0.1865 0.1414,0.2805 -0.0456,-0.0941 -0.0907,-0.1882 -0.1414,-0.2805 z m 0.2019,0.4007 c 0.0297,0.0652 0.0538,0.1320 0.0808,0.1980 -0.0270,-0.0660 -0.0511,-0.1327 -0.0808,-0.1980 z m 0.2970,0.8330 c 0.0362,0.1423 0.0652,0.2859 0.0860,0.4305 -0.0208,-0.1447 -0.0498,-0.2882 -0.0860,-0.4305 z m -0.6458,0.8507 c -0.0743,0.0484 -0.1416,0.1063 -0.2140,0.1573 0.0724,-0.0511 0.1397,-0.1089 0.2140,-0.1573 z m -0.6761,0.4997 c -0.0872,0.0727 -0.1650,0.1561 -0.2485,0.2330 0.0836,-0.0769 0.1613,-0.1602 0.2485,-0.2330 z m -0.6121,0.5775 c -0.0844,0.0900 -0.1577,0.1902 -0.2373,0.2849 0.0795,-0.0946 0.1529,-0.1949 0.2373,-0.2849 z m 12.1473,1.9439 -0.0514,0.0341 c 2.3000e-4,0.0054 6.4000e-4,0.0106 8.7000e-4,0.0160 0.0169,-0.0167 0.0337,-0.0333 0.0506,-0.0501 z m -13.2867,0.8943 c 0,0 8e-5,0.4565 0.4565,1.4044 0,0 -0.4566,0.4738 0.0700,1.1935 0.1755,-0.2633 0.3861,-0.5088 0.6142,-0.7370 -0.0878,0.3862 -0.0528,0.7721 0.0877,1.1407 0.2457,0.5442 0.4741,0.6671 1.1412,1.0357 0.3862,0.2106 0.7195,0.4914 0.9652,0.8425 0,0 0.0300,-0.0503 0.0670,-0.1426 -4e-5,2.7200e-4 4e-5,5.9200e-4 0,8.6500e-4 0.1391,-0.3467 0.3751,-1.2893 -0.5407,-2.3856 -0.6477,-0.8060 -1.2481,-1.0693 -2.1885,-1.7960 -0.2065,-0.1596 -0.4292,-0.3414 -0.6726,-0.5563 z m 12.3224,0 c -0.2434,0.2149 -0.4661,0.3967 -0.6726,0.5563 0.0166,-0.0182 0.0328,-0.0353 0.0484,-0.0514 -0.9556,0.7424 -1.5832,1.0340 -2.2369,1.8475 -0.9130,1.0929 -0.6816,2.0328 -0.5425,2.3822 -5e-5,-2.7300e-4 4e-5,-5.9100e-4 0,-8.6400e-4 0.0376,0.0945 0.0683,0.1461 0.0683,0.1461 0.2457,-0.3511 0.5795,-0.6318 0.9657,-0.8425 0.6670,-0.3686 0.8950,-0.4915 1.1407,-1.0357 0.1405,-0.3686 0.1760,-0.7546 0.0882,-1.1407 0.2282,0.2282 0.4387,0.4737 0.6142,0.7370 0.5266,-0.7197 0.0700,-1.1935 0.0700,-1.1935 0.4564,-0.9479 0.4565,-1.4044 0.4565,-1.4044 z m -3.3924,4.9195 c -0.0020,0.1829 -0.0404,0.4604 -0.1712,1.0487 0.1308,-0.5884 0.1696,-0.8658 0.1712,-1.0487 z m 0.1976,7.4906 c 0.0825,0.1778 0.1721,0.3510 0.2684,0.5196 -0.0963,-0.1687 -0.1859,-0.3417 -0.2684,-0.5196 z m -5.1430,1.8259 c 0,0 -1.4777,0.8467 -1.0582,1.6037 1.5000e-4,1.2400e-4 2.8000e-4,3.0700e-4 4.3000e-4,4.3200e-4 0.0118,0.0212 0.0250,0.0425 0.0398,0.0635 0.4213,0.5968 0.8775,0.5615 0.8775,0.5615 0,0 -0.3686,-0.4389 0.2282,-0.8602 0.2233,0.2030 0.4582,0.3824 0.7050,0.5351 7.4000e-4,5.1700e-4 10e-4,7.8100e-4 0.0020,0.0013 0.1229,0.0759 0.2491,0.1453 0.3778,0.2075 9.3000e-4,3.9300e-4 0.0020,9.0600e-4 0.0030,0.0013 0.0582,0.0281 0.1170,0.0548 0.1764,0.0800 -10e-5,-3.0800e-4 -0.5618,-1.6676 -1.3517,-2.1941 z m -1.0582,1.6037 c -0.0540,-0.0436 -0.1069,-0.0911 -0.1591,-0.1418 0.0521,0.0507 0.1052,0.0983 0.1591,0.1418 z m 5.3937,-1.6037 c -0.7899,0.5266 -1.3517,2.1941 -1.3517,2.1941 0.0309,-0.0131 0.0615,-0.0268 0.0921,-0.0406 0.0020,-6.5500e-4 0.0040,-0.0015 0.0060,-0.0022 0.1994,-0.0908 0.3918,-0.1985 0.5775,-0.3216 5.9000e-4,-4.7400e-4 0.0010,-8.2200e-4 0.0020,-0.0013 0.2040,-0.1354 0.3996,-0.2891 0.5870,-0.4595 0.5968,0.4213 0.2282,0.8602 0.2282,0.8602 0,0 0.4566,0.0353 0.8779,-0.5615 0.5439,-0.7723 -1.0184,-1.6676 -1.0184,-1.6676 z m 1.8565,0.6618 c -0.0715,0.1141 -0.1284,0.2196 -0.2131,0.3354 0.0858,-0.1171 0.1409,-0.2201 0.2131,-0.3354 z m -0.4059,0.5727 c -0.0318,0.0375 -0.0603,0.0785 -0.0934,0.1141 0.0331,-0.0357 0.0615,-0.0766 0.0934,-0.1141 z m -0.9851,2.5914 c -0.0198,0.0105 -0.0402,0.0207 -0.0627,0.0320 0.0263,-0.0131 0.0400,-0.0199 0.0627,-0.0320 z m -0.5027,0.2179 c -0.0343,0.0125 -0.0726,0.0247 -0.1094,0.0372 0.0388,-0.0131 0.0734,-0.0240 0.1094,-0.0372 z m -0.8075,0.2239 c -0.0349,0.0071 -0.0754,0.0123 -0.1115,0.0190 0.0370,-0.0069 0.0758,-0.0118 0.1115,-0.0190 z m -40.5461,0.0328 4.0023,0.9652 v 10.9007 l 4.4056,0.2109 V 59.0843 l 4.0550,0.7024 v 9.7068 l 4.4060,0.1582 v -9.2157 l 3.9495,0.4387 V 71.6876 H 57.4680 c -0.8601,0.0175 -1.7203,-0.2806 -2.3874,-0.8247 -0.5968,-0.4739 -0.9479,-1.1938 -0.9479,-1.9486 z m 78.6392,0.0350 v 2.7206 c -2.8612,0.5617 -5.8278,1.0886 -8.8470,1.5099 l -0.2632,0.0350 v 1.9309 l 9.1280,0.8602 v 4.5288 c 0,0.7548 -0.3511,1.4742 -0.9479,1.9482 -0.6670,0.5442 -1.5097,0.8427 -2.3874,0.8252 -3.2825,0.0175 -6.5475,0.0352 -9.8300,0.0527 v -2.1414 c 3.0192,-0.1229 6.0031,-0.2635 8.8643,-0.4215 l 0.2987,-0.0177 v -2.2291 l -9.1453,-1.0707 0.0173,-3.6686 c 0,-0.5793 0.3160,-1.1588 0.9479,-1.6854 0.7021,-0.5793 1.5449,-0.9653 2.4401,-1.1057 3.3176,-0.5793 6.5824,-1.2815 9.7245,-2.0714 z m -41.6894,0.6670 0.2810,0.1055 c 0.5793,0.1931 1.1938,0.2984 1.8081,0.3160 h 0.1228 0.1755 0.0700 c 0.6144,-0.0175 1.2289,-0.1229 1.8081,-0.3160 l 0.2987,-0.1055 -0.2109,0.7547 -0.0350,0.0355 c -0.0176,0.0175 -0.5441,0.4560 -1.6499,0.5438 -0.1229,0.0175 -0.2636,0.0177 -0.3864,0.0177 -0.1229,0 -0.2631,-1.7300e-4 -0.3860,-0.0177 -1.1059,-0.0878 -1.6324,-0.5262 -1.6499,-0.5438 l -0.0350,-0.0355 z m 25.1893,2.4224 -0.0177,2.0364 c -3.0894,0.3160 -8.8470,0.7197 -8.8997,0.7197 l -0.2983,0.0173 v 6.7056 l 5.1957,-0.1055 v -3.7740 l 3.9672,-0.2805 v 5.9855 l -9.8300,0.0177 c -0.8426,0.0175 -1.6851,-0.1932 -2.4224,-0.5969 -0.4213,-0.2457 -0.8952,-0.6671 -0.8952,-1.2639 l 0.0177,-6.3719 c 0,-0.6144 0.4912,-1.0531 0.9125,-1.3339 0.7372,-0.4564 1.5973,-0.7021 2.4574,-0.7547 3.3000,-0.2457 6.6004,-0.5794 9.8127,-1.0007 z m -37.3712,0.8779 c 1.1234,0.1053 2.4047,0.1930 3.6158,0.2632 v 10.1809 h -3.6158 z m 7.4249,0.4560 c 0.8777,0.0175 3.3354,0.0879 4.6870,0.1055 1.7202,0.0175 3.4405,0.0175 5.1607,0 h 0.1050 c 0.8250,-0.0351 1.6326,0.1579 2.3523,0.5265 0.4037,0.2282 0.8952,0.6144 0.8952,1.2112 v 8.1450 h -4.0196 l -0.0177,-8.1450 h -0.3160 c -1.5096,0.0175 -3.0192,0.0175 -4.5288,0 h -0.3160 v 8.1623 h -4.0023 z m -6.7428,13.6550 c 0.1989,0.0070 0.3928,0.0894 0.5464,0.2122 0.1580,0.1404 0.2460,0.3513 0.2460,0.5619 v 3.3526 h -1.1057 v -1.2989 h -2.0013 v 1.2989 H 76.1445 v -3.3526 c 0,-0.2106 0.0880,-0.4038 0.2460,-0.5442 0.1755,-0.1580 0.4038,-0.2282 0.6320,-0.2282 h 2.4747 c 0.0285,-0.0022 0.0572,-0.0027 0.0856,-0.0017 z m 27.5637,0 c 0.0284,-9.9500e-4 0.0566,-4.6500e-4 0.0852,0.0017 h 2.4751 c 0.2106,0 0.4387,0.0701 0.6142,0.2105 0.1755,0.1404 0.2637,0.3336 0.2637,0.5442 v 3.3530 h -1.1234 v -1.2994 h -1.9836 v 1.2994 h -1.1234 v -3.3530 c 0,-0.2106 0.0875,-0.4038 0.2455,-0.5442 0.1536,-0.1229 0.3478,-0.2053 0.5468,-0.2122 z m -41.6916,0.0017 h 3.3526 c 0.2282,0 0.4564,0.0703 0.6320,0.2282 0.1755,0.1404 0.2632,0.3336 0.2632,0.5442 v 2.5979 c 0,0.2106 -0.1053,0.4038 -0.2632,0.5442 -0.1755,0.1404 -0.4038,0.2105 -0.6320,0.2105 h -3.3526 z m 21.3621,0 h 1.1234 v 3.1598 h 2.2119 V 79.4989 h -3.3353 z m 9.7599,0 h 1.1407 v 3.1598 H 99.9117 V 79.4989 h -3.3349 z m 21.3448,0.0177 h 3.3526 v 0.9652 h -3.1066 v 0.4565 l 3.1066,0.3160 0.0177,1.6149 c 0,0.2106 -0.1053,0.4038 -0.2632,0.5442 -0.1755,0.1404 -0.4038,0.2105 -0.6320,0.2105 h -3.3526 v -0.9652 h 3.1244 v -0.4742 l -3.1244,-0.3160 V 76.1636 c 0,-0.2106 0.0875,-0.4034 0.2455,-0.5438 0.1755,-0.1580 0.4038,-0.2282 0.6320,-0.2282 z m -51.3439,0.9479 v 2.1941 h 1.9836 v -2.1941 z m 10.6729,0 v 0.8952 h 2.0009 v -0.8952 z m 30.2268,0.0173 v 0.8779 h 1.9836 v -0.8779 z m -14.7624,4.9502 v 2.9316 c -0.6319,0.0351 -1.2640,0.0875 -1.8959,0.1928 -0.1580,-0.9479 -0.5266,-1.7025 -1.1234,-2.2291 -0.0527,-0.0527 -0.1230,-0.1055 -0.1932,-0.1582 1.0181,-0.4213 2.1067,-0.6668 3.2125,-0.7370 z m 1.2812,0 c 1.1059,0.0702 2.1944,0.3157 3.2125,0.7370 -0.0702,0.0527 -0.1230,0.1055 -0.1932,0.1582 -0.5968,0.5266 -0.9655,1.2813 -1.1234,2.2291 -0.6319,-0.1053 -1.2640,-0.1752 -1.8959,-0.1928 z m -17.0793,1.0884 7.6708,1.2462 c -0.7723,0.8426 -1.4218,1.7904 -1.9309,2.8261 -1.8958,-1.2638 -3.8617,-2.6329 -5.7399,-4.0723 z m 32.8952,0 c -1.9133,1.4569 -3.9144,2.8611 -5.8277,4.1600 -0.5091,-1.0532 -1.1587,-2.0187 -1.9486,-2.8788 z m -21.7313,0.3683 c 0.2984,0.0702 0.5620,0.2106 0.7902,0.4037 0.3686,0.3335 0.5967,0.8426 0.7020,1.5272 -1.8782,0.4915 -3.5810,1.4921 -4.8975,2.8788 l -0.5265,-0.3860 c 0.8426,-1.8256 2.2116,-3.3705 3.9318,-4.4237 z m 10.5674,0 c 1.7202,1.0532 3.1070,2.5982 3.9495,4.4237 l -0.5269,0.3860 c -1.3341,-1.4043 -3.0192,-2.3873 -4.8975,-2.8788 0.0878,-0.6670 0.3338,-1.1936 0.7024,-1.5272 0.2106,-0.1931 0.4916,-0.3335 0.7724,-0.4037 z m -4.6519,2.7561 c 0.6144,0.0351 1.2290,0.0877 1.8258,0.1755 0.0527,1.8782 0.9126,3.4403 1.9132,4.8270 -1.3341,0.8952 -2.6156,1.6855 -3.7390,2.3701 z m -1.2639,0.0177 v 7.3721 c -1.1410,-0.6846 -2.4047,-1.4920 -3.7563,-2.3696 0.9830,-1.3867 1.8434,-2.9488 1.9136,-4.8270 0.6144,-0.1053 1.2283,-0.1579 1.8427,-0.1755 z m -3.1421,0.4738 c -0.1404,1.4218 -0.8424,2.6505 -1.6849,3.8090 -0.7197,-0.4739 -1.4746,-0.9828 -2.2119,-1.5094 1.0883,-1.0708 2.4223,-1.8608 3.8968,-2.2996 z m 7.5481,0.0177 c 1.4569,0.4388 2.7912,1.2284 3.8795,2.2992 -0.7372,0.5266 -1.4745,1.0184 -2.1941,1.5099 -0.8250,-1.1761 -1.5274,-2.4048 -1.6854,-3.8090 z" /><path
         id="path3-1"
         style="fill:#00a8e0;fill-opacity:1;stroke-width:0.1755"
         class="st0"
         d="m 37.1411,21.4676 c 0,0 6.5822,5.6345 15.7099,8.6010 9.1278,2.9665 10.5497,3.5107 16.2546,5.0730 5.7049,1.5623 7.8464,3.5107 7.8113,6.1964 -0.0351,2.6681 -1.1235,13.6037 9.7245,14.6042 0,0 -3.6332,-0.7194 -5.8450,-4.5460 C 77.2506,45.2525 79.7779,41.1799 78.2859,38.5469 76.5130,35.4049 74.1085,34.6676 66.7887,32.4910 59.4690,30.3144 50.7450,28.1379 37.1411,21.4676 Z m 112.4468,0 c -13.6039,6.6703 -22.3279,8.8468 -29.6476,11.0234 -7.3198,2.1766 -9.7247,2.9139 -11.4976,6.0559 -1.4920,2.6330 1.0357,6.7056 -2.5101,12.8493 -2.2117,3.8266 -5.8450,4.5460 -5.8450,4.5460 10.8480,-1.0005 9.7596,-11.9361 9.7245,-14.6042 -0.0351,-2.6857 2.1065,-4.6341 7.8113,-6.1964 5.7049,-1.5623 7.1264,-2.1064 16.2541,-5.0730 9.1278,-2.9665 15.7104,-8.6010 15.7104,-8.6010 z" /><path
         class="st2"
         d="m 143.7603,29.7527 c 0,0 -3.5809,3.1245 -11.4097,5.3538 -7.8288,2.2293 -15.4294,4.8447 -15.4294,4.8447 0,0 20.6077,-1.5798 26.6109,-2.6330 0,0 -3.0192,2.3346 -12.9017,3.6160 -9.8650,1.2990 -15.6927,1.5271 -15.6927,1.5271 0,0 19.2736,2.5979 26.4705,2.5277 0,0 -3.3176,1.6325 -12.9017,1.1410 -9.5841,-0.4915 -13.8145,-1.3341 -13.8145,-1.3341 0,0 4.1075,3.7038 20.1513,7.4953 0,0 -5.5820,0.4915 -10.5671,-0.9830 -4.9676,-1.4745 -10.2512,-3.8969 -10.2512,-3.8969 0,0 3.3878,4.7043 6.2490,7.6533 0,0 -3.0718,-0.7021 -6.9512,-4.8974 0,0 -2.4224,5.4416 -5.8453,5.7575 0,0 4.2128,-4.3708 4.2304,-9.7597 0.0351,-5.3889 -0.7548,-7.0038 6.4421,-9.1102 7.1969,-2.1064 18.7295,-5.3889 25.6104,-7.3022 z"
         id="path4-4"
         style="fill:#c4d600;fill-opacity:1;stroke-width:0.1755" /><path
         class="st2"
         d="m 42.9687,29.7527 c 0,0 3.5809,3.1245 11.4097,5.3538 7.8288,2.2293 15.4294,4.8447 15.4294,4.8447 0,0 -20.6077,-1.5798 -26.6110,-2.6330 0,0 3.0192,2.3346 12.9017,3.6160 9.8826,1.2814 15.6927,1.5271 15.6927,1.5271 0,0 -19.2736,2.5979 -26.4881,2.5277 0,0 3.3176,1.6325 12.9017,1.1410 9.5842,-0.4915 13.8145,-1.3341 13.8145,-1.3341 0,0 -4.1075,3.7038 -20.1513,7.4953 0,0 5.5820,0.4915 10.5671,-0.9830 4.9676,-1.4745 10.2512,-3.8969 10.2512,-3.8969 0,0 -3.3878,4.7043 -6.2490,7.6533 0,0 3.0718,-0.7021 6.9511,-4.8974 0,0 2.4224,5.4416 5.8453,5.7575 0,0 -4.2128,-4.3708 -4.2304,-9.7597 -0.0351,-5.3889 0.7548,-7.0038 -6.4421,-9.1102 -7.1969,-2.1064 -18.7119,-5.3889 -25.5929,-7.3022 z"
         id="path6"
         style="fill:#c4d600;fill-opacity:1;stroke-width:0.1755" /><path
         id="path7-9"
         style="fill:#ffffff;stroke-width:0.1755"
         class="st3"
         d="m 100.3682,29.0857 c 0,0 -2.8612,0.7198 -4.1250,2.2996 -0.1404,0.1580 -0.2634,0.3158 -0.3687,0.4738 0.1931,1.3692 -0.0877,3.1245 -1.4744,5.2485 -1.0708,1.6325 -0.2805,2.8788 -0.2805,2.8788 0,0 -1.2287,-0.0702 -2.0186,-1.7027 -1.0181,-2.0713 0.6842,-3.7566 -0.7551,-5.8104 -0.1404,-0.1931 -0.2984,-0.4036 -0.4915,-0.6142 -0.6670,-0.7899 -1.4741,-1.4394 -2.3869,-1.9309 -0.6723,-0.3275 -1.3784,-0.6044 -2.0852,-0.7971 1.2905,0.9428 3.6505,2.9619 3.9807,5.2558 -0.9979,0.4989 -1.8773,1.2168 -2.5399,2.1211 -0.0143,0.0303 -0.0278,0.0605 -0.0402,0.0903 0,0 -1.0548,0.5958 -1.5397,1.2341 0.4550,0.4545 0.9448,0.8738 1.4520,1.2760 0.0504,0.0355 0.1117,0.0940 0.1811,0.1703 0.9404,0.7268 1.5408,0.9900 2.1885,1.7960 0.9159,1.0963 0.6798,2.0389 0.5407,2.3856 -0.0277,0.1904 -0.0170,0.4283 0.1612,1.2302 0.2633,1.2287 1.0535,4.1073 -0.4210,6.5297 -0.2148,0.4295 -0.4610,0.8437 -0.7673,1.2129 -0.1950,0.3169 -0.3975,0.6364 -0.5144,0.8234 -0.2457,0.4213 1.4044,3.4230 1.4044,3.4230 0,0 0.8599,0.6319 2.6679,0.7197 h 0.1932 0.1932 c 1.8256,-0.0878 2.6679,-0.7197 2.6679,-0.7197 0,0 0.0030,-0.0056 0.0090,-0.0164 -0.1557,0.1048 -1.0026,0.6223 -2.6420,0.7011 h -0.1932 -0.1928 c -1.8080,-0.0878 -2.6683,-0.7197 -2.6683,-0.7197 0,0 -1.6502,-3.0018 -1.4044,-3.4230 0.2193,0.3838 0.5992,0.9919 1.0309,1.3404 -0.4195,-0.7570 1.0582,-1.6037 1.0582,-1.6037 0.7898,0.5266 1.3516,2.1938 1.3517,2.1941 0,-1.4000e-5 -0.0020,-0.0058 -0.0060,-0.0169 0.2332,0.0753 0.5077,0.1219 0.8304,0.1219 0.3137,0 0.5819,-0.0442 0.8109,-0.1158 -0.0020,0.0070 -0.0030,0.0108 -0.0030,0.0108 0,0 0.5618,-1.6675 1.3517,-2.1941 0,0 1.5623,0.8953 1.0184,1.6676 0.0060,-0.0084 0.0119,-0.0171 0.0173,-0.0255 0.4380,-0.3240 0.8128,-0.9183 1.0430,-1.3296 -0.0020,-0.0051 -0.0050,-0.0098 -0.0070,-0.0143 -0.1525,-0.2592 -0.4505,-0.7305 -0.6873,-1.1144 -0.2197,-0.3184 -0.4119,-0.6549 -0.5766,-1.0098 -1.4043,-2.3873 -0.6320,-5.2307 -0.3687,-6.4419 0.1816,-0.8169 0.1895,-1.0429 0.1599,-1.2337 -0.1391,-0.3493 -0.3705,-1.2893 0.5425,-2.3822 0.6557,-0.8160 1.2850,-1.1069 2.2456,-1.8544 0.0457,-0.0464 0.0883,-0.0868 0.1241,-0.1120 0.4899,-0.3885 0.9636,-0.7931 1.4053,-1.2298 -2.2000e-4,-0.0054 -6.4000e-4,-0.0110 -8.7000e-4,-0.0164 l 0.0514,-0.0341 c 2.1000e-4,-2.1200e-4 6.5000e-4,-2.2000e-4 8.7000e-4,-4.3200e-4 l 4.3000e-4,-4.3200e-4 c -0.4739,-0.6319 -1.5624,-1.2638 -1.5626,-1.2639 -0.6670,-0.9303 -1.5620,-1.6674 -2.5801,-2.1764 0.3335,-2.3170 2.7382,-4.3536 4.0195,-5.2839 0.0129,0.1900 0.0170,0.3743 0.0143,0.5537 0.0030,-0.1849 -9.7000e-4,-0.3749 -0.0143,-0.5710 z M 86.3276,29.5681 c -0.0040,2.8049 1.8071,4.3612 2.9601,5.0686 0.0070,-0.0072 0.0147,-0.0145 0.0221,-0.0216 -1.1493,-0.6996 -2.9783,-2.2370 -2.9821,-5.0470 z m -0.0912,8.2730 c -0.0050,0.0071 -0.0108,0.0140 -0.0160,0.0212 -0.0030,0.0817 -0.0050,0.1634 -0.0050,0.2447 0.0080,-0.1397 0.0173,-0.2326 0.0207,-0.2658 z m 0.7405,4.3442 c 0.2287,0.4260 0.5904,0.8712 1.1567,1.2765 0.0010,0.0821 0.0030,0.1643 0.0060,0.2464 0.0070,-0.1740 0.0195,-0.2679 0.0130,-0.2801 l -4.4000e-4,-4.3200e-4 -4.3000e-4,-4.3200e-4 v -4.3200e-4 c -0.5123,-0.3126 -0.8927,-0.7489 -1.1744,-1.2414 z m 11.6562,1.1956 c -0.0241,0.0155 -0.0484,0.0309 -0.0731,0.0458 l -4.3000e-4,4.3200e-4 -4.3000e-4,4.3200e-4 c -0.0010,0.0021 -0.0020,0.0057 -0.0030,0.0112 0.0261,-0.0193 0.0517,-0.0385 0.0770,-0.0579 z m -1.2842,2.4332 c -0.0090,0.0230 -0.0185,0.0467 -0.0281,0.0713 0.0606,0.6100 0.1871,1.2122 0.3795,1.7895 0.0090,-0.0223 0.0174,-0.0447 0.0259,-0.0670 -0.1712,-0.5870 -0.3084,-1.1903 -0.3774,-1.7939 z m -8.8397,0.4750 c 0.1212,0.4713 0.2714,0.9346 0.4496,1.3858 0.0050,-0.0143 0.0100,-0.0289 0.0143,-0.0432 -0.1961,-0.4894 -0.3475,-0.9370 -0.4638,-1.3426 z m 0.6497,0.6713 c -0.0215,0.0906 -0.0477,0.1795 -0.0722,0.2693 0.0242,-0.0898 0.0510,-0.1786 0.0722,-0.2693 z m 5.6894,7.8269 c -0.1869,0.1240 -0.3806,0.2325 -0.5814,0.3238 0.2364,-0.0853 0.4278,-0.2003 0.5814,-0.3238 z m -2.8672,0.0756 c 0.1093,0.0768 0.2355,0.1480 0.3795,0.2083 -0.1293,-0.0625 -0.2560,-0.1320 -0.3795,-0.2083 z" /><path
         id="path8"
         style="fill:#c4d600;fill-opacity:1;stroke:#c4d600;stroke-width:0.0443;stroke-dasharray:none;stroke-opacity:1"
         class="st2"
         d="m 86.3432,29.1030 c -0.2106,3.1070 1.7554,4.7749 2.9666,5.5121 -0.5793,0.5617 -1.2639,1.3163 -1.5272,1.9482 0.6670,-0.9303 1.5620,-1.6674 2.5801,-2.1764 -0.3335,-2.3170 -2.7382,-4.3536 -4.0196,-5.2839 z m 14.0250,0 c -1.2814,0.9303 -3.6860,2.9669 -4.0195,5.2839 1.0181,0.5090 1.9131,1.2461 2.5801,2.1764 -0.2633,-0.6319 -0.9479,-1.3865 -1.5272,-1.9482 1.2112,-0.7372 3.1772,-2.4052 2.9666,-5.5121 z m -14.1305,8.7242 c 0,0 -0.4737,4.1425 1.9136,5.5995 v 4.3200e-4 l 4.3000e-4,4.3200e-4 4.4000e-4,4.3200e-4 c 0.0268,0.0503 -0.2690,1.4879 0.8239,4.2115 0.1931,-0.5793 0.3162,-1.1936 0.3864,-1.7904 0.3686,0.9128 0.9652,3.1071 0.1578,6.6529 0.3335,-0.3862 0.5970,-0.8253 0.8252,-1.2816 1.4745,-2.4224 0.6843,-5.3009 0.4210,-6.5297 -0.1784,-0.8030 -0.1891,-1.0405 -0.1612,-1.2311 -0.0370,0.0923 -0.0670,0.1426 -0.0670,0.1426 -0.2457,-0.3511 -0.5791,-0.6318 -0.9652,-0.8425 -0.6670,-0.3686 -0.8954,-0.4915 -1.1412,-1.0357 -0.1405,-0.3686 -0.1756,-0.7546 -0.0877,-1.1407 -0.2282,0.2282 -0.4387,0.4737 -0.6142,0.7370 -0.5266,-0.7197 -0.0700,-1.1935 -0.0700,-1.1935 -0.4564,-0.9479 -0.4565,-1.4044 -0.4565,-1.4044 0.2434,0.2149 0.4661,0.3967 0.6726,0.5563 -0.0694,-0.0764 -0.1307,-0.1348 -0.1811,-0.1703 -0.5091,-0.4037 -1.0008,-0.8248 -1.4571,-1.2812 z m 14.2532,0 c -0.4564,0.4564 -0.9477,0.8775 -1.4567,1.2812 -0.0505,0.0355 -0.1117,0.0940 -0.1811,0.1703 0.2065,-0.1596 0.4292,-0.3414 0.6726,-0.5563 0,0 -8e-5,0.4565 -0.4565,1.4044 0,0 0.4566,0.4738 -0.0700,1.1935 -0.1755,-0.2633 -0.3861,-0.5088 -0.6142,-0.7370 0.0878,0.3862 0.0523,0.7721 -0.0882,1.1407 -0.2457,0.5442 -0.4737,0.6671 -1.1407,1.0357 -0.3862,0.2106 -0.7199,0.4914 -0.9657,0.8425 0,0 -0.0307,-0.0516 -0.0683,-0.1461 0.0297,0.1910 0.0219,0.4163 -0.1599,1.2345 -0.2633,1.2112 -1.0355,4.0547 0.3687,6.4419 0.2282,0.4915 0.5090,0.9481 0.8425,1.3694 -0.8075,-3.5809 -0.1931,-5.7751 0.1755,-6.6879 0.0702,0.6144 0.2109,1.2286 0.3864,1.8254 1.0886,-2.7302 0.7834,-4.1516 0.8239,-4.2119 l 4.3000e-4,-4.3200e-4 4.3000e-4,-4.3200e-4 c 2.4007,-1.4545 1.9325,-5.5854 1.9309,-5.5995 z M 89.0988,53.2216 c -0.2457,0.4213 1.4044,3.4230 1.4044,3.4230 0,0 0.8603,0.6319 2.6683,0.7197 h 0.1928 0.1932 c 1.8256,-0.0878 2.6683,-0.7197 2.6683,-0.7197 0,0 1.6497,-3.0193 1.4040,-3.4230 -0.2272,0.4118 -0.6149,1.0417 -1.0707,1.3789 -0.0050,0.0085 -0.0113,0.0171 -0.0173,0.0255 -0.4213,0.5968 -0.8779,0.5615 -0.8779,0.5615 0,0 0.3686,-0.4389 -0.2282,-0.8602 -0.1874,0.1704 -0.3830,0.3241 -0.5870,0.4595 -0.1543,0.1241 -0.3469,0.2395 -0.5848,0.3251 -0.0306,0.0139 -0.0612,0.0276 -0.0921,0.0406 0,0 0.0010,-0.0038 0.0030,-0.0108 -0.2290,0.0716 -0.4972,0.1158 -0.8109,0.1158 -0.3227,0 -0.5972,-0.0466 -0.8304,-0.1219 0.0040,0.0111 0.0060,0.0169 0.0060,0.0169 -0.0594,-0.0251 -0.1182,-0.0519 -0.1764,-0.0800 -0.1454,-0.0607 -0.2724,-0.1327 -0.3826,-0.2101 -0.2468,-0.1527 -0.4817,-0.3321 -0.7050,-0.5351 -0.5968,0.4213 -0.2282,0.8602 -0.2282,0.8602 0,0 -0.4562,0.0353 -0.8775,-0.5615 -0.0148,-0.0210 -0.0280,-0.0424 -0.0398,-0.0635 -0.4319,-0.3485 -0.8120,-0.9570 -1.0314,-1.3409 z m 1.9836,4.7393 0.2109,0.7547 0.0350,0.0355 c 0.0175,0.0175 0.5441,0.4560 1.6499,0.5438 0.1229,0.0175 0.2631,0.0177 0.3860,0.0177 0.1229,0 0.2636,-1.7300e-4 0.3864,-0.0177 1.1059,-0.0878 1.6324,-0.5262 1.6499,-0.5438 l 0.0350,-0.0355 0.2109,-0.7547 -0.2987,0.1055 c -0.5793,0.1931 -1.1938,0.2984 -1.8081,0.3160 h -0.0700 -0.1755 -0.1228 c -0.6144,-0.0175 -1.2289,-0.1229 -1.8081,-0.3160 z" /><path
         id="path18"
         style="fill:#c4d600;fill-opacity:1;stroke-width:0.1755"
         class="st2"
         d="m 79.5827,75.3722 c -0.0284,-9.9500e-4 -0.0571,-4.6500e-4 -0.0856,0.0017 H 77.0224 c -0.2282,0 -0.4564,0.0703 -0.6320,0.2282 -0.1580,0.1404 -0.2460,0.3336 -0.2460,0.5442 v 3.3526 h 1.1234 v -1.2989 h 2.0013 v 1.2989 h 1.1057 v -3.3526 c 0,-0.2106 -0.0880,-0.4215 -0.2460,-0.5619 -0.1536,-0.1229 -0.3474,-0.2053 -0.5464,-0.2122 z m 27.5637,0 c -0.1989,0.0070 -0.3932,0.0894 -0.5468,0.2122 -0.1580,0.1404 -0.2455,0.3336 -0.2455,0.5442 v 3.3530 h 1.1234 v -1.2994 h 1.9836 v 1.2994 h 1.1234 v -3.3530 c 0,-0.2106 -0.0882,-0.4038 -0.2637,-0.5442 -0.1755,-0.1404 -0.4036,-0.2105 -0.6142,-0.2105 h -2.4751 c -0.0285,-0.0022 -0.0567,-0.0027 -0.0852,-0.0017 z m -41.6916,0.0017 v 4.1250 h 3.3526 c 0.2282,0 0.4564,-0.0701 0.6320,-0.2105 0.1580,-0.1404 0.2632,-0.3336 0.2632,-0.5442 v -2.5979 c 0,-0.2106 -0.0877,-0.4038 -0.2632,-0.5442 -0.1755,-0.1580 -0.4038,-0.2282 -0.6320,-0.2282 z m 21.3621,0 v 4.1250 h 3.3353 v -0.9652 h -2.2119 v -3.1598 z m 9.7599,0 v 4.1250 h 3.3349 v -0.9652 h -2.1941 v -3.1598 z m 21.3448,0.0177 c -0.2282,0 -0.4564,0.0703 -0.6320,0.2282 -0.1580,0.1404 -0.2455,0.3331 -0.2455,0.5438 v 1.5799 l 3.1244,0.3160 v 0.4742 h -3.1244 v 0.9652 h 3.3526 c 0.2282,0 0.4564,-0.0701 0.6320,-0.2105 0.1580,-0.1404 0.2632,-0.3336 0.2632,-0.5442 l -0.0177,-1.6149 -3.1066,-0.3160 v -0.4565 h 3.1066 v -0.9652 z m -51.3439,0.9479 h 1.9836 v 2.1941 h -1.9836 z m 10.6729,0 h 2.0009 v 0.8952 h -2.0009 z m 30.2268,0.0173 h 1.9836 v 0.8779 h -1.9836 z" /><path
         id="path23"
         style="fill:#ffffff;stroke:#ffffff;stroke-width:0.6403;stroke-dasharray:none;stroke-opacity:1"
         class="st3"
         d="m 54.1327,57.2589 v 11.6554 c 0,0.7548 0.3511,1.4747 0.9479,1.9486 0.6670,0.5442 1.5272,0.8423 2.3874,0.8247 H 74.9510 V 60.8747 l -3.9495,-0.4387 v 9.2157 l -4.4060,-0.1582 v -9.7068 l -4.0550,-0.7024 V 69.3357 L 58.1350,69.1248 V 58.2241 Z m 78.6392,0.0350 c -3.1421,0.7899 -6.4069,1.4921 -9.7245,2.0714 -0.8952,0.1404 -1.7380,0.5265 -2.4401,1.1057 -0.6319,0.5266 -0.9479,1.1061 -0.9479,1.6854 l -0.0173,3.6686 9.1453,1.0707 v 2.2291 l -0.2987,0.0177 c -2.8612,0.1580 -5.8451,0.2986 -8.8643,0.4215 v 2.1414 c 3.2825,-0.0175 6.5475,-0.0352 9.8300,-0.0527 0.8777,0.0175 1.7203,-0.2810 2.3874,-0.8252 0.5968,-0.4739 0.9479,-1.1934 0.9479,-1.9482 v -4.5288 l -9.1280,-0.8602 v -1.9309 l 0.2632,-0.0350 c 3.0192,-0.4213 5.9858,-0.9482 8.8470,-1.5099 z m -16.5001,3.0893 c -3.2123,0.4213 -6.5126,0.7549 -9.8127,1.0007 -0.8601,0.0527 -1.7201,0.2983 -2.4574,0.7547 -0.4213,0.2809 -0.9125,0.7196 -0.9125,1.3339 l -0.0177,6.3719 c 0,0.5968 0.4739,1.0182 0.8952,1.2639 0.7372,0.4037 1.5798,0.6145 2.4224,0.5969 l 9.8300,-0.0177 v -5.9855 l -3.9672,0.2805 v 3.7740 l -5.1957,0.1055 v -6.7056 l 0.2983,-0.0173 c 0.0527,0 5.8103,-0.4037 8.8997,-0.7197 z m -37.3712,0.8779 v 10.4442 h 3.6158 V 61.5244 c -1.2112,-0.0702 -2.4924,-0.1579 -3.6158,-0.2632 z m 7.4249,0.4560 V 71.7226 H 90.3277 V 63.5603 h 0.3160 c 1.5096,0.0175 3.0192,0.0175 4.5288,0 h 0.3160 l 0.0177,8.1450 h 4.0196 V 63.5603 c 0,-0.5968 -0.4915,-0.9830 -0.8952,-1.2112 -0.7197,-0.3686 -1.5273,-0.5616 -2.3523,-0.5265 h -0.1050 c -1.7202,0.0175 -3.4405,0.0175 -5.1607,0 -1.3516,-0.0175 -3.8093,-0.0879 -4.6870,-0.1055 z" /><path
         id="path22"
         style="fill:#c4d600;fill-opacity:1;stroke-width:0.1755"
         class="st2"
         d="m 133.4038,56.4514 -0.4037,0.1055 c -3.2474,0.8250 -6.6354,1.5443 -10.0759,2.1587 -1.0005,0.1755 -1.9480,0.5972 -2.7379,1.2466 -0.7723,0.6495 -1.1762,1.4041 -1.1762,2.1764 l -0.0177,4.2305 9.1453,1.0707 v 1.0707 c -2.8612,0.1580 -5.8454,0.2984 -8.8470,0.4037 l -0.2983,0.0177 -0.0173,3.4053 0.3155,-0.0350 c 3.3878,0 6.7581,-0.0352 10.1459,-0.0527 1.0181,0.0175 2.0012,-0.3162 2.7911,-0.9657 0.7372,-0.5793 1.1762,-1.4745 1.1762,-2.4224 v -5.1080 l -9.1280,-0.8602 v -0.8075 c 3.0192,-0.4388 6.0035,-0.9479 8.8647,-1.5272 l 0.2632,-0.0523 z M 53.4830,56.4687 v 12.4805 c 0.0175,0.9303 0.4389,1.8256 1.1762,2.4224 0.7899,0.6319 1.7730,0.9832 2.7911,0.9657 h 17.7990 0.3337 l -0.0350,-12.0068 -0.2810,-0.0350 -4.5992,-0.5265 -0.3510,-0.0350 v 9.2680 L 67.1925,68.8965 V 59.2775 L 61.8736,58.3646 V 68.6687 l -3.1244,-0.1582 v -10.7952 z m 0.6497,0.7902 4.0023,0.9652 v 10.9007 l 4.4056,0.2109 V 59.0843 l 4.0550,0.7024 v 9.7068 l 4.4060,0.1582 v -9.2157 l 3.9495,0.4387 V 71.6876 H 57.4680 c -0.8601,0.0175 -1.7203,-0.2806 -2.3874,-0.8247 -0.5968,-0.4739 -0.9479,-1.1938 -0.9479,-1.9486 z m 78.6392,0.0350 v 2.7206 c -2.8612,0.5617 -5.8278,1.0886 -8.8470,1.5099 l -0.2632,0.0350 v 1.9309 l 9.1280,0.8602 v 4.5288 c 0,0.7548 -0.3511,1.4742 -0.9479,1.9482 -0.6670,0.5442 -1.5097,0.8427 -2.3874,0.8252 -3.2825,0.0175 -6.5475,0.0352 -9.8300,0.0527 v -2.1414 c 3.0192,-0.1229 6.0031,-0.2635 8.8643,-0.4215 l 0.2987,-0.0177 v -2.2291 l -9.1453,-1.0707 0.0173,-3.6686 c 0,-0.5793 0.3160,-1.1588 0.9479,-1.6854 0.7021,-0.5793 1.5449,-0.9653 2.4401,-1.1057 3.3176,-0.5793 6.5824,-1.2815 9.7245,-2.0714 z m -15.8509,2.3696 -0.3687,0.0527 c -3.3176,0.4388 -6.7230,0.7899 -10.1459,1.0357 -0.9830,0.0527 -1.9306,0.3511 -2.7556,0.8602 -0.7899,0.5090 -1.2112,1.1583 -1.2112,1.8604 l -0.0177,6.3719 c -0.0175,0.4915 0.1932,1.2113 1.1762,1.8081 l 0.0527,0.0177 c 0.8250,0.4564 1.7728,0.6845 2.7206,0.6670 l 10.5146,-0.0177 v -7.3021 l -5.2485,0.3687 v 3.7386 l -3.9145,0.1055 v -5.4590 c 1.2638,-0.1053 6.2667,-0.4566 8.8997,-0.7374 l 0.2805,-0.0350 z m -0.6492,0.7197 -0.0177,2.0364 c -3.0894,0.3160 -8.8470,0.7197 -8.8997,0.7197 l -0.2983,0.0173 v 6.7056 l 5.1957,-0.1055 v -3.7740 l 3.9672,-0.2805 v 5.9855 l -9.8300,0.0177 c -0.8426,0.0175 -1.6851,-0.1932 -2.4224,-0.5969 -0.4213,-0.2457 -0.8952,-0.6671 -0.8952,-1.2639 l 0.0177,-6.3719 c 0,-0.6144 0.4912,-1.0531 0.9125,-1.3339 0.7372,-0.4564 1.5973,-0.7021 2.4574,-0.7547 3.3000,-0.2457 6.6004,-0.5794 9.8127,-1.0007 z m -38.0031,0.1932 v 11.7608 h 4.8975 l 0.0173,-11.4098 -0.2983,-0.0173 c -1.4394,-0.0878 -2.9490,-0.1934 -4.2655,-0.2987 z m 7.4603,0.4738 v 11.2871 h 5.2658 v -8.1623 h 3.8968 v 8.1623 h 5.2839 v -0.3160 -8.4610 c 0.0176,-0.4915 -0.1931,-1.2110 -1.2112,-1.7727 -0.8075,-0.4213 -1.7203,-0.6318 -2.6506,-0.6142 h -0.1055 c -1.7202,0.0175 -3.4228,0.0175 -5.1430,0 -1.6500,-0.0175 -4.9678,-0.1232 -5.0029,-0.1232 z m -6.8284,0.2109 c 1.1234,0.1053 2.4047,0.1930 3.6158,0.2632 v 10.1809 h -3.6158 z m 7.4249,0.4560 c 0.8777,0.0175 3.3354,0.0879 4.6870,0.1055 1.7202,0.0175 3.4405,0.0175 5.1607,0 h 0.1050 c 0.8250,-0.0351 1.6326,0.1579 2.3523,0.5265 0.4037,0.2282 0.8952,0.6144 0.8952,1.2112 v 8.1450 h -4.0196 l -0.0177,-8.1450 h -0.3160 c -1.5096,0.0175 -3.0192,0.0175 -4.5288,0 h -0.3160 v 8.1623 h -4.0023 z" /><path
         id="path32"
         style="fill:#00a8e0;fill-opacity:1;stroke-width:0.1755"
         class="st0"
         d="m 76.9169,82.3955 c 1.8782,1.4394 3.8442,2.8084 5.7399,4.0723 0.5091,-1.0357 1.1585,-1.9835 1.9309,-2.8261 z m 32.8952,0 -7.7763,1.2812 c 0.7899,0.8601 1.4396,1.8256 1.9486,2.8788 1.9133,-1.2990 3.9144,-2.7031 5.8277,-4.1600 z" /><path
         id="path34"
         style="fill:#ffffff;stroke-width:0.1755"
         class="st3"
         d="m 93.9963,81.3071 v 2.9316 c 0.6319,0.0175 1.2640,0.0875 1.8959,0.1928 0.1580,-0.9479 0.5266,-1.7025 1.1234,-2.2291 0.0702,-0.0527 0.1230,-0.1055 0.1932,-0.1582 -1.0181,-0.4213 -2.1067,-0.6668 -3.2125,-0.7370 z m -5.9154,1.4567 c -1.7202,1.0532 -3.0892,2.5982 -3.9318,4.4237 l 0.5265,0.3860 c 1.3165,-1.3867 3.0193,-2.3873 4.8975,-2.8788 C 89.4677,84.0101 89.2396,83.5010 88.8710,83.1675 88.6428,82.9744 88.3792,82.8340 88.0808,82.7638 Z m 4.6515,2.7738 c -0.6144,0.0175 -1.2283,0.0702 -1.8427,0.1755 -0.0702,1.8782 -0.9306,3.4403 -1.9136,4.8270 1.3516,0.8777 2.6153,1.6850 3.7563,2.3696 z m 4.4060,0.4915 c 0.1580,1.4043 0.8604,2.6330 1.6854,3.8090 0.7197,-0.4915 1.4569,-0.9833 2.1941,-1.5099 -1.0883,-1.0708 -2.4226,-1.8603 -3.8795,-2.2992 z" /><path
         id="path35"
         style="fill:#c4d600;fill-opacity:1;stroke-width:0.1755"
         class="st2"
         d="m 92.7151,81.3071 c -1.1059,0.0702 -2.1944,0.3157 -3.2125,0.7370 0.0702,0.0527 0.1406,0.1055 0.1932,0.1582 0.5968,0.5266 0.9655,1.2813 1.1234,2.2291 0.6319,-0.1053 1.2640,-0.1577 1.8959,-0.1928 z m 5.9332,1.4567 c -0.2809,0.0702 -0.5618,0.2106 -0.7724,0.4037 -0.3686,0.3335 -0.6147,0.8601 -0.7024,1.5272 1.8782,0.4915 3.5634,1.4746 4.8975,2.8788 l 0.5269,-0.3860 c -0.8426,-1.8256 -2.2293,-3.3705 -3.9495,-4.4237 z m -4.6519,2.7561 v 7.3726 c 1.1234,-0.6846 2.4050,-1.4748 3.7390,-2.3701 -1.0005,-1.3867 -1.8605,-2.9488 -1.9132,-4.8270 -0.5968,-0.0878 -1.2115,-0.1404 -1.8258,-0.1755 z m -4.4060,0.4915 c -1.4745,0.4388 -2.8085,1.2288 -3.8968,2.2996 0.7372,0.5266 1.4922,1.0355 2.2119,1.5094 0.8426,-1.1585 1.5445,-2.3872 1.6849,-3.8090 z" /></g></g><style
     type="text/css"
     id="style1">
	.st0{fill:#4891CE;}
	.st1{fill:#C7D9EA;}
	.st2{fill:#E3173E;}
	.st3{fill:#FFFFFF;}
</style><style
     type="text/css"
     id="style1-7">
	.st0{fill:#211646;}
	.st1{fill:#B3B2B1;}
	.st2{fill:#FFFFFF;}
	.st3{fill:#D35E13;}
</style></svg>
