<svg
  
  
   viewBox="0 0 140.3140 110.6577"
   version="1.1000"
   id="svg1"
   xml:space="preserve"
   sodipodi:docname="group-team-logo-doc.svg"
   inkscape:version="1.4000.2 (2aeb623e1d, 2025-05-12)"
   xmlns:inkscape="http://www.inkscape.org/namespaces/inkscape"
   xmlns:sodipodi="http://sodipodi.sourceforge.net/DTD/sodipodi-0.dtd"
   xmlns="http://www.w3.org/2000/svg"
   xmlns:svg="http://www.w3.org/2000/svg"><sodipodi:namedview
     id="namedview1"
     pagecolor="#ffffff"
     bordercolor="#000000"
     borderopacity="0.2500"
     inkscape:showpageshadow="2"
     inkscape:pageopacity="0.0000"
     inkscape:pagecheckerboard="0"
     inkscape:deskcolor="#d1d1d1"
     inkscape:document-units="px"
     inkscape:zoom="0.6137"
     inkscape:cx="317.7196"
     inkscape:cy="250.1023"
     inkscape:window-width="1854"
     inkscape:window-height="1011"
     inkscape:window-x="0"
     inkscape:window-y="0"
     inkscape:window-maximized="1"
     inkscape:current-layer="layer18"
     showgrid="false"><inkscape:page
       x="0"
       y="0"
      
      
       id="page2"
       margin="0"
       bleed="0" /><inkscape:grid
       id="grid5"
       units="px"
       originx="0"
       originy="0"
       spacingx="0.2213"
       spacingy="0.2213"
       empcolor="#0099e5"
       empopacity="0.3020"
       color="#0099e5"
       opacity="0.1490"
       empspacing="5"
       enabled="true"
       visible="false" /></sodipodi:namedview><defs
     id="defs1"></defs><g
     inkscape:groupmode="layer"
     id="layer18"
     inkscape:label="golden-state-valkyries"><path
       id="path2"
       d="m -518.4455,147.5422 c 6.8329,1.8180 12.9017,3.4251 18.9661,5.0476 46.2086,12.3631 92.4228,24.7053 138.6094,37.1501 2.8961,0.7803 5.4771,0.7308 8.3519,-0.0425 50.9273,-13.7008 101.8787,-27.3129 152.8261,-40.9404 1.2505,-0.3345 2.5124,-0.6270 4.4394,-1.1055 C -249.1861,263.2647 -302.8714,378.3455 -356.8237,493.9989 -410.7479,378.4055 -464.4442,263.3009 -518.4455,147.5422"
       style="fill:#ad96dc;fill-opacity:1;fill-rule:nonzero;stroke:none;stroke-width:0.2513"
       clip-path="none"
       sodipodi:nodetypes="ccscsccc"
       transform="matrix(0.2213,0,0,0.2213,150.3140,0)" /><path
       id="path1"
       clip-path="none"
       style="fill:#000000;fill-opacity:1;fill-rule:nonzero;stroke:none;stroke-width:0.2513"
       d="m -518.4461,147.5430 c 54.0014,115.7587 107.6988,230.8617 161.6230,346.4551 53.9524,-115.6535 107.6368,-230.7325 161.5703,-346.3457 -1.9271,0.4785 -3.1889,0.7710 -4.4394,1.1055 -50.9474,13.6274 -101.8989,27.2386 -152.8262,40.9395 -2.8748,0.7733 -5.4554,0.8233 -8.3516,0.0430 -46.1865,-12.4448 -92.4007,-24.7873 -138.6094,-37.1504 -6.0644,-1.6225 -12.1339,-3.2289 -18.9668,-5.0469 z m 19.7637,16.6035 c 6.8498,1.8336 13.0722,3.4971 19.2949,5.1641 40.2081,10.7700 80.4134,21.5490 120.6348,32.2695 1.1965,0.3189 2.6298,0.3001 3.8301,-0.0195 29.3956,-7.8271 58.7728,-15.7214 88.1563,-23.5938 16.1931,-4.3382 32.3908,-8.6613 48.5879,-12.9844 0.8434,-0.2249 1.7036,-0.3826 3.1231,-0.6973 -47.3144,101.4241 -94.4054,202.3738 -141.7832,303.9336 -47.3403,-101.4842 -94.4461,-202.4652 -141.8438,-304.0723 z m 267.0527,13.4336 c -32.4581,8.6982 -64.9169,17.3956 -97.3750,26.0938 0.0460,0.2375 0.0925,0.4739 0.1387,0.7109 28.1812,0.6145 56.3627,1.2305 84.5801,1.8457 4.4384,-9.5207 8.7690,-18.8101 13.0996,-28.0996 -0.1480,-0.1835 -0.2953,-0.3673 -0.4434,-0.5508 z m -250.3496,0.0176 c -0.1651,0.1792 -0.3310,0.3579 -0.4961,0.5371 4.3238,9.2747 8.6479,18.5507 13.0879,28.0742 28.3675,-0.6097 56.4161,-1.2135 84.4648,-1.8164 0.0339,-0.2596 0.0696,-0.5194 0.1035,-0.7793 -32.3862,-8.6721 -64.7737,-17.3438 -97.1602,-26.0156 z m 105.0078,30.1074 c -29.4923,1.8579 -58.9838,3.7154 -89.0801,5.6113 4.3128,9.2719 8.3836,18.0222 12.5215,26.9180 25.7824,-10.7280 51.2025,-21.3072 76.6231,-31.8848 -0.0211,-0.2151 -0.0434,-0.4294 -0.0645,-0.6445 z m 40.3984,0.0060 c -0.0487,0.2267 -0.0980,0.4532 -0.1465,0.6797 25.4286,10.5936 50.8584,21.1868 76.5469,31.8887 4.1776,-8.9505 8.2365,-17.6481 12.5859,-26.9668 -30.0163,-1.8896 -59.5013,-3.7454 -88.9863,-5.6016 z m -25.3496,2.0137 c -0.7291,9.6532 -1.4343,18.9812 -2.1543,28.5117 h 14.5000 c -0.7296,-9.5426 -1.4363,-18.7796 -2.1641,-28.2988 -1.3498,0.2986 -2.3449,0.5196 -3.5371,0.7832 v 22.4727 c -1.1756,-0.0877 -2.0981,-0.1561 -3.1758,-0.2363 v -22.2168 c -1.1862,-0.3473 -2.1702,-0.6356 -3.4688,-1.0156 z m 22.7480,1.4570 c -0.1362,0.1935 -0.2720,0.3866 -0.4082,0.5801 20.5451,21.8856 41.0902,43.7716 61.9258,65.9668 4.8742,-10.4147 9.5702,-20.4499 14.4082,-30.7871 -25.4572,-11.9901 -50.6917,-23.8749 -75.9258,-35.7598 z m -35.3320,0.0020 c -25.2160,11.8823 -50.4313,23.7651 -75.9023,35.7676 4.7961,10.2714 9.4493,20.2340 14.3652,30.7617 20.8607,-22.2203 41.3999,-44.0966 61.9395,-65.9746 -0.1337,-0.1845 -0.2686,-0.3700 -0.4023,-0.5547 z m 2.0195,4.2031 c -20.0047,23.1758 -40.0099,46.3506 -60.1621,69.6973 5.7696,12.3218 11.4388,24.4275 17.1074,36.5332 0.2390,0.0010 0.4775,0.0050 0.7168,0.0060 14.3095,-35.2914 28.6199,-70.5836 42.9297,-105.8750 -0.1970,-0.1206 -0.3948,-0.2407 -0.5918,-0.3613 z m 31.3770,0.0781 c -0.2124,0.1108 -0.4244,0.2212 -0.6367,0.3320 14.3138,35.3230 28.6272,70.6467 43.1035,106.3711 0.5285,-0.8369 0.7801,-1.1551 0.9473,-1.5117 5.3045,-11.3320 10.5724,-22.6805 15.9316,-33.9863 0.7348,-1.5498 0.0594,-2.4124 -0.8340,-3.4473 -14.9697,-17.3391 -29.9194,-34.6947 -44.8828,-52.0391 -4.5299,-5.2507 -9.0857,-10.4794 -13.6289,-15.7188 z m -3.5859,2.3731 c -0.2189,0.0257 -0.4371,0.0522 -0.6563,0.0781 6.2361,54.4914 12.4714,108.9824 18.7773,164.0840 0.6215,-0.8168 0.8546,-1.0327 0.9785,-1.2988 7.3491,-15.7865 14.7151,-31.5641 21.9688,-47.3945 0.4700,-1.0256 0.4174,-2.5809 0.0176,-3.6738 -11.5998,-31.7016 -23.2758,-63.3737 -34.9375,-95.0527 -2.0535,-5.5786 -4.0995,-11.1620 -6.1484,-16.7422 z m -24.2852,0.2480 c -1.0078,2.7074 -2.0228,5.4104 -3.0215,8.1211 -12.6868,34.4314 -25.3855,68.8591 -37.9961,103.3184 -0.4486,1.2257 -0.4600,2.9728 0.0703,4.1387 5.1109,11.2327 10.3753,22.3959 15.6094,33.5723 2.1749,4.6440 4.3832,9.2727 6.5762,13.9082 0.2508,-0.0294 0.5011,-0.0585 0.7520,-0.0879 6.2084,-54.2597 12.4185,-108.5198 18.6270,-162.7793 -0.2056,-0.0638 -0.4114,-0.1276 -0.6172,-0.1914 z m 4.4219,26.2969 c -0.9173,12.0723 -1.8226,23.9886 -2.7422,36.0918 h 20.9277 c -0.9153,-12.1417 -1.8145,-24.0698 -2.7188,-36.0625 h -5.8965 v 31.1016 h -3.6133 V 244.3830 Z m -3.3359,43.2227 c -1.2023,15.9254 -2.3929,31.6856 -3.5977,47.6445 h 29.3340 c -1.2126,-15.9827 -2.4067,-31.7397 -3.6133,-47.6445 h -8.8105 v 42.8789 h -4.5039 v -42.8789 z m -4.1172,55.6250 c -0.1113,0.9153 -0.2382,1.7008 -0.2988,2.4922 -1.4280,18.6733 -2.8842,37.3448 -4.2129,56.0254 -0.1267,1.7818 0.1999,3.7762 0.9199,5.4063 3.1376,7.1044 6.4883,14.1149 9.7813,21.1504 2.8708,6.1335 5.7692,12.2559 8.9629,19.0371 0.7396,-1.4790 1.1913,-2.3306 1.5977,-3.2031 5.6970,-12.2319 11.3470,-24.4871 17.1191,-36.6836 0.9896,-2.0914 1.2586,-4.0931 1.0781,-6.3672 -1.4551,-18.3426 -2.8113,-36.6922 -4.2148,-55.0391 -0.0716,-0.9371 -0.2963,-1.8619 -0.4453,-2.7676 h -12.5117 c 0,3.9562 -0.0268,7.6964 0.0040,11.4375 0.1835,22.4887 0.3279,44.9776 0.6270,67.4648 0.0468,3.5126 -1.7028,6.1081 -3.0664,9.1719 -2.3862,-3.3744 -3.2392,-5.8932 -3.2070,-9.3438 0.0809,-8.6690 0.2100,-17.3371 0.2598,-26.0059 0.0922,-16.0308 0.1432,-32.0613 0.2090,-48.0918 0.0070,-1.5242 0,-3.0483 0,-4.6836 z"
       transform="matrix(0.2213,0,0,0.2213,150.3140,0)" /><path
       id="path3"
       clip-path="none"
       style="fill:#000000;fill-opacity:1;fill-rule:nonzero;stroke:none;stroke-width:0.2513"
       d="m -451.0223,6.0371 c -4.1899,0 -8.2520,-0.0117 -12.3145,0.0059 -2.9997,0.0131 -6.2401,3.2067 -6.2441,6.1699 -0.0126,9.8002 -0.0090,19.5999 0.0020,29.4004 7.6000e-4,0.7856 0.1092,1.5711 0.1836,2.5879 4.1823,0 8.1668,0.0091 12.1523,-0.0020 3.1135,-0.0085 6.3280,-3.2120 6.3320,-6.3223 0.0133,-9.8004 0.0176,-19.6019 0.0156,-29.4023 -2.5000e-4,-0.7122 -0.0725,-1.4250 -0.1270,-2.4375 z m 133.2227,0 c -4.2128,0 -8.2081,-0.1177 -12.1895,0.0703 -1.2242,0.0581 -2.5145,0.7909 -3.5899,1.4961 -2.5468,1.6702 -3.4643,4.0850 -3.0996,7.1465 0.2302,1.9336 0.1355,3.9237 0.0080,5.8770 -0.1143,1.7501 0.5103,2.8400 2.0137,3.7832 3.4427,2.1598 6.7654,4.5111 9.8281,6.5762 v 6.9746 c -1.6363,0.1093 -3.0410,0.2049 -4.6504,0.3125 -0.0832,-1.7775 -0.1502,-3.2087 -0.2226,-4.7500 h -6.7676 v 10.6797 c 4.6877,0 9.0107,0.0454 13.3320,-0.0234 1.7461,-0.0276 5.4649,-3.8183 5.4981,-5.5898 0.0699,-3.7488 0.0215,-7.5011 0.0215,-11.2793 -3.1731,-2.1553 -6.1818,-4.4336 -9.4199,-6.3164 -2.1774,-1.2661 -2.7566,-2.8290 -2.6035,-5.1934 0.2458,-3.7908 1.1753,-4.5403 4.9316,-3.3672 0.0887,1.4101 0.1789,2.8447 0.2656,4.2227 h 6.6445 z m 47.5234,0.0019 c -4.2751,0 -8.3436,-0.0137 -12.4121,0.0059 -2.9766,0.0143 -6.1864,3.2297 -6.1914,6.2324 -0.0146,9.8110 -0.0060,19.6226 0.0080,29.4336 0.0010,0.7783 0.1191,1.5558 0.1797,2.3027 h 6.7852 V 28.1836 h 4.9238 v 15.7930 h 6.7070 z m -205.5410,0.0019 c -4.3201,0 -8.4681,-0.0150 -12.6152,0.0059 -2.6581,0.0133 -6.2694,3.6391 -6.2754,6.3281 -0.0208,9.5622 -0.0168,19.1233 -0.0080,28.6855 10e-4,0.9560 0.1027,1.9119 0.1738,3.1426 3.6900,0 7.1934,-0.1604 10.6738,0.0527 2.6757,0.1639 4.6418,-0.6042 6.3906,-2.6582 1.1797,-1.3857 1.9256,-2.6650 1.8477,-4.5469 -0.1350,-3.2635 -0.0400,-6.5354 -0.0410,-9.8047 -2.5000e-4,-1.6775 0,-3.3556 0,-5.0703 h -9.3379 v 5.5938 c 0.8034,0.1583 1.4875,0.2917 2.0976,0.4121 v 9.7949 c -1.6436,0.0734 -3.1006,0.1383 -4.7773,0.2129 0,-7.7595 -0.0146,-15.1053 0.0080,-22.4512 0.0116,-3.7564 1.1353,-4.5092 4.8633,-3.2969 0.0837,1.4129 0.1686,2.8464 0.2520,4.2578 h 6.7480 z m 52.4805,0.0469 V 44.2012 c 4.2507,0 8.1625,0.0112 12.0742,-0.0039 3.0273,-0.0118 6.5116,-3.5293 6.5156,-6.5762 0.0100,-8.4157 0.0100,-16.8304 0.0060,-25.2461 -7.6000e-4,-2.0178 -2.7679,-6.1217 -4.6641,-6.2129 -4.6133,-0.2224 -9.2449,-0.0742 -13.9316,-0.0742 z m 24.8164,0.0684 V 43.9785 h 14.7207 v -5.9063 h -7.8047 V 27.9688 h 6.8242 v -5.8555 c -2.4091,-0.1088 -4.6469,-0.2098 -6.8320,-0.3086 v -9.6758 c 2.7654,-0.1254 5.3169,-0.2407 7.8066,-0.3535 V 6.1563 Z m 133.4844,0.0527 v 5.6250 c 1.8821,0.0862 3.6425,0.1678 5.8184,0.2676 v 31.9258 h 6.6934 V 12.1406 c 2.0688,-0.1282 3.8990,-0.2423 5.8887,-0.3652 V 6.2090 Z m 23.8906,0 V 44.0371 h 14.6973 v -5.9082 h -7.6680 v -10.2500 h 6.4863 v -5.7891 c -2.2842,-0.1056 -4.4413,-0.2043 -6.5332,-0.3008 v -9.8496 h 7.8086 V 6.2090 Z m -136.2813,0.0117 V 44.0469 h 6.6953 V 24.3965 c 0.2191,-0.0246 0.4391,-0.0476 0.6582,-0.0723 2.0532,6.5836 4.1065,13.1666 6.1484,19.7148 h 8.8281 V 6.2520 h -6.9023 V 25.8984 c -0.1676,0.0254 -0.3363,0.0508 -0.5039,0.0762 -2.0583,-6.6369 -4.1172,-13.2741 -6.1269,-19.7539 z m 64.7930,0.0215 v 5.7793 h 5.7578 v 32.0293 h 6.9199 V 12.0996 c 2.2279,-0.1043 3.9804,-0.1869 5.7461,-0.2695 V 6.2422 Z M -444.7371,6.2715 V 44.0293 h 14.8086 v -5.8613 h -8.0918 V 6.2715 Z m 28.2480,5.6562 c 1.6275,0.1287 2.9758,0.2342 4.5586,0.3594 v 25.5918 c -1.4724,0.1440 -2.8683,0.2819 -4.5586,0.4473 z m -41.5469,0.0527 v 26.0117 h -4.5137 v -25.8066 c 1.5953,-0.0729 2.9367,-0.1329 4.5137,-0.2051 z m 176.2207,0.2168 h 4.5059 v 9.6035 h -4.5059 z m 77.9590,43.1484 c -5.7918,-0.0538 -10.3582,2.0731 -13.8027,7.1563 -0.7218,1.0651 -1.4536,2.3936 -1.4805,3.6152 -0.1487,6.7857 -0.0325,13.5756 -0.1230,20.3633 -0.0221,1.6712 0.5517,2.6636 1.9316,3.5879 6.5228,4.3686 12.9943,8.8167 19.4219,13.3242 0.8364,0.5863 1.8444,1.6651 1.8731,2.5449 0.1706,5.2291 0.2216,10.4733 -0.0410,15.6953 -0.0591,1.1734 -1.2879,2.7754 -2.3965,3.3047 -2.0758,0.9907 -4.4587,1.3404 -7.1973,2.0898 v -19.8301 c -4.7413,0.9050 -9.0497,1.7266 -13.3457,2.5469 v 32.8438 c 0.7102,-0.0895 1.2079,-0.0961 1.6738,-0.2188 8.8532,-2.3304 17.7094,-4.6456 26.5391,-7.0625 0.8401,-0.2297 1.6877,-0.9833 2.2109,-1.7207 1.8439,-2.5993 3.5900,-5.2715 5.2793,-7.9746 0.4979,-0.7972 0.9647,-1.7845 0.9727,-2.6895 0.0734,-8.4197 0.0430,-16.8398 0.0430,-25.3184 -0.6994,-0.5149 -1.3389,-1.0145 -2.0059,-1.4727 -6.4035,-4.3995 -12.8351,-8.7567 -19.1875,-13.2285 -0.8911,-0.6275 -1.9071,-1.7716 -1.9785,-2.7422 -0.2390,-3.2532 -0.2681,-6.5556 0.0410,-9.7988 0.1023,-1.0739 1.3399,-2.7168 2.2871,-2.8965 2.2558,-0.4280 4.6476,-0.1387 7.2598,-0.1387 v 8.6016 h 13.4785 V 55.8223 c -0.5148,-0.0941 -0.7534,-0.1755 -0.9902,-0.1758 -5.9732,-0.0111 -12.0012,0.4891 -17.9063,-0.1465 -0.8777,-0.0945 -1.7292,-0.1466 -2.5566,-0.1543 z m -275.4492,0.0547 c -5.4376,0.0072 -9.7184,1.9518 -13.3027,6.5703 -1.4086,1.8152 -2.1739,3.3875 -2.1699,5.6270 0.0412,24.2080 0.0206,48.4151 0.0156,72.6230 v 2.5996 c 4.5357,1.2068 8.9056,2.3680 13.7188,3.6484 v -39.7305 c 3.4302,0.4923 6.4586,0.9278 9.6719,1.3887 v 40.9746 c 4.5694,1.2003 8.9324,2.3454 13.5000,3.5449 V 55.6367 c -6.4814,0 -12.8032,0.4494 -19.0313,-0.1230 -0.8253,-0.0759 -1.6255,-0.1143 -2.4023,-0.1133 z m 156.1992,0.3613 V 170.6660 c 4.5757,-1.1993 8.8838,-2.3276 13.4609,-3.5273 v -51.1465 c 2.8293,1.9321 5.1192,3.6069 7.5215,5.0976 1.5589,0.9670 2.1415,2.1168 2.1289,3.9941 -0.0822,12.1884 -0.0322,24.3777 -0.0156,36.5664 0.0010,0.8457 0.0823,1.6917 0.1406,2.8106 4.6769,-1.2400 8.9930,-2.3849 13.3613,-3.5430 v -43.3340 c -3.1811,-2.2515 -6.3052,-4.4636 -9.7617,-6.9101 3.4676,-2.5129 6.6810,-4.8403 9.7070,-7.0332 V 55.7617 Z m -45.1816,0.0039 c -0.1020,0.6328 -0.1992,0.9526 -0.1992,1.2715 10e-4,17.0131 -0.0110,34.0264 0.0840,51.0391 0.0050,0.8437 0.7641,1.9295 1.4922,2.4766 2.4156,1.8155 4.9207,3.5317 7.5039,5.0996 1.7986,1.0920 2.4715,2.3938 2.4609,4.5586 -0.0918,18.5670 -0.0489,37.1356 -0.0449,55.7031 2.5000e-4,1.1972 0,2.3936 0,3.8711 4.7458,-1.2674 9.1300,-2.4385 13.6172,-3.6367 v -58.6230 c 3.9650,-2.7298 7.8630,-5.4133 11.6797,-8.0410 V 55.7715 h -13.5313 c 0,1.0339 -2.5000e-4,1.9060 0,2.7793 0.0050,13.7415 -0.1884,27.4884 0.1328,41.2227 0.0975,4.1710 -1.4721,6.3611 -4.9824,7.7285 -3.4209,-1.3963 -5.0217,-3.5147 -4.9297,-7.6094 0.3124,-13.8984 0.1309,-27.8077 0.1289,-41.7129 -2.5000e-4,-0.7889 -0.0824,-1.5774 -0.1289,-2.4141 z m 112.5840,0.0078 v 96.8750 c 9.9716,-2.6652 19.6960,-5.2635 29.2539,-7.8184 v -12.1582 c -5.3308,1.3684 -10.3705,2.6618 -15.5078,3.9805 V 106.7871 c 4.4037,-0.6107 8.5878,-1.1899 12.8516,-1.7813 V 93.4414 c -4.3502,0.5461 -8.5391,1.0712 -12.8574,1.6133 V 67.1641 h 15.6270 V 55.7734 Z m -22.1191,0.0215 V 158.5742 c 4.6797,-1.2636 9.0516,-2.4435 13.3770,-3.6113 V 55.7949 Z m -234.0781,0.0156 c -2.4910,14.6003 -4.9584,29.0604 -7.4258,43.5215 -0.2234,-0.0251 -0.4465,-0.0510 -0.6699,-0.0762 -2.6493,-14.5040 -5.3001,-29.0080 -7.9336,-43.4258 h -14.1465 c 5.8868,26.5246 11.7166,52.8000 17.5586,79.1230 3.9112,0.9573 7.6032,1.8603 11.5586,2.8281 4.7812,-27.4899 9.5025,-54.6286 14.2578,-81.9707 z m 63.0117,0.0117 v 99.3086 c 9.3569,2.4875 18.4998,4.9194 27.8320,7.4004 v -12.1465 c -4.8280,-1.3292 -9.6756,-2.6639 -14.6699,-4.0391 V 55.8223 Z m 35.4023,0.0117 V 164.5527 c 4.3457,1.1588 8.5820,2.2891 13.2539,3.5352 v -52.1230 c 2.9456,2.0133 5.3077,3.7423 7.7871,5.2793 1.4322,0.8879 1.8703,1.9486 1.8613,3.6113 -0.0776,14.2286 -0.0615,28.4565 -0.0605,42.6855 2.5000e-4,1.0412 0.1078,2.0836 0.1719,3.2344 4.4671,1.1606 8.7707,2.2784 13.2988,3.4551 v -56.6895 c -3.0143,-2.1535 -6.1309,-4.3801 -9.7383,-6.9570 2.8474,-1.9638 5.3585,-3.7571 7.9375,-5.4492 1.3468,-0.8836 1.9201,-1.9028 1.9121,-3.6055 -0.0696,-14.4739 -0.0249,-28.9495 -0.0254,-43.4238 0,-0.7753 -0.1042,-1.5501 -0.1563,-2.2656 h -13.4024 c 0,1.1043 -7.5000e-4,1.9927 0,2.8809 0.0106,12.5933 0.0279,25.1860 0.0176,37.7793 -7.5000e-4,0.7864 0.0703,1.9518 -0.3828,2.2969 -2.8129,2.1439 -5.7660,4.1052 -9.2754,6.5449 V 55.8340 Z m -58.1309,11.4355 v 28.9102 c -3.2218,-0.4212 -6.2595,-0.8186 -9.5879,-1.2539 0,-2.2739 -0.0030,-4.2994 0,-6.3242 0.0080,-5.7219 -0.0060,-11.4441 0.0371,-17.1660 0.0214,-2.8609 1.3421,-4.1219 4.2324,-4.1621 1.7059,-0.0237 3.4122,-0.0039 5.3184,-0.0039 z m 162.0859,0.1816 h 9.3633 c 0.0392,0.7414 0.1152,1.5210 0.1172,2.3008 0.0199,8.9035 -0.0030,17.8077 0.0723,26.7109 0.0131,1.5411 -0.3581,2.5986 -1.7207,3.4453 -2.4832,1.5431 -4.8660,3.2478 -7.8320,5.2500 z"
       transform="matrix(0.2213,0,0,0.2213,150.3140,0)" /></g><style
     type="text/css"
     id="style1">
	.st0{fill:#4891CE;}
	.st1{fill:#C7D9EA;}
	.st2{fill:#E3173E;}
	.st3{fill:#FFFFFF;}
</style><style
     type="text/css"
     id="style1-7">
	.st0{fill:#211646;}
	.st1{fill:#B3B2B1;}
	.st2{fill:#FFFFFF;}
	.st3{fill:#D35E13;}
</style><style
     type="text/css"
     id="style1-74">
	.st0{fill:#FFFFFF;}
	.st1{fill:#F3703A;}
	.st2{fill:#FDB927;}
	.st3{fill:#002D62;}
	.st4{fill:#FFE0A8;}
	.st5{fill:#BF2F38;}
</style></svg>
