<svg
  
  
   viewBox="0 0 140.3140 110.6577"
   version="1.1000"
   id="svg1"
   xml:space="preserve"
   sodipodi:docname="group-team-logo-doc.svg"
   inkscape:version="1.4000.2 (2aeb623e1d, 2025-05-12)"
   xmlns:inkscape="http://www.inkscape.org/namespaces/inkscape"
   xmlns:sodipodi="http://sodipodi.sourceforge.net/DTD/sodipodi-0.dtd"
   xmlns="http://www.w3.org/2000/svg"
   xmlns:svg="http://www.w3.org/2000/svg"><sodipodi:namedview
     id="namedview1"
     pagecolor="#ffffff"
     bordercolor="#000000"
     borderopacity="0.2500"
     inkscape:showpageshadow="2"
     inkscape:pageopacity="0.0000"
     inkscape:pagecheckerboard="0"
     inkscape:deskcolor="#d1d1d1"
     inkscape:document-units="px"
     inkscape:zoom="0.6988"
     inkscape:cx="286.2197"
     inkscape:cy="135.2388"
     inkscape:window-width="1854"
     inkscape:window-height="1011"
     inkscape:window-x="0"
     inkscape:window-y="0"
     inkscape:window-maximized="1"
     inkscape:current-layer="layer5"
     showgrid="false"><inkscape:page
       x="0"
       y="0"
      
      
       id="page2"
       margin="0"
       bleed="0" /><inkscape:grid
       id="grid5"
       units="px"
       originx="0"
       originy="0"
       spacingx="0.2213"
       spacingy="0.2213"
       empcolor="#0099e5"
       empopacity="0.3020"
       color="#0099e5"
       opacity="0.1490"
       empspacing="5"
       enabled="true"
       visible="false" /></sodipodi:namedview><defs
     id="defs1"></defs><g
     inkscape:groupmode="layer"
     id="layer5"
     inkscape:label="new-york-liberty"
     style="fill:#bb0c2f;fill-opacity:1.0000"><path
       class="fil0"
       d="m 63.1671,51.0779 c 3.9782,-1.2048 0.0683,7.0012 -5.0921,6.5239 0.6822,-2.6822 2.5235,-5.7511 5.0921,-6.5239 z"
       id="path1-9"
       style="clip-rule:evenodd;fill:#ffffff;fill-rule:evenodd;stroke-width:0.6041;image-rendering:optimizeQuality;shape-rendering:geometricPrecision;text-rendering:geometricPrecision" /><path
       class="fil1"
       d="m 125.2711,45.0312 c -0.7301,-1.8190 -2.5444,-2.9644 -4.5006,-2.8417 h -0.5915 c 0.8586,-2.0172 0.6002,-4.3364 -0.6815,-6.1147 -0.7913,-1.0588 -1.9099,-1.8260 -3.1822,-2.1825 -4.1723,-9.5023 -11.0191,-17.5861 -19.7053,-23.2649 -8.6859,-5.6788 -18.8367,-8.7082 -29.2147,-8.7191 -29.4607,0 -53.4207,23.9827 -53.4207,53.4432 -0.0128,6.1309 1.0490,12.2168 3.1373,17.9812 -0.6947,1.4658 -1.0742,3.0611 -1.1139,4.6827 0.0233,3.0849 1.2942,6.0287 3.5234,8.1611 1.8946,1.8379 4.3209,3.0313 6.9333,3.4099 8.8525,10.5941 21.4637,17.3490 35.1884,18.8476 13.7246,1.4986 27.4964,-2.3759 38.4261,-10.8102 10.9307,-8.4343 18.1701,-20.7737 20.2013,-34.4295 3.5026,-2.7153 5.6913,-6.7873 6.0235,-11.2069 0.0228,-0.4318 0.0455,-0.8184 0.0455,-1.1821 -0.0020,-1.9734 -0.3650,-3.9298 -1.0686,-5.7738 z"
       id="path2-5"
       style="clip-rule:evenodd;fill:#041e43;fill-opacity:1;fill-rule:evenodd;stroke-width:0.6041;image-rendering:optimizeQuality;shape-rendering:geometricPrecision;text-rendering:geometricPrecision" /><path
       id="path3-0"
       style="clip-rule:evenodd;fill:#ffcc00;fill-opacity:1;fill-rule:evenodd;stroke-width:0.6041;image-rendering:optimizeQuality;shape-rendering:geometricPrecision;text-rendering:geometricPrecision"
       class="fil2"
       d="m 69.6063,6.1173 c -11.9946,-0.5385 -23.9331,3.3227 -33.4359,11.1077 -12.6700,10.3799 -19.3538,26.3776 -17.8332,42.6862 1.5203,16.3084 11.0460,30.7954 25.4167,38.6541 2.7719,3.7336 7.1480,5.9342 11.7980,5.9332 1.3215,0.0110 2.6380,-0.1650 3.9102,-0.5230 2.6215,0.4384 5.2751,0.6592 7.9332,0.6592 13.0650,-0.0181 25.5901,-5.2162 34.8287,-14.4547 9.2385,-9.2385 14.4371,-21.7635 14.4551,-34.8287 0,-0.5226 -1.1000e-4,-1.0682 -0.0229,-1.5911 h -2.4250 c 0.0218,0.5304 0.0380,1.0607 0.0380,1.5911 0.0329,16.1895 -8.3117,31.2439 -22.0581,39.7957 -13.7468,8.5518 -30.9391,9.3836 -45.4470,2.1993 -14.5083,-7.1842 -24.2677,-21.3621 -25.7984,-37.4788 -1.5310,-16.1170 5.3843,-31.8796 18.2806,-41.6665 12.8959,-9.7869 29.9376,-12.2065 45.0481,-6.3961 13.1420,5.0540 23.1973,15.7078 27.5780,28.8618 h 2.5559 c -4.8775,-15.6366 -17.2066,-27.8261 -32.8969,-32.5264 -3.9226,-1.1749 -7.9269,-1.8435 -11.9251,-2.0230 z" /><path
       class="fil3"
       d="m 111.2687,52.0780 v -5.3420 h 2.1818 c -3.0153,-15.9059 -14.0453,-29.1201 -29.1561,-34.9312 -15.1104,-5.8104 -32.1521,-3.3905 -45.0480,6.3964 -12.8962,9.7869 -19.8116,25.5493 -18.2806,41.6663 1.5307,16.1168 11.2901,30.2948 25.7984,37.4791 14.5080,7.1842 31.7001,6.3522 45.4468,-2.1996 13.7463,-8.5518 22.0910,-23.6061 22.0581,-39.7956 0,-1.0913 -0.0682,-2.1822 -0.1137,-3.2734 z"
       id="path4-48"
       style="clip-rule:evenodd;fill:#c6102e;fill-opacity:1;fill-rule:evenodd;stroke:#c6102e;stroke-width:0.0664;stroke-dasharray:none;stroke-opacity:1;image-rendering:optimizeQuality;shape-rendering:geometricPrecision;text-rendering:geometricPrecision" /><path
       class="fil1"
       d="m 67.3953,10.1369 c -11.9872,0.0030 -23.4822,4.7677 -31.9573,13.2456 -8.4746,8.4772 -13.2352,19.9741 -13.2341,31.9612 0.0010,11.9874 4.7631,23.4834 13.2397,31.9596 8.4761,8.4763 19.9721,13.2387 31.9594,13.2396 11.9872,10e-4 23.4839,-4.7594 31.9613,-13.2340 8.4779,-8.4751 13.2425,-19.9701 13.2449,-31.9575 -0.0102,-11.9883 -4.7772,-23.4828 -13.2535,-31.9603 -8.4773,-8.4771 -19.9718,-13.2433 -31.9603,-13.2543 z"
       id="path5"
       style="clip-rule:evenodd;fill:#041e43;fill-opacity:1;fill-rule:evenodd;stroke-width:0.6041;image-rendering:optimizeQuality;shape-rendering:geometricPrecision;text-rendering:geometricPrecision" /><path
       class="fil3"
       d="m 37.4572,45.5994 c 3.0184,-9.2554 10.1470,-16.5953 19.3109,-19.8823 9.1635,-3.2872 19.3320,-2.1520 27.5452,3.0740 8.2136,5.2268 13.5485,13.9575 14.4525,23.6507 h 1.6819 c -0.9157,-10.2908 -6.5727,-19.5673 -15.3029,-25.0922 -8.7301,-5.5245 -19.5357,-6.6667 -29.2276,-3.0889 -9.6921,3.5777 -17.1640,11.4667 -20.2104,21.3387 z m 29.9381,41.2360 v 0 c -7.2253,0.0020 -14.2287,-2.4962 -19.8223,-7.0698 h -2.5460 c 8.3172,7.6392 19.9526,10.5148 30.8708,7.6300 10.9178,-2.8847 19.6146,-11.1327 23.0725,-21.8829 h -1.7728 c -2.1262,6.2166 -6.1408,11.6141 -11.4841,15.4371 -5.3436,3.8231 -11.7478,5.8809 -18.3181,5.8856 z"
       id="path6-7"
       style="clip-rule:evenodd;fill:#c6102e;fill-opacity:1;fill-rule:evenodd;stroke-width:0.6041;image-rendering:optimizeQuality;shape-rendering:geometricPrecision;text-rendering:geometricPrecision" /><path
       class="fil2"
       d="m 96.3560,32.5283 -0.5907,1.0912 1.1814,1.4092 3.5237,-6.3192 -1.2503,-1.4775 -6.8421,2.3870 1.1821,1.4316 1.2048,-0.4093 1.5911,1.8869 z m 0.7278,-1.2503 v 0 l -0.9549,-1.1137 2.1370,-0.8415 0.0227,0.0228 -1.2048,1.9324 z m -11.3438,-14.4572 v 0 l 1.5003,0.8861 0.7275,5.1828 2.0916,-3.5691 1.5229,0.8868 -3.3872,5.8652 -1.5231,-0.9095 -0.7047,-5.1829 -2.0913,3.5691 -1.5004,-0.8640 3.3643,-5.8645 z m -10.7295,2.3862 v 0 l 0.2273,1.2511 1.8413,0.3181 -1.3411,-7.1155 -1.8869,-0.3408 -3.7508,6.2288 1.8413,0.3407 0.6594,-1.0912 2.4095,0.4089 z m -0.2047,-1.4093 v 0 l -1.4321,-0.2499 1.0912,-2.0000 h 0.0227 z m -10.2976,1.8872 v 0 l -1.7503,0.2044 -0.7047,-6.7513 1.7503,-0.1817 z m -13.0254,3.5229 v 0 l 2.3187,-0.9087 c 0.8452,-0.3306 1.5240,-0.9840 1.8866,-1.8151 0.3626,-0.8320 0.3789,-1.7736 0.0456,-2.6181 -0.3321,-0.8414 -0.9912,-1.5120 -1.8266,-1.8590 -0.8355,-0.3471 -1.7759,-0.3408 -2.6063,0.0180 l -2.3187,0.9323 2.5007,6.2507 z m -0.3182,-5.5691 v 0 l 0.3865,-0.1591 c 0.4636,-0.2256 1.0016,-0.2436 1.4792,-0.0478 0.4774,0.1951 0.8489,0.5844 1.0212,1.0709 0.2258,0.4724 0.2356,1.0192 0.0260,1.4994 -0.2094,0.4802 -0.6173,0.8453 -1.1173,1.0012 l -0.3634,0.1363 z m -14.4805,8.1152 v 0 l 1.3187,-1.1813 5.1828,0.9542 -2.7507,-3.1139 1.3187,-1.1595 4.5008,5.0694 -1.3184,1.1821 -5.1829,-1.0004 v 0.0227 l 2.7504,3.0921 -1.3183,1.1815 -4.5012,-5.0467 z m -5.9330,8.0020 v 0 l 0.9092,-1.5000 5.7512,3.5686 -0.9092,1.4778 z"
       id="path7-1"
       style="clip-rule:evenodd;fill:#ffcc00;fill-opacity:1;fill-rule:evenodd;stroke-width:0.6041;image-rendering:optimizeQuality;shape-rendering:geometricPrecision;text-rendering:geometricPrecision" /><path
       class="fil0"
       d="m 40.7762,56.2835 c -0.5912,0.1817 -1.2959,0.3864 -1.4776,0.4547 0.5518,-1.1301 0.8096,-2.3810 0.7500,-3.6372 -0.0900,-1.5894 -0.6969,-3.1061 -1.7275,-4.3190 -0.4167,-0.5239 -1.1016,-0.7552 -1.7504,-0.5913 -0.6435,0.1781 -1.1290,0.7078 -1.2503,1.3643 -0.0907,0.4146 -0.3339,0.7797 -0.6820,1.0227 -0.3387,0.2537 -0.7619,0.3675 -1.1820,0.3182 -0.2268,9e-4 -0.4321,-0.1331 -0.5230,-0.3409 -0.1818,-0.3183 -0.0454,-1.0913 0.6139,-1.7048 l 0.0682,-0.0683 c 0.0453,-0.0227 3.2278,-3.0690 12.8210,-3.6599 -2.1369,2.1369 -4.2056,5.5694 -5.6604,11.1614 z m 81.8126,-10.1614 v 0 c -0.2648,-0.6766 -0.9338,-1.1072 -1.6592,-1.0683 h -1.1821 c -0.4356,0.0679 -0.8282,0.3049 -1.0913,0.6591 -0.6589,1.2503 -3.7275,5.0012 -5.0240,4.3421 -1.4094,-0.7500 2.8194,-7.1607 2.8194,-7.1607 1.0231,-1.2503 1.3177,-2.3187 1.3177,-3.1826 0.0080,-0.6824 -0.1991,-1.3501 -0.5907,-1.9095 -1.0528,-1.2800 -2.8350,-1.6908 -4.3416,-1.0000 -0.6165,0.1676 -1.2660,0.1756 -1.8872,0.0227 -0.1818,-1.3639 -0.7724,-3.1143 -2.2498,-3.8872 -0.5915,-0.3183 -1.7509,-0.6818 -3.3192,0.1821 -1.0184,0.5875 -1.6946,1.6267 -1.8183,2.7960 -0.0196,0.1660 -0.0274,0.3329 -0.0227,0.5000 0.0297,1.3101 0.5679,2.5571 1.5002,3.4782 0.0579,0.0468 0.1121,0.1003 0.1590,0.1591 -0.4771,1.1386 -1.0239,2.2471 -1.6365,3.3187 0.0227,-0.2500 0.0454,-0.5000 0.0454,-0.7500 0.0596,-1.1656 -0.4277,-2.2924 -1.3184,-3.0461 -1.7282,-1.4551 -3.9780,-1.2051 -5.0694,-0.8186 -2.7277,0.8865 -8.2520,3.9329 -10.3433,9.7067 0.4317,-1.6595 0.2500,-2.7733 -0.0909,-3.5234 -0.2335,-0.5217 -0.6224,-0.9588 -1.1139,-1.2504 -0.8865,-0.5683 -1.9777,-0.6365 -3.2508,-0.2274 -3.0460,1.0003 -4.2055,4.7286 -4.2055,4.7286 -1.4774,3.7961 0.3409,6.2286 0.3409,6.2286 -0.0680,0.1817 -1.4321,2.1594 -1.4321,2.1594 l -0.7728,-7.5015 c -0.0504,-0.8602 -0.4951,-1.6488 -1.2048,-2.1369 -0.6676,-0.4318 -1.4942,-0.5405 -2.2506,-0.2957 l -4.3417,1.4096 c -0.7029,0.2102 -1.1836,0.8577 -1.1821,1.5912 v 1.7505 c -0.1414,-0.1759 -0.3015,-0.3360 -0.4774,-0.4774 -1.7277,-1.4321 -3.9781,-1.1821 -5.0465,-0.8183 -2.1751,0.7415 -4.1887,1.8908 -5.9332,3.3870 -0.0680,-0.3115 -0.2261,-0.5958 -0.4545,-0.8183 -0.4519,-0.4529 -1.1209,-0.6114 -1.7277,-0.4092 0,0 -2.6825,0.8866 -5.0012,1.6366 0.9321,-3.2508 2.4099,-6.2059 5.2512,-7.8425 0.5233,-0.3191 0.8419,-0.8877 0.8412,-1.5003 v -0.0909 c 5.9586,-1.3688 10.5440,-6.1321 11.6842,-12.1388 0.0658,-0.5101 -0.0915,-1.0240 -0.4319,-1.4095 -0.3598,-0.3651 -0.8513,-0.5699 -1.3638,-0.5684 l -0.8187,0.0682 c -0.5505,0.0302 -1.0551,0.3160 -1.3640,0.7729 -2.5004,3.9100 -8.2742,5.0012 -14.9805,6.2516 -4.4099,0.8409 -8.9563,1.6822 -13.2298,3.4778 -11.8892,4.8876 -11.3435,12.3893 -11.2297,13.2531 0.2727,4.2964 4.2509,7.5468 8.8882,7.3195 0.8290,-0.0610 1.6467,-0.2292 2.4325,-0.5000 -0.3846,1.3997 -0.1529,2.8967 0.6365,4.1146 0.4119,0.6843 1.2355,1.0022 2.0003,0.7728 l 1.6822,-0.5226 c -2.3186,8.8202 -4.1600,10.6159 -4.2282,10.7068 -0.7955,0.7503 -2.2733,1.1594 -2.9780,0.7503 -0.2535,-0.1384 -0.4352,-0.3782 -0.5000,-0.6594 -0.0439,-0.3569 0.0727,-0.7148 0.3182,-0.9775 0.3865,-0.4431 0.9186,-0.7335 1.5004,-0.8183 0.6980,-0.1205 1.2543,-0.6500 1.4095,-1.3413 0.1506,-0.6968 -0.1490,-1.4135 -0.7503,-1.7960 -1.5243,-0.9732 -3.2841,-1.5151 -5.0921,-1.5682 -2.5812,-0.1185 -5.1000,0.8167 -6.9786,2.5913 -1.5837,1.5297 -2.5057,3.6186 -2.5686,5.8194 0,4.6373 4.0234,8.5928 9.0928,8.7973 2.0723,0.1665 4.1541,-0.1689 6.0695,-0.9775 2.9324,-1.1821 6.9785,-3.9781 9.4563,-10.5703 1.9779,-4.4101 2.8190,-9.1384 3.6147,-13.7304 l 0.1361,-0.7500 c 0.8414,-0.2501 2.8191,-0.8639 4.3421,-1.3865 -0.5467,1.4689 -0.8240,3.0243 -0.8182,4.5917 0,0.4091 0.0227,0.8413 0.0683,1.2956 0.0453,0.4094 0.4773,3.8872 3.2733,5.4785 0.3648,0.2127 0.7541,0.3807 1.1592,0.5000 -12.0706,5.0468 -14.6167,11.0480 -14.7758,11.4118 -0.0909,0.1998 -0.1373,0.4167 -0.1365,0.6362 -0.0060,0.4535 0.1751,0.8893 0.5000,1.2051 l 1.8413,1.8413 0.1365,0.1362 c -0.2833,1.0916 -0.4284,2.2144 -0.4317,3.3417 0.0070,7.2577 5.8928,13.1375 13.1505,13.1375 7.2576,0 13.1432,-5.8798 13.1506,-13.1375 0.0050,-1.8507 -0.3911,-3.6807 -1.1595,-5.3647 0.2923,-0.0924 0.5523,-0.2660 0.7499,-0.5000 l 0.5457,-0.6365 c 0.3995,-0.5291 0.4860,-1.2311 0.2275,-1.8413 -0.0948,-0.4553 -0.0050,-0.9297 0.2500,-1.3186 0.9776,-1.7048 5.4102,-6.0921 25.6420,-9.6385 8.7975,-1.6822 16.3894,-4.5917 21.9366,-8.4790 4.9557,-3.2281 6.2514,-7.3880 6.4787,-10.2975 0.1747,-1.9285 -0.0901,-3.8714 -0.7732,-5.6833 z"
       id="path8-7"
       style="clip-rule:evenodd;fill:#ffffff;fill-rule:evenodd;stroke-width:0.6041;image-rendering:optimizeQuality;shape-rendering:geometricPrecision;text-rendering:geometricPrecision" /><path
       class="fil1"
       d="m 108.6318,55.5105 c -1.5174,-0.6958 -2.6494,-2.0273 -3.0920,-3.6369 -0.1269,-0.4379 -0.2108,-0.8872 -0.2500,-1.3412 -1.6671,2.5392 -3.6789,4.8345 -5.9788,6.8193 -1.2291,1.0361 -2.6189,1.8651 -4.1143,2.4551 -2.7959,0.9774 -4.7282,0.3865 -5.8194,-0.3182 -1.2455,-0.8349 -2.1804,-2.0573 -2.6596,-3.4782 -1.0233,0.4217 -2.0909,0.7268 -3.1826,0.9095 -1.8586,3.5287 -4.4748,6.6028 -7.6607,9.0020 2.6596,-0.4092 5.5012,-0.7274 8.5473,-0.9775 15.4580,-1.3412 24.1418,-5.5011 28.6651,-8.7519 0.1058,-0.0743 0.2045,-0.1582 0.2954,-0.2500 -1.5871,0.3923 -3.2604,0.2402 -4.7504,-0.4321 z m -44.4644,12.7527 v 0 c 2.1736,-1.8844 4.0715,-4.0653 5.6377,-6.4786 0.0909,0.9322 0.3634,4.2509 0.4317,5.0465 -3.0916,0.6821 -6.0694,1.4321 -6.0694,1.4321 z"
       id="path9"
       style="clip-rule:evenodd;fill:#041e43;fill-opacity:1;fill-rule:evenodd;stroke-width:0.6041;image-rendering:optimizeQuality;shape-rendering:geometricPrecision;text-rendering:geometricPrecision" /><path
       class="fil3"
       d="m 81.5573,52.1918 c -0.1808,-0.2341 -0.2768,-0.5226 -0.2726,-0.8186 -0.0979,-0.6910 0.0129,-1.3955 0.3182,-2.0230 0.1852,-0.4860 0.5297,-0.8948 0.9774,-1.1595 0,0 0.2273,-0.1361 0.3635,-0.0679 0.1591,0.0679 0.1591,0.2953 0.1591,0.2953 -0.0679,0.7503 -0.8183,2.1826 -1.5457,3.7738 z m -18.5721,1.5913 v 0 c 4.0690,-1.2278 0.0456,7.2059 -5.2512,6.7284 0.6822,-2.8186 2.6143,-5.9328 5.2512,-6.7284 z m 35.4162,-11.3206 v 0 c 4.0924,-1.2277 0.0689,7.2059 -5.2276,6.7285 0.6815,-2.8187 2.6134,-5.9103 5.2276,-6.7285 z m 22.6189,4.2961 v 0 h -1.0232 c -1.5002,2.5916 -5.0011,6.1606 -7.4328,4.6829 -2.9784,-1.7505 2.4998,-9.5476 2.4998,-9.5476 2.3423,-2.7730 0.1370,-4.2735 -1.5456,-3.5688 -1.6819,0.7273 -4.1371,-0.2273 -4.1371,-0.2273 0,0 -0.0909,-5.1147 -3.0913,-3.5235 -1.6137,0.8184 -1.1594,3.0005 -0.0227,4.0918 0.2961,0.2880 0.6533,0.5056 1.0451,0.6365 -1.0678,3.3190 -3.3412,6.7515 -4.1371,7.8880 0,0 -5.1602,6.9333 -8.5468,6.7060 -1.3186,-0.0683 -1.8190,-1.4321 -1.6828,-3.2281 2.2734,0.2503 4.6377,-0.7274 6.5468,-2.7731 0.6290,-0.6840 1.1641,-1.4484 1.5918,-2.2733 0.1591,-0.2274 1.7729,-3.4099 0.1591,-4.7509 -1.4774,-1.2277 -3.4328,-0.5003 -3.4328,-0.5003 -2.9096,0.9547 -7.4105,3.8420 -9.2066,8.3428 -0.3514,0.9330 -0.5582,1.9141 -0.6135,2.9096 -1.0004,0.5230 -3.2734,1.7277 -4.7512,1.6825 1.2956,-2.3643 2.3414,-5.6833 2.1595,-7.0925 -0.1591,-1.1595 -1.1138,-1.5460 -2.3412,-1.1595 -1.2959,0.4321 -2.2734,1.4321 -2.9781,3.0234 -0.5909,1.3639 -0.8865,2.6596 -0.6591,3.9100 0.1551,0.8580 0.5764,1.6457 1.2047,2.2503 -1.3220,2.3594 -2.9248,4.5500 -4.7738,6.5242 l -1.2048,-11.5480 c -0.1361,-1.3183 -1.2274,-0.9774 -1.2274,-0.9774 l -4.3419,1.3865 v 1.0687 l 0.3865,-0.1365 c 0.2282,-0.0848 0.4832,-0.0552 0.6853,0.0798 0.2027,0.1353 0.3281,0.3590 0.3376,0.6023 l 0.2047,2.2048 c -0.8411,1.5459 -6.9106,12.5483 -11.5025,11.7754 -1.2957,-0.2048 -1.8184,-1.4322 -1.6822,-3.2052 2.2734,0.2273 4.6376,-0.7275 6.5468,-2.7734 0.6240,-0.6879 1.1586,-1.4517 1.5913,-2.2730 0.1592,-0.2504 1.7505,-3.4325 0.1365,-4.7511 -1.4548,-1.2048 -3.4099,-0.5230 -3.4099,-0.5230 -3.9098,1.2959 -10.5476,5.6603 -9.8428,13.4575 0,0 0.7273,6.9559 7.4788,3.8647 0,0 5.3422,-1.9095 11.0024,-12.4346 l 1.0230,9.8202 c 3.3414,-1.7051 7.3425,-5.0010 10.4567,-11.0932 1.0910,0 2.6369,-0.3183 5.4556,-1.6821 -10e-4,0.0613 0.0060,0.1227 0.0227,0.1818 0,0 0.7047,6.5468 6.6836,4.4098 1.2996,-0.5331 2.5107,-1.2614 3.5911,-2.1595 2.5718,-2.2360 4.7598,-4.8774 6.4786,-7.8198 1.3020,-2.2164 2.4864,-4.5005 3.5465,-6.8425 0.5515,0.1564 1.1140,0.2702 1.6827,0.3413 -2.0008,3.3187 -5.2057,9.8885 -0.5233,12.2297 0,0 3.4328,1.9321 8.4113,-2.1142 -0.3188,3.4099 -3.7282,5.7285 -3.7282,5.7285 -5.6608,4.0237 -15.0491,7.7972 -29.4841,9.0246 -37.1439,3.1825 -42.5316,16.6856 -42.5316,16.6856 l 1.3864,1.3865 c 1.8839,-4.3787 5.9829,-7.4008 10.7230,-7.9049 4.7398,-0.5043 9.3833,1.5879 12.1457,5.4726 0.2538,0.1989 0.4964,0.4115 0.7275,0.6365 l 0.5455,-0.6365 c 0,0 -4.4782,-7.8654 27.1424,-13.3666 9.4791,-1.8185 16.4583,-4.8193 21.2997,-8.1836 8.3886,-5.5237 4.9557,-13.9348 4.9557,-13.9348 z m -67.8553,10.4114 v 0 l -7.4562,2.3186 c -0.9092,4.9555 -1.6593,10.3659 -3.8187,15.1622 -4.3877,11.6389 -13.7532,10.4797 -13.7532,10.4797 -4.2282,-0.1365 -7.6152,-3.3190 -7.5699,-7.1380 0.0456,-3.8191 3.5464,-6.8195 7.7746,-6.6833 1.5075,0.0218 2.9794,0.4627 4.2508,1.2731 -0.9907,0.1475 -1.8951,0.6479 -2.5460,1.4095 -1.2048,1.4548 -0.9091,3.3418 0.6365,4.2282 1.4548,0.7956 3.6826,0.2047 4.9330,-0.9774 0,0 2.7733,-1.8869 5.9102,-16.4809 l -2.8416,0.9094 c -1.8639,0.5909 -1.5231,1.9092 -1.3864,2.2504 l -0.7501,0.2273 c -2.3868,-4.0464 3.2052,-5.7742 3.2052,-5.7742 l 2.4548,-0.7500 c 2.7281,-11.6163 8.1384,-13.7075 10.8662,-14.0257 l 0.0683,0.9091 c -4.0921,2.3643 -5.7286,6.7515 -6.8198,11.9344 l 7.9107,-2.6142 -1.0683,3.3417 z m -21.2773,2.5686 v 0 c 3.7508,-0.2044 6.6377,-3.1142 6.4332,-6.5011 -0.0689,-1.2335 -0.5309,-2.4126 -1.3187,-3.3644 -0.1634,0.8489 -0.6426,1.6045 -1.3412,2.1140 -1.4092,1.0229 -3.2734,0.8412 -4.1599,-0.3636 -0.8184,-1.0911 -0.2727,-2.9555 0.8865,-4.0011 0.1139,-0.1362 4.1600,-4.2053 17.0039,-4.2509 13.8211,-0.0683 15.4124,-11.3433 15.4124,-11.3433 l -0.8413,0.0682 c -4.6599,7.3196 -18.1627,5.8874 -29.0289,10.3430 -11.2298,4.6376 -10.1611,11.5027 -10.1611,11.5027 0.2044,3.3868 3.3642,5.9784 7.1151,5.7964 z"
       id="path10"
       style="clip-rule:evenodd;fill:#c6102e;fill-opacity:1;fill-rule:evenodd;stroke-width:0.6041;image-rendering:optimizeQuality;shape-rendering:geometricPrecision;text-rendering:geometricPrecision" /><path
       class="fil1"
       d="m 43.8448,89.8361 c 0,-4.7352 2.8523,-9.0040 7.2271,-10.8160 4.3745,-1.8119 9.4099,-0.8103 12.7582,2.5377 3.3482,3.3482 4.3498,8.3835 2.5379,12.7583 -1.8122,4.3748 -6.0811,7.2271 -10.8162,7.2271 -3.1050,3.6000e-4 -6.0831,-1.2329 -8.2787,-3.4286 -2.1957,-2.1953 -3.4289,-5.1735 -3.4283,-8.2785 z"
       id="path11"
       style="clip-rule:evenodd;fill:#041e43;fill-opacity:1;fill-rule:evenodd;stroke-width:0.6041;image-rendering:optimizeQuality;shape-rendering:geometricPrecision;text-rendering:geometricPrecision" /><path
       class="fil0"
       d="m 49.0734,87.1992 c 0.1817,2.0004 0.3408,3.8417 -0.4774,5.3874 0.5325,0.4935 1.1108,0.9352 1.7274,1.3186 1.3758,-5.4228 4.4023,-10.2842 8.6611,-13.9122 -3.0572,-1.0373 -6.4202,-0.6276 -9.1385,1.1139 -0.4955,0.7635 -0.7924,1.6387 -0.8639,2.5460 -0.0939,1.1821 -0.0636,2.3707 0.0912,3.5463 z m -2.2734,6.3651 v 0 c 0.5331,-0.1129 0.9899,-0.4535 1.2505,-0.9321 -1.5231,-1.5461 -2.0235,-3.2052 -2.6600,-5.3877 -0.5272,2.0699 -0.4082,4.2515 0.3412,6.2515 0.3448,0.1114 0.7122,0.1350 1.0683,0.0683 z m 17.0719,-10.0023 v 0 c 2.5139,3.3233 2.8261,7.8183 0.7957,11.4571 -0.3450,0.5609 -0.7247,1.1001 -1.1366,1.6140 -0.0909,0.0227 -0.2273,0.0683 -0.3638,0.0909 -2.2503,0.5230 -5.9329,0.0227 -9.0928,-1.0682 0.6821,-1.3640 2.5007,-2.0687 4.4329,-2.7508 1.1867,-0.3871 2.3293,-0.8975 3.4098,-1.5230 1.2908,-0.7626 2.1868,-2.0482 2.4548,-3.5235 0.2002,-1.4514 0.0283,-2.9297 -0.5000,-4.2964 z m -10.2294,14.5714 v 0 c -0.3267,-0.6983 -0.3758,-1.4948 -0.1365,-2.2277 -1.0153,-0.3678 -1.9968,-0.8245 -2.9324,-1.3639 -0.2890,1.4203 -0.3960,2.8716 -0.3182,4.3190 0.0455,0.0227 0.1138,0.0683 0.1591,0.0909 1.5629,0.8990 3.3350,1.3697 5.1376,1.3639 -0.8041,-0.5615 -1.4596,-1.3107 -1.9095,-2.1822 z"
       id="path12"
       style="clip-rule:evenodd;fill:#ffffff;fill-rule:evenodd;stroke-width:0.6041;image-rendering:optimizeQuality;shape-rendering:geometricPrecision;text-rendering:geometricPrecision" /><path
       class="fil3"
       d="m 48.2778,92.2457 c 0.6591,-1.4095 0.5226,-3.1826 0.3409,-5.0465 -0.1215,-1.2007 -0.1518,-2.4092 -0.0909,-3.6145 0.0500,-0.6613 0.2194,-1.3083 0.5000,-1.9095 -1.0606,0.8302 -1.9420,1.8663 -2.5916,3.0463 -0.3179,0.5547 -0.5771,1.1415 -0.7727,1.7504 l 0.0909,0.4774 c 0.6366,2.2048 1.0913,3.8187 2.5234,5.2965 z m 2.4096,1.8869 v 0 c 0.9443,0.5505 1.9327,1.0221 2.9551,1.4092 0.7501,-1.5682 2.6823,-2.2503 4.6830,-3.0233 1.1631,-0.3911 2.2888,-0.8856 3.3642,-1.4774 1.1822,-0.7253 2.0065,-1.9125 2.2731,-3.2734 0.3182,-1.7504 -0.2727,-3.6826 -0.9774,-5.2512 -0.6830,-0.7001 -1.4640,-1.2975 -2.3188,-1.7730 -0.4009,-0.2292 -0.8189,-0.4266 -1.2503,-0.5913 -4.3239,3.6119 -7.3819,8.5099 -8.7289,13.9805 z m 3.1825,1.9322 v 0 c -0.1808,0.6252 -0.1326,1.2941 0.1362,1.8869 0.5293,0.9603 1.3064,1.7608 2.2506,2.3187 2.5402,-0.1678 4.9287,-1.2688 6.7061,-3.0917 -2.2961,0.4775 -5.9333,-0.0227 -9.0929,-1.1139 z m -3.6826,-1.7504 v 0 c -0.6560,-0.3932 -1.2660,-0.8580 -1.8186,-1.3865 -0.3431,0.5368 -0.8811,0.9199 -1.5005,1.0684 -0.3091,0.0455 -0.6230,0.0455 -0.9321,0 0.8057,1.8859 2.1600,3.4858 3.8871,4.5920 -0.0724,-1.4345 0.0500,-2.8722 0.3639,-4.2738 z"
       id="path13"
       style="clip-rule:evenodd;fill:#c6102e;fill-opacity:1;fill-rule:evenodd;stroke-width:0.6041;image-rendering:optimizeQuality;shape-rendering:geometricPrecision;text-rendering:geometricPrecision" /></g><style
     type="text/css"
     id="style1">
	.st0{fill:#4891CE;}
	.st1{fill:#C7D9EA;}
	.st2{fill:#E3173E;}
	.st3{fill:#FFFFFF;}
</style><style
     type="text/css"
     id="style1-7">
	.st0{fill:#211646;}
	.st1{fill:#B3B2B1;}
	.st2{fill:#FFFFFF;}
	.st3{fill:#D35E13;}
</style></svg>
