<svg
  
  
   viewBox="0 0 140.3140 110.6577"
   version="1.1000"
   id="svg1"
   xml:space="preserve"
   sodipodi:docname="group-team-logo-doc.svg"
   inkscape:version="1.4000.2 (2aeb623e1d, 2025-05-12)"
   xmlns:inkscape="http://www.inkscape.org/namespaces/inkscape"
   xmlns:sodipodi="http://sodipodi.sourceforge.net/DTD/sodipodi-0.dtd"
   xmlns="http://www.w3.org/2000/svg"
   xmlns:svg="http://www.w3.org/2000/svg"><sodipodi:namedview
     id="namedview1"
     pagecolor="#ffffff"
     bordercolor="#000000"
     borderopacity="0.2500"
     inkscape:showpageshadow="2"
     inkscape:pageopacity="0.0000"
     inkscape:pagecheckerboard="0"
     inkscape:deskcolor="#d1d1d1"
     inkscape:document-units="px"
     inkscape:zoom="0.7790"
     inkscape:cx="129.6584"
     inkscape:cy="283.0661"
     inkscape:window-width="1854"
     inkscape:window-height="1011"
     inkscape:window-x="0"
     inkscape:window-y="0"
     inkscape:window-maximized="1"
     inkscape:current-layer="layer5"
     showgrid="false"><inkscape:page
       x="0"
       y="0"
      
      
       id="page2"
       margin="0"
       bleed="0" /><inkscape:grid
       id="grid5"
       units="px"
       originx="0"
       originy="0"
       spacingx="0.2213"
       spacingy="0.2213"
       empcolor="#0099e5"
       empopacity="0.3020"
       color="#0099e5"
       opacity="0.1490"
       empspacing="5"
       enabled="true"
       visible="false" /></sodipodi:namedview><defs
     id="defs1"></defs><g
     inkscape:groupmode="layer"
     id="layer5"
     inkscape:label="las-vegas-aces"
     style="fill:#bb0c2f;fill-opacity:1.0000"><g
       id="g1"
       transform="translate(-490.0646,180.5145)"><path
         class="st0"
         d="m 585.9253,-132.9093 c -0.2979,0 -1.2341,0 -2.6597,0.0213 -16.8095,-18.8734 -21.6396,-41.3003 -21.6396,-41.3003 0,0 -4.8939,22.7247 -21.9800,41.6620 h -5.7450 l -0.1702,0.4043 c -2.4044,5.7237 -9.8516,18.4479 -9.8516,18.4479 h 18.6394 c 0.2553,0.2766 0.5320,0.5958 0.5320,0.5958 13.2348,15.0434 18.5755,37.3000 18.5755,37.3000 0,0 5.3407,-22.2566 18.5755,-37.3000 0.2341,-0.2766 0.5107,-0.6171 0.5107,-0.6171 h 4.7662 c 10.2346,0 10.6176,-5.0641 10.6176,-6.8089 0,-1.7448 -0.7660,-3.1917 -2.0427,-4.3832 l 2.8938,-5.6386 -0.6809,-0.4043 c -0.1064,-0.0638 -3.3619,-1.9788 -10.3410,-1.9788 z"
         id="path1"
         style="display:inline;fill:#000000;stroke-width:0.2128" /><path
         id="path2"
         style="display:inline;fill:#b9975b;fill-opacity:1;stroke-width:0.2128"
         class="st1"
         d="m 561.6260,-178.3803 -0.8511,4.0005 c -0.0213,0.0638 -1.2553,5.7237 -4.5534,13.6178 -1.9150,4.5960 -4.1492,9.0428 -6.7026,13.2984 -2.9576,5.0003 -6.4049,9.7029 -10.2562,14.0436 h -5.9578 l -0.4042,0.9363 c -2.3406,5.6174 -9.7241,18.2139 -9.8092,18.3415 l -0.7871,1.3404 h 19.7883 l 0.2767,0.2978 c 2.9789,3.3832 5.7877,7.4259 8.3836,12.0219 2.1703,3.8726 4.0643,7.8940 5.7239,12.0219 2.9363,7.2983 4.2767,12.8308 4.2767,12.8946 l 0.8511,3.5743 0.8511,-3.5743 c 0.0213,-0.0638 1.3616,-5.6175 4.2979,-12.9158 1.6384,-4.1279 3.5536,-8.1282 5.7239,-12.0007 2.5746,-4.5960 5.4043,-8.6176 8.3832,-12.0008 l 0.2555,-0.2978 h 4.3619 c 4.6386,0 7.9368,-1.0213 9.8092,-3.0427 1.7022,-1.8299 1.7022,-3.9575 1.7022,-4.6597 0,-1.6597 -0.6385,-3.2130 -1.8514,-4.5322 l 3.0003,-5.8091 c -1.2979,-0.8511 -2.7233,-1.5104 -4.2128,-1.9573 -2.2980,-0.6809 -5.0006,-1.0002 -7.9795,-1.0002 l -2.2555,0.0212 c -3.7875,-4.3194 -7.1707,-9.0003 -10.1070,-13.9580 -2.5108,-4.2343 -4.7021,-8.6390 -6.5958,-13.1925 -3.2555,-7.8090 -4.4686,-13.4049 -4.4898,-13.4687 z m 0.0212,4.2344 c 0,0 4.8301,22.4270 21.6396,41.3004 1.4256,0 2.3618,-0.0212 2.6597,-0.0212 6.9791,0 10.2348,1.9149 10.3625,2.0001 l 0.6808,0.4042 -2.9151,5.6176 c 1.2767,1.1916 2.0428,2.6596 2.0428,4.3831 0,1.7235 -0.3833,6.8089 -10.6180,6.8089 h -4.7449 c 0,0 -0.2764,0.3402 -0.5105,0.6168 -13.2348,15.0434 -18.5970,37.3003 -18.5970,37.3003 0,0 -5.3406,-22.2782 -18.5754,-37.3003 0,0 -0.2980,-0.3190 -0.5321,-0.5957 h -18.6605 c 0,0 7.4684,-12.7241 9.8516,-18.4479 l 0.1703,-0.4042 h 5.7663 c 17.0861,-18.9585 21.9798,-41.6622 21.9798,-41.6622 z m -7.4365,39.0717 c -0.1809,0.0050 -0.3616,0.0264 -0.5425,0.0584 -0.1702,0.0426 -0.3404,0.0852 -0.4893,0.1703 -0.1277,0.0638 -0.2343,0.1491 -0.3194,0.2555 -0.0638,0.0851 -0.1063,0.2126 -0.1063,0.3190 0,0.1064 0.0214,0.2127 0.0640,0.2978 0.0426,0.0851 0.1064,0.1488 0.1915,0.2127 0.0851,0.0638 0.1914,0.1067 0.2978,0.1280 0.1064,0.0426 0.2341,0.0635 0.3618,0.0635 l 0.3830,0.0216 0.3402,0.0212 0.2555,0.0212 h 0.1491 c 0.0851,0 0.1699,-2e-4 0.2550,0.0424 0.0638,0.0426 0.0852,0.0853 0.0852,0.1491 0,0.1064 -0.0848,0.1916 -0.2550,0.2555 -0.2553,0.0638 -0.5322,0.1064 -0.7876,0.0852 -0.1277,0 -0.2341,-3.3000e-4 -0.3618,-0.0216 -0.1064,-0.0213 -0.2338,-0.0422 -0.3402,-0.0847 -0.1277,-0.0426 -0.2553,-0.0853 -0.3830,-0.1491 l -0.2127,0.4893 c 0.1489,0.0851 0.2976,0.1278 0.4465,0.1703 0.1489,0.0426 0.2768,0.0639 0.4258,0.0852 0.1277,0.0213 0.2764,0.0424 0.4253,0.0424 0.2553,0 0.4895,-0.0210 0.7236,-0.0635 0.1702,-0.0426 0.3404,-0.1064 0.4893,-0.1915 0.1277,-0.0638 0.2127,-0.1703 0.2978,-0.2767 0.0638,-0.1064 0.1063,-0.2130 0.1063,-0.3406 0.0213,-0.0851 2e-4,-0.1701 -0.0424,-0.2978 -0.0426,-0.0851 -0.0852,-0.1701 -0.1703,-0.2127 -0.0851,-0.0638 -0.1703,-0.1067 -0.2766,-0.1280 -0.1277,-0.0426 -0.2553,-0.0635 -0.3830,-0.0635 l -0.7232,-0.0216 -0.4681,-0.0212 c -0.0851,0 -0.1704,2e-4 -0.2343,-0.0424 -0.0638,-0.0213 -0.0851,-0.0641 -0.0851,-0.1280 0.0213,-0.0638 0.0426,-0.1062 0.0851,-0.1275 0.0638,-0.0426 0.1488,-0.0639 0.2127,-0.0851 0.1064,-0.0426 0.2130,-0.0640 0.3194,-0.0640 0.1277,-0.0213 0.2553,-0.0212 0.3830,-0.0212 0.1064,0 0.1914,-1e-4 0.2978,0.0212 0.1064,0 0.1914,0.0215 0.2978,0.0428 0.0851,0.0213 0.1915,0.0427 0.2767,0.0640 0.0851,0.0213 0.1700,0.0634 0.2339,0.0847 l 0.1919,-0.4893 c -0.1489,-0.0638 -0.2980,-0.1061 -0.4470,-0.1487 -0.1702,-0.0426 -0.2981,-0.0639 -0.4258,-0.0852 -0.1809,-0.0319 -0.3616,-0.0425 -0.5425,-0.0372 z m 22.7034,0 c -0.1809,0.0050 -0.3616,0.0264 -0.5425,0.0584 -0.1702,0.0426 -0.3404,0.0852 -0.4893,0.1703 -0.1277,0.0638 -0.2343,0.1491 -0.3194,0.2555 -0.0638,0.0851 -0.1063,0.2126 -0.1063,0.3190 0,0.1064 0.0214,0.2127 0.0640,0.2978 0.0426,0.0851 0.1064,0.1488 0.1915,0.2127 0.0851,0.0638 0.1914,0.1067 0.2978,0.1280 0.1064,0.0426 0.2341,0.0635 0.3618,0.0635 l 0.3830,0.0216 0.3406,0.0212 0.2550,0.0212 h 0.1491 c 0.0851,0 0.1704,-2e-4 0.2555,0.0424 0.0638,0.0426 0.0847,0.0853 0.0847,0.1491 0,0.1064 -0.0848,0.1916 -0.2550,0.2555 -0.2553,0.0638 -0.5322,0.1064 -0.7876,0.0852 -0.1277,0 -0.2337,-3.3000e-4 -0.3614,-0.0216 -0.1064,-0.0213 -0.2342,-0.0422 -0.3406,-0.0847 -0.1277,-0.0426 -0.2553,-0.0853 -0.3830,-0.1491 l -0.2127,0.4893 c 0.1489,0.0851 0.2976,0.1278 0.4465,0.1703 0.1489,0.0426 0.2768,0.0639 0.4258,0.0852 0.1277,0.0213 0.2764,0.0424 0.4253,0.0424 0.2553,0 0.4895,-0.0210 0.7236,-0.0635 0.1702,-0.0426 0.3404,-0.1064 0.4893,-0.1915 0.1277,-0.0638 0.2127,-0.1703 0.2978,-0.2767 0.0638,-0.1064 0.1063,-0.2130 0.1063,-0.3406 h 4.3000e-4 c 0,-0.0851 -0.0215,-0.1701 -0.0428,-0.2978 -0.0426,-0.0851 -0.0852,-0.1701 -0.1703,-0.2127 -0.0851,-0.0638 -0.1703,-0.1067 -0.2767,-0.1280 -0.1277,-0.0426 -0.2553,-0.0635 -0.3830,-0.0635 l -0.7232,-0.0216 -0.4681,-0.0212 c -0.0851,0 -0.1705,2e-4 -0.2343,-0.0424 -0.0638,-0.0213 -0.0852,-0.0641 -0.0852,-0.1280 0.0213,-0.0638 0.0426,-0.1062 0.0852,-0.1275 0.0638,-0.0426 0.1488,-0.0639 0.2127,-0.0851 0.1064,-0.0426 0.2130,-0.0640 0.3194,-0.0640 0.1277,-0.0213 0.2553,-0.0212 0.3830,-0.0212 0.1064,0 0.1914,-1e-4 0.2978,0.0212 0.1064,0 0.1914,0.0215 0.2978,0.0428 0.0851,0.0213 0.1915,0.0427 0.2766,0.0640 0.0851,0.0213 0.1705,0.0634 0.2343,0.0847 l 0.1915,-0.4893 c -0.1489,-0.0638 -0.2980,-0.1061 -0.4470,-0.1487 -0.1702,-0.0426 -0.2981,-0.0639 -0.4258,-0.0852 -0.1809,-0.0319 -0.3616,-0.0425 -0.5425,-0.0372 z m -8.3702,0.0398 c -0.2048,0.0080 -0.4067,0.0399 -0.5982,0.1037 -0.1915,0.0638 -0.3832,0.1490 -0.5321,0.2766 -0.1489,0.1064 -0.2551,0.2339 -0.3402,0.4042 -0.1489,0.3192 -0.1489,0.6811 0,1.0003 0.0851,0.1489 0.1913,0.2978 0.3402,0.4042 0.1489,0.1277 0.3406,0.2128 0.5321,0.2766 0.4681,0.1489 0.9575,0.1489 1.4256,0 0.1915,-0.0638 0.3827,-0.1490 0.5317,-0.2766 0.1489,-0.1064 0.2555,-0.2339 0.3406,-0.4042 0.0638,-0.1489 0.1063,-0.3191 0.1063,-0.4893 0,-0.0213 10e-5,-0.0429 -0.0212,-0.1068 v -0.0847 h -1.9149 v 0.4677 h 1.2553 c -0.0851,0.1489 -0.2129,0.2768 -0.3618,0.3406 -0.1915,0.0851 -0.4257,0.1275 -0.6384,0.1275 -0.1702,0 -0.3192,-0.0210 -0.4681,-0.0635 -0.1277,-0.0426 -0.2338,-0.0852 -0.3402,-0.1703 -0.0851,-0.0638 -0.1701,-0.1279 -0.2127,-0.2343 -0.0851,-0.1915 -0.0851,-0.4042 0,-0.5957 0.0638,-0.0851 0.1276,-0.1700 0.2127,-0.2339 0.1064,-0.0851 0.2125,-0.1278 0.3402,-0.1703 0.1489,-0.0426 0.3192,-0.0640 0.4681,-0.0640 0.2128,-0.0213 0.4046,0.0212 0.5961,0.1063 0.1277,0.0638 0.2551,0.1706 0.3402,0.2983 l 0.5321,-0.2766 c -0.0638,-0.0851 -0.1492,-0.1704 -0.2343,-0.2555 -0.1064,-0.0851 -0.2125,-0.1488 -0.3402,-0.2127 -0.1277,-0.0426 -0.2552,-0.1067 -0.4042,-0.1280 -0.2021,-0.0319 -0.4099,-0.0478 -0.6147,-0.0398 z m -23.6846,0.0826 v 2.4254 l 2.7872,0.0216 v -0.5321 h -2.1704 v -1.9149 z m 4.9576,0 -1.4044,2.4254 h 0.6596 l 0.2767,-0.4893 h 1.7234 l 0.2767,0.4893 h 0.6596 l -1.4044,-2.4254 z m 9.0005,0 1.2769,2.4254 h 0.7871 l 1.2553,-2.4254 h -0.6808 l -0.9786,1.9149 -0.9791,-1.9149 z m 4.2132,0 v 2.4254 0.0216 h 3.0215 v -0.5321 h -2.4046 v -0.4681 h 2.0428 v -0.4681 h -2.0428 v -0.4470 h 2.3195 v -0.5317 z m 9.4898,0 -1.4044,2.4254 h 0.6384 l 0.2767,-0.4893 h 1.7234 l 0.2767,0.4893 h 0.6808 l -1.4044,-2.4254 z m -22.2993,0.4465 0.5533,0.9579 h -1.1061 z m 22.6822,0 0.5533,0.9579 h -1.1066 z" /><path
         id="path3"
         style="display:inline;fill:#ffffff;stroke-width:0.2128"
         class="st2"
         d="m 561.6472,-164.1452 c -4.9365,16.1073 -14.3838,27.0865 -14.3838,27.0865 h 5.0427 c 3.0002,-4.1917 5.7452,-8.1492 9.3199,-15.7454 3.4683,7.2770 6.3834,11.6600 9.3411,15.7454 h 5.0427 c 0,0 -9.4474,-10.9792 -14.3626,-27.0865 z m 24.4484,34.4063 c -2.4470,0 -6.5323,0.4682 -6.5323,3.6599 0,2.2342 1.6808,3.0426 5.2342,3.9150 l 0.7660,0.1915 c 2.2129,0.5319 3.4472,0.8511 3.4472,1.6171 0,0.7660 -1.2556,1.2341 -3.3621,1.2341 -2.1065,0 -3.9788,-0.5107 -5.2342,-1.5107 l -1.4472,3.2769 c 2.0214,0.6170 3.9365,0.8935 6.6814,0.8935 3.3406,0 7.3197,-0.6384 7.3622,-4.0429 0,-2.1703 -1.7875,-3.1061 -4.8728,-3.8721 l -0.8295,-0.1915 c -2.6385,-0.6383 -3.8302,-0.9365 -3.8302,-1.6387 0,-0.5958 0.9789,-0.9575 2.6173,-0.9575 2.2767,0 3.7873,0.4043 5.0427,1.4044 l 1.5319,-3.0003 c -1.9788,-0.7022 -3.7872,-0.9786 -6.5746,-0.9786 z m -31.5552,0.0852 c -4.6386,0 -8.1281,2.8301 -8.1281,6.5962 0,3.7662 3.4896,6.5958 8.1281,6.5958 2.4257,0 4.3832,-0.4253 6.1493,-1.2976 l -1.5531,-3.1706 c -1.1064,1.1277 -2.6601,1.7234 -4.4687,1.7234 -2.9789,0 -4.5322,-1.9361 -4.5322,-3.8298 0,-1.9150 1.5533,-3.8302 4.5322,-3.8302 1.8086,0 3.3409,0.5957 4.4687,1.7234 l 1.5531,-3.1702 c -1.7661,-0.9150 -3.7236,-1.3404 -6.1493,-1.3404 z m 9.1496,0.2127 c 0.1489,0.3830 0.3830,1.2127 0.3830,2.5745 v 7.5325 c 0,1.3831 -0.2340,2.1915 -0.3830,2.5745 h 12.5112 v -3.2981 c -0.6171,0.3617 -1.4679,0.5747 -2.5105,0.6173 h -6.1921 v -2.5533 h 6.9792 v -2.4682 h -6.9792 v -2.5110 h 6.2133 c 1.0639,0.0638 1.9575,0.2766 2.5745,0.6596 l 0.9786,-3.1278 z m -27.9381,0.0212 c -1.8086,4.3832 -3.9999,8.6176 -6.5107,12.6604 h 3.9361 c 0.3830,-0.6171 0.8085,-1.3403 1.2341,-2.1276 h 6.4471 c 0.4043,0.7873 0.8299,1.5105 1.2129,2.1276 h 3.9366 c -2.5321,-4.0215 -4.7025,-8.2559 -6.5111,-12.6604 z m 1.8725,4.0853 c 0.5319,1.2341 1.1703,2.5321 1.7874,3.7662 h -3.5748 c 0.6383,-1.2554 1.2554,-2.5534 1.7874,-3.7662 z" /><path
         id="path4"
         style="display:inline;fill:#bb0c2f;fill-opacity:1;stroke-width:0.2128"
         class="st3"
         d="m 561.6260,-146.6336 c -0.3192,2.6385 -1.2341,3.8300 -2.6597,4.3619 1.4043,0.5532 2.3192,1.7447 2.6597,4.3619 0.3192,-2.6172 1.2553,-3.8300 2.6597,-4.3619 -1.4043,-0.5532 -2.3192,-1.7447 -2.6597,-4.3619 z m -14.8519,32.9808 c 0,0 8.1495,9.1282 14.8307,27.7038 0,0 2.2128,-5.8517 4.5534,-10.9158 l -2.4047,-4.7021 c -0.6596,1.2341 -1.4467,2.6595 -2.1276,4.1064 -3.4683,-7.2770 -6.3834,-11.6600 -9.3411,-15.7454 -0.3404,-0.4681 -0.3402,-0.4470 -0.3402,-0.4470 z m 11.4686,0 c 0,0 4.8302,5.8514 9.1496,14.2774 4.5535,-8.9580 9.1068,-14.2987 9.1068,-14.2774 h -5.2554 c -1.3618,1.8724 -2.5109,3.6385 -3.8514,5.7663 -1.3405,-2.1278 -2.6599,-3.8939 -4.0217,-5.7663 z" /></g></g><style
     type="text/css"
     id="style1">
	.st0{fill:#4891CE;}
	.st1{fill:#C7D9EA;}
	.st2{fill:#E3173E;}
	.st3{fill:#FFFFFF;}
</style><style
     type="text/css"
     id="style1-7">
	.st0{fill:#211646;}
	.st1{fill:#B3B2B1;}
	.st2{fill:#FFFFFF;}
	.st3{fill:#D35E13;}
</style></svg>
