<svg
  
  
   viewBox="0 0 140.3140 110.6577"
   version="1.1000"
   id="svg1"
   xml:space="preserve"
   sodipodi:docname="group-team-logo-doc.svg"
   inkscape:version="1.4000.2 (2aeb623e1d, 2025-05-12)"
   xmlns:inkscape="http://www.inkscape.org/namespaces/inkscape"
   xmlns:sodipodi="http://sodipodi.sourceforge.net/DTD/sodipodi-0.dtd"
   xmlns="http://www.w3.org/2000/svg"
   xmlns:svg="http://www.w3.org/2000/svg"><sodipodi:namedview
     id="namedview1"
     pagecolor="#ffffff"
     bordercolor="#000000"
     borderopacity="0.2500"
     inkscape:showpageshadow="2"
     inkscape:pageopacity="0.0000"
     inkscape:pagecheckerboard="0"
     inkscape:deskcolor="#d1d1d1"
     inkscape:document-units="px"
     inkscape:zoom="1.0875"
     inkscape:cx="293.3283"
     inkscape:cy="246.8923"
     inkscape:window-width="1854"
     inkscape:window-height="1011"
     inkscape:window-x="0"
     inkscape:window-y="0"
     inkscape:window-maximized="1"
     inkscape:current-layer="layer5"
     showgrid="false"><inkscape:page
       x="0"
       y="0"
      
      
       id="page2"
       margin="0"
       bleed="0" /><inkscape:grid
       id="grid5"
       units="px"
       originx="0"
       originy="0"
       spacingx="0.2213"
       spacingy="0.2213"
       empcolor="#0099e5"
       empopacity="0.3020"
       color="#0099e5"
       opacity="0.1490"
       empspacing="5"
       enabled="true"
       visible="false" /></sodipodi:namedview><defs
     id="defs1"></defs><g
     inkscape:groupmode="layer"
     id="layer5"
     inkscape:label="los-angeles-sparks"
     style="fill:#bb0c2f;fill-opacity:1.0000"><path
       d="m 137.4136,61.0998 c 0,-0.6414 -0.3544,-1.3035 -1.0823,-2.0283 -2.3919,-2.3743 -9.1687,-5.7420 -18.7254,-8.7607 -0.3513,-1.3769 -1.0509,-3.3563 -2.4401,-5.4894 0.8909,0.5526 1.7489,1.0800 2.2158,1.3517 l 0.2886,0.1676 c 0.0237,7.6600e-4 0.3138,-0.1630 0.3138,-0.1630 a 0.5679,0.5679 0 0 0 0.1990,-0.1577 c 0.2090,0.4608 0.2932,0.5105 0.4034,0.5740 l 1.5040,0.8557 0.9254,0.5266 0.2778,0.1577 c 0.0206,7.6400e-4 0.3023,-0.1470 0.3023,-0.1470 a 0.5128,0.5128 0 0 0 0.2403,-0.2128 c 0.3590,0.9430 0.4623,1.0057 0.6070,1.0884 2.1270,1.2086 5.3892,2.8572 5.4221,2.8741 l 0.8358,0.4217 0.0103,-0.9368 c 0.0030,-0.2174 -0.0437,-4.8886 -7.5177,-10.4890 l 1.3333,0.3337 0.8312,0.2067 -0.1117,-0.8504 -0.0191,-0.1470 0.7531,1.0065 0.1255,0.1692 0.2051,0.0490 3.4190,0.8220 0.7608,0.1829 -0.0437,-0.7830 -0.0060,-0.1110 0.5710,0.9108 0.1301,0.2067 0.2380,0.0528 5.3356,1.1848 1.4007,0.3108 -0.7876,-1.2017 c -4.1362,-6.3130 -10.1806,-7.8308 -15.0370,-9.0501 l -0.1600,-0.0406 0.7953,-0.0635 0.7371,-0.0589 -0.2036,-0.6246 0.5082,0.3628 0.1707,0.1225 0.2090,-0.0153 2.5955,-0.1868 0.9460,-0.0689 -0.4891,-0.8151 -0.0581,-0.0972 1.3754,0.6965 0.1554,0.0788 0.1737,-0.0199 6.2640,-0.7202 1.7176,-0.1975 -1.4856,-0.8848 c -4.5625,-2.7164 -7.7091,-3.7191 -16.4890,-3.9456 0.4217,-0.5725 1.0302,-1.3907 1.9418,-2.5618 l 0.3858,-0.4944 -0.5205,-0.3498 -0.0161,-0.0115 0.7057,-0.0375 0.2510,-0.0138 0.1630,-0.1913 c 0.1225,-0.1447 0.3483,-0.4248 0.5894,-0.7202 0.2526,-0.3123 0.5143,-0.6353 0.6429,-0.7853 l 0.4738,-0.5519 -0.4393,-0.2357 0.3812,-0.0283 0.2403,-0.0176 0.1569,-0.1822 c 2.0627,-2.3804 4.4546,-5.0218 4.4791,-5.0486 l 0.8733,-0.9644 -1.2989,-0.0123 c -8.2204,-0.0773 -13.3677,6.2028 -15.8399,9.2200 l -0.4248,0.5166 c -0.0191,-0.1110 -0.0391,-0.2174 -0.0566,-0.3307 -0.6445,-3.8040 -1.5247,-9.0133 -8.0948,-13.8522 l -1.1558,-0.8511 0.2350,1.4175 0.7547,4.5472 0.0421,0.2480 0.2067,0.1408 0.8718,0.5894 -0.2824,0.0054 -0.6728,0.0145 0.1095,0.6644 0.3199,1.9602 0.0452,0.2748 0.2403,0.1385 0.6116,0.3490 -0.1148,0.0054 -0.6521,0.0298 0.1018,0.6452 c 0.1378,0.8718 0.3574,2.2778 0.5128,3.3080 l -0.0819,-0.0544 C 99.8403,22.3783 94.9892,19.1169 83.8159,21.0717 l -1.1688,0.2044 A 40.7497,40.7497 0 0 0 68.5921,18.7940 c -10.8962,0 -21.1410,4.2518 -28.8463,11.9716 a 41.0437,41.0437 0 0 0 -6.5258,8.5250 c -3.5093,0.0758 -9.2567,1.4106 -11.7619,8.8334 a 13.8659,13.8659 0 0 0 -0.6315,2.7371 c -6.1086,2.0566 -11.0631,4.3245 -13.8659,6.3199 -1.0777,0.6758 -1.9204,1.3127 -2.5021,1.8898 -0.7287,0.7248 -1.0830,1.3869 -1.0830,2.0283 0,0.0123 0.0023,0.0237 0.0023,0.0360 -0.3176,0.4562 -0.4768,0.8909 -0.4768,1.3142 0,0.6414 0.3544,1.3035 1.0830,2.0283 1.4910,1.4818 4.6911,3.3486 9.2054,5.2774 l -2.3857,3.8737 -0.8993,1.4619 -0.8993,1.4619 h 5.2682 c 0.7187,0 1.0463,0 1.3295,-0.4455 l 0.2824,-0.4393 c 0.2748,-0.4294 0.7279,-0.8641 1.3249,-0.5143 1.3800,0.8121 4.9743,2.7103 8.5250,2.8090 2.2832,0.0643 4.2969,-0.1554 6.0420,-0.6475 1.9831,4.1546 4.6521,7.9318 7.9686,11.2536 7.7053,7.7213 17.9501,11.9716 28.8463,11.9716 16.2739,0 30.7521,-9.5912 37.2565,-24.2508 15.4174,-3.5239 26.7652,-8.5855 30.0135,-11.8116 0.7279,-0.7248 1.0823,-1.3869 1.0823,-2.0283 0,-0.0123 -0.0010,-0.0237 -0.0030,-0.0360 0.3123,-0.4554 0.4722,-0.8886 0.4722,-1.3134 z m -24.8647,-12.2777 -0.0010,-7.6600e-4 v -0.0031 z m -2.6299,-1.3249 0.0422,-0.1898 0.0102,0.0467 0.1676,0.1278 1.3961,1.0662 c -1.2905,-0.3437 -2.6177,-0.6774 -3.9778,-0.9996 a 40.2959,40.2959 0 0 0 -1.0677,-3.0218 l 2.6942,2.3337 z M 93.5961,26.1571 c -0.2181,0.3184 -0.1990,0.4646 -0.1776,0.6001 l 0.0467,0.3100 c 0.0237,0.0321 0.3062,0.1646 0.3062,0.1646 0.2886,0.1355 0.6131,0.3092 0.9506,0.5006 a 42.3976,42.3976 0 0 0 -0.8014,-0.1056 41.6078,41.6078 0 0 0 -1.5844,-1.2009 l 0.0360,-0.0077 z"
       fill-rule="evenodd"
       clip-rule="evenodd"
       fill="#ffffff"
       id="path2-7"
       style="stroke-width:0.7654" /><path
       d="m 137.4136,61.0998 c 0,-0.6414 -0.3544,-1.3035 -1.0823,-2.0283 -2.3919,-2.3743 -9.1687,-5.7420 -18.7254,-8.7607 -0.3513,-1.3769 -1.0509,-3.3563 -2.4401,-5.4894 0.8909,0.5526 1.7489,1.0800 2.2158,1.3517 l 0.2886,0.1676 c 0.0237,7.6600e-4 0.3138,-0.1630 0.3138,-0.1630 a 0.5679,0.5679 0 0 0 0.1990,-0.1577 c 0.2090,0.4608 0.2932,0.5105 0.4034,0.5740 l 1.5040,0.8557 0.9254,0.5266 0.2778,0.1577 c 0.0206,0.0015 0.3023,-0.1470 0.3023,-0.1470 a 0.5128,0.5128 0 0 0 0.2403,-0.2128 c 0.3590,0.9430 0.4623,1.0057 0.6070,1.0884 2.1270,1.2086 5.3892,2.8572 5.4221,2.8741 l 0.8358,0.4217 0.0103,-0.9368 c 0.0030,-0.2174 -0.0437,-4.8886 -7.5177,-10.4890 l 1.3333,0.3337 0.8312,0.2067 -0.1117,-0.8504 -0.0191,-0.1470 0.7531,1.0065 0.1255,0.1692 0.2051,0.0490 3.4190,0.8220 0.7608,0.1829 -0.0437,-0.7830 -0.0060,-0.1110 0.5710,0.9108 0.1301,0.2067 0.2380,0.0528 5.3356,1.1848 1.4007,0.3108 -0.7876,-1.2017 c -4.1362,-6.3130 -10.1806,-7.8308 -15.0370,-9.0501 l -0.1600,-0.0406 0.7953,-0.0635 0.7371,-0.0589 -0.2036,-0.6246 0.5082,0.3628 0.1707,0.1225 0.2090,-0.0153 2.5955,-0.1868 0.9460,-0.0689 -0.4891,-0.8151 -0.0581,-0.0972 1.3754,0.6965 0.1554,0.0788 0.1737,-0.0199 6.2640,-0.7202 1.7176,-0.1975 -1.4856,-0.8848 c -4.5625,-2.7164 -7.7091,-3.7191 -16.4890,-3.9456 0.4217,-0.5725 1.0302,-1.3907 1.9418,-2.5618 l 0.3858,-0.4944 -0.5205,-0.3498 -0.0161,-0.0115 0.7057,-0.0375 0.2510,-0.0138 0.1630,-0.1913 c 0.1225,-0.1447 0.3483,-0.4248 0.5894,-0.7202 0.2526,-0.3123 0.5143,-0.6353 0.6429,-0.7853 l 0.4738,-0.5519 -0.4393,-0.2357 0.3812,-0.0283 0.2403,-0.0176 0.1569,-0.1814 c 2.0627,-2.3804 4.4546,-5.0225 4.4791,-5.0486 l 0.8733,-0.9644 -1.2989,-0.0123 c -8.2204,-0.0773 -13.3677,6.2028 -15.8399,9.2200 l -0.4248,0.5166 c -0.0191,-0.1110 -0.0391,-0.2174 -0.0566,-0.3307 -0.6445,-3.8040 -1.5247,-9.0133 -8.0948,-13.8522 l -1.1558,-0.8511 0.2350,1.4183 0.7547,4.5472 0.0421,0.2480 0.2067,0.1408 0.8718,0.5894 -0.2824,0.0054 -0.6728,0.0145 0.1095,0.6644 0.3199,1.9602 0.0452,0.2748 0.2403,0.1385 0.6116,0.3490 -0.1148,0.0054 -0.6521,0.0298 0.1018,0.6452 c 0.1378,0.8718 0.3574,2.2778 0.5128,3.3080 l -0.0819,-0.0544 C 99.8403,22.3798 94.9892,19.1184 83.8159,21.0733 l -1.1688,0.2044 A 40.7497,40.7497 0 0 0 68.5921,18.7947 c -10.8962,0 -21.1410,4.2518 -28.8463,11.9716 a 41.0207,41.0207 0 0 0 -6.5265,8.5250 c -3.5093,0.0758 -9.2567,1.4106 -11.7619,8.8334 a 13.8659,13.8659 0 0 0 -0.6315,2.7371 c -6.1086,2.0566 -11.0631,4.3245 -13.8659,6.3199 -1.0777,0.6758 -1.9204,1.3127 -2.5021,1.8898 -0.7287,0.7248 -1.0830,1.3869 -1.0830,2.0283 0,0.0123 0.0023,0.0237 0.0023,0.0360 -0.3169,0.4562 -0.4768,0.8909 -0.4768,1.3142 0,0.6414 0.3544,1.3035 1.0830,2.0283 1.4910,1.4818 4.6911,3.3486 9.2062,5.2774 l -2.3857,3.8737 -0.8993,1.4619 -0.8993,1.4619 h 5.2682 c 0.7187,0 1.0463,0 1.3295,-0.4455 l 0.2824,-0.4393 c 0.2748,-0.4294 0.7271,-0.8641 1.3249,-0.5143 1.3800,0.8121 4.9743,2.7103 8.5250,2.8090 2.2832,0.0643 4.2969,-0.1554 6.0420,-0.6475 1.9831,4.1546 4.6521,7.9318 7.9685,11.2536 7.7053,7.7213 17.9501,11.9716 28.8463,11.9716 16.2739,0 30.7521,-9.5912 37.2565,-24.2508 15.4174,-3.5239 26.7652,-8.5855 30.0135,-11.8116 0.7279,-0.7248 1.0823,-1.3869 1.0823,-2.0283 0,-0.0123 -0.0010,-0.0237 -0.0030,-0.0360 0.3123,-0.4562 0.4722,-0.8894 0.4722,-1.3142 m -24.8647,-12.2777 -0.0010,-7.6600e-4 v -0.0031 l 0.0010,0.0038 m -2.6299,-1.3249 0.0421,-0.1898 0.0102,0.0467 0.1676,0.1278 1.3961,1.0654 c -1.2905,-0.3437 -2.6176,-0.6774 -3.9778,-0.9996 a 40.2959,40.2959 0 0 0 -1.0677,-3.0218 l 2.6942,2.3337 0.7348,0.6376 M 93.5961,26.1571 c -0.2181,0.3184 -0.1990,0.4646 -0.1776,0.6001 l 0.0467,0.3100 c 0.0237,0.0321 0.3062,0.1646 0.3062,0.1646 0.2886,0.1355 0.6131,0.3092 0.9506,0.5006 a 42.3976,42.3976 0 0 0 -0.8014,-0.1056 41.6078,41.6078 0 0 0 -1.5844,-1.2009 l 0.0360,-0.0077 z"
       fill="none"
       stroke="#ffffff"
       stroke-width="0.7516"
       stroke-miterlimit="2.6130"
       id="path3-3" /><path
       id="path4-65"
       style="stroke-width:0.7654;fill:#000000"
       d="m 100.4921,10.0431 0.2351,1.4174 0.7547,4.5473 0.0419,0.2481 0.2066,0.1409 0.8719,0.5892 -0.2827,0.0056 -0.6726,0.0143 0.1094,0.6644 0.3199,1.9603 0.0454,0.2749 0.2403,0.1383 0.6116,0.3493 -0.1150,0.0052 -0.6523,0.0298 0.1020,0.6454 c 0.1378,0.8718 0.3573,2.2778 0.5127,3.3081 l -0.0817,-0.0545 C 99.8403,22.3783 94.9894,19.1168 83.8161,21.0717 l -1.1688,0.2045 a 40.7497,40.7497 0 0 0 -14.0553,-2.4820 c -10.8962,0 -21.1410,4.2516 -28.8462,11.9714 a 41.0437,41.0437 0 0 0 -6.5258,8.5250 c -3.5093,0.0758 -9.2566,1.4108 -11.7617,8.8336 a 13.8659,13.8659 0 0 0 -0.6315,2.7370 C 14.7181,52.9177 9.7637,55.1857 6.9608,57.1811 5.8832,57.8569 5.0402,58.4934 4.4585,59.0705 3.7299,59.7953 3.3757,60.4577 3.3757,61.0991 c 0,0.0123 0.0022,0.0236 0.0022,0.0359 -0.3176,0.4562 -0.4768,0.8908 -0.4768,1.3141 0,0.6414 0.3546,1.3037 1.0832,2.0286 1.4910,1.4818 4.6910,3.3486 9.2053,5.2774 l -2.3856,3.8735 -0.8995,1.4619 -0.8995,1.4619 h 5.2683 c 0.7187,0 1.0464,2.3700e-4 1.3296,-0.4452 l 0.2823,-0.4396 c 0.2748,-0.4294 0.7279,-0.8642 1.3249,-0.5144 1.3800,0.8121 4.9743,2.7105 8.5250,2.8092 2.2832,0.0643 4.2970,-0.1554 6.0421,-0.6475 1.9831,4.1546 4.6522,7.9315 7.9687,11.2534 7.7053,7.7213 17.9500,11.9718 28.8462,11.9718 16.2739,0 30.7523,-9.5912 37.2566,-24.2509 15.4174,-3.5239 26.7650,-8.5853 30.0133,-11.8114 0.7279,-0.7248 1.0824,-1.3872 1.0824,-2.0286 0,-0.0123 -10e-4,-0.0236 -0.0030,-0.0359 0.3123,-0.4554 0.4725,-0.8884 0.4725,-1.3132 h -4.3000e-4 c 0,-0.6414 -0.3540,-1.3037 -1.0819,-2.0286 -2.3919,-2.3743 -9.1686,-5.7418 -18.7254,-8.7605 -0.3513,-1.3769 -1.0509,-3.3565 -2.4401,-5.4897 0.8909,0.5526 1.7489,1.0799 2.2157,1.3517 l 0.2883,0.1677 c 1.8000e-4,6e-6 10e-4,1.4000e-5 10e-4,0 0.0314,-0.0042 0.3125,-0.1630 0.3125,-0.1630 a 0.5679,0.5679 0 0 0 0.1993,-0.1578 c 0.2090,0.4608 0.2931,0.5105 0.4033,0.5740 l 1.5038,0.8559 0.9255,0.5265 0.2779,0.1578 c 0.0206,7.6400e-4 0.3021,-0.1470 0.3021,-0.1470 a 0.5128,0.5128 0 0 0 0.2403,-0.2127 c 0.3590,0.9430 0.4622,1.0058 0.6069,1.0884 2.1270,1.2086 5.3893,2.8572 5.4222,2.8741 l 0.8360,0.4214 0.0100,-0.9367 c 0.0030,-0.2174 -0.0433,-4.8887 -7.5174,-10.4891 l 1.3331,0.3337 0.8312,0.2066 -0.1115,-0.8502 -0.0190,-0.1470 0.7530,1.0067 0.1254,0.1690 0.2053,0.0488 3.4192,0.8222 0.7608,0.1828 -0.0437,-0.7828 -0.0060,-0.1111 0.5710,0.9108 0.1301,0.2066 0.2377,0.0527 5.3358,1.1848 1.4005,0.3108 -0.7876,-1.2017 c -4.1362,-6.3130 -10.1805,-7.8304 -15.0369,-9.0497 l -0.1599,-0.0406 0.7954,-0.0635 0.7370,-0.0592 -0.2036,-0.6242 0.5083,0.3627 0.1708,0.1223 0.2088,-0.0151 2.5953,-0.1867 0.9462,-0.0692 -0.4893,-0.8148 -0.0579,-0.0973 1.3754,0.6964 0.1552,0.0787 0.1738,-0.0199 6.2643,-0.7201 1.7174,-0.1975 -1.4857,-0.8848 c -4.5625,-2.7164 -7.7090,-3.7191 -16.4889,-3.9456 0.4217,-0.5725 1.0301,-1.3905 1.9417,-2.5616 l 0.3860,-0.4945 -0.5204,-0.3497 -0.0160,-0.0117 0.7054,-0.0376 0.2511,-0.0138 0.1630,-0.1911 c 0.1225,-0.1447 0.3485,-0.4247 0.5896,-0.7201 0.2526,-0.3123 0.5142,-0.6354 0.6428,-0.7854 l 0.4738,-0.5520 -0.4392,-0.2356 0.3808,-0.0285 0.2403,-0.0173 0.1569,-0.1824 c 2.0627,-2.3804 4.4550,-5.0215 4.4795,-5.0483 l 0.8731,-0.9648 -1.2989,-0.0121 c -8.2204,-0.0773 -13.3678,6.2028 -15.8400,9.2200 l -0.4245,0.5165 c -0.0191,-0.1110 -0.0391,-0.2174 -0.0566,-0.3307 -0.6445,-3.8040 -1.5247,-9.0133 -8.0949,-13.8521 z m 0.9907,1.6305 c 6.0949,4.6046 6.9032,9.3629 7.5507,13.1968 0.0903,0.5297 0.1749,1.0303 0.2706,1.5094 l 0.0454,0.2282 0.1720,-0.1569 c 0.3108,-0.2840 0.7263,-0.7907 1.2514,-1.4321 2.3720,-2.8947 7.2791,-8.8735 14.9820,-8.9546 a 368.5725,368.5725 0 0 0 -4.2504,4.7955 l -2.3290,0.1712 -0.4500,0.0333 0.3981,0.2135 1.4260,0.7651 c -0.1470,0.1745 -0.3499,0.4273 -0.5520,0.6761 -0.2181,0.2679 -0.4204,0.5167 -0.5429,0.6644 l -2.3917,0.1275 -0.3933,0.0216 0.3259,0.2196 1.3486,0.9077 c -0.9759,1.2560 -1.5981,2.1019 -2.0122,2.6644 -0.2174,0.2947 -0.3887,0.5266 -0.5265,0.7041 l -0.1617,0.2075 0.2632,0.0048 c 9.3340,0.1638 12.4141,1.0247 16.9315,3.6707 l -5.8346,0.6704 -3.1464,-1.5920 -0.4068,-0.2058 0.2351,0.3903 0.9929,1.6499 -2.3338,0.1686 -1.9136,-1.3694 -0.3246,-0.2326 0.1223,0.3804 0.4738,1.4511 -3.9348,0.3155 -0.0298,0.2555 c 1.0356,0.3383 2.1738,0.6237 3.3785,0.9268 4.6643,1.1711 10.4502,2.6279 14.4287,8.4809 l -4.9593,-1.1005 -1.7411,-2.7803 -0.2710,-0.4310 0.0285,0.5083 0.1206,2.1928 -3.2022,-0.7690 -2.0627,-2.7587 -0.3009,-0.4024 0.0657,0.4980 0.2870,2.1725 c -0.8090,-0.2021 -3.9902,-0.9976 -4.3775,-1.1308 l -0.1115,0.2360 c 8.7975,5.4948 9.8354,10.4758 9.9579,11.5611 -0.7417,-0.3766 -3.3592,-1.7166 -5.1663,-2.7422 -0.1179,-0.1661 -0.6277,-1.5874 -1.0556,-2.8602 l -0.2559,0.0311 c -0.0612,0.7562 -0.1620,1.5928 -0.2386,1.8730 l -0.8222,-0.4668 -1.4800,-0.8420 c -0.1118,-0.1561 -0.6156,-1.4634 -0.9432,-2.3567 l -0.2542,0.0428 c -0.0153,0.7141 -0.0656,1.5385 -0.1284,1.8194 -0.8465,-0.4998 -2.6881,-1.6478 -3.9258,-2.4193 l -0.9285,-0.5779 -0.1660,0.2006 c 3.6448,3.9831 4.4370,8.1501 4.5893,9.2806 l -3.8445,-2.9337 -0.8489,-2.8261 -0.2555,0.0164 -0.2918,1.7424 -1.3534,-1.0331 -0.5265,-2.2949 h -0.2555 l -0.3437,1.5280 -3.9461,-3.4183 -13.4531,25.3069 c -0.6735,1.3884 1.3517,1.4874 1.3517,1.4874 l -0.5680,0.9099 h -5.8865 c 0.0987,0.2763 0.1657,0.4752 0.1971,0.5632 0.5649,1.5920 1.5845,5.5440 5.9496,5.8800 0,0 5.7282,0.9475 10.7109,-6.4462 h -0.0705 l 0.0020,-0.0030 -1.2842,-0.0091 -0.0050,0.0151 h -4.4164 c -0.6315,0 -1.0437,-0.5509 -1.1256,-0.9099 l -1.6313,-7.3121 8.2405,-6.1843 c 0,0 1.7563,-1.3525 0.2377,-1.8263 l 0.3155,-0.7668 h 5.1754 l -0.3605,0.7668 c -1.3050,0 -2.1147,0.4960 -2.6994,0.9017 -0.5848,0.4057 -4.0996,3.1551 -6.5733,5.0548 l 1.5777,8.4714 c 0.1837,0.8986 1.1543,1.1182 1.4757,1.1182 h 1.5367 l 3.0033,-4.4172 h 0.8567 c -1.9472,3.8698 0.6505,5.0809 1.2276,5.1560 0.5756,0.0750 2.6568,0.5976 3.8095,-1.5669 1.1512,-2.1645 -1.1734,-4.8304 -1.6456,-5.3907 -0.4707,-0.5595 -3.0809,-2.6031 -1.8371,-6.0352 1.7267,-4.7661 6.7769,-3.7092 6.7769,-3.7092 1.1274,0.0513 2.2800,0.8743 2.9795,1.2700 1.0256,0.5809 2.3497,-0.4418 2.3497,-0.4418 l 0.3903,0.6069 -2.9208,4.4285 -0.3735,-0.6873 c 0.5871,-0.5740 0.2827,-2.2425 0.2827,-2.2425 -0.9269,-2.8258 -4.3919,-2.6520 -5.4114,-0.8472 -1.0195,1.8033 0.7386,4.2375 1.4321,5.0189 0.6950,0.7815 3.2848,3.8582 2.2806,7.0454 -1.0042,3.1856 -4.4102,3.3912 -6.3758,3.3422 -1.4994,-0.0390 -3.1336,-0.7291 -4.1592,-1.2855 -0.9912,-0.5365 -1.6621,0.0215 -1.9132,0.3009 -1.8400,2.8044 -6.6118,8.6228 -14.3094,8.0962 -8.3405,-1.3234 -9.0729,-7.4283 -9.3584,-9.4076 -0.2840,-1.9808 -0.7132,-4.8746 -0.7132,-4.8746 -0.7210,-2.7639 -2.0796,-2.1630 -2.0796,-2.1630 0,0 -2.8895,5.3249 -3.3020,6.1484 -0.4141,0.8220 -0.0834,1.1313 1.1917,1.4321 l -0.5693,0.9099 c -0.9453,0 -7.7209,0.0237 -8.0171,0 h -7.3937 l 0.2680,-0.8044 c 1.1818,-0.2212 2.2525,-0.5880 2.6130,-1.6702 l 0.6804,-4.1328 h -4.9588 c 0,0 -2.6612,3.7089 -2.9566,4.3005 -0.3988,0.7998 0.9496,1.3962 1.6499,1.3962 l -0.3160,0.9099 c -0.0276,-0.0015 -5.3209,0 -6.2210,0 l 0.4193,-0.9099 c 1.5675,0 2.5659,-1.1498 2.5659,-1.1498 0,0 11.2388,-13.9559 11.2564,-13.9697 0.0168,-0.0138 0.5571,-0.8299 1.6149,-0.9294 l 2.8062,-0.0030 c 0,0 -1.9955,14.5655 -2.0407,14.9703 -0.0406,0.3651 0.1072,0.9451 0.9216,1.1900 0.8748,-0.0957 1.2207,-0.4988 1.2207,-0.4988 0,0 6.6906,-12.1915 7.3994,-13.4873 0.7088,-1.2981 -1.4230,-1.4005 -1.4230,-1.4005 l 0.6588,-0.7876 6.8232,-0.0017 c 3.7803,0 7.0239,1.4592 5.6669,4.7626 -1.8706,4.5533 -6.8037,4.2724 -6.8037,4.2724 1.8852,1.2583 3.4127,4.5963 4.2409,6.7134 0.5021,-0.2679 0.6951,-0.6177 0.6951,-0.6177 L 102.9962,42.6146 l -4.2275,1.3283 -0.0285,-1.5989 -0.0091,-0.4664 -0.2364,0.4020 -1.1105,1.8950 -1.6266,0.4318 0.0221,-1.4947 0.0061,-0.4327 -0.2447,0.3562 -1.4070,2.0394 -2.8654,0.9047 -1.1844,0.3436 -1.7372,0.5044 c 0.2051,-0.8481 1.4276,-4.2327 8.1325,-6.5526 l -0.0631,-0.2537 c -0.6253,0.0941 -2.6908,0.3672 -3.2916,0.4461 l 0.2555,-2.0031 0.0519,-0.4081 -0.2775,0.3026 -2.1129,2.2884 -2.3709,0.3722 0.5503,-1.8777 0.1349,-0.4578 -0.3501,0.3246 -2.3757,2.2075 -5.3998,0.8654 c 4.3321,-5.8239 11.2428,-6.6521 15.3974,-7.1465 1.1213,-0.1339 2.0079,-0.2388 2.6056,-0.4141 l -0.0208,-0.2563 c -2.3559,-0.2618 -7.8094,-1.0708 -10.8786,-1.6486 0.0360,-0.1906 0.3633,-0.7648 0.6817,-1.2363 l 0.2680,-0.3955 -0.4314,0.2027 c -1.1963,0.5626 -2.5534,1.1307 -2.7509,1.1070 -0.5350,-0.0995 -1.0030,-0.1679 -1.4545,-0.2330 -0.3796,-0.0543 -0.7737,-0.1130 -1.1969,-0.1880 0.2112,-0.2817 0.8626,-0.9754 1.4757,-1.5916 l -0.1569,-0.2071 c -1.3019,0.7401 -2.7764,1.5002 -2.9899,1.4917 -0.9721,-0.1791 -3.7799,-0.5659 -4.9104,-0.7197 9.0906,-3.8002 15.5633,-2.7660 19.4546,-2.1414 0.5327,0.0850 1.0351,0.1659 1.4744,0.2217 l 0.0657,-0.2524 c -0.4095,-0.1615 -1.0716,-0.5534 -1.7727,-0.9683 -0.6697,-0.3965 -1.3571,-0.8015 -1.9434,-1.0824 0.1087,-0.2112 0.7144,-0.8289 1.2708,-1.3318 l 0.3618,-0.3281 -0.4768,0.1016 -3.0379,0.6467 -1.3767,-0.6298 1.5215,-1.7070 0.3199,-0.3596 -0.4578,0.1470 c -1.4451,0.4631 -3.0838,0.9445 -3.3050,0.9345 -1.2139,-0.6054 -3.7190,-1.9021 -4.6429,-2.3804 10.6092,-1.7619 15.2360,1.3417 18.0121,3.2078 a 22.8310,22.8310 0 0 0 1.1701,0.7547 l 0.2230,0.1301 -0.0268,-0.2581 c -0.0536,-0.5113 -0.5550,-3.7082 -0.6713,-4.4414 l 1.9793,-0.0903 0.4530,-0.0208 -0.3933,-0.2239 -2.3052,-1.3167 -0.2840,-1.7489 1.9685,-0.0406 0.4124,-0.0091 -0.3419,-0.2321 -2.3467,-1.5872 z m -32.9496,8.6551 c -0.8373,1.2598 -2.1593,3.7177 -1.9503,6.4640 a 53.4155,53.4155 0 0 0 -8.7861,1.4018 l -1.8086,-5.6807 a 38.9488,38.9488 0 0 1 12.5450,-2.1851 z m 2.2992,0.0437 a 38.8209,38.8209 0 0 1 20.4730,7.0285 c -2.3421,-0.1110 -5.1135,0.0156 -8.3175,0.7266 -4.0091,-0.9774 -8.1952,-1.4887 -12.4715,-1.4887 -0.7386,0 -1.4749,0.0214 -2.2097,0.0527 -0.1883,-2.3452 1.5743,-5.0471 2.5257,-6.3192 z m -16.4577,2.7479 1.7554,5.5147 a 52.3784,52.3784 0 0 0 -8.9123,3.3945 8.5946,8.5946 0 0 0 -3.5233,-2.4695 39.0314,39.0314 0 0 1 10.6802,-6.4398 z m 39.2212,3.0370 c -0.2181,0.3184 -0.1987,0.4645 -0.1772,0.6000 l 0.0467,0.3099 c 0.0237,0.0321 0.3060,0.1647 0.3060,0.1647 0.2886,0.1355 0.6130,0.3092 0.9505,0.5006 A 42.3976,42.3976 0 0 0 93.9205,27.6268 41.6078,41.6078 0 0 0 92.3363,26.4256 l 0.0359,-0.0073 z m -23.0795,2.2067 c 3.0149,0 5.9821,0.2592 8.8699,0.7651 a 41.2319,41.2319 0 0 0 -3.2458,1.2423 l -1.9356,0.8360 2.0895,0.2792 c 0.0421,0.0061 4.1607,0.5583 5.3578,0.7802 0.1240,0.0230 0.2907,0.0501 1.0072,-0.2736 a 1.0111,1.0111 0 0 0 0.0359,0.1418 l 0.1050,0.3367 c 0.0123,0.0100 0.3588,0.0743 0.3588,0.0743 0.5029,0.0926 0.9530,0.1577 1.3862,0.2205 a 32.7644,32.7644 0 0 1 1.4273,0.2274 c 0.1355,0.0253 0.3628,0.0651 1.6486,-0.4738 a 0.6123,0.6123 0 0 0 0.0454,0.4003 0.6337,0.6337 0 0 0 0.4690,0.3825 c 1.6609,0.3146 3.9449,0.6842 6.0918,1.0041 0.1018,0.0566 0.2023,0.1150 0.3026,0.1716 -3.3616,0.4784 -7.6616,1.4353 -11.2223,4.3775 -8.4148,-3.4895 -13.2188,-6.9286 -14.6034,-10.4563 0.6031,-0.0214 1.2066,-0.0359 1.8120,-0.0359 z m -3.6029,0.1340 c 1.2882,4.1240 6.1233,7.8735 15.0118,11.6485 a 16.3412,16.3412 0 0 0 -1.4666,1.7740 l -0.8105,1.1377 1.3767,-0.2213 5.2294,-0.8381 a 34.5401,34.5401 0 0 1 3.0867,1.7221 c -0.1745,0.1913 -0.3297,0.3789 -0.4720,0.5611 -5.5805,-0.6406 -11.4201,-1.0162 -17.4009,-1.0162 h -2.1522 c -2.2464,0 -4.4719,0.0532 -6.6732,0.1535 l -4.3230,-13.5802 c 2.7968,-0.6804 5.6752,-1.1342 8.5937,-1.3409 z m -10.2618,1.7761 4.2128,13.2348 A 158.7128,158.7128 0 0 0 49.1915,44.6124 C 49.6553,40.6981 49.3361,35.8700 48.1964,33.4636 a 50.7053,50.7053 0 0 1 8.4554,-3.1896 z m -14.7041,0.8528 c 0,0 2.0492,0.0193 3.6841,1.7139 -3.4795,1.8614 -6.6666,4.1085 -9.4664,6.6710 -0.0643,-0.0076 -0.1279,-0.0162 -0.1906,-0.0208 -0.1271,-0.0230 -0.3393,-0.0589 -0.6164,-0.0934 a 39.2572,39.2572 0 0 1 6.5893,-8.2708 z m 4.7181,3.1105 c 0.9009,1.8109 1.1678,5.4521 0.9527,8.6905 L 47.0929,42.0473 46.8076,41.5697 c -0.4125,-0.6896 -0.5109,-0.8523 -0.9449,-0.9281 l -0.4314,-0.0752 -0.3385,0.2788 -0.8490,0.6994 c -0.5848,0.4638 -1.6691,0.9897 -2.1008,0.7249 -0.1921,-0.1186 -0.4232,-0.2696 -0.6674,-0.4288 -0.9124,-0.5955 -2.0400,-1.3294 -3.3068,-1.8215 2.5472,-2.2066 5.4054,-4.1500 8.4969,-5.7819 z m 45.7760,5.9448 -0.0450,0.3605 -0.0960,0.7517 0.1937,-0.0259 a 14.8939,14.8939 0 0 0 -1.8367,1.2328 c -0.4623,-0.2947 -0.9302,-0.5776 -1.4040,-0.8524 l 1.9452,-0.3056 0.2001,-0.0320 0.1379,-0.1487 z M 33.0393,41.1997 c 0.4263,-0.0160 0.8174,-0.0092 1.1610,0.0091 0.9164,0.0488 1.4943,0.1798 1.4943,0.1798 2.0635,0.1018 4.1704,1.7312 5.4486,2.5157 1.8775,1.1512 4.3070,-0.8740 4.3070,-0.8740 l 0.7171,1.2008 -5.3717,8.7731 -0.6808,-1.3594 c 1.0777,-1.1404 0.5274,-4.4453 0.5274,-4.4453 -1.6831,-5.5989 -8.0300,-5.2530 -9.9060,-1.6793 -1.8760,3.5736 1.3309,8.3965 2.5992,9.9449 1.2675,1.5476 6.0000,7.6455 4.1432,13.9584 -0.0115,0.0383 -0.0252,0.0742 -0.0367,0.1133 1.8002,-0.0191 2.5672,-1.1329 2.5672,-1.1329 0,0 6.3331,-11.4508 7.0419,-12.7481 0.7088,-1.2973 -1.3205,-1.4001 -1.3205,-1.4001 l 0.4487,-0.7876 6.9304,-0.0017 c 3.7803,0 7.0251,1.4583 5.6673,4.7648 -1.8699,4.5518 -6.8046,4.2711 -6.8046,4.2711 -2.9644,0.0421 -3.7542,-0.5477 -3.7542,-0.5477 0,0 -2.8900,5.3268 -3.3033,6.1489 -0.4133,0.8220 -0.0593,1.3015 1.1922,1.4316 l -0.5701,0.9302 H 37.1108 c -2.2059,5.3172 -7.9343,5.6776 -11.3273,5.5835 -2.7439,-0.0758 -5.7359,-1.4442 -7.6103,-2.5456 -2.3383,-1.3754 -3.9050,1.1342 -3.9050,1.1342 H 12.4272 l 6.3866,-10.3720 h 1.5661 c -3.5844,7.6693 1.2231,9.9472 2.2227,10.2181 1.0256,0.2763 4.8643,1.1827 6.9844,-3.1066 2.1194,-4.2885 -2.1266,-9.5707 -2.9869,-10.6798 -0.8595,-1.1083 -5.6308,-5.1578 -3.3362,-11.9584 2.0915,-6.1978 6.7915,-7.4266 9.7755,-7.5390 z m 71.7002,0.8675 -0.0705,0.0216 -0.3864,0.1215 -0.3644,1.1200 0.8926,-1.2004 -0.0164,-0.0143 z m -3.7809,1.9352 -1.1576,1.9127 C 98.5679,45.6863 97.3074,45.4742 96.0369,45.2698 l 1.5847,-0.4210 0.2317,-0.0614 0.1210,-0.2071 0.0895,-0.1539 0.0091,0.4820 0.7435,-0.2334 z m -31.6429,0.2226 h 2.1522 a 153.6512,153.6512 0 0 1 16.8074,0.9354 c -0.5863,1.0103 -0.6701,1.7245 -0.6778,1.7965 l -0.0800,0.8554 0.8234,-0.2386 1.9434,-0.5641 1.1870,-0.3445 2.4669,-0.7794 a 158.6982,158.6982 0 0 1 5.3500,0.8796 L 86.8039,67.4126 c -0.6743,-1.5193 -1.4755,-3.0050 -2.3917,-4.1561 1.9885,-0.4723 4.3773,-1.7573 5.5614,-4.6429 0.7225,-1.7581 0.2978,-2.9895 -0.1867,-3.7135 -1.0073,-1.5071 -3.3271,-2.3718 -6.3650,-2.3718 l -6.8227,0.0013 h -0.4457 l -0.2870,0.3423 -0.6592,0.7880 c 0,0 -1.0061,1.2194 -1.0015,1.2194 0,0 2.3426,-1.5800e-4 2.0074,0.9099 L 69.2456,68.4829 c -0.2961,0.5221 -0.4713,0.1332 -0.4738,0.0968 2e-6,-2.4400e-4 -2.5000e-5,-0.0011 0,-0.0013 0.0421,-0.3659 1.4850,-10.9121 2.0377,-14.9457 l 0.1491,-1.0902 -1.0984,8.6400e-4 -2.8058,0.0030 h -0.0445 l -0.0445,0.0039 c -0.8871,0.0842 -1.7158,0.5525 -2.2776,1.2912 0,0 -1.5692,1.9409 -11.2300,13.9377 -0.0842,0.0880 -0.8076,0.8161 -1.8401,0.8161 h -0.6108 l -0.2563,0.5563 -0.4202,0.9103 -0.6285,1.3599 1.4965,-0.0013 h 6.2003 l 0.5537,0.0281 0.9981,-2.6774 c 0,0 -2.5344,0.1442 -1.8211,-0.6946 l 2.3956,-3.2622 h 3.3483 l -0.4824,2.9329 c -0.3322,1.1680 -2.3247,1.0569 -2.3247,1.0569 l -1.0422,2.6164 h 8.7943 c 0.3758,0.0154 2.0828,0.0151 6.5742,0.0043 l 1.4571,-0.0043 h 0.5291 l 0.2805,-0.4487 0.5697,-0.9090 0.7102,-1.1360 c -1.2958,0.0360 -1.7740,-0.5383 -1.4870,-1.1139 0.4095,-0.7983 1.8727,-3.4541 2.6052,-4.8058 0.1753,0.1822 0.4139,0.5797 0.6129,1.3275 0.0811,0.5442 0.7059,4.8119 0.7059,4.8119 l 0.0151,0.1033 c 0.2273,1.5890 0.8016,5.5675 4.6515,8.1148 -4.3781,0.3919 -8.9201,0.6129 -13.5768,0.6129 h -2.1522 c -12.3489,0 -23.8951,-1.5473 -33.7281,-3.7325 a 8.9590,8.9590 0 0 0 2.1431,-2.8231 h 8.3421 l 0.2801,-0.4543 0.5701,-0.9302 0.7954,-1.2959 c 0,0 -1.9649,0.2227 -1.6296,-0.8312 0.3398,-0.6682 1.7752,-3.2887 2.5728,-4.7613 0.6659,0.1776 1.7076,0.3315 3.3011,0.3108 1.9587,0.0957 6.0287,-0.7923 7.7011,-4.8642 0.7218,-1.7581 0.2966,-2.9896 -0.1872,-3.7144 C 58.4668,53.3732 56.1465,52.5088 53.1095,52.5088 l -7.6639,0.0017 c 0,0 -1.3049,2.4276 -1.3011,2.4276 0,0 2.0713,-0.0358 1.6564,0.9224 l -6.5638,11.9658 c -0.0811,0.0750 -0.2507,0.2149 -0.5109,0.3557 0.8672,-5.7902 -2.8822,-11.1640 -4.6502,-13.3247 -0.1309,-0.1592 -2.4049,-2.9759 -2.8771,-5.8553 a 152.8774,152.8774 0 0 1 8.4070,-1.8820 7.0378,7.0378 0 0 1 0.1033,0.3030 c 0.1868,1.1948 0.1905,3.0576 -0.2879,3.5635 l -0.4612,0.4884 0.3004,0.6008 0.6812,1.3603 0.7707,1.5397 0.8987,-1.4679 4.6092,-7.5278 c 7.1771,-1.0823 14.9608,-1.7550 23.0955,-1.7550 z m 37.1741,0.3017 2.6942,2.3333 0.7348,0.6371 0.0424,-0.1898 0.0104,0.0467 0.1673,0.1275 1.3962,1.0664 c -1.2905,-0.3437 -2.6175,-0.6776 -3.9776,-0.9998 a 40.2959,40.2959 0 0 0 -1.0677,-3.0215 z m -71.3414,0.2935 c 0.1672,-0.0069 0.3364,-0.0025 0.5070,0.0138 1.0807,0.1041 1.9604,0.6706 2.5659,1.6197 a 155.6114,155.6114 0 0 0 -6.1514,1.3763 c 0.0222,-0.4990 0.1301,-0.9788 0.3605,-1.4174 0.4936,-0.9410 1.5479,-1.5441 2.7180,-1.5924 z m 70.1440,0.3951 a 38.7544,38.7544 0 0 1 0.7115,1.9733 c -0.5143,-0.1171 -1.0341,-0.2320 -1.5592,-0.3445 z m -1.2907,2.4799 a 147.5877,147.5877 0 0 1 9.5140,2.3606 l 3.5026,2.6744 0.3670,0.2818 c -0.2679,-0.0766 -0.5453,-0.1301 -0.8278,-0.1500 -2.0520,-0.4034 -6.2319,-0.0076 -7.8048,4.3329 -1.3065,3.6043 1.0431,5.9960 1.8146,6.7821 0.0789,0.0796 0.1600,0.1613 0.1898,0.1988 l 0.0393,0.0454 c 1.9104,2.2617 1.8665,3.5743 1.4930,4.2755 -0.6866,1.2905 -1.7328,1.2420 -2.6597,1.0958 l -0.1690,-0.0251 c -0.1209,-0.0253 -0.6684,-0.2526 -0.9462,-0.8282 -0.3352,-0.6973 -0.1846,-1.7167 0.4361,-2.9497 l 0.6981,-1.3884 h -2.9130 l -0.2840,0.4184 -2.7211,4.0010 h -1.0253 c -0.0122,-7.6600e-4 -0.4833,-0.0585 -0.5399,-0.3363 l -1.4697,-7.8956 2.4967,-1.9287 c 1.6579,-1.2843 3.2248,-2.4984 3.5730,-2.7388 0.5335,-0.3705 1.1388,-0.7327 2.1552,-0.7327 h 0.6073 l 0.2585,-0.5494 0.3605,-0.7668 0.6415,-1.3664 h -7.3242 l -0.8550,1.9884 c 0,0 0.8131,0.3353 0.3691,0.7954 l -4.8901,3.7650 z m 8.5462,1.1230 10e-4,0.0039 -10e-4,-8.6500e-4 z m -55.1711,0.2343 c -0.4646,0 -0.6697,0.1049 -0.8909,0.5144 l -0.1301,0.2403 c -0.2204,0.4095 -0.1284,0.5144 0.3354,0.5144 h 1.5406 l -0.2689,0.4975 h -1.7472 l 0.1383,-0.2572 -0.5572,0.0925 -0.0320,0.0597 c -0.2212,0.4087 -0.1249,0.5144 0.3389,0.5144 h 1.5272 c 0.4638,0 0.6736,-0.1057 0.8948,-0.5144 l 0.1617,-0.2991 c 0.2212,-0.4087 0.1245,-0.5144 -0.3393,-0.5144 h -1.5414 l 0.2524,-0.4677 v -0.0017 h 1.6214 l -0.1349,0.2490 0.5641,-0.1050 0.0251,-0.0467 c 0.2028,-0.3750 0.0852,-0.4759 -0.3549,-0.4759 z m 35.0759,0 c -0.4646,0 -0.6697,0.1049 -0.8909,0.5144 L 91.4316,49.8072 c -0.2212,0.4095 -0.1296,0.5144 0.3350,0.5144 h 1.5419 l -0.2697,0.4975 h -1.7472 l 0.1392,-0.2572 -0.5563,0.0925 -0.0328,0.0597 c -0.2212,0.4087 -0.1257,0.5144 0.3389,0.5144 h 1.5276 c 0.4638,0 0.6744,-0.1057 0.8956,-0.5144 l 0.1617,-0.2991 c 0.2212,-0.4087 0.1237,-0.5144 -0.3393,-0.5144 h -1.5414 l 0.2524,-0.4677 v -0.0017 h 1.6184 l -0.1349,0.2490 0.5650,-0.1050 0.0251,-0.0467 c 0.2021,-0.3750 0.0836,-0.4759 -0.3557,-0.4759 z m -44.9136,8.6400e-4 -1.1762,2.1751 h 2.4271 l 0.2205,-0.4089 h -1.8518 l 0.9544,-1.7662 z m 4.6926,0 c -0.4638,0 -0.6688,0.1045 -0.8900,0.5140 l -0.6199,1.1476 c -0.2212,0.4087 -0.1293,0.5144 0.3346,0.5144 h 1.8185 c 0.4646,0 0.6697,-0.1057 0.8909,-0.5144 l 0.6199,-1.1476 c 0.2212,-0.4095 0.1293,-0.5140 -0.3346,-0.5140 z m 12.8856,0 -2.5732,2.1751 h 0.5740 L 63.6621,50.7517 h 1.5652 l 0.0398,0.4768 h 0.6462 L 65.6730,49.0534 Z m 3.6266,0 -1.1749,2.1760 h 0.5174 l 0.6350,-1.1766 a 4.1844,4.1844 0 0 0 0.1634,-0.3458 0.8603,0.8603 0 0 0 0.1102,0.1768 l 1.0867,1.3448 h 0.3925 l 1.1757,-2.1751 h -0.5174 l -0.6168,1.1425 c -0.0367,0.0673 -0.0955,0.1938 -0.1790,0.3752 -0.0390,-0.0888 -0.0936,-0.1648 -0.1556,-0.2360 l -1.0448,-1.2816 z m 5.5904,0 c -0.4631,0 -0.6699,0.1045 -0.8896,0.5140 l -0.6207,1.1476 c -0.2212,0.4087 -0.1292,0.5144 0.3354,0.5144 h 1.7044 c 0.4631,0 0.6684,-0.1057 0.8896,-0.5144 l 0.4063,-0.7508 h -1.4978 L 74.4612,50.3350 h 0.9376 l -0.2619,0.4846 h -1.7956 l 0.7465,-1.3785 v 8.6500e-4 h 1.7939 l -0.1314,0.2442 0.6086,-0.0886 0.0264,-0.0506 c 0.2120,-0.3926 0.1034,-0.4936 -0.3467,-0.4936 z m 4.3995,0 -1.1749,2.1751 h 2.5503 l 0.2213,-0.4089 h -1.9763 l 0.2913,-0.5395 h 1.1390 l 0.2006,-0.3713 H 78.8456 l 0.2615,-0.4850 h 1.9525 l 0.2023,-0.3704 z m 4.4777,0 -1.1775,2.1751 h 2.4263 l 0.2213,-0.4089 h -1.8514 l 0.9553,-1.7662 z m 4.1328,0 -1.1762,2.1751 h 2.5516 l 0.2213,-0.4089 h -1.9776 l 0.2913,-0.5395 H 88.3937 l 0.2019,-0.3713 h -1.1394 l 0.2615,-0.4850 h 1.9529 l 0.2001,-0.3704 z m -35.3595,0.3877 h 1.8959 l -0.7456,1.3785 h -1.8950 z m 13.1631,0.0337 0.0527,0.8857 h -1.0824 z m 52.6869,1.8920 c 11.5108,3.7083 18.6143,7.8495 18.6143,9.7331 0,2.0283 -8.2393,6.6757 -21.3544,10.5808 1.6418,-0.6330 2.7353,-1.7765 3.2558,-3.4282 1.0884,-3.4519 -1.3706,-6.7240 -2.4781,-7.9708 -0.5993,-0.6735 -2.0029,-2.6921 -1.3141,-3.9106 0.3184,-0.5633 1.0944,-0.9030 1.8881,-0.8234 0.4906,0.0498 1.3622,0.3037 1.7610,1.4442 0.0819,0.5182 0.0647,1.1544 -0.0372,1.3305 l -0.5010,0.4906 0.3471,0.6367 0.3735,0.6860 0.7590,1.3988 0.8775,-1.3288 2.9203,-4.4276 0.3454,-0.5243 -0.3419,-0.5265 -0.3921,-0.6065 c 0,0 -0.5582,-0.8611 -0.5632,-0.8580 l -0.8191,0.6177 c -0.2916,0.2204 -0.9711,0.5544 -1.3002,0.3691 -0.1064,-0.0605 -0.2334,-0.1372 -0.3665,-0.2183 -0.4210,-0.2533 -0.9300,-0.5556 -1.4887,-0.7906 l -0.0674,-1.0119 c -0.0050,-0.0490 -0.0300,-0.3614 -0.1180,-0.8619 z M 21.7060,51.7749 c -0.2319,4.6651 2.5618,7.7537 3.7490,9.0649 0.1676,0.1852 0.3138,0.3450 0.3903,0.4452 l 0.0683,0.0864 c 3.8170,4.9024 3.6378,7.9142 2.8157,9.5766 a 6.2074,6.2074 0 0 1 -0.8900,1.3534 128.3740,128.3740 0 0 1 -7.7841,-2.4427 c -0.1439,-1.4428 0.2517,-3.1779 1.1909,-5.1901 l 0.6376,-1.3629 h -3.6024 l -0.2805,0.4560 -2.6571,4.3148 C 8.3930,65.2362 4.3353,62.5228 4.3353,61.0999 c 0,-1.8148 6.5939,-5.7254 17.3707,-9.3251 z m 31.1869,2.8715 c -0.1087,-0.0045 -0.2105,-0.0033 -0.3009,8.6500e-4 -0.2410,0.0112 -0.4016,0.0432 -0.4016,0.0432 l -3.6106,6.6697 c 3.0685,1.4604 6.1816,-2.4657 6.1808,-4.8231 0,-1.5481 -1.1068,-1.8594 -1.8678,-1.8907 z m 30.3133,0.0181 c -0.1087,-0.0045 -0.2105,-0.0033 -0.3009,8.6500e-4 -0.2409,0.0112 -0.4016,0.0432 -0.4016,0.0432 l -3.6115,6.6706 c 3.0692,1.4588 6.1813,-2.4655 6.1813,-4.8244 0,-1.5476 -1.1065,-1.8590 -1.8674,-1.8903 z M 65.5848,55.7827 59.6469,63.1687 h 4.6182 z m 29.3554,9.1863 c 0.4723,2.1148 1.0701,4.7967 1.0716,4.7998 0.1845,0.8014 0.9672,1.6517 2.0571,1.6517 h 3.8722 c -4.2082,5.1396 -8.4598,4.5716 -8.6542,4.5417 l -0.0406,-0.0078 -0.0419,-0.0030 c -3.0065,-0.2319 -4.1234,-2.4054 -4.8750,-4.5309 h 5.0695 l 0.2805,-0.4487 0.5719,-0.9086 c 0,0 0.7133,-1.1952 0.7072,-1.1952 0,0 -2.1515,0.2884 -1.7688,-0.8628 z m 11.1401,5.7892 c 0.1612,-0.0048 0.3009,0.0709 0.3674,0.1063 0.7463,0.4049 2.6865,1.3520 4.5893,1.4009 1.0540,0.0268 1.9972,-0.0517 2.8369,-0.2269 a 148.0860,148.0860 0 0 1 -11.3571,2.7764 22.2968,22.2968 0 0 0 2.8922,-3.3876 l 0.1617,-0.2351 c 0.0727,-0.1072 0.1417,-0.2103 0.2075,-0.3121 0.1010,-0.0870 0.2054,-0.1190 0.3021,-0.1219 z m -71.8471,5.5835 a 160.4426,160.4426 0 0 0 6.8007,1.3901 26.4207,26.4207 0 0 0 0.9652,3.3128 c 2.2870,6.2189 5.9064,10.5126 9.3316,13.4043 -7.6379,-3.8584 -13.8282,-10.1599 -17.5756,-17.8721 0.1607,-0.0765 0.3227,-0.1532 0.4781,-0.2351 z m 69.7554,0.3601 c -0.3842,0.7853 -0.7916,1.5551 -1.2263,2.3083 0.0872,-0.6460 0.1678,-1.3494 0.2382,-2.0995 0.3306,-0.0681 0.6605,-0.1368 0.9881,-0.2088 z m -2.7945,0.5762 c -0.2602,2.6207 -0.6460,4.5731 -0.8282,5.3998 -1.5179,2.0634 -3.2332,3.9713 -5.1184,5.6963 l 0.0048,0.0061 -0.0056,-0.0052 c -4.3761,4.0041 -9.6661,7.0223 -15.5189,8.7113 l 8.6500e-4,0.0026 -0.1630,0.0514 c 0.0539,-0.0184 0.1071,-0.0382 0.1621,-0.0540 L 74.3648,80.2437 a 154.9325,154.9325 0 0 0 15.0551,-1.0958 17.4740,17.4740 0 0 0 1.1122,0.2166 l 0.0424,0.0061 0.0419,0.0030 a 14.5961,14.5961 0 0 0 7.6937,-1.5544 c 0.9736,-0.1737 1.9349,-0.3529 2.8840,-0.5412 z m -58.3171,0.7755 c 8.0382,1.3632 16.8394,2.2300 25.9652,2.2300 h 2.1522 c 0.5258,0 1.0509,-0.0030 1.5760,-0.0091 l 5.4940,17.2604 c -2.9407,0.7088 -6.0096,1.0854 -9.1669,1.0854 a 39.0184,39.0184 0 0 1 -9.3212,-1.1243 l -0.3467,-0.1586 C 59.1241,97.3075 48.6298,94.0845 43.6149,80.4482 43.3248,79.6606 43.0814,78.8625 42.8771,78.0535 Z" /><path
       id="path5-6"
       style="fill:#00b398;fill-opacity:1;stroke-width:0.7654"
       d="m 68.5332,20.3286 a 38.9488,38.9488 0 0 0 -12.5450,2.1851 l 1.8086,5.6807 a 53.4155,53.4155 0 0 1 8.7861,-1.4018 c -0.2090,-2.7462 1.1130,-5.2041 1.9503,-6.4640 z m 2.2992,0.0437 c -0.9514,1.2721 -2.7140,3.9740 -2.5257,6.3192 0.7348,-0.0314 1.4711,-0.0527 2.2097,-0.0527 4.2763,0 8.4623,0.5113 12.4715,1.4887 3.2040,-0.7111 5.9754,-0.8376 8.3175,-0.7266 A 38.8209,38.8209 0 0 0 70.8324,20.3723 Z m -16.4577,2.7479 a 39.0314,39.0314 0 0 0 -10.6802,6.4398 8.5946,8.5946 0 0 1 3.5233,2.4695 52.3784,52.3784 0 0 1 8.9123,-3.3945 z m 16.1418,5.2437 c -0.6054,0 -1.2089,0.0144 -1.8120,0.0359 1.3846,3.5277 6.1886,6.9668 14.6034,10.4563 3.5606,-2.9422 7.8606,-3.8991 11.2223,-4.3775 -0.1003,-0.0566 -0.2008,-0.1150 -0.3026,-0.1716 -2.1469,-0.3199 -4.4309,-0.6896 -6.0918,-1.0041 a 0.6337,0.6337 0 0 1 -0.4690,-0.3825 0.6123,0.6123 0 0 1 -0.0454,-0.4003 c -1.2859,0.5388 -1.5132,0.4990 -1.6486,0.4738 a 32.7644,32.7644 0 0 0 -1.4273,-0.2274 c -0.4332,-0.0628 -0.8834,-0.1278 -1.3862,-0.2205 0,0 -0.3465,-0.0644 -0.3588,-0.0743 l -0.1050,-0.3367 a 1.0111,1.0111 0 0 1 -0.0359,-0.1418 c -0.7164,0.3238 -0.8832,0.2966 -1.0072,0.2736 -1.1971,-0.2220 -5.3157,-0.7741 -5.3578,-0.7802 l -2.0895,-0.2792 1.9356,-0.8360 a 41.2319,41.2319 0 0 1 3.2458,-1.2423 c -2.8878,-0.5059 -5.8550,-0.7651 -8.8699,-0.7651 z m -3.6029,0.1340 c -2.9185,0.2067 -5.7969,0.6604 -8.5937,1.3409 l 4.3230,13.5802 c 2.2013,-0.1003 4.4267,-0.1535 6.6732,-0.1535 h 2.1522 c 5.9808,0 11.8204,0.3756 17.4009,1.0162 0.1424,-0.1822 0.2975,-0.3697 0.4720,-0.5611 a 34.5401,34.5401 0 0 0 -3.0867,-1.7221 l -5.2294,0.8381 -1.3767,0.2213 0.8105,-1.1377 A 16.3412,16.3412 0 0 1 81.9254,40.1463 C 73.0369,36.3713 68.2017,32.6218 66.9136,28.4978 Z m -10.2618,1.7761 a 50.7053,50.7053 0 0 0 -8.4554,3.1896 c 1.1397,2.4064 1.4589,7.2345 0.9951,11.1488 a 158.7128,158.7128 0 0 1 11.6731,-1.1036 z m -14.7041,0.8528 a 39.2572,39.2572 0 0 0 -6.5893,8.2708 c 0.2771,0.0344 0.4893,0.0704 0.6164,0.0934 0.0628,0.0046 0.1263,0.0131 0.1906,0.0208 2.7998,-2.5625 5.9869,-4.8096 9.4664,-6.6710 -1.6349,-1.6946 -3.6841,-1.7139 -3.6841,-1.7139 z m 4.7181,3.1105 c -3.0914,1.6318 -5.9496,3.5752 -8.4969,5.7819 1.2667,0.4922 2.3944,1.2261 3.3068,1.8215 0.2442,0.1592 0.4753,0.3102 0.6674,0.4288 0.4317,0.2648 1.5160,-0.2611 2.1008,-0.7249 l 0.8490,-0.6994 0.3385,-0.2788 0.4314,0.0752 c 0.4340,0.0758 0.5324,0.2384 0.9449,0.9281 l 0.2853,0.4776 0.5256,0.8805 c 0.2151,-3.2384 -0.0518,-6.8796 -0.9527,-8.6905 z m 45.7760,5.9448 -0.9047,0.9804 -0.1379,0.1487 -0.2001,0.0320 -1.9452,0.3056 c 0.4738,0.2748 0.9417,0.5577 1.4040,0.8524 a 14.8939,14.8939 0 0 1 1.8367,-1.2328 l -0.1937,0.0259 0.0960,-0.7517 z m 8.5168,3.8203 -2.1423,0.6726 -0.7435,0.2334 -0.0091,-0.4820 -0.0895,0.1539 -0.1210,0.2071 -0.2317,0.0614 -1.5847,0.4210 c 1.2706,0.2044 2.5310,0.4165 3.7641,0.6454 z m -65.8102,0.8178 c -1.1701,0.0483 -2.2244,0.6515 -2.7180,1.5924 -0.2304,0.4386 -0.3383,0.9183 -0.3605,1.4174 a 155.6114,155.6114 0 0 1 6.1514,-1.3763 c -0.6054,-0.9491 -1.4851,-1.5156 -2.5659,-1.6197 -0.1706,-0.0164 -0.3399,-0.0207 -0.5070,-0.0138 z m 70.1440,0.3951 -0.8477,1.6287 c 0.5251,0.1125 1.0448,0.2274 1.5592,0.3445 a 38.7544,38.7544 0 0 0 -0.7115,-1.9733 z M 34.2332,76.3417 c -0.1554,0.0819 -0.3173,0.1586 -0.4781,0.2351 3.7474,7.7121 9.9377,14.0137 17.5756,17.8721 -3.4252,-2.8917 -7.0446,-7.1854 -9.3316,-13.4043 A 26.4207,26.4207 0 0 1 41.0339,77.7319 160.4426,160.4426 0 0 1 34.2332,76.3417 Z m 69.7554,0.3601 c -0.3276,0.0720 -0.6575,0.1407 -0.9881,0.2088 -0.0704,0.7501 -0.1509,1.4535 -0.2382,2.0995 0.4347,-0.7532 0.8421,-1.5230 1.2263,-2.3083 z m -2.7945,0.5762 c -0.9491,0.1883 -1.9104,0.3674 -2.8840,0.5412 a 14.5961,14.5961 0 0 1 -7.6937,1.5544 l -0.0419,-0.0030 -0.0424,-0.0061 a 17.4740,17.4740 0 0 1 -1.1122,-0.2166 154.9325,154.9325 0 0 1 -15.0551,1.0958 l 5.3630,16.8425 c 8.3744,-2.4166 15.5967,-7.5549 20.6381,-14.4084 0.1822,-0.8266 0.5680,-2.7790 0.8282,-5.3998 z M 79.7278,97.0862 c -0.0831,0.0240 -0.1622,0.0570 -0.2455,0.0804 l 0.2464,-0.0778 z M 42.8771,78.0535 c 0.2044,0.8090 0.4478,1.6071 0.7379,2.3947 5.0149,13.6363 15.5092,16.8593 15.6148,16.8891 l 0.3467,0.1586 a 39.0184,39.0184 0 0 0 9.3212,1.1243 c 3.1573,0 6.2262,-0.3766 9.1669,-1.0854 L 72.5705,80.2744 c -0.5251,0.0061 -1.0502,0.0091 -1.5760,0.0091 h -2.1522 c -9.1258,0 -17.9270,-0.8668 -25.9652,-2.2300 z" /><path
       id="path8-1"
       style="fill:#ffc72c;fill-opacity:1;stroke-width:0.7654"
       d="m 106.2489,21.3258 0.3389,9.9311 -8.7943,-6.5716 c 0,0 4.3488,5.0285 6.3174,7.7893 l -9.1012,-1.8613 8.6629,4.8793 -9.1362,1.8501 8.1104,0.8641 -5.2433,3.1762 7.0458,-1.3149 a 7.0156,7.0156 0 0 1 -0.0765,0.2779 L 87.2171,68.6169 c 0,0 -0.1930,0.3498 -0.6951,0.6177 -0.8282,-2.1171 -2.3557,-5.4551 -4.2409,-6.7134 0,0 4.9331,0.2809 6.8037,-4.2724 1.3570,-3.3035 -1.8866,-4.7626 -5.6669,-4.7626 l -6.8232,0.0017 -0.6588,0.7876 c 0,0 2.1317,0.1024 1.4230,1.4005 -0.7088,1.2958 -7.3994,13.4873 -7.3994,13.4873 0,0 -0.3458,0.4032 -1.2207,0.4988 -0.8144,-0.2449 -0.9621,-0.8249 -0.9216,-1.1900 0.0452,-0.4049 2.0407,-14.9703 2.0407,-14.9703 l -2.8062,0.0030 c -1.0578,0.0995 -1.5981,0.9156 -1.6149,0.9294 -0.0176,0.0138 -11.2564,13.9697 -11.2564,13.9697 0,0 -0.9983,1.1498 -2.5659,1.1498 l -0.4193,0.9099 c 0.9001,0 6.1935,-0.0015 6.2210,0 l 0.3160,-0.9099 c -0.7003,0 -2.0487,-0.5963 -1.6499,-1.3962 0.2954,-0.5917 2.9566,-4.3005 2.9566,-4.3005 h 4.9588 l -0.6804,4.1328 c -0.3605,1.0823 -1.4312,1.4490 -2.6130,1.6702 l -0.2680,0.8044 h 7.3938 c 0.2962,0.0237 7.0718,0 8.0171,0 l 0.5693,-0.9099 c -1.2752,-0.3008 -1.6058,-0.6100 -1.1917,-1.4321 0.4125,-0.8236 3.3020,-6.1484 3.3020,-6.1484 0,0 1.3586,-0.6008 2.0796,2.1630 0,0 0.4293,2.8937 0.7132,4.8746 0.2855,1.9793 1.0178,8.0843 9.3584,9.4076 7.6976,0.5266 12.4694,-5.2918 14.3094,-8.0962 0.2510,-0.2794 0.9220,-0.8374 1.9132,-0.3009 1.0256,0.5564 2.6598,1.2465 4.1592,1.2855 1.9655,0.0490 5.3716,-0.1566 6.3758,-3.3422 1.0042,-3.1871 -1.5856,-6.2639 -2.2806,-7.0454 -0.6935,-0.7815 -2.4516,-3.2157 -1.4321,-5.0189 1.0195,-1.8048 4.4845,-1.9786 5.4114,0.8472 0,0 0.3044,1.6685 -0.2827,2.2425 l 0.3735,0.6873 2.9208,-4.4285 -0.3903,-0.6069 c 0,0 -1.3241,1.0227 -2.3497,0.4418 -0.6996,-0.3957 -1.8521,-1.2187 -2.9795,-1.2700 0,0 -5.0502,-1.0569 -6.7769,3.7092 -1.2438,3.4320 1.3664,5.4757 1.8371,6.0352 0.4722,0.5603 2.7968,3.2261 1.6456,5.3907 -1.1527,2.1645 -3.2339,1.6419 -3.8095,1.5669 -0.5771,-0.0750 -3.1748,-1.2861 -1.2276,-5.1560 h -0.8567 l -3.0033,4.4172 h -1.5367 c -0.3215,0 -1.2920,-0.2197 -1.4757,-1.1182 L 99.6449,60.1882 c 2.4738,-1.8997 5.9886,-4.6491 6.5733,-5.0548 0.5848,-0.4057 1.3944,-0.9017 2.6994,-0.9017 l 0.3605,-0.7668 h -5.1754 l -0.3155,0.7668 c 1.5186,0.4738 -0.2377,1.8263 -0.2377,1.8263 l -8.2405,6.1843 1.6313,7.3121 c 0.0819,0.3590 0.4941,0.9099 1.1256,0.9099 h 4.4164 l 0.0050,-0.0151 1.2842,0.0091 -0.0020,0.0030 h 0.0705 c -4.9827,7.3937 -10.7109,6.4462 -10.7109,6.4462 -4.3651,-0.3360 -5.3847,-4.2880 -5.9496,-5.8800 -0.0314,-0.0880 -0.0984,-0.2869 -0.1971,-0.5632 h 5.8865 l 0.5680,-0.9099 c 0,0 -2.0252,-0.0990 -1.3517,-1.4874 l 14.3587,-27.0100 0.4366,-0.5987 5.1992,4.3822 c -0.6307,-1.7038 -2.2352,-6.5236 -2.2352,-6.5236 l 8.7947,4.1384 -6.3179,-4.7980 9.5257,-0.7037 -10.3504,-1.6063 9.3774,-5.4529 -10.0081,2.8728 4.4216,-8.8120 -6.3174,6.7177 z m -53.1058,2.5283 1.5241,6.2898 -6.6775,-3.2177 6.1264,4.0152 -8.5773,-0.3570 8.4554,1.5834 -6.4367,3.1291 6.7065,-2.2296 -4.2521,5.8454 5.4400,-4.6775 0.6384,6.8664 0.2913,-7.3194 3.2523,6.4229 -2.5183,-6.9122 7.1214,1.4710 -6.8020,-2.6208 6.9373,-1.7493 -7.0367,0.6199 2.2936,-6.9170 -3.6798,6.3490 z m 54.1782,4.6273 1.1654,3.8955 2.6238,-2.1427 -2.0402,3.7001 4.6161,-0.8273 -4.7617,2.2875 4.4700,1.3633 -2.7747,0.1906 1.5116,1.5133 -3.6936,-1.3633 1.4040,4.0481 -2.5205,-2.3925 -3.4032,4.5763 1.4520,-4.4639 -3.5895,0.6670 3.0612,-1.8021 -3.8864,-0.5840 4.6161,-1.3629 -5.1024,-3.2134 5.5316,1.2216 -2.3727,-3.5583 3.8868,2.6294 z m -49.8236,0.2550 -0.6912,2.5750 2.0437,0.1284 -1.9184,0.5918 1.0845,0.9008 -1.2752,-0.4279 0.4457,2.0100 -0.8965,-1.7710 -0.2922,1.5566 -0.2792,-1.1213 -1.9145,1.6357 1.4182,-2.5188 -1.6041,0.5312 1.3633,-0.8373 -2.0584,-0.5421 2.3078,0.0756 -1.4169,-1.2025 1.4813,0.6553 -0.4141,-2.0221 1.0253,2.4915 z m 13.9347,3.0172 0.8100,3.7887 -3.4308,-1.5773 2.8231,1.9158 -3.7477,1.1157 3.8155,-0.6082 -3.4779,2.9091 3.8639,-2.3874 -1.4070,3.5117 1.8315,-3.2549 0.4081,3.7948 0.4694,-3.7615 2.6804,2.4557 -2.4786,-2.9627 3.5462,1.3521 -3.4304,-1.8047 3.3016,-1.9573 -3.5851,1.3940 2.0904,-3.1490 -2.5296,2.7431 z m 0.8100,2.5711 0.6415,1.2514 0.8446,-0.6765 -0.5395,0.9129 0.7418,-0.0337 -0.6492,0.2866 0.8866,0.6272 -0.9773,-0.3735 0.4361,0.7119 -0.5066,-0.3385 -0.1694,1.3188 -0.3376,-1.4887 -0.4374,0.7794 0.2356,-0.8122 -0.9959,0.5200 0.9285,-0.7910 -0.9791,0.0337 0.8109,-0.2702 -0.8796,-0.6428 1.2842,0.6086 z m -39.2031,6.8750 c -2.9840,0.1124 -7.6839,1.3412 -9.7755,7.5390 -2.2947,6.8006 2.4766,10.8501 3.3362,11.9584 0.8603,1.1091 5.1063,6.3912 2.9869,10.6798 -2.1202,4.2893 -5.9588,3.3829 -6.9844,3.1066 -0.9996,-0.2710 -5.8070,-2.5488 -2.2227,-10.2181 h -1.5661 l -6.3866,10.3720 h 1.8410 c 0,0 1.5667,-2.5097 3.9050,-1.1342 1.8745,1.1014 4.8664,2.4698 7.6103,2.5456 3.3930,0.0941 9.1214,-0.2662 11.3273,-5.5835 h 8.4260 l 0.5701,-0.9302 c -1.2514,-0.1301 -1.6055,-0.6096 -1.1922,-1.4316 0.4133,-0.8220 3.3033,-6.1489 3.3033,-6.1489 0,0 0.7898,0.5898 3.7542,0.5477 0,0 4.9347,0.2807 6.8046,-4.2711 1.3578,-3.3065 -1.8870,-4.7648 -5.6673,-4.7648 l -6.9304,0.0017 -0.4487,0.7876 c 0,0 2.0293,0.1027 1.3205,1.4001 -0.7088,1.2973 -7.0419,12.7481 -7.0419,12.7481 0,0 -0.7670,1.1138 -2.5672,1.1329 0.0115,-0.0390 0.0253,-0.0750 0.0367,-0.1133 1.8569,-6.3130 -2.8757,-12.4108 -4.1432,-13.9584 -1.2683,-1.5484 -4.4751,-6.3713 -2.5992,-9.9449 1.8760,-3.5736 8.2229,-3.9196 9.9060,1.6793 0,0 0.5503,3.3049 -0.5274,4.4453 l 0.6808,1.3594 5.3717,-8.7731 -0.7171,-1.2008 c 0,0 -2.4295,2.0252 -4.3070,0.8740 -1.2782,-0.7845 -3.3851,-2.4139 -5.4486,-2.5157 0,0 -0.5779,-0.1311 -1.4943,-0.1798 -0.3436,-0.0183 -0.7348,-0.0251 -1.1610,-0.0091 z m 19.8536,13.4466 c 0.7610,0.0313 1.8678,0.3426 1.8678,1.8907 7.6500e-4,2.3574 -3.1124,6.2835 -6.1808,4.8231 l 3.6106,-6.6697 c 0,0 0.1606,-0.0321 0.4016,-0.0432 0.0904,-0.0042 0.1921,-0.0053 0.3009,-8.6500e-4 z m 30.3133,0.0181 c 0.7608,0.0313 1.8674,0.3427 1.8674,1.8903 0,2.3590 -3.1120,6.2833 -6.1813,4.8244 l 3.6115,-6.6706 c 0,0 0.1607,-0.0321 0.4016,-0.0432 0.0903,-0.0042 0.1922,-0.0053 0.3009,-8.6500e-4 z M 65.5848,55.7827 64.2651,63.1687 h -4.6182 z m -14.2792,22.9948 -2.4072,5.5130 -4.2167,-4.5357 3.2285,5.3410 -6.0529,-0.5887 5.3060,1.4243 -5.1184,3.6811 5.4879,-2.9437 -3.2752,5.5489 4.1384,-4.9580 -0.2931,6.0888 1.0733,-5.9236 2.6199,5.5614 -1.2661,-5.9738 5.3747,2.3221 -5.3332,-3.2026 6.1099,0.1867 -6.1744,-0.9358 3.9984,-4.7233 -4.7246,4.0183 z m 22.3991,0.7690 -1.6011,8.2479 -5.5022,-6.0710 4.0027,6.2280 -8.4230,-0.9687 8.1277,2.0372 -9.4068,2.8391 9.7336,-1.4679 -5.7871,5.8048 6.4147,-4.9333 -2.4072,7.9172 4.1293,-7.1011 3.2622,7.1832 -2.4263,-8.0231 5.9211,5.7209 -5.3111,-6.5253 8.2501,-1.0867 -8.3352,-0.2762 6.8435,-4.4998 -7.3747,3.3158 z m 16.4063,0.0782 0.8974,4.1972 -3.8017,-1.7472 3.1287,2.1232 -4.1544,1.2376 4.2296,-0.6761 -3.8540,3.2246 4.2811,-2.6458 -1.5592,3.8912 2.0307,-3.6072 0.4508,4.2050 0.5204,-4.1674 2.9718,2.7202 -2.7461,-3.2830 3.9288,1.4995 -3.8034,-2.0001 3.6612,-2.1691 -3.9750,1.5445 2.3169,-3.4892 -2.8028,3.0409 z m 0.8974,2.8494 0.7115,1.3854 0.9354,-0.7487 -0.5991,1.0119 0.8234,-0.0376 -0.7201,0.3173 0.9821,0.6946 -1.0824,-0.4141 0.4828,0.7902 -0.5602,-0.3761 -0.1876,1.4628 -0.3735,-1.6508 -0.4876,0.8624 0.2632,-0.9000 -1.1044,0.5771 1.0288,-0.8758 -1.0837,0.0376 0.8961,-0.3009 -0.9726,-0.7115 1.4226,0.6743 z m -43.7388,0.7668 1.6348,1.5661 0.9294,-1.4749 -0.3415,1.6754 1.1131,-0.4439 -0.8381,0.7794 1.6785,0.4850 -1.6841,-0.0501 1.0396,0.8515 -0.9492,-0.2477 0.4379,2.0986 -1.2972,-2.0882 -0.2589,1.4169 -0.0679,-1.3616 -1.2423,1.3188 0.9972,-1.6940 -1.4727,0.5680 1.0910,-0.8403 -1.6750,-0.5144 2.2741,0.2485 z m 25.8680,2.1241 0.2174,3.0440 2.2572,-0.6315 -1.8522,1.3625 1.5103,0.5650 -1.5388,0.0177 1.2350,2.0061 -1.6326,-1.5782 0.2676,1.7926 -0.7232,-1.1070 -1.4567,2.4876 0.5896,-3.2562 -1.5354,1.1775 1.1597,-1.4178 -2.4271,0.1885 2.5235,-0.7863 -1.9819,-0.7668 1.8453,0.1509 -1.2047,-2.0299 2.0424,2.3078 z" /><path
       id="path9-2"
       style="fill:#702f8a;fill-opacity:1;stroke-width:0.7654"
       d="m 69.3156,44.2251 c -8.1346,0 -15.9183,0.6727 -23.0955,1.7550 l -4.6092,7.5278 -0.8987,1.4679 -0.7707,-1.5397 -0.6812,-1.3603 -0.3004,-0.6008 0.4612,-0.4884 c 0.4784,-0.5059 0.4746,-2.3687 0.2879,-3.5635 a 7.0378,7.0378 0 0 0 -0.1033,-0.3030 152.8774,152.8774 0 0 0 -8.4070,1.8820 c 0.4723,2.8794 2.7462,5.6961 2.8771,5.8553 1.7681,2.1607 5.5174,7.5345 4.6502,13.3247 0.2602,-0.1408 0.4298,-0.2807 0.5109,-0.3557 L 45.8008,55.8605 c 0.4148,-0.9583 -1.6564,-0.9224 -1.6564,-0.9224 -0.0038,0 1.3011,-2.4276 1.3011,-2.4276 l 7.6639,-0.0017 c 3.0371,0 5.3574,0.8644 6.3654,2.3722 0.4837,0.7248 0.9089,1.9563 0.1872,3.7144 -1.6724,4.0719 -5.7424,4.9599 -7.7011,4.8642 -1.5936,0.0207 -2.6353,-0.1332 -3.3011,-0.3108 -0.7975,1.4726 -2.2330,4.0931 -2.5728,4.7613 -0.3352,1.0540 1.6296,0.8312 1.6296,0.8312 l -0.7954,1.2959 -0.5701,0.9302 -0.2801,0.4543 h -8.3421 a 8.9590,8.9590 0 0 1 -2.1431,2.8231 c 9.8331,2.1852 21.3792,3.7325 33.7281,3.7325 h 2.1522 c 4.6567,0 9.1987,-0.2211 13.5768,-0.6129 -3.8499,-2.5472 -4.4242,-6.5258 -4.6515,-8.1148 L 80.3762,69.1464 c 0,0 -0.6247,-4.2677 -0.7059,-4.8119 -0.1990,-0.7478 -0.4377,-1.1453 -0.6129,-1.3275 -0.7325,1.3517 -2.1957,4.0075 -2.6052,4.8058 -0.2870,0.5756 0.1911,1.1499 1.4870,1.1139 l -0.7102,1.1360 -0.5697,0.9090 -0.2805,0.4487 h -0.5291 l -1.4571,0.0043 c -4.4913,0.0108 -6.1984,0.0110 -6.5742,-0.0043 h -8.7943 l 1.0422,-2.6164 c 0,0 1.9925,0.1111 2.3247,-1.0569 l 0.4824,-2.9329 H 59.5250 l -2.3956,3.2622 c -0.7134,0.8389 1.8211,0.6946 1.8211,0.6946 l -0.9981,2.6774 -0.5537,-0.0281 h -6.2003 l -1.4965,0.0013 0.6285,-1.3599 0.4202,-0.9103 0.2563,-0.5563 h 0.6108 c 1.0325,0 1.7559,-0.7281 1.8401,-0.8161 9.6608,-11.9968 11.2300,-13.9377 11.2300,-13.9377 0.5618,-0.7386 1.3905,-1.2070 2.2776,-1.2912 l 0.0445,-0.0039 h 0.0445 l 2.8058,-0.0030 1.0984,-8.6400e-4 -0.1491,1.0902 c -0.5526,4.0336 -1.9956,14.5799 -2.0377,14.9457 -2.5000e-5,1.9700e-4 2e-6,0.0011 0,0.0013 0.0024,0.0364 0.1777,0.4253 0.4738,-0.0968 l 6.9675,-12.6937 c 0.3352,-0.9101 -2.0074,-0.9099 -2.0074,-0.9099 -0.0046,0 1.0015,-1.2194 1.0015,-1.2194 l 0.6592,-0.7880 0.2870,-0.3423 h 0.4457 l 6.8227,-0.0013 c 3.0379,0 5.3577,0.8647 6.3650,2.3718 0.4845,0.7241 0.9093,1.9554 0.1867,3.7135 -1.1841,2.8855 -3.5729,4.1706 -5.5614,4.6429 0.9162,1.1512 1.7174,2.6368 2.3917,4.1561 L 99.2883,46.7654 a 158.6982,158.6982 0 0 0 -5.3500,-0.8796 l -2.4669,0.7794 -1.1870,0.3445 -1.9434,0.5641 -0.8234,0.2386 0.0800,-0.8554 c 0.0077,-0.0720 0.0915,-0.7861 0.6778,-1.7965 A 153.6512,153.6512 0 0 0 71.4678,44.2251 Z m 34.6860,3.4702 -5.9133,11.3593 4.8901,-3.7650 c 0.4439,-0.4600 -0.3691,-0.7954 -0.3691,-0.7954 l 0.8550,-1.9884 h 7.3242 l -0.6415,1.3664 -0.3605,0.7668 -0.2585,0.5494 h -0.6073 c -1.0165,0 -1.6217,0.3622 -2.1552,0.7327 -0.3483,0.2403 -1.9152,1.4544 -3.5730,2.7388 l -2.4967,1.9287 1.4697,7.8956 c 0.0566,0.2778 0.5276,0.3355 0.5399,0.3363 h 1.0253 l 2.7211,-4.0010 0.2840,-0.4184 h 2.9130 l -0.6981,1.3884 c -0.6207,1.2331 -0.7714,2.2524 -0.4361,2.9497 0.2778,0.5756 0.8253,0.8029 0.9462,0.8282 l 0.1690,0.0251 c 0.9269,0.1462 1.9731,0.1947 2.6597,-1.0958 0.3735,-0.7011 0.4174,-2.0137 -1.4930,-4.2755 l -0.0393,-0.0454 c -0.0298,-0.0375 -0.1109,-0.1192 -0.1898,-0.1988 -0.7715,-0.7861 -3.1212,-3.1779 -1.8146,-6.7821 1.5729,-4.3406 5.7528,-4.7363 7.8048,-4.3329 0.2824,0.0199 0.5599,0.0734 0.8278,0.1500 l -0.3670,-0.2818 -3.5026,-2.6744 a 147.5877,147.5877 0 0 0 -9.5140,-2.3606 z m -46.6249,1.3573 h 1.4031 c 0.4401,0 0.5577,0.1009 0.3549,0.4759 l -0.0251,0.0467 -0.5641,0.1050 0.1349,-0.2490 h -1.6214 v 0.0017 l -0.2524,0.4677 h 1.5414 c 0.4638,0 0.5605,0.1057 0.3393,0.5144 l -0.1617,0.2991 c -0.2212,0.4087 -0.4309,0.5144 -0.8948,0.5144 h -1.5272 c -0.4638,0 -0.5601,-0.1057 -0.3389,-0.5144 l 0.0320,-0.0597 0.5572,-0.0925 -0.1383,0.2572 h 1.7472 l 0.2689,-0.4975 h -1.5406 c -0.4638,0 -0.5559,-0.1049 -0.3354,-0.5144 l 0.1301,-0.2403 c 0.2212,-0.4095 0.4263,-0.5144 0.8909,-0.5144 z m 35.0759,0 h 1.4022 c 0.4393,0 0.5578,0.1009 0.3557,0.4759 l -0.0251,0.0467 -0.5650,0.1050 0.1349,-0.2490 h -1.6184 v 0.0017 l -0.2524,0.4677 h 1.5414 c 0.4631,0 0.5605,0.1057 0.3393,0.5144 l -0.1617,0.2991 c -0.2212,0.4087 -0.4318,0.5144 -0.8956,0.5144 h -1.5276 c -0.4646,0 -0.5601,-0.1057 -0.3389,-0.5144 l 0.0328,-0.0597 0.5563,-0.0925 -0.1392,0.2572 h 1.7472 l 0.2697,-0.4975 h -1.5419 c -0.4646,0 -0.5562,-0.1049 -0.3350,-0.5144 l 0.1301,-0.2403 c 0.2212,-0.4095 0.4263,-0.5144 0.8909,-0.5144 z m -44.9136,8.6400e-4 h 0.5740 l -0.9544,1.7662 h 1.8518 l -0.2205,0.4089 h -2.4271 z m 4.6926,0 H 54.0509 c 0.4638,0 0.5558,0.1045 0.3346,0.5140 l -0.6199,1.1476 c -0.2212,0.4087 -0.4263,0.5144 -0.8909,0.5144 h -1.8185 c -0.4638,0 -0.5558,-0.1057 -0.3346,-0.5144 l 0.6199,-1.1476 c 0.2212,-0.4095 0.4262,-0.5140 0.8900,-0.5140 z m 12.8856,0 h 0.5559 l 0.2403,2.1751 h -0.6462 l -0.0398,-0.4768 h -1.5652 l -0.5442,0.4768 h -0.5740 z m 3.6266,0 h 0.3925 l 1.0448,1.2816 c 0.0620,0.0712 0.1166,0.1472 0.1556,0.2360 0.0834,-0.1814 0.1422,-0.3078 0.1790,-0.3752 l 0.6168,-1.1425 h 0.5174 l -1.1757,2.1751 h -0.3925 l -1.0867,-1.3448 a 0.8603,0.8603 0 0 1 -0.1102,-0.1768 4.1844,4.1844 0 0 1 -0.1634,0.3458 l -0.6350,1.1766 h -0.5174 z m 5.5904,0 h 1.7044 c 0.4501,0 0.5587,0.1010 0.3467,0.4936 l -0.0264,0.0506 -0.6086,0.0886 0.1314,-0.2442 h -1.7939 v -8.6500e-4 l -0.7465,1.3785 h 1.7956 l 0.2619,-0.4846 h -0.9376 l 0.2006,-0.3709 h 1.4978 l -0.4063,0.7508 c -0.2212,0.4087 -0.4265,0.5144 -0.8896,0.5144 h -1.7044 c -0.4646,0 -0.5566,-0.1057 -0.3354,-0.5144 l 0.6207,-1.1476 c 0.2197,-0.4095 0.4265,-0.5140 0.8896,-0.5140 z m 4.3995,0 h 2.5283 l -0.2023,0.3704 h -1.9525 l -0.2615,0.4850 h 1.1394 l -0.2006,0.3713 h -1.1390 l -0.2913,0.5395 h 1.9763 l -0.2213,0.4089 h -2.5503 z m 4.4777,0 h 0.5740 l -0.9553,1.7662 h 1.8514 l -0.2213,0.4089 h -2.4263 z m 4.1328,0 h 2.5265 l -0.2001,0.3704 H 87.7177 l -0.2615,0.4850 h 1.1394 L 88.3937,50.2801 h -1.1390 l -0.2913,0.5395 h 1.9776 l -0.2213,0.4089 H 86.1680 Z m -35.3595,0.3877 -0.7448,1.3785 h 1.8950 l 0.7456,-1.3785 z m 13.1631,0.0337 -1.0296,0.8857 h 1.0824 z m 52.6869,1.8920 c 0.0880,0.5006 0.1134,0.8129 0.1180,0.8619 l 0.0674,1.0119 c 0.5587,0.2350 1.0677,0.5373 1.4887,0.7906 0.1332,0.0811 0.2602,0.1578 0.3665,0.2183 0.3291,0.1852 1.0086,-0.1487 1.3002,-0.3691 l 0.8191,-0.6177 c 0.0050,-0.0031 0.5632,0.8580 0.5632,0.8580 l 0.3921,0.6065 0.3419,0.5265 -0.3454,0.5243 -2.9203,4.4276 -0.8775,1.3288 -0.7590,-1.3988 -0.3735,-0.6860 -0.3471,-0.6367 0.5010,-0.4906 c 0.1018,-0.1760 0.1191,-0.8123 0.0372,-1.3305 -0.3988,-1.1404 -1.2704,-1.3944 -1.7610,-1.4442 -0.7937,-0.0796 -1.5697,0.2601 -1.8881,0.8234 -0.6889,1.2185 0.7148,3.2371 1.3141,3.9106 1.1075,1.2468 3.5665,4.5189 2.4781,7.9708 -0.5205,1.6517 -1.6140,2.7952 -3.2558,3.4282 13.1151,-3.9051 21.3544,-8.5525 21.3544,-10.5808 0,-1.8836 -7.1035,-6.0248 -18.6143,-9.7331 z M 21.7060,51.7749 C 10.9292,55.3745 4.3353,59.2852 4.3353,61.0999 c 0,1.4229 4.0577,4.1362 11.0083,6.9766 l 2.6571,-4.3148 0.2805,-0.4560 h 3.6024 l -0.6376,1.3629 c -0.9391,2.0122 -1.3348,3.7473 -1.1909,5.1901 a 128.3740,128.3740 0 0 0 7.7841,2.4427 6.2074,6.2074 0 0 0 0.8900,-1.3534 c 0.8220,-1.6624 1.0013,-4.6743 -2.8157,-9.5766 l -0.0683,-0.0864 c -0.0765,-0.1003 -0.2227,-0.2600 -0.3903,-0.4452 -1.1871,-1.3111 -3.9809,-4.3998 -3.7490,-9.0649 z m 73.2342,13.1942 -1.7506,3.0362 c -0.3827,1.1512 1.7688,0.8628 1.7688,0.8628 0.0061,0 -0.7072,1.1952 -0.7072,1.1952 l -0.5719,0.9086 -0.2805,0.4487 h -5.0695 c 0.7516,2.1255 1.8685,4.2990 4.8750,4.5309 l 0.0419,0.0030 0.0406,0.0078 c 0.1944,0.0299 4.4461,0.5979 8.6542,-4.5417 h -3.8722 c -1.0899,0 -1.8726,-0.8503 -2.0571,-1.6517 -0.0015,-0.0031 -0.5993,-2.6850 -1.0716,-4.7998 z m 11.1401,5.7892 c -0.0967,0.0029 -0.2011,0.0349 -0.3021,0.1219 -0.0658,0.1018 -0.1348,0.2049 -0.2075,0.3121 l -0.1617,0.2351 a 22.2968,22.2968 0 0 1 -2.8922,3.3876 148.0860,148.0860 0 0 0 11.3571,-2.7764 c -0.8397,0.1753 -1.7829,0.2537 -2.8369,0.2269 -1.9028,-0.0490 -3.8430,-0.9960 -4.5893,-1.4009 -0.0665,-0.0354 -0.2062,-0.1111 -0.3674,-0.1063 z" /><path
       d="m 53.8054,56.5372 c 0,-0.5274 -0.1768,-0.6758 -0.2350,-0.7233 -0.1875,-0.1569 -0.5075,-0.2074 -0.7838,-0.2120 l -2.7669,5.1113 c 0.4700,-0.0123 0.9537,-0.1707 1.4489,-0.4830 1.3976,-0.8871 2.3368,-2.6261 2.3368,-3.6930 z m 10.1798,2.7623 -2.3398,2.9108 h 1.8193 z"
       fill-rule="evenodd"
       clip-rule="evenodd"
       id="path10-93"
       style="stroke-width:0.7654" /><path
       d="m 83.0971,55.6210 -2.7669,5.1113 c 0.4707,-0.0138 0.9552,-0.1707 1.4489,-0.4845 1.3991,-0.8848 2.3383,-2.6238 2.3383,-3.6923 0,-0.5274 -0.1760,-0.6743 -0.2350,-0.7233 -0.1875,-0.1561 -0.5075,-0.2074 -0.7853,-0.2112 z"
       fill-rule="evenodd"
       clip-rule="evenodd"
       id="path12-0"
       style="stroke-width:0.7654" /><path
       fill-rule="evenodd"
       clip-rule="evenodd"
       fill="#ffffff"
       d="m 54.8815,28.9538 1.0256,2.4914 1.5905,-2.7087 -0.6912,2.5748 2.0436,0.1286 -1.9181,0.5917 1.0846,0.9009 -1.2752,-0.4279 0.4455,2.0099 -0.8963,-1.7711 -0.2924,1.5568 -0.2794,-1.1213 -1.9143,1.6357 1.4183,-2.5189 -1.6043,0.5312 1.3632,-0.8373 -2.0582,-0.5419 2.3077,0.0758 -1.4168,-1.2024 1.4810,0.6552 z m 16.4147,6.3857 1.2843,0.6085 -0.3383,-1.6234 0.6414,1.2514 0.8450,-0.6766 -0.5396,0.9131 0.7417,-0.0337 -0.6491,0.2863 0.8863,0.6276 -0.9774,-0.3735 0.4363,0.7118 -0.5067,-0.3383 -0.1692,1.3188 -0.3375,-1.4887 -0.4378,0.7792 0.2357,-0.8121 -0.9958,0.5197 0.9284,-0.7907 -0.9789,0.0337 0.8106,-0.2702 z m -24.9321,49.9460 2.2740,0.2488 -1.3685,-2.2931 1.6349,1.5660 0.9292,-1.4749 -0.3414,1.6755 1.1129,-0.4439 -0.8381,0.7792 1.6785,0.4853 -1.6839,-0.0505 1.0394,0.8519 -0.9491,-0.2480 0.4378,2.0987 -1.2973,-2.0880 -0.2587,1.4167 -0.0681,-1.3616 -1.2422,1.3188 0.9973,-1.6938 -1.4726,0.5679 1.0907,-0.8404 z m 24.0266,1.2981 2.0421,2.3077 0.7049,-3.5262 0.2174,3.0440 2.2572,-0.6315 -1.8523,1.3624 1.5101,0.5649 -1.5384,0.0176 1.2346,2.0061 -1.6326,-1.5782 0.2679,1.7926 -0.7233,-1.1068 -1.4566,2.4875 0.5894,-3.2560 -1.5354,1.1772 1.1596,-1.4175 -2.4271,0.1883 2.5235,-0.7861 -1.9816,-0.7669 1.8454,0.1508 z m 19.5697,-2.9858 1.4229,0.6743 -0.3750,-1.7979 0.7118,1.3854 0.9353,-0.7486 -0.5993,1.0119 0.8236,-0.0375 -0.7202,0.3169 0.9820,0.6950 -1.0823,-0.4141 0.4830,0.7899 -0.5603,-0.3758 -0.1875,1.4627 -0.3735,-1.6510 -0.4876,0.8626 0.2633,-0.9001 -1.1045,0.5771 1.0287,-0.8756 -1.0838,0.0375 0.8963,-0.3008 z"
       id="path14"
       style="stroke-width:0.7654" /><path
       id="path15"
       style="fill:#702f8a;fill-opacity:1;stroke-width:0.7654"
       d="m 101.4829,11.6735 0.6903,4.1661 2.3467,1.5872 0.3419,0.2321 -0.4124,0.0091 -1.9685,0.0406 0.2840,1.7489 2.3052,1.3167 0.3933,0.2239 -0.4530,0.0208 -1.9793,0.0903 c 0.1163,0.7332 0.6177,3.9302 0.6713,4.4414 l 0.0268,0.2581 -0.2230,-0.1301 a 22.8310,22.8310 0 0 1 -1.1701,-0.7547 c -2.7761,-1.8660 -7.4030,-4.9697 -18.0121,-3.2078 0.9238,0.4784 3.4289,1.7750 4.6429,2.3804 0.2212,0.0100 1.8600,-0.4715 3.3050,-0.9345 l 0.4578,-0.1470 -0.3199,0.3596 -1.5215,1.7070 1.3767,0.6298 3.0379,-0.6467 0.4768,-0.1016 -0.3618,0.3281 c -0.5564,0.5029 -1.1621,1.1205 -1.2708,1.3318 0.5863,0.2809 1.2737,0.6859 1.9434,1.0824 0.7011,0.4148 1.3632,0.8068 1.7727,0.9683 l -0.0657,0.2524 c -0.4393,-0.0559 -0.9417,-0.1368 -1.4744,-0.2217 -3.8913,-0.6246 -10.3640,-1.6588 -19.4546,2.1414 1.1305,0.1538 3.9384,0.5406 4.9104,0.7197 0.2135,0.0085 1.6880,-0.7516 2.9899,-1.4917 l 0.1569,0.2071 c -0.6131,0.6161 -1.2645,1.3099 -1.4757,1.5916 0.4233,0.0750 0.8173,0.1337 1.1969,0.1880 0.4516,0.0651 0.9195,0.1335 1.4545,0.2330 0.1975,0.0237 1.5546,-0.5444 2.7509,-1.1070 l 0.4314,-0.2027 -0.2680,0.3955 c -0.3184,0.4715 -0.6457,1.0457 -0.6817,1.2363 3.0692,0.5779 8.5227,1.3869 10.8786,1.6486 l 0.0208,0.2563 c -0.5978,0.1753 -1.4843,0.2802 -2.6056,0.4141 -4.1546,0.4944 -11.0653,1.3226 -15.3974,7.1465 l 5.3998,-0.8654 2.3757,-2.2075 0.3501,-0.3246 -0.1349,0.4578 -0.5503,1.8777 2.3709,-0.3722 2.1129,-2.2884 0.2775,-0.3026 -0.0519,0.4081 -0.2555,2.0031 c 0.6008,-0.0788 2.6663,-0.3519 3.2916,-0.4461 l 0.0631,0.2537 c -6.7049,2.3199 -7.9274,5.7045 -8.1325,6.5526 l 1.7372,-0.5044 1.1844,-0.3436 2.8654,-0.9047 1.4070,-2.0394 0.2447,-0.3562 -0.0061,0.4327 -0.0221,1.4947 1.6266,-0.4318 1.1105,-1.8950 0.2364,-0.4020 0.0091,0.4664 0.0285,1.5989 4.2275,-1.3283 1.3767,-2.2685 a 7.0156,7.0156 0 0 0 0.0765,-0.2779 l -7.0458,1.3149 5.2433,-3.1762 -8.1104,-0.8641 9.1362,-1.8501 -8.6629,-4.8793 9.1012,1.8613 c -1.9686,-2.7608 -6.3174,-7.7893 -6.3174,-7.7893 l 8.7943,6.5716 -0.3389,-9.9311 2.7211,9.3471 6.3174,-6.7177 -4.4216,8.8120 10.0081,-2.8728 -9.3774,5.4529 10.3504,1.6063 -9.5257,0.7037 6.3179,4.7980 -8.7947,-4.1384 c 0,0 1.6045,4.8198 2.2352,6.5236 l -5.1992,-4.3822 -0.4366,0.5987 -0.9056,1.7031 3.9461,3.4183 0.3437,-1.5280 h 0.2555 l 0.5265,2.2949 1.3534,1.0331 0.2918,-1.7424 0.2555,-0.0164 0.8489,2.8261 3.8445,2.9337 c -0.1523,-1.1305 -0.9444,-5.2974 -4.5893,-9.2806 l 0.1660,-0.2006 0.9285,0.5779 c 1.2377,0.7715 3.0792,1.9195 3.9258,2.4193 0.0628,-0.2809 0.1130,-1.1053 0.1284,-1.8194 l 0.2542,-0.0428 c 0.3276,0.8932 0.8314,2.2005 0.9432,2.3567 l 1.4800,0.8420 0.8222,0.4668 c 0.0766,-0.2801 0.1774,-1.1168 0.2386,-1.8730 l 0.2559,-0.0311 c 0.4279,1.2729 0.9377,2.6942 1.0556,2.8602 1.8071,1.0256 4.4247,2.3657 5.1663,2.7422 -0.1225,-1.0853 -1.1604,-6.0664 -9.9579,-11.5611 l 0.1115,-0.2360 c 0.3873,0.1332 3.5684,0.9287 4.3775,1.1308 l -0.2870,-2.1725 -0.0657,-0.4980 0.3009,0.4024 2.0627,2.7587 3.2022,0.7690 -0.1206,-2.1928 -0.0285,-0.5083 0.2710,0.4310 1.7411,2.7803 4.9593,1.1005 c -3.9785,-5.8530 -9.7644,-7.3098 -14.4287,-8.4809 -1.2047,-0.3031 -2.3429,-0.5885 -3.3785,-0.9268 l 0.0298,-0.2555 3.9348,-0.3155 -0.4738,-1.4511 -0.1223,-0.3804 0.3246,0.2326 1.9136,1.3694 2.3338,-0.1686 -0.9929,-1.6499 -0.2351,-0.3903 0.4068,0.2058 3.1464,1.5920 5.8346,-0.6704 c -4.5174,-2.6460 -7.5975,-3.5069 -16.9315,-3.6707 l -0.2632,-0.0048 0.1617,-0.2075 c 0.1378,-0.1776 0.3091,-0.4095 0.5265,-0.7041 0.4141,-0.5626 1.0363,-1.4084 2.0122,-2.6644 l -1.3486,-0.9077 -0.3259,-0.2196 0.3933,-0.0216 2.3917,-0.1275 c 0.1225,-0.1477 0.3248,-0.3965 0.5429,-0.6644 0.2021,-0.2488 0.4050,-0.5015 0.5520,-0.6761 l -1.4260,-0.7651 -0.3981,-0.2135 0.4500,-0.0333 2.3290,-0.1712 a 368.5725,368.5725 0 0 1 4.2504,-4.7955 c -7.7030,0.0811 -12.6100,6.0599 -14.9820,8.9546 -0.5251,0.6414 -0.9406,1.1481 -1.2514,1.4321 l -0.1720,0.1569 -0.0454,-0.2282 c -0.0957,-0.4791 -0.1803,-0.9798 -0.2706,-1.5094 -0.6475,-3.8339 -1.4558,-8.5922 -7.5507,-13.1968 z" /><path
       fill-rule="evenodd"
       clip-rule="evenodd"
       fill="#ffffff"
       d="m 108.4869,32.3767 2.6238,-2.1423 -2.0406,3.6999 4.6161,-0.8274 -4.7615,2.2878 4.4699,1.3632 -2.7746,0.1906 1.5117,1.5132 -3.6938,-1.3632 1.4037,4.0482 -2.5204,-2.3926 -3.4030,4.5763 1.4520,-4.4638 -3.5897,0.6667 3.0616,-1.8017 -3.8867,-0.5840 4.6161,-1.3632 -5.1021,-3.2131 5.5315,1.2216 -2.3727,-3.5583 3.8867,2.6291 -0.1936,-4.3819 z"
       id="path17"
       style="stroke-width:0.7654" /><path
       fill-rule="evenodd"
       clip-rule="evenodd"
       fill="#e7b73c"
       d="m 47.5391,49.0532 h 0.5740 l -0.9545,1.7665 h 1.8515 l -0.2204,0.4087 h -2.4271 z m 4.6927,0 h 1.8193 c 0.4638,0 0.5557,0.1049 0.3345,0.5143 l -0.6200,1.1473 c -0.2212,0.4087 -0.4263,0.5143 -0.8909,0.5143 h -1.8186 c -0.4638,0 -0.5557,-0.1056 -0.3345,-0.5143 l 0.6200,-1.1473 c 0.2212,-0.4095 0.4263,-0.5143 0.8902,-0.5143 z m 0.9032,1.7665 0.7455,-1.3785 h -1.8959 l -0.7447,1.3785 z m 3.9242,-1.3869 -0.2526,0.4677 h 1.5415 c 0.4638,0 0.5603,0.1056 0.3391,0.5143 l -0.1615,0.2993 c -0.2212,0.4087 -0.4309,0.5143 -0.8947,0.5143 h -1.5270 c -0.4638,0 -0.5603,-0.1056 -0.3391,-0.5143 l 0.0321,-0.0597 0.5572,-0.0926 -0.1385,0.2572 h 1.7474 l 0.2687,-0.4975 h -1.5407 c -0.4638,0 -0.5557,-0.1049 -0.3352,-0.5143 l 0.1301,-0.2403 c 0.2212,-0.4095 0.4263,-0.5143 0.8909,-0.5143 h 1.4030 c 0.4401,0 0.5580,0.1010 0.3551,0.4761 l -0.0253,0.0467 -0.5641,0.1049 0.1347,-0.2488 h -1.6211 z m 8.0581,-0.3796 h 0.5557 l 0.2403,2.1753 h -0.6460 l -0.0398,-0.4768 H 63.6622 l -0.5442,0.4768 h -0.5740 z m 0.0834,1.3073 -0.0528,-0.8856 -1.0295,0.8856 z m 3.5430,-1.3073 h 0.3926 l 1.0448,1.2820 c 0.0620,0.0712 0.1163,0.1470 0.1554,0.2357 0.0834,-0.1814 0.1424,-0.3077 0.1791,-0.3750 l 0.6169,-1.1427 h 0.5174 l -1.1757,2.1753 h -0.3926 l -1.0869,-1.3448 a 0.8603,0.8603 0 0 1 -0.1102,-0.1768 4.1844,4.1844 0 0 1 -0.1630,0.3460 l -0.6353,1.1764 h -0.5174 z m 5.3440,0.3881 -0.7463,1.3785 h 1.7956 l 0.2618,-0.4845 H 74.4612 l 0.2005,-0.3712 h 1.4979 l -0.4064,0.7509 c -0.2212,0.4087 -0.4263,0.5143 -0.8894,0.5143 h -1.7045 c -0.4646,0 -0.5564,-0.1056 -0.3352,-0.5143 l 0.6207,-1.1473 c 0.2197,-0.4095 0.4263,-0.5143 0.8894,-0.5143 h 1.7045 c 0.4501,0 0.5587,0.1010 0.3467,0.4937 l -0.0268,0.0505 -0.6085,0.0888 0.1316,-0.2442 h -1.7941 z m 4.6460,-0.3881 h 2.5281 l -0.2021,0.3705 h -1.9525 l -0.2618,0.4853 h 1.1397 l -0.2005,0.3712 h -1.1389 l -0.2916,0.5396 h 1.9763 l -0.2212,0.4087 h -2.5503 z m 4.4776,0 h 0.5740 l -0.9552,1.7665 h 1.8515 l -0.2212,0.4087 h -2.4263 z m 4.1331,0 h 2.5266 l -0.2005,0.3705 H 87.7178 l -0.2618,0.4853 h 1.1397 l -0.2021,0.3712 h -1.1389 l -0.2916,0.5396 h 1.9778 l -0.2212,0.4087 h -2.5518 z m 4.7929,0.3796 -0.2526,0.4677 h 1.5415 c 0.4631,0 0.5603,0.1056 0.3391,0.5143 l -0.1615,0.2993 c -0.2212,0.4087 -0.4317,0.5143 -0.8955,0.5143 h -1.5277 c -0.4646,0 -0.5603,-0.1056 -0.3391,-0.5143 l 0.0329,-0.0597 0.5564,-0.0926 -0.1393,0.2572 h 1.7474 L 93.3083,50.3214 H 91.7668 c -0.4646,0 -0.5564,-0.1049 -0.3352,-0.5143 l 0.1301,-0.2403 c 0.2212,-0.4095 0.4263,-0.5143 0.8909,-0.5143 h 1.4022 c 0.4393,0 0.5580,0.1010 0.3559,0.4761 l -0.0253,0.0467 -0.5649,0.1049 0.1347,-0.2488 h -1.6180 z"
       id="path18-8"
       style="fill:#ffc72c;fill-opacity:1;stroke-width:0.7654" /><path
       d="m 93.4928,28.1509 c 0.9598,0 1.7375,-0.6406 1.7375,-1.4305 0,-0.7899 -0.7776,-1.4298 -1.7375,-1.4298 -0.9583,0 -1.7359,0.6399 -1.7359,1.4298 7.6500e-4,0.7899 0.7776,1.4305 1.7359,1.4305 z"
       fill-rule="evenodd"
       clip-rule="evenodd"
       id="path19"
       style="stroke-width:0.7654;fill:#000000" /><path
       d="m 49.3385,60.8663 3.0654,-5.6731 c 0,0 1.7352,-0.0085 1.7352,1.7359 0,1.7428 -2.5779,5.0164 -4.8006,3.9372 z m 11.3241,1.8775 3.2820,-0.0360 1.0455,-5.4558 z m 19.0400,-1.9074 3.0662,-5.6731 c 0,0 1.7359,-0.0085 1.7359,1.7359 -7.6600e-4,1.7443 -2.5779,5.0164 -4.8021,3.9372 z"
       fill-rule="evenodd"
       clip-rule="evenodd"
       fill="#4f357f"
       id="path20"
       style="fill:#702f8a;fill-opacity:1;stroke-width:0.7654" /></g><style
     type="text/css"
     id="style1">
	.st0{fill:#4891CE;}
	.st1{fill:#C7D9EA;}
	.st2{fill:#E3173E;}
	.st3{fill:#FFFFFF;}
</style><style
     type="text/css"
     id="style1-7">
	.st0{fill:#211646;}
	.st1{fill:#B3B2B1;}
	.st2{fill:#FFFFFF;}
	.st3{fill:#D35E13;}
</style></svg>
