<svg
  
  
   viewBox="0 0 140.3140 110.6577"
   version="1.1000"
   id="svg1"
   xml:space="preserve"
   sodipodi:docname="group-team-logo-doc.svg"
   inkscape:version="1.4000.2 (2aeb623e1d, 2025-05-12)"
   xmlns:inkscape="http://www.inkscape.org/namespaces/inkscape"
   xmlns:sodipodi="http://sodipodi.sourceforge.net/DTD/sodipodi-0.dtd"
   xmlns="http://www.w3.org/2000/svg"
   xmlns:svg="http://www.w3.org/2000/svg"><sodipodi:namedview
     id="namedview1"
     pagecolor="#ffffff"
     bordercolor="#000000"
     borderopacity="0.2500"
     inkscape:showpageshadow="2"
     inkscape:pageopacity="0.0000"
     inkscape:pagecheckerboard="0"
     inkscape:deskcolor="#d1d1d1"
     inkscape:document-units="px"
     inkscape:zoom="0.8685"
     inkscape:cx="185.3763"
     inkscape:cy="284.9729"
     inkscape:window-width="1854"
     inkscape:window-height="1011"
     inkscape:window-x="0"
     inkscape:window-y="0"
     inkscape:window-maximized="1"
     inkscape:current-layer="layer5"
     showgrid="false"><inkscape:page
       x="0"
       y="0"
      
      
       id="page2"
       margin="0"
       bleed="0" /><inkscape:grid
       id="grid5"
       units="px"
       originx="0"
       originy="0"
       spacingx="0.2213"
       spacingy="0.2213"
       empcolor="#0099e5"
       empopacity="0.3020"
       color="#0099e5"
       opacity="0.1490"
       empspacing="5"
       enabled="true"
       visible="false" /></sodipodi:namedview><defs
     id="defs1"></defs><g
     inkscape:groupmode="layer"
     id="layer5"
     inkscape:label="minnesota-lynx"
     style="fill:#bb0c2f;fill-opacity:1.0000"><path
       d="m 121.6541,47.3413 -10.5028,-19.3282 c 3.6193,-4.1482 11.2087,-12.8854 12.1802,-14.0327 l 1.7643,-1.9413 -2.3826,-0.6177 c 0.2638,-0.3526 0.5289,-0.6177 0.6177,-0.7946 L 125.0952,8.6855 122.5356,7.9797 C 106.1203,3.9202 88.8221,1.8021 71.2589,1.8021 c -18.0921,0 -35.7435,2.2063 -52.6003,6.5309 l -3.4405,0.8815 2.9128,2.0300 0.6177,0.4414 h -0.0882 l -3.4417,0.8822 2.9128,2.0300 8.3840,5.8244 v 15.7983 l -10.5034,15.7095 2.9128,-1.0591 -2.9128,4.4133 4.5015,-1.5886 c 0.0882,0 4.5008,-1.5005 11.9145,-3.1773 -0.2651,22.9462 5.1192,39.1859 38.6557,58.3371 C 104.9743,89.7044 110.3579,71.1709 109.8284,50.4304 c 6.0895,1.3242 9.7969,2.5596 9.8851,2.5596 l 3.8831,1.3242 -1.9413,-3.6187 -0.3526,-0.5295 2.2945,0.7946 z"
       fill="#ffffff"
       id="path2-8"
       style="clip-rule:evenodd;fill-rule:evenodd;stroke-width:0.6252" /><path
       d="m 121.6541,47.3413 -10.5028,-19.3282 c 3.6193,-4.1482 11.2087,-12.8854 12.1802,-14.0327 l 1.7643,-1.9413 -2.3826,-0.6177 c 0.2638,-0.3526 0.5289,-0.6177 0.6177,-0.7946 L 125.0952,8.6855 122.5356,7.9797 C 106.1203,3.9202 88.8221,1.8021 71.2589,1.8021 c -18.0921,0 -35.7435,2.2063 -52.6003,6.5309 l -3.4405,0.8815 2.9128,2.0300 0.6177,0.4414 h -0.0882 l -3.4417,0.8822 2.9128,2.0300 8.3840,5.8244 v 15.7983 l -10.5034,15.7095 2.9128,-1.0591 -2.9128,4.4133 4.5015,-1.5886 c 0.0882,0 4.5008,-1.5005 11.9145,-3.1773 -0.2651,22.9462 5.1192,39.1859 38.6557,58.3371 C 104.9743,89.7044 110.3579,71.1709 109.8284,50.4304 c 6.0895,1.3242 9.7969,2.5596 9.8851,2.5596 l 3.8831,1.3242 -1.9413,-3.6187 -0.3526,-0.5295 2.2945,0.7946 z"
       id="path3-56"
       style="clip-rule:evenodd;fill:#0c2340;fill-opacity:1;fill-rule:evenodd;stroke-width:0.6252" /><path
       d="m 102.5916,57.1376 c -1.5005,-0.5302 -2.9122,-1.2360 -4.1482,-1.8537 1.4992,-2.4714 1.8537,-5.0304 1.9413,-6.7960 L 97.2074,47.9583 c -7.0604,2.4714 -16.3272,3.0891 -25.9472,3.0891 -9.6200,0.0882 -18.8868,0.5295 -26.1241,-3.0004 l -3.1773,0.5295 c 0.0882,1.7650 0.4414,4.3245 1.9413,6.6190 -1.2354,0.7065 -2.6477,1.4123 -4.2364,1.9419 l -1.4999,0.4408 c -3.3536,29.2133 33.0076,47.3054 33.0076,47.3054 0,0 36.1849,-19.2400 32.9182,-47.3054 z"
       fill="#ffffff"
       id="path4-1"
       style="clip-rule:evenodd;fill:#9ea2a2;fill-opacity:1;fill-rule:evenodd;stroke-width:0.6252" /><path
       d="m 71.1726,90.6748 c -3.3542,0 -6.0901,2.8240 -6.0901,6.1776 0,3.4424 2.7359,6.1783 6.0901,6.1783 3.4424,0 6.1776,-2.7359 6.1776,-6.1783 0,-3.3536 -2.7353,-6.1776 -6.1776,-6.1776 z"
       id="path5-1"
       style="clip-rule:evenodd;fill-rule:evenodd;stroke-width:0.6252" /><path
       d="m 123.5960,9.1263 -1.2360,-0.3532 C 105.9446,4.7136 88.7346,2.5954 71.2608,2.5954 c -18.0040,0 -35.6554,2.2063 -52.4239,6.5309 l -1.6768,0.4414 1.4117,0.9709 8.8254,6.0901 -0.0882,19.8571 -9.3549,13.8558 2.2945,-0.7946 c 0.2651,-0.0882 22.4167,-7.5900 50.8347,-7.8544 27.0069,0 48.6290,7.0604 48.8940,7.1492 l 1.9412,0.7059 -12.7973,-23.7409 c 2.0294,-2.3833 12.4441,-14.3859 13.5919,-15.7095 z"
       fill="#ffffff"
       id="path6-59"
       style="clip-rule:evenodd;fill-rule:evenodd;stroke-width:0.6252" /><path
       d="M 71.0832,40.1039 C 47.5193,40.3690 28.2799,45.4875 21.9254,47.3413 L 28.9858,36.9272 V 15.7453 l -0.3526,-0.2645 -7.6787,-5.2073 C 37.1053,6.3016 54.0508,4.2722 71.2602,4.2722 c 16.9455,0 33.5378,1.9419 49.4230,5.7362 -3.1773,3.7068 -13.0611,15.0918 -13.1499,15.1799 l -0.4408,0.4414 11.4737,21.0931 c -5.9138,-1.6762 -24.8006,-6.6190 -47.4830,-6.6190 z"
       id="path7-8"
       style="clip-rule:evenodd;fill:#78be21;fill-opacity:1;fill-rule:evenodd;stroke-width:0.6252" /><path
       d="m 117.5059,11.0682 c 0,0 -2.1176,-0.5295 -6.3546,-1.2360 -3.6181,-0.6177 -6.1776,-0.9709 -6.7953,-1.1472 l 2.2957,4.1482 c 0,0 0.2638,0.4414 0.6165,0.9709 -1.0585,1.0591 -3.3530,3.7950 -5.1192,5.8244 A 6983.7993,6983.7993 0 0 0 98.5309,12.9213 L 89.0879,11.8622 c 0,0 5.6475,10.7673 6.6184,12.4441 -0.7940,0.9709 -4.6765,5.3836 -7.4130,8.5609 v -21.0931 c -5.0310,-0.4414 -12.0914,-0.5295 -12.0914,-0.5295 0,0 3.2667,3.3536 3.6193,3.7068 v 0.6177 c -1.9413,-1.9413 -4.1482,-3.4417 -6.4427,-4.3245 l -0.2651,-0.0882 c 0,0 -7.9438,0 -12.6210,0.2645 0,0 -2.5596,3.9719 -4.0594,6.4427 -1.5005,-2.2063 -3.8831,-5.9132 -3.8831,-5.9132 l -8.1195,0.8828 c 0,0 7.1486,10.1489 7.7663,10.9436 V 35.9563 c -0.5295,-0.5295 -1.0591,-0.9709 -1.1472,-1.0591 a 17.7477,17.7477 0 0 1 -0.5295,-4.2364 c 0,-0.7059 0,-1.4999 0.1763,-2.2945 l 0.6177,-4.7659 -3.5299,3.2654 c -0.4414,0.4414 -3.6187,3.4417 -4.8541,6.7960 -1.3236,0.1763 -2.5596,0.4414 -3.8831,0.7059 0,-0.0882 0.2645,-0.4414 0.2645,-0.4414 V 8.5968 c 0,0 -3.4417,0.4414 -6.7960,0.9709 -3.1773,0.5295 -7.3249,1.5005 -7.3249,1.5005 0,0 4.7659,3.2654 5.4718,3.7950 v 22.5936 c -0.4414,0.7059 -4.7659,6.9716 -4.7659,6.9716 0,0 12.3559,-3.6187 29.7422,-5.2955 -0.8828,-0.8822 -1.8537,-1.8531 -3.0010,-2.8240 l 8.2077,-0.7059 V 21.3941 c 0.3526,-0.5295 2.9128,-4.7659 4.6771,-7.7663 l 0.2645,0.2645 c 0,0 0.7946,0.7059 1.3242,1.2360 v 20.2103 c 0,0 2.6477,-0.0882 4.2358,-0.0882 1.5886,0 4.1482,0.0882 4.1482,0.0882 V 19.0996 c 2.2945,2.2945 4.4133,5.2955 4.4133,8.2965 v 8.1195 c 6.8835,0.2645 15.1793,1.3242 15.1793,1.3242 0,0 2.7365,-3.2654 4.5008,-5.2955 1.1479,2.1182 2.2957,4.3245 3.0891,5.7369 -0.5302,0.3532 -2.5596,1.6768 -4.7659,3.1773 9.4437,1.5005 17.2100,3.5305 17.2100,3.5305 0,0 -9.0017,-16.8567 -9.9726,-18.7986 1.3260,-1.5017 12.3572,-14.1221 12.3572,-14.1221 z"
       fill="#ffffff"
       id="path8-4"
       style="clip-rule:evenodd;fill-rule:evenodd;stroke-width:0.6252" /><path
       d="m 49.7263,30.6608 c 0,-0.7059 0.0882,-1.4999 0.1763,-2.3827 l 0.3526,-2.6477 -2.0300,1.8531 c -0.0882,0.1763 -3.7068,3.4417 -4.7659,6.7960 -1.8531,0.3526 -4.4127,0.8828 -6.1783,1.3236 0.4414,-0.7059 1.1472,-1.6768 1.1472,-1.6768 V 9.6559 c 0,0 -2.8240,0.4414 -4.9422,0.7059 -2.4714,0.4414 -6.0895,1.1472 -6.0895,1.1472 0,0 3.5305,2.5596 4.0601,2.9128 V 37.8094 c -0.3526,0.4414 -3.4417,5.1192 -3.4417,5.1192 7.2367,-2.0300 15.5326,-3.3536 25.5946,-4.5896 0,0 -2.9128,-2.7359 -3.2654,-3.0004 -0.1763,-0.6177 -0.6177,-2.2951 -0.6177,-4.6778 z"
       id="path9-8"
       style="clip-rule:evenodd;fill:#0c2340;fill-opacity:1;fill-rule:evenodd;stroke-width:0.6252" /><path
       d="m 115.9172,11.5977 c 0,0 -2.5596,-0.5295 -5.0298,-0.8828 -2.4714,-0.4414 -5.0310,-0.8828 -5.0310,-0.8828 l 1.5005,2.6477 c 0,0 0.4408,0.7946 0.7940,1.4117 -0.7059,0.7946 -4.8541,5.6487 -6.1776,7.1486 -0.9709,-1.7650 -3.9725,-7.4130 -3.9725,-7.4130 l -7.5893,-0.7946 c 0,0 5.6475,10.5903 6.2652,11.6500 -0.7059,0.7940 -7.3255,8.3840 -9.1780,10.5022 V 12.5681 c -3.9725,-0.4414 -9.5319,-0.4414 -9.5319,-0.4414 0,0 2.2945,2.2063 2.6471,2.5596 v 2.9128 C 78.6726,15.2158 75.6722,13.0976 73.0245,12.0385 h -0.1769 c 0,0 -7.2374,-0.0882 -11.9145,0.1763 -0.4414,0.6177 -3.3536,5.2073 -4.5008,7.0604 a 1710.5502,1710.5502 0 0 0 -4.2364,-6.4427 l -6.3546,0.6177 c 0,0 6.7960,9.5312 7.1492,10.0608 v 11.9145 l 7.0604,-0.5295 V 21.2165 c 0.2645,-0.4414 3.9719,-6.5309 5.2955,-8.8254 l 0.9709,0.9709 c 0,0 1.1472,1.0591 1.5886,1.4123 V 34.5440 H 74.7019 V 17.2458 c 3.0004,2.5596 6.0007,6.5309 6.0007,10.1496 v 7.3249 c 6.6197,0.5295 13.9452,1.3242 13.9452,1.3242 0,0 3.7062,-4.3245 5.0310,-5.8250 0.9709,1.6768 3.3530,6.2658 3.9713,7.3249 -0.7059,0.5295 -3.3530,2.2945 -3.3530,2.2945 6.9710,1.1472 13.2381,2.8240 13.2381,2.8240 0,0 -8.7372,-16.4153 -9.3549,-17.5626 0.7934,-0.8822 11.7370,-13.5025 11.7370,-13.5025 z"
       id="path10-1"
       style="clip-rule:evenodd;fill:#0c2340;fill-opacity:1;fill-rule:evenodd;stroke-width:0.6252" /><path
       style="clip-rule:evenodd;fill:#ffffff;fill-rule:evenodd;stroke-width:0.6252"
       d="m 100.6497,11.0682 0.2651,0.6177 1.7643,0.2645 v -0.0882 l -1.6768,-3.6187 -1.6768,-0.1763 -1.8537,3.1773 1.1466,0.1763 0.2651,-0.6177 z"
       id="path81" /><path
       style="clip-rule:evenodd;fill:#78be21;fill-opacity:1;fill-rule:evenodd;stroke-width:0.6252"
       d="m 99.1493,10.2736 0.6177,-1.2360 0.6177,1.4123 z"
       id="path80" /><path
       style="clip-rule:evenodd;fill:#ffffff;fill-rule:evenodd;stroke-width:0.6252"
       d="m 95.7963,8.1554 v 0.0882 L 94.4715,8.0672 v 2.9128 L 92.7947,10.8031 V 7.8909 l -1.3236,-0.0882 v -0.0882 l 0.2651,-0.4414 3.7950,0.3526 z"
       id="path79" /><path
       style="clip-rule:evenodd;fill:#ffffff;fill-rule:evenodd;stroke-width:0.6252"
       d="m 84.1456,8.4205 c 0.0894,1.1472 1.2360,1.9419 2.8247,2.0300 1.5005,0.0882 2.7365,-0.5295 2.6471,-1.6768 0,-1.0591 -1.1466,-1.8531 -2.7353,-2.0300 -1.5005,-0.0882 -2.7365,0.6177 -2.7365,1.6768 z"
       id="path78" /><path
       style="clip-rule:evenodd;fill:#78be21;fill-opacity:1;fill-rule:evenodd;stroke-width:0.6252"
       d="m 86.9703,9.9210 c -0.7940,0 -1.0585,-0.7065 -1.0585,-1.5005 0,-0.7940 0.4408,-1.2354 0.9709,-1.2354 0.6177,0.0882 1.0585,0.6177 1.0585,1.4123 -6.2500e-4,0.7059 -0.2657,1.4117 -0.9709,1.3236 z"
       id="path77" /><path
       style="clip-rule:evenodd;fill:#ffffff;fill-rule:evenodd;stroke-width:0.6252"
       d="M 81.7630,7.0088 81.1453,7.3614 C 80.7927,7.0969 80.1743,7.0088 79.8217,6.9200 c -0.3526,0 -0.7946,0.0888 -0.7946,0.2645 0,0.2645 0.5302,0.3532 1.3236,0.5295 0.6177,0.1763 1.6780,0.5295 1.6780,1.2354 0,0.8828 -1.1479,1.1472 -2.2957,1.1472 -1.2348,-0.0888 -1.9413,-0.5295 -2.2945,-0.7946 l 0.7059,-0.3532 c 0.2651,0.2645 0.9709,0.5295 1.5886,0.6177 0.2651,0 0.7946,0 0.7946,-0.2645 0,-0.3532 -0.6177,-0.4414 -1.3236,-0.5295 -0.6177,-0.1763 -1.5886,-0.4414 -1.5886,-1.2354 -0.0894,-0.9709 1.2360,-1.1472 2.1176,-1.1472 0.9703,0.0894 1.5005,0.2657 2.0300,0.6190 z"
       id="path76" /><path
       style="clip-rule:evenodd;fill:#ffffff;fill-rule:evenodd;stroke-width:0.6252"
       d="m 73.1139,6.9200 v 0.8828 h 1.8537 V 8.3323 h -1.8537 v 0.8822 l 2.1176,0.0888 -0.2638,0.5289 h -3.5299 V 6.3911 h 3.2648 l 0.2651,0.5289 z"
       id="path75" /><path
       style="clip-rule:evenodd;fill:#ffffff;fill-rule:evenodd;stroke-width:0.6252"
       d="m 64.4648,6.4792 2.9122,1.7643 V 6.3911 H 68.4361 V 9.8322 H 67.4652 L 64.5530,8.1554 64.6411,9.9210 H 63.5820 V 6.4792 Z"
       id="path74" /><path
       style="clip-rule:evenodd;fill:#ffffff;fill-rule:evenodd;stroke-width:0.6252"
       d="m 56.6098,6.8318 3.0010,1.6768 V 6.6555 l 0.9709,-0.0882 0.0882,3.4417 -1.0591,0.0882 -2.8240,-1.5886 v 1.7649 l -1.0591,0.0888 V 6.9200 Z"
       id="path73" /><path
       style="clip-rule:evenodd;fill:#ffffff;fill-rule:evenodd;stroke-width:0.6252"
       d="m 51.1386,7.2732 1.5886,-0.1769 v 3.4424 l -1.5886,0.1763 z"
       id="path72" /><path
       style="clip-rule:evenodd;fill:#ffffff;fill-rule:evenodd;stroke-width:0.6252"
       d="M 41.7831,11.6859 V 8.2435 l 2.0300,-0.2645 1.3236,1.9419 1.1472,-2.2063 1.7656,-0.1769 0.0882,3.4424 -1.6768,0.1763 V 8.9500 l -1.1473,2.2945 -1.0591,0.1763 -1.4123,-2.0294 v 2.1182 z"
       id="path71" /><path
       id="path70"
       style="clip-rule:evenodd;fill:#9ea2a2;fill-opacity:1;fill-rule:evenodd;stroke-width:0.6252"
       d="m 37.3703,10.8030 -7.5018,1.2363 2.6480,1.8531 -0.0882,24.1822 -2.0303,3.1775 c 6.9723,-1.9413 15.7979,-3.0889 20.8283,-3.7948 l -1.7649,-1.5885 c 0,0 -0.3537,-1.1470 -0.6181,-3.0889 -0.4414,-0.7059 -1.1471,-1.9421 -1.3240,-3.0893 -1.2354,1.4123 -2.8239,3.5299 -3.2653,5.5606 -4.1482,0.6177 -9.2667,1.8531 -9.2667,1.8531 l 2.3830,-3.4416 z m 70.3398,0.3536 1.6767,2.9125 -7.5904,8.6486 -4.5011,-8.2959 -5.2065,-0.5295 5.7369,10.7671 -8.5608,9.7962 5.0310,0.5299 5.5597,-6.5310 5.1192,9.4431 -1.8535,1.3240 c 3.8844,0.7059 8.4731,1.7649 8.4731,1.7649 L 102.9441,24.9248 114.0648,12.3038 Z m -34.9488,1.5885 -5.5606,0.0882 1.6767,1.5885 v 19.1511 h 4.7652 V 17.4230 L 71.0833,14.2455 c 3.8844,0.7946 10.5920,7.3251 10.5920,13.1501 v 6.4424 l 4.8542,0.3527 v -20.8279 l -6.3555,-0.4413 1.4118,1.3240 v 6.6191 C 80.3498,18.2169 76.3794,14.1568 72.7613,12.7451 Z m -8.8262,0.1764 -2.3826,0.0882 -5.1192,8.1195 -4.9420,-7.4132 -3.9720,0.3532 6.4428,9.0899 v 11.2088 l 5.1192,-0.4418 V 20.9528 Z" /><path
       d="m 102.4147,59.2558 -0.0882,-0.3526 -0.2651,-0.0888 c -2.5596,-0.8828 -4.7659,-1.9413 -6.5302,-3.2654 3.6181,-3.6187 2.7353,-8.8260 2.7353,-9.0023 l -0.2651,-1.3242 -0.7059,1.1472 C 97.0304,46.8111 95.9719,47.6051 95.1779,48.2228 96.4139,40.2796 94.3833,36.0438 93.3242,34.4552 97.6481,28.7183 94.4708,23.9530 94.3827,23.8649 l -1.5005,-2.2063 0.6177,2.6477 c 1.5005,6.7078 -2.5596,9.5319 -5.8244,11.7382 -2.9122,2.0300 -6.0895,6.6190 -6.7953,7.7663 -5.2948,-0.6177 -8.7372,-0.7059 -9.7075,-0.7059 -0.7059,0 -4.3245,0 -9.7088,0.7059 -0.7946,-1.1472 -3.9713,-5.7362 -6.8841,-7.7663 l -0.4414,-0.2651 c -3.0891,-2.2063 -7.3249,-5.1192 -5.9132,-11.4731 l 0.7946,-3.2654 -1.7650,2.8247 c 0,0.0882 -2.7359,4.8541 1.7650,10.6791 -1.0591,1.5886 -3.0004,5.8250 -1.7650,13.6795 -0.8828,-0.6177 -1.8531,-1.4123 -2.2063,-1.8531 l -0.7065,-1.1472 -0.2645,1.3242 c 0,0.1763 -0.8828,5.3836 2.7359,9.0023 -1.7650,1.3236 -3.8831,2.3826 -6.5309,3.2654 l -0.2645,0.0888 -0.0882,0.3526 c 0,0.3526 -1.2360,9.9726 6.7072,20.6517 l 0.9709,1.3236 v -1.5886 c 0,0 0,-0.4414 0.0882,-1.0585 0.4414,2.4708 1.7656,6.1776 5.1192,9.7075 l 1.4999,1.5005 -0.6177,-2.0300 v -0.7065 c 1.1472,3.0010 4.3245,8.7378 13.1499,13.2387 l 1.7650,0.9709 -1.1472,-1.7649 c 0,0 -3.5299,-5.2955 -2.4714,-11.3850 0.9709,1.3236 4.8541,2.0300 6.0895,2.2063 l 0.0894,0.0882 0.0882,-0.0882 c 1.2360,-0.1763 5.2067,-0.8828 6.0895,-2.2063 1.0585,6.0895 -2.4714,11.3850 -2.4714,11.3850 l -1.1466,1.7649 1.8537,-0.9709 C 84.3232,95.7945 87.5005,90.0577 88.6471,87.0567 v 0.7065 l -0.4408,1.8531 c 0,0.0888 1.3236,-1.3236 1.3236,-1.3236 3.3530,-3.5299 4.6778,-7.2367 5.1192,-9.7075 0.0882,0.6171 0.0882,1.0585 0.0882,1.0585 v 1.5886 l 0.9709,-1.3236 C 103.6501,69.2284 102.4147,59.6090 102.4147,59.2558 Z"
       fill="#ffffff"
       id="path12-3"
       style="clip-rule:evenodd;fill-rule:evenodd;stroke-width:0.6252" /><path
       d="m 77.3503,57.1376 1.9413,-6.8841 0.8828,3.1773 z m -1.9419,3.6187 7.8538,-4.3245 -0.4408,1.1472 4.3252,-1.3236 -4.8553,5.7369 c 0,0 1.0597,-0.1763 1.5886,-0.5302 0,0 -2.1176,3.3536 -6.8835,1.5005 l -1.4117,1.7649 1.0585,-3.7950 z M 64.9944,57.1376 63.0525,50.2535 62.0816,53.4307 Z m 1.9413,3.6187 -7.8544,-4.3245 0.4414,1.1472 -4.3245,-1.3236 4.8541,5.7369 c 0,0 -1.0591,-0.1763 -1.5886,-0.5302 0,0 2.1182,3.3536 6.8841,1.5005 l 1.4117,1.7649 -1.0591,-3.7950 z"
       id="path13-0"
       style="clip-rule:evenodd;fill:#0c2340;fill-opacity:1;fill-rule:evenodd;stroke-width:0.6252" /><path
       d="m 82.7339,58.3730 -2.0307,0.7946 c 0,0.7065 -0.1757,2.1182 -0.7059,2.6477 0,0 -0.3526,-0.7065 -0.6177,-2.2063 l -2.2063,0.7946 c 0.4420,1.1472 1.5005,1.9413 2.8247,1.9413 1.5886,0 2.9122,-1.3236 2.9122,-3.0010 -6.2500e-4,-0.3532 -0.0882,-0.6177 -0.1763,-0.9709 z M 62.9650,59.6090 c -0.2651,1.4999 -0.5295,2.2063 -0.5295,2.2063 -0.6177,-0.5302 -0.7946,-1.9413 -0.7946,-2.6477 l -2.0300,-0.7946 c -0.0888,0.3532 -0.1769,0.6177 -0.1769,0.9709 a 2.9760,2.9760 0 0 0 3.0010,3.0010 c 1.2354,0 2.2945,-0.7946 2.7353,-1.9413 z"
       fill="#ffffff"
       id="path14-4"
       style="clip-rule:evenodd;fill:#236192;fill-opacity:1;fill-rule:evenodd;stroke-width:0.6252" /><path
       d="M 101.8858,59.3439 C 82.2044,52.5486 91.2954,35.9563 91.2954,35.9563 83.8812,47.1643 90.5883,54.8425 90.5883,54.8425 c -2.6471,-0.7059 -6.3533,-4.5008 -6.3533,-4.5008 4.4996,6.9723 14.4735,10.4140 14.4735,10.4140 1.2348,7.8544 -3.0016,13.6801 -3.0016,13.6801 0,-3.3536 -2.4702,-5.0310 -2.4702,-5.0310 1.7643,6.3546 -3.2667,12.9736 -3.2667,12.9736 -0.3526,-2.6471 -2.1176,-4.4127 -2.1176,-4.4127 1.0585,9.8845 -8.2083,16.5917 -8.2083,16.5917 1.3236,-5.8244 -0.4408,-9.0017 -1.4117,-10.2377 0.5289,-1.2360 1.2360,-2.5596 1.9413,-3.1767 0,0 -1.2360,0.9709 -2.3833,2.6471 l -0.0882,-0.0888 v 0.1763 c -0.7059,0.9709 -1.4117,2.1188 -1.7643,3.4424 0,0 -2.0307,1.0585 -4.7659,1.0585 -2.7359,0 -4.6778,-1.0585 -4.6778,-1.0585 -0.4414,-1.3236 -1.1472,-2.4714 -1.7650,-3.4424 l -0.0888,-0.1763 v 0.0888 c -1.2354,-1.6768 -2.4708,-2.6471 -2.4708,-2.6471 0.7059,0.6171 1.4117,1.9406 1.9413,3.1767 -0.9709,1.2360 -2.7359,4.4133 -1.4123,10.2377 0,0 -9.2668,-6.7078 -8.1195,-16.5917 0,0 -1.8531,1.7650 -2.2063,4.4127 0,0 -5.0304,-6.6190 -3.2654,-12.9736 0,0 -2.4714,1.6774 -2.4714,5.0310 0,0 -4.2358,-5.8250 -3.0004,-13.6801 0,0 9.9732,-3.4417 14.4735,-10.4140 0,0 -3.7068,3.7950 -6.3539,4.5008 0,0 6.7072,-7.5900 -0.6177,-18.7098 0.2645,0.2645 0.5295,0.4414 0.7946,0.7059 7.6781,6.7072 8.0314,10.0608 8.0314,10.0608 0,0 3.4417,-1.5005 11.0317,-1.3236 h 0.3526 c 7.5906,-0.1769 11.0323,1.3236 11.0323,1.3236 0,0 0.3526,-3.3536 8.0314,-10.0608 0.3526,-0.3532 0.7059,-0.7059 1.0585,-0.9709 4.6778,9.7082 1.5886,16.2390 1.5886,16.2390 l 3.0004,-1.5005 c 0.0894,1.5005 -0.9709,4.6778 -0.9709,4.6778 3.5299,-3.5299 2.6484,-8.6491 2.6484,-8.6491 -0.6177,0.9709 -3.3542,2.7359 -3.3542,2.7359 1.7656,-9.1786 -0.7940,-13.6795 -1.7643,-14.9149 4.5890,-5.6487 1.3236,-10.3259 1.3236,-10.3259 1.6768,7.0604 -2.7365,10.1496 -5.9138,12.3559 -3.2654,2.2945 -6.9710,7.8544 -6.9710,7.8544 -5.4718,-0.7059 -9.0911,-0.7059 -9.8851,-0.7059 -0.7946,0 -4.4133,0 -9.9732,0.7059 0,0 -3.7068,-5.5599 -6.8841,-7.8544 -3.1773,-2.2063 -8.2077,-5.2955 -6.6190,-12.3559 0,0 -2.7359,4.6771 1.9419,10.4140 -0.8828,1.3242 -3.4417,5.7362 -1.6768,14.8267 0,0 -2.7359,-1.7649 -3.3536,-2.7359 0,0 -0.8828,5.1192 2.6477,8.6491 0,0 -1.0591,-3.2654 -0.8828,-4.6778 l 2.9122,1.5005 c 0,0 -3.0885,-6.5309 1.5886,-16.2390 l 0.2651,0.2645 c 0.7059,1.3242 8.2077,16.7686 -10.6791,23.2107 0,0 -1.3236,9.6200 6.6190,20.2991 0,0 0,-2.3833 0.8828,-3.7068 0,0 -0.2651,6.2658 5.2955,12.0027 0,0 -0.2645,-0.8828 0.4414,-2.9122 0,0 1.3236,8.6491 13.3262,14.8267 0,0 -4.3245,-6.4427 -2.1182,-13.5913 0.2645,0.7946 0.4414,1.4123 0.4414,1.4123 0.4414,1.2360 5.8250,2.2063 5.8250,2.2063 0.1757,-0.0882 5.3824,-0.9709 5.8244,-2.2063 0,0 0.1757,-0.6177 0.5289,-1.4123 2.1188,7.1492 -2.2051,13.5913 -2.2051,13.5913 12.0020,-6.1776 13.3256,-14.8267 13.3256,-14.8267 0.7059,2.0294 0.4420,2.9122 0.4420,2.9122 5.5599,-5.7369 5.2948,-12.0027 5.2948,-12.0027 0.8828,1.3236 0.8828,3.7068 0.8828,3.7068 7.9445,-10.6779 6.6209,-20.2979 6.6209,-20.2979 z m 1.5593,9.0611 a 58.9567,58.9567 0 0 0 -1.9244,-0.3626 30.8100,30.8100 0 0 1 -0.1294,0.4764 c 0.6396,0.1082 1.2873,0.2288 1.9425,0.3632 0.0394,-0.1582 0.0738,-0.3182 0.1113,-0.4770 z M 40.7978,67.9517 a 59.5606,59.5606 0 0 0 -2.1182,0.3189 c 0.0350,0.1619 0.0713,0.3214 0.1082,0.4820 a 62.2003,62.2003 0 0 1 2.1401,-0.3189 51.9207,51.9207 0 0 1 -0.1300,-0.4820 z m 1.4030,4.1807 a 39.2915,39.2915 0 0 0 -2.2201,0.7015 c 0.0556,0.1544 0.1157,0.3064 0.1726,0.4602 a 37.8648,37.8648 0 0 1 2.2345,-0.7165 29.4308,29.4308 0 0 1 -0.1869,-0.4451 z m 2.2807,4.5465 a 42.6651,42.6651 0 0 0 -2.3289,1.0841 c 0.0700,0.1344 0.1388,0.2676 0.2101,0.4014 a 43.3029,43.3029 0 0 1 2.3645,-1.0785 41.4460,41.4460 0 0 1 -0.2457,-0.4070 z m 53.1192,0.4320 c 0.6815,0.2863 1.3698,0.5977 2.0650,0.9347 0.0819,-0.1482 0.1626,-0.2982 0.2432,-0.4476 a 44.5845,44.5845 0 0 0 -2.0450,-0.9234 c -0.0857,0.1450 -0.1738,0.2901 -0.2632,0.4364 z m 2.4227,-4.6915 c 0.6471,0.2076 1.3004,0.4358 1.9575,0.6884 0.0588,-0.1500 0.1175,-0.3001 0.1732,-0.4514 a 36.4781,36.4781 0 0 0 -1.9425,-0.6927 c -0.0606,0.1507 -0.1232,0.3026 -0.1882,0.4558 z"
       id="path15-4"
       style="clip-rule:evenodd;fill:#0c2340;fill-opacity:1;fill-rule:evenodd;stroke-width:0.6252" /><path
       d="m 104.5329,69.1402 c 0.0882,-0.1763 0.1757,-0.3526 0.2651,-0.4408 -11.9158,-2.7359 -21.2701,-1.0591 -24.9763,-0.0888 -1.8537,-1.4123 -3.6193,-1.9413 -3.6193,-1.9413 1.1479,0.7065 2.0307,1.4123 2.7365,2.1182 -3.0891,0.8828 -6.1776,3.0885 -6.1776,3.0885 l 6.8835,-2.2945 c 0.2651,0.3532 0.4420,0.7065 0.6177,1.0591 -1.1479,0.4414 -4.5008,1.8531 -5.2948,2.4708 l 5.7356,-1.3236 -0.8815,1.4123 c -0.7071,0.0882 -1.9413,0.3526 -2.7365,0.7059 l 2.1188,0.2651 -0.8828,1.4999 a 13.3775,13.3775 0 0 0 -6.6197,-2.3833 l 0.1769,-1.7650 3.1773,-2.3833 -0.3526,-3.7944 -0.6177,3.0010 C 73.0270,67.9930 71.4384,67.8161 71.2608,67.8161 c -0.0882,0.0888 -1.6768,0.1763 -2.8240,0.5302 l -0.5295,-3.0010 -0.3532,3.7944 3.1773,2.3833 0.1769,1.7650 a 13.3694,13.3694 0 0 0 -6.6190,2.3833 l -0.9709,-1.4999 2.2063,-0.2651 C 64.6418,73.5536 63.4945,73.2885 62.7887,73.2003 l -0.8828,-1.4123 5.6481,1.3236 c -0.7059,-0.6177 -4.1476,-2.0294 -5.2067,-2.4708 0.0882,-0.3526 0.3526,-0.7059 0.6177,-1.0591 l 6.8835,2.2945 c 0,0 -3.1773,-2.2057 -6.1776,-3.0885 0.6177,-0.7059 1.4999,-1.4117 2.7359,-2.1182 0,0 -1.8531,0.5295 -3.7950,2.0300 -4.0601,-0.7946 -14.8267,-2.5596 -27.0063,0.1763 0.0882,0.1763 0.1763,0.3526 0.2645,0.4414 11.6494,-2.5596 21.9753,-1.0591 26.3004,-0.1769 -0.6177,0.4414 -1.1472,1.0591 -1.5886,1.6774 -4.5896,-0.5295 -13.9445,-0.9709 -23.1232,3.0010 0.0882,0.1763 0.1763,0.2645 0.2645,0.4408 8.8254,-3.8831 17.9158,-3.5299 22.5055,-3.0004 l -0.5295,0.7940 c 0,0 0.6177,0.4414 1.4123,1.2360 -3.7068,-0.0882 -11.9145,0.4414 -20.8280,5.4718 0.0882,0.0888 0.1763,0.2651 0.2651,0.3532 9.2668,-5.1192 17.6507,-5.3836 21.0050,-5.2955 1.8531,2.0294 4.5008,5.8244 5.7362,12.1790 h 8.0320 c 1.2348,-6.3546 3.8831,-10.1496 5.6475,-12.1790 3.5299,-0.0888 11.9145,0.3526 20.9174,5.3830 0.0881,-0.1763 0.1757,-0.2645 0.2638,-0.4414 -8.7372,-4.8541 -16.8561,-5.4718 -20.6511,-5.4718 0.7940,-0.8822 1.3236,-1.2360 1.3236,-1.2360 -0.1757,-0.3526 -0.3526,-0.6171 -0.6177,-0.9703 4.2358,-0.7065 12.4441,-1.1472 21.0931,2.5590 0.0882,-0.0882 0.0882,-0.2645 0.1769,-0.4408 -8.9142,-3.8831 -17.3875,-3.2654 -21.6233,-2.5596 -0.4408,-0.6177 -0.9709,-1.1472 -1.5005,-1.5886 3.8838,-0.9709 12.8854,-2.4714 24.1816,0.0882 z m -34.3312,1.0591 0.6183,-0.7946 -1.3242,0.2651 -0.8828,-0.7946 c 0.6177,-0.1763 1.8537,-0.3526 2.6477,-0.3526 0.7940,0 2.1188,0.1763 2.7365,0.3526 l -0.9709,0.7946 -1.2360,-0.2651 0.6177,0.7946 -1.1479,0.7946 z M 68.4361,74.3476 c 0.6177,-0.1763 2.4714,-0.2651 2.8240,-0.2651 h 0.0882 c 0.3526,0 2.1188,0.0888 2.8247,0.2651 l 0.0882,1.2360 -1.2348,-0.7946 -0.7946,0.7059 -0.9709,-0.7059 -0.8828,0.7059 -0.7946,-0.7059 -1.2360,0.7946 z m 4.6778,6.3546 1.0585,1.4999 H 68.4361 l 1.0591,-1.4999 0.6177,0.8822 0.5295,-0.8822 0.6177,0.8822 0.7059,-0.8822 0.5302,0.8822 z m -7.5900,-4.9422 c 0.6177,-0.5302 1.9413,-0.9709 1.9413,-0.9709 -0.6177,1.2354 -0.0882,4.2358 -0.0882,4.2358 -1.9413,-1.3236 -1.8531,-3.2648 -1.8531,-3.2648 z m 1.6768,6.5303 c 0,0 -1.3242,-1.5880 -0.8828,-3.0885 0,0 1.4117,1.3242 2.2063,1.5005 0,0 -0.7940,1.3236 -1.3236,1.5880 z m 4.1476,3.2661 h -0.0882 c -2.1182,-0.0888 -3.8831,-1.1472 -3.8831,-2.7359 h 7.7663 c 6.2600e-4,1.5886 -1.6762,2.6471 -3.7950,2.7359 z M 75.4084,82.2901 c -0.6177,-0.2645 -1.4117,-1.5880 -1.4117,-1.5880 0.8815,-0.1763 2.2945,-1.5005 2.2945,-1.5005 0.3532,1.5005 -0.8828,3.0885 -0.8828,3.0885 z m -0.1769,-3.2654 c 0,0 0.5302,-3.0010 -0.0882,-4.2358 0,0 1.3236,0.4408 1.9413,0.9709 6.2500e-4,0 0.0888,1.9413 -1.8531,3.2648 z m -4.0588,11.6500 c -3.3542,0 -6.0901,2.8240 -6.0901,6.1776 0,3.4424 2.7359,6.1783 6.0901,6.1783 3.4424,0 6.1776,-2.7359 6.1776,-6.1783 0,-3.3536 -2.7353,-6.1776 -6.1776,-6.1776 z"
       id="path16"
       style="clip-rule:evenodd;fill:#0c2340;fill-opacity:1;fill-rule:evenodd;stroke-width:0.6252" /><path
       style="clip-rule:evenodd;fill:#c8102e;fill-opacity:1;fill-rule:evenodd;stroke-width:0.6252"
       d="m 67.4652,92.9692 v 0.0888 c 0,0 1.4123,0.5295 1.5886,2.0294 -1.4117,0.0888 -2.4714,0.3526 -3.1773,0.6177 0.2651,-1.0585 0.7946,-2.0294 1.5886,-2.7359 z"
       id="path67" /><path
       style="clip-rule:evenodd;fill:#c8102e;fill-opacity:1;fill-rule:evenodd;stroke-width:0.6252"
       d="m 71.5253,94.9993 v -3.5299 c 1.0585,0.0882 2.0294,0.4414 2.8247,1.0585 -0.7071,0.3532 -1.5886,1.1479 -1.7656,2.4714 z"
       id="path66" /><path
       style="clip-rule:evenodd;fill:#ffffff;fill-rule:evenodd;stroke-width:0.6252"
       d="m 71.5253,102.2360 v -6.5309 h 0.9709 c 0.0882,2.2063 1.7643,3.8831 3.0004,4.4133 -0.9709,1.2354 -2.3826,2.0300 -3.9713,2.1176 z"
       id="path65" /><path
       style="clip-rule:evenodd;fill:#ffffff;fill-rule:evenodd;stroke-width:0.6252"
       d="m 65.7884,96.4991 c 0.4414,-0.1763 1.5886,-0.5295 3.3536,-0.7059 -0.1763,1.7649 -1.5886,3.2654 -2.6477,3.7068 -0.4414,-0.7946 -0.7059,-1.6768 -0.7059,-2.6477 z"
       id="path64" /><path
       style="clip-rule:evenodd;fill:#ffffff;fill-rule:evenodd;stroke-width:0.6252"
       d="m 69.8485,94.9993 a 3.5293,3.5293 0 0 0 -1.8531,-2.4714 c 0.7946,-0.6171 1.7650,-0.9709 2.8247,-1.0585 v 3.5299 z"
       id="path63" /><path
       style="clip-rule:evenodd;fill:#ffffff;fill-rule:evenodd;stroke-width:0.6252"
       d="m 74.9676,93.0580 a 5.6325,5.6325 0 0 1 1.4992,2.6471 c -0.6177,-0.2651 -1.6768,-0.5295 -3.1773,-0.6177 0.2651,-1.5005 1.5893,-2.0294 1.6780,-2.0294 0,0 0,-0.0888 0,0 z"
       id="path17-4" /><path
       d="m 66.8475,100.1184 c 1.3236,-0.5302 2.9122,-2.2063 3.0004,-4.4133 h 0.9716 v 6.5309 c -1.5886,-0.0875 -3.0010,-0.8822 -3.9719,-2.1176 z m 9.0911,-0.6183 c -1.1479,-0.4414 -2.5596,-1.9413 -2.6484,-3.7068 1.6780,0.1763 2.8247,0.5295 3.2654,0.7059 v 0.3526 c -6.2500e-4,0.9722 -0.1763,1.8544 -0.6171,2.6484 z M 74.6150,78.6721 C 73.7322,77.7012 73.3790,75.9362 73.3790,75.9362 h -1.3248 c -0.1757,0.4414 -0.7059,1.3236 -0.7940,1.4999 0,-0.1763 -0.6177,-1.0585 -0.7059,-1.4999 h -1.3242 c 0,0 -0.3532,1.7650 -1.2360,2.7359 0,0 0.7946,1.4999 3.2654,1.4999 2.4727,0 3.3555,-1.4999 3.3555,-1.4999 z"
       fill="#ffffff"
       id="path18-4"
       style="clip-rule:evenodd;fill:#c8102e;fill-opacity:1;fill-rule:evenodd;stroke-width:0.6252" /></g><style
     type="text/css"
     id="style1">
	.st0{fill:#4891CE;}
	.st1{fill:#C7D9EA;}
	.st2{fill:#E3173E;}
	.st3{fill:#FFFFFF;}
</style><style
     type="text/css"
     id="style1-7">
	.st0{fill:#211646;}
	.st1{fill:#B3B2B1;}
	.st2{fill:#FFFFFF;}
	.st3{fill:#D35E13;}
</style></svg>
