<svg
  
  
   viewBox="0 0 140.3140 110.6577"
   version="1.1000"
   id="svg1"
   xml:space="preserve"
   sodipodi:docname="group-team-logo-doc.svg"
   inkscape:version="1.4000.2 (2aeb623e1d, 2025-05-12)"
   xmlns:inkscape="http://www.inkscape.org/namespaces/inkscape"
   xmlns:sodipodi="http://sodipodi.sourceforge.net/DTD/sodipodi-0.dtd"
   xmlns="http://www.w3.org/2000/svg"
   xmlns:svg="http://www.w3.org/2000/svg"><sodipodi:namedview
     id="namedview1"
     pagecolor="#ffffff"
     bordercolor="#000000"
     borderopacity="0.2500"
     inkscape:showpageshadow="2"
     inkscape:pageopacity="0.0000"
     inkscape:pagecheckerboard="0"
     inkscape:deskcolor="#d1d1d1"
     inkscape:document-units="px"
     inkscape:zoom="0.7790"
     inkscape:cx="129.6584"
     inkscape:cy="283.0661"
     inkscape:window-width="1854"
     inkscape:window-height="1011"
     inkscape:window-x="0"
     inkscape:window-y="0"
     inkscape:window-maximized="1"
     inkscape:current-layer="layer5"
     showgrid="false"><inkscape:page
       x="0"
       y="0"
      
      
       id="page2"
       margin="0"
       bleed="0" /><inkscape:grid
       id="grid5"
       units="px"
       originx="0"
       originy="0"
       spacingx="0.2213"
       spacingy="0.2213"
       empcolor="#0099e5"
       empopacity="0.3020"
       color="#0099e5"
       opacity="0.1490"
       empspacing="5"
       enabled="true"
       visible="false" /></sodipodi:namedview><defs
     id="defs1"></defs><g
     inkscape:groupmode="layer"
     id="layer5"
     inkscape:label="new-york-liberty"
     style="fill:#bb0c2f;fill-opacity:1.0000"><path
       id="XMLID_3_"
       class="st0"
       d="m 19.2475,46.2723 c -1.0116,0.6322 -2.0863,1.2960 -3.1611,1.9915 -0.3793,0.2529 -0.7587,0.5058 -1.1380,0.7587 l -0.7903,0.5374 v 0.0316 l -0.0316,0.0316 0.0316,0.0316 0.5058,0.8535 c 0.0948,0.1264 8.5350,14.8256 17.8286,25.7946 l 0.7271,0.8535 0.8535,-0.6954 c 0.0316,-0.0316 0.7903,-0.6638 2.1812,-1.7070 l 0.0948,0.0948 c 4.3307,5.2474 8.9775,10.2420 13.9404,14.8888 5.9429,5.6268 12.2967,10.8110 19.0298,15.4578 l 1.0748,0.7270 0.1897,-0.0632 0.0316,-0.0316 1.1064,-0.5690 c 0.3793,-0.1580 9.0091,-4.4255 19.7569,-13.3082 9.3252,-7.6499 17.4809,-16.6590 24.1508,-26.7113 0.3477,-0.5058 0.6638,-1.0116 0.9799,-1.5173 0.3793,0.2213 0.8535,0.4742 1.1064,0.6322 0.3161,0.1581 0.5690,0.3161 0.7587,0.4109 l 0.7903,0.4109 0.2213,-0.0316 0.5374,-0.9483 c 0.0632,-0.1264 6.3854,-11.0955 7.3338,-12.6760 l 0.5058,-0.8219 -0.7587,-0.6322 -0.0316,-0.0316 v 0 l -0.0316,-0.0316 c -0.2845,-0.2213 -1.3909,-1.1064 -3.2559,-2.3392 l 1.5489,-3.8882 0.6638,-1.6438 -1.4857,-0.9167 -2.4657,-1.5173 c 0.0316,-0.1581 0.0948,-0.3161 0.1264,-0.4742 l 0.5058,-1.7070 -1.4857,-1.0116 C 108.8330,28.1909 89.9613,22.7222 70.7102,21.9003 49.9734,20.8887 32.1764,24.4292 20.4803,31.7629 l -1.4857,0.9167 c 0,0 0.7587,3.5088 1.1064,4.4572 l -2.0231,1.4225 -1.4225,1.0116 0.6322,1.5805 1.9283,4.8681 z"
       style="fill:#ff6720;fill-opacity:1;stroke-width:0.3161" /><path
       id="XMLID_9_"
       class="st1"
       d="m 120.9084,41.5623 -1.3593,3.2559 c 0.8535,0.5058 1.6438,0.9799 2.3392,1.4225 l 1.3277,-3.2559 z m -101.4081,-1.0432 1.7386,4.3939 c 0.6322,-0.3793 1.2960,-0.7271 1.8967,-1.0748 l -1.7702,-4.6468 z m 52.0949,59.8712 -0.6638,0.3477 -0.6006,-0.4109 C 70.1728,100.2007 54.9363,90.0220 42.3867,74.4061 c -0.4109,0.3161 -1.2328,0.8535 -1.5805,1.1064 8.5034,9.7362 18.0183,18.5557 28.3867,26.3003 0.7587,0.5690 1.2960,0.9167 1.4857,1.0116 0.1897,-0.0632 0.6638,-0.3477 1.4857,-0.7903 1.0116,-0.5690 2.4657,-1.3909 4.2359,-2.5289 4.8997,-3.0979 9.5781,-6.5119 14.0353,-10.2103 7.5234,-6.2590 15.9952,-14.6675 23.1709,-25.2572 -0.3477,-0.1264 -1.4857,-0.6638 -2.1812,-0.9799 C 98.0221,85.9757 71.8482,100.2323 71.5953,100.3904 Z m 9.8310,-44.1606 c -14.4778,0.6006 -29.4614,8.5034 -37.1429,13.1818 -0.6638,0.4109 -1.2961,0.7587 -1.8650,1.1380 11.2851,14.7939 25.5417,25.1623 28.6712,27.3435 4.1410,-2.3708 27.2803,-16.3113 38.9447,-37.3010 -5.6584,-2.2444 -13.9404,-4.4255 -25.0675,-4.4255 -1.1696,0 -2.3708,0 -3.5404,0.0632 z M 70.6153,24.4292 c -2.1179,-0.1264 -4.2043,-0.1264 -6.2590,-0.1264 -17.8918,0 -32.6858,3.5404 -42.4852,9.6730 0.6006,2.3392 1.3593,4.6152 2.2760,6.8596 0.3161,0.7587 0.5690,1.4225 0.8535,1.9915 16.3429,-8.7879 30.8839,-11.4432 43.8761,-11.4432 6.1641,0.0316 12.3283,0.5690 18.3976,1.5805 12.7076,1.9915 23.3921,6.8912 30.5362,10.9374 0.7587,-1.9283 1.4225,-3.7933 1.8967,-5.2790 C 108.3905,31.0042 90.5619,25.3143 70.6153,24.4292 Z"
       style="fill:#0057b7;fill-opacity:1;stroke-width:0.3161" /><path
       id="XMLID_13_"
       class="st2"
       d="m 40.8062,75.5125 c 0.3477,-0.2213 1.1380,-0.7903 1.5805,-1.1064 -0.6638,-0.8535 -1.3277,-1.6438 -1.9915,-2.5289 -0.6006,0.4109 -1.1380,0.7903 -1.6438,1.1696 0.6322,0.8535 1.3277,1.6754 2.0547,2.4657 z M 113.5747,64.0693 c 0.3477,-0.5058 0.6638,-0.9799 0.9799,-1.4857 -0.6638,-0.3161 -1.4225,-0.6954 -2.2760,-1.0748 -0.3161,0.5058 -0.6006,1.0116 -0.8851,1.5173 0.7271,0.3477 2.1812,1.0432 2.1812,1.0432 z m 4.8681,0.6322 c -0.2213,-0.0948 -0.4742,-0.2213 -0.7587,-0.4109 -0.2845,-0.1581 -0.7587,-0.4109 -1.1064,-0.6322 -0.3477,0.5058 -0.6638,1.0116 -0.9799,1.5173 l 0.5374,0.4109 3.0979,-0.4742 z"
       style="fill:#000000;stroke-width:0.3161" /><path
       id="XMLID_27_"
       style="fill:#000000;stroke-width:0.3161"
       class="st2"
       d="m 63.5344,25.8831 c 0.1916,0.7936 0.3594,1.5164 0.5036,2.2910 0.0426,0.0477 0.0856,0.0953 0.1288,0.1431 0,-0.0316 -0.0316,-0.0314 -0.0316,-0.0947 -0.1849,-0.8188 -0.3480,-1.5496 -0.5256,-2.3394 z m 5.3738,0.0316 0.0951,0.3795 h 0.4742 l 0.0316,0.1267 c 0.1928,0.9916 0.3617,1.8630 0.5693,2.8447 h 0.0947 c -0.2213,-1.0432 -0.4111,-1.9913 -0.6324,-3.0344 h -0.5057 v -0.1267 c -0.0091,-0.0638 -0.0182,-0.1250 -0.0281,-0.1850 -0.0327,-0.0015 -0.0657,-0.0032 -0.0985,-0.0048 z m -8.9456,0.0320 c 0.0316,0.1264 0.0630,0.2526 0.0947,0.4106 h 0.5057 l 0.0316,0.1267 c 0.2161,1.0263 0.4321,1.9601 0.6678,2.9398 h 0.1223 c -0.2529,-1.1064 -0.5058,-2.0863 -0.7271,-3.1611 -0.1264,0 -0.2526,-5.6000e-5 -0.3791,0.0316 H 60.1520 L 60.1204,26.1675 c -0.0211,-0.0737 -0.0420,-0.1472 -0.0618,-0.2209 -0.0319,1.5000e-5 -0.0638,0 -0.0960,0 z m 10.7792,0.2529 c 0.0059,0.0588 0.0139,0.1174 0.0238,0.1764 0.4322,0.0130 0.8260,0.0130 1.2721,0.0130 h 0.1267 v 0.0951 c 0.0316,0.2213 0.1262,0.4422 0.1262,0.6635 h 0.5377 c -0.0086,-0.0375 -0.0174,-0.0742 -0.0255,-0.1107 -0.0998,-7.4800e-4 -0.2044,-0.0038 -0.3225,-0.0156 h -0.1262 v -0.1267 c -0.0316,-0.2213 -0.0950,-0.4422 -0.1267,-0.6635 -0.5058,-0.0316 -0.9799,-0.0316 -1.4857,-0.0316 z m 5.5618,0.3160 c 0.0014,0.0400 0.0017,0.0810 0.0017,0.1262 0.1264,0.0316 0.2526,0.0320 0.4106,0.0320 l 0.0627,0.0311 c -0.0206,-0.0524 -0.0414,-0.1050 -0.0622,-0.1578 -0.1184,-0.0296 -0.2649,-0.0314 -0.4128,-0.0316 z m 0.4759,0.1915 v 0.0298 c 0.5374,1.3909 0.9799,2.5920 1.4857,3.9513 l 0.6639,0.0947 c 0.0059,-0.0310 0.0118,-0.0617 0.0177,-0.0925 -0.1947,-0.0240 -0.3760,-0.0527 -0.6186,-0.0968 h -0.0947 l -0.0316,-0.0951 C 77.7163,29.1925 77.2889,28.0036 76.7796,26.7070 Z m -14.7624,0.5671 c 0,0.0316 0.0316,0.0634 0.0316,0.1267 0.0239,0.1059 0.0476,0.2105 0.0709,0.3138 0.7804,0.9103 1.5174,1.7515 2.3316,2.6891 h 0.0316 c 0.2213,0 0.4111,5.6000e-5 0.6324,-0.0316 -0.0083,-0.0359 -0.0168,-0.0716 -0.0251,-0.1072 -0.1076,0.0066 -0.2152,0.0121 -0.3229,0.0121 h -0.1262 l -0.0316,-0.0316 c -0.9167,-1.0432 -1.7387,-1.9598 -2.5922,-2.9713 z m 21.3059,0.0631 c -0.0059,0.0475 -0.0120,0.0947 -0.0182,0.1418 0.0271,0.0042 0.0542,0.0097 0.0813,0.0164 -0.0143,-0.0572 -0.0221,-0.1081 -0.0264,-0.1582 -0.0122,-2.8000e-5 -0.0245,0 -0.0367,0 z m -3.2246,0.1898 c -0.0104,0.0431 -0.0211,0.0860 -0.0316,0.1288 0.5225,1.1794 1.0203,2.2438 1.5177,3.4434 0.2213,0.0632 0.4422,0.0947 0.6951,0.0947 0.0054,-0.0430 0.0108,-0.0858 0.0164,-0.1284 -0.1968,-0.0233 -0.3979,-0.0513 -0.5853,-0.0929 h -0.0947 l -0.0316,-0.0316 c -0.5058,-1.2012 -0.9803,-2.2443 -1.4861,-3.4140 z m -8.9456,0.5373 c 0.0150,0.0649 0.0293,0.1284 0.0428,0.1906 0.3958,0.0019 0.7849,0.0082 1.1900,0.0307 -0.0192,-0.0770 -0.0387,-0.1423 -0.0579,-0.2101 -0.3976,-0.0114 -0.7701,-0.0112 -1.1749,-0.0112 z m 20.3723,0.8273 c -0.0076,0.0536 -0.0151,0.1066 -0.0151,0.1526 0.1264,0.0316 0.2846,0.0950 0.4111,0.1267 h 0.0316 l 0.0316,0.0316 c 0.3999,0.7382 0.7999,1.3567 1.2289,2.1176 0.0025,-0.0740 0.0039,-0.1474 0.0039,-0.2209 -0.4109,-0.7271 -0.8219,-1.3595 -1.2328,-2.0865 -0.1230,-0.0308 -0.2761,-0.0612 -0.4591,-0.1210 z m -18.7604,0.2477 c 0,0.0420 0.0024,0.0838 0.0065,0.1258 0.0294,2.0400e-4 0.0590,4.3200e-4 0.0886,4.3200e-4 -0.0060,-0.0421 -0.0119,-0.0841 -0.0182,-0.1262 z m -3.0344,0.7271 0.0631,0.2529 v -0.0316 c -0.0109,-0.0763 -0.0256,-0.1487 -0.0415,-0.2213 z m -8.7878,0.2213 c 0.0948,0.0948 0.0947,0.2210 0.0947,0.3791 0.3793,0 0.7270,-0.0316 1.0115,-0.0316 -0.0030,-0.0129 -0.0061,-0.0256 -0.0091,-0.0385 -0.2653,0.0071 -0.5372,0.0069 -0.8442,0.0069 h -0.1267 v -0.1582 h -0.0316 c -0.0075,-0.0527 -0.0170,-0.1051 -0.0272,-0.1578 z m 34.8667,0 c -0.0227,0.0213 -0.0452,0.0426 -0.0674,0.0635 0.0831,0.0236 0.1616,0.0516 0.2256,0.0942 0,-0.0413 0.0032,-0.0791 0.0078,-0.1158 -0.0553,-0.0161 -0.1107,-0.0309 -0.1660,-0.0419 z m -25.9998,0.0947 0.0156,0.0631 c 1.2644,0.0632 2.4023,0.0635 3.6984,0.0951 -0.0027,-0.0348 -0.0060,-0.0693 -0.0099,-0.1033 -1.2354,-0.0237 -2.3656,-0.0263 -3.6253,-0.0549 z m 30.7015,1.0746 c -0.0175,7.3700e-4 -0.0262,0.0065 -0.0618,0.0523 0.0316,0.0060 0.0644,0.0112 0.1020,0.0112 0.4109,0.1264 0.7584,0.2210 1.1377,0.4106 0.1550,0.0443 0.2790,0.1508 0.3393,0.2974 0.0030,-0.0148 0.0060,-0.0297 0.0090,-0.0445 v -0.0631 c 0,-0.1264 -3e-5,-0.1581 -0.2213,-0.2213 -0.4109,-0.1264 -0.7588,-0.2842 -1.1381,-0.4106 -0.0632,-0.0316 -0.0949,-0.0320 -0.1582,-0.0320 -0.0030,0 -0.0060,-1.0500e-4 -0.0080,0 z M 18.9947,32.8062 14.6639,44.9763 c 0.3477,1.1696 0.8220,2.2761 1.3910,3.3509 1.0432,-0.6954 2.1179,-1.3596 3.1611,-1.9918 l -1.9283,-5.0574 -0.6324,-1.5808 1.4226,-1.0115 2.0230,-1.4226 c -0.3477,-1.0116 -1.1061,-4.4570 -1.1061,-4.4570 z m 73.6851,0.1184 v 0.1975 c 0.5374,0.0948 1.0748,0.2530 1.7070,0.4111 0,-0.0539 0.0059,-0.1023 0.0125,-0.1496 -0.6071,-0.1603 -1.1250,-0.3172 -1.6880,-0.4513 z m 13.4691,0.3519 c -0.0030,0.0434 -0.0030,0.0867 -0.0030,0.1301 0.0908,0.0227 0.1819,0.0619 0.2844,0.1055 0.0106,-0.0351 0.0212,-0.0703 0.0320,-0.1055 z m -37.1771,0.5727 c -4.7208,0 -9.7422,0.5635 -14.9068,1.4610 0.6605,0.0702 1.8198,0.7201 1.8198,0.7201 l 0.0316,0.0316 v 0.0316 c 0.1897,0.4426 0.3159,0.8852 0.3791,1.3910 0.0948,0.4742 0.1582,0.9483 0.1582,1.4541 v 0.1267 c 0,0.0632 0.0316,0.5374 0.0316,1.2328 0,1.4857 -0.1262,3.7929 -1.1061,5.3103 0.5058,0.6954 4.4254,6.1010 5.1841,8.2189 v 0.0316 c 0,0 0.0947,2.4028 0.0947,4.1730 0,0.1446 8e-5,0.2890 -4.3200e-4,0.4336 3.2624,-1.2649 6.7186,-2.3922 10.2600,-3.2328 l -1.6927,-1.2786 2.2374,1.1520 h 4.3200e-4 c 3.1297,-0.7148 6.3213,-1.2010 9.5006,-1.3556 l -0.8010,-6.5612 1.6218,6.5314 c 1.0545,-0.0333 2.0869,-0.0826 3.1196,-0.0826 1.0586,0 2.1091,0.0197 3.1507,0.0592 1.4300e-4,6e-6 2.9000e-4,-5e-6 4.3200e-4,0 l 4.3092,-3.9158 -3.3327,3.9586 c 3.1505,0.1579 6.2211,0.4985 9.2071,1.0219 l 4.0200,-1.1874 -3.5026,1.2803 c 7.1119,1.3011 13.7388,3.6457 19.8138,7.0337 1.3909,-2.4024 4.6783,-8.1873 6.1640,-10.6845 -3.6353,-2.6553 -18.3025,-12.7712 -37.8065,-15.8059 -5.9429,-0.9799 -11.9490,-1.4856 -17.9551,-1.5488 z m 38.6602,0 c -0.0155,0.0776 -0.0311,0.1497 -0.0471,0.2187 0.3000,0.1372 0.5749,0.2597 0.8688,0.3821 0.1659,0.0474 0.2783,0.1656 0.3376,0.3151 0.0060,-0.0326 0.0100,-0.0643 0.0100,-0.0942 l 0.0320,-0.1262 c 0,-0.0632 -0.0317,-0.1265 -0.1898,-0.2213 -0.3477,-0.1264 -0.6638,-0.2845 -1.0115,-0.4742 z m -8.8448,0.0259 c -0.0021,0.0124 -0.0044,0.0248 -0.0065,0.0372 v 0.0951 c 0,0.3793 0.2847,0.6636 0.8537,0.8848 0.6006,0.2213 1.1064,0.3796 1.7070,0.5693 0.1580,0.0316 0.3477,0.0630 0.5057,0.0947 0.1721,-0.0172 0.2878,-0.0533 0.3679,-0.1284 -0.0475,0.0053 -0.0964,0.0063 -0.1465,0.0022 -0.2213,0 -0.4112,-0.0319 -0.6008,-0.0951 -0.6006,-0.2213 -1.1063,-0.3791 -1.7385,-0.6004 C 99.2616,34.5527 98.9010,34.2428 98.7871,33.8751 Z M 53.7196,35.3837 C 49.4452,36.1447 45.0064,37.3531 40.4177,38.9550 l 0.1673,0.0151 c 1.2644,0.2213 2.5605,0.3479 3.8566,0.4111 h 0.0316 l 0.0316,0.0316 c 0.0316,0 0.0946,-5.6000e-5 0.1262,0.0316 0.1264,0.0316 0.2846,0.0631 0.4111,0.0631 0.2845,0 0.5373,-0.0629 0.7902,-0.1578 0.4109,-0.1581 0.8538,-0.2847 1.2963,-0.3480 h 0.0316 c 0.1581,0.0632 0.3161,0.1581 0.4742,0.2213 0.2845,0.1264 0.4741,0.4109 0.5057,0.7271 0,0.4109 -0.3480,0.7906 -1.3279,1.2963 -0.7903,0.2845 -1.6122,0.5056 -2.4340,0.5688 H 44.2834 c -0.2529,-0.1581 -0.4425,-0.4425 -0.5057,-0.7586 -0.0632,-0.2845 -0.0947,-0.6008 -0.0947,-0.8853 -1.0116,-0.2213 -1.9918,-0.4739 -2.9718,-0.8533 -0.0948,0 -0.1897,-0.0634 -0.2529,-0.1267 l -0.1656,-0.1889 c -7.2920,2.5575 -14.8873,6.0055 -23.0051,11.3476 1.9915,3.3508 8.7876,14.4780 16.1846,23.4555 3.0347,-2.3708 6.2277,-4.5520 9.5468,-6.5435 3.0157,-1.8362 7.1542,-4.1728 11.9636,-6.3875 -0.0153,-0.0099 -0.0308,-0.0200 -0.0462,-0.0298 -0.4109,-0.2529 -0.8853,-0.4425 -1.3594,-0.5373 h -0.0316 l -0.0316,-0.0316 c -0.7903,-1.2328 -1.4540,-2.5289 -1.9914,-3.8881 -0.1581,-0.4426 -0.2213,-0.9168 -0.2213,-1.3910 0,-0.2529 0.0316,-0.5057 0.0316,-0.7586 l 0.0316,-0.2213 0.1898,0.1267 0.0316,0.0316 c 0.0632,0.0316 0.1266,0.0630 0.1582,0.0947 0.1897,0.1264 0.4106,0.1898 0.6635,0.1898 h 0.0320 l 1.2959,2.2443 -0.0316,0.0631 c -0.1581,0.2845 -0.2213,0.5692 -0.2213,0.8853 0.0316,1.1064 0.9166,2.0230 2.0230,2.0230 0.5374,0 1.0432,-0.2211 1.4226,-0.6004 0.3793,-0.3793 0.6008,-0.8852 0.6008,-1.4226 0,-0.5374 -0.2215,-1.0432 -0.6008,-1.4226 -0.1581,-0.1581 -0.3792,-0.2842 -0.5688,-0.4106 l -0.0316,-0.0320 -0.5693,-3.0344 0.0316,-0.0316 c 0.0316,-0.1264 0.1266,-0.1900 0.1582,-0.3164 0.1581,-0.4109 0.2213,-0.8218 0.2213,-1.2644 0.0316,-0.7587 -0.4111,-1.4225 -1.1066,-1.6754 l -0.0631,-0.0316 -1.7385,-7.4599 0.0316,-0.0320 c 0,0 0.2528,-0.5372 0.5373,-1.3275 0.2845,-0.7271 0.4743,-1.4856 0.6324,-2.2443 -0.6322,0.6322 -1.4858,0.9798 -2.3709,1.0430 h -0.0316 c -1.1064,-0.0316 -2.0861,-0.7585 -2.3074,-1.2959 -0.0316,-0.0632 -0.0320,-0.1581 -0.0320,-0.2213 0,-0.1897 0.0949,-0.3478 0.2213,-0.4426 0.1581,-0.0948 0.3477,-0.1581 0.5057,-0.2213 0.4742,-0.1264 0.8854,-0.3159 1.2963,-0.6004 0.6954,-0.3793 1.3276,-0.7907 1.9599,-1.2332 0.0051,-0.0051 0.0105,-0.0096 0.0160,-0.0143 z m 53.5013,0.1094 c -0.0112,0.0449 -0.0221,0.0896 -0.0329,0.1340 0.3458,0.1527 0.6591,0.2697 1.0443,0.4349 0.0580,0.0348 0.1203,0.0740 0.1759,0.1189 l 0.0138,-0.0558 c 0,-0.0316 -0.0318,-0.0945 -0.1582,-0.1893 -0.3793,-0.1264 -0.6637,-0.2846 -1.0430,-0.4426 z m 2.1712,0.4284 c -0.0382,0.0093 -0.0772,0.0143 -0.1163,0.0143 0.0288,0.0230 0.0543,0.0493 0.0769,0.0778 0.0164,-0.0216 0.0293,-0.0510 0.0393,-0.0921 z m 3.8419,0.6194 c -0.0234,0.0597 -0.0466,0.1066 -0.0700,0.1535 0.0944,0.0315 0.2200,0.1257 0.3147,0.1889 0.0210,-0.0522 0.0425,-0.1048 0.0644,-0.1573 -0.0925,-0.0617 -0.2151,-0.1233 -0.3091,-0.1850 z m -7.8640,0.0030 c -0.0070,0.0370 -0.0143,0.0745 -0.0143,0.1189 0.4109,0.1581 0.7589,0.3161 1.1066,0.5057 0.0140,-0.0447 0.0271,-0.0893 0.0402,-0.1336 -0.3764,-0.1770 -0.7067,-0.3347 -1.1325,-0.4910 z m -31.7514,0.6246 h 0.6635 c 1.0432,4.3623 2.0549,8.5349 3.0664,12.8972 -0.1897,0.0316 -0.3792,0.0631 -0.5688,0.0631 -1.0748,-4.3939 -2.0863,-8.5664 -3.1611,-12.9604 z m 34.6272,0.6648 c -0.0040,0.0206 -0.0090,0.0414 -0.0134,0.0622 0.2213,0.1897 0.5691,0.3792 0.9168,0.5373 0.0224,-0.0898 0.0450,-0.1475 0.0674,-0.2075 -0.3225,-0.1426 -0.6276,-0.2623 -0.9708,-0.3921 z m -41.2338,0.1254 c 0.4109,1.2960 0.7899,2.5605 1.2008,3.8881 -0.2213,0.1581 -0.3476,0.2846 -0.5688,0.4111 -0.4109,-1.3593 -0.7903,-2.6237 -1.2012,-3.9197 0.2213,-0.0632 0.4112,-0.1899 0.5693,-0.3795 z m -9.7366,0.1898 c 1.8018,4.7416 3.5089,9.3568 5.3107,14.1300 -0.2213,0.0632 -0.4107,0.1266 -0.6320,0.1582 -1.8334,-4.8049 -3.6039,-9.4203 -5.4374,-14.2251 0.2529,-0.0632 0.5057,-0.0631 0.7586,-0.0631 z m 58.9226,0.1262 c -0.0308,0.0112 -0.0613,0.0225 -0.0916,0.0337 0.1570,0.0938 0.3141,0.1565 0.4712,0.2507 0.0080,-0.0249 0.0166,-0.0472 0.0255,-0.0683 -0.1352,-0.0720 -0.2610,-0.1441 -0.4050,-0.2161 z m -28.3547,0.2213 c 0.1897,0.0632 0.4112,0.0951 0.6008,0.0951 0.3793,3.8565 0.7268,7.4914 1.1061,11.3796 -0.1264,0 -0.3476,-0.0316 -0.5373,-0.0316 C 88.6336,46.0509 88.2542,42.3525 87.8432,38.4960 Z m 27.4811,0.0869 c -0.0454,0.0137 -0.0915,0.0271 -0.1379,0.0398 0.0050,0.0016 0.0100,0.0034 0.0143,0.0052 0.0414,-0.0148 0.0827,-0.0300 0.1236,-0.0449 z m -1.3387,0.1975 c -0.0100,0.0294 -0.0198,0.0584 -0.0298,0.0873 0.3223,0.1778 0.5555,0.3181 0.8831,0.4820 0.0807,0.0645 0.1617,0.1205 0.2213,0.1854 v -0.0908 c 0,-0.0316 2.9000e-4,-0.0950 -0.1578,-0.1582 -0.3161,-0.1897 -0.5691,-0.3477 -0.9168,-0.5057 z m -1.8855,0.7647 c -0.0143,0.0316 -0.0285,0.0604 -0.0428,0.0890 0.3477,0.2845 0.6638,0.4424 0.9799,0.6004 0.0188,-0.0564 0.0379,-0.1120 0.0575,-0.1669 -0.3241,-0.1873 -0.6391,-0.3449 -0.9946,-0.5226 z m 2.6566,1.4360 c -0.0144,0.0354 -0.0291,0.0713 -0.0441,0.1072 0.2845,0.2213 0.6003,0.4108 0.9164,0.5688 h 4.4000e-4 c 0.0217,-0.0650 0.0432,-0.1149 0.0648,-0.1604 -0.3275,-0.1755 -0.6256,-0.3620 -0.9376,-0.5157 z m -65.8267,0.6129 h 0.0316 c 0.2213,0 0.4743,0.0634 0.6639,0.1582 0.1264,0.0948 0.2213,0.2526 0.2213,0.4106 -0.0632,0.3793 -0.2528,0.7270 -0.5373,0.9799 l -0.0316,0.0316 c -0.1264,0.0948 -0.2530,0.1900 -0.4111,0.2849 -0.2213,0.1264 -0.5057,0.2842 -0.7902,0.4106 -0.5058,0.2529 -1.0433,0.4429 -1.6123,0.5377 0,0.0316 -0.0950,-3.7700e-4 -0.1582,-0.0320 -0.0632,-0.0316 -0.1262,-0.0945 -0.1262,-0.1578 l -0.0951,-0.5057 c -1.7070,-0.2529 -3.4137,-0.6956 -5.0258,-1.3594 l 0.0947,-0.2213 c 1.3909,0.3793 2.8452,0.6322 4.2677,0.7586 0.7271,-0.0948 1.4538,-0.2843 2.1176,-0.6004 0.4742,-0.1897 0.9484,-0.4111 1.3910,-0.6639 z m 54.6238,1.8336 0.6004,0.1893 c -0.3477,2.4340 -0.7268,5.3424 -1.1061,8.4402 -0.1897,-0.0632 -0.3161,-0.0946 -0.4742,-0.1262 0.3161,-3.0979 0.7270,-6.0377 0.9799,-8.5034 z M 50.1314,44.7866 h 0.1582 c 0.0948,0 0.2212,0.0314 0.3160,0.0947 v 4.3200e-4 c 0.0948,0.0632 0.1582,0.1579 0.1582,0.3160 -0.0948,0.4426 -0.3477,0.8216 -0.7271,1.1061 -0.3477,0.2213 -0.7272,0.4112 -1.1066,0.5693 -0.4426,0.1897 -0.8533,0.3475 -0.8533,0.3475 l -0.1267,0.0316 -0.0947,-0.4742 -0.0316,-0.3475 c -0.2213,0.0316 -0.4427,0.0316 -0.6639,0.0316 h -0.2529 c -0.6954,-0.0316 -1.3908,-0.1896 -1.9914,-0.5057 l -0.3480,-0.2529 h 0.4426 c 1.6754,0 2.2129,-0.0316 2.6238,-0.0316 0.4742,-0.0948 0.9484,-0.2214 1.3910,-0.4111 C 49.5943,45.0079 50.1314,44.7866 50.1314,44.7866 Z m 18.3977,0.2529 c 0.2529,0.0632 0.4741,0.1580 0.7586,0.2529 0.4109,1.3277 0.7903,2.6236 1.2012,3.9513 -0.2213,0.0632 -0.4112,0.0951 -0.6008,0.0951 -0.4742,-1.4541 -0.8849,-2.8451 -1.3590,-4.2992 z m 26.3318,1.0115 c 0.1897,0.1264 0.3796,0.2847 0.5693,0.3795 0,1.3909 -5.5000e-5,2.7501 0.0316,4.1726 -0.1897,0 -0.3477,-0.0315 -0.5057,-0.0631 -0.0632,-1.5173 -0.0951,-2.9717 -0.0951,-4.4890 z m -43.7180,1.2648 c 0.0632,0 0.1581,0.0315 0.2213,0.0631 0.0316,0.0632 0.0632,0.1265 0.0316,0.1898 -0.0316,0.3477 -0.1894,0.6951 -0.4106,0.9479 -0.2845,0.3477 -0.6326,0.6324 -1.0119,0.8537 -0.3477,0.2213 -0.7268,0.3479 -1.1061,0.4111 -0.0948,0 -0.1581,-0.0316 -0.2213,-0.0316 -0.0632,-0.0632 -0.0950,-0.1581 -0.1267,-0.2213 v -0.0316 l -0.0631,-0.8222 v -0.0947 l 0.0951,-0.0316 c 0.5058,-0.2213 1.5805,-0.7274 1.7385,-0.7590 0.4109,-0.3161 0.6320,-0.4738 0.8533,-0.4738 z m 31.9589,0 0.2844,0.1578 c 0.1264,0.0316 0.2211,0.0950 0.3475,0.1267 0.0948,0.4742 0.1265,0.9168 0.2213,1.4226 -0.0948,-0.0948 -0.2211,-0.1266 -0.3475,-0.1582 -0.0948,-0.0316 -0.1896,-0.0950 -0.2844,-0.1267 -0.0948,-0.4742 -0.1265,-0.9163 -0.2213,-1.4221 z m 30.4728,0.6320 c 0.1581,0.0948 0.3477,0.1581 0.5057,0.2213 -0.4109,1.3909 -0.6005,2.6555 -1.0115,4.0148 -0.1581,0 -0.3477,-3.7700e-4 -0.5057,-0.0320 0.4109,-1.3909 0.6005,-2.7816 1.0115,-4.2041 z m -61.4518,0.0951 1.1697,3.1291 c -0.0632,0.0632 -0.1265,0.0951 -0.2213,0.0951 -0.3161,0.1264 -0.6638,0.1578 -1.0115,0.1262 L 51.3011,49.3702 c 0.2845,-0.3161 0.5374,-0.6956 0.7271,-1.1066 0.0316,-0.0632 0.0630,-0.1577 0.0947,-0.2209 z m -24.8146,0.8217 c 3.3508,5.1210 6.5436,9.9574 9.8944,15.0784 -0.1897,0.1581 -0.4111,0.2847 -0.6324,0.3795 -3.4140,-5.0894 -6.6381,-9.9891 -10.0521,-15.0469 0.2845,-0.1264 0.5373,-0.2530 0.7902,-0.4111 z m -13.2448,0.7271 -1.6123,4.0144 c 0,0 9.0407,16.7855 19.9465,27.9125 0,0 2.4339,-1.7383 3.2558,-2.3705 C 45.9586,92.7723 65.5576,107.3763 65.6840,107.4712 l 4.6152,-1.6439 -1.1061,-0.6951 C 68.8769,104.8793 60.4996,99.3472 50.2261,89.6743 45.2631,85.0275 40.6165,80.0331 36.2858,74.7856 c -0.0316,-0.0316 -0.0314,-0.0318 -0.0947,-0.1267 -1.3909,1.0432 -2.1812,1.6753 -2.1812,1.7385 L 33.1563,77.0930 32.4292,76.2397 C 23.1356,65.3023 14.6640,50.6349 14.6008,50.4768 L 14.0950,49.6231 Z m 29.0187,3.8566 c 0.4426,0.8219 1.3275,2.3708 1.8016,3.1611 L 44.2834,56.8937 c -0.3793,-0.6638 -1.4542,-2.4342 -1.8652,-3.0980 0.2529,-0.1264 0.4427,-0.2211 0.6639,-0.3475 z" /><path
       id="XMLID_28_-3"
       class="st1"
       d="m 54.1776,40.1082 0.9167,-0.6638 0.1264,-0.1264 5.6900,15.4894 c 1.0116,-0.2845 8.6614,-2.3708 12.5180,-2.6237 l 0.2213,-0.0316 -0.4109,1.0116 h -0.0632 c -3.0663,0.3477 -6.1325,1.0116 -9.0724,1.9283 -1.2644,0.3793 -2.4973,0.8535 -3.6985,1.3593 l -0.1264,0.0316 z"
       style="fill:#0057b7;fill-opacity:1;stroke-width:0.3161" /><path
       id="XMLID_29_-6"
       class="st3"
       d="m 43.3035,57.3678 c 0,0 -2.8134,1.7702 -3.7933,2.3076 -3.0979,-4.9629 -6.0693,-9.7362 -9.1988,-14.7307 -1.4857,0.6638 -4.1094,2.2760 -5.6268,3.0663 -0.6954,0.3793 -1.3593,0.6954 -2.0547,1.1064 0.6322,0.9167 1.2328,1.7702 1.8967,2.6869 0.6006,-0.3477 1.2328,-0.6638 1.8650,-1.0116 3.3824,4.9945 6.6383,9.7362 9.9575,14.7623 3.0663,-1.9915 8.9775,-5.5319 14.1301,-8.2189 l -3.6353,-6.5435 c 0.1897,0.1264 -3.2875,1.0748 -5.6900,2.6237 0.5058,0.7903 1.7070,3.1927 2.1495,3.9514 z"
       style="fill:#ffffff;stroke-width:0.3161" /><polygon
       id="XMLID_33_-0"
       class="st1"
       points="183.6000,263.6000 186.6000,267.1000 140.3000,295.8000 109.7000,248.3000 104.6000,251 96.5000,239.6000 96.9000,234.1000 97,232.9000 105.7000,244.8000 110.6000,242.2000 141.7000,289.4000 "
       transform="matrix(0.3161,0,0,0.3161,-8.8547,-23.7144)"
       style="fill:#0057b7;fill-opacity:1" /><path
       id="XMLID_37_"
       class="st3"
       d="m 68.0549,43.0164 c 0.4742,-0.4109 1.0116,-0.7903 1.5489,-1.1380 -0.6006,-2.0231 -1.1380,-3.9830 -1.7386,-6.0061 -0.9167,0 -1.8334,0.0948 -2.8134,0.1264 -3.2875,0.2213 -8.0292,0.5374 -11.4432,1.1696 0.3793,0.8851 0.6638,1.7386 1.0116,2.5605 0.6006,-0.0948 1.1380,-0.2213 1.7386,-0.3161 1.8334,4.6784 3.6037,9.2304 5.4055,13.9404 3.5720,-1.0116 8.3453,-1.6122 11.7909,-2.1179 C 72.9230,48.9593 72.3223,46.7465 71.6901,44.4073 70.4573,43.9964 69.3193,43.4906 68.0549,43.0164 Z M 65.8421,38.4328 c 0.4742,1.4541 0.8851,2.8450 1.3593,4.2675 -1.3909,-0.5374 -2.8450,-1.0116 -4.3623,-1.4857 -0.3161,-0.8219 -0.5690,-1.5805 -0.8535,-2.4024 1.3277,-0.1264 2.5605,-0.2529 3.8565,-0.3793 z m 2.0231,6.4170 c 0.5058,1.5489 0.9483,3.0030 1.4225,4.5520 -1.1696,0.1581 -2.2760,0.3793 -3.4140,0.6322 -0.7903,-2.2760 -1.5489,-4.4255 -2.3708,-6.6383 1.5489,0.4742 2.9398,0.9483 4.3623,1.4541 z"
       style="fill:#ffffff;stroke-width:0.3161" /><path
       id="XMLID_42_"
       class="st3"
       d="m 71.0579,35.8091 c 0.2213,0.7587 0.4109,1.5489 0.6322,2.3708 0.5058,0 1.0116,-0.0316 1.6122,0 1.0748,4.3307 2.1179,8.4401 3.1611,12.8025 2.9398,-0.3161 5.8796,-0.4742 8.8511,-0.4109 -0.1264,-0.9799 -0.2845,-1.9283 -0.4109,-2.9082 -0.7903,-0.4109 -1.6438,-0.7903 -2.4657,-1.2012 0.1264,0.6638 0.2213,1.2960 0.3477,1.9283 -1.2012,-0.0316 -2.2760,0 -3.4772,0.0316 -0.2213,-1.0748 -0.4426,-2.0863 -0.6638,-3.1611 0.5374,-0.5058 1.1064,-0.9799 1.7070,-1.4225 -0.1264,-0.7271 -0.2845,-1.4225 -0.4109,-2.1179 -0.5690,0.4742 -1.1696,0.8851 -1.7702,1.3909 -0.3477,-1.6438 -0.6638,-3.1611 -1.0116,-4.8049 1.3277,0.0632 2.5605,0.1264 3.9198,0.3161 0.1581,0.9483 0.3161,1.8650 0.5058,2.8134 0.7271,-0.4109 1.5173,-0.7587 2.2444,-1.1064 -0.1581,-1.2012 -0.3477,-2.3708 -0.5058,-3.5404 -4.0462,-0.6954 -8.1556,-0.9799 -12.2651,-0.9799 z"
       style="fill:#ffffff;stroke-width:0.3161" /><path
       id="XMLID_46_"
       class="st1"
       d="m 71.8798,40.2346 -1.5489,0.0316 -0.9483,-3.3192 0.5058,-1.0432 0.1264,-0.3161 1.0432,3.6037 1.5489,-0.0316 3.1611,12.7076 c 0.8535,-0.0632 6.0061,-0.6322 8.5034,-0.6322 0.4742,0 0.8219,0.0316 1.0432,0.0316 l 0.2213,0.0316 -0.7587,0.6638 h -0.0316 c -1.6122,0.0316 -3.9830,0.2213 -5.9745,0.4109 -1.9915,0.1897 -3.6037,0.3793 -3.6037,0.3793 l -0.1264,0.0316 z"
       style="fill:#0057b7;fill-opacity:1;stroke-width:0.3161" /><path
       id="XMLID_49_"
       class="st3"
       d="m 94.9242,44.4705 c 0.5058,-0.1897 1.0432,-0.3161 1.5805,-0.5058 0,-1.5173 0,-2.9714 0.0316,-4.4888 -0.7587,-0.2213 -1.5173,-0.5058 -2.3708,-0.6638 -2.8134,-0.7587 -5.6584,-1.3909 -8.5350,-1.8334 0.0632,0.6954 0.1264,1.3909 0.2529,2.0863 0.5058,0.0316 1.0116,0.1581 1.4857,0.2213 0.4109,3.7933 0.8535,7.4602 1.2328,11.2851 1.0432,0.0316 2.0863,0.1264 3.0663,0.2213 -0.1581,-2.4340 -0.3161,-4.7733 -0.5058,-7.1757 1.1064,0.7587 2.1495,1.3909 3.1611,2.1179 0.0316,1.8018 0.0948,3.5404 0.1264,5.3739 1.0116,0.1264 1.9283,0.2213 2.9082,0.4109 0.0316,-1.7386 0.0632,-3.4140 0.1264,-5.1210 -0.7903,-0.6638 -1.6754,-1.2961 -2.5605,-1.9283 z m -3.8249,-2.5921 c -0.0316,-0.6638 -0.0948,-1.2960 -0.1264,-1.9283 1.1380,0.2529 2.1812,0.4742 3.2559,0.7587 0.0316,1.1064 0.0316,2.1812 0.0948,3.3192 -1.0432,-0.6954 -2.0863,-1.3909 -3.2243,-2.1495 z"
       style="fill:#ffffff;stroke-width:0.3161" /><path
       id="XMLID_55_"
       class="st1"
       d="m 93.1224,52.2152 -0.2213,-5.4371 0.5058,-0.5058 0.2213,-0.2213 0.2213,5.5003 3.7933,0.6006 -0.8535,0.6638 z M 87.2427,51.8359 85.9783,40.7404 l -1.5489,-0.1581 -0.4109,-2.9714 0.5690,-0.6638 0.1897,-0.2213 0.4742,3.0347 1.4857,0.2529 1.2644,11.0955 3.6037,0.2213 -0.7587,0.6638 z"
       style="fill:#0057b7;fill-opacity:1;stroke-width:0.3161" /><path
       id="XMLID_56_"
       class="st3"
       d="m 108.8963,47.6000 c 0.2529,-1.1380 0.5058,-2.2444 0.7587,-3.3824 -3.3192,-1.4857 -6.7015,-2.7818 -10.1787,-3.8882 -0.0316,1.3909 -0.1264,2.6869 -0.1264,4.0462 0.7271,-0.1897 1.4857,-0.3477 2.2444,-0.4742 0.0316,-0.3793 0.0316,-0.7587 0.0948,-1.1380 0.4109,0.1264 0.7903,0.2529 1.2328,0.4109 -0.3161,3.0979 -0.8535,6.2906 -1.1380,9.3885 0.9167,0.1581 2.0863,0.6322 2.9398,0.8535 0.5058,-2.9082 0.8851,-6.1958 1.3909,-9.0724 0.4109,0.1264 0.7903,0.3161 1.1696,0.4426 -0.0316,0.3793 -0.1264,0.6638 -0.1580,1.0116 0.6322,0.6638 1.2012,1.1696 1.7702,1.8018 z"
       style="fill:#ffffff;stroke-width:0.3161" /><path
       id="XMLID_60_"
       class="st1"
       d="m 106.6835,47.0626 0.1264,-0.5058 0.0316,-0.2529 2.1179,2.0863 -0.8535,0.1581 z m -6.5119,6.3854 1.2012,-8.2189 -3.4772,0.6322 0.0948,-5.3106 0.5690,-0.5058 0.2213,-0.1897 -0.0316,5.3106 3.4772,-0.6638 -1.2328,8.4401 3.9830,1.2012 -1.0115,0.3793 z"
       style="fill:#0057b7;fill-opacity:1;stroke-width:0.3161" /><path
       id="XMLID_61_"
       class="st3"
       d="m 118.7273,49.4651 c -0.4109,0.8535 -0.7587,1.6438 -1.1380,2.4657 -0.8535,-0.1581 -1.6438,-0.3161 -2.4973,-0.4109 l 1.0115,-3.6669 c -0.8851,-0.4426 -3.3824,-2.0231 -3.8249,-2.2444 l -0.4109,1.7702 c 0.3161,0.2213 0.6638,0.4426 1.0115,0.6322 l -1.0115,4.4571 c 1.7386,0.0948 3.4456,0.2845 5.1526,0.5690 -0.4742,1.0116 -0.8535,1.7702 -1.3277,2.7502 -1.3909,-0.5690 -2.8134,-1.1064 -4.3623,-1.6438 -0.1264,0.4742 -0.3477,1.3593 -0.3477,1.3593 2.1812,0.7587 6.1958,2.6553 6.1958,2.6553 1.3909,-2.3708 2.8134,-4.8365 4.2359,-7.1757 -0.8851,-0.5058 -1.7386,-0.9799 -2.6869,-1.5173 z"
       style="fill:#ffffff;stroke-width:0.3161" /><path
       id="XMLID_65_"
       class="st1"
       d="m 109.4652,56.2930 0.5690,-2.0547 0.6322,-0.0948 0.1897,-0.0316 -0.5058,1.8650 6.6699,2.7818 -0.7587,0.3793 z m 1.8651,-7.5234 -1.0432,-0.5058 0.7270,-2.9714 0.6322,-0.2845 0.2529,-0.1264 -0.7270,2.9714 1.0115,0.6638 -1.0115,4.3307 -0.7587,0.1264 z"
       style="fill:#0057b7;fill-opacity:1;stroke-width:0.3161" /><path
       id="XMLID_76_"
       class="st1"
       d="m 51.9333,62.3939 c 0,0 -3.4772,-3.5088 -3.6985,-4.2991 -0.2213,-0.7903 -1.1696,-7.1757 -1.1696,-7.1757 0,0 -3.3192,-1.0116 -3.6669,-1.7070 -0.1897,-0.3793 -0.2213,-0.8535 -0.0948,-1.2644 0,0 -1.5173,-0.6006 -1.7702,-1.2960 -0.2529,-0.6638 0.0948,-1.8650 0.0948,-1.8650 0,0 -1.9283,-0.4426 -2.6237,-1.0116 -0.9483,-0.8535 -0.3161,-2.6237 -0.3161,-2.6237 0,0 -1.3909,-0.5058 -1.6122,-1.1696 -0.0632,-0.1897 -0.0632,-0.4109 0,-0.6006 -0.1897,0 -0.4109,-0.0316 -0.6006,-0.0632 -0.1264,0.6006 -0.2845,1.3909 -0.1581,1.6122 0.2213,0.6638 1.6122,1.1696 1.6122,1.1696 0,0 -0.5058,1.7702 0.3477,2.6237 0.5690,0.6322 2.3392,1.0116 2.3392,1.0116 0,0 -0.3161,1.1696 -0.0632,1.8650 0.2213,0.6638 1.7386,1.2644 1.7386,1.2644 -0.1264,0.4109 -0.0948,0.8535 0.1264,1.2328 0.3477,0.6638 3.4456,1.6438 3.4456,1.6438 0,0 1.1380,6.4803 1.3909,7.2705 0.2213,0.7903 3.7617,4.1410 3.7617,4.1410 1.5489,5.2790 2.9398,6.4803 2.9398,6.4803 l 0.0948,-0.0632 c -0.4742,-1.0432 -0.8535,-2.1812 -1.2328,-3.2875 -0.3477,-1.1064 -0.6322,-2.4973 -0.8851,-3.8882 z"
       style="fill:#0057b7;fill-opacity:1;stroke-width:0.3161" /><path
       id="XMLID_79_"
       style="display:inline;fill:#000000;stroke-width:0.3161"
       class="st2"
       d="m 54.2093,16.3683 -1.2012,0.7271 -5.0578,3.4140 -19.6305,5.4054 -1.7701,0.0951 c 1.4541,1.6754 3.2557,3.9830 4.4886,5.3107 0.9483,1.1064 1.9285,2.1811 3.0349,3.4455 -0.2213,0.3477 -0.4109,0.7268 -0.5057,1.1061 -0.2213,0.9799 0.3161,1.8654 0.9799,2.4660 0.7271,0.6322 1.6439,0.9799 2.5922,1.0115 -0.0316,0.1897 -0.0316,0.3792 0,0.5688 0.2529,0.6638 1.6119,1.2012 1.6119,1.2012 0,0 -0.6004,1.8019 0.3480,2.6238 0.6322,0.5374 2.5918,1.0115 2.5918,1.0115 -0.1897,0.6006 -0.2211,1.2330 -0.0947,1.8652 0.2529,0.6638 1.7701,1.2959 1.7701,1.2959 -0.1264,0.4109 -0.0946,0.8535 0.0951,1.2328 0.3477,0.6954 3.6668,1.7385 3.6668,1.7385 0,0 0.9484,6.3857 1.1697,7.1443 0.2213,0.7903 3.7299,4.3303 3.7299,4.3303 0.2213,1.3909 0.5056,2.7502 0.8217,3.8881 1.4857,4.7733 4.4574,9.6730 4.4574,9.6730 -1.5173,-1.9915 -2.8134,-4.1409 -3.8566,-6.3853 -1.0748,1.5489 -1.8967,3.2560 -2.4025,5.0578 -0.4426,1.8334 -0.5373,3.7616 -0.2844,5.6267 6.1958,6.5119 13.0238,12.4233 20.3891,17.6391 9.6730,-5.6900 18.5554,-12.6128 26.3949,-20.6420 -1.5489,-0.5374 -3.1608,-1.0117 -4.7730,-1.3594 0.0632,-0.5690 0.0314,-1.1065 -0.1267,-1.6439 l -4.4570,-0.2844 c 0.3793,-1.0116 0.7271,-2.0233 0.9484,-3.0664 0.0316,-0.8535 -0.0951,-1.6753 -0.3480,-2.4971 0.4742,-0.2529 0.8219,-0.6954 0.9484,-1.2328 L 89.6137,65.9974 c 0.4109,-0.3161 1.6434,-1.2642 1.8963,-2.3074 l 14.0985,0.6639 -12.2333,-2.6869 c 0.0632,-0.0632 0.1265,-0.1581 0.2213,-0.2213 0.1264,-0.1264 0.2211,-0.2531 0.3160,-0.3795 L 107.2840,59.3277 94.8293,58.7269 c -0.0316,-0.2213 -0.0950,-0.4423 -0.1582,-0.6320 -0.0632,-0.1264 -0.1581,-0.2531 -0.2213,-0.3480 l 12.4235,-6.0693 -15.8055,4.4259 c -0.5690,-0.0948 -1.1384,-0.1582 -1.7390,-0.1582 l 5.5394,-8.6265 c -0.0014,-0.1176 -0.0024,-0.2351 -0.0035,-0.3532 l -5.4724,4.8387 -5.2160,4.3308 c -0.3161,0.0316 -0.6638,0.0946 -1.0115,0.1262 l -3.0980,-11.6009 -0.9799,7.3652 -0.7586,5.2792 c -0.1581,0.0316 -0.3477,0.0946 -0.5057,0.1262 l -4.0779,-2.0545 -9.4833,-4.8365 7.9345,8.8824 c -0.1264,0.0316 -0.2531,0.0950 -0.3480,0.1267 l -9.7677,-0.6008 c 0,-1.2012 2.2500e-4,-4.7417 -0.1262,-5.5636 -0.2213,-1.7070 -5.1209,-7.5865 -5.1209,-7.5865 0.4813,-1.3477 0.8161,-2.7503 0.9903,-4.1661 0.0689,-0.6233 0.1226,-1.0264 0.1050,-1.7593 -0.0899,-1.4843 -0.6685,-4.5532 -0.8109,-4.6956 -0.3477,-0.3477 -1.8965,-1.2331 -2.4971,-1.2963 -0.2529,-0.0316 -0.5062,-0.0316 -0.7590,-0.0316 2.2760,-1.8334 2.7187,-3.5087 2.8136,-4.1726 0.1581,-0.9483 -0.1897,-1.8965 -0.9484,-2.4971 -0.3161,-0.1897 -0.6638,-0.3164 -1.0115,-0.3164 -0.1897,-2.3076 -0.2212,-4.3307 -0.2844,-6.5435 z m -11.9489,8.4718 0.6004,1.6123 -1.5172,4.2988 -1.7701,-0.7271 -1.6439,1.7705 -2.5291,-5.2476 5.0263,2.7816 c 0,0 1.2330,-2.9396 1.8336,-4.4886 z m 3.9197,9.5779 c -5.8000e-4,0.0017 -0.5052,1.4548 0.8533,1.9918 0,0 -3.8247,1.3906 -5.9427,1.6434 -0.5690,-0.5058 -1.1379,-1.4856 -0.0316,-2.4971 1.7386,-0.2213 3.4456,-0.6007 5.1209,-1.1381 z m 7.7763,0.8853 c 0.6322,0 1.9283,0.7271 1.9283,0.7271 l 0.0316,0.0316 v 0.0316 c 0.1897,0.4426 0.3159,0.8852 0.3791,1.3910 0.0948,0.4742 0.1582,0.9483 0.1582,1.4541 v 0.1267 c 0,0.0632 0.0316,0.5374 0.0316,1.2328 0,1.4857 -0.1262,3.7929 -1.1061,5.3103 0.5058,0.6954 4.4254,6.1010 5.1841,8.2189 v 0.0316 c 0,0 0.0947,2.4028 0.0947,4.1730 0,0.5690 5.5000e-5,1.1380 -0.0316,1.7070 l 0.7271,2.1492 1.0115,1.0119 v 0.0316 c 1.1380,1.7070 2.0865,3.5403 2.8136,5.4369 0.2845,0.6322 0.4427,1.3276 0.4111,1.9914 -0.0316,1.2644 -0.2531,2.4976 -0.6324,3.6988 -0.9799,3.2875 -3.3508,3.7615 -3.3824,3.7615 h -0.0947 v 0.0316 C 58.3188,73.3629 55.6635,65.1757 55.6319,65.1757 l -0.0951,-0.2529 0.2529,0.0947 c 0,0 0.0949,0.0320 0.2213,0.0320 0.1264,0.0316 0.2530,0.0631 0.4111,0.0631 0.0632,0 0.1581,5.5000e-5 0.2213,-0.0316 0.0316,-0.0316 0.0316,-0.0318 0.0316,-0.1267 v -0.0947 c -0.2213,-1.0748 -0.8535,-3.1613 -0.9799,-3.5091 -0.0948,-0.0316 -0.4109,-0.2845 -0.7586,-0.5057 -0.4109,-0.2529 -0.8853,-0.4425 -1.3594,-0.5373 h -0.0316 l -0.0316,-0.0316 c -0.7903,-1.2328 -1.4540,-2.5289 -1.9914,-3.8881 -0.1581,-0.4426 -0.2213,-0.9168 -0.2213,-1.3910 0,-0.2529 0.0316,-0.5057 0.0316,-0.7586 l 0.0316,-0.2213 0.1898,0.1267 0.0316,0.0316 c 0.0632,0.0316 0.1266,0.0630 0.1582,0.0947 0.1897,0.1264 0.4106,0.1898 0.6635,0.1898 h 0.0320 l 1.2959,2.2443 -0.0316,0.0631 c -0.1581,0.2845 -0.2213,0.5692 -0.2213,0.8853 0.0316,1.1064 0.9166,2.0230 2.0230,2.0230 0.5374,0 1.0432,-0.2211 1.4226,-0.6004 0.3793,-0.3793 0.6008,-0.8852 0.6008,-1.4226 0,-0.5374 -0.2215,-1.0432 -0.6008,-1.4226 -0.1581,-0.1581 -0.3792,-0.2842 -0.5688,-0.4106 l -0.0316,-0.0320 -0.5693,-3.0344 0.0316,-0.0316 c 0.0316,-0.1264 0.1266,-0.1900 0.1582,-0.3164 0.1581,-0.4109 0.2213,-0.8218 0.2213,-1.2644 0.0316,-0.7587 -0.4111,-1.4225 -1.1066,-1.6754 l -0.0631,-0.0316 -1.7385,-7.4599 0.0316,-0.0320 c 0,0 0.2528,-0.5372 0.5373,-1.3275 0.2845,-0.7271 0.4743,-1.4856 0.6324,-2.2443 -0.6322,0.6322 -1.4858,0.9798 -2.3709,1.0430 h -0.0316 c -1.1064,-0.0316 -2.0861,-0.7585 -2.3074,-1.2959 -0.0316,-0.0632 -0.0320,-0.1581 -0.0320,-0.2213 0,-0.1897 0.0949,-0.3478 0.2213,-0.4426 0.1581,-0.0948 0.3477,-0.1581 0.5057,-0.2213 0.4742,-0.1264 0.8854,-0.3159 1.2963,-0.6004 0.6954,-0.3793 1.3276,-0.7907 1.9599,-1.2332 0.0632,-0.0632 0.1580,-0.0947 0.2529,-0.0947 z m -13.7194,3.6353 0.3480,0.0316 c 1.2644,0.2213 2.5605,0.3479 3.8566,0.4111 h 0.0316 l 0.0316,0.0316 c 0.0316,0 0.0946,-5.6000e-5 0.1262,0.0316 0.1264,0.0316 0.2846,0.0631 0.4111,0.0631 0.2845,0 0.5373,-0.0629 0.7902,-0.1578 0.4109,-0.1581 0.8538,-0.2847 1.2963,-0.3480 h 0.0316 c 0.1581,0.0632 0.3161,0.1581 0.4742,0.2213 0.2845,0.1264 0.4741,0.4109 0.5057,0.7271 0,0.4109 -0.3480,0.7906 -1.3279,1.2963 -0.7903,0.2845 -1.6122,0.5056 -2.4340,0.5688 H 44.2834 c -0.2529,-0.1581 -0.4425,-0.4425 -0.5057,-0.7586 -0.0632,-0.2845 -0.0947,-0.6008 -0.0947,-0.8853 -1.0116,-0.2213 -1.9918,-0.4739 -2.9718,-0.8533 -0.0948,0 -0.1897,-0.0634 -0.2529,-0.1267 z m 8.6931,2.6554 h 0.0316 c 0.2213,0 0.4743,0.0634 0.6639,0.1582 0.1264,0.0948 0.2213,0.2526 0.2213,0.4106 -0.0632,0.3793 -0.2528,0.7270 -0.5373,0.9799 l -0.0316,0.0316 c -0.1264,0.0948 -0.2530,0.1900 -0.4111,0.2849 -0.2213,0.1264 -0.5057,0.2842 -0.7902,0.4106 -0.5058,0.2529 -1.0433,0.4429 -1.6123,0.5377 0,0.0316 -0.0950,-3.7700e-4 -0.1582,-0.0320 -0.0632,-0.0316 -0.1262,-0.0945 -0.1262,-0.1578 l -0.0951,-0.5057 c -1.7070,-0.2529 -3.4137,-0.6956 -5.0258,-1.3594 l 0.0947,-0.2213 c 1.3909,0.3793 2.8452,0.6322 4.2677,0.7586 0.7271,-0.0948 1.4538,-0.2843 2.1176,-0.6004 0.4742,-0.1897 0.9484,-0.4111 1.3910,-0.6639 z m 1.2012,3.1926 h 0.1582 c 0.0948,0 0.2212,0.0314 0.3160,0.0947 v 4.3200e-4 c 0.0948,0.0632 0.1582,0.1579 0.1582,0.3160 -0.0948,0.4426 -0.3477,0.8216 -0.7271,1.1061 -0.3477,0.2213 -0.7272,0.4112 -1.1066,0.5693 -0.4426,0.1897 -0.8533,0.3475 -0.8533,0.3475 l -0.1267,0.0316 -0.0947,-0.4742 -0.0316,-0.3475 c -0.2213,0.0316 -0.4427,0.0316 -0.6639,0.0316 h -0.2529 c -0.6954,-0.0316 -1.3908,-0.1896 -1.9914,-0.5057 l -0.3480,-0.2529 h 0.4426 c 1.6754,0 2.2129,-0.0316 2.6238,-0.0316 0.4742,-0.0948 0.9484,-0.2214 1.3910,-0.4111 0.5690,-0.2529 1.1061,-0.4742 1.1061,-0.4742 z m 30.0306,2.4025 2.3389,9.4202 -1.1697,0.1578 z m -29.0191,0.1267 c 0.0632,0 0.1581,0.0315 0.2213,0.0631 0.0316,0.0632 0.0632,0.1265 0.0316,0.1898 -0.0316,0.3477 -0.1894,0.6951 -0.4106,0.9479 -0.2845,0.3477 -0.6326,0.6324 -1.0119,0.8537 -0.3477,0.2213 -0.7268,0.3479 -1.1061,0.4111 -0.0948,0 -0.1581,-0.0316 -0.2213,-0.0316 -0.0632,-0.0632 -0.0950,-0.1581 -0.1267,-0.2213 v -0.0316 l -0.0631,-0.8222 v -0.0947 l 0.0951,-0.0316 c 0.5058,-0.2213 1.5805,-0.7274 1.7385,-0.7590 0.4109,-0.3161 0.6320,-0.4738 0.8533,-0.4738 z m 0.9799,0.7271 1.1697,3.1291 c -0.0632,0.0632 -0.1265,0.0951 -0.2213,0.0951 -0.3161,0.1264 -0.6638,0.1578 -1.0115,0.1262 l -0.7586,-2.0230 c 0.2845,-0.3161 0.5374,-0.6956 0.7271,-1.1066 0.0316,-0.0632 0.0630,-0.1577 0.0947,-0.2209 z m 40.2409,1.7385 -5.2160,6.1955 c -0.5374,0.0316 -1.1064,0.0951 -1.7070,0.0951 z m 9.8944,3.7931 -9.1673,3.3509 -1.1066,-0.3160 z m -33.0335,0.3795 7.4914,3.8566 c -0.5690,0.1581 -1.1376,0.3476 -1.6750,0.5373 z m 18.4924,3.0980 c 1.5173,-0.0316 3.0344,0.1579 4.4886,0.5688 0.3477,0.0948 0.6639,0.2845 0.9484,0.5057 0.1897,0.1581 0.3477,0.3160 0.4742,0.5373 l 0.0947,0.3480 -0.3160,-0.1898 c -1.2644,-0.5690 -2.6235,-0.8537 -3.9828,-0.8537 h -0.6008 c -2.4024,-0.0316 -4.8047,0.1898 -7.1439,0.6639 -3.3508,0.6322 -6.6383,1.6755 -9.7362,3.0980 h -0.0316 -0.0951 c -0.2845,-0.0632 -0.5057,-0.3163 -0.5373,-0.6008 v -0.0316 l 0.0316,-0.0631 h 0.0631 c 2.9082,-1.3909 6.5121,-2.8133 12.5182,-3.6984 1.2644,-0.1897 2.5606,-0.2844 3.8250,-0.2844 z m -0.0951,1.2959 c 2.5605,-0.0316 4.9000,0.4742 5.6902,0.9484 0.2213,0.1264 0.3791,0.3794 0.3791,0.6639 -0.0316,0.7587 -1.0116,1.6436 -1.9283,2.0545 l -0.1262,0.0631 -0.0316,-0.1578 c -0.0316,-0.1581 -0.0949,-0.2846 -0.1898,-0.4111 -0.1264,-0.2213 -0.2845,-0.4111 -0.4742,-0.3795 h -0.0316 l -0.0316,-0.0316 -0.3164,-0.0947 0.2849,-0.1582 c 0.3793,-0.1264 0.7587,-0.3474 0.9484,-0.4106 0.3161,-0.1264 0.6320,-0.3164 0.8533,-0.5693 l -0.0947,-0.0316 c -0.0948,-0.0316 -0.1896,-0.0316 -0.2844,-0.0316 -0.6006,0.0632 -1.1696,0.2213 -1.7070,0.4742 -0.1581,0.0948 -0.5375,0.2530 -0.8853,0.4111 l -0.0316,0.0316 h -0.0316 c -0.2213,-0.0316 -0.4111,-0.0950 -0.6639,-0.1267 l -0.3795,-0.0316 0.3164,-0.1898 c 0.3477,-0.2213 0.7583,-0.5056 0.9164,-0.5688 0.1264,-0.0632 0.2531,-0.1580 0.3480,-0.2844 0.0948,-0.0948 0.1262,-0.2215 0.1578,-0.3480 0,-0.0316 3.9400e-4,-0.0314 -0.2209,-0.0947 h -0.1267 c -0.6638,0 -1.5491,0.6006 -1.8336,0.7586 -0.1581,0.1264 -0.6322,0.4111 -0.9799,0.6324 H 86.0416 l 0.2529,-0.2213 c 0.2213,-0.2213 0.4742,-0.4427 0.7271,-0.6639 0.0948,-0.1264 0.1897,-0.2846 0.2213,-0.4426 0,-0.0316 5.5000e-5,-0.0946 -0.0316,-0.1262 -0.0948,-0.0316 -0.1900,-0.0632 -0.3164,-0.0316 h -0.0316 c -0.6638,0.0632 -1.2960,0.4106 -1.7385,0.9164 -0.1264,0.1264 -0.5057,0.5058 -0.7586,0.7271 l -0.0316,0.0316 h -0.0316 c -0.1897,0 -0.4112,0.0319 -0.6008,0.0635 l -0.2529,0.0316 0.1267,-0.2213 c 0.1264,-0.2213 0.2527,-0.5691 0.3475,-0.6955 0.0316,-0.0632 0.0316,-0.0950 0.0316,-0.1582 -0.0316,-0.1581 -0.0316,-0.3159 -0.4742,-0.3475 -0.0948,0 -0.1580,-5.5000e-5 -0.2529,0.0316 -0.5690,0.0948 -1.1061,0.4426 -1.3906,0.9484 -0.0316,0.1264 -0.2531,0.5057 -0.3480,0.7586 l -0.0316,0.0316 -0.0631,0.0316 -0.6008,0.1267 -0.1262,0.0316 v -0.1262 c -0.0316,-0.1581 -0.1267,-0.5059 -0.1267,-0.6324 0,-0.0948 -0.1261,-0.4111 -0.6635,-0.4111 -0.1581,0 -0.2846,0.0315 -0.4111,0.0631 -0.8535,0.2213 -0.9799,0.6957 -0.9799,0.8537 v 0.0316 c 0.0316,0.0948 0.0946,0.4428 0.1262,0.6008 l 0.0316,0.1262 -0.1262,0.0316 c -0.2213,0.0316 -0.4112,0.1266 -0.6008,0.1582 l -0.0316,0.0316 -0.0631,-0.0316 c -0.1581,-0.1264 -0.4740,-0.4109 -0.5688,-0.5057 -0.2529,-0.2213 -0.5691,-0.3480 -0.9168,-0.3480 -0.2213,0 -0.4112,0.0634 -0.6008,0.1267 -0.5374,0.1897 -0.6320,0.4108 -0.6320,0.5688 0,0.0948 0.0314,0.2213 0.0947,0.2213 0.0948,0.0948 0.3792,0.3161 0.5373,0.4742 l 0.1582,0.1267 -0.2213,0.0947 c -0.2213,0.0948 -0.4108,0.1265 -0.5688,0.2213 l -0.0316,0.0316 -0.0316,-0.0316 c -0.3161,-0.0948 -0.6323,-0.1896 -0.9484,-0.2844 -0.3161,-0.1264 -0.6638,-0.1898 -1.0115,-0.1898 -0.2845,0 -0.5693,0.0633 -0.8222,0.1898 -0.3161,0.1264 -0.3791,0.2843 -0.3791,0.3475 -0.0316,0.1264 0.2212,0.3164 0.3160,0.3480 0.3161,0.0632 0.6008,0.1580 0.8853,0.2844 l 0.3160,0.0947 -0.3160,0.1582 c -0.1581,0.0632 -0.3165,0.1580 -0.5062,0.2529 l -0.0316,0.0316 h -0.1578 c -0.4109,-0.0316 -1.0116,-0.0950 -1.2012,-0.1267 -0.0948,0 -0.1584,-0.0316 -0.3164,-0.0316 -0.5690,-0.0316 -1.1377,0.0950 -1.6434,0.3795 l -0.1267,0.1262 -0.0316,0.0320 0.0316,0.0316 c 0.0316,0.0316 0.0950,0.0630 0.1267,0.0947 0.1581,0.0316 0.2841,0.0630 0.4422,0.0947 0.2213,0 0.8539,0.0950 1.2332,0.1267 l 0.3475,0.0316 -0.2844,0.2213 c -0.1897,0.1581 -0.3477,0.2845 -0.5057,0.4742 l -0.0316,0.0316 h -0.0635 c 0,0 -0.4741,-0.0314 -1.0115,-0.0947 -0.5058,-0.0632 -0.9800,-0.1582 -1.4226,-0.3795 -0.0948,-0.0632 -0.1578,-0.1580 -0.1578,-0.2529 0,-0.0316 0.0316,-0.1262 0.0316,-0.1262 0.8535,-1.2644 3.6352,-2.6553 7.0808,-3.8881 3.5720,-1.2644 7.2704,-2.0866 11.0005,-2.4976 0.5690,-0.0316 1.1695,-0.0947 1.7385,-0.0947 z m 7.1128,1.1697 h 8.0292 l -8.2820,0.7586 c 0.1264,-0.2529 0.1897,-0.5057 0.2529,-0.7586 z m -32.3380,0.3791 7.7128,0.5377 c -0.5058,0.2845 -0.9800,0.5688 -1.4226,0.8533 z m 24.2137,1.4226 h 0.1582 c 0.6006,0.0316 1.2011,0.1264 1.7701,0.2529 0.9167,0.1897 1.9283,0.5058 2.1812,1.2012 0.0632,0.1264 0.0951,0.2530 0.0951,0.4111 -0.0632,0.5690 -0.3480,1.0749 -0.8222,1.3910 -0.2213,0.2213 -0.5057,0.3792 -0.7586,0.5373 l -0.0316,0.0316 h -0.0316 c -0.1897,-0.0316 -0.3476,-0.0316 -0.5373,-0.0316 l -0.3480,-0.0631 0.3160,-0.1582 c 0.2213,-0.1264 0.3796,-0.3794 0.3480,-0.6639 0,-0.1264 5.5000e-5,-0.2530 -0.0316,-0.4111 -0.1581,0.5374 -0.6639,0.8538 -1.2012,0.7906 -0.4426,0 -0.8854,-0.1267 -1.2963,-0.3164 l -0.1578,-0.0947 0.1578,-0.1267 c 0.2529,-0.2213 0.3795,-0.8532 0.3795,-1.3906 0,-0.3793 -0.0318,-0.7904 -0.1267,-1.1697 z m -1.1697,0.0316 h 0.0951 l 0.0316,0.0635 c 0.2213,0.3793 0.3475,0.8218 0.3475,1.2644 0,0.5374 -0.1896,1.0432 -0.5373,1.4541 v 0.0316 h -0.0316 c -0.5648,0.2196 -1.0986,0.3459 -1.6011,0.5023 0.0068,0.0012 0.0135,0.0024 0.0203,0.0035 h -0.0316 c 0.0037,-0.0012 0.0075,-0.0023 0.0112,-0.0035 -0.7502,-0.1326 -1.4049,-0.6670 -1.7182,-1.3875 l -0.0316,0.1267 c -0.1264,0.2529 -0.1897,0.5372 -0.2213,0.8533 0,0.1581 0.0318,0.3161 0.1267,0.4742 l 0.1898,0.2213 h -0.2849 c -1.5173,0 -2.5288,-0.6322 -2.9398,-1.7385 v 0.0316 c -0.0948,0.2845 -0.1578,0.5692 -0.1578,0.8853 -0.0316,0.4742 0.2210,0.9480 0.6635,1.1377 l 0.1582,0.0951 -0.1262,0.1262 c -0.2845,0.2845 -0.6956,0.4427 -1.1381,0.4111 -0.2529,0 -0.5057,-0.0630 -0.7586,-0.1262 -0.8851,-0.2845 -1.4856,-1.0751 -1.5172,-1.9918 0,-0.1897 0.0316,-0.3792 0.0316,-0.5688 l 0.0316,-0.0316 0.0316,-0.0316 c 0.8219,-0.3161 1.7385,-0.6323 2.7500,-0.9168 2.1812,-0.5058 4.3938,-0.7904 6.6066,-0.8853 z m 7.2390,0.8853 7.2074,1.2328 -7.9661,-0.6639 c 0.2529,-0.1581 0.5373,-0.3792 0.7586,-0.5688 z m -28.9240,0.0947 2.6554,0.9168 c -0.2529,0.2213 -0.4743,0.5060 -0.6324,0.8537 -0.2529,-0.0632 -0.5373,-0.0950 -0.7902,-0.1267 -0.3477,-0.6006 -0.7586,-1.1381 -1.2328,-1.6439 z m 10.5583,1.4226 0.0947,0.3795 c 0.1264,0.6006 0.5692,1.8015 1.8336,2.1176 l 0.1262,0.0320 c 0.0632,0.0316 0.0947,0.0630 0.0947,0.1262 l 0.0320,0.1267 -0.1267,0.0316 c -0.2213,0.0316 -0.4111,0.0316 -0.6324,0.0316 -0.7271,0.0948 -1.4224,-0.2531 -1.7701,-0.8537 -0.0632,-0.1581 -0.0947,-0.3476 -0.0947,-0.5373 0,-0.3793 0.0947,-0.7900 0.3160,-1.1061 z m 11.1587,0.9484 h 0.0316 l 0.0631,0.0316 c 0.9799,0.6638 2.1181,1.1063 3.3193,1.2644 l 0.0947,0.0320 v 0.1262 c 0.0316,0.2213 0.0316,0.4743 0.0316,0.6639 0,0.1581 5.5000e-5,0.3477 -0.0316,0.5057 l -0.1267,-0.0316 0.0320,0.1262 c -0.8219,0.5058 -1.7071,0.9167 -2.6238,1.2012 h -0.0316 l -0.5377,-0.1578 c 0.1264,0.4742 0.2216,0.9483 0.2849,1.4541 l 0.7586,0.2209 c 0.1897,-0.0948 0.9481,-0.4109 1.3275,-0.5373 l 0.1267,-0.0316 0.0316,0.1267 c 0.0948,0.3793 0.1262,0.7268 0.1262,1.1061 v 0.3795 c -0.3161,1.1380 -0.7585,2.2441 -1.2959,3.2873 0,0 -0.3159,0.6640 -0.6004,1.3910 -0.2529,0.5690 -0.4744,1.1695 -0.6008,1.7701 -0.0632,1.2960 -0.6323,1.7389 -0.6639,1.7705 -0.7587,0.3477 -1.6121,0.5374 -2.4656,0.5057 -0.6638,-0.0632 -1.3276,-0.2213 -1.9599,-0.4742 -1.8334,-0.7903 -3.9829,-2.5921 -4.6468,-3.8881 v -0.0316 c 0,0 -0.1262,-1.8020 -0.1262,-3.5406 v -0.3795 l -1.3279,-1.6434 0.0316,-0.0316 c 0,0 0.4109,-1.3595 0.7586,-2.5607 l 0.0316,-0.0316 0.1898,-0.1267 h 0.0316 c 0.5690,-0.0316 1.0747,-0.2526 1.4857,-0.6320 l 0.0320,-0.0316 h 0.0631 c 0.2529,0.0316 0.5057,0.0631 0.7586,0.0631 1.4857,0 2.1813,-0.6638 2.3709,-1.0115 l 0.0316,-0.0951 0.0631,0.0316 c 0.3161,0.0316 0.6007,0.0636 0.9168,0.0320 1.3909,-0.0632 2.7503,-0.3479 4.0464,-0.8537 z m -14.2882,1.2328 h 0.2213 0.0316 l 0.0316,0.0316 c 0.5374,0.7587 1.3591,1.2331 2.2758,1.2963 h 0.2529 l -0.1893,0.2213 c -0.1897,0.2213 -0.4429,0.3790 -0.7590,0.4106 h -0.0631 c -0.3793,-0.0316 -0.7900,-0.2212 -1.1061,-0.5057 -0.4109,-0.2529 -0.6638,-0.6955 -0.7271,-1.1697 v -0.1578 z m -4.4574,0.6008 1.5492,1.3906 c 0.4109,0.8535 0.6639,1.8021 0.6955,2.7820 0.0316,0.3793 0.0316,0.8536 0.0316,1.3910 0,2.4657 -0.6009,6.6383 -4.6787,10.4632 -2.8134,2.5921 -4.7732,3.0976 -5.8796,3.0976 -0.3477,0 -0.6954,-0.0313 -1.0115,-0.1578 h -0.0316 l -5.3107,-5.0894 v -0.0316 C 51.9332,79.4324 51.8384,78.4840 51.8384,77.5356 c -0.0316,-0.7271 0.0633,-1.4541 0.2213,-2.1812 0.2845,-1.0432 0.6955,-2.0546 1.2012,-2.9713 l 0.1262,-0.2213 1.1066,2.1181 -0.0316,0.0316 c -0.0316,0.0316 -0.0631,0.0630 -0.0631,0.1262 l -0.1582,0.3795 c -0.2213,0.5690 -0.3794,1.1379 -0.4426,1.7385 -0.0316,0.3477 -0.0316,0.6638 -0.0316,1.0115 0,0.6322 0.0633,1.2961 0.2213,1.9283 l 0.0631,0.2213 c 0.0948,-0.5058 0.2214,-1.2330 0.4111,-1.8652 0.2529,-1.0116 0.7586,-2.4971 0.7586,-2.4971 l 0.1267,-0.3160 1.0746,2.1812 v 0.0316 c -0.1264,0.6638 -0.1582,1.3591 -0.1582,2.0230 0,1.2961 0.2531,2.7186 1.1066,3.3509 0.2529,0.1897 0.5691,0.2844 0.9168,0.2844 2.0863,0.0316 5.7214,-3.1294 7.3968,-6.1324 1.2961,-2.2760 1.5488,-6.1326 1.5488,-7.7132 0,-0.1897 5.6000e-5,-0.4107 -0.0316,-0.6004 -0.0948,-0.3793 -0.2210,-0.7589 -0.3791,-1.1066 -0.1581,-0.3793 -0.3164,-0.6955 -0.3164,-0.6955 z m 13.1505,1.2328 -1.8021,0.9484 1.0430,0.2213 -0.6004,0.6004 3.6353,0.6955 1.1381,-0.5057 0.1893,1.1377 0.6639,0.3795 -0.0947,-2.5287 0.1262,-0.4111 -0.5057,0.2213 z m -7.5234,2.0861 c 0.1897,0.0316 0.3473,0.0949 0.4738,0.2213 0.1897,0.1581 0.3797,0.3161 0.5062,0.5057 0.3793,0.4109 0.6321,0.8852 0.7902,1.3910 l -0.2213,0.1267 v 4.3200e-4 4.3200e-4 l -4.3200e-4,4.3300e-4 v 4.3200e-4 l -4.3200e-4,4.3200e-4 -4.3200e-4,4.3200e-4 h -4.3300e-4 -4.3200e-4 -4.3200e-4 c -2e-4,5e-6 -0.0011,2.5000e-5 -0.0013,0 -0.0308,-0.0064 -0.2372,-0.2174 -0.4703,-0.5088 -0.2529,-0.2529 -0.5056,-0.4738 -0.8217,-0.6635 -0.2213,-0.0948 -0.4427,-0.1267 -0.6639,-0.1267 -0.1264,0 -0.2531,-5.6000e-5 -0.3795,0.0316 l -0.2844,0.0316 0.1582,-0.2529 c 0,0 0.1264,-0.1578 0.2844,-0.3791 0.1581,-0.1897 0.3795,-0.3479 0.6324,-0.3795 z m 11.8853,3.4140 -0.5688,0.3480 h -0.2844 l 1.3594,0.9168 0.9164,-0.9484 -0.9484,0.0316 z m 4.3308,2.0549 c 0.8851,0 1.8018,0.0633 2.6869,0.2213 l 0.0951,0.0316 v 0.4111 c 0,1.0116 -0.2531,4.5200 -3.5406,8.4714 L 87.5903,84.3320 c 0.1581,-0.3161 0.2531,-0.6638 0.3480,-1.0115 0.2213,-0.7587 0.3475,-1.5491 0.3475,-2.3394 -0.6638,1.3593 -2.6236,5.0263 -4.1726,6.7333 l -0.2213,-0.2529 c 0,0 0.6321,-1.2959 1.2959,-2.9713 0.6638,-1.7070 1.3912,-3.7934 1.5177,-5.3107 v -1.6123 -0.0316 c 0.1897,-0.7587 0.4739,-1.4858 0.8848,-2.1496 l 0.0316,-0.0316 h 0.0635 c 0,0 0.3474,-0.0316 0.8848,-0.0316 z m -4.5837,0.0947 -1.2959,0.3160 2.0549,0.2213 1.0115,-0.4106 c -0.1264,-0.0632 -0.2846,-0.0950 -0.4111,-0.1267 l -0.5373,0.3160 -0.4111,-0.2529 z m -13.5927,0.4742 h 0.2533 c 0.1897,0.8851 0.2844,1.7702 0.2844,2.6554 0,4.1727 -2.1496,7.4600 -3.6037,8.3451 -1.5489,0.9167 -4.5837,0.9483 -5.3107,0.9799 l -0.1898,0.0320 -0.0316,-0.2849 c 3.6985,-1.0116 5.6900,-3.6984 6.7964,-5.8796 0.5374,-1.2012 0.9798,-2.4655 1.2959,-3.7299 0.3161,-1.2012 0.5057,-2.1181 0.5057,-2.1181 z m 22.1596,1.0750 0.1262,0.0316 c 0,0 0.5376,0.1265 1.1066,0.2213 0.4742,0.0632 0.9480,0.1894 1.3906,0.4106 l 0.1267,0.0951 -4.4886,4.3308 -0.1582,-0.1898 0.2213,-0.2844 c 0.2213,-0.2529 0.3793,-0.5692 0.5057,-0.8537 0.5690,-1.1380 0.9485,-2.3708 1.1381,-3.6353 z m -7.5550,0.0316 -1.2328,0.0947 0.1262,0.2844 1.0430,-0.1262 z m -10.5583,2.8767 h 0.2529 c 0.0948,0.6954 0.2529,1.3591 0.5057,2.0230 0.3793,1.0748 1.0115,2.2761 1.9914,2.8451 0.8535,0.5374 1.8651,0.7902 2.8767,0.7902 1.2328,-0.0316 2.4657,-0.3160 3.6037,-0.7902 l 0.2213,-0.1267 -0.0947,0.2529 c 0,0.0316 -0.8851,2.9398 -3.4140,3.9197 h -0.0320 c -0.1897,0.0316 -0.3476,0.0632 -0.5373,0.0316 -0.9483,0.0632 -2.6868,-0.1895 -4.4570,-2.0545 -0.9799,-1.0748 -1.4858,-2.4656 -1.4226,-3.9197 0,-1.0116 0.1580,-2.0230 0.5057,-2.9713 z m 6.2275,0.6635 0.0316,0.0316 c 0.6006,0.2213 1.2010,0.3480 1.8332,0.3480 0.3161,0 0.6639,-0.0318 0.9484,-0.1267 l 0.0316,-0.0316 0.3164,-0.1578 -1.1381,3.1291 -0.0316,0.0320 c -0.6322,0.3793 -1.3910,0.6004 -2.1181,0.6004 -1.2961,-0.0632 -2.5287,-0.5375 -3.5086,-1.3910 l -0.1266,-0.1262 z m -8.8513,6.6386 0.0635,0.1262 c 0,0 0.1262,0.2212 0.3791,0.5373 0.3477,0.4426 0.7272,0.8535 1.1381,1.2328 1.2961,1.1380 2.9397,1.7706 4.6783,1.7390 0.4109,0 0.8219,-0.0318 1.2328,-0.1267 l 0.4742,-0.0631 -0.3791,0.3160 c 0,0 -4.1726,3.5087 -8.5034,5.4054 l -0.0320,0.0316 -0.0947,0.0320 c 0,0 -0.3475,-0.2216 -0.8533,-0.5693 l -0.2213,-0.1262 0.2213,-0.0951 c 1.4225,-0.6006 2.6233,-1.6751 3.3820,-3.0660 -1.2961,0.7903 -2.8130,1.2012 -4.3303,1.2012 -0.7903,0 -1.5492,-0.0952 -2.3078,-0.2849 h -0.0316 v -0.0316 C 65.5260,92.6455 64.4827,91.7288 63.5344,90.7489 L 63.3446,90.5275 h 0.2849 c 0.3161,0 0.6003,-0.0314 0.9164,-0.0947 0.9483,-0.1264 1.8653,-0.3475 2.7820,-0.6004 1.1380,-0.3477 2.1812,-0.8538 3.1611,-1.5492 0.4109,-0.3161 0.8219,-0.6322 1.2012,-0.9799 z"
       sodipodi:nodetypes="ccccccccccccccccscccccccccccccccccccccccccccccccccccccccccccccccscccccccccccccccsccccsccccssscccscccccccsccccccscscccccccscccccsccccsssscccccccccccccccsccccsccscccsccccccccccccccssccccccscccccccccscccccccccscccscccccccsccccccccccccsccccccccccccccccccccccccssccccccccccccccccsccccccccsccccccccccccsccccccccccccsccccccccccccccsscsccccccccscsccccccccsccccccccccccccsccccccccccsccccccccccccccccccccccccccccccscccccsccccccccccccscccccsccccccccccccccccccccccccccsccccccccscccccccccccscccccccccsccccccccccscccccccccccccccccccccscscccccccccscccscccccccscccscccccccccccccccccccccccccccccscccsccccccccccccscccccccccsccccccsccccccccccscccccccccccccccccccccccccccccccccccccccsccccccccccccccccccccccccscccccsccccccscccccsccccc" /><path
       id="XMLID_80_"
       class="st0"
       d="m 32.9034,28.8547 c -1.3593,-0.7903 -2.7502,-1.4857 -4.1727,-2.0863 l -0.0316,-0.0316 -0.3161,-0.4109 0.1264,-0.0948 -0.1264,0.0632 c -0.6006,-1.0116 -1.1064,-2.0863 -1.5489,-3.1927 -1.0116,-2.3708 -2.5605,-2.6869 -3.9830,-3.0347 -1.3277,-0.3161 -2.0863,-1.5173 -2.5921,-2.6237 -0.2845,-0.6638 -0.5058,-1.3909 -0.6322,-2.1179 l -0.0316,-0.4742 0.2845,0.3477 c 1.2012,1.4225 2.6237,2.1179 3.7933,2.1179 0.0948,0 0.1581,0 0.2529,-0.0316 h 0.2529 c 1.4541,0 2.4657,1.1380 2.7818,1.5489 0.1581,-0.2529 0.2529,-0.5690 0.2529,-0.8535 0,-0.2845 -0.0316,-0.6006 -0.1264,-0.8535 -0.0316,-0.1264 -0.0632,-0.2529 -0.1264,-0.3793 -0.6638,-1.7702 -1.6438,-1.9283 -2.8450,-2.0231 -1.1696,-0.1264 -2.5289,-0.2213 -3.6037,-1.8967 -0.6006,-0.8535 -0.9483,-1.8967 -0.9483,-2.9714 0.0316,-1.2961 0.4742,-2.5289 1.3277,-3.5088 l 0.1264,-0.1264 0.0948,0.1581 c 1.0116,2.1812 1.9283,2.7502 2.9714,2.7502 1.2644,0 2.7502,-0.8851 4.5204,-0.8851 0.3161,0 0.6322,0.0316 0.9483,0.0948 1.1696,0.2845 2.3392,0.7271 3.4140,1.2961 -0.7903,-1.0116 -1.2328,-2.2444 -1.2644,-3.5404 0,-0.9799 0.2529,-1.9283 0.7587,-2.7818 l 0.0948,-0.1264 0.1264,0.1264 c 1.9915,2.0547 5.6584,2.4657 9.0724,2.7502 3.5088,0.2845 6.7964,2.2760 9.0091,5.3739 1.3909,1.9599 2.2128,4.2675 2.3708,6.6699 v 0.0316 l -1.3593,4.5204 -0.1264,-0.0316 c -0.8851,-0.4109 -3.1611,-1.4857 -3.7301,-1.7702 l -1.7386,5.1210 -0.1264,-0.0316 c -1.0116,-0.5374 -3.6037,-1.9283 -4.2359,-2.2128 -0.2213,0.6322 -1.3593,3.3824 -1.7386,4.3623 l -0.0316,0.1264 -0.1264,-0.0316 c -1.1380,-0.6322 -4.2043,-2.3076 -4.8049,-2.6869 l -2.0231,3.5404 z"
       style="fill:#ff6720;fill-opacity:1;stroke-width:0.3161" /><path
       id="XMLID_81_"
       class="st2"
       d="m 45.0421,17.2851 -0.2213,0.0316 -0.0316,-0.1264 -0.0316,-0.1264 c -0.2213,-0.7903 -0.5374,-1.5489 -0.9167,-2.2760 l -0.1264,-0.2529 0.1264,-0.0316 0.1264,-0.0316 c 1.0748,-0.4426 2.2444,-0.6638 3.4140,-0.6638 0.7903,-0.0316 1.5805,0.1581 2.2760,0.5058 0.1581,0.0948 0.3161,0.1897 0.4742,0.2845 -0.1581,-0.2213 -0.3793,-0.4109 -0.6006,-0.5690 -0.6638,-0.4109 -1.4541,-0.5690 -2.2444,-0.5374 -1.1696,0.0316 -2.3392,0.2529 -3.4456,0.6954 l -0.1897,0.0316 -0.0316,-0.0948 -0.0316,-0.0948 c -0.2845,-0.4742 -0.6322,-0.8851 -0.9799,-1.2961 l -0.3161,-0.3161 -0.2213,-0.2529 0.1581,-0.0948 0.1264,-0.0316 c 0.7903,-0.3477 1.4541,-0.8535 1.9915,-1.4857 -0.6638,0.6006 -1.4541,1.0748 -2.2760,1.4225 l -0.1581,0.0948 -0.0948,-0.1264 c -0.7271,-0.7587 -1.5489,-1.4225 -2.4657,-1.9283 0.7903,0.5374 1.4857,1.2012 2.1179,1.9283 l 0.2213,0.2529 -0.1581,0.0316 -0.1264,0.0316 -0.0948,0.0316 c -0.0632,0.0316 -0.0948,0.0316 -0.1581,0.0316 -1.4541,0.5690 -2.9714,0.8535 -4.5204,0.8851 h -0.2529 c 0.2845,0 0.5690,0.0316 0.8535,0.0316 1.1696,-0.0316 2.3076,-0.1897 3.4456,-0.5374 0.3161,-0.1264 0.6638,-0.2213 0.9799,-0.3793 l 0.1581,-0.0948 0.0316,0.0948 0.0316,0.0632 c 0.4426,0.5374 0.8219,1.1064 1.1696,1.7386 l 0.1264,0.2529 -0.1264,0.0316 -0.0632,0.1264 c -0.2213,0.0948 -0.5058,0.2213 -0.7903,0.3477 -3.4772,1.7386 -6.4170,4.4255 -8.4401,7.7763 1.9915,-2.9714 4.6784,-5.4371 7.8395,-7.1125 0.5058,-0.2845 1.0116,-0.5374 1.5489,-0.7587 l 0.2213,-0.0632 0.0316,0.0948 0.0316,0.1264 c 0.3793,0.7587 0.6954,1.5173 0.9799,2.2760 l 0.0632,0.2213 -0.1264,0.0316 -0.0948,0.0316 c -1.4857,0.5374 -2.7818,1.5805 -3.6037,2.9082 -0.1264,0.2213 -0.2529,0.4109 -0.3793,0.6006 l 0.3477,-0.5058 c 0.9483,-1.2644 2.2128,-2.2444 3.6669,-2.8134 l 0.2529,-0.0948 0.0316,0.1264 0.0316,0.1264 c 0.3793,1.1696 0.6638,2.3392 0.8535,3.5404 -0.0316,-1.2328 -0.2213,-2.4657 -0.5374,-3.6669 l -0.0632,-0.2213 0.1264,-0.0316 h 0.0948 c 0.6322,-0.1897 1.2644,-0.2845 1.9283,-0.3161 1.0116,-0.0316 2.0231,0.2845 2.8450,0.8535 -0.1264,-0.1264 -0.2529,-0.2529 -0.4109,-0.3477 -0.7587,-0.4742 -1.6438,-0.7271 -2.5289,-0.6638 -0.6322,0.0316 -1.2644,0.1264 -1.8650,0.2845 z"
       style="fill:#000000;stroke-width:0.3161" /><path
       id="XMLID_84_"
       class="st1"
       d="m 37.4870,35.7143 c -0.7903,-0.0632 -1.5173,-0.3793 -2.1179,-0.8851 -0.4109,-0.1581 -1.9915,2.6869 2.0863,3.3192 v -0.0632 c -0.9799,-1.1696 -0.3477,-1.9915 0.0316,-2.3708 z m -3.2559,-4.5204 1.9283,-3.1295 -0.7271,-1.5173 -1.9915,3.4772 -4.1410,-2.0231 5.6584,6.0693 c 0.5374,0.3793 1.1380,0.6638 1.7702,0.7587 z"
       style="fill:#0057b7;fill-opacity:1;stroke-width:0.3161" /><path
       id="XMLID_32_"
       style="display:inline;fill:#6eceb2;fill-opacity:1;stroke-width:0.3161"
       class="st4"
       d="m 42.2604,24.8401 c -0.6006,1.5489 -1.8336,4.4886 -1.8336,4.4886 l -5.0263,-2.7816 2.5291,5.2476 1.6439,-1.7705 1.7701,0.7271 1.5172,-4.2988 z m 22.7281,0.3795 c -0.3793,0.0316 -0.7268,0.0316 -1.1061,0.0316 h -0.4111 l 0.0316,0.1578 c 0.2213,0.9799 0.4111,1.8336 0.6324,2.8136 0,0.0632 0.0316,0.0630 0.0316,0.0947 -0.8851,-0.9799 -1.6440,-1.9282 -2.5291,-2.9713 l -0.0316,-0.0316 h -0.0316 c -0.5374,0 -0.9799,-5.5000e-5 -1.4857,0.0316 h -0.1582 l 0.0320,0.1582 c 0.0316,0.2213 0.0945,0.4422 0.1578,0.6635 l 0.0316,0.1267 h 0.1267 c 0.1264,-0.0316 0.2526,-0.0316 0.3791,-0.0316 0.2213,1.0748 0.4742,2.0547 0.7271,3.1611 h -0.5057 l 0.0316,0.1582 c 0.0316,0.2213 0.0950,0.4422 0.1267,0.6635 h 0.0316 v 0.1582 h 0.1267 c 0.5058,0 0.9165,5.6000e-5 1.3590,-0.0316 h 0.1582 l -0.0316,-0.1582 c -0.2213,-0.9799 -0.4111,-1.8332 -0.6324,-2.8131 0,-0.0632 -0.0316,-0.0950 -0.0316,-0.1267 0.8535,1.0116 1.6755,1.9282 2.5922,2.9713 l 0.0316,0.0316 h 0.1262 c 0.2529,0 0.5057,-0.0316 0.7586,-0.0316 h 0.1582 l -0.0316,-0.1578 c -0.3161,-1.3593 -0.5692,-2.5609 -0.8853,-3.9201 h 0.5057 l -0.0316,-0.1578 c -0.0316,-0.2529 -0.0946,-0.4427 -0.1262,-0.6639 l -0.0316,-0.1262 z m 3.8566,0.0947 0.0631,0.1582 c 0.0632,0.2213 0.0950,0.4107 0.1267,0.6320 v 0.1267 h 0.5057 c 0.2213,1.0432 0.4111,1.9913 0.6324,3.0344 h -0.5062 v 0.1582 c 0.0316,0.2529 0.0950,0.4427 0.1267,0.6639 v 0.0947 h 0.0947 c 1.3909,0.0316 2.6239,0.0315 4.0148,0.0631 l 0.2844,-0.0316 -0.0316,-0.1262 c -0.0632,-0.5058 -0.1580,-1.0119 -0.2844,-1.4861 l -0.0316,-0.1262 h -0.1267 c -0.2845,-0.0316 -0.5688,-0.0316 -0.8217,-0.0316 h -0.1898 l 0.0316,0.1578 c 0.0632,0.2213 0.0950,0.4427 0.1267,0.6639 -0.5058,0 -0.9799,-0.0316 -1.4857,-0.0316 -0.0632,-0.4109 -0.1265,-0.7587 -0.2213,-1.1697 0.5690,0 1.0744,-5.5000e-5 1.6750,0.0316 h 0.1267 v -0.1578 c -0.0316,-0.2213 -0.0950,-0.4112 -0.1267,-0.6008 v -0.1262 h -0.1262 c -0.6006,0 -1.1379,-0.0316 -1.7385,-0.0316 -0.0948,-0.3477 -0.1897,-0.6638 -0.2213,-0.9799 0.5058,0 0.9799,-5.5000e-5 1.4857,0.0316 0.0316,0.2213 0.0950,0.4422 0.1267,0.6635 v 0.1267 h 0.1262 c 0.3161,0.0316 0.5372,-5.5000e-5 0.8217,0.0316 l 0.1582,0.0316 -0.0316,-0.1578 c -0.1264,-0.5058 -0.1896,-0.9168 -0.2844,-1.4226 v -0.0951 h -0.1267 c -1.4541,-0.0632 -2.5919,-0.0630 -3.9828,-0.0947 z m 7.3021,0.2844 v 0.1582 c 0,0.2213 -5.6000e-5,0.4107 0.0316,0.6320 v 0.1267 h 0.0951 c 0.1581,0 0.3162,-5.5000e-5 0.4426,0.0316 0.5374,1.3593 0.9799,2.5920 1.4857,3.9513 l 0.0316,0.0951 h 0.0947 c 0.3477,0.0632 0.5692,0.0946 0.8853,0.1262 l 0.1262,0.0316 0.0316,-0.1262 c 0.2213,-1.1064 0.4742,-2.0548 0.7271,-3.0980 0.5058,1.1696 0.9803,2.2127 1.4861,3.4140 l 0.0316,0.0316 h 0.0947 c 0.2845,0.0632 0.6008,0.0950 0.8853,0.1267 h 0.1262 l 0.0316,-0.1267 c 0.1581,-1.2644 0.4112,-2.3708 0.5693,-3.6353 0.1264,0 0.2526,-5.5000e-5 0.3791,0.0316 l 0.1582,0.0320 -0.0316,-0.1582 -0.0316,-0.6324 v -0.1262 h -0.1267 c -0.4426,-0.0632 -0.8534,-0.1266 -1.2959,-0.1582 l -0.1267,-0.0316 -0.0316,0.1262 c -0.0948,0.9799 -0.1895,1.8652 -0.3160,2.8136 -0.4426,-1.0748 -0.8222,-1.9600 -1.2963,-3.0664 l -0.0316,-0.0316 -0.0947,-0.0316 c -0.3477,-0.0632 -0.6321,-0.0946 -1.0115,-0.1262 l -0.1267,-0.0316 -0.0316,0.1262 c -0.2529,0.9799 -0.4107,1.8653 -0.6004,2.7820 -0.3477,-1.0432 -0.6005,-1.9917 -1.0115,-3.0349 l -0.0320,-0.0631 h -0.0947 c -0.4109,-0.0316 -0.8534,-0.0950 -1.2959,-0.1267 z m 15.2682,2.4025 v 0.1582 c 0,0.1897 -0.0316,0.4107 -0.0316,0.6004 v 0.0951 l 0.1262,0.0316 c 0.1897,0.0632 0.3477,0.0946 0.4742,0.1262 0.4109,0.7271 0.8219,1.3595 1.2328,2.0865 0,0.3477 -0.0315,0.6952 -0.0631,1.1061 -0.1581,-0.0632 -0.2846,-0.0946 -0.4111,-0.1262 l -0.1262,-0.0316 v 0.1578 c 0,0.1897 -0.0316,0.3796 -0.0316,0.5693 v 0.1262 l 0.1262,0.0316 c 0.6638,0.1581 1.2647,0.3481 2.0234,0.5377 l 0.1578,0.0947 v -0.1267 c 0.0316,-0.1897 0.0316,-0.4107 0.0316,-0.6004 v -0.1267 l -0.0947,-0.0316 c -0.1581,-0.0316 -0.2846,-0.0630 -0.4426,-0.0947 0.0316,-0.4109 0.0631,-0.7903 0.0631,-1.2012 0.4742,-0.4426 0.8537,-0.8217 1.3594,-1.2959 0.1581,0.0316 0.3161,0.0946 0.4742,0.1262 l 0.1267,0.0316 v -0.1578 c 0,-0.1897 -5.5000e-5,-0.3796 0.0316,-0.6008 v -0.1262 l -0.1267,-0.0320 c -0.3793,-0.1264 -0.7272,-0.1895 -1.1381,-0.3160 h -0.0631 l -0.0631,0.0316 c -0.4426,0.4426 -0.7587,0.8538 -1.1697,1.2963 -0.3477,-0.6638 -0.6321,-1.2645 -1.0115,-1.9283 l -0.0316,-0.0316 -0.0316,-0.0320 c -0.3793,-0.0948 -0.8219,-0.2212 -1.2328,-0.3160 z m 8.4368,2.2668 c -0.3004,0.0112 -0.5736,0.2464 -0.6289,0.5784 -0.1581,0.9167 -0.3161,1.7070 -0.4742,2.6554 v 0.1262 c 0,0.4742 0.4109,0.8853 0.9799,1.1066 0.6322,0.2213 1.1379,0.3791 1.7385,0.6004 0.1897,0.0632 0.3796,0.0951 0.6008,0.0951 0.3793,0.0316 0.6954,-0.2216 0.7586,-0.5693 0.1580,-0.8851 0.3161,-1.7387 0.5057,-2.6238 v -0.1578 c 0,-0.4742 -0.3793,-0.8853 -1.0115,-1.1066 -0.6322,-0.1897 -1.1379,-0.3791 -1.7385,-0.6004 -0.1897,-0.0632 -0.3796,-0.0951 -0.6008,-0.0951 -0.0435,-0.0079 -0.0868,-0.0107 -0.1297,-0.0091 z m 0.6670,0.9890 c 0.0633,0 0.0950,3.7700e-4 0.1582,0.0320 0.3793,0.1264 0.7272,0.2842 1.1381,0.4106 0.2213,0.0632 0.2213,0.0949 0.2213,0.2213 v 0.0631 c -0.1580,0.8219 -0.2530,1.5491 -0.4111,2.3394 -0.0632,0.1264 -0.0631,0.0950 -0.0947,0.1267 -0.0632,0 -0.0950,-3.7700e-4 -0.1582,-0.0320 -0.3793,-0.1581 -0.7272,-0.2842 -1.1066,-0.4106 -0.2213,-0.0948 -0.2209,-0.0949 -0.2209,-0.2213 v -0.0951 h -4.3000e-4 c 0.1580,-0.7903 0.2215,-1.5171 0.3480,-2.3074 0.0948,-0.1264 0.0946,-0.1267 0.1262,-0.1267 z m 5.6587,1.1697 -0.0315,0.1267 c -0.0633,0.1897 -0.1266,0.3792 -0.1582,0.5688 l -0.0316,0.0947 0.1262,0.0320 0.3795,0.1578 c -0.2529,0.8219 -0.4427,1.6121 -0.6640,2.4656 -0.1265,0 -0.2527,-0.0630 -0.3475,-0.1262 l -0.1267,-0.0316 -0.0316,0.1262 c 0,0.1581 -0.0630,0.3477 -0.1262,0.5057 l -0.0316,0.1267 0.1262,0.0316 c 0.5374,0.1897 0.9169,0.3791 1.3910,0.6004 l 0.1262,0.0320 0.0316,-0.1267 c 0.1897,-0.5374 0.2846,-1.0114 0.4111,-1.5172 0.3793,0.1581 0.6637,0.3162 1.0430,0.4426 0.1265,0.0948 0.1582,0.1577 0.1582,0.1893 l -0.0316,0.1267 c -0.1581,0.5058 -0.2215,0.9169 -0.3795,1.3594 l -0.0315,0.1262 0.0951,0.0316 c 0.5058,0.1897 0.9164,0.3480 1.3906,0.5693 h 0.0951 l 0.0315,-0.1582 c 0,-0.1581 0.0946,-0.3161 0.1262,-0.5057 l 0.0316,-0.0951 -0.0947,-0.0316 c -0.1265,-0.0316 -0.2211,-0.0945 -0.3475,-0.1578 0.0632,-0.2213 0.0946,-0.3796 0.1578,-0.6008 0,-0.1581 0.0316,-0.2212 0.0316,-0.3160 0,-0.1897 -0.0628,-0.4109 -0.2209,-0.5373 0.2213,0 0.4425,-0.1582 0.5057,-0.3795 0.0632,-0.1897 0.1261,-0.4107 0.1893,-0.6004 v -0.0316 c 0.0316,-0.0316 0.0316,-0.0950 0.0316,-0.1582 -0.0316,-0.5058 -0.3790,-0.9486 -0.8848,-1.0750 -0.9799,-0.4426 -1.8336,-0.8219 -2.8136,-1.2328 z m 1.4541,1.4226 c 0.3477,0.1897 0.6638,0.3477 1.0115,0.4742 0.1581,0.0948 0.1898,0.1581 0.1898,0.2213 l -0.0320,0.1262 c 0,0.1264 -0.0630,0.2846 -0.1262,0.4111 v 0.0316 c -0.0632,0.1264 -0.0631,0.1267 -0.0947,0.1267 0,0 -0.0951,-0.0316 -0.1267,-0.0316 -0.3793,-0.1581 -0.7269,-0.3161 -1.0430,-0.5057 0.0948,-0.3161 0.1581,-0.5376 0.2213,-0.8537 z m -61.4518,0.5688 c -1.6754,0.5374 -3.3823,0.9169 -5.1209,1.1381 -1.1064,1.0116 -0.5374,1.9914 0.0316,2.4971 2.1179,-0.2529 5.9427,-1.6434 5.9427,-1.6434 -1.3593,-0.5374 -0.8533,-1.9918 -0.8533,-1.9918 z m 7.7763,0.8853 c -0.0948,0 -0.1897,0.0314 -0.2529,0.0947 -0.6322,0.4426 -1.2644,0.8539 -1.9599,1.2332 -0.4109,0.2845 -0.8222,0.4740 -1.2963,0.6004 -0.1581,0.0632 -0.3477,0.1265 -0.5057,0.2213 -0.1264,0.0948 -0.2213,0.2530 -0.2213,0.4426 0,0.0632 3.7700e-4,0.1581 0.0320,0.2213 0.2213,0.5374 1.2010,1.2643 2.3074,1.2959 h 0.0316 c 0.8851,-0.0632 1.7387,-0.4108 2.3709,-1.0430 -0.1581,0.7587 -0.3479,1.5172 -0.6324,2.2443 -0.2845,0.7903 -0.5373,1.3275 -0.5373,1.3275 l -0.0316,0.0320 1.7385,7.4599 0.0631,0.0316 c 0.6954,0.2529 1.1382,0.9168 1.1066,1.6754 0,0.4426 -0.0633,0.8534 -0.2213,1.2644 -0.0316,0.1264 -0.1266,0.1900 -0.1582,0.3164 l -0.0316,0.0316 0.5693,3.0344 0.0316,0.0320 c 0.1897,0.1264 0.4108,0.2526 0.5688,0.4106 0.3793,0.3793 0.6008,0.8852 0.6008,1.4226 0,0.5374 -0.2215,1.0432 -0.6008,1.4226 -0.3793,0.3793 -0.8852,0.6004 -1.4226,0.6004 -1.1064,0 -1.9914,-0.9166 -2.0230,-2.0230 0,-0.3161 0.0633,-0.6008 0.2213,-0.8853 l 0.0316,-0.0631 -1.2959,-2.2443 h -0.0320 c -0.2529,0 -0.4738,-0.0633 -0.6635,-0.1898 -0.0316,-0.0316 -0.0950,-0.0630 -0.1582,-0.0947 l -0.0316,-0.0316 -0.1898,-0.1267 -0.0316,0.2213 c 0,0.2529 -0.0316,0.5057 -0.0316,0.7586 0,0.4742 0.0633,0.9484 0.2213,1.3910 0.5374,1.3593 1.2011,2.6553 1.9914,3.8881 l 0.0316,0.0316 h 0.0316 c 0.4742,0.0948 0.9485,0.2844 1.3594,0.5373 0.3477,0.2213 0.6638,0.4741 0.7586,0.5057 0.1264,0.3477 0.7586,2.4343 0.9799,3.5091 v 0.0947 c 0,0.0948 5.5000e-5,0.0950 -0.0316,0.1267 -0.0632,0.0316 -0.1581,0.0316 -0.2213,0.0316 -0.1581,0 -0.2846,-0.0315 -0.4111,-0.0631 -0.1264,0 -0.2213,-0.0320 -0.2213,-0.0320 l -0.2529,-0.0947 0.0951,0.2529 c 0.0316,0 2.6869,8.1872 5.8480,12.6759 v -0.0316 h 0.0947 c 0.0316,0 2.4025,-0.4740 3.3824,-3.7615 0.3793,-1.2012 0.6008,-2.4344 0.6324,-3.6988 0.0316,-0.6638 -0.1266,-1.3592 -0.4111,-1.9914 -0.7271,-1.8967 -1.6756,-3.7299 -2.8136,-5.4369 v -0.0316 l -1.0115,-1.0119 -0.7271,-2.1492 c 0.0316,-0.5690 0.0316,-1.1380 0.0316,-1.7070 0,-1.7702 -0.0947,-4.1730 -0.0947,-4.1730 v -0.0316 c -0.7587,-2.1179 -4.6783,-7.5235 -5.1841,-8.2189 0.9799,-1.5173 1.1061,-3.8246 1.1061,-5.3103 0,-0.6954 -0.0316,-1.1696 -0.0316,-1.2328 V 38.9386 c 0,-0.5058 -0.0634,-0.9799 -0.1582,-1.4541 -0.0632,-0.5058 -0.1894,-0.9484 -0.3791,-1.3910 v -0.0316 l -0.0316,-0.0316 c 0,0 -1.2961,-0.7271 -1.9283,-0.7271 z m 59.4284,0.4426 -0.0316,0.1582 c -0.0632,0.1581 -0.1266,0.3157 -0.1898,0.4738 l -0.0316,0.1267 0.0951,0.0316 c 0.0948,0.0632 0.2212,0.1265 0.3160,0.1898 -0.3161,0.7587 -0.5376,1.4856 -0.8537,2.2443 -0.0948,-0.0632 -0.1896,-0.0945 -0.2844,-0.1578 l -0.1578,-0.0951 -0.0316,0.1582 c -0.0316,0.1581 -0.0634,0.3161 -0.1582,0.4742 l -0.0947,0.1262 0.1262,0.0635 c 0.4425,0.2213 0.8219,0.4106 1.2328,0.6635 l 0.1267,0.0635 0.0315,-0.1267 c 0.1580,-0.4742 0.3477,-0.8853 0.5057,-1.3594 0.3477,0.1581 0.6007,0.3161 0.9168,0.5057 0.1581,0.0632 0.1578,0.1266 0.1578,0.1582 v 0.1267 c -0.1897,0.4426 -0.3477,0.7903 -0.5057,1.2012 l -0.0315,0.1262 0.1267,0.0316 c 0.4109,0.1897 0.7903,0.4427 1.2328,0.6639 l 0.1262,0.1262 0.0315,-0.1262 0.1898,-0.5057 0.0316,-0.1267 -0.0947,-0.0316 c -0.0948,-0.0632 -0.2215,-0.1265 -0.3480,-0.1898 0.1265,-0.2529 0.2216,-0.4742 0.3164,-0.7271 0,-0.1264 0.0315,-0.2211 0.0315,-0.3160 0,-0.4109 -0.2844,-0.6955 -0.7586,-0.9484 -0.0632,-0.0316 -0.1265,-0.0946 -0.2213,-0.1262 0.3477,-0.0948 0.6638,-0.2215 1.0115,-0.3480 0.1897,0.0948 0.3476,0.1896 0.5373,0.2844 l 0.1267,0.0635 0.0631,-0.1267 c 0.0948,-0.1897 0.1581,-0.3161 0.2213,-0.5057 l 0.0315,-0.1262 -0.0947,-0.0320 c -0.3477,-0.1897 -0.6958,-0.3792 -1.0119,-0.5688 l -0.0316,-0.0316 -0.0631,0.0316 c -0.5690,0.2213 -1.0749,0.4427 -1.6439,0.6639 0.1897,-0.4426 0.3161,-0.8534 0.5057,-1.2959 l 0.0316,-0.0951 -0.1262,-0.0316 c -0.4426,-0.2213 -0.8218,-0.4427 -1.2328,-0.6639 z m -39.7663,1.4226 c 1.0748,4.3939 2.0863,8.5664 3.1611,12.9604 0.1897,0 0.3792,-0.0315 0.5688,-0.0631 -1.0116,-4.3623 -2.0233,-8.5349 -3.0664,-12.8972 z m -6.6066,0.7902 c -0.1581,0.1897 -0.3480,0.3163 -0.5693,0.3795 0.4109,1.2961 0.7903,2.5604 1.2012,3.9197 0.2213,-0.1264 0.3476,-0.2530 0.5688,-0.4111 -0.4109,-1.3277 -0.7899,-2.5921 -1.2008,-3.8881 z m -9.1885,3.6733 c 1.8334,4.8049 2.2972,5.9998 4.1306,10.8047 0.2213,-0.0316 0.4107,-0.0950 0.6320,-0.1582 -1.8018,-4.7733 -4.6576,-12.4058 -4.6576,-12.4058 0,0 -0.0103,1.0841 -0.1050,1.7593 z m 30.0198,-3.1360 c 0.4109,3.8565 0.7904,7.5550 1.1697,11.4431 0.1897,0 0.4109,0.0316 0.5373,0.0316 -0.3793,-3.8882 -0.7268,-7.5230 -1.1061,-11.3796 -0.1897,0 -0.4112,-0.0319 -0.6008,-0.0951 z m -47.6062,0.4426 0.2213,0.2529 c 0.0632,0.0632 0.1580,0.1267 0.2529,0.1267 0.9799,0.3793 1.9602,0.6320 2.9718,0.8533 0,0.2845 0.0314,0.6008 0.0947,0.8853 0.0632,0.3161 0.2529,0.6006 0.5057,0.7586 h 0.0947 c 0.8219,-0.0632 1.6438,-0.2844 2.4340,-0.5688 0.9799,-0.5058 1.3279,-0.8854 1.3279,-1.2963 -0.0316,-0.3161 -0.2212,-0.6006 -0.5057,-0.7271 -0.1581,-0.0632 -0.3161,-0.1581 -0.4742,-0.2213 h -0.0316 c -0.4426,0.0632 -0.8854,0.1899 -1.2963,0.3480 -0.2529,0.0948 -0.5057,0.1578 -0.7902,0.1578 -0.1264,0 -0.2846,-0.0315 -0.4111,-0.0631 -0.0316,-0.0316 -0.0946,-0.0316 -0.1262,-0.0316 l -0.0316,-0.0316 h -0.0316 c -1.2961,-0.0632 -2.5922,-0.1898 -3.8566,-0.4111 z m 8.6931,2.6554 v 0.0316 c -0.4426,0.2529 -0.9168,0.4743 -1.3910,0.6639 -0.6638,0.3161 -1.3906,0.5056 -2.1176,0.6004 -1.4225,-0.1264 -2.8768,-0.3793 -4.2677,-0.7586 l -0.0947,0.2213 c 1.6122,0.6638 3.3189,1.1066 5.0258,1.3594 l 0.0951,0.5057 c 0,0.0632 0.0630,0.1262 0.1262,0.1578 0.0632,0.0316 0.1582,0.0636 0.1582,0.0320 0.5690,-0.0948 1.1065,-0.2848 1.6123,-0.5377 0.2845,-0.1264 0.5689,-0.2842 0.7902,-0.4106 0.1581,-0.0948 0.2846,-0.1900 0.4111,-0.2849 l 0.0316,-0.0316 c 0.2845,-0.2529 0.4741,-0.6006 0.5373,-0.9799 0,-0.1581 -0.0949,-0.3158 -0.2213,-0.4106 -0.1897,-0.0948 -0.4427,-0.1582 -0.6639,-0.1582 z m 54.6238,1.8336 c -0.2529,2.4657 -0.6638,5.4055 -0.9799,8.5034 0.1580,0.0316 0.2845,0.0630 0.4742,0.1262 0.3793,-3.0979 0.7584,-6.0062 1.1061,-8.4402 z m -53.4226,1.3590 c 0,0 -0.5371,0.2213 -1.1061,0.4742 -0.4426,0.1897 -0.9168,0.3162 -1.3910,0.4111 -0.4109,0 -0.9484,0.0316 -2.6238,0.0316 h -0.4426 l 0.3480,0.2529 c 0.6006,0.3161 1.2960,0.4741 1.9914,0.5057 h 0.2529 c 0.2213,0 0.4427,5.5000e-5 0.6639,-0.0316 l 0.0316,0.3475 0.0947,0.4742 0.1267,-0.0316 c 0,0 0.4107,-0.1579 0.8533,-0.3475 0.3793,-0.1581 0.7589,-0.3480 1.1066,-0.5693 0.3793,-0.2845 0.6322,-0.6636 0.7271,-1.1061 0,-0.1581 -0.0634,-0.2528 -0.1582,-0.3160 v -4.3200e-4 c -0.0948,-0.0632 -0.2211,-0.0947 -0.3160,-0.0947 z m 18.3977,0.2529 c 0.4742,1.4541 0.8849,2.8451 1.3590,4.2992 0.1897,0 0.3796,-0.0319 0.6008,-0.0951 -0.4109,-1.3277 -0.7903,-2.6236 -1.2012,-3.9513 -0.2845,-0.0948 -0.5057,-0.1896 -0.7586,-0.2529 z m 26.3318,1.0115 c 0,1.5173 0.0319,2.9717 0.0951,4.4890 0.1581,0.0316 0.3161,0.0631 0.5057,0.0631 -0.0316,-1.4225 -0.0316,-2.7817 -0.0316,-4.1726 -0.1897,-0.0948 -0.3796,-0.2531 -0.5693,-0.3795 z m -14.6989,1.1381 1.1693,9.5779 1.1697,-0.1578 z m -29.0191,0.1267 c -0.2213,0 -0.4423,0.1576 -0.8533,0.4738 -0.1581,0.0316 -1.2328,0.5378 -1.7385,0.7590 l -0.0951,0.0316 v 0.0947 l 0.0631,0.8222 v 0.0316 c 0.0316,0.0632 0.0634,0.1581 0.1267,0.2213 0.0632,0 0.1265,0.0316 0.2213,0.0316 0.3793,-0.0632 0.7584,-0.1898 1.1061,-0.4111 0.3793,-0.2213 0.7274,-0.5060 1.0119,-0.8537 0.2213,-0.2529 0.3790,-0.6002 0.4106,-0.9479 0.0316,-0.0632 5.6000e-5,-0.1265 -0.0316,-0.1898 -0.0632,-0.0316 -0.1581,-0.0631 -0.2213,-0.0631 z m 31.9589,0 c 0.0948,0.5058 0.1265,0.9480 0.2213,1.4221 0.0948,0.0316 0.1896,0.0950 0.2844,0.1267 0.1264,0.0316 0.2527,0.0634 0.3475,0.1582 -0.0948,-0.5058 -0.1265,-0.9484 -0.2213,-1.4226 -0.1264,-0.0316 -0.2211,-0.0950 -0.3475,-0.1267 z m 30.4728,0.6320 c -0.4109,1.4225 -0.6005,2.8132 -1.0115,4.2041 0.1580,0.0316 0.3477,0.0320 0.5057,0.0320 0.4109,-1.3593 0.6005,-2.6239 1.0115,-4.0148 -0.1581,-0.0632 -0.3477,-0.1265 -0.5057,-0.2213 z m -61.4518,0.0951 c -0.0316,0.0632 -0.0630,0.1577 -0.0947,0.2209 -0.1897,0.4109 -0.4426,0.7905 -0.7271,1.1066 l 0.7586,2.0230 c 0.3477,0.0316 0.6954,2.2500e-4 1.0115,-0.1262 0.0948,0 0.1581,-0.0319 0.2213,-0.0951 z m -24.8146,0.8217 c -0.2529,0.1581 -0.5057,0.2846 -0.7902,0.4111 3.4140,5.0578 6.6381,9.9575 10.0521,15.0469 0.2213,-0.0948 0.4427,-0.2215 0.6324,-0.3795 -3.3508,-5.1210 -6.5436,-9.9574 -9.8944,-15.0784 z m 65.0555,0.9168 -6.9230,6.2906 c 0.6006,0 1.1696,-0.0635 1.7070,-0.0951 z m -49.2816,3.6668 c -0.2213,0.1264 -0.4111,0.2211 -0.6639,0.3475 0.4109,0.6638 1.4859,2.4342 1.8652,3.0980 l 0.6004,-0.2844 c -0.4742,-0.7903 -1.3591,-2.3392 -1.8016,-3.1611 z m 59.1760,0.1262 -10.2739,3.0349 1.1066,0.3160 z m -33.0335,0.3795 5.8164,4.3939 c 0.5374,-0.1897 1.1060,-0.3792 1.6750,-0.5373 z m 18.4924,3.0980 c -1.2644,0 -2.5606,0.0948 -3.8250,0.2844 -6.0061,0.8851 -9.6099,2.3075 -12.5182,3.6984 h -0.0631 l -0.0316,0.0631 v 0.0316 c 0.0316,0.2845 0.2528,0.5376 0.5373,0.6008 h 0.0951 0.0316 c 3.0979,-1.4225 6.3854,-2.4658 9.7362,-3.0980 2.3392,-0.4742 4.7415,-0.6956 7.1439,-0.6639 h 0.6008 c 1.3593,0 2.7184,0.2847 3.9828,0.8537 l 0.3160,0.1898 -0.0947,-0.3480 c -0.1264,-0.2213 -0.2845,-0.3792 -0.4742,-0.5373 -0.2845,-0.2213 -0.6007,-0.4109 -0.9484,-0.5057 -1.4541,-0.4109 -2.9712,-0.6005 -4.4886,-0.5688 z m -0.0951,1.2959 c -0.5690,0 -1.1695,0.0630 -1.7385,0.0947 -3.7301,0.4109 -7.4285,1.2331 -11.0005,2.4976 -3.4456,1.2328 -6.2273,2.6237 -7.0808,3.8881 0,0 -0.0316,0.0946 -0.0316,0.1262 0,0.0948 0.0629,0.1897 0.1578,0.2529 0.4426,0.2213 0.9168,0.3163 1.4226,0.3795 0.5374,0.0632 1.0115,0.0947 1.0115,0.0947 h 0.0635 l 0.0316,-0.0316 c 0.1581,-0.1897 0.3161,-0.3161 0.5057,-0.4742 l 0.2844,-0.2213 -0.3475,-0.0316 c -0.3793,-0.0316 -1.0120,-0.1267 -1.2332,-0.1267 -0.1581,-0.0316 -0.2841,-0.0630 -0.4422,-0.0947 -0.0316,-0.0316 -0.0950,-0.0630 -0.1267,-0.0947 l -0.0316,-0.0316 0.0316,-0.0320 0.1267,-0.1262 c 0.5058,-0.2845 1.0744,-0.4111 1.6434,-0.3795 0.1581,0 0.2216,0.0316 0.3164,0.0316 0.1897,0.0316 0.7903,0.0950 1.2012,0.1267 h 0.1578 l 0.0316,-0.0316 c 0.1897,-0.0948 0.3481,-0.1897 0.5062,-0.2529 l 0.3160,-0.1582 -0.3160,-0.0947 c -0.2845,-0.1264 -0.5692,-0.2212 -0.8853,-0.2844 -0.0948,-0.0316 -0.3476,-0.2215 -0.3160,-0.3480 0,-0.0632 0.0630,-0.2211 0.3791,-0.3475 0.2529,-0.1264 0.5377,-0.1898 0.8222,-0.1898 0.3477,0 0.6954,0.0633 1.0115,0.1898 0.3161,0.0948 0.6323,0.1896 0.9484,0.2844 l 0.0316,0.0316 0.0316,-0.0316 c 0.1581,-0.0948 0.3476,-0.1265 0.5688,-0.2213 l 0.2213,-0.0947 -0.1582,-0.1267 c -0.1581,-0.1581 -0.4425,-0.3794 -0.5373,-0.4742 -0.0632,0 -0.0947,-0.1265 -0.0947,-0.2213 0,-0.1581 0.0946,-0.3792 0.6320,-0.5688 0.1897,-0.0632 0.3796,-0.1267 0.6008,-0.1267 0.3477,0 0.6639,0.1267 0.9168,0.3480 0.0948,0.0948 0.4108,0.3793 0.5688,0.5057 l 0.0631,0.0316 0.0316,-0.0316 c 0.1897,-0.0316 0.3796,-0.1266 0.6008,-0.1582 l 0.1262,-0.0316 -0.0316,-0.1262 c -0.0316,-0.1581 -0.0946,-0.5060 -0.1262,-0.6008 v -0.0316 c 0,-0.1581 0.1264,-0.6324 0.9799,-0.8537 0.1264,-0.0316 0.2530,-0.0631 0.4111,-0.0631 0.5374,0 0.6635,0.3162 0.6635,0.4111 0,0.1264 0.0950,0.4743 0.1267,0.6324 v 0.1262 l 0.1262,-0.0316 0.6008,-0.1267 0.0631,-0.0316 0.0316,-0.0316 c 0.0948,-0.2529 0.3164,-0.6322 0.3480,-0.7586 0.2845,-0.5058 0.8216,-0.8535 1.3906,-0.9484 0.0948,-0.0316 0.1580,-0.0316 0.2529,-0.0316 0.4426,0.0316 0.4426,0.1895 0.4742,0.3475 0,0.0632 5.6000e-5,0.0950 -0.0316,0.1582 -0.0948,0.1264 -0.2211,0.4742 -0.3475,0.6955 l -0.1267,0.2213 0.2529,-0.0316 c 0.1897,-0.0316 0.4112,-0.0635 0.6008,-0.0635 h 0.0316 l 0.0316,-0.0316 c 0.2529,-0.2213 0.6322,-0.6006 0.7586,-0.7271 0.4426,-0.5058 1.0747,-0.8532 1.7385,-0.9164 h 0.0316 c 0.1264,-0.0316 0.2216,-5.5000e-5 0.3164,0.0316 0.0316,0.0316 0.0316,0.0946 0.0316,0.1262 -0.0316,0.1581 -0.1265,0.3162 -0.2213,0.4426 -0.2529,0.2213 -0.5058,0.4427 -0.7271,0.6639 l -0.2529,0.2213 h 1.1061 c 0.3477,-0.2213 0.8219,-0.5059 0.9799,-0.6324 0.2845,-0.1581 1.1698,-0.7586 1.8336,-0.7586 h 0.1267 c 0.2213,0.0632 0.2209,0.0630 0.2209,0.0947 -0.0316,0.1264 -0.0629,0.2531 -0.1578,0.3480 -0.0948,0.1264 -0.2215,0.2212 -0.3480,0.2844 -0.1581,0.0632 -0.5687,0.3476 -0.9164,0.5688 l -0.3164,0.1898 0.3795,0.0316 c 0.2529,0.0316 0.4427,0.0950 0.6639,0.1267 h 0.0316 l 0.0316,-0.0316 c 0.3477,-0.1581 0.7272,-0.3162 0.8853,-0.4111 0.5374,-0.2529 1.1064,-0.4110 1.7070,-0.4742 0.0948,0 0.1896,-5.6000e-5 0.2844,0.0316 l 0.0947,0.0316 c -0.2213,0.2529 -0.5372,0.4428 -0.8533,0.5693 -0.1897,0.0632 -0.5690,0.2842 -0.9484,0.4106 l -0.2849,0.1582 0.3164,0.0947 0.0316,0.0316 h 0.0316 c 0.1897,-0.0316 0.3477,0.1582 0.4742,0.3795 0.0948,0.1264 0.1582,0.2530 0.1898,0.4111 l 0.0316,0.1578 0.1262,-0.0631 c 0.9167,-0.4109 1.8967,-1.2959 1.9283,-2.0545 0,-0.2845 -0.1578,-0.5375 -0.3791,-0.6639 -0.7903,-0.4742 -3.1297,-0.9800 -5.6902,-0.9484 z m 7.1128,1.1697 c -0.0632,0.2529 -0.1264,0.5057 -0.2529,0.7586 l 8.2820,-0.7586 z m -32.3380,0.3791 6.2902,1.3910 c 0.4426,-0.2845 0.9168,-0.5688 1.4226,-0.8533 z m 24.2137,1.4226 0.0631,0.1898 c 0.0948,0.3793 0.1267,0.7904 0.1267,1.1697 0,0.5374 -0.1266,1.1693 -0.3795,1.3906 l -0.1578,0.1267 0.1578,0.0947 c 0.4109,0.1897 0.8538,0.3164 1.2963,0.3164 0.5374,0.0632 1.0432,-0.2532 1.2012,-0.7906 0.0316,0.1581 0.0316,0.2846 0.0316,0.4111 0.0316,0.2845 -0.1267,0.5375 -0.3480,0.6639 l -0.3160,0.1582 0.3480,0.0631 c 0.1897,0 0.3476,-5.5000e-5 0.5373,0.0316 h 0.0316 l 0.0316,-0.0316 c 0.2529,-0.1581 0.5373,-0.3160 0.7586,-0.5373 0.4742,-0.3161 0.7589,-0.8220 0.8222,-1.3910 0,-0.1581 -0.0319,-0.2846 -0.0951,-0.4111 -0.2529,-0.6954 -1.2645,-1.0116 -2.1812,-1.2012 -0.5690,-0.1264 -1.1695,-0.2213 -1.7701,-0.2529 z m -1.1697,0.0316 c -2.2128,0.0948 -4.4255,0.3795 -6.6066,0.8853 -1.0116,0.2845 -1.9281,0.6007 -2.7500,0.9168 l -0.0316,0.0316 -0.0316,0.0316 c 0,0.1897 -0.0316,0.3792 -0.0316,0.5688 0.0316,0.9167 0.6321,1.7073 1.5172,1.9918 0.2529,0.0632 0.5057,0.1262 0.7586,0.1262 0.4426,0.0316 0.8536,-0.1266 1.1381,-0.4111 l 0.1262,-0.1262 -0.1582,-0.0951 c -0.4426,-0.1897 -0.6951,-0.6635 -0.6635,-1.1377 0,-0.3161 0.0629,-0.6008 0.1578,-0.8853 v -0.0316 c 0.4109,1.1064 1.4224,1.7385 2.9398,1.7385 h 0.2849 l -0.1898,-0.2213 c -0.0948,-0.1581 -0.1267,-0.3161 -0.1267,-0.4742 0.0316,-0.3161 0.0949,-0.6004 0.2213,-0.8533 l 0.0316,-0.1267 c 0.3133,0.7205 0.9681,1.2549 1.7182,1.3875 0.5025,-0.1564 1.0363,-0.2826 1.6011,-0.5023 h 0.0316 v -0.0316 c 0.3477,-0.4109 0.5373,-0.9167 0.5373,-1.4541 0,-0.4426 -0.1263,-0.8850 -0.3475,-1.2644 l -0.0316,-0.0635 z m -1.6957,3.3158 c -0.0037,0.0012 -0.0075,0.0023 -0.0112,0.0035 h 0.0316 c -0.0068,-0.0011 -0.0135,-0.0023 -0.0203,-0.0035 z m 8.9347,-2.4306 c -0.2213,0.1897 -0.5057,0.4108 -0.7586,0.5688 l 7.9661,0.6639 z m -18.3657,1.5172 -0.1267,0.3480 c -0.2213,0.3161 -0.3160,0.7268 -0.3160,1.1061 0,0.1897 0.0314,0.3792 0.0947,0.5373 0.3477,0.6006 1.0430,0.9485 1.7701,0.8537 0.2213,0 0.4111,5.5000e-5 0.6324,-0.0316 l 0.1267,-0.0316 -0.0320,-0.1267 c 0,-0.0632 -0.0314,-0.0946 -0.0947,-0.1262 l -0.1262,-0.0320 c -1.2644,-0.3161 -1.7072,-1.5170 -1.8336,-2.1176 z m 11.1587,0.9484 c -1.2960,0.5058 -2.6555,0.7905 -4.0464,0.8537 -0.3161,0.0316 -0.6007,-3.7700e-4 -0.9168,-0.0320 l -0.0631,-0.0316 -0.0316,0.0951 c -0.1897,0.3477 -0.8852,1.0115 -2.3709,1.0115 -0.2529,0 -0.5057,-0.0315 -0.7586,-0.0631 h -0.0631 l -0.0320,0.0316 c -0.4109,0.3793 -0.9167,0.6003 -1.4857,0.6320 h -0.0316 l -0.1898,0.1267 -0.0316,0.0316 c -0.3477,1.2012 -0.7586,2.5607 -0.7586,2.5607 l -0.0316,0.0316 1.3279,1.6434 v 0.3795 c 0,1.7386 0.1262,3.5406 0.1262,3.5406 v 0.0316 c 0.6638,1.2961 2.8133,3.0979 4.6468,3.8881 0.6322,0.2529 1.2960,0.4110 1.9599,0.4742 0.8535,0.0316 1.7069,-0.1580 2.4656,-0.5057 0.0316,-0.0316 0.6007,-0.4745 0.6639,-1.7705 0.1264,-0.6006 0.3479,-1.2011 0.6008,-1.7701 0.2845,-0.7271 0.6004,-1.3910 0.6004,-1.3910 0.5374,-1.0432 0.9798,-2.1493 1.2959,-3.2873 v -0.3795 c 0,-0.3793 -0.0314,-0.7268 -0.1262,-1.1061 l -0.0316,-0.1267 -0.1267,0.0316 c -0.3793,0.1264 -1.1378,0.4425 -1.3275,0.5373 l -0.7586,-0.2209 c -0.0632,-0.5058 -0.1584,-0.9799 -0.2849,-1.4541 l 0.5377,0.1578 h 0.0316 c 0.9167,-0.2845 1.8019,-0.6955 2.6238,-1.2012 l -0.0320,-0.1262 0.1267,0.0316 c 0.0316,-0.1581 0.0316,-0.3477 0.0316,-0.5057 0,-0.1897 5.5000e-5,-0.4427 -0.0316,-0.6639 v -0.1262 l -0.0947,-0.0320 c -1.2012,-0.1581 -2.3394,-0.6005 -3.3193,-1.2644 l -0.0631,-0.0316 z m -14.2882,1.2328 -0.0316,0.1267 v 0.1578 c 0.0632,0.4742 0.3161,0.9168 0.7271,1.1697 0.3161,0.2845 0.7268,0.4741 1.1061,0.5057 h 0.0631 c 0.3161,-0.0316 0.5694,-0.1894 0.7590,-0.4106 l 0.1893,-0.2213 h -0.2529 c -0.9167,-0.0632 -1.7384,-0.5377 -2.2758,-1.2963 l -0.0316,-0.0316 h -0.0316 z m -4.4574,0.6008 -0.2213,0.1262 c 0,0 0.1584,0.3162 0.3164,0.6955 0.1581,0.3477 0.2843,0.7272 0.3791,1.1066 0.0316,0.1897 0.0316,0.4107 0.0316,0.6004 0,1.5805 -0.2527,5.4372 -1.5488,7.7132 -1.6754,3.0030 -5.3105,6.1640 -7.3968,6.1324 -0.3477,0 -0.6639,-0.0948 -0.9168,-0.2844 -0.8535,-0.6322 -1.1066,-2.0548 -1.1066,-3.3509 0,-0.6638 0.0318,-1.3591 0.1582,-2.0230 v -0.0316 l -1.0746,-2.1812 -0.1267,0.3160 c 0,0 -0.5057,1.4856 -0.7586,2.4971 -0.1897,0.6322 -0.3162,1.3594 -0.4111,1.8652 l -0.0631,-0.2213 c -0.1581,-0.6322 -0.2213,-1.2961 -0.2213,-1.9283 0,-0.3477 -5.5000e-5,-0.6638 0.0316,-1.0115 0.0632,-0.6006 0.2214,-1.1695 0.4426,-1.7385 L 54.3991,74.4377 c 0,-0.0632 0.0315,-0.0946 0.0631,-0.1262 l 0.0316,-0.0316 -1.1066,-2.1181 -0.1262,0.2213 c -0.5058,0.9167 -0.9167,1.9282 -1.2012,2.9713 -0.1581,0.7271 -0.2529,1.4541 -0.2213,2.1812 0,0.9483 0.0948,1.8968 0.2529,2.8451 v 0.0316 l 5.3107,5.0894 h 0.0316 c 0.3161,0.1264 0.6638,0.1578 1.0115,0.1578 1.1064,0 3.0662,-0.5055 5.8796,-3.0976 4.0778,-3.8249 4.6787,-7.9976 4.6787,-10.4632 0,-0.5374 5.5000e-5,-1.0117 -0.0316,-1.3910 -0.0316,-0.9799 -0.2846,-1.9285 -0.6955,-2.7820 z m 13.1505,1.2328 3.7931,0.7586 0.5057,-0.2213 -0.1262,0.4111 0.0947,2.5287 -0.6639,-0.3795 -0.1893,-1.1377 -1.1381,0.5057 -3.6353,-0.6955 0.6004,-0.6004 -1.0430,-0.2213 z m -7.5234,2.0861 c -0.2529,0.0316 -0.4743,0.1899 -0.6324,0.3795 -0.1581,0.2213 -0.2844,0.3791 -0.2844,0.3791 l -0.1582,0.2529 0.2844,-0.0316 c 0.1264,-0.0316 0.2531,-0.0316 0.3795,-0.0316 0.2213,0 0.4427,0.0318 0.6639,0.1267 0.3161,0.1897 0.5688,0.4106 0.8217,0.6635 0.2331,0.2914 0.4395,0.5024 0.4703,0.5088 2.3600e-4,2.5000e-5 0.0011,5e-6 0.0013,0 h 4.3200e-4 4.3200e-4 4.3300e-4 l 4.3200e-4,-4.3200e-4 4.3200e-4,-4.3200e-4 v -4.3200e-4 c 5.4000e-5,-1.8600e-4 4.0600e-4,-6.4900e-4 4.3200e-4,-8.6500e-4 v -4.3200e-4 l 0.2213,-0.1267 C 73.9662,71.4663 73.7134,70.9920 73.3341,70.5811 73.2076,70.3914 73.0176,70.2334 72.8279,70.0753 72.7015,69.9489 72.5438,69.8856 72.3542,69.8540 Z m 11.8853,3.4140 0.4742,0.3480 0.9484,-0.0316 -0.9164,0.9484 -1.3594,-0.9168 h 0.2844 z m 4.3308,2.0549 c -0.5374,0 -0.8848,0.0316 -0.8848,0.0316 h -0.0635 l -0.0316,0.0316 c -0.4109,0.6638 -0.6952,1.3909 -0.8848,2.1496 v 0.0316 1.6123 c -0.1264,1.5173 -0.8538,3.6037 -1.5177,5.3107 -0.6638,1.6754 -1.2959,2.9713 -1.2959,2.9713 l 0.2213,0.2529 c 1.5489,-1.7070 3.5087,-5.3740 4.1726,-6.7333 0,0.7903 -0.1263,1.5807 -0.3475,2.3394 -0.0948,0.3477 -0.1899,0.6954 -0.3480,1.0115 l 0.2213,0.1262 c 3.2875,-3.9514 3.5406,-7.4598 3.5406,-8.4714 v -0.4111 l -0.0951,-0.0316 c -0.8851,-0.1581 -1.8018,-0.2213 -2.6869,-0.2213 z m -4.5837,0.0947 0.4111,0.0631 0.4111,0.2529 0.5373,-0.3160 c 0.1264,0.0316 0.2846,0.0634 0.4111,0.1267 l -1.0115,0.4106 -2.0549,-0.2213 z m -13.5927,0.4742 c 0,0 -0.1896,0.9168 -0.5057,2.1181 -0.3161,1.2644 -0.7585,2.5287 -1.2959,3.7299 -1.1064,2.1812 -3.0979,4.8680 -6.7964,5.8796 l 0.0316,0.2849 0.1898,-0.0320 c 0.7271,-0.0316 3.7618,-0.0632 5.3107,-0.9799 1.4541,-0.8851 3.6037,-4.1725 3.6037,-8.3451 0,-0.8851 -0.0948,-1.7702 -0.2844,-2.6554 z m 22.1596,1.0750 -0.0316,0.1262 c -0.1897,1.2644 -0.5691,2.4973 -1.1381,3.6353 -0.1264,0.2845 -0.2845,0.6008 -0.5057,0.8537 l -0.2213,0.2844 0.1582,0.1898 4.4886,-4.3308 -0.1267,-0.0951 C 94.7343,77.4090 94.2605,77.2829 93.7863,77.2197 93.2173,77.1248 92.6797,76.9983 92.6797,76.9983 Z m -7.5550,0.0316 -0.0635,0.2529 -1.0430,0.1262 -0.1262,-0.2844 z m -10.5583,2.8767 c -0.3477,0.9483 -0.5057,1.9598 -0.5057,2.9713 -0.0632,1.4541 0.4426,2.8449 1.4226,3.9197 1.7702,1.8650 3.5087,2.1177 4.4570,2.0545 0.1897,0.0316 0.3476,5.6000e-5 0.5373,-0.0316 h 0.0320 c 2.5289,-0.9799 3.4140,-3.8881 3.4140,-3.9197 l 0.0947,-0.2529 -0.2213,0.1267 c -1.1380,0.4742 -2.3709,0.7586 -3.6037,0.7902 -1.0116,0 -2.0232,-0.2528 -2.8767,-0.7902 -0.9799,-0.5690 -1.6121,-1.7703 -1.9914,-2.8451 -0.2529,-0.6638 -0.4109,-1.3275 -0.5057,-2.0230 z m 6.2275,0.6635 -3.7619,2.3078 0.1267,0.1262 c 0.9799,0.8535 2.2126,1.3278 3.5086,1.3910 0.7271,0 1.4858,-0.2211 2.1181,-0.6004 l 0.0316,-0.0320 1.1381,-3.1291 -0.3164,0.1578 -0.0316,0.0316 c -0.2845,0.0948 -0.6323,0.1267 -0.9484,0.1267 -0.6322,0 -1.2326,-0.1267 -1.8332,-0.3480 z m -8.8513,6.6386 -0.1262,0.1262 c -0.3793,0.3477 -0.7903,0.6638 -1.2012,0.9799 -0.9799,0.6954 -2.0231,1.2015 -3.1611,1.5492 -0.9167,0.2529 -1.8337,0.4740 -2.7820,0.6004 -0.3161,0.0632 -0.6003,0.0947 -0.9164,0.0947 h -0.2849 l 0.1898,0.2213 c 0.9483,0.9799 1.9916,1.8966 3.0980,2.6869 v 0.0316 h 0.0316 c 0.7587,0.1897 1.5175,0.2849 2.3078,0.2849 1.5173,0 3.0343,-0.4110 4.3303,-1.2012 -0.7587,1.3909 -1.9595,2.4654 -3.3820,3.0660 l -0.2213,0.0951 0.2213,0.1262 c 0.5058,0.3477 0.8533,0.5693 0.8533,0.5693 l 0.0947,-0.0320 0.0320,-0.0316 c 4.3307,-1.8967 8.5034,-5.4054 8.5034,-5.4054 l 0.3791,-0.3160 -0.4742,0.0631 c -0.4109,0.0948 -0.8219,0.1267 -1.2328,0.1267 -1.7386,0.0316 -3.3823,-0.6010 -4.6783,-1.7390 -0.4109,-0.3793 -0.7904,-0.7902 -1.1381,-1.2328 -0.2529,-0.3161 -0.3791,-0.5373 -0.3791,-0.5373 z"
       sodipodi:nodetypes="cccccccccsccccccscccccccccccccscccccccsscccccccccccccccccccccccccsccccccccccscccccccccccccccsccsccccccccccccccccccccccccccccccccccccccsscccccscsscccccscccccccscccccccccccccccscccccscccccsccscccccscccsscccccccccccccccccccccccccccccccsccccccccscccccccccssccccscccccscccccccccccccccssssccccscccccscccccccscsccccccscccccccscccsssccccccccccccccccccccccccsccccccccccccscccccccccccccccccccccccccccccccscscccsscccccccccccccsccccccccccccccscccccccccccccccccscccscccccccccscscccssscccssccccccccccccccccccccccccccscccssccccccccccccccccscccssccccccccsccccccccccscccccssccccsccccccccccsccccccccccccccsccccccccscsccccccccscssccccccccccccccsccccccccccccsccccccccccccsccccccccsccccccccccccccccsccccccccccccccccccccccccccscccccscccccccccscccccccccccccsccccccccccccccsccccccccccscccccccccscccccccccccscccccccccccccccccccccccscccscccccccscccscccccccccscscccccccccccccccsccccscccscccccccccccsscccccccscccccccccccccsccsscccccccccccccccscccccccccccccccccccccccccccccccccccccccccscccccccscccccsccccccccccccccc" /><path
       id="XMLID_155_"
       class="st3"
       d="m 53.9880,53.1319 c -0.9167,0.3793 -2.8450,0.0316 -2.6553,-0.9799 0.7271,0.3477 1.5489,0.3477 2.2760,0.0316 0.7587,-0.2213 1.3277,-0.7903 1.5805,-1.5173 0.2845,0.3793 0.3161,0.8535 0.1264,1.2961 -0.3161,0.5374 -0.7587,0.9483 -1.3277,1.1696 z m 1.9599,4.2043 c -0.0632,-0.0948 -0.1581,-0.1264 -0.2845,-0.1264 -0.1897,-0.9799 -0.4426,-1.9283 -0.7271,-2.8766 l -1.2012,0.4742 1.2961,2.6237 c -0.0632,0.0948 -0.0948,0.1897 -0.0948,0.2845 0,0.1581 0.0632,0.3161 0.1581,0.4109 0.1264,0.1264 0.2529,0.1581 0.4109,0.1581 0.3161,0 0.5690,-0.2529 0.5690,-0.5690 0.0316,-0.1264 -0.0316,-0.2845 -0.1264,-0.3793 z M 50.5108,43.8067 c 0,0 1.6438,-1.9283 -0.2213,-3.1611 0.6006,0.3793 1.2644,0.5690 1.9599,0.5374 l 2.1812,8.9143 c -0.0632,0.2529 -0.1897,0.4742 -0.3793,0.6638 -0.2529,0.2529 -0.5690,0.4742 -0.9167,0.6006 -0.8219,0.3477 -1.9283,-0.0632 -1.9283,-0.0632 l -0.6006,-1.2644 c 0.6638,-0.3793 1.2012,-0.9799 1.4857,-1.6754 0.8851,-1.8650 -0.8851,-2.0863 -0.8851,-2.0863 0,0 1.1696,-2.1812 -0.6954,-2.4657 z m 8.9143,9.9891 c -1.2960,-2.4024 -2.7502,-4.7733 -4.2991,-7.0176 l -0.2845,1.0432 c 0.0316,0.0316 3.4772,4.3623 4.5836,5.9745 z m 31.8007,3.6985 c -0.3161,-0.0632 -0.6638,-0.1264 -1.0116,-0.1264 l 0.0316,0.5374 c 0.3477,0.0316 0.6638,0.0632 1.0116,0.1264 z m -6.9228,20.4523 0.7587,-0.1264 c 0.1897,0.4742 -0.0632,1.0116 -0.5374,1.1696 -0.0948,0.0316 -0.1897,0.0632 -0.2845,0.0632 0.3161,-0.2213 0.4109,-0.6638 0.1897,-0.9799 -0.0632,-0.0316 -0.0948,-0.0948 -0.1264,-0.1264 z m 5.3106,-1.7386 h 1.1064 c -0.1897,1.5805 -0.6638,3.0979 -1.4225,4.4888 -0.0316,0 1.0748,-2.2444 0.3161,-4.4888 z m -1.7386,-5.9745 0.0316,0.7271 -1.2012,0.1264 0.3161,-0.7903 z m -2.4024,-1.8018 0.7271,4.5204 -0.8851,0.1264 z M 60.7843,62.8681 c 1.4225,1.7070 2.5921,3.6353 3.4456,5.6900 0,0 0.3793,1.9283 0,3.0979 0,0.0316 -2.5605,-7.2073 -3.4456,-8.7879 z m -17.9550,-36.4475 0.5058,1.4541 1.3909,3.8249 1.5489,-3.8565 1.3277,0.5058 1.5805,-5.1210 1.1696,4.7733 1.6122,-3.0030 1.0116,0.8535 -0.0316,-0.1264 0.4109,-1.6754 c -0.0316,-1.2328 -0.0948,-2.4024 -0.0948,-3.6669 l -1.0116,3.3508 c 0,0 -2.6237,-1.1696 -3.9198,-1.8018 l -0.0316,0.1264 -1.6438,4.9945 c 0,0 -2.9398,-1.5173 -4.4255,-2.3076 v 0.0316 z m 10.8742,1.7386 c 0,0 -1.4857,4.2675 -7.8079,6.3222 0,0 -0.7271,1.5489 0.6638,2.0863 10.9690,-3.8565 9.7362,-10.0207 7.1441,-8.4085 z"
       style="display:inline;fill:#ffffff;stroke-width:0.3161" /></g><style
     type="text/css"
     id="style1">
	.st0{fill:#4891CE;}
	.st1{fill:#C7D9EA;}
	.st2{fill:#E3173E;}
	.st3{fill:#FFFFFF;}
</style><style
     type="text/css"
     id="style1-7">
	.st0{fill:#211646;}
	.st1{fill:#B3B2B1;}
	.st2{fill:#FFFFFF;}
	.st3{fill:#D35E13;}
</style></svg>
