<svg
  
  
   viewBox="0 0 140.3140 110.6577"
   version="1.1000"
   id="svg1"
   xml:space="preserve"
   sodipodi:docname="group-team-logo-doc.svg"
   inkscape:version="1.4000.2 (2aeb623e1d, 2025-05-12)"
   xmlns:inkscape="http://www.inkscape.org/namespaces/inkscape"
   xmlns:sodipodi="http://sodipodi.sourceforge.net/DTD/sodipodi-0.dtd"
   xmlns="http://www.w3.org/2000/svg"
   xmlns:svg="http://www.w3.org/2000/svg"><sodipodi:namedview
     id="namedview1"
     pagecolor="#ffffff"
     bordercolor="#000000"
     borderopacity="0.2500"
     inkscape:showpageshadow="2"
     inkscape:pageopacity="0.0000"
     inkscape:pagecheckerboard="0"
     inkscape:deskcolor="#d1d1d1"
     inkscape:document-units="px"
     inkscape:zoom="0.1716"
     inkscape:cx="2115.9032"
     inkscape:cy="982.1754"
     inkscape:window-width="1854"
     inkscape:window-height="1011"
     inkscape:window-x="0"
     inkscape:window-y="0"
     inkscape:window-maximized="1"
     inkscape:current-layer="layer2"
     showgrid="false"><inkscape:page
       x="0"
       y="0"
      
      
       id="page1"
       margin="0"
       bleed="0" /><inkscape:page
       x="167.8059"
       y="0"
      
      
       id="page2"
       margin="0"
       bleed="0" /><inkscape:page
       x="318.1199"
       y="0"
      
      
       id="page178"
       margin="0"
       bleed="0" /><inkscape:page
       x="468.4339"
       y="0"
      
      
       id="page179"
       margin="0"
       bleed="0" /><inkscape:page
       x="618.7479"
       y="0"
      
      
       id="page3"
       margin="0"
       bleed="0" /><inkscape:page
       x="168.0046"
       y="126.4858"
      
      
       id="page4"
       margin="0"
       bleed="0" /><inkscape:page
       x="769.0619"
       y="0"
      
      
       id="page5"
       margin="0"
       bleed="0" /><inkscape:grid
       id="grid5"
       units="px"
       originx="0"
       originy="0"
       spacingx="0.2213"
       spacingy="0.2213"
       empcolor="#0099e5"
       empopacity="0.3020"
       color="#0099e5"
       opacity="0.1490"
       empspacing="5"
       enabled="true"
       visible="false" /><inkscape:page
       x="919.3759"
       y="0"
      
      
       id="page6"
       margin="0"
       bleed="0" /><inkscape:page
       x="1069.6899"
       y="0"
      
      
       id="page7"
       margin="0"
       bleed="0" /></sodipodi:namedview><defs
     id="defs1"></defs><g
     inkscape:label="Layer 1"
     inkscape:groupmode="layer"
     id="layer1" /><g
     inkscape:groupmode="layer"
     id="layer2"
     inkscape:label="Layer 3"><path
       id="XMLID_5_"
       class="st0"
       d="m 18.8529,63.2188 c -3.6861,-3.8741 -6.1309,-8.7638 -7.0336,-14.0672 -2.6329,-15.0076 7.4098,-29.3005 22.3797,-31.8958 h 0.0376 c 1.5797,-0.3009 3.1971,-0.4137 4.8145,-0.4137 -2.1816,-0.1505 -4.3631,0 -6.5070,0.3761 -15.6846,2.7457 -26.1786,17.7157 -23.4329,33.4003 0.8651,4.8897 2.9714,9.4785 6.0933,13.3526 1.6926,-0.3009 2.9338,-0.5642 2.9338,-0.5642 0.2633,-0.1128 0.4890,-0.1505 0.7147,-0.1881 z m 112.5756,-4.7768 -1.0532,0.2633 -1.4293,0.2257 c -0.6770,1.9559 -2.0687,3.3099 -2.1439,5.7172 -1.6174,1.7678 -3.6861,3.0467 -5.9805,3.6861 -2.4072,0.6018 -3.9870,-0.0376 -4.8521,-0.7146 -1.2412,-1.0155 -1.9183,-2.5577 -1.8430,-4.1374 v -0.5266 l -3.8741,1.0532 c -2.3696,0.6394 -3.1595,0.0376 -3.7237,-0.6018 -0.9779,1.6550 -2.9338,2.3696 -4.3255,2.7081 l -7.7483,2.0687 c -0.8275,0.2633 -1.6926,0.3009 -2.5201,0.1128 -0.7523,0.5266 -1.5797,0.9403 -2.4825,1.2036 l -27.0061,7.0712 c -1.8430,0.5266 -3.0090,0.1505 -3.8365,-0.5642 -0.9403,1.6174 -2.9714,2.3696 -4.9649,2.8586 l -21.9284,5.7924 c -0.7523,0.2257 -2.8962,0.9027 -4.4007,-0.7146 l -0.5642,0.7899 c -1.3164,1.8430 -3.0467,2.4448 -4.9273,2.7081 -1.3541,0.3009 -2.7834,-0.1881 -3.6861,-1.2412 -0.1128,-0.1505 -0.5266,0.4890 -0.5266,0.4890 -1.1660,1.4293 -2.7834,2.4448 -4.5888,2.9338 l -2.8210,0.7146 -4.4759,1.2412 1.4293,-4.4383 5.0025,-16.0231 -6.8832,-4.3631 -2.0687,2.4825 6.6575,4.1750 -5.1154,16.0607 -1.4293,4.4007 4.4759,-1.1660 2.8210,-0.7523 c 1.9935,-0.6018 3.8365,-1.6926 5.3034,-3.1595 0.9403,0.9027 2.2192,1.2788 3.4980,1.0155 1.9183,-0.2633 4.5888,-1.3541 5.9428,-3.1971 1.4669,0.9403 3.3099,0.6018 3.9870,0.4137 l 21.8908,-5.7548 c 1.9559,-0.5266 4.7392,-0.9027 5.6796,-2.4448 v -0.0376 c 1.3164,0.5266 1.7678,0.3761 3.1219,0.1505 l 27.0061,-7.1089 c 0.9027,-0.2257 1.7302,-0.6394 2.4825,-1.2036 0.8275,0.2257 1.7302,0.1881 2.5201,-0.1128 l 7.7483,-2.0311 c 1.4293,-0.3761 3.6485,-0.7146 4.6264,-2.3696 0.8651,0.3761 1.4669,0.6394 3.4228,0.2257 l 3.9118,-1.0532 c 0,0 -0.0376,0.3385 -0.0376,0.5266 -0.0752,1.6174 0.6018,3.1219 1.8430,4.1374 0.9027,0.6770 2.4072,1.2412 4.8521,0.6770 4.6264,-1.0155 8.3877,-4.3631 10.5316,-8.9519 l 0.1881,-0.3385 0.4514,-0.7523 c 2.5577,-0.8651 6.3190,-2.8586 7.5978,-6.9584 -0.5642,1.8806 -2.7458,4.0246 -5.7548,4.8145 z"
       style="display:inline;fill:#201645;fill-opacity:1;stroke-width:0.3761" /><path
       id="XMLID_8_"
       style="display:inline;fill:#b2b3b3;fill-opacity:1;stroke-width:0.3761"
       class="st1"
       d="m 38.0355,16.8420 c -1.2788,0.0376 -2.5203,0.1880 -3.7615,0.4137 -15.0076,2.6329 -25.0502,16.8882 -22.4173,31.8958 0.8651,5.0025 3.1220,9.6667 6.4696,13.5033 0.3761,-0.0752 0.7521,-0.1880 1.1282,-0.3009 -3.2347,-3.7989 -5.4160,-8.3879 -6.2811,-13.2776 -2.6329,-14.9700 7.3721,-29.2629 22.3421,-31.8958 h 0.0752 c 0.8275,-0.1505 1.6174,-0.2632 2.4448,-0.3385 z m 99.1856,36.7479 c -0.9027,1.8806 -2.5202,3.2349 -4.4760,3.7991 l -2.1064,0.5265 -0.0376,0.2632 -0.1880,0.4889 1.0154,-0.2632 c 3.0090,-0.7899 5.2285,-2.9338 5.7927,-4.8145 z m -21.7780,8.3123 -3.9119,1.0534 c -2.3320,0.6018 -3.5734,-0.1507 -4.1376,-0.7902 -0.8651,1.4669 -2.2941,2.4828 -3.9115,2.9342 l -7.7482,2.0307 c -0.8275,0.3009 -1.6926,0.3389 -2.5201,0.1133 -0.7523,0.5642 -1.5797,0.9777 -2.4825,1.2034 l -27.0061,7.1089 c -2.3696,0.6018 -3.6862,-0.3384 -4.2880,-0.9402 -1.0155,1.6550 -2.6706,2.8208 -4.5512,3.2722 l -21.9284,5.8298 c -0.7523,0.1881 -3.1595,0.6020 -4.6640,-1.0154 l -0.6017,0.7897 c -0.1505,0.1881 -0.2632,0.3760 -0.4137,0.5641 1.5045,1.6174 3.6105,0.9030 4.4004,0.7150 l 21.9284,-5.7551 c 1.9559,-0.5642 3.9870,-1.3164 4.9649,-2.8585 0.7899,0.6770 1.9561,1.0531 3.8367,0.5265 l 27.0061,-7.0709 c 0.9027,-0.2633 1.7302,-0.6773 2.4825,-1.2038 0.8275,0.1881 1.6926,0.1505 2.5200,-0.1128 l 7.7482,-2.0688 c 1.4293,-0.3761 3.3477,-1.1283 4.3256,-2.7457 0.6018,0.6018 1.4291,1.2035 3.7235,0.6017 l 3.8743,-1.0530 c -0.0376,0.1881 -0.0376,0.3384 -0.0376,0.5265 -0.0752,1.6174 0.6395,3.1596 1.8807,4.1376 0.9027,0.6770 2.4072,1.3163 4.8521,0.7145 2.3320,-0.6018 4.4005,-1.8804 5.9803,-3.6859 v -0.0380 c -1.2788,1.2788 -2.8962,2.2196 -4.6264,2.6333 -2.4072,0.5642 -3.9870,-0.0755 -4.8897,-0.7526 -1.2412,-1.0155 -1.9179,-2.5574 -1.8427,-4.1371 0,-0.1881 10e-6,-0.3389 0.0376,-0.5269 z m -109.1906,3.6487 -0.7884,0.9778 -0.1517,0.1880 6.8832,4.4008 -5.1534,16.0233 -1.4290,4.4004 4.4760,-1.1658 2.8209,-0.7521 c 1.8016,-0.4504 3.3784,-1.4626 4.5811,-2.8870 -0.8950,0.9148 -2.0067,1.5377 -3.2272,1.8336 l -2.8209,0.7902 -4.4760,1.1658 1.4295,-4.4384 5.1153,-16.0229 z M 17.4912,86.7362 c 0.0152,-0.0155 0.0303,-0.0314 0.0454,-0.0471 l -0.0376,0.0376 c -0.0030,0.0030 -0.0050,0.0065 -0.0080,0.0095 z m 9.5239,-2.4920 c -0.9779,1.2036 -2.4074,1.9935 -3.9495,2.1440 -2.0687,0.3385 -3.1597,-0.6016 -3.6487,-1.2410 -0.1505,-0.1505 -0.2632,-0.3384 -0.3384,-0.5265 l -0.7145,1.0530 c -0.0752,0.1881 -0.2256,0.3760 -0.3761,0.5265 l 0.0752,0.0376 c 0.4890,0.6018 1.6171,1.5423 3.6482,1.2414 1.9183,-0.2633 3.5732,-0.9027 4.9273,-2.7081 z" /><path
       id="XMLID_14_-3"
       style="display:inline;stroke-width:0.3761"
       d="m 41.1278,16.7945 c -1.8333,-0.0463 -3.6989,0.0898 -5.5748,0.4236 -15.0076,2.6705 -24.9750,17.0010 -22.3044,32.0086 0.8651,4.8521 3.0092,9.3659 6.2063,13.1272 -0.7523,0.1881 -13.1648,3.2346 -13.1648,3.2346 l 7.2593,4.5136 -5.1529,16.0605 -1.3919,4.4384 4.4760,-1.1658 2.8209,-0.7526 c 1.6926,-0.4137 3.1220,-1.4292 4.0999,-2.8961 l 0.7145,-1.0530 c 0.0752,0.1881 0.1880,0.3760 0.3009,0.5265 0.4890,0.6018 1.6176,1.5419 3.6863,1.2410 1.9183,-0.2633 3.3100,-1.1659 4.6264,-2.9713 l 0.6017,-0.7897 c 1.5045,1.6174 3.9118,1.2034 4.6640,0.9778 l 21.9284,-5.7546 c 1.8806,-0.4514 3.5357,-1.6548 4.5512,-3.2722 0.6018,0.6394 1.9184,1.5420 4.2504,0.9402 l 27.0061,-7.1089 c 0.9027,-0.2257 1.7302,-0.6392 2.4825,-1.2034 0.8275,0.2257 1.7302,0.1881 2.5201,-0.1128 l 7.7482,-2.0312 c 1.6550,-0.4137 3.0464,-1.4673 3.9115,-2.9342 0.6018,0.6018 1.8432,1.3544 4.1752,0.7902 l 3.8743,-1.0534 v 0.5269 c -0.0752,1.5797 0.6391,3.1216 1.8427,4.1371 0.9027,0.6770 2.4072,1.3168 4.8521,0.7150 4.7016,-1.2412 6.9586,-5.0403 8.4632,-9.1025 l 0.0376,-0.2632 2.1064,-0.5641 c 2.3320,-0.6770 4.1750,-2.4825 4.8897,-4.8145 l 1.1658,-4.2880 -5.5666,1.3914 2.5953,-7.9362 -20.4989,5.4162 -3.1974,0.8654 1.1286,-3.7239 -4.4384,1.1662 -2.2568,0.6017 c -1.0908,0.3009 -2.1814,0.7520 -3.1218,1.3162 l 1.4667,-3.5730 -38.7034,10.1930 c 1.7678,-4.6264 2.2189,-9.6290 1.3538,-14.5186 -2.3367,-13.1316 -13.6004,-22.4041 -26.4338,-22.7281 z m 91.5420,28.3703 -2.5953,7.9362 5.7922,-1.5423 c -0.4513,1.4669 -1.6172,2.5952 -3.0842,3.0465 l -3.4230,0.9030 c -1.2788,3.9494 -3.0843,7.9360 -7.1841,9.0268 -2.4825,0.6394 -3.5354,-0.6770 -3.5354,-2.4072 0.0376,-1.5797 0.6772,-3.0840 1.7679,-4.2123 l -1.0534,0.2632 -7.7482,2.0688 c -1.8054,0.4514 -2.4449,-0.5266 -1.9560,-2.2192 l 1.5799,-4.9273 -2.9337,0.7897 -1.7679,5.4914 c -0.3761,1.4669 -1.5044,2.6332 -2.9337,3.0470 l -7.7858,2.0307 c -1.1284,0.3009 -2.0688,0.1506 -2.0688,-0.7521 -0.7146,1.0155 -1.7677,1.7303 -2.9337,2.0688 l -1.6175,0.4513 -0.8649,0.1880 -10.0430,2.6329 -1.8427,0.4889 -12.6379,3.3478 c -1.8054,0.4890 -2.4825,-0.5266 -1.9560,-2.1816 l 1.5795,-4.9649 -2.9337,0.7897 -1.9560,5.5670 c -0.4514,1.6174 -2.0309,2.7832 -3.4978,3.1594 l -8.1619,2.1816 -0.6021,0.1504 -13.1644,3.4602 c -2.6705,0.6770 -2.6330,-0.4890 -2.0688,-2.0688 l 2.3320,-6.6572 -6.9209,9.4405 c -0.9403,1.3165 -1.8053,1.8431 -2.9713,1.9936 -1.6926,0.2633 -1.8052,-1.0908 -1.3162,-2.4072 l 3.4226,-9.8170 -8.6131,12.6755 c -0.6018,0.8651 -1.5049,1.5046 -2.5205,1.7303 l -2.8209,0.7521 5.7175,-17.7908 -4.1000,-2.4072 7.7482,-1.9184 c 1.3541,-0.3385 2.4450,-0.2256 1.6551,2.2944 l -2.9713,9.4409 6.0179,-8.3875 c 1.2036,-1.7678 1.9936,-2.8964 4.4008,-3.5359 0.3009,-0.1128 2.5198,-0.3005 1.4290,2.8213 l -2.7457,7.7482 5.3790,-6.8457 c 1.3165,-1.6174 1.6172,-2.1815 3.3850,-2.5953 0.3385,-0.0752 2.7083,-0.2634 1.6175,2.8585 l -3.3478,9.6666 4.2504,-1.1286 c -0.3385,-0.5266 -0.5265,-1.1281 -0.5641,-1.7299 0,-3.7989 3.8366,-6.3942 7.0713,-7.2593 l 2.0307,-0.5641 c 1.7678,-0.4514 4.8521,-0.7525 5.0025,1.4290 -0.0376,1.1284 -0.5639,2.1815 -1.4290,2.8585 l -2.1816,0.6021 v -0.0376 l -4.8897,1.2410 0.2256,-0.6769 2.4825,-0.6017 1.2414,-2.7085 -2.9342,0.7526 -1.3914,3.7235 c -0.4514,1.5045 0.8652,1.3919 1.7303,1.1662 l 4.0995,-1.0534 5.0025,-1.3162 1.8055,-5.5290 h -0.2632 c -0.9779,-0.0752 -1.7303,-0.9404 -1.6551,-1.9184 0,-2.3320 2.5577,-3.8366 4.4760,-4.3632 l 2.2568,-0.6017 -1.1662,3.7235 7.7110,-2.0688 -2.5201,7.9743 4.4380,-1.1662 c -0.3761,-0.6018 -0.5265,-1.3165 -0.4137,-2.0312 0.4137,-3.6108 4.0622,-6.1686 7.4097,-7.0713 l 3.5359,-0.9402 c 1.5421,-0.4137 2.8585,0.4138 2.8585,1.8431 0,1.4669 -1.2788,3.0089 -2.8585,3.3850 -1.5797,0.4514 -2.8585,-0.4138 -2.8209,-1.8807 v -0.3385 l -1.6927,0.4137 -1.0910,3.3478 c -0.4890,1.4669 0.3010,1.8428 1.8055,1.4666 l 3.8367,-1.0154 4.6264,-1.2034 c 0,-0.3009 0.0752,-0.6021 0.1880,-0.9030 l 2.3696,-7.0713 5.0401,-1.3162 -2.5953,7.9362 1.6171,-0.4137 1.2414,-0.3385 2.5953,-7.8991 5.0025,-1.3162 -2.5201,7.9362 4.6640,-1.2034 1.8431,-5.5294 h -0.2637 c -1.0155,-0.0752 -1.7675,-0.9400 -1.6923,-1.9179 0,-2.3320 2.5202,-3.8366 4.4760,-4.4008 l 2.2564,-0.6017 -1.1658,3.7235 7.7106,-2.0688 -2.5577,7.9362 4.2880,-1.1658 c -0.0752,0 -0.1504,-0.0376 -0.2256,-0.0376 -0.4513,-0.1128 -0.7526,-0.6016 -0.6397,-1.0530 l 2.2192,-6.5448 5.0777,-1.3167 -2.5953,7.9367 1.7303,-0.4517 1.1286,-0.2632 2.5953,-7.9362 z m -36.4799,2.5343 c 0.0368,-6.9800e-4 0.0727,1.9700e-4 0.1076,0.0026 0.0350,0.0024 0.0689,0.0062 0.1020,0.0117 0.0661,0.0109 0.1282,0.0279 0.1859,0.0506 0.0577,0.0227 0.1109,0.0511 0.1591,0.0852 0.0723,0.0511 0.1335,0.1151 0.1815,0.1906 0.0160,0.0252 0.0306,0.0513 0.0437,0.0791 0.0131,0.0278 0.0246,0.0570 0.0346,0.0873 0.0100,0.0303 0.0183,0.0619 0.0251,0.0947 0.0070,0.0328 0.0121,0.0668 0.0156,0.1020 0.0030,0.0352 0.0050,0.0717 0.0050,0.1094 -0.0090,0.0799 -0.0240,0.1576 -0.0437,0.2326 -0.0394,0.1499 -0.0989,0.2890 -0.1759,0.4154 -0.0385,0.0632 -0.0814,0.1230 -0.1284,0.1794 -0.0470,0.0564 -0.0981,0.1096 -0.1530,0.1586 -0.1099,0.0982 -0.2349,0.1807 -0.3730,0.2460 -0.0691,0.0326 -0.1413,0.0608 -0.2166,0.0843 -0.0282,0 -0.0541,0.0027 -0.0782,0.0056 -0.0362,0.0044 -0.0684,0.0101 -0.0986,0.0112 -0.0302,0.0011 -0.0582,-0.0028 -0.0864,-0.0169 -0.1128,0 -0.2211,-0.0209 -0.3199,-0.0597 -0.0494,-0.0194 -0.0964,-0.0431 -0.1405,-0.0709 -0.0661,-0.0416 -0.1255,-0.0924 -0.1764,-0.1504 -0.0170,-0.0193 -0.0330,-0.0396 -0.0480,-0.0605 -0.0300,-0.0419 -0.0558,-0.0868 -0.0769,-0.1344 -0.0106,-0.0238 -0.0204,-0.0484 -0.0285,-0.0735 -0.0163,-0.0501 -0.0275,-0.1024 -0.0333,-0.1569 -0.0030,-0.0273 -0.0040,-0.0552 -0.0040,-0.0834 0.0090,-0.0752 0.0244,-0.1494 0.0441,-0.2217 0.0197,-0.0724 0.0441,-0.1429 0.0735,-0.2114 0.0294,-0.0685 0.0635,-0.1349 0.1020,-0.1984 0.0385,-0.0635 0.0814,-0.1244 0.1284,-0.1820 0.0470,-0.0576 0.0981,-0.1119 0.1530,-0.1625 0.1099,-0.1012 0.2354,-0.1875 0.3735,-0.2546 0.0691,-0.0336 0.1413,-0.0621 0.2166,-0.0856 0.0799,-0.0141 0.1569,-0.0220 0.2304,-0.0233 z m 5.5994,1.3020 -1.5047,1.6927 1.0158,1.4290 -1.6551,0.4141 -0.4889,-0.6773 -1.0906,1.1286 -1.0158,0.2632 c -0.0090,0 -0.0233,-1.5600e-4 -0.0398,4.3200e-4 -0.0329,0.0012 -0.0752,0.0050 -0.1081,0.0156 -0.0144,0.0046 -0.0271,0.0104 -0.0363,0.0182 -10e-4,0.0011 -0.0030,0.0023 -0.0040,0.0035 l -2.0688,0.5265 -0.1504,0.0376 -3.0089,0.7521 c -0.1316,0.0282 -0.2376,0.0379 -0.3199,0.0285 -0.0308,-0.0035 -0.0582,-0.0098 -0.0826,-0.0186 -0.0080,-0.0029 -0.0159,-0.0064 -0.0233,-0.0099 -0.0070,-0.0035 -0.0145,-0.0071 -0.0212,-0.0112 -0.0740,-0.0452 -0.1065,-0.1261 -0.1033,-0.2425 10e-4,-0.0423 0.0070,-0.0892 0.0173,-0.1409 0.0103,-0.0517 0.0253,-0.1083 0.0441,-0.1694 l 0.3385,-1.0154 -1.4295,1.6547 c -0.1128,0.1316 -0.2349,0.2449 -0.3665,0.3389 -0.0658,0.0470 -0.1339,0.0890 -0.2045,0.1267 -0.0705,0.0376 -0.1435,0.0708 -0.2187,0.0990 l -0.7521,0.1880 -2.7081,0.7521 c -0.3620,0.0987 -0.7891,0.1830 -1.1515,0.1522 -0.1295,-0.0110 -0.2507,-0.0367 -0.3579,-0.0817 -0.0429,-0.0180 -0.0835,-0.0391 -0.1215,-0.0635 -0.0380,-0.0245 -0.0731,-0.0523 -0.1055,-0.0839 -0.0323,-0.0315 -0.0618,-0.0668 -0.0878,-0.1059 -0.0389,-0.0587 -0.0701,-0.1265 -0.0925,-0.2040 -0.0070,-0.0259 -0.0140,-0.0527 -0.0195,-0.0808 -0.0164,-0.0843 -0.0234,-0.1786 -0.0199,-0.2844 0,-0.1552 0.0209,-0.3052 0.0592,-0.4478 0.0128,-0.0475 0.0276,-0.0942 0.0441,-0.1401 0.0658,-0.1834 0.1599,-0.3527 0.2728,-0.5031 -0.0376,0 -1.8032,0.4882 -1.8055,0.4889 0.0940,0.0940 0.1600,0.2071 0.2023,0.3294 0.0106,0.0306 0.0195,0.0618 0.0272,0.0934 0.0080,0.0316 0.0140,0.0636 0.0190,0.0960 0.0100,0.0646 0.0147,0.1304 0.0147,0.1962 -0.0090,0.1269 -0.0297,0.2495 -0.0605,0.3679 -0.0154,0.0592 -0.0336,0.1173 -0.0540,0.1742 -0.0205,0.0569 -0.0435,0.1128 -0.0687,0.1673 -0.1011,0.2180 -0.2397,0.4167 -0.4089,0.5931 -0.0846,0.0882 -0.1772,0.1706 -0.2762,0.2473 -0.0990,0.0766 -0.2047,0.1475 -0.3164,0.2118 -0.2233,0.1287 -0.4702,0.2321 -0.7335,0.3073 -0.3526,0.0987 -0.6467,0.1391 -0.8909,0.1314 -0.1221,-0.0039 -0.2319,-0.0199 -0.3298,-0.0467 -0.0980,-0.0267 -0.1844,-0.0644 -0.2602,-0.1115 -0.0253,-0.0157 -0.0492,-0.0323 -0.0722,-0.0501 -0.0689,-0.0534 -0.1274,-0.1158 -0.1768,-0.1863 -0.0564,0.1693 -0.1393,0.3170 -0.2447,0.4439 -0.1405,0.1693 -0.3211,0.3010 -0.5321,0.3951 -0.0527,0.0235 -0.1074,0.0447 -0.1638,0.0635 l -1.7299,0.4513 c -0.1164,0.0212 -0.2092,0.0213 -0.2788,0 -0.0541,-0.0166 -0.0943,-0.0463 -0.1210,-0.0895 -0.0229,-0.0370 -0.0360,-0.0838 -0.0393,-0.1409 -0.0060,-0.0952 0.0161,-0.2185 0.0631,-0.3713 l 0.3385,-1.0158 -1.5423,1.7679 c -0.0470,0.0470 -0.0942,0.0918 -0.1418,0.1336 -0.1190,0.1043 -0.2414,0.1901 -0.3769,0.2485 -0.0271,0.0117 -0.0548,0.0221 -0.0830,0.0316 l -0.8654,0.2256 1.8431,-5.6794 1.4295,-0.3761 -1.2791,4.0247 1.1662,-1.4295 c 0.0329,-0.0423 0.0682,-0.0834 0.1055,-0.1232 0.1866,-0.1991 0.4246,-0.3652 0.6774,-0.4798 0.0505,-0.0229 0.1016,-0.0436 0.1530,-0.0622 0.0514,-0.0187 0.1030,-0.0352 0.1547,-0.0493 0.0050,-0.0024 0.0111,-0.0048 0.0190,-0.0069 0.0158,-0.0043 0.0376,-0.0080 0.0627,-0.0091 0.0126,-5.3300e-4 0.0263,-4.4900e-4 0.0402,4.3200e-4 0.0349,0.0022 0.0732,0.0096 0.1102,0.0251 0.0148,0.0062 0.0291,0.0135 0.0432,0.0225 0.0070,0.0045 0.0140,0.0094 0.0207,0.0147 0.0070,0.0053 0.0135,0.0112 0.0199,0.0173 0.0128,0.0122 0.0246,0.0261 0.0354,0.0419 0.0050,0.0079 0.0107,0.0166 0.0156,0.0255 0.0100,0.0179 0.0183,0.0376 0.0251,0.0597 0.0070,0.0221 0.0118,0.0463 0.0151,0.0731 0.0030,0.0267 0.0050,0.0560 0.0040,0.0877 -6.7000e-4,0.0318 -0.0030,0.0665 -0.0090,0.1037 -0.0106,0.0745 -0.0315,0.1602 -0.0644,0.2589 -9e-5,3.0100e-4 -0.4137,1.3166 -0.5641,1.6927 l 1.5799,-0.4141 c -0.0282,-0.0658 -0.0516,-0.1313 -0.0705,-0.1971 -0.0188,-0.0658 -0.0330,-0.1317 -0.0424,-0.1975 -0.0090,-0.0658 -0.0143,-0.1317 -0.0143,-0.1975 0,-0.0658 0.0050,-0.1317 0.0143,-0.1975 0.0564,-0.2445 0.1502,-0.4771 0.2753,-0.6916 0.1252,-0.2145 0.2815,-0.4106 0.4625,-0.5823 0.1810,-0.1716 0.3869,-0.3186 0.6108,-0.4344 0.1120,-0.0579 0.2286,-0.1081 0.3488,-0.1496 0.1203,-0.0415 0.2439,-0.0746 0.3709,-0.0981 h 4.3000e-4 l 5.5666,-1.4666 c 0.1316,-0.0376 0.2843,-0.0706 0.4400,-0.0882 0.1557,-0.0176 0.3144,-0.0200 0.4578,0.0035 0.1613,0.0265 0.3036,0.0858 0.4003,0.1928 0.0215,0.0238 0.0408,0.0496 0.0575,0.0782 0.0335,0.0573 0.0568,0.1248 0.0679,0.2036 0.0030,0.0197 0.0040,0.0402 0.0060,0.0614 0,0.0423 -0.0020,0.0846 -0.0070,0.1267 -0.0050,0.0421 -0.0116,0.0839 -0.0208,0.1254 -0.0090,0.0414 -0.0203,0.0824 -0.0337,0.1228 -0.0134,0.0403 -0.0290,0.0801 -0.0467,0.1189 -0.0353,0.0776 -0.0786,0.1517 -0.1297,0.2205 -0.0256,0.0344 -0.0532,0.0675 -0.0826,0.0990 -0.0293,0.0315 -0.0605,0.0613 -0.0934,0.0895 l -2.0312,0.4893 -0.0376,0.1504 c -0.0070,0.0306 -0.0123,0.0588 -0.0160,0.0852 -0.0040,0.0263 -0.0060,0.0503 -0.0060,0.0726 -5.2000e-4,0.0223 6.5000e-4,0.0427 0.0030,0.0614 0.0050,0.0373 0.0147,0.0677 0.0294,0.0921 0.0040,0.0061 0.0080,0.0119 0.0121,0.0173 0.0127,0.0161 0.0275,0.0290 0.0445,0.0393 0.0060,0.0035 0.0116,0.0066 0.0177,0.0095 0.0060,0.0029 0.0126,0.0054 0.0190,0.0078 0.1034,0.0376 0.2539,0.0097 0.3856,-0.0091 l 2.8209,-0.7526 0.7897,-2.4825 1.4671,-0.3761 -0.4893,1.5047 1.2414,-1.4295 c 0.0752,-0.0752 0.1575,-0.1478 0.2451,-0.2166 0.1751,-0.1375 0.3716,-0.2588 0.5749,-0.3493 0.1017,-0.0452 0.2048,-0.0829 0.3082,-0.1111 0.0188,-0.0047 0.0375,-0.0082 0.0553,-0.0108 0.0447,-0.0065 0.0860,-0.0065 0.1236,8.6500e-4 0.0080,0.0015 0.0148,0.0031 0.0220,0.0052 0.0070,0.0021 0.0143,0.0043 0.0212,0.0069 0.0070,0.0026 0.0138,0.0058 0.0203,0.0091 0.0070,0.0033 0.0129,0.0069 0.0190,0.0108 0.0123,0.0077 0.0238,0.0166 0.0346,0.0268 0.0161,0.0153 0.0304,0.0333 0.0428,0.0545 0.0080,0.0141 0.0152,0.0295 0.0216,0.0462 0.0060,0.0168 0.0119,0.0349 0.0164,0.0545 0.0040,0.0195 0.0080,0.0407 0.0104,0.0631 0.0070,0.0671 0.0050,0.1469 -0.0080,0.2408 -0.0090,0.0626 -0.0218,0.1314 -0.0406,0.2066 l -0.5645,1.6927 1.5799,-0.3761 0.0376,-0.1504 0.7145,-2.2944 1.4671,-0.3761 -0.7897,2.4448 1.9555,-0.4893 1.0910,-1.1282 -0.9030,-1.1658 1.6551,-0.4517 0.3385,0.4517 0.7149,-0.7526 z m -29.0373,4.6264 c 0.5642,0 0.9406,0.1879 0.9406,0.9026 v 0.0376 c -0.0376,1.8806 -3.0091,3.6486 -4.2880,4.2504 l -0.0376,0.0376 -0.5265,1.6551 -1.3167,0.3761 1.7303,-5.4538 -1.3543,-0.6021 3.8367,-1.0154 c 0.3385,-0.0752 0.6768,-0.1504 1.0154,-0.1880 z m 13.8793,0.0752 -0.8649,0.2256 -0.1885,0.6393 0.7526,-0.1880 z m -15.0075,1.1658 c -0.2257,0.0376 -0.4136,0.0756 -0.6017,0.1133 l -0.4141,0.1128 -0.9778,3.0842 0.1504,-0.0752 c 0.7147,-0.3761 2.2568,-1.3540 2.3320,-2.5953 v -0.1128 c 0.0376,-0.1505 -0.0376,-0.3008 -0.1504,-0.4137 -0.0752,-0.1128 -0.1880,-0.1133 -0.3385,-0.1133 z m 9.9298,0.2261 -0.9406,0.2256 -0.3761,1.2034 c -0.0176,0.0669 -0.0251,0.1243 -0.0246,0.1733 3.2000e-4,0.0327 0.0040,0.0617 0.0112,0.0873 0.0040,0.0128 0.0080,0.0247 0.0130,0.0359 0.0030,0.0056 0.0050,0.0108 0.0080,0.0160 0.0030,0.0052 0.0060,0.0103 0.0090,0.0151 0.0129,0.0192 0.0286,0.0353 0.0462,0.0488 0.0090,0.0068 0.0178,0.0131 0.0277,0.0186 0.0295,0.0165 0.0632,0.0275 0.0994,0.0341 0.2296,0.0421 0.5614,-0.0904 0.5624,-0.0908 z m 43.5183,2.0307 c -1.2788,0.3009 -2.4825,2.4450 -2.4825,3.7615 -0.0376,0.5642 0.3008,1.0529 0.7897,1.2786 z" /><path
       id="XMLID_29_"
       class="st3"
       d="m 26.2627,63.0307 c 0.7147,-0.4137 1.4669,-0.7146 2.2944,-0.9027 1.3917,-0.3385 2.8962,0.0752 3.9118,1.1284 0.3761,0.3761 0.6394,0.8651 0.7899,1.3541 0.7899,-0.7146 1.7678,-1.2036 2.8210,-1.3541 1.4669,-0.3385 3.0090,0.0752 4.0622,1.1284 0.7522,0.8275 1.1284,1.9183 1.0155,3.0467 1.2412,-0.8275 2.5953,-1.3917 4.0246,-1.7678 l 2.0311,-0.5266 c 1.4293,-0.3761 2.9338,-0.4514 4.4007,-0.2633 l 0.9403,-0.6018 c 0.6018,-2.9338 3.3852,-4.8145 6.2061,-5.5291 l 2.2568,-0.6018 0.3385,-0.0376 c 1.4669,-2.0311 2.6329,-4.2503 3.4228,-6.6199 4.4007,-12.9012 -2.5201,-26.8933 -15.4213,-31.2940 -12.9012,-4.4007 -26.8933,2.5201 -31.2940,15.4213 -3.4228,9.9674 -0.1128,20.9880 8.1996,27.4199 z"
       style="display:inline;fill:#cb6115;fill-opacity:1;stroke-width:0.3761" /><path
       id="XMLID_33_"
       style="display:inline;stroke-width:0.3761"
       d="M 74.1817,24.4022 C 26.3003,28.7653 2.4914,47.4212 2.4914,47.4212 c 0,0 11.5469,-5.6795 18.9566,-7.9738 16.0607,-4.9273 42.2394,-9.4030 43.9696,-6.5444 0.5830,0.9474 0.5303,1.0830 0.5265,1.0906 h 0.0376 z m 2.9713,8.5008 C 26.6012,37.5293 1.5132,57.2005 1.5132,57.2005 c 0,0 12.1865,-5.9803 20.0476,-8.3875 16.5873,-5.1906 43.7440,-10.4565 45.6999,-7.0713 0.3822,0.6369 0.5366,1.0464 0.5987,1.2821 -44.5433,5.7765 -64.2398,21.5865 -64.2398,21.5865 0,0 9.5913,-5.0025 17.3771,-7.3721 16.6249,-5.0777 43.5184,-9.5911 45.4743,-6.2435 l -0.4137,2.9337 0.0376,-0.0376 10.6443,-11.8482 c -2.9073,0.2668 -5.7214,0.5773 -8.4433,0.9250 z" /><path
       id="XMLID_34_"
       style="display:inline;fill:#b2b3b3;fill-opacity:1;stroke-width:0.3761"
       class="st1"
       d="M 76.4385,21.8069 C 30.8260,27.3864 6.1961,44.6373 2.8485,47.1220 5.9437,44.9020 29.6173,28.4668 74.1817,24.4022 Z M 2.8485,47.1220 c -0.0841,0.0603 -0.1529,0.1099 -0.2066,0.1487 l -0.1880,0.1504 c 0,0 0.1315,-0.1038 0.3947,-0.2991 z M 79.3346,30.4205 c -30.8754,3.6217 -51.5855,12.2574 -64.1076,18.8092 12.2748,-6.0328 32.7535,-13.7089 61.9636,-16.3644 z m -64.1076,18.8092 c -2.4615,1.2098 -4.5612,2.3034 -6.3438,3.3232 1.6176,-0.9589 4.1509,-2.1758 6.3438,-3.3232 z m -6.3438,3.3232 c -4.2742,2.5337 -7.0674,4.4341 -7.2783,4.5975 0.2146,-0.1662 2.8148,-2.0441 7.2783,-4.5975 z M 78.9585,39.6354 C 41.7217,44.1113 19.2665,55.0192 9.5247,60.7740 19.1536,55.2449 40.8189,45.3901 76.7393,42.1178 Z" /><path
       id="path7"
       class="st1"
       d="m 101.7820,49.0014 -1.3165,0.3761 -0.7146,0.7523 -0.3385,-0.4514 -1.6550,0.4514 0.9027,1.1660 -1.0908,1.1284 -1.9559,0.4890 0.7899,-2.4448 -1.4669,0.3761 -0.7147,2.2944 -0.0376,0.1505 -1.5797,0.3761 0.5642,-1.6926 c 0.1505,-0.6018 -0.0376,-0.7899 -0.3385,-0.7146 -0.4137,0.1128 -0.8275,0.3761 -1.1284,0.6770 l -1.2412,1.4293 0.4890,-1.5045 -1.4669,0.3761 -0.7899,2.4825 -2.8210,0.7523 c -0.2633,0.0376 -0.6018,0.1128 -0.4890,-0.3761 l 0.0376,-0.1505 2.0311,-0.4890 c 0.2633,-0.2257 0.4137,-0.5642 0.4137,-0.9027 -0.0376,-0.6770 -0.9027,-0.6018 -1.4293,-0.4514 l -5.5667,1.4669 c -1.0155,0.1881 -1.8430,0.9779 -2.0687,1.9559 -0.0376,0.2633 0,0.5266 0.1128,0.7899 l -1.5797,0.4137 c 0.1505,-0.3761 0.5642,-1.6926 0.5642,-1.6926 0.2633,-0.7899 -0.2633,-0.7523 -0.3385,-0.7146 -0.4138,0.1128 -0.8275,0.3761 -1.0908,0.7146 l -1.1660,1.4293 1.2788,-4.0246 -1.4293,0.3761 -1.8430,5.6796 0.8651,-0.2257 c 0.2257,-0.0752 0.4137,-0.2257 0.6018,-0.4137 l 1.5421,-1.7678 -0.3385,1.0155 c -0.1505,0.4890 -0.0376,0.6770 0.3761,0.6018 l 1.7302,-0.4514 c 0.4513,-0.1505 0.7899,-0.4514 0.9403,-0.9027 0.2633,0.3761 0.7899,0.5266 1.7302,0.2633 1.0532,-0.3009 1.8430,-1.0532 1.9183,-2.0687 0,-0.2633 -0.0752,-0.5266 -0.2633,-0.7146 0,0 1.7678,-0.4890 1.8054,-0.4890 -0.2257,0.3009 -0.3761,0.6770 -0.3761,1.0908 -0.0376,1.1284 1.1284,0.9779 1.9559,0.7523 l 2.7081,-0.7523 0.7523,-0.1881 c 0.3009,-0.1128 0.5642,-0.3009 0.7899,-0.5642 l 1.4293,-1.6550 -0.3385,1.0155 c -0.1505,0.4890 -0.0376,0.6770 0.4890,0.5642 l 3.0090,-0.7523 0.1505,-0.0376 2.0687,-0.5266 c 0.0376,-0.0376 0.1505,-0.0376 0.1881,-0.0376 l 1.0155,-0.2633 1.0908,-1.1284 0.4890,0.6770 1.6550,-0.4137 -1.0155,-1.4293 z m -16.0231,4.9273 0.8651,-0.2257 -0.3009,0.6770 -0.7523,0.1881 z m -4.7768,2.9338 c 0,0 -0.9403,0.3761 -0.7523,-0.3385 l 0.3761,-1.2036 0.9403,-0.2257 z m 20.8000,-7.8611 -1.3165,0.3761 -0.7146,0.7523 -0.3385,-0.4514 -1.6550,0.4514 0.9027,1.1660 -1.0908,1.1284 -1.9559,0.4890 0.7899,-2.4448 -1.4669,0.3761 -0.7147,2.2944 -0.0376,0.1505 -1.5797,0.3761 0.5642,-1.6926 c 0.1505,-0.6018 -0.0376,-0.7899 -0.3385,-0.7146 -0.4137,0.1128 -0.8275,0.3761 -1.1284,0.6770 l -1.2412,1.4293 0.4890,-1.5045 -1.4669,0.3761 -0.7899,2.4825 -2.8210,0.7523 c -0.2633,0.0376 -0.6018,0.1128 -0.4890,-0.3761 l 0.0376,-0.1505 2.0311,-0.4890 c 0.2633,-0.2257 0.4137,-0.5642 0.4137,-0.9027 -0.0376,-0.6770 -0.9027,-0.6018 -1.4293,-0.4514 l -5.5667,1.4669 c -1.0155,0.1881 -1.8430,0.9779 -2.0687,1.9559 -0.0376,0.2633 0,0.5266 0.1128,0.7899 l -1.5797,0.4137 c 0.1505,-0.3761 0.5642,-1.6926 0.5642,-1.6926 0.2633,-0.7899 -0.2633,-0.7523 -0.3385,-0.7146 -0.4138,0.1128 -0.8275,0.3761 -1.0908,0.7146 l -1.1660,1.4293 1.2788,-4.0246 -1.4293,0.3761 -1.8430,5.6796 0.8651,-0.2257 c 0.2257,-0.0752 0.4137,-0.2257 0.6018,-0.4137 l 1.5421,-1.7678 -0.3385,1.0155 c -0.1505,0.4890 -0.0376,0.6770 0.3761,0.6018 l 1.7302,-0.4514 c 0.4513,-0.1505 0.7899,-0.4514 0.9403,-0.9027 0.2633,0.3761 0.7899,0.5266 1.7302,0.2633 1.0532,-0.3009 1.8430,-1.0532 1.9183,-2.0687 0,-0.2633 -0.0752,-0.5266 -0.2633,-0.7146 0,0 1.7678,-0.4890 1.8054,-0.4890 -0.2257,0.3009 -0.3761,0.6770 -0.3761,1.0908 -0.0376,1.1284 1.1284,0.9779 1.9559,0.7523 l 2.7081,-0.7523 0.7523,-0.1881 c 0.3009,-0.1128 0.5642,-0.3009 0.7899,-0.5642 l 1.4293,-1.6550 -0.3385,1.0155 c -0.1505,0.4890 -0.0376,0.6770 0.4890,0.5642 l 3.0090,-0.7523 0.1505,-0.0376 2.0687,-0.5266 c 0.0376,-0.0376 0.1505,-0.0376 0.1881,-0.0376 l 1.0155,-0.2633 1.0908,-1.1284 0.4890,0.6770 1.6550,-0.4137 -1.0155,-1.4293 z m -16.0231,4.9273 0.8651,-0.2257 -0.3009,0.6770 -0.7523,0.1881 z m -4.7768,2.9338 c 0,0 -0.9403,0.3761 -0.7523,-0.3385 l 0.3761,-1.2036 0.9403,-0.2257 z m -10.3812,-1.7678 0.4137,-0.1128 c 0.1881,-0.0376 0.3761,-0.0752 0.6018,-0.1128 0.1505,0 0.2633,0 0.3385,0.1128 0.1128,0.1128 0.1881,0.2633 0.1505,0.4137 v 0.1128 c -0.0752,1.2412 -1.6174,2.2192 -2.3320,2.5953 l -0.1505,0.0752 z m 1.1284,-1.2788 -3.8365,1.0155 1.3541,0.6018 -1.7302,5.4539 1.3165,-0.3761 0.5266,-1.6550 0.0376,-0.0376 c 1.2788,-0.6018 4.2503,-2.3696 4.2879,-4.2503 v -0.0376 c 0,-0.7146 -0.3761,-0.9027 -0.9403,-0.9027 -0.3385,0.0376 -0.6770,0.1128 -1.0155,0.1881 z m 24.2228,-3.9870 c 0.6018,-0.1881 1.0155,-0.6770 1.0908,-1.3165 0,-0.6018 -0.4513,-0.9027 -1.0908,-0.7899 -0.6018,0.1881 -1.0155,0.7146 -1.0908,1.3165 0,0.4514 0.3761,0.7899 0.8275,0.7899 0.0752,0.0376 0.1505,0 0.2633,0 z m 0,0 c 0.6018,-0.1881 1.0155,-0.6770 1.0908,-1.3165 0,-0.6018 -0.4513,-0.9027 -1.0908,-0.7899 -0.6018,0.1881 -1.0155,0.7146 -1.0908,1.3165 0,0.4514 0.3761,0.7899 0.8275,0.7899 0.0752,0.0376 0.1505,0 0.2633,0 z"
       style="display:inline;fill:#b2b3b3;fill-opacity:1;stroke-width:0.3761" /></g><g
     inkscape:groupmode="layer"
     id="layer3"
     inkscape:label="Layer 2" /><style
     type="text/css"
     id="style1">
	.st0{fill:#4891CE;}
	.st1{fill:#C7D9EA;}
	.st2{fill:#E3173E;}
	.st3{fill:#FFFFFF;}
</style><style
     type="text/css"
     id="style1-7">
	.st0{fill:#211646;}
	.st1{fill:#B3B2B1;}
	.st2{fill:#FFFFFF;}
	.st3{fill:#D35E13;}
</style></svg>
