<?xml version="1.0" encoding="UTF-8" standalone="no"?>
<svg
   viewBox="0 0 140.3140 110.6577"
   version="1.1000"
   id="svg1"
   xml:space="preserve"
   sodipodi:docname="atlanta-dream-logo.svg"
   inkscape:version="1.4.2 (2aeb623e1d, 2025-05-12)"
   xmlns:inkscape="http://www.inkscape.org/namespaces/inkscape"
   xmlns:sodipodi="http://sodipodi.sourceforge.net/DTD/sodipodi-0.dtd"
   xmlns="http://www.w3.org/2000/svg"
   xmlns:svg="http://www.w3.org/2000/svg"><sodipodi:namedview
     id="namedview1"
     pagecolor="#ffffff"
     bordercolor="#000000"
     borderopacity="0.25"
     inkscape:showpageshadow="2"
     inkscape:pageopacity="0.0"
     inkscape:pagecheckerboard="0"
     inkscape:deskcolor="#d1d1d1"
     inkscape:zoom="2.7905915"
     inkscape:cx="52.497831"
     inkscape:cy="77.223771"
     inkscape:window-width="1854"
     inkscape:window-height="1011"
     inkscape:window-x="0"
     inkscape:window-y="0"
     inkscape:window-maximized="1"
     inkscape:current-layer="svg1" /><defs
     id="defs1" /><style
     type="text/css"
     id="style1">
	.st0{fill:#4891CE;}
	.st1{fill:#C7D9EA;}
	.st2{fill:#E3173E;}
	.st3{fill:#FFFFFF;}
</style><path
     id="XMLID_5_"
     class="st0"
     d="m 18.853,63.218687 c -3.6861,-3.8741 -6.1309,-8.7638 -7.0336,-14.0672 -2.6329,-15.0076 7.4098,-29.3005 22.3797,-31.8958 h 0.0376 c 1.5797,-0.3009 3.1971,-0.4137 4.8145,-0.4137 -2.1816,-0.1505 -4.3631,0 -6.507,0.3761 -15.6846,2.7457 -26.1786,17.7157 -23.4329,33.4003 0.8651,4.8897 2.9714,9.4785 6.0933,13.3526 1.6926,-0.3009 2.9338,-0.5642 2.9338,-0.5642 0.2633,-0.1128 0.489,-0.1505 0.7147,-0.1881 z m 112.5756,-4.7768 -1.0532,0.2633 -1.4293,0.2257 c -0.677,1.9559 -2.0687,3.3099 -2.1439,5.7172 -1.6174,1.7678 -3.6861,3.0467 -5.9805,3.6861 -2.4072,0.6018 -3.987,-0.0376 -4.8521,-0.7146 -1.2412,-1.0155 -1.9183,-2.5577 -1.843,-4.1374 v -0.5266 l -3.8741,1.0532 c -2.3696,0.6394 -3.1595,0.0376 -3.7237,-0.6018 -0.9779,1.655 -2.9338,2.3696 -4.3255,2.7081 l -7.7483,2.0687 c -0.8275,0.2633 -1.6926,0.3009 -2.5201,0.1128 -0.7523,0.5266 -1.5797,0.9403 -2.4825,1.2036 l -27.0061,7.0712 c -1.843,0.5266 -3.009,0.1505 -3.8365,-0.5642 -0.9403,1.6174 -2.9714,2.3696 -4.9649,2.8586 l -21.9284,5.7924 c -0.7523,0.2257 -2.8962,0.9027 -4.4007,-0.7146 l -0.5642,0.7899 c -1.3164,1.843 -3.0467,2.4448 -4.9273,2.7081 -1.3541,0.3009 -2.7834,-0.1881 -3.6861,-1.2412 -0.1128,-0.1505 -0.5266,0.489 -0.5266,0.489 -1.166,1.4293 -2.7834,2.4448 -4.5888,2.9338 l -2.821,0.7146 -4.4759,1.2412 1.4293,-4.4383 5.0025,-16.0231 -6.8832,-4.3631 -2.0687,2.4825 6.6575,4.175 -5.1154,16.0607 -1.4293,4.4007 4.4759,-1.166 2.821,-0.7523 c 1.9935,-0.6018 3.8365,-1.6926 5.3034,-3.1595 0.9403,0.9027 2.2192,1.2788 3.498,1.0155 1.9183,-0.2633 4.5888,-1.3541 5.9428,-3.1971 1.4669,0.9403 3.3099,0.6018 3.987,0.4137 l 21.8908,-5.7548 c 1.9559,-0.5266 4.7392,-0.9027 5.6796,-2.4448 v -0.0376 c 1.3164,0.5266 1.7678,0.3761 3.1219,0.1505 l 27.0061,-7.1089 c 0.9027,-0.2257 1.7302,-0.6394 2.4825,-1.2036 0.8275,0.2257 1.7302,0.1881 2.5201,-0.1128 l 7.7483,-2.0311 c 1.4293,-0.3761 3.6485,-0.7146 4.6264,-2.3696 0.8651,0.3761 1.4669,0.6394 3.4228,0.2257 l 3.9118,-1.0532 c 0,0 -0.0376,0.3385 -0.0376,0.5266 -0.0752,1.6174 0.6018,3.1219 1.843,4.1374 0.9027,0.677 2.4072,1.2412 4.8521,0.677 4.6264,-1.0155 8.3877,-4.3631 10.5316,-8.9519 l 0.1881,-0.3385 0.4514,-0.7523 c 2.5577,-0.8651 6.319,-2.8586 7.5978,-6.9584 -0.5642,1.8806 -2.7458,4.0246 -5.7548,4.8145 z"
     style="display:inline;fill:#201645;fill-opacity:1;stroke-width:0.3761" /><path
     id="XMLID_8_"
     style="display:inline;fill:#b2b3b3;fill-opacity:1;stroke-width:0.376;stroke:#b2b3b3;stroke-opacity:1;stroke-dasharray:none"
     class="st1"
     d="m 38.0356,16.841887 c -1.2788,0.0376 -2.5203,0.188 -3.7615,0.4137 -15.0076,2.6329 -25.0502,16.8882 -22.4173,31.8958 0.8651,5.0025 3.122,9.6667 6.4696,13.5033 0.3761,-0.0752 0.7521,-0.188 1.1282,-0.3009 -3.2347,-3.7989 -5.416,-8.3879 -6.2811,-13.2776 -2.6329,-14.97 7.3721,-29.2629 22.3421,-31.8958 h 0.0752 c 0.8275,-0.1505 1.6174,-0.2632 2.4448,-0.3385 z m 99.1856,36.7479 c -0.9027,1.8806 -2.5202,3.2349 -4.476,3.7991 l -2.1064,0.5265 -0.0376,0.2632 -0.188,0.4889 1.0154,-0.2632 c 3.009,-0.7899 5.2285,-2.9338 5.7927,-4.8145 z m -21.778,8.3123 -3.9119,1.0534 c -2.332,0.6018 -3.5734,-0.1507 -4.1376,-0.7902 -0.8651,1.4669 -2.2941,2.4828 -3.9115,2.9342 l -7.7482,2.0307 c -0.8275,0.3009 -1.6926,0.3389 -2.5201,0.1133 -0.7523,0.5642 -1.5797,0.9777 -2.4825,1.2034 l -27.0061,7.1089 c -2.3696,0.6018 -3.6862,-0.3384 -4.288,-0.9402 -1.0155,1.655 -2.6706,2.8208 -4.5512,3.2722 l -21.9284,5.8298 c -0.7523,0.1881 -3.1595,0.602 -4.664,-1.0154 l -0.6017,0.7897 c -0.1505,0.1881 -0.2632,0.376 -0.4137,0.5641 1.5045,1.6174 3.6105,0.903 4.4004,0.715 l 21.9284,-5.7551 c 1.9559,-0.5642 3.987,-1.3164 4.9649,-2.8585 0.7899,0.677 1.9561,1.0531 3.8367,0.5265 l 27.0061,-7.0709 c 0.9027,-0.2633 1.7302,-0.6773 2.4825,-1.2038 0.8275,0.1881 1.6926,0.1505 2.52,-0.1128 l 7.7482,-2.0688 c 1.4293,-0.3761 3.3477,-1.1283 4.3256,-2.7457 0.6018,0.6018 1.4291,1.2035 3.7235,0.6017 l 3.8743,-1.053 c -0.0376,0.1881 -0.0376,0.3384 -0.0376,0.5265 -0.0752,1.6174 0.6395,3.1596 1.8807,4.1376 0.9027,0.677 2.4072,1.3163 4.8521,0.7145 2.332,-0.6018 4.4005,-1.8804 5.9803,-3.6859 v -0.038 c -1.2788,1.2788 -2.8962,2.2196 -4.6264,2.6333 -2.4072,0.5642 -3.987,-0.0755 -4.8897,-0.7526 -1.2412,-1.0155 -1.9179,-2.5574 -1.8427,-4.1371 0,-0.1881 10e-6,-0.3389 0.0376,-0.5269 z m -109.1906,3.6487 -0.7884,0.9778 -0.1517,0.188 6.8832,4.4008 -5.1534,16.0233 -1.429,4.4004 4.476,-1.1658 2.8209,-0.7521 c 1.8016,-0.4504 3.3784,-1.4626 4.5811,-2.887 -0.895,0.9148 -2.0067,1.5377 -3.2272,1.8336 l -2.8209,0.7902 -4.476,1.1658 1.4295,-4.4384 5.1153,-16.0229 z m 11.2387,21.1853 c 0.0152,-0.0155 0.0303,-0.0314 0.0454,-0.0471 l -0.0376,0.0376 c -0.003,0.003 -0.005,0.0065 -0.008,0.0095 z m 9.5239,-2.492 c -0.9779,1.2036 -2.4074,1.9935 -3.9495,2.144 -2.0687,0.3385 -3.1597,-0.6016 -3.6487,-1.241 -0.1505,-0.1505 -0.2632,-0.3384 -0.3384,-0.5265 l -0.7145,1.053 c -0.0752,0.1881 -0.2256,0.376 -0.3761,0.5265 l 0.0752,0.0376 c 0.489,0.6018 1.6171,1.5423 3.6482,1.2414 1.9183,-0.2633 3.5732,-0.9027 4.9273,-2.7081 z" /><path
     id="XMLID_14_-3"
     style="display:inline;stroke-width:0.3761"
     d="m 41.1279,16.794387 c -1.8333,-0.0463 -3.6989,0.0898 -5.5748,0.4236 -15.0076,2.6705 -24.975,17.001 -22.3044,32.0086 0.8651,4.8521 3.0092,9.3659 6.2063,13.1272 -0.7523,0.1881 -13.1648,3.2346 -13.1648,3.2346 l 7.2593,4.5136 -5.1529,16.0605 -1.3919,4.4384 4.476,-1.1658 2.8209,-0.7526 c 1.6926,-0.4137 3.122,-1.4292 4.0999,-2.8961 l 0.7145,-1.053 c 0.0752,0.1881 0.188,0.376 0.3009,0.5265 0.489,0.6018 1.6176,1.5419 3.6863,1.241 1.9183,-0.2633 3.31,-1.1659 4.6264,-2.9713 l 0.6017,-0.7897 c 1.5045,1.6174 3.9118,1.2034 4.664,0.9778 l 21.9284,-5.7546 c 1.8806,-0.4514 3.5357,-1.6548 4.5512,-3.2722 0.6018,0.6394 1.9184,1.542 4.2504,0.9402 l 27.0061,-7.1089 c 0.9027,-0.2257 1.7302,-0.6392 2.4825,-1.2034 0.8275,0.2257 1.7302,0.1881 2.5201,-0.1128 l 7.7482,-2.0312 c 1.655,-0.4137 3.0464,-1.4673 3.9115,-2.9342 0.6018,0.6018 1.8432,1.3544 4.1752,0.7902 l 3.8743,-1.0534 v 0.5269 c -0.0752,1.5797 0.6391,3.1216 1.8427,4.1371 0.9027,0.677 2.4072,1.3168 4.8521,0.715 4.7016,-1.2412 6.9586,-5.0403 8.4632,-9.1025 l 0.0376,-0.2632 2.1064,-0.5641 c 2.332,-0.677 4.175,-2.4825 4.8897,-4.8145 l 1.1658,-4.288 -5.5666,1.3914 2.5953,-7.9362 -20.4989,5.4162 -3.1974,0.8654 1.1286,-3.7239 -4.4384,1.1662 -2.2568,0.6017 c -1.0908,0.3009 -2.1814,0.752 -3.1218,1.3162 l 1.4667,-3.573 -38.7034,10.193 c 1.7678,-4.6264 2.2189,-9.629 1.3538,-14.5186 -2.3367,-13.1316 -13.6004,-22.4041 -26.4338,-22.7281 z m 91.542,28.3703 -2.5953,7.9362 5.7922,-1.5423 c -0.4513,1.4669 -1.6172,2.5952 -3.0842,3.0465 l -3.423,0.903 c -1.2788,3.9494 -3.0843,7.936 -7.1841,9.0268 -2.4825,0.6394 -3.5354,-0.677 -3.5354,-2.4072 0.0376,-1.5797 0.6772,-3.084 1.7679,-4.2123 l -1.0534,0.2632 -7.7482,2.0688 c -1.8054,0.4514 -2.4449,-0.5266 -1.956,-2.2192 l 1.5799,-4.9273 -2.9337,0.7897 -1.7679,5.4914 c -0.3761,1.4669 -1.5044,2.6332 -2.9337,3.047 l -7.7858,2.0307 c -1.1284,0.3009 -2.0688,0.1506 -2.0688,-0.7521 -0.7146,1.0155 -1.7677,1.7303 -2.9337,2.0688 l -1.6175,0.4513 -0.8649,0.188 -10.043,2.6329 -1.8427,0.4889 -12.6379,3.3478 c -1.8054,0.489 -2.4825,-0.5266 -1.956,-2.1816 l 1.5795,-4.9649 -2.9337,0.7897 -1.956,5.567 c -0.4514,1.6174 -2.0309,2.7832 -3.4978,3.1594 l -8.1619,2.1816 -0.6021,0.1504 -13.1644,3.4602 c -2.6705,0.677 -2.633,-0.489 -2.0688,-2.0688 l 2.332,-6.6572 -6.9209,9.4405 c -0.9403,1.3165 -1.8053,1.8431 -2.9713,1.9936 -1.6926,0.2633 -1.8052,-1.0908 -1.3162,-2.4072 l 3.4226,-9.817 -8.6131,12.6755 c -0.6018,0.8651 -1.5049,1.5046 -2.5205,1.7303 l -2.8209,0.7521 5.7175,-17.7908 -4.1,-2.4072 7.7482,-1.9184 c 1.3541,-0.3385 2.445,-0.2256 1.6551,2.2944 l -2.9713,9.4409 6.0179,-8.3875 c 1.2036,-1.7678 1.9936,-2.8964 4.4008,-3.5359 0.3009,-0.1128 2.5198,-0.3005 1.429,2.8213 l -2.7457,7.7482 5.379,-6.8457 c 1.3165,-1.6174 1.6172,-2.1815 3.385,-2.5953 0.3385,-0.0752 2.7083,-0.2634 1.6175,2.8585 l -3.3478,9.6666 4.2504,-1.1286 c -0.3385,-0.5266 -0.5265,-1.1281 -0.5641,-1.7299 0,-3.7989 3.8366,-6.3942 7.0713,-7.2593 l 2.0307,-0.5641 c 1.7678,-0.4514 4.8521,-0.7525 5.0025,1.429 -0.0376,1.1284 -0.5639,2.1815 -1.429,2.8585 l -2.1816,0.6021 v -0.0376 l -4.8897,1.241 0.2256,-0.6769 2.4825,-0.6017 1.2414,-2.7085 -2.9342,0.7526 -1.3914,3.7235 c -0.4514,1.5045 0.8652,1.3919 1.7303,1.1662 l 4.0995,-1.0534 5.0025,-1.3162 1.8055,-5.529 h -0.2632 c -0.9779,-0.0752 -1.7303,-0.9404 -1.6551,-1.9184 0,-2.332 2.5577,-3.8366 4.476,-4.3632 l 2.2568,-0.6017 -1.1662,3.7235 7.711,-2.0688 -2.5201,7.9743 4.438,-1.1662 c -0.3761,-0.6018 -0.5265,-1.3165 -0.4137,-2.0312 0.4137,-3.6108 4.0622,-6.1686 7.4097,-7.0713 l 3.5359,-0.9402 c 1.5421,-0.4137 2.8585,0.4138 2.8585,1.8431 0,1.4669 -1.2788,3.0089 -2.8585,3.385 -1.5797,0.4514 -2.8585,-0.4138 -2.8209,-1.8807 v -0.3385 l -1.6927,0.4137 -1.091,3.3478 c -0.489,1.4669 0.301,1.8428 1.8055,1.4666 l 3.8367,-1.0154 4.6264,-1.2034 c 0,-0.3009 0.0752,-0.6021 0.188,-0.903 l 2.3696,-7.0713 5.0401,-1.3162 -2.5953,7.9362 1.6171,-0.4137 1.2414,-0.3385 2.5953,-7.8991 5.0025,-1.3162 -2.5201,7.9362 4.664,-1.2034 1.8431,-5.5294 h -0.2637 c -1.0155,-0.0752 -1.7675,-0.94 -1.6923,-1.9179 0,-2.332 2.5202,-3.8366 4.476,-4.4008 l 2.2564,-0.6017 -1.1658,3.7235 7.7106,-2.0688 -2.5577,7.9362 4.288,-1.1658 c -0.0752,0 -0.1504,-0.0376 -0.2256,-0.0376 -0.4513,-0.1128 -0.7526,-0.6016 -0.6397,-1.053 l 2.2192,-6.5448 5.0777,-1.3167 -2.5953,7.9367 1.7303,-0.4517 1.1286,-0.2632 2.5953,-7.9362 z m -36.4799,2.5343 c 0.0368,-6.98e-4 0.0727,1.97e-4 0.1076,0.0026 0.035,0.0024 0.0689,0.0062 0.102,0.0117 0.0661,0.0109 0.1282,0.0279 0.1859,0.0506 0.0577,0.0227 0.1109,0.0511 0.1591,0.0852 0.0723,0.0511 0.1335,0.1151 0.1815,0.1906 0.016,0.0252 0.0306,0.0513 0.0437,0.0791 0.0131,0.0278 0.0246,0.057 0.0346,0.0873 0.01,0.0303 0.0183,0.0619 0.0251,0.0947 0.007,0.0328 0.0121,0.0668 0.0156,0.102 0.003,0.0352 0.005,0.0717 0.005,0.1094 -0.009,0.0799 -0.024,0.1576 -0.0437,0.2326 -0.0394,0.1499 -0.0989,0.289 -0.1759,0.4154 -0.0385,0.0632 -0.0814,0.123 -0.1284,0.1794 -0.047,0.0564 -0.0981,0.1096 -0.153,0.1586 -0.1099,0.0982 -0.2349,0.1807 -0.373,0.246 -0.0691,0.0326 -0.1413,0.0608 -0.2166,0.0843 -0.0282,0 -0.0541,0.0027 -0.0782,0.0056 -0.0362,0.0044 -0.0684,0.0101 -0.0986,0.0112 -0.0302,0.0011 -0.0582,-0.0028 -0.0864,-0.0169 -0.1128,0 -0.2211,-0.0209 -0.3199,-0.0597 -0.0494,-0.0194 -0.0964,-0.0431 -0.1405,-0.0709 -0.0661,-0.0416 -0.1255,-0.0924 -0.1764,-0.1504 -0.017,-0.0193 -0.033,-0.0396 -0.048,-0.0605 -0.03,-0.0419 -0.0558,-0.0868 -0.0769,-0.1344 -0.0106,-0.0238 -0.0204,-0.0484 -0.0285,-0.0735 -0.0163,-0.0501 -0.0275,-0.1024 -0.0333,-0.1569 -0.003,-0.0273 -0.004,-0.0552 -0.004,-0.0834 0.009,-0.0752 0.0244,-0.1494 0.0441,-0.2217 0.0197,-0.0724 0.0441,-0.1429 0.0735,-0.2114 0.0294,-0.0685 0.0635,-0.1349 0.102,-0.1984 0.0385,-0.0635 0.0814,-0.1244 0.1284,-0.182 0.047,-0.0576 0.0981,-0.1119 0.153,-0.1625 0.1099,-0.1012 0.2354,-0.1875 0.3735,-0.2546 0.0691,-0.0336 0.1413,-0.0621 0.2166,-0.0856 0.0799,-0.0141 0.1569,-0.022 0.2304,-0.0233 z m 5.5994,1.302 -1.5047,1.6927 1.0158,1.429 -1.6551,0.4141 -0.4889,-0.6773 -1.0906,1.1286 -1.0158,0.2632 c -0.009,0 -0.0233,-1.56e-4 -0.0398,4.32e-4 -0.0329,0.0012 -0.0752,0.005 -0.1081,0.0156 -0.0144,0.0046 -0.0271,0.0104 -0.0363,0.0182 -10e-4,0.0011 -0.003,0.0023 -0.004,0.0035 l -2.0688,0.5265 -0.1504,0.0376 -3.0089,0.7521 c -0.1316,0.0282 -0.2376,0.0379 -0.3199,0.0285 -0.0308,-0.0035 -0.0582,-0.0098 -0.0826,-0.0186 -0.008,-0.0029 -0.0159,-0.0064 -0.0233,-0.0099 -0.007,-0.0035 -0.0145,-0.0071 -0.0212,-0.0112 -0.074,-0.0452 -0.1065,-0.1261 -0.1033,-0.2425 0.001,-0.0423 0.007,-0.0892 0.0173,-0.1409 0.0103,-0.0517 0.0253,-0.1083 0.0441,-0.1694 l 0.3385,-1.0154 -1.4295,1.6547 c -0.1128,0.1316 -0.2349,0.2449 -0.3665,0.3389 -0.0658,0.047 -0.1339,0.089 -0.2045,0.1267 -0.0705,0.0376 -0.1435,0.0708 -0.2187,0.099 l -0.7521,0.188 -2.7081,0.7521 c -0.362,0.0987 -0.7891,0.183 -1.1515,0.1522 -0.1295,-0.011 -0.2507,-0.0367 -0.3579,-0.0817 -0.0429,-0.018 -0.0835,-0.0391 -0.1215,-0.0635 -0.038,-0.0245 -0.0731,-0.0523 -0.1055,-0.0839 -0.0323,-0.0315 -0.0618,-0.0668 -0.0878,-0.1059 -0.0389,-0.0587 -0.0701,-0.1265 -0.0925,-0.204 -0.007,-0.0259 -0.014,-0.0527 -0.0195,-0.0808 -0.0164,-0.0843 -0.0234,-0.1786 -0.0199,-0.2844 0,-0.1552 0.0209,-0.3052 0.0592,-0.4478 0.0128,-0.0475 0.0276,-0.0942 0.0441,-0.1401 0.0658,-0.1834 0.1599,-0.3527 0.2728,-0.5031 -0.0376,0 -1.8032,0.4882 -1.8055,0.4889 0.094,0.094 0.16,0.2071 0.2023,0.3294 0.0106,0.0306 0.0195,0.0618 0.0272,0.0934 0.008,0.0316 0.014,0.0636 0.019,0.096 0.01,0.0646 0.0147,0.1304 0.0147,0.1962 -0.009,0.1269 -0.0297,0.2495 -0.0605,0.3679 -0.0154,0.0592 -0.0336,0.1173 -0.054,0.1742 -0.0205,0.0569 -0.0435,0.1128 -0.0687,0.1673 -0.1011,0.218 -0.2397,0.4167 -0.4089,0.5931 -0.0846,0.0882 -0.1772,0.1706 -0.2762,0.2473 -0.099,0.0766 -0.2047,0.1475 -0.3164,0.2118 -0.2233,0.1287 -0.4702,0.2321 -0.7335,0.3073 -0.3526,0.0987 -0.6467,0.1391 -0.8909,0.1314 -0.1221,-0.0039 -0.2319,-0.0199 -0.3298,-0.0467 -0.098,-0.0267 -0.1844,-0.0644 -0.2602,-0.1115 -0.0253,-0.0157 -0.0492,-0.0323 -0.0722,-0.0501 -0.0689,-0.0534 -0.1274,-0.1158 -0.1768,-0.1863 -0.0564,0.1693 -0.1393,0.317 -0.2447,0.4439 -0.1405,0.1693 -0.3211,0.301 -0.5321,0.3951 -0.0527,0.0235 -0.1074,0.0447 -0.1638,0.0635 l -1.7299,0.4513 c -0.1164,0.0212 -0.2092,0.0213 -0.2788,0 -0.0541,-0.0166 -0.0943,-0.0463 -0.121,-0.0895 -0.0229,-0.037 -0.036,-0.0838 -0.0393,-0.1409 -0.006,-0.0952 0.0161,-0.2185 0.0631,-0.3713 l 0.3385,-1.0158 -1.5423,1.7679 c -0.047,0.047 -0.0942,0.0918 -0.1418,0.1336 -0.119,0.1043 -0.2414,0.1901 -0.3769,0.2485 -0.0271,0.0117 -0.0548,0.0221 -0.083,0.0316 l -0.8654,0.2256 1.8431,-5.6794 1.4295,-0.3761 -1.2791,4.0247 1.1662,-1.4295 c 0.0329,-0.0423 0.0682,-0.0834 0.1055,-0.1232 0.1866,-0.1991 0.4246,-0.3652 0.6774,-0.4798 0.0505,-0.0229 0.1016,-0.0436 0.153,-0.0622 0.0514,-0.0187 0.103,-0.0352 0.1547,-0.0493 0.005,-0.0024 0.0111,-0.0048 0.019,-0.0069 0.0158,-0.0043 0.0376,-0.008 0.0627,-0.0091 0.0126,-5.33e-4 0.0263,-4.49e-4 0.0402,4.32e-4 0.0349,0.0022 0.0732,0.0096 0.1102,0.0251 0.0148,0.0062 0.0291,0.0135 0.0432,0.0225 0.007,0.0045 0.014,0.0094 0.0207,0.0147 0.007,0.0053 0.0135,0.0112 0.0199,0.0173 0.0128,0.0122 0.0246,0.0261 0.0354,0.0419 0.005,0.0079 0.0107,0.0166 0.0156,0.0255 0.01,0.0179 0.0183,0.0376 0.0251,0.0597 0.007,0.0221 0.0118,0.0463 0.0151,0.0731 0.003,0.0267 0.005,0.056 0.004,0.0877 -6.7e-4,0.0318 -0.003,0.0665 -0.009,0.1037 -0.0106,0.0745 -0.0315,0.1602 -0.0644,0.2589 -9e-5,3.01e-4 -0.4137,1.3166 -0.5641,1.6927 l 1.5799,-0.4141 c -0.0282,-0.0658 -0.0516,-0.1313 -0.0705,-0.1971 -0.0188,-0.0658 -0.033,-0.1317 -0.0424,-0.1975 -0.009,-0.0658 -0.0143,-0.1317 -0.0143,-0.1975 0,-0.0658 0.005,-0.1317 0.0143,-0.1975 0.0564,-0.2445 0.1502,-0.4771 0.2753,-0.6916 0.1252,-0.2145 0.2815,-0.4106 0.4625,-0.5823 0.181,-0.1716 0.3869,-0.3186 0.6108,-0.4344 0.112,-0.0579 0.2286,-0.1081 0.3488,-0.1496 0.1203,-0.0415 0.2439,-0.0746 0.3709,-0.0981 h 4.3e-4 l 5.5666,-1.4666 c 0.1316,-0.0376 0.2843,-0.0706 0.44,-0.0882 0.1557,-0.0176 0.3144,-0.02 0.4578,0.0035 0.1613,0.0265 0.3036,0.0858 0.4003,0.1928 0.0215,0.0238 0.0408,0.0496 0.0575,0.0782 0.0335,0.0573 0.0568,0.1248 0.0679,0.2036 0.003,0.0197 0.004,0.0402 0.006,0.0614 0,0.0423 -0.002,0.0846 -0.007,0.1267 -0.005,0.0421 -0.0116,0.0839 -0.0208,0.1254 -0.009,0.0414 -0.0203,0.0824 -0.0337,0.1228 -0.0134,0.0403 -0.029,0.0801 -0.0467,0.1189 -0.0353,0.0776 -0.0786,0.1517 -0.1297,0.2205 -0.0256,0.0344 -0.0532,0.0675 -0.0826,0.099 -0.0293,0.0315 -0.0605,0.0613 -0.0934,0.0895 l -2.0312,0.4893 -0.0376,0.1504 c -0.007,0.0306 -0.0123,0.0588 -0.016,0.0852 -0.004,0.0263 -0.006,0.0503 -0.006,0.0726 -5.2e-4,0.0223 6.5e-4,0.0427 0.003,0.0614 0.005,0.0373 0.0147,0.0677 0.0294,0.0921 0.004,0.0061 0.008,0.0119 0.0121,0.0173 0.0127,0.0161 0.0275,0.029 0.0445,0.0393 0.006,0.0035 0.0116,0.0066 0.0177,0.0095 0.006,0.0029 0.0126,0.0054 0.019,0.0078 0.1034,0.0376 0.2539,0.0097 0.3856,-0.0091 l 2.8209,-0.7526 0.7897,-2.4825 1.4671,-0.3761 -0.4893,1.5047 1.2414,-1.4295 c 0.0752,-0.0752 0.1575,-0.1478 0.2451,-0.2166 0.1751,-0.1375 0.3716,-0.2588 0.5749,-0.3493 0.1017,-0.0452 0.2048,-0.0829 0.3082,-0.1111 0.0188,-0.0047 0.0375,-0.0082 0.0553,-0.0108 0.0447,-0.0065 0.086,-0.0065 0.1236,8.65e-4 0.008,0.0015 0.0148,0.0031 0.022,0.0052 0.007,0.0021 0.0143,0.0043 0.0212,0.0069 0.007,0.0026 0.0138,0.0058 0.0203,0.0091 0.007,0.0033 0.0129,0.0069 0.019,0.0108 0.0123,0.0077 0.0238,0.0166 0.0346,0.0268 0.0161,0.0153 0.0304,0.0333 0.0428,0.0545 0.008,0.0141 0.0152,0.0295 0.0216,0.0462 0.006,0.0168 0.0119,0.0349 0.0164,0.0545 0.004,0.0195 0.008,0.0407 0.0104,0.0631 0.007,0.0671 0.005,0.1469 -0.008,0.2408 -0.009,0.0626 -0.0218,0.1314 -0.0406,0.2066 l -0.5645,1.6927 1.5799,-0.3761 0.0376,-0.1504 0.7145,-2.2944 1.4671,-0.3761 -0.7897,2.4448 1.9555,-0.4893 1.091,-1.1282 -0.903,-1.1658 1.6551,-0.4517 0.3385,0.4517 0.7149,-0.7526 z m -29.0373,4.6264 c 0.5642,0 0.9406,0.1879 0.9406,0.9026 v 0.0376 c -0.0376,1.8806 -3.0091,3.6486 -4.288,4.2504 l -0.0376,0.0376 -0.5265,1.6551 -1.3167,0.3761 1.7303,-5.4538 -1.3543,-0.6021 3.8367,-1.0154 c 0.3385,-0.0752 0.6768,-0.1504 1.0154,-0.188 z m 13.8793,0.0752 -0.8649,0.2256 -0.1885,0.6393 0.7526,-0.188 z m -15.0075,1.1658 c -0.2257,0.0376 -0.4136,0.0756 -0.6017,0.1133 l -0.4141,0.1128 -0.9778,3.0842 0.1504,-0.0752 c 0.7147,-0.3761 2.2568,-1.354 2.332,-2.5953 v -0.1128 c 0.0376,-0.1505 -0.0376,-0.3008 -0.1504,-0.4137 -0.0752,-0.1128 -0.188,-0.1133 -0.3385,-0.1133 z m 9.9298,0.2261 -0.9406,0.2256 -0.3761,1.2034 c -0.0176,0.0669 -0.0251,0.1243 -0.0246,0.1733 3.2e-4,0.0327 0.004,0.0617 0.0112,0.0873 0.004,0.0128 0.008,0.0247 0.013,0.0359 0.003,0.0056 0.005,0.0108 0.008,0.016 0.003,0.0052 0.006,0.0103 0.009,0.0151 0.0129,0.0192 0.0286,0.0353 0.0462,0.0488 0.009,0.0068 0.0178,0.0131 0.0277,0.0186 0.0295,0.0165 0.0632,0.0275 0.0994,0.0341 0.2296,0.0421 0.5614,-0.0904 0.5624,-0.0908 z m 43.5183,2.0307 c -1.2788,0.3009 -2.4825,2.445 -2.4825,3.7615 -0.0376,0.5642 0.3008,1.0529 0.7897,1.2786 z" /><path
     id="XMLID_29_"
     class="st3"
     d="m 26.2628,63.030587 c 0.7147,-0.4137 1.4669,-0.7146 2.2944,-0.9027 1.3917,-0.3385 2.8962,0.0752 3.9118,1.1284 0.3761,0.3761 0.6394,0.8651 0.7899,1.3541 0.7899,-0.7146 1.7678,-1.2036 2.821,-1.3541 1.4669,-0.3385 3.009,0.0752 4.0622,1.1284 0.7522,0.8275 1.1284,1.9183 1.0155,3.0467 1.2412,-0.8275 2.5953,-1.3917 4.0246,-1.7678 l 2.0311,-0.5266 c 1.4293,-0.3761 2.9338,-0.4514 4.4007,-0.2633 l 0.9403,-0.6018 c 0.6018,-2.9338 3.3852,-4.8145 6.2061,-5.5291 l 2.2568,-0.6018 0.3385,-0.0376 c 1.4669,-2.0311 2.6329,-4.2503 3.4228,-6.6199 4.4007,-12.9012 -2.5201,-26.8933 -15.4213,-31.294 -12.9012,-4.4007 -26.8933,2.5201 -31.294,15.4213 -3.4228,9.9674 -0.1128,20.988 8.1996,27.4199 z"
     style="display:inline;fill:#cb6115;fill-opacity:1;stroke-width:0.3761" /><path
     id="XMLID_33_"
     style="display:inline;stroke-width:0.3761"
     d="m 74.1818,24.402087 c -47.8814,4.3631 -71.6903,23.019 -71.6903,23.019 0,0 11.5469,-5.6795 18.9566,-7.9738 16.0607,-4.9273 42.2394,-9.403 43.9696,-6.5444 0.583,0.9474 0.5303,1.083 0.5265,1.0906 h 0.0376 z m 2.9713,8.5008 c -50.5518,4.6263 -75.6398,24.2975 -75.6398,24.2975 0,0 12.1865,-5.9803 20.0476,-8.3875 16.5873,-5.1906 43.744,-10.4565 45.6999,-7.0713 0.3822,0.6369 0.5366,1.0464 0.5987,1.2821 -44.5433,5.7765 -64.2398,21.5865 -64.2398,21.5865 0,0 9.5913,-5.0025 17.3771,-7.3721 16.6249,-5.0777 43.5184,-9.5911 45.4743,-6.2435 l -0.4137,2.9337 0.0376,-0.0376 10.6443,-11.8482 c -2.9073,0.2668 -5.7214,0.5773 -8.4433,0.925 z" /><path
     id="XMLID_34_"
     style="display:inline;fill:#b2b3b3;fill-opacity:1;stroke:#b2b3b3;stroke-width:0.3761;stroke-opacity:1"
     class="st1"
     d="m 76.249224,21.806787 c -45.6125,5.5795 -70.053024,22.8304 -73.400624,25.3151 3.0952,-2.22 26.579424,-18.6552 71.143824,-22.7198 z M 2.8486,47.121887 c -0.0841,0.0603 -0.1529,0.1099 -0.2066,0.1487 l -0.188,0.1504 c 0,0 0.1315,-0.1038 0.3947,-0.2991 z m 76.262292,-16.7015 c -30.8754,3.6217 -51.361692,12.2574 -63.883792,18.8092 12.2748,-6.0328 32.529692,-13.7089 61.739792,-16.3644 z M 15.2271,49.229587 c -2.4615,1.2098 -4.5612,2.3034 -6.3438,3.3232 1.6176,-0.9589 4.1509,-2.1758 6.3438,-3.3232 z m -6.3438,3.3232 c -4.2742,2.5337 -7.0674,4.4341 -7.2783,4.5975 0.2146,-0.1662 2.8148,-2.0441 7.2783,-4.5975 z m 69.81706,-12.9175 c -37.2368,4.4759 -59.43376,15.3838 -69.17556,21.1386 9.6289,-5.5291 31.03596,-15.3839 66.95636,-18.6562 z"
     sodipodi:nodetypes="ccccccccccccccccccccccc" /><path
     id="path2"
     style="display:inline;fill:#b2b3b3;fill-opacity:1;fill-rule:evenodd"
     d="m 132.66751,45.161116 -5.04101,1.316406 -2.59375,7.9375 -1.12891,0.261719 -1.73047,0.453125 2.5957,-7.9375 -5.07812,1.316406 -2.21875,6.544922 c -0.1129,0.4514 0.18737,0.939934 0.63867,1.052734 0.0752,0 0.15136,0.03711 0.22656,0.03711 l -4.28906,1.166015 2.5586,-7.935547 -7.71094,2.06836 1.16601,-3.722657 -2.25586,0.601563 c -1.9558,0.5642 -4.47656,2.068391 -4.47656,4.400391 -0.0752,0.9779 0.67591,1.842768 1.69141,1.917968 h 0.26367 l -1.8418,5.529297 -4.664053,1.203125 2.519523,-7.935547 -5.001943,1.316407 -2.5957,7.898437 -1.24219,0.337891 -1.61719,0.414062 2.5957,-7.935547 -5.03905,1.316407 -2.37109,7.070312 c -0.1128,0.3009 -0.1875,0.603397 -0.1875,0.904297 l -4.62696,1.203125 -3.83593,1.015625 c -1.5045,0.3762 -2.293691,1.03e-4 -1.80469,-1.466797 l 1.08984,-3.347656 1.69336,-0.414063 v 0.337891 c -0.0376,1.4669 1.24061,2.332259 2.82032,1.880859 1.5797,-0.3761 2.85937,-1.917865 2.85937,-3.384765 0,-1.4293 -1.31727,-2.25745 -2.85937,-1.84375 l -3.53516,0.941406 c -3.347504,0.9027 -6.996464,3.459512 -7.410164,7.070312 -0.1128,0.7147 0.03797,1.42945 0.41406,2.03125 l -4.4375,1.166016 2.51954,-7.974609 -7.710941,2.070312 1.166015,-3.724609 -2.257812,0.601562 c -1.9183,0.5266 -4.47461,2.031282 -4.47461,4.363282 -0.0752,0.978 0.676397,1.842768 1.654297,1.917968 h 0.263672 l -1.80664,5.529297 -5.001953,1.316407 -4.09961,1.054687 c -0.8651,0.2257 -2.181869,0.336531 -1.730469,-1.167969 l 1.392579,-3.722656 2.933593,-0.751953 -1.242187,2.707031 -2.482422,0.603516 -0.22461,0.675781 4.888672,-1.240234 v 0.03711 l 2.181641,-0.601562 c 0.8651,-0.677 1.392088,-1.730976 1.429687,-2.859376 -0.1504,-2.1815 -3.234153,-1.881087 -5.001953,-1.429687 l -2.03125,0.564453 c -3.2347,0.8651 -7.070312,3.460866 -7.070312,7.259766 0.0376,0.6018 0.224,1.203869 0.5625,1.730468 l -4.25,1.128907 3.347656,-9.667969 c 1.0908,-3.1219 -1.278687,-2.932622 -1.617187,-2.857422 -1.7678,0.4138 -2.068266,0.978303 -3.384766,2.595703 l -5.378906,6.845703 2.746094,-7.75 c 1.0908,-3.1218 -1.128788,-2.933112 -1.429688,-2.820312 -2.4072,0.6395 -3.196791,1.767356 -4.400391,3.535156 l -6.017578,8.388672 2.970703,-9.441406 c 0.7899,-2.52 -0.300196,-2.633422 -1.654296,-2.294922 l -7.748047,1.919922 4.099609,2.40625 -5.71875,17.791015 2.822266,-0.751953 c 1.0156,-0.2257 1.917731,-0.865368 2.519531,-1.730468 l 8.613281,-12.675782 -3.421875,9.816406 c -0.489,1.3164 -0.376194,2.671504 1.316406,2.408204 1.166,-0.1505 2.030403,-0.677641 2.970703,-1.994141 l 6.919922,-9.439453 -2.332031,6.65625 c -0.5642,1.5798 -0.600187,2.745359 2.070313,2.068359 l 13.164062,-3.458984 0.601563,-0.150391 8.162109,-2.18164 c 1.4669,-0.3762 3.046647,-1.542757 3.498047,-3.160157 l 1.955078,-5.566406 2.933594,-0.791015 -1.578125,4.964843 c -0.5265,1.655 0.149678,2.670641 1.955078,2.181641 l 12.638672,-3.347656 1.8418,-0.488282 10.04297,-2.632812 0.86523,-0.1875 1.61718,-0.451172 c 1.166,-0.3385 2.219,-1.054813 2.9336,-2.070312 0,0.902699 0.93995,1.054806 2.06835,0.753906 l 7.787103,-2.03125 c 1.4293,-0.4138 2.5575,-1.579975 2.9336,-3.046875 l 1.76758,-5.492188 2.93359,-0.789062 -1.58008,4.927734 c -0.4889,1.6926 0.15163,2.67015 1.95703,2.21875 l 7.74805,-2.068359 1.05273,-0.263672 c -1.0907,1.1283 -1.72997,2.63319 -1.76757,4.21289 0,1.7302 1.05265,3.04565 3.53515,2.40625 4.0998,-1.090799 5.9048,-5.077943 7.1836,-9.027343 l 3.42382,-0.902344 c 1.467,-0.4513 2.63269,-1.579975 3.08399,-3.046875 l -5.79297,1.542969 z m -36.480463,2.535156 c -0.0729,0.0014 -0.14928,0.0095 -0.22851,0.02344 -0.0753,0.0235 -0.1477,0.05234 -0.2168,0.08594 -0.1381,0.0671 -0.26315,0.152706 -0.37305,0.253906 -0.0549,0.0506 -0.10729,0.10451 -0.15429,0.16211 -0.047,0.0576 -0.0904,0.120093 -0.12891,0.183593 -0.0385,0.0635 -0.0722,0.128766 -0.10156,0.197266 -0.0294,0.0685 -0.0526,0.138537 -0.0723,0.210937 -0.0197,0.0723 -0.0359,0.147457 -0.0449,0.222657 0,0.0282 9.1e-4,0.05668 0.004,0.08398 0.006,0.0545 0.0169,0.10615 0.0332,0.15625 0.008,0.0251 0.0187,0.05042 0.0293,0.07422 0.0211,0.0476 0.0462,0.09091 0.0762,0.132812 0.015,0.0209 0.0318,0.04125 0.0488,0.06055 0.0509,0.058 0.10968,0.108791 0.17578,0.150391 0.0441,0.0278 0.0912,0.05287 0.14062,0.07227 0.0988,0.0388 0.20752,0.05859 0.32032,0.05859 0.0282,0.0141 0.0557,0.01868 0.0859,0.01758 0.0302,-0.0011 0.0615,-0.0073 0.0977,-0.01172 0.0241,-0.0029 0.0499,-0.0059 0.0781,-0.0059 0.0753,-0.0235 0.1477,-0.05138 0.2168,-0.08398 0.1381,-0.0653 0.26315,-0.147894 0.37305,-0.246094 0.0549,-0.049 0.1073,-0.101803 0.1543,-0.158203 0.047,-0.0564 0.0885,-0.116487 0.12695,-0.179688 0.077,-0.126399 0.13638,-0.264162 0.17578,-0.414062 0.0197,-0.075 0.0359,-0.154475 0.0449,-0.234375 0,-0.0377 -0.003,-0.07418 -0.006,-0.109375 -0.004,-0.0352 -0.009,-0.06876 -0.0156,-0.101562 -0.007,-0.0328 -0.0154,-0.06345 -0.0254,-0.09375 -0.01,-0.0303 -0.0201,-0.06009 -0.0332,-0.08789 -0.0131,-0.0278 -0.0289,-0.05488 -0.0449,-0.08008 -0.048,-0.0755 -0.10934,-0.138353 -0.18164,-0.189453 -0.0482,-0.0341 -0.1005,-0.06324 -0.1582,-0.08594 -0.0577,-0.0227 -0.11945,-0.03988 -0.18555,-0.05078 -0.0331,-0.0055 -0.0666,-0.0093 -0.10156,-0.01172 -0.0343,-0.0024 -0.0713,-0.0026 -0.10742,-0.002 z m 5.599603,1.302734 -1.3164,0.375 -0.714843,0.753907 -0.33789,-0.451172 -1.65625,0.451172 0.90235,1.166015 -1.08985,1.126953 -1.95508,0.490235 0.78907,-2.445313 -1.4668,0.376953 -0.71484,2.292969 -0.0371,0.150391 -1.58008,0.376953 0.56445,-1.69336 c 0.0188,-0.0752 0.032,-0.142478 0.041,-0.205078 0.013,-0.0939 0.0148,-0.175087 0.008,-0.242187 -0.002,-0.0224 -0.008,-0.043 -0.0117,-0.0625 -0.004,-0.0196 -0.01,-0.03789 -0.0156,-0.05469 -0.006,-0.0167 -0.0135,-0.03278 -0.0215,-0.04687 -0.0124,-0.0212 -0.0269,-0.03939 -0.043,-0.05469 -0.0108,-0.0102 -0.0229,-0.01769 -0.0352,-0.02539 -0.006,-0.0039 -0.0106,-0.0084 -0.0176,-0.01172 -0.007,-0.0033 -0.0145,-0.0052 -0.0215,-0.0078 -0.007,-0.0026 -0.0145,-0.0057 -0.0215,-0.0078 -0.007,-0.0021 -0.0135,-0.0044 -0.0215,-0.0059 -0.0376,-0.0074 -0.0784,-0.0065 -0.12305,0 -0.0178,0.0026 -0.0378,0.0051 -0.0566,0.0098 -0.1034,0.0282 -0.20494,0.06613 -0.30664,0.111328 -0.2033,0.0905 -0.40107,0.212109 -0.57617,0.349609 -0.0876,0.0688 -0.16895,0.141597 -0.24415,0.216797 l -1.24218,1.429688 0.49023,-1.503907 -1.46678,0.375 -0.79102,2.482422 -2.82031,0.753906 c -0.1317,0.0188 -0.28137,0.04541 -0.38477,0.0078 -0.006,-0.0024 -0.0135,-0.0049 -0.0195,-0.0078 -0.006,-0.0029 -0.0116,-0.0063 -0.0176,-0.0098 -0.017,-0.0103 -0.0322,-0.02296 -0.0449,-0.03906 -0.004,-0.0054 -0.008,-0.01148 -0.0117,-0.01758 -0.0147,-0.0244 -0.0243,-0.0545 -0.0293,-0.0918 -0.002,-0.0187 -0.004,-0.03825 -0.004,-0.06055 0,-0.0223 0.002,-0.04596 0.006,-0.07226 0.004,-0.0264 0.009,-0.05534 0.0156,-0.08594 l 0.0391,-0.15039 2.03124,-0.490235 c 0.0329,-0.0282 0.0645,-0.05639 0.0938,-0.08789 0.0294,-0.0315 0.0564,-0.06521 0.082,-0.09961 0.0511,-0.0688 0.0936,-0.143103 0.1289,-0.220703 0.0177,-0.0388 0.0335,-0.07884 0.0469,-0.11914 0.0134,-0.0404 0.0242,-0.08165 0.0332,-0.123047 0.009,-0.0415 0.0165,-0.0829 0.0215,-0.125 0.005,-0.0421 0.008,-0.08465 0.008,-0.126953 -0.002,-0.0212 -0.003,-0.04085 -0.006,-0.06055 -0.0111,-0.0788 -0.0349,-0.147778 -0.0684,-0.205078 -0.0167,-0.0286 -0.0371,-0.05433 -0.0586,-0.07813 -0.0967,-0.107 -0.2391,-0.164907 -0.4004,-0.191407 -0.1434,-0.0235 -0.30133,-0.02151 -0.45703,-0.0039 -0.1557,0.0176 -0.30785,0.05029 -0.43945,0.08789 l -5.56641,1.466797 h -0.002 c -0.127,0.0235 -0.25079,0.05616 -0.37109,0.09766 -0.1202,0.0415 -0.23566,0.09249 -0.34766,0.15039 -0.2239,0.1158 -0.43033,0.261994 -0.61133,0.433594 -0.181,0.1717 -0.33769,0.367531 -0.46289,0.582032 -0.1251,0.214499 -0.21899,0.446906 -0.27539,0.691406 -0.009,0.0658 -0.0137,0.133418 -0.0137,0.199218 0,0.0658 0.005,0.131466 0.0137,0.197266 0.009,0.0658 0.0242,0.131466 0.043,0.197266 0.0189,0.0658 0.0421,0.131465 0.0703,0.197265 l -1.58008,0.414063 c 0.1504,-0.3761 0.56437,-1.693058 0.56446,-1.69336 0.0329,-0.0987 0.0538,-0.183312 0.0644,-0.257812 0.006,-0.0372 0.009,-0.07367 0.01,-0.105469 0.001,-0.0317 -9.1e-4,-0.05924 -0.004,-0.08594 -0.003,-0.0268 -0.009,-0.05212 -0.0156,-0.07422 -0.007,-0.0221 -0.0154,-0.04069 -0.0254,-0.05859 -0.005,-0.0089 -0.0106,-0.01749 -0.0156,-0.02539 -0.0108,-0.0158 -0.0224,-0.03077 -0.0352,-0.04297 -0.006,-0.0061 -0.0125,-0.01228 -0.0195,-0.01758 -0.007,-0.0053 -0.0145,-0.0092 -0.0215,-0.01367 -0.0141,-0.009 -0.0282,-0.01724 -0.043,-0.02344 -0.037,-0.0155 -0.0745,-0.02319 -0.10938,-0.02539 -0.0139,-8.81e-4 -0.0284,-5.33e-4 -0.041,0 -0.0251,0.0011 -0.0467,0.0055 -0.0625,0.0098 -0.008,0.0021 -0.0145,0.0035 -0.0195,0.0059 -0.0517,0.0141 -0.1029,0.03208 -0.1543,0.05078 -0.0514,0.0186 -0.10184,0.03765 -0.15234,0.06055 -0.2528,0.1146 -0.49114,0.281369 -0.67774,0.480469 -0.0373,0.0398 -0.0726,0.08075 -0.10547,0.123046 l -1.166011,1.429688 1.279291,-4.025391 -1.429681,0.376953 -1.843753,5.679688 0.86523,-0.226562 c 0.0282,-0.0095 0.05689,-0.01955 0.08399,-0.03125 0.1355,-0.0584 0.25795,-0.143747 0.37695,-0.248047 0.0476,-0.0418 0.09362,-0.08777 0.140623,-0.134766 l 1.542971,-1.767578 -0.33789,1.015625 c -0.047,0.1528 -0.0704,0.275894 -0.0644,0.371094 0.003,0.0571 0.0162,0.105578 0.0391,0.142578 0.0267,0.0432 0.067,0.07129 0.12109,0.08789 0.0696,0.0213 0.1629,0.0212 0.2793,0 l 1.73047,-0.451172 c 0.0564,-0.0188 0.11136,-0.039 0.16406,-0.0625 0.211,-0.0941 0.39075,-0.225231 0.53125,-0.394531 0.1054,-0.1269 0.18774,-0.276012 0.24414,-0.445312 0.0494,0.0705 0.10884,0.1341 0.17774,0.1875 0.023,0.0178 0.047,0.03313 0.0723,0.04883 0.0758,0.0471 0.16177,0.08463 0.25977,0.111328 0.0979,0.0268 0.20798,0.04297 0.33008,0.04687 0.2442,0.0077 0.53802,-0.03216 0.89062,-0.130859 0.2633,-0.0752 0.51108,-0.177941 0.73438,-0.306641 0.1117,-0.0643 0.2174,-0.136291 0.3164,-0.212891 0.099,-0.0767 0.19079,-0.157893 0.27539,-0.246093 0.1692,-0.1764 0.30711,-0.37575 0.40821,-0.59375 0.0252,-0.0545 0.0498,-0.111069 0.0703,-0.167969 0.0204,-0.0569 0.0373,-0.114628 0.0527,-0.173828 0.0308,-0.1184 0.0515,-0.240288 0.0605,-0.367188 0,-0.0658 -0.004,-0.132665 -0.0137,-0.197265 -0.005,-0.0324 -0.0115,-0.0641 -0.0195,-0.0957 -0.008,-0.0316 -0.0168,-0.06315 -0.0273,-0.09375 -0.0423,-0.1223 -0.10912,-0.234124 -0.20312,-0.328124 0.002,-7e-4 1.76904,-0.490235 1.80664,-0.490235 -0.1129,0.1504 -0.20764,0.320506 -0.27344,0.503906 -0.0165,0.0459 -0.0302,0.09312 -0.043,0.140625 -0.0383,0.1426 -0.0605,0.292066 -0.0605,0.447266 -0.004,0.1058 0.003,0.200856 0.0195,0.285156 0.005,0.0281 0.0125,0.05418 0.0195,0.08008 0.0224,0.0775 0.0549,0.144425 0.0937,0.203125 0.026,0.0391 0.0556,0.07592 0.0879,0.107422 0.0324,0.0316 0.0675,0.05948 0.10547,0.08398 0.038,0.0244 0.0782,0.0445 0.12109,0.0625 0.1072,0.045 0.22792,0.07103 0.35742,0.08203 0.3624,0.0308 0.79035,-0.05364 1.15235,-0.152344 l 2.70703,-0.751953 0.75195,-0.1875 c 0.0752,-0.0282 0.14825,-0.06201 0.21875,-0.09961 0.0706,-0.0377 0.13928,-0.07995 0.20508,-0.126953 0.1316,-0.094 0.25439,-0.206291 0.36718,-0.337891 l 1.42969,-1.65625 -0.33985,1.015625 c -0.0188,0.0611 -0.0327,0.118222 -0.043,0.169922 -0.0103,0.0517 -0.0166,0.09832 -0.0176,0.140625 -0.003,0.1164 0.0295,0.196987 0.10352,0.242187 0.007,0.0041 0.0145,0.0082 0.0215,0.01172 0.007,0.0035 0.0154,0.0069 0.0234,0.0098 0.0244,0.0088 0.0512,0.01603 0.082,0.01953 0.0823,0.0094 0.18872,-0.0011 0.32032,-0.0293 l 3.00781,-0.751953 0.15039,-0.03711 2.06836,-0.527343 h 0.002 v -0.002 h 0.002 l 0.002,-0.002 c 0.009,-0.0078 0.0207,-0.01298 0.0352,-0.01758 0.0329,-0.0106 0.0745,-0.01443 0.10743,-0.01563 0.0165,-5.88e-4 0.032,0 0.041,0 l 1.01563,-0.263671 1.08984,-1.128907 0.49023,0.677735 1.654293,-0.414063 -1.01562,-1.429687 z m -29.037097,4.625 c -0.3386,0.0376 -0.67712,0.114253 -1.01562,0.189453 l -3.83594,1.015626 1.35352,0.601562 -1.73047,5.453125 1.31836,-0.375 0.52539,-1.65625 0.03711,-0.03711 c 1.2789,-0.6018 4.25146,-2.3694 4.28906,-4.25 v -0.03711 c 0,-0.7147 -0.37721,-0.904297 -0.94141,-0.904296 z m 13.878914,0.07617 -0.30078,0.675781 -0.75195,0.189454 0.18945,-0.640625 z m -15.005864,1.166016 c 0.15045,0 0.26271,5.06e-4 0.33789,0.113281 0.1128,0.1129 0.18799,0.263563 0.15039,0.414063 v 0.111328 c -0.0752,1.2413 -1.61733,2.219603 -2.33203,2.595703 l -0.15039,0.07617 0.97852,-3.083985 0.41406,-0.113281 c 0.1881,-0.0377 0.37586,-0.07568 0.60156,-0.113281 z m 9.929694,0.226562 -0.56445,1.765625 c -0.001,4e-4 -0.3329,0.133897 -0.5625,0.0918 -0.0362,-0.0066 -0.0701,-0.01866 -0.0996,-0.03516 -0.01,-0.0055 -0.0183,-0.01078 -0.0273,-0.01758 -0.0176,-0.0135 -0.034,-0.02963 -0.0469,-0.04883 -0.003,-0.0048 -0.007,-0.01043 -0.01,-0.01563 -0.003,-0.0052 -0.005,-0.01002 -0.008,-0.01563 -0.005,-0.0112 -0.008,-0.02236 -0.0117,-0.03516 -0.007,-0.0256 -0.0114,-0.05519 -0.0117,-0.08789 -5e-4,-0.049 0.008,-0.106928 0.0254,-0.173828 l 0.375,-1.203125 z m 43.517563,2.029297 -1.69336,5.041016 c -0.4889,-0.2257 -0.82667,-0.715097 -0.78907,-1.279297 0,-1.3165 1.20363,-3.460819 2.48243,-3.761719 z"
     sodipodi:nodetypes="ccccccccccccccccccccccccccccccccccccccsccccccccccccccccccccccccccccccccccccccccccccccccccccccccccccccccccccccccccccccccccccccsscscccccccscsccccscscccsscsscscccccccccccccccccccccccssscsccscccccccsccccsscccccccssccsccsccccccccsccccccsccsccsssscccccsccccccccccccccccsccsccccccsccsccscccccccccscssccccscccsccscccccccccccsccccccccccccccccsccccccscccccccssccccccscccccccccc" /></svg>
