<svg
  
  
   viewBox="0 0 140.3140 110.6577"
   version="1.1000"
   id="svg1"
   xml:space="preserve"
   sodipodi:docname="group-team-logo-doc.svg"
   inkscape:version="1.4000.2 (2aeb623e1d, 2025-05-12)"
   xmlns:inkscape="http://www.inkscape.org/namespaces/inkscape"
   xmlns:sodipodi="http://sodipodi.sourceforge.net/DTD/sodipodi-0.dtd"
   xmlns="http://www.w3.org/2000/svg"
   xmlns:svg="http://www.w3.org/2000/svg"><sodipodi:namedview
     id="namedview1"
     pagecolor="#ffffff"
     bordercolor="#000000"
     borderopacity="0.2500"
     inkscape:showpageshadow="2"
     inkscape:pageopacity="0.0000"
     inkscape:pagecheckerboard="0"
     inkscape:deskcolor="#d1d1d1"
     inkscape:document-units="px"
     inkscape:zoom="0.2462"
     inkscape:cx="-787.9806"
     inkscape:cy="-87.3277"
     inkscape:window-width="1854"
     inkscape:window-height="1011"
     inkscape:window-x="0"
     inkscape:window-y="0"
     inkscape:window-maximized="1"
     inkscape:current-layer="layer1"><inkscape:page
       x="0"
       y="0"
      
      
       id="page179"
       margin="0"
       bleed="0" /></sodipodi:namedview><defs
     id="defs1" /><g
     inkscape:label="Layer 1"
     inkscape:groupmode="layer"
     id="layer1"
     transform="translate(-167.8059)" /><g
     inkscape:groupmode="layer"
     id="layer3"
     inkscape:label="Layer 2"
     transform="translate(-167.8059)"><g
       id="g185"
       transform="matrix(1.9276,0,0,1.9276,-158.7774,-39.6905)"><path
         d="m 205.7858,22.2526 c -0.0191,0.0027 -0.0550,0.0256 -0.0830,0.0536 -0.0299,0.0299 -1.2375,0.9175 -2.6809,1.9724 -1.4434,1.0549 -2.8657,2.0948 -3.1615,2.3100 -0.2929,0.2152 -0.6633,0.4839 -0.8217,0.6004 -0.1584,0.1165 -0.3735,0.2720 -0.4781,0.3497 -0.1076,0.0777 -0.4961,0.3647 -0.8637,0.6337 -0.3676,0.2719 -0.9804,0.7171 -1.3599,0.9951 -0.3795,0.2749 -1.4643,1.0698 -2.4146,1.7602 -0.9473,0.6933 -2.4293,1.7750 -3.2929,2.4085 -0.8636,0.6305 -1.8557,1.3536 -2.2054,1.6076 -0.3467,0.2540 -0.7861,0.5771 -0.9743,0.7175 -0.1913,0.1405 -1.0279,0.7528 -1.8587,1.3594 -0.8337,0.6066 -1.7302,1.2612 -1.9931,1.4554 -0.2630,0.1942 -1.1506,0.8427 -1.9724,1.4433 -0.8218,0.5977 -2.1159,1.5419 -2.8749,2.0977 -0.7590,0.5558 -1.7003,1.2433 -2.0947,1.5302 l -0.7171,0.5200 c -0.0030,3.3858 0.0121,3.8758 0.0748,4.6169 0.0418,0.4961 0.0923,1.0637 0.1163,1.2639 0.0209,0.2002 0.0898,0.6994 0.1496,1.1118 0.0628,0.4094 0.1643,1.0130 0.2330,1.3387 0.0658,0.3287 0.2032,0.9385 0.3078,1.3599 0.1076,0.4214 0.2332,0.9143 0.2840,1.0936 0.0508,0.1793 0.1702,0.5590 0.2628,0.8429 0.0926,0.2839 0.2454,0.7321 0.3411,0.9951 0.0956,0.2630 0.2361,0.6335 0.3078,0.8247 0.0747,0.1883 0.2599,0.6277 0.4093,0.9743 0.1524,0.3496 0.4602,1.0038 0.6873,1.4580 0.2271,0.4512 0.5138,0.9951 0.6363,1.2043 0.1195,0.2122 0.3170,0.5472 0.4336,0.7474 0.1165,0.2002 0.4480,0.7169 0.7379,1.1502 0.2869,0.4303 0.7175,1.0431 0.9536,1.3599 0.2391,0.3168 0.5885,0.7650 0.7798,0.9951 0.1913,0.2331 0.5288,0.6274 0.7500,0.8814 0.2211,0.2540 0.7742,0.8309 1.2285,1.2881 0.4542,0.4542 1.0578,1.0311 1.3417,1.2821 0.2839,0.2510 0.7321,0.6303 0.9951,0.8425 0.2630,0.2122 0.7112,0.5590 0.9981,0.7711 0.2839,0.2122 0.7053,0.5142 0.9384,0.6726 0.2301,0.1584 0.6545,0.4332 0.9384,0.6095 0.2839,0.1763 0.7676,0.4661 1.0724,0.6454 0.3048,0.1763 0.9594,0.5231 1.4554,0.7681 0.4961,0.2480 1.1506,0.5558 1.4554,0.6873 0.3048,0.1315 0.6845,0.2900 0.8429,0.3527 0.1584,0.0628 0.5974,0.2269 0.9769,0.3614 0.3795,0.1345 0.9743,0.3320 1.3210,0.4396 0.3496,0.1046 0.9353,0.2657 1.3028,0.3583 0.3706,0.0926 0.7920,0.1971 0.9384,0.2300 0.1494,0.0329 0.5379,0.1136 0.8637,0.1764 0.3257,0.0628 0.9473,0.1646 1.3776,0.2243 0.4333,0.0598 1.0787,0.1374 1.4372,0.1703 0.3586,0.0359 0.9267,0.0806 1.2644,0.0986 0.3377,0.0209 0.8544,0.0507 1.1502,0.0627 0.2958,0.0149 0.9144,0.0062 1.3776,-0.0177 0.4662,-0.0269 1.0760,-0.0629 1.3629,-0.0839 0.2839,-0.0209 0.6781,-0.0569 0.8783,-0.0778 0.2002,-0.0239 0.5799,-0.0657 0.8459,-0.0985 0.2630,-0.0299 0.7889,-0.1076 1.1684,-0.1703 0.3765,-0.0628 0.9651,-0.1760 1.2998,-0.2507 0.3377,-0.0717 0.8456,-0.1946 1.1325,-0.2693 0.2839,-0.0747 0.7501,-0.1999 1.0340,-0.2836 0.2839,-0.0807 0.7413,-0.2242 1.0162,-0.3168 0.2719,-0.0956 0.6692,-0.2331 0.8783,-0.3108 0.2122,-0.0777 0.6007,-0.2304 0.8637,-0.3350 0.2630,-0.1076 0.7291,-0.3077 1.0340,-0.4422 0.3048,-0.1375 0.7802,-0.3614 1.0551,-0.4988 0.2719,-0.1375 0.7799,-0.4066 1.1295,-0.6008 0.3467,-0.1942 0.8396,-0.4809 1.0906,-0.6333 0.2540,-0.1554 0.6934,-0.4364 0.9773,-0.6276 0.2839,-0.1913 0.7413,-0.5113 1.0162,-0.7115 0.2749,-0.1972 0.6604,-0.4900 0.8606,-0.6484 0.2002,-0.1584 0.5198,-0.4183 0.7080,-0.5766 0.1913,-0.1584 0.5020,-0.4244 0.6903,-0.5948 0.1913,-0.1703 0.3554,-0.3166 0.3644,-0.3285 0.0119,-0.0090 0.2003,-0.1915 0.4184,-0.4007 0.2182,-0.2122 0.6036,-0.6007 0.8606,-0.8636 0.2540,-0.2630 0.5349,-0.5558 0.6186,-0.6514 0.0867,-0.0926 0.3260,-0.3705 0.5382,-0.6125 0.2092,-0.2421 0.5885,-0.7082 0.8425,-1.0340 0.2540,-0.3257 0.5920,-0.7739 0.7504,-0.9951 0.1584,-0.2211 0.4094,-0.5829 0.5559,-0.8040 0.1494,-0.2211 0.3882,-0.5917 0.5317,-0.8247 0.1434,-0.2301 0.3884,-0.6453 0.5468,-0.9203 0.1584,-0.2719 0.4635,-0.8430 0.6786,-1.2644 0.2152,-0.4214 0.5198,-1.0575 0.6782,-1.4161 0.1584,-0.3586 0.3853,-0.8937 0.4988,-1.1865 0.1165,-0.2958 0.3197,-0.8489 0.4482,-1.2254 0.1285,-0.3795 0.3111,-0.9501 0.4037,-1.2639 0.0926,-0.3168 0.2208,-0.7830 0.2836,-1.0370 0.0657,-0.2510 0.1764,-0.7259 0.2481,-1.0517 0.0717,-0.3257 0.1854,-0.9055 0.2481,-1.2821 0.0657,-0.3795 0.1522,-0.9681 0.1941,-1.3028 0.0418,-0.3377 0.0958,-0.8218 0.1197,-1.0729 0.0209,-0.2540 0.0569,-0.7114 0.0778,-1.0162 0.0239,-0.3048 0.0506,-1.3478 0.0596,-2.3160 0.0119,-0.9712 0.0060,-1.7808 -0.0121,-1.8047 -0.0179,-0.0209 -0.1673,-0.1434 -0.3376,-0.2689 -0.1673,-0.1285 -0.6155,-0.4573 -0.9951,-0.7292 -0.3795,-0.2749 -1.0639,-0.7740 -1.5181,-1.1087 -0.4572,-0.3347 -1.0696,-0.7829 -1.3625,-0.9951 -0.2899,-0.2152 -0.9268,-0.6783 -1.4109,-1.0309 -0.4841,-0.3556 -1.0008,-0.7353 -1.1502,-0.8429 -0.1464,-0.1106 -0.9980,-0.7322 -1.8885,-1.3837 -0.8905,-0.6515 -1.9336,-1.4135 -2.3190,-1.6914 -0.3825,-0.2809 -0.8070,-0.5917 -0.9445,-0.6903 -0.1375,-0.0986 -0.5080,-0.3703 -0.8247,-0.6034 -0.3138,-0.2331 -0.6843,-0.5052 -0.8217,-0.6039 -0.1375,-0.0986 -0.3885,-0.2778 -0.5559,-0.4033 -0.1703,-0.1225 -0.7560,-0.5497 -1.3028,-0.9501 -0.5469,-0.4004 -1.4525,-1.0611 -2.0113,-1.4705 -0.5588,-0.4094 -1.4135,-1.0341 -1.8976,-1.3867 -0.4841,-0.3556 -1.1386,-0.8337 -1.4554,-1.0638 -0.3168,-0.2301 -0.8875,-0.6484 -1.2700,-0.9294 -0.3825,-0.2779 -1.0366,-0.7559 -1.4550,-1.0608 -0.4184,-0.3048 -0.9504,-0.6934 -1.1835,-0.8667 -0.2301,-0.1733 -1.1954,-0.8784 -2.1457,-1.5687 -0.9473,-0.6903 -1.8257,-1.3299 -1.9512,-1.4226 -0.1285,-0.0956 -0.4157,-0.3077 -0.6428,-0.4750 -0.2271,-0.1673 -0.4273,-0.3047 -0.4422,-0.3047 -0.0010,0 -0.0020,-1.8300e-4 -0.0030,0 z m 0.0264,1.0089 c 0.0030,8.3000e-5 0.0050,3.0200e-4 0.0070,8.6500e-4 0.0329,0.0060 0.3081,0.1943 0.6129,0.4184 0.3048,0.2241 0.9681,0.7114 1.4762,1.0819 0.5050,0.3706 1.2043,0.8785 1.5509,1.1295 0.3467,0.2540 0.7948,0.5798 0.9950,0.7292 0.2002,0.1464 0.5557,0.4033 0.7859,0.5736 0.2331,0.1673 0.6453,0.4693 0.9203,0.6696 0.2719,0.2002 0.7056,0.5167 0.9566,0.6990 0.2540,0.1823 0.6575,0.4782 0.9026,0.6605 0.2420,0.1793 0.5256,0.3886 0.6302,0.4604 0.1046,0.0717 0.2182,0.1525 0.2481,0.1794 0.0329,0.0239 0.1374,0.1016 0.2300,0.1733 0.0956,0.0717 0.5500,0.4032 1.0132,0.7409 0.4602,0.3347 1.3566,0.9892 1.9931,1.4524 0.6335,0.4632 1.6379,1.1954 2.2266,1.6257 0.5887,0.4303 1.2731,0.9325 1.5181,1.1118 0.2450,0.1793 0.5884,0.4330 0.7647,0.5615 0.1763,0.1255 1.1298,0.8252 2.1220,1.5483 0.9891,0.7232 1.9545,1.4312 2.1457,1.5687 0.1883,0.1405 0.4568,0.3345 0.5913,0.4331 0.1375,0.0986 0.6936,0.5021 1.2345,0.8995 0.5379,0.3945 1.6046,1.1745 2.3666,1.7333 0.7620,0.5588 1.4762,1.0786 1.5838,1.1593 0.1106,0.0777 0.2928,0.2124 0.4093,0.2931 0.1166,0.0837 0.5230,0.3795 0.8995,0.6544 0.3795,0.2779 0.7354,0.5469 0.8818,0.6903 v 1.5600 c -0.0030,0.8577 -0.0241,1.8616 -0.0510,2.2322 -0.0269,0.3676 -0.0805,0.9804 -0.1223,1.3599 -0.0418,0.3795 -0.1138,0.9292 -0.1556,1.2250 -0.0418,0.2958 -0.1375,0.8367 -0.2122,1.2073 -0.0717,0.3676 -0.2091,0.9804 -0.3047,1.3599 -0.0956,0.3795 -0.2239,0.8694 -0.2896,1.0906 -0.0627,0.2211 -0.1945,0.6456 -0.2900,0.9384 -0.0956,0.2958 -0.2748,0.8126 -0.4003,1.1502 -0.1255,0.3377 -0.3559,0.9058 -0.5083,1.2644 -0.1554,0.3586 -0.3885,0.8753 -0.5200,1.1472 -0.1315,0.2749 -0.3673,0.7411 -0.5256,1.0340 -0.1584,0.2958 -0.4366,0.7892 -0.6129,1.0940 -0.1793,0.3048 -0.5735,0.9264 -0.8783,1.3776 -0.3018,0.4542 -0.6039,0.9025 -0.6726,0.9981 -0.0687,0.0956 -0.3075,0.4064 -0.5286,0.6903 -0.2211,0.2839 -0.5289,0.6693 -0.6873,0.8576 -0.1584,0.1883 -0.4603,0.5350 -0.6665,0.7681 -0.2092,0.2301 -0.6394,0.6840 -0.9592,1.0098 -0.3168,0.3227 -0.8189,0.8069 -1.1148,1.0759 -0.2958,0.2689 -0.7559,0.6663 -1.0219,0.8874 -0.2660,0.2181 -0.6426,0.5201 -0.8338,0.6665 -0.1942,0.1464 -0.3975,0.3049 -0.4543,0.3497 -0.0568,0.0448 -0.3110,0.2240 -0.5650,0.4033 -0.2510,0.1763 -0.7080,0.4844 -1.0128,0.6817 -0.3078,0.1972 -0.8847,0.5467 -1.2851,0.7768 -0.4004,0.2301 -1.0905,0.5945 -1.5328,0.8157 -0.4423,0.2181 -1.1060,0.5263 -1.4736,0.6817 -0.3705,0.1554 -0.8425,0.3494 -1.0547,0.4271 -0.2092,0.0807 -0.6754,0.2449 -1.0340,0.3674 -0.3586,0.1195 -0.8937,0.2903 -1.1865,0.3769 -0.2959,0.0837 -0.8126,0.2241 -1.1502,0.3078 -0.3377,0.0807 -0.9145,0.2089 -1.2851,0.2836 -0.3676,0.0747 -0.9624,0.1796 -1.3210,0.2304 -0.3586,0.0538 -0.9951,0.1315 -1.4165,0.1733 -0.4214,0.0418 -1.1294,0.0984 -1.5717,0.1223 -0.4871,0.0269 -1.2254,0.0357 -1.8769,0.0238 -0.5917,-0.0149 -1.4012,-0.0506 -1.8016,-0.0834 -0.4004,-0.0329 -0.8728,-0.0776 -1.0521,-0.0986 -0.1793,-0.0209 -0.5678,-0.0719 -0.8637,-0.1167 -0.2929,-0.0418 -0.7678,-0.1195 -1.0517,-0.1703 -0.2839,-0.0538 -0.7176,-0.1403 -0.9596,-0.1941 -0.2421,-0.0538 -0.6811,-0.1587 -0.9769,-0.2304 -0.2928,-0.0747 -0.8100,-0.2178 -1.1477,-0.3194 -0.3377,-0.1046 -0.8368,-0.2631 -1.1118,-0.3588 -0.2749,-0.0956 -0.6872,-0.2449 -0.9203,-0.3315 -0.2301,-0.0896 -0.5856,-0.2301 -0.7859,-0.3138 -0.2002,-0.0867 -0.5348,-0.2333 -0.7469,-0.3259 -0.2092,-0.0956 -0.7355,-0.3494 -1.1688,-0.5645 -0.4303,-0.2181 -1.0159,-0.5290 -1.3028,-0.6933 -0.2839,-0.1644 -0.6961,-0.4093 -0.9173,-0.5468 -0.2211,-0.1345 -0.6606,-0.4216 -0.9773,-0.6367 -0.3168,-0.2152 -0.7738,-0.5378 -1.0158,-0.7171 -0.2420,-0.1823 -0.6845,-0.5230 -0.9804,-0.7651 -0.2988,-0.2391 -0.8335,-0.6965 -1.1891,-1.0162 -0.3556,-0.3198 -0.9149,-0.8544 -1.2406,-1.1891 -0.3287,-0.3317 -0.7945,-0.8307 -1.0396,-1.1027 -0.2420,-0.2749 -0.6902,-0.8097 -0.9950,-1.1922 -0.3018,-0.3795 -0.6605,-0.8457 -0.7980,-1.0340 -0.1345,-0.1883 -0.4483,-0.6427 -0.6933,-1.0132 -0.2480,-0.3676 -0.5857,-0.9027 -0.7530,-1.1865 -0.1703,-0.2839 -0.4214,-0.7229 -0.5589,-0.9769 -0.1404,-0.2510 -0.4153,-0.7949 -0.6155,-1.2073 -0.2002,-0.4094 -0.4694,-0.9954 -0.6008,-1.3002 -0.1315,-0.3078 -0.3378,-0.8245 -0.4603,-1.1502 -0.1195,-0.3257 -0.2898,-0.8011 -0.3765,-1.0551 -0.0837,-0.2510 -0.2421,-0.7589 -0.3467,-1.1295 -0.1046,-0.3676 -0.2508,-0.9202 -0.3225,-1.2250 -0.0747,-0.3048 -0.1853,-0.8132 -0.2481,-1.1299 -0.0657,-0.3168 -0.1614,-0.8577 -0.2122,-1.2073 -0.0538,-0.3466 -0.1253,-0.8725 -0.1582,-1.1684 -0.0329,-0.2929 -0.0777,-0.7260 -0.0986,-0.9562 -0.0239,-0.2331 -0.0510,-1.2997 -0.0869,-4.3299 l 0.2062,-0.1617 c 0.1165,-0.0896 0.6215,-0.4663 1.1295,-0.8338 0.5050,-0.3706 1.0910,-0.7977 1.3002,-0.9501 0.2122,-0.1524 0.9022,-0.6572 1.5328,-1.1204 0.6335,-0.4632 1.2551,-0.9176 1.3837,-1.0132 0.1285,-0.0956 0.4032,-0.2927 0.6065,-0.4392 0.2032,-0.1494 0.4872,-0.3558 0.6276,-0.4604 0.1404,-0.1076 0.2928,-0.2183 0.3406,-0.2511 0.0448,-0.0299 0.4812,-0.3494 0.9683,-0.7080 0.4901,-0.3556 0.9774,-0.7142 1.0850,-0.7949 0.1106,-0.0777 0.2958,-0.2124 0.4093,-0.2931 0.1165,-0.0837 0.5261,-0.3822 0.9056,-0.6631 0.3825,-0.2779 1.1683,-0.8516 1.7450,-1.2730 0.5767,-0.4214 1.2550,-0.9174 1.5060,-1.1027 0.2540,-0.1853 0.8550,-0.6247 1.3361,-0.9773 0.4811,-0.3526 1.2669,-0.9263 1.7420,-1.2730 0.4781,-0.3496 1.2912,-0.9444 1.8081,-1.3210 0.5170,-0.3765 1.4222,-1.0398 2.0109,-1.4701 0.5917,-0.4303 1.6049,-1.1743 2.2564,-1.6495 0.6515,-0.4751 1.3148,-0.9594 1.4731,-1.0789 0.1614,-0.1165 0.4932,-0.3558 0.7353,-0.5321 0.2420,-0.1763 0.5708,-0.4152 0.7292,-0.5347 0.1614,-0.1165 0.5047,-0.3707 0.7677,-0.5619 0.2600,-0.1913 0.8368,-0.6096 1.2791,-0.9324 0.4423,-0.3227 0.8817,-0.6454 0.9773,-0.7171 0.0897,-0.0644 0.1844,-0.1158 0.2230,-0.1145 z"
         style="clip-rule:evenodd;display:inline;fill:#78be21;stroke-width:0.2988;stroke-linejoin:round;stroke-miterlimit:2"
         id="path184" /><path
         d="m 206.4348,51.7472 -1.0101,0.0209 c -0.5020,1.2163 -0.6993,1.6914 -0.7620,1.8378 -0.0627,0.1464 -0.1285,0.3108 -0.1464,0.3646 -0.0179,0.0538 -0.0956,0.2421 -0.1703,0.4214 -0.0777,0.1793 -0.1823,0.4363 -0.2361,0.5738 -0.0538,0.1375 -0.0867,0.2719 -0.0747,0.2988 0.0149,0.0329 0.1733,0.0478 0.5977,0.0478 0.5110,0 0.5767,0.0060 0.5977,0.0657 0.0149,0.0359 -0.0717,0.4991 -0.1913,1.0250 -0.1165,0.5259 -0.2839,1.2671 -0.3735,1.6466 -0.0867,0.3795 -0.1823,0.7919 -0.2092,0.9204 -0.0299,0.1255 -0.0508,0.2630 -0.0538,0.3048 0,0.0687 0.0060,0.0717 0.0478,0.0149 0.0269,-0.0329 0.0777,-0.1016 0.1136,-0.1524 0.0359,-0.0508 0.2420,-0.3556 0.4602,-0.6784 0.2152,-0.3227 0.4094,-0.6126 0.4303,-0.6485 0.0209,-0.0329 0.2630,-0.3974 0.5379,-0.8098 0.2749,-0.4124 0.5289,-0.7949 0.5678,-0.8457 0.0359,-0.0538 0.3586,-0.5379 0.7142,-1.0728 0.3556,-0.5379 0.6395,-0.9921 0.6305,-1.0071 -0.0090,-0.0149 -0.2839,-0.0269 -0.6096,-0.0269 -0.3586,0 -0.6036,-0.0179 -0.6156,-0.0389 -0.0090,-0.0209 0.0538,-0.1972 0.1375,-0.3945 0.0867,-0.1942 0.2421,-0.5528 0.3496,-0.7949 0.1046,-0.2421 0.2420,-0.5528 0.3048,-0.6873 0.0657,-0.1375 0.1106,-0.2839 0.1046,-0.3257 -0.0090,-0.0418 -0.0418,-0.0777 -0.0717,-0.0777 -0.0329,-0.0030 -0.5110,0.0060 -1.0698,0.0179 z"
         fill="#75b81d"
         id="path10-0"
         style="clip-rule:evenodd;display:inline;fill:#78be21;fill-opacity:1;fill-rule:nonzero;stroke-width:0.2988;stroke-linejoin:round;stroke-miterlimit:2" /><path
         d="m 217.9548,58.4710 c 0.0239,0.0418 0.1345,0.1644 0.2450,0.2690 l 0.2032,0.1913 c -0.3526,-0.3855 -0.4632,-0.5080 -0.4722,-0.5170 -0.0090,-0.0120 0.0030,0.0149 0.0239,0.0568 z"
         fill="#75b81d"
         id="path15-6"
         style="clip-rule:evenodd;fill:#78be21;fill-opacity:1;fill-rule:nonzero;stroke-width:0.2988;stroke-linejoin:round;stroke-miterlimit:2" /><path
         d="m 205.8121,23.2615 c -0.0386,-0.0013 -0.1334,0.0501 -0.2230,0.1145 -0.0956,0.0717 -0.5351,0.3944 -0.9773,0.7171 -0.4423,0.3227 -1.0191,0.7411 -1.2791,0.9324 -0.2630,0.1913 -0.6063,0.4454 -0.7677,0.5619 -0.1584,0.1195 -0.4872,0.3584 -0.7292,0.5347 -0.2421,0.1763 -0.5739,0.4156 -0.7353,0.5321 -0.1584,0.1195 -0.8217,0.6038 -1.4731,1.0789 -0.6515,0.4751 -1.6647,1.2192 -2.2564,1.6495 -0.5887,0.4303 -1.4939,1.0936 -2.0109,1.4701 -0.5170,0.3765 -1.3300,0.9713 -1.8081,1.3210 -0.4752,0.3466 -1.2609,0.9204 -1.7420,1.2730 -0.4811,0.3526 -1.0821,0.7921 -1.3361,0.9773 -0.2510,0.1853 -0.9292,0.6813 -1.5060,1.1027 -0.5767,0.4214 -1.3625,0.9951 -1.7450,1.2730 -0.3795,0.2809 -0.7890,0.5794 -0.9056,0.6631 -0.1136,0.0807 -0.2988,0.2154 -0.4093,0.2931 -0.1076,0.0807 -0.5949,0.4393 -1.0850,0.7949 -0.4871,0.3586 -0.9234,0.6782 -0.9683,0.7080 -0.0478,0.0329 -0.2002,0.1436 -0.3406,0.2511 -0.1404,0.1046 -0.4244,0.3109 -0.6276,0.4604 -0.2032,0.1464 -0.4780,0.3435 -0.6065,0.4392 -0.1285,0.0956 -0.7501,0.5500 -1.3837,1.0132 -0.6305,0.4632 -1.3206,0.9680 -1.5328,1.1204 -0.2092,0.1524 -0.7952,0.5795 -1.3002,0.9501 -0.5080,0.3676 -1.0130,0.7442 -1.1295,0.8338 l -0.2062,0.1617 c 0.0359,3.0302 0.0630,4.0968 0.0869,4.3299 0.0209,0.2301 0.0657,0.6633 0.0986,0.9562 0.0329,0.2958 0.1044,0.8217 0.1582,1.1684 0.0508,0.3496 0.1465,0.8905 0.2122,1.2073 0.0628,0.3168 0.1734,0.8251 0.2481,1.1299 0.0717,0.3048 0.2179,0.8575 0.3225,1.2250 0.1046,0.3706 0.2630,0.8785 0.3467,1.1295 0.0867,0.2540 0.2570,0.7294 0.3765,1.0551 0.1225,0.3257 0.3289,0.8424 0.4603,1.1502 0.1315,0.3048 0.4006,0.8908 0.6008,1.3002 0.2002,0.4124 0.4751,0.9563 0.6155,1.2073 0.1375,0.2540 0.3886,0.6930 0.5589,0.9769 0.1673,0.2839 0.5050,0.8190 0.7530,1.1865 0.2450,0.3706 0.5589,0.8249 0.6933,1.0132 0.1375,0.1883 0.4961,0.6544 0.7980,1.0340 0.3048,0.3825 0.7530,0.9172 0.9950,1.1922 0.2450,0.2719 0.7109,0.7710 1.0396,1.1027 0.3257,0.3347 0.8850,0.8694 1.2406,1.1891 0.3556,0.3198 0.8903,0.7772 1.1891,1.0162 0.2958,0.2421 0.7383,0.5828 0.9804,0.7651 0.2421,0.1793 0.6990,0.5020 1.0158,0.7171 0.3168,0.2152 0.7562,0.5022 0.9773,0.6367 0.2211,0.1375 0.6334,0.3824 0.9173,0.5468 0.2869,0.1644 0.8725,0.4752 1.3028,0.6933 0.4333,0.2152 0.9596,0.4689 1.1688,0.5645 0.2122,0.0926 0.5467,0.2393 0.7469,0.3259 0.2002,0.0837 0.5557,0.2242 0.7859,0.3138 0.2331,0.0867 0.6453,0.2359 0.9203,0.3315 0.2749,0.0956 0.7741,0.2542 1.1118,0.3588 0.3377,0.1016 0.8548,0.2447 1.1477,0.3194 0.2959,0.0717 0.7348,0.1766 0.9769,0.2304 0.2420,0.0538 0.6757,0.1403 0.9596,0.1941 0.2839,0.0508 0.7588,0.1285 1.0517,0.1703 0.2958,0.0448 0.6844,0.0958 0.8637,0.1167 0.1793,0.0209 0.6517,0.0657 1.0521,0.0986 0.4004,0.0329 1.2100,0.0685 1.8016,0.0834 0.6514,0.0120 1.3898,0.0031 1.8769,-0.0238 0.4423,-0.0239 1.1503,-0.0805 1.5717,-0.1223 0.4214,-0.0418 1.0579,-0.1195 1.4165,-0.1733 0.3586,-0.0508 0.9534,-0.1557 1.3210,-0.2304 0.3705,-0.0747 0.9474,-0.2029 1.2851,-0.2836 0.3377,-0.0837 0.8544,-0.2241 1.1502,-0.3078 0.2929,-0.0867 0.8279,-0.2574 1.1865,-0.3769 0.3586,-0.1225 0.8248,-0.2867 1.0340,-0.3674 0.2122,-0.0777 0.6842,-0.2717 1.0547,-0.4271 0.3676,-0.1554 1.0313,-0.4635 1.4736,-0.6817 0.4423,-0.2211 1.1323,-0.5856 1.5328,-0.8157 0.4004,-0.2301 0.9773,-0.5795 1.2851,-0.7768 0.3048,-0.1972 0.7618,-0.5054 1.0128,-0.6817 0.2540,-0.1793 0.5082,-0.3585 0.5650,-0.4033 0.0568,-0.0448 0.2601,-0.2033 0.4543,-0.3497 0.1913,-0.1464 0.5679,-0.4484 0.8338,-0.6665 0.2660,-0.2211 0.7260,-0.6185 1.0219,-0.8874 0.2959,-0.2689 0.7980,-0.7531 1.1148,-1.0759 0.3198,-0.3257 0.7500,-0.7796 0.9592,-1.0098 0.2062,-0.2331 0.5081,-0.5799 0.6665,-0.7681 0.1584,-0.1883 0.4662,-0.5737 0.6873,-0.8576 0.2211,-0.2839 0.4599,-0.5947 0.5286,-0.6903 0.0687,-0.0956 0.3708,-0.5439 0.6726,-0.9981 0.3048,-0.4512 0.6990,-1.0728 0.8783,-1.3776 0.1763,-0.3048 0.4546,-0.7982 0.6129,-1.0940 0.1584,-0.2929 0.3941,-0.7590 0.5256,-1.0340 0.1315,-0.2719 0.3646,-0.7886 0.5200,-1.1472 0.1524,-0.3586 0.3828,-0.9267 0.5083,-1.2644 0.1255,-0.3377 0.3046,-0.8544 0.4003,-1.1502 0.0956,-0.2929 0.2273,-0.7173 0.2900,-0.9384 0.0657,-0.2211 0.1940,-0.7111 0.2896,-1.0906 0.0956,-0.3795 0.2330,-0.9923 0.3047,-1.3599 0.0747,-0.3706 0.1704,-0.9114 0.2122,-1.2073 0.0418,-0.2958 0.1138,-0.8455 0.1556,-1.2250 0.0418,-0.3795 0.0954,-0.9923 0.1223,-1.3599 0.0269,-0.3706 0.0480,-1.3745 0.0510,-2.2322 v -1.5600 c -0.1464,-0.1434 -0.5023,-0.4124 -0.8818,-0.6903 -0.3765,-0.2749 -0.7830,-0.5708 -0.8995,-0.6544 -0.1165,-0.0807 -0.2988,-0.2154 -0.4093,-0.2931 -0.1076,-0.0807 -0.8218,-0.6005 -1.5838,-1.1593 -0.7620,-0.5588 -1.8287,-1.3389 -2.3666,-1.7333 -0.5409,-0.3974 -1.0971,-0.8009 -1.2345,-0.8995 -0.1345,-0.0986 -0.4031,-0.2927 -0.5913,-0.4331 -0.1913,-0.1375 -1.1566,-0.8455 -2.1457,-1.5687 -0.9921,-0.7232 -1.9456,-1.4228 -2.1220,-1.5483 -0.1763,-0.1285 -0.5196,-0.3822 -0.7647,-0.5615 -0.2450,-0.1793 -0.9294,-0.6814 -1.5181,-1.1118 -0.5887,-0.4303 -1.5930,-1.1625 -2.2266,-1.6257 -0.6365,-0.4632 -1.5329,-1.1177 -1.9931,-1.4524 -0.4632,-0.3377 -0.9176,-0.6692 -1.0132,-0.7409 -0.0926,-0.0717 -0.1971,-0.1494 -0.2300,-0.1733 -0.0299,-0.0269 -0.1435,-0.1077 -0.2481,-0.1794 -0.1046,-0.0717 -0.3882,-0.2811 -0.6302,-0.4604 -0.2450,-0.1823 -0.6485,-0.4782 -0.9026,-0.6605 -0.2510,-0.1823 -0.6846,-0.4987 -0.9566,-0.6990 -0.2749,-0.2002 -0.6872,-0.5022 -0.9203,-0.6696 -0.2301,-0.1703 -0.5856,-0.4272 -0.7859,-0.5736 -0.2002,-0.1494 -0.6484,-0.4752 -0.9950,-0.7292 -0.3467,-0.2510 -1.0459,-0.7589 -1.5509,-1.1295 -0.5080,-0.3706 -1.1713,-0.8578 -1.4762,-1.0819 -0.3048,-0.2241 -0.5801,-0.4124 -0.6129,-0.4184 -0.0020,-5.6300e-4 -0.0040,-7.8200e-4 -0.0070,-8.6500e-4 z"
         style="clip-rule:evenodd;display:inline;fill:#2c5234;stroke-width:0.2988;stroke-linejoin:round;stroke-miterlimit:2"
         id="path185" /><path
         id="path3-5"
         style="clip-rule:evenodd;display:inline;fill:#fbe122;fill-opacity:1;fill-rule:nonzero;stroke-width:0.2988;stroke-linejoin:round;stroke-miterlimit:2"
         d="m 205.7803,24.8968 c -0.0299,0.0030 -0.1703,0.0899 -0.3047,0.1945 -0.1375,0.1046 -0.4065,0.3017 -0.5948,0.4361 -0.1913,0.1375 -0.7677,0.5589 -1.2847,0.9384 -0.5140,0.3795 -1.2374,0.9115 -1.6050,1.1775 -0.3676,0.2689 -0.7412,0.5407 -0.8308,0.6034 -0.0897,0.0628 -0.2718,0.1975 -0.4033,0.2991 -0.1345,0.1016 -0.9506,0.6991 -1.8142,1.3326 -0.8636,0.6305 -1.7780,1.2970 -2.0320,1.4852 -0.2510,0.1853 -0.9858,0.7230 -1.6283,1.1922 -0.6425,0.4692 -1.3927,1.0192 -1.6646,1.2194 -0.2749,0.2002 -0.6726,0.4900 -0.8818,0.6454 -0.2122,0.1554 -0.6244,0.4605 -0.9203,0.6756 -0.2958,0.2181 -0.8217,0.6006 -1.1684,0.8546 -0.3466,0.2540 -1.0279,0.7531 -1.5120,1.1087 -0.4871,0.3526 -1.0727,0.7828 -1.3028,0.9562 -0.2331,0.1703 -0.5409,0.3947 -0.6873,0.4993 -0.1434,0.1046 -0.3111,0.2328 -0.3709,0.2866 l -0.1072,0.0955 c -0.0209,7.6920 -0.0120,8.7708 0.0268,9.1742 0.0299,0.2839 0.0866,0.7651 0.1284,1.0729 0.0418,0.3048 0.1195,0.7802 0.1703,1.0521 0.0538,0.2749 0.1407,0.6722 0.1915,0.8814 0.0538,0.2122 0.1732,0.6424 0.2689,0.9592 0.0956,0.3138 0.2598,0.8071 0.3674,1.0910 0.1046,0.2839 0.2688,0.6962 0.3644,0.9203 0.0956,0.2211 0.3020,0.6605 0.4603,0.9743 0.1584,0.3168 0.3915,0.7558 0.5170,0.9769 0.1285,0.2211 0.2571,0.4363 0.2840,0.4811 0.0269,0.0418 0.2419,0.3588 0.4720,0.7085 0.2301,0.3466 0.5887,0.8396 0.7949,1.0966 0.2062,0.2570 0.4960,0.6095 0.6484,0.7858 0.1494,0.1763 0.5291,0.5767 0.8429,0.8935 0.3138,0.3168 0.7948,0.7654 1.0638,0.9955 0.2690,0.2331 0.6904,0.5764 0.9354,0.7616 0.2480,0.1883 0.6901,0.4991 0.9829,0.6964 0.2959,0.1942 0.7173,0.4603 0.9384,0.5918 0.2211,0.1315 0.7650,0.4155 1.2073,0.6307 0.4423,0.2181 1.0221,0.4812 1.2851,0.5887 0.2630,0.1046 0.7621,0.2868 1.1118,0.4033 0.3467,0.1165 0.9740,0.3017 1.3953,0.4063 0.4243,0.1076 1.0609,0.2450 1.4195,0.3078 0.3586,0.0598 0.9087,0.1405 1.2254,0.1764 0.4482,0.0538 0.8812,0.0688 1.9720,0.0717 0.9055,0 1.5691,-0.0177 1.8799,-0.0506 0.2630,-0.0269 0.7621,-0.0927 1.1087,-0.1435 0.3496,-0.0538 0.8905,-0.1556 1.2073,-0.2274 0.3168,-0.0717 0.8155,-0.1969 1.1113,-0.2805 0.2959,-0.0837 0.7950,-0.2422 1.1118,-0.3527 0.3168,-0.1106 0.8159,-0.3020 1.1118,-0.4275 0.2929,-0.1255 0.7410,-0.3288 0.9951,-0.4543 0.2540,-0.1225 0.5886,-0.2959 0.7469,-0.3825 0.1584,-0.0867 0.4512,-0.2539 0.6514,-0.3704 0.2002,-0.1195 0.5352,-0.3316 0.7474,-0.4720 0.2092,-0.1434 0.4870,-0.3318 0.6125,-0.4214 0.1255,-0.0896 0.3348,-0.2420 0.4603,-0.3376 0.1255,-0.0986 0.4363,-0.3467 0.6903,-0.5559 0.2510,-0.2092 0.7769,-0.6991 1.1684,-1.0906 0.3885,-0.3945 0.8902,-0.9296 1.1143,-1.1926 0.2211,-0.2630 0.5319,-0.6515 0.6903,-0.8636 0.1614,-0.2092 0.4037,-0.5467 0.5382,-0.7469 0.1375,-0.2002 0.3438,-0.5172 0.4603,-0.7085 0.1165,-0.1883 0.2808,-0.4631 0.3674,-0.6125 0.0837,-0.1464 0.2988,-0.5616 0.4781,-0.9172 0.1793,-0.3586 0.4392,-0.9297 0.5766,-1.2644 0.1375,-0.3377 0.3200,-0.8214 0.4037,-1.0724 0.0837,-0.2540 0.2211,-0.7022 0.3047,-0.9981 0.0837,-0.2929 0.1969,-0.7323 0.2507,-0.9773 0.0538,-0.2421 0.1346,-0.6547 0.1794,-0.9177 0.0448,-0.2630 0.1168,-0.7647 0.1617,-1.1113 0.0747,-0.6036 0.0806,-0.8336 0.0955,-5.0950 0.0060,-2.4534 0.0060,-4.5127 -0.0060,-4.5785 -0.0179,-0.0926 -0.1195,-0.1851 -0.5498,-0.5019 -0.2899,-0.2152 -0.8637,-0.6366 -1.2791,-0.9415 -0.4124,-0.3018 -1.1894,-0.8664 -1.7243,-1.2548 -0.5319,-0.3915 -1.1206,-0.8221 -1.3058,-0.9596 -0.1823,-0.1375 -0.4395,-0.3254 -0.5710,-0.4210 -0.1285,-0.0956 -0.3076,-0.2243 -0.3972,-0.2870 -0.0896,-0.0628 -0.4544,-0.3288 -0.8101,-0.5918 -0.3556,-0.2630 -0.7081,-0.5198 -0.7858,-0.5736 -0.0747,-0.0538 -0.4899,-0.3558 -0.9173,-0.6696 -0.4303,-0.3168 -1.0581,-0.7768 -1.3958,-1.0249 -0.3347,-0.2480 -0.9291,-0.6844 -1.3205,-0.9683 -0.3885,-0.2839 -0.8340,-0.6066 -0.9864,-0.7201 -0.1524,-0.1106 -0.3258,-0.2361 -0.3826,-0.2779 -0.0568,-0.0418 -0.4124,-0.3048 -0.7949,-0.5827 -0.3795,-0.2779 -0.9501,-0.6963 -1.2639,-0.9294 -0.3168,-0.2301 -1.0490,-0.7682 -1.6287,-1.1896 -0.5797,-0.4243 -1.1324,-0.8278 -1.2250,-0.8965 -0.0956,-0.0687 -0.4424,-0.3255 -0.7681,-0.5645 -0.3257,-0.2421 -0.6875,-0.5050 -0.8040,-0.5827 -0.1165,-0.0777 -0.2360,-0.1409 -0.2689,-0.1379 z m 0.0177,1.2873 c 0.0146,-8.0300e-4 0.0274,0.0013 0.0363,0.0069 0.0239,0.0120 0.1284,0.0805 0.2330,0.1552 0.1076,0.0717 0.2451,0.1735 0.3078,0.2243 0.0628,0.0508 0.4064,0.3019 0.7591,0.5589 0.3556,0.2570 0.7322,0.5257 0.8338,0.6004 0.1046,0.0747 0.6335,0.4602 1.1744,0.8606 0.5439,0.3974 1.1773,0.8637 1.4074,1.0370 0.2331,0.1703 0.6216,0.4543 0.8637,0.6307 0.2420,0.1763 0.5616,0.4094 0.7080,0.5170 0.1464,0.1106 0.7592,0.5588 1.3599,0.9981 0.6007,0.4393 1.1353,0.8309 1.1891,0.8697 0.0508,0.0389 0.2422,0.1793 0.4214,0.3108 0.1763,0.1285 0.8430,0.6127 1.4736,1.0759 0.6335,0.4602 1.1893,0.8754 1.2341,0.9172 0.0598,0.0568 0.0745,0.0986 0.0506,0.1375 -0.0179,0.0329 -0.1434,0.1703 -0.2749,0.3078 -0.1315,0.1375 -0.2926,0.3109 -0.3553,0.3886 -0.0657,0.0777 -0.2989,0.3613 -0.5200,0.6333 -0.2241,0.2690 -0.5020,0.6188 -0.6186,0.7772 -0.1165,0.1584 -0.3497,0.4959 -0.5200,0.7469 -0.1673,0.2540 -0.4544,0.7114 -0.6337,1.0162 -0.1793,0.3048 -0.4993,0.8992 -0.7055,1.3205 -0.2092,0.4214 -0.4778,1.0131 -0.5974,1.3119 -0.1225,0.3018 -0.2213,0.5798 -0.2213,0.6246 0,0.0598 0.0388,0.0808 0.2032,0.1107 0.1106,0.0209 0.3050,0.0569 0.4305,0.0808 0.1255,0.0239 0.2599,0.0389 0.2987,0.0328 0.0478,-0.0120 0.1345,-0.1673 0.2810,-0.5140 0.1136,-0.2719 0.2807,-0.6516 0.3674,-0.8429 0.0867,-0.1883 0.2812,-0.5767 0.4336,-0.8606 0.1494,-0.2839 0.3557,-0.6544 0.4573,-0.8247 0.1016,-0.1673 0.3136,-0.5049 0.4720,-0.7469 0.1584,-0.2421 0.4332,-0.6367 0.6125,-0.8788 0.1793,-0.2450 0.4931,-0.6393 0.6933,-0.8783 0.2032,-0.2421 0.5320,-0.6099 0.7322,-0.8161 0.1986,-0.2076 0.3796,-0.3769 0.4029,-0.3795 h 4.3000e-4 c 0.0209,0.0030 0.2690,0.1707 0.5559,0.3739 0.2839,0.2062 0.6482,0.4692 0.8096,0.5857 0.1614,0.1165 0.4454,0.3225 0.6307,0.4599 0.1883,0.1345 0.4960,0.3588 0.6843,0.4993 0.1913,0.1405 0.5082,0.3766 0.7085,0.5230 0.2002,0.1464 0.6721,0.4897 1.0456,0.7647 0.4004,0.2869 0.6904,0.5262 0.7024,0.5710 0.0090,0.0418 0.0119,1.6107 -0.0030,6.8941 l -36.2244,0.0208 -0.0182,-0.0864 c -0.0120,-0.0478 -0.0090,-1.5869 0,-3.4187 0.0119,-1.8348 0.0299,-3.3709 0.0389,-3.4187 0.0119,-0.0628 0.3497,-0.3288 1.1386,-0.9056 0.6156,-0.4482 1.3807,-1.0040 1.6975,-1.2341 0.3197,-0.2301 0.8966,-0.6515 1.2851,-0.9354 0.3855,-0.2839 0.7591,-0.5556 0.8278,-0.6034 0.0687,-0.0478 0.1521,-0.0869 0.1820,-0.0869 0.0329,0 0.2809,0.2480 0.5498,0.5468 0.2719,0.2988 0.6398,0.7264 0.8161,0.9475 0.1793,0.2211 0.4094,0.5227 0.5170,0.6722 0.1046,0.1464 0.2688,0.3795 0.3644,0.5170 0.0956,0.1345 0.3108,0.4724 0.4811,0.7474 0.1673,0.2719 0.4364,0.7381 0.5978,1.0340 0.1584,0.2929 0.3853,0.7410 0.4988,0.9951 0.1166,0.2540 0.2842,0.6395 0.3709,0.8606 0.0897,0.2211 0.1793,0.4156 0.2062,0.4275 0.0239,0.0149 0.1881,-0.0061 0.3674,-0.0419 0.1793,-0.0389 0.3913,-0.0810 0.4690,-0.0929 0.0926,-0.0149 0.1465,-0.0445 0.1465,-0.0804 0,-0.0329 -0.0865,-0.2691 -0.1911,-0.5261 -0.1016,-0.2600 -0.2333,-0.5739 -0.2900,-0.6994 -0.0568,-0.1285 -0.2451,-0.5140 -0.4184,-0.8636 -0.1733,-0.3466 -0.4692,-0.8905 -0.6544,-1.2043 -0.1853,-0.3168 -0.4570,-0.7558 -0.6065,-0.9769 -0.1494,-0.2211 -0.3917,-0.5679 -0.5382,-0.7681 -0.1494,-0.2002 -0.3795,-0.5022 -0.5140,-0.6696 -0.1375,-0.1673 -0.4303,-0.5110 -0.6544,-0.7621 -0.2241,-0.2510 -0.4541,-0.5140 -0.5109,-0.5857 -0.0598,-0.0687 -0.0959,-0.1490 -0.0869,-0.1759 0.0120,-0.0239 0.0957,-0.0989 0.1824,-0.1617 0.0897,-0.0628 0.4334,-0.3108 0.7621,-0.5529 0.3287,-0.2450 0.8695,-0.6423 1.2012,-0.8844 0.3287,-0.2421 0.7772,-0.5678 0.9894,-0.7232 0.2152,-0.1584 0.5110,-0.3736 0.6575,-0.4841 0.1494,-0.1076 0.5020,-0.3674 0.7858,-0.5736 0.2839,-0.2092 0.7589,-0.5560 1.0547,-0.7711 0.2929,-0.2181 0.6036,-0.4452 0.6873,-0.5079 0.0867,-0.0657 0.7114,-0.5263 1.3927,-1.0283 0.6813,-0.4990 1.2758,-0.9350 1.3236,-0.9678 0.0478,-0.0299 0.5413,-0.3916 1.1001,-0.8010 0.5558,-0.4094 1.1744,-0.8668 1.3746,-1.0162 0.1972,-0.1494 0.3943,-0.2899 0.4361,-0.3138 0.0262,-0.0168 0.0560,-0.0263 0.0804,-0.0277 z m -20.5417,13.7293 c -0.0179,0 -0.0689,0.0212 -0.1137,0.0480 -0.0450,0.0241 -0.3198,0.2210 -0.6125,0.4331 -0.2899,0.2122 -0.8395,0.6125 -1.2190,0.8904 -0.3795,0.2749 -0.7500,0.5470 -0.8247,0.6008 -0.0717,0.0568 -0.8548,0.6305 -1.7364,1.2760 -0.8816,0.6455 -1.8047,1.3180 -2.0498,1.4913 -0.2450,0.1763 -0.4931,0.3642 -0.5529,0.4210 l -0.1046,0.1046 c 0,1.9006 0.0176,2.7015 0.0385,3.0063 0.0209,0.3048 0.0661,0.8157 0.0990,1.1295 0.0299,0.3168 0.0897,0.8159 0.1344,1.1118 0.0418,0.2958 0.1345,0.8547 0.2092,1.2462 0.0747,0.3885 0.1971,0.9591 0.2689,1.2639 0.0747,0.3048 0.2029,0.7952 0.2896,1.0910 0.0837,0.2958 0.2333,0.7770 0.3290,1.0729 0.0956,0.2958 0.2866,0.8305 0.4240,1.1861 0.1375,0.3586 0.3258,0.8340 0.4184,1.0551 0.0956,0.2211 0.3349,0.7378 0.5351,1.1472 0.2002,0.4124 0.4751,0.9563 0.6155,1.2073 0.1375,0.2540 0.3855,0.6843 0.5498,0.9592 0.1614,0.2719 0.4932,0.7890 0.7322,1.1476 0.2421,0.3586 0.5586,0.8160 0.7080,1.0162 0.1494,0.2002 0.3706,0.4930 0.4902,0.6514 0.1225,0.1584 0.3020,0.3823 0.3977,0.4988 0.0986,0.1136 0.2808,0.3287 0.4063,0.4781 0.1285,0.1464 0.4121,0.4664 0.6333,0.7085 0.2211,0.2391 0.5591,0.5946 0.7474,0.7858 0.1883,0.1913 0.5947,0.5798 0.8995,0.8636 0.3078,0.2839 0.7200,0.6544 0.9203,0.8217 0.2002,0.1673 0.4601,0.3825 0.5736,0.4781 0.1166,0.0956 0.4453,0.3497 0.7292,0.5589 0.2839,0.2122 0.7321,0.5322 0.9951,0.7115 0.2630,0.1823 0.7291,0.4839 1.0340,0.6722 0.3078,0.1883 0.7982,0.4780 1.0940,0.6423 0.2928,0.1644 0.8722,0.4664 1.2816,0.6696 0.4124,0.2032 1.0072,0.4780 1.3240,0.6125 0.3138,0.1345 0.8576,0.3526 1.2043,0.4811 0.3496,0.1315 0.8216,0.2988 1.0547,0.3735 0.2331,0.0747 0.6365,0.2002 0.8995,0.2779 0.2630,0.0777 0.8161,0.2213 1.2285,0.3229 0.4094,0.1016 1.0907,0.2482 1.5120,0.3229 0.4214,0.0747 1.0250,0.1730 1.3417,0.2148 0.3138,0.0418 0.8489,0.1046 1.1865,0.1375 0.3496,0.0329 1.2160,0.0689 2.0109,0.0808 0.8845,0.0149 1.6678,0.0061 2.1280,-0.0238 0.4004,-0.0239 1.0366,-0.0779 1.4161,-0.1197 0.3795,-0.0418 0.9234,-0.1133 1.2073,-0.1552 0.2839,-0.0418 0.7772,-0.1287 1.0910,-0.1915 0.3168,-0.0628 0.8247,-0.1734 1.1295,-0.2481 0.3078,-0.0717 0.7710,-0.1942 1.0370,-0.2689 0.2630,-0.0747 0.7441,-0.2239 1.0729,-0.3285 0.3257,-0.1076 0.8397,-0.2871 1.1386,-0.4007 0.3018,-0.1136 0.7917,-0.3107 1.0906,-0.4392 0.3018,-0.1285 0.8756,-0.3945 1.2760,-0.5887 0.4004,-0.1972 0.9861,-0.5049 1.3028,-0.6812 0.3138,-0.1763 0.7891,-0.4572 1.0521,-0.6216 0.2630,-0.1644 0.7379,-0.4721 1.0547,-0.6873 0.3138,-0.2181 0.7620,-0.5377 0.9951,-0.7111 0.2331,-0.1763 0.4934,-0.3826 0.5801,-0.4573 0.0867,-0.0747 0.2329,-0.1915 0.3255,-0.2602 0.0926,-0.0657 0.2212,-0.1702 0.2840,-0.2300 0.0627,-0.0568 0.1672,-0.1463 0.2300,-0.1941 0.0628,-0.0508 0.2779,-0.2391 0.4781,-0.4184 0.2002,-0.1823 0.7353,-0.7025 1.1865,-1.1567 0.4542,-0.4542 0.9981,-1.0249 1.2073,-1.2669 0.2122,-0.2421 0.5318,-0.6213 0.7111,-0.8425 0.1793,-0.2211 0.5023,-0.6368 0.7115,-0.9207 0.2122,-0.2839 0.5765,-0.8006 0.8066,-1.1472 0.2301,-0.3496 0.5857,-0.9146 0.7919,-1.2553 0.2032,-0.3437 0.5500,-0.9715 0.7681,-1.3988 0.2211,-0.4273 0.5381,-1.0845 0.7054,-1.4641 0.1673,-0.3795 0.4330,-1.0341 0.5913,-1.4554 0.1584,-0.4214 0.3647,-1.0158 0.4603,-1.3236 0.0956,-0.3048 0.2181,-0.7083 0.2719,-0.8995 0.0538,-0.1883 0.1557,-0.5860 0.2304,-0.8818 0.0747,-0.2929 0.1850,-0.8038 0.2507,-1.1295 0.0657,-0.3257 0.1614,-0.8696 0.2122,-1.2073 0.0538,-0.3347 0.1227,-0.8456 0.1556,-1.1295 0.0299,-0.2839 0.0747,-0.7053 0.0986,-0.9384 0.0209,-0.2301 0.0508,-1.0935 0.0627,-1.9153 l 0.0238,-1.4943 c -1.0340,-0.7770 -1.7391,-1.3000 -2.2352,-1.6646 -0.4961,-0.3676 -1.0997,-0.8127 -1.3417,-0.9920 -0.2420,-0.1793 -0.7412,-0.5498 -1.1118,-0.8217 -0.3676,-0.2749 -0.8605,-0.6397 -1.0906,-0.8101 -0.2331,-0.1733 -0.6247,-0.4631 -0.8727,-0.6454 -0.2480,-0.1823 -0.4750,-0.3315 -0.5079,-0.3315 -0.0478,0 -0.0571,0.0924 -0.0571,0.6034 v 0.6008 c 0.4004,0.3048 0.7176,0.5378 0.9596,0.7171 0.2420,0.1793 0.8544,0.6306 1.3595,1.0041 0.5050,0.3735 1.1297,0.8367 1.3897,1.0309 0.2570,0.1942 0.6214,0.4629 0.8126,0.6004 0.1883,0.1375 0.6308,0.4662 0.9864,0.7292 l 0.6423,0.4811 c 0.0179,1.0668 0.0030,1.6946 -0.0177,2.0861 -0.0239,0.3885 -0.0691,0.9741 -0.0990,1.2998 -0.0329,0.3287 -0.0926,0.8367 -0.1344,1.1325 -0.0418,0.2929 -0.1226,0.7682 -0.1764,1.0521 -0.0538,0.2839 -0.1640,0.8098 -0.2477,1.1684 -0.0837,0.3586 -0.2185,0.8933 -0.3021,1.1861 -0.0807,0.2958 -0.2479,0.8310 -0.3674,1.1896 -0.1166,0.3586 -0.3228,0.9262 -0.4543,1.2639 -0.1345,0.3377 -0.3554,0.8698 -0.4988,1.1865 -0.1404,0.3168 -0.4245,0.9024 -0.6307,1.3028 -0.2062,0.4004 -0.5170,0.9681 -0.6903,1.2639 -0.1763,0.2958 -0.5109,0.8309 -0.7469,1.1865 -0.2361,0.3586 -0.6158,0.9025 -0.8459,1.2073 -0.2271,0.3048 -0.5467,0.7201 -0.7080,0.9203 -0.1614,0.2002 -0.5231,0.6217 -0.8040,0.9384 -0.2809,0.3168 -0.7529,0.8159 -1.0517,1.1118 -0.2988,0.2929 -0.7203,0.6993 -0.9384,0.8995 -0.2182,0.2002 -0.4482,0.4061 -0.5109,0.4599 -0.0627,0.0508 -0.2989,0.2483 -0.5230,0.4336 -0.2211,0.1883 -0.6996,0.5588 -1.0582,0.8278 -0.3556,0.2689 -0.8994,0.6514 -1.2043,0.8546 -0.3078,0.2002 -0.6871,0.4451 -0.8425,0.5408 -0.1584,0.0926 -0.5289,0.3081 -0.8247,0.4755 -0.2958,0.1644 -0.7261,0.3974 -0.9592,0.5140 -0.2301,0.1195 -0.6545,0.3228 -0.9384,0.4513 -0.2839,0.1315 -0.8190,0.3584 -1.1865,0.5049 -0.3705,0.1494 -1.0251,0.3887 -1.4554,0.5321 -0.4333,0.1434 -1.0787,0.3405 -1.4372,0.4361 -0.3586,0.0956 -0.9262,0.2330 -1.2639,0.3047 -0.3377,0.0747 -0.8131,0.1704 -1.0551,0.2122 -0.2421,0.0418 -0.6990,0.1103 -1.0128,0.1522 -0.3168,0.0418 -0.8879,0.1076 -1.2674,0.1435 -0.5349,0.0538 -1.0485,0.0687 -2.3156,0.0687 -1.2671,0 -1.7812,-0.0149 -2.3191,-0.0687 -0.3795,-0.0359 -1.0073,-0.1104 -1.3988,-0.1612 -0.3885,-0.0538 -1.0518,-0.1644 -1.4731,-0.2481 -0.4214,-0.0837 -1.0935,-0.2390 -1.4939,-0.3406 -0.4004,-0.1046 -0.9535,-0.2600 -1.2285,-0.3436 -0.2719,-0.0837 -0.8246,-0.2720 -1.2250,-0.4184 -0.4004,-0.1464 -0.9593,-0.3646 -1.2462,-0.4841 -0.2839,-0.1225 -0.7233,-0.3166 -0.9743,-0.4361 -0.2540,-0.1195 -0.7470,-0.3645 -1.0936,-0.5468 -0.3466,-0.1823 -0.8997,-0.4900 -1.2254,-0.6843 -0.3257,-0.1942 -0.7919,-0.4874 -1.0339,-0.6458 -0.2420,-0.1614 -0.6661,-0.4542 -0.9380,-0.6514 -0.2749,-0.2002 -0.6876,-0.5110 -0.9207,-0.6903 -0.2331,-0.1823 -0.5496,-0.4391 -0.7080,-0.5736 -0.1584,-0.1345 -0.4182,-0.3588 -0.5766,-0.4993 -0.1554,-0.1405 -0.4903,-0.4513 -0.7413,-0.6933 -0.2510,-0.2421 -0.7230,-0.7258 -1.0547,-1.0755 -0.3287,-0.3466 -0.8042,-0.8905 -1.0582,-1.2073 -0.2540,-0.3138 -0.5916,-0.7444 -0.7500,-0.9566 -0.1584,-0.2092 -0.4275,-0.5797 -0.5978,-0.8217 -0.1673,-0.2421 -0.4510,-0.6723 -0.6333,-0.9592 -0.1793,-0.2839 -0.4186,-0.6815 -0.5351,-0.8788 -0.1136,-0.2002 -0.2926,-0.5198 -0.3942,-0.7111 -0.1016,-0.1883 -0.2811,-0.5320 -0.3947,-0.7651 -0.1166,-0.2331 -0.3106,-0.6453 -0.4361,-0.9203 -0.1255,-0.2719 -0.3380,-0.7740 -0.4724,-1.1087 -0.1345,-0.3377 -0.3645,-0.9773 -0.5109,-1.4195 -0.1494,-0.4423 -0.3373,-1.0608 -0.4210,-1.3776 -0.0837,-0.3168 -0.2124,-0.8427 -0.2900,-1.1684 -0.0747,-0.3257 -0.1762,-0.8366 -0.2300,-1.1295 -0.0508,-0.2958 -0.1285,-0.8038 -0.1733,-1.1295 -0.0418,-0.3287 -0.1046,-0.8968 -0.1375,-1.2644 -0.0329,-0.3706 -0.0719,-1.2131 -0.0839,-1.8795 l -0.0207,-1.2043 c 1.2999,-0.9473 1.7869,-1.3028 1.9244,-1.4044 0.1375,-0.0986 0.6901,-0.5024 1.2280,-0.8939 0.5349,-0.3915 1.0458,-0.7620 1.1295,-0.8278 0.0837,-0.0657 0.5498,-0.4064 1.0340,-0.7590 l 0.8818,-0.6423 c 0.0149,-0.9593 0.0060,-1.2371 -0.0090,-1.2371 z m 38.6278,7.6410 -0.0030,0.1703 c -0.0030,0.0956 -0.0180,0.3467 -0.0328,0.5559 -0.0150,0.2122 -0.0422,0.4695 -0.0631,0.5771 -0.0179,0.1046 -0.0416,0.2600 -0.0536,0.3436 -0.0120,0.0837 -0.0387,0.2570 -0.0597,0.3825 -0.0179,0.1255 -0.0719,0.4033 -0.1137,0.6125 -0.0419,0.2122 -0.0958,0.4361 -0.1167,0.4988 -0.0209,0.0628 -0.0446,0.1497 -0.0536,0.1915 -0.0090,0.0418 -0.0331,0.1555 -0.0540,0.2481 -0.0239,0.0956 -0.1701,0.5618 -0.3255,1.0340 -0.1584,0.4751 -0.3797,1.0875 -0.4962,1.3594 -0.1136,0.2749 -0.2988,0.6814 -0.4093,0.9026 -0.1106,0.2211 -0.3138,0.6004 -0.4482,0.8425 -0.1345,0.2421 -0.2987,0.5261 -0.3644,0.6307 -0.0657,0.1046 -0.2422,0.3736 -0.3886,0.5948 -0.1464,0.2211 -0.3377,0.4960 -0.4214,0.6125 -0.0867,0.1165 -0.2838,0.3738 -0.4422,0.5740 -0.1584,0.2002 -0.4152,0.5110 -0.5736,0.6903 -0.1584,0.1793 -0.3915,0.4330 -0.5200,0.5645 -0.1285,0.1315 -0.2514,0.2421 -0.2723,0.2421 -0.0209,0 -0.2298,-0.2120 -0.4629,-0.4690 -0.2361,-0.2600 -0.5557,-0.6278 -0.7111,-0.8161 -0.1554,-0.1913 -0.4034,-0.5078 -0.5529,-0.7080 -0.1494,-0.2002 -0.3917,-0.5470 -0.5382,-0.7681 -0.1464,-0.2211 -0.3049,-0.4630 -0.3497,-0.5347 -0.0448,-0.0747 -0.2450,-0.4272 -0.4452,-0.7858 -0.1972,-0.3586 -0.4900,-0.9267 -0.6454,-1.2644 -0.1584,-0.3377 -0.3797,-0.8636 -0.4993,-1.1684 -0.1166,-0.3048 -0.2357,-0.6245 -0.3194,-0.8606 l -0.5230,-0.0121 c -0.3915,-0.0060 -0.5319,0.0030 -0.5468,0.0389 -0.0119,0.0269 0.0565,0.2719 0.1491,0.5468 0.0956,0.2749 0.2242,0.6279 0.2870,0.7863 0.0628,0.1584 0.1493,0.3762 0.1941,0.4867 0.0448,0.1106 0.0958,0.2334 0.1167,0.2693 0.0179,0.0359 0.2181,0.4362 0.4422,0.8904 0.2241,0.4512 0.4274,0.8577 0.4513,0.8995 0.0269,0.0448 0.0958,0.1643 0.1586,0.2689 0.0598,0.1046 0.1643,0.2780 0.2330,0.3825 0.0657,0.1046 0.2150,0.3377 0.3285,0.5170 0.1136,0.1793 0.3708,0.5528 0.5710,0.8278 0.2002,0.2749 0.4961,0.6634 0.6575,0.8636 0.1614,0.1972 0.4928,0.5765 0.7379,0.8455 0.2450,0.2689 0.4452,0.5113 0.4452,0.5382 0,0.0269 -0.1313,0.1612 -0.2957,0.2987 -0.1644,0.1405 -0.4721,0.3885 -0.6873,0.5559 -0.2122,0.1673 -0.5111,0.3887 -0.6665,0.4962 -0.1524,0.1046 -0.3824,0.2569 -0.5109,0.3406 -0.1285,0.0807 -0.4331,0.2659 -0.6752,0.4124 -0.2420,0.1434 -0.7262,0.4063 -1.0729,0.5797 -0.3467,0.1733 -0.7172,0.3524 -0.8247,0.3972 -0.1046,0.0448 -0.3021,0.1287 -0.4396,0.1854 -0.1375,0.0568 -0.4390,0.1705 -0.6691,0.2542 -0.2331,0.0837 -0.6036,0.2092 -0.8247,0.2779 -0.2211,0.0687 -0.5052,0.1552 -0.6337,0.1911 -0.1255,0.0359 -0.4872,0.1224 -0.8040,0.1971 -0.3168,0.0717 -0.6122,0.1314 -0.6601,0.1314 -0.0837,0 -0.0870,-0.0086 -0.0661,-0.2775 0.0090,-0.1524 0.0537,-0.5891 0.0955,-0.9657 0.0448,-0.3795 0.1555,-1.2338 0.2511,-1.8972 0.0926,-0.6634 0.2480,-1.6559 0.3406,-2.2028 0.0926,-0.5469 0.2840,-1.5745 0.4245,-2.2797 0.1375,-0.7052 0.3468,-1.6978 0.4573,-2.2028 0.1136,-0.5050 0.2957,-1.2966 0.4033,-1.7627 0.1106,-0.4632 0.2002,-0.8578 0.2032,-0.8758 0.0030,-0.0179 -0.2331,-0.0328 -1.0668,-0.0298 l -0.1794,0.7798 c -0.1016,0.4273 -0.2447,1.0638 -0.3194,1.4105 -0.0777,0.3466 -0.1826,0.8308 -0.2334,1.0729 -0.0538,0.2421 -0.1732,0.8189 -0.2658,1.2821 -0.0926,0.4632 -0.2660,1.3868 -0.3826,2.0502 -0.1136,0.6634 -0.2689,1.6016 -0.3406,2.0887 -0.0747,0.4841 -0.1674,1.1566 -0.2092,1.4943 -0.0418,0.3347 -0.1134,0.9471 -0.1582,1.3594 -0.0448,0.4094 -0.0870,0.8250 -0.0960,0.9177 -0.0090,0.0941 -0.0203,0.1738 -0.0264,0.1820 h -4.4000e-4 c -0.0060,0.0060 -0.0776,0.0271 -0.1643,0.0480 -0.0837,0.0209 -0.4362,0.0569 -0.7828,0.0778 -0.3496,0.0209 -0.9532,0.0359 -1.3417,0.0359 -0.3915,0 -0.9683,-0.0241 -1.2851,-0.0510 -0.3138,-0.0269 -0.6127,-0.0716 -0.6605,-0.0955 -0.0479,-0.0239 -0.0865,-0.0568 -0.0865,-0.0718 0,-0.0149 -0.0422,-0.4600 -0.0960,-0.9860 -0.0508,-0.5259 -0.1373,-1.2942 -0.1910,-1.7065 -0.0538,-0.4094 -0.1674,-1.1951 -0.2511,-1.7420 -0.0837,-0.5469 -0.2299,-1.4525 -0.3225,-2.0113 -0.0956,-0.5588 -0.2962,-1.6348 -0.4456,-2.3938 -0.1464,-0.7590 -0.3703,-1.8526 -0.4958,-2.4323 -0.1255,-0.5797 -0.2449,-1.1176 -0.3047,-1.3417 h -0.5351 c -0.4931,0 -0.5349,0.0060 -0.5200,0.0687 0.0090,0.0359 0.1134,0.4901 0.2330,1.0041 0.1165,0.5170 0.2811,1.2488 0.3618,1.6283 0.0837,0.3795 0.2541,1.2342 0.3826,1.8976 0.1285,0.6634 0.3107,1.6529 0.4033,2.2028 0.0926,0.5469 0.2212,1.3563 0.2840,1.7986 0.0628,0.4423 0.1584,1.1508 0.2122,1.5721 0.0538,0.4214 0.1315,1.1114 0.1733,1.5328 0.0418,0.4214 0.0625,0.7800 0.0476,0.7979 -0.0149,0.0179 -0.1642,0.0030 -0.3346,-0.0359 -0.1673,-0.0359 -0.5111,-0.1166 -0.7651,-0.1764 -0.2540,-0.0628 -0.7352,-0.2002 -1.0729,-0.3078 -0.3377,-0.1046 -0.8873,-0.3016 -1.2250,-0.4331 -0.3377,-0.1345 -0.6664,-0.2663 -0.7292,-0.2991 -0.0628,-0.0299 -0.3196,-0.1550 -0.5736,-0.2775 -0.2540,-0.1255 -0.6337,-0.3231 -0.8429,-0.4396 -0.2122,-0.1165 -0.5739,-0.3316 -0.8040,-0.4751 -0.2331,-0.1464 -0.5079,-0.3225 -0.6125,-0.3972 -0.1076,-0.0747 -0.3824,-0.2753 -0.6155,-0.4426 -0.2301,-0.1703 -0.5887,-0.4509 -0.7949,-0.6272 -0.2032,-0.1733 -0.3735,-0.3467 -0.3735,-0.3825 0,-0.0389 0.1344,-0.2154 0.3017,-0.3947 0.1673,-0.1793 0.4364,-0.4779 0.5978,-0.6691 0.1644,-0.1883 0.4660,-0.5680 0.6722,-0.8429 0.2062,-0.2749 0.5232,-0.7170 0.7054,-0.9860 0.1793,-0.2690 0.3285,-0.4964 0.3285,-0.5083 0,-0.0090 0.0658,-0.1165 0.1465,-0.2390 0.0807,-0.1225 0.2361,-0.3794 0.3467,-0.5736 0.1075,-0.1942 0.1971,-0.3645 0.1971,-0.3735 0,-0.0120 0.0838,-0.1705 0.1854,-0.3557 0.1016,-0.1823 0.2807,-0.5497 0.3972,-0.8126 0.1166,-0.2630 0.2720,-0.6247 0.3467,-0.8040 0.0747,-0.1793 0.2033,-0.5168 0.2870,-0.7469 0.0837,-0.2331 0.1702,-0.4904 0.1941,-0.5771 0.0239,-0.0837 0.0450,-0.1820 0.0450,-0.2179 0,-0.0627 -0.0506,-0.0688 -1.0517,-0.0718 l -0.0839,0.2209 c -0.0448,0.1225 -0.1164,0.3170 -0.1582,0.4336 -0.0418,0.1165 -0.1375,0.3676 -0.2122,0.5559 -0.0747,0.1883 -0.2780,0.6452 -0.4573,1.0158 -0.1763,0.3676 -0.4840,0.9532 -0.6812,1.3028 -0.1972,0.3466 -0.3737,0.6486 -0.3916,0.6696 -0.0149,0.0209 -0.1615,0.2360 -0.3229,0.4781 -0.1584,0.2421 -0.4393,0.6397 -0.6216,0.8818 -0.1793,0.2421 -0.4900,0.6305 -0.6873,0.8606 -0.2002,0.2331 -0.4838,0.5466 -0.6333,0.6990 -0.1494,0.1554 -0.2899,0.2779 -0.3108,0.2779 -0.0209,0 -0.2303,-0.2090 -0.4664,-0.4690 -0.2331,-0.2570 -0.5110,-0.5709 -0.6186,-0.6994 -0.1046,-0.1255 -0.3856,-0.4899 -0.6246,-0.8096 -0.2391,-0.3198 -0.5319,-0.7354 -0.6514,-0.9207 -0.1195,-0.1853 -0.3198,-0.5198 -0.4513,-0.7409 -0.1285,-0.2211 -0.3792,-0.6935 -0.5585,-1.0521 -0.1793,-0.3586 -0.4274,-0.9143 -0.5559,-1.2341 -0.1255,-0.3227 -0.3081,-0.8219 -0.4007,-1.1118 -0.0926,-0.2899 -0.2238,-0.7082 -0.2866,-0.9294 -0.0657,-0.2211 -0.1676,-0.6514 -0.2304,-0.9592 -0.0598,-0.3048 -0.1374,-0.7170 -0.1703,-0.9172 -0.0329,-0.2002 -0.0777,-0.4930 -0.1016,-0.6514 -0.0239,-0.1584 -0.0508,-0.4516 -0.0657,-0.6518 -0.0119,-0.2002 -0.0119,-0.3942 0.0030,-0.4301 h 4.3000e-4 c 0.0239,-0.0658 0.9084,-0.0689 36.1349,-0.0480 z" /><path
         id="path5-2"
         style="clip-rule:evenodd;display:inline;fill:#ffffff;fill-rule:nonzero;stroke-width:0.2988;stroke-linejoin:round;stroke-miterlimit:2"
         d="m 205.8031,30.3794 -4.3000e-4,4.3200e-4 h -4.3000e-4 l -4.4000e-4,4.3300e-4 c -0.0123,0.0080 -0.0223,0.0767 -0.0363,0.2213 -0.0120,0.1584 -0.0509,0.6935 -0.0808,1.1896 -0.0299,0.4961 -0.1255,2.0470 -0.2092,3.4485 -0.0867,1.3985 -0.1644,2.6176 -0.1733,2.7072 -0.0179,0.1614 -0.0208,0.1647 -0.1643,0.1647 -0.0777,0 -0.1734,0.0207 -0.2092,0.0476 -0.0598,0.0418 -0.0686,0.1019 -0.0597,0.4694 l 0.0121,0.4210 1.8587,0.0182 c 0,-0.9055 -0.0030,-0.9175 -0.0869,-0.9354 -0.0478,-0.0120 -0.1374,-0.0239 -0.2001,-0.0298 l -0.1167,-0.0091 c -0.0986,-1.4852 -0.1372,-2.0799 -0.1491,-2.2802 -0.0119,-0.2002 -0.0659,-1.0102 -0.1167,-1.8021 -0.0508,-0.7889 -0.1224,-1.9004 -0.1582,-2.4682 -0.0329,-0.5708 -0.0749,-1.0787 -0.0899,-1.1325 -0.0060,-0.0179 -0.0116,-0.0284 -0.0164,-0.0307 l -4.3000e-4,-4.3200e-4 h -4.3000e-4 -4.3000e-4 -4.3000e-4 -4.4000e-4 z m -0.0406,9.7673 c -0.5917,0.0030 -1.2792,0.0209 -1.5332,0.0359 -0.2540,0.0179 -0.6843,0.0596 -0.9592,0.0925 -0.2719,0.0329 -0.6332,0.0864 -0.8036,0.1193 -0.1673,0.0329 -0.4184,0.0926 -0.5559,0.1344 -0.1375,0.0418 -0.2841,0.1076 -0.3259,0.1435 -0.0448,0.0329 -0.1107,0.1105 -0.1465,0.1673 -0.0329,0.0598 -0.0535,0.1318 -0.0445,0.1647 0.0120,0.0299 0.1103,0.1076 0.2209,0.1703 0.1106,0.0628 0.2958,0.1883 0.4124,0.2810 0.1166,0.0926 0.2571,0.2327 0.3168,0.3164 0.0568,0.0837 0.1134,0.2123 0.1284,0.2840 0.0209,0.1165 0.0060,0.1555 -0.1102,0.2870 -0.0777,0.0896 -0.2273,0.1970 -0.3588,0.2568 -0.1255,0.0568 -0.3735,0.1467 -0.5528,0.1975 -0.1763,0.0508 -0.7290,0.1732 -1.2250,0.2689 -0.4931,0.0956 -1.3569,0.2629 -1.9158,0.3704 -0.5588,0.1076 -1.2551,0.2542 -1.5509,0.3259 -0.2959,0.0717 -0.7173,0.1911 -0.9384,0.2628 -0.2211,0.0717 -0.5407,0.1854 -0.7080,0.2542 -0.1703,0.0657 -0.3736,0.1552 -0.4513,0.1941 -0.0777,0.0418 -0.1435,0.0897 -0.1435,0.1107 0,0.0269 3.7921,0.0389 11.3018,0.0389 7.5097,0 11.3022,-0.0120 11.3022,-0.0389 v -4.3300e-4 c -5e-5,-5.1100e-4 -2.4000e-4,-0.0012 -4.3000e-4,-0.0017 -1.3000e-4,-3.8100e-4 -2.4000e-4,-8.8900e-4 -4.3000e-4,-0.0013 -0.0118,-0.0249 -0.1414,-0.0988 -0.2952,-0.1729 -0.1644,-0.0747 -0.5230,-0.2121 -0.7949,-0.3078 -0.2749,-0.0926 -0.7741,-0.2392 -1.1118,-0.3229 -0.3377,-0.0837 -1.0098,-0.2268 -1.4939,-0.3225 -0.4841,-0.0926 -1.3300,-0.2542 -1.8769,-0.3618 -0.5498,-0.1046 -1.1535,-0.2363 -1.3417,-0.2900 -0.1913,-0.0538 -0.4393,-0.1433 -0.5559,-0.1941 -0.1165,-0.0538 -0.2658,-0.1403 -0.3346,-0.1911 -0.0867,-0.0657 -0.1316,-0.1344 -0.1496,-0.2360 -0.0179,-0.1106 -0.0030,-0.1823 0.0657,-0.3138 0.0508,-0.0926 0.1794,-0.2454 0.2840,-0.3380 0.1046,-0.0926 0.3166,-0.2450 0.4690,-0.3376 0.1524,-0.0926 0.2779,-0.1910 0.2779,-0.2179 0,-0.0269 -0.0447,-0.1046 -0.0955,-0.1733 -0.0538,-0.0657 -0.1613,-0.1557 -0.2390,-0.1975 -0.0777,-0.0389 -0.2809,-0.1073 -0.4513,-0.1491 -0.1673,-0.0448 -0.5466,-0.1138 -0.8425,-0.1556 -0.2929,-0.0418 -0.8187,-0.0954 -1.1684,-0.1163 -0.3467,-0.0239 -1.1148,-0.0389 -1.7035,-0.0359 z m 20.4963,7.1599 c -0.0060,2.7600e-4 -0.0113,0.0013 -0.0134,0.0022 l -4.4000e-4,4.3200e-4 h -4.3000e-4 v 4.3200e-4 c -0.0030,0.0090 -0.0299,0.2210 -0.0627,0.4751 -0.0448,0.3616 -0.0449,0.4690 -0.0090,0.5019 0.0269,0.0239 0.4544,0.3022 0.9475,0.6160 0.4961,0.3138 0.9622,0.6066 1.0340,0.6514 0.0747,0.0418 0.1493,0.1103 0.1643,0.1491 0.0135,0.0352 0.0220,0.0684 0.0190,0.0765 l -4.3000e-4,4.3300e-4 v 4.3200e-4 h -4.3000e-4 v 4.3200e-4 h -4.4000e-4 c -0.0030,0 -0.4481,0.1373 -0.9860,0.2987 -0.5379,0.1644 -1.0937,0.3347 -1.2371,0.3795 -0.1592,0.0521 -0.2512,0.0988 -0.2568,0.1370 -1.8000e-4,0.0012 -4.4000e-4,0.0022 -4.4000e-4,0.0035 -0.0030,0.0299 -0.0267,0.2484 -0.0536,0.4785 -0.0299,0.2331 -0.0510,0.4241 -0.0480,0.4271 0.0030,0.0030 0.8845,0.1285 1.9603,0.2779 1.0758,0.1494 2.0829,0.2929 2.2412,0.3138 0.1793,0.0239 0.2928,0.0269 0.3047,0.0030 0.0119,-0.0209 0.0418,-0.2330 0.0687,-0.4720 0.0265,-0.2353 0.0380,-0.4367 0.0242,-0.4543 -0.0119,-0.0090 -0.4545,-0.0779 -0.9834,-0.1526 -0.5289,-0.0747 -0.9653,-0.1524 -0.9743,-0.1733 v -4.3200e-4 -4.3300e-4 l 4.4000e-4,-4.3200e-4 v -4.3200e-4 -4.3200e-4 l 4.3000e-4,-4.3300e-4 c 0.0194,-0.0274 0.3443,-0.1428 0.7435,-0.2663 l 0.7590,-0.2300 0.0748,-0.7979 c -0.3855,-0.2450 -0.6994,-0.4454 -0.9445,-0.6008 -0.2336,-0.1510 -0.4240,-0.2804 -0.4335,-0.3026 v -4.3200e-4 c -3e-5,-1.5300e-4 0,-7.2700e-4 0,-8.6500e-4 v -4.3200e-4 -4.3200e-4 h 4.3000e-4 c 0.0060,-0.0090 0.4660,0.0451 1.0219,0.1228 0.5528,0.0747 1.0132,0.1374 1.0162,0.1314 0.0060,-0.0030 0.0358,-0.2212 0.0657,-0.4841 0.0329,-0.2630 0.0535,-0.4811 0.0475,-0.4841 -0.0030,-0.0030 -0.9472,-0.1378 -2.0947,-0.2991 -1.1475,-0.1614 -2.1576,-0.3014 -2.2443,-0.3134 -0.0672,-0.0090 -0.1244,-0.0132 -0.1500,-0.0121 z m -40.8439,0.0566 c -0.1464,-0.0090 -0.4900,0.0212 -0.8576,0.0601 -0.3915,0.0389 -0.7443,0.0986 -0.8429,0.1375 -0.0956,0.0359 -0.2238,0.1105 -0.2836,0.1643 -0.0598,0.0538 -0.1528,0.1670 -0.2006,0.2507 -0.0478,0.0837 -0.1254,0.2570 -0.1673,0.3825 -0.0448,0.1255 -0.1225,0.4183 -0.1733,0.6514 -0.0538,0.2301 -0.1223,0.4935 -0.1522,0.5831 -0.0329,0.0896 -0.0926,0.1822 -0.1344,0.2032 -0.0418,0.0209 -0.2183,0.0477 -0.3947,0.0627 l -0.3138,0.0238 c -0.1046,-0.9443 -0.1555,-1.4314 -0.1824,-1.6914 l -0.0475,-0.4750 c -0.4453,0.0418 -0.6666,0.0629 -0.7772,0.0778 -0.1673,0.0239 -0.2001,0.0418 -0.2001,0.1046 0.0030,0.0418 0.0658,0.7442 0.1435,1.5570 0.0807,0.8158 0.1523,1.4910 0.1612,1.5060 0.0120,0.0120 0.4426,-0.0179 0.9596,-0.0687 0.8098,-0.0807 0.9651,-0.1048 1.1295,-0.1885 0.1046,-0.0508 0.2420,-0.1614 0.3047,-0.2451 0.0628,-0.0807 0.1615,-0.2510 0.2183,-0.3765 0.0568,-0.1285 0.1582,-0.4810 0.2269,-0.7858 0.0658,-0.3048 0.1464,-0.6037 0.1733,-0.6605 0.0299,-0.0598 0.0866,-0.1222 0.1314,-0.1431 0.0418,-0.0209 0.1406,-0.0389 0.2183,-0.0389 0.1255,-0.0030 0.1464,0.0120 0.1703,0.1046 0.0120,0.0568 0.0658,0.5405 0.1137,1.0724 l 0.0895,0.9683 c 0.1793,0 0.3854,-0.0175 0.5766,-0.0385 0.1883,-0.0209 0.3616,-0.0451 0.3826,-0.0540 0.0239,-0.0090 -0.0176,-0.5826 -0.1163,-1.5777 z m 29.5037,1.7783 -18.2378,0.0061 -0.4210,0.2957 c -0.2301,0.1644 -0.5887,0.4124 -0.7949,0.5559 -0.2032,0.1405 -0.3678,0.2630 -0.3648,0.2749 0.0060,0.0090 4.8203,0.0177 10.6984,0.0177 5.8780,0 10.6951,-0.0088 10.7070,-0.0177 0.0119,-0.0120 -0.0118,-0.0449 -0.0536,-0.0748 -0.0418,-0.0329 -0.3196,-0.2243 -0.6125,-0.4245 -0.2958,-0.2032 -0.6246,-0.4301 -0.7292,-0.5019 z m -13.4293,2.6056 c -1.0370,0 -1.0791,0.0060 -1.0582,0.0687 0.0120,0.0359 0.1165,0.4901 0.2360,1.0041 0.1165,0.5170 0.2811,1.2488 0.3618,1.6283 0.0837,0.3795 0.2541,1.2342 0.3826,1.8976 0.1285,0.6634 0.3107,1.6529 0.4033,2.2028 0.0926,0.5469 0.2212,1.3563 0.2840,1.7986 0.0628,0.4423 0.1585,1.1508 0.2122,1.5721 0.0538,0.4214 0.1315,1.1114 0.1733,1.5328 0.0388,0.4214 0.0717,0.7801 0.0657,0.8010 v 4.3200e-4 4.3200e-4 c -2e-5,0.0183 0.0914,0.0565 0.2032,0.0830 0.1165,0.0269 0.3558,0.0625 0.5291,0.0804 0.2690,0.0239 0.3164,0.0210 0.3164,-0.0268 0,-0.0329 -0.0447,-0.4899 -0.0985,-1.0158 -0.0508,-0.5259 -0.1373,-1.2942 -0.1911,-1.7066 -0.0538,-0.4094 -0.1675,-1.1951 -0.2511,-1.7420 -0.0837,-0.5469 -0.2303,-1.4525 -0.3229,-2.0113 -0.0956,-0.5588 -0.2958,-1.6348 -0.4452,-2.3938 -0.1464,-0.7590 -0.3703,-1.8526 -0.4958,-2.4323 -0.1255,-0.5797 -0.2454,-1.1175 -0.2663,-1.1982 z m 9.1798,0.0268 c -0.3126,-0.0058 -0.5220,0.0085 -0.5429,0.0311 l -4.3000e-4,4.3200e-4 v 4.3200e-4 4.3200e-4 l -4.3000e-4,4.3300e-4 c -0.0060,0.0209 -0.1166,0.4841 -0.2421,1.0340 -0.1285,0.5469 -0.2659,1.1597 -0.3078,1.3599 -0.0418,0.2002 -0.1196,0.5707 -0.1764,0.8217 -0.0538,0.2540 -0.1762,0.8396 -0.2689,1.3028 -0.0926,0.4632 -0.2660,1.3864 -0.3826,2.0498 -0.1136,0.6634 -0.2689,1.6020 -0.3406,2.0891 -0.0747,0.4841 -0.1674,1.1566 -0.2092,1.4943 -0.0418,0.3347 -0.1134,0.9471 -0.1582,1.3594 -0.0418,0.4094 -0.0871,0.8277 -0.0960,0.9263 -0.0090,0.1016 2.6000e-4,0.1912 0.0212,0.2032 0.0209,0.0090 0.1702,1.6400e-4 0.3346,-0.0208 0.1644,-0.0209 0.3887,-0.0600 0.4993,-0.0869 0.1037,-0.0224 0.1917,-0.0503 0.2023,-0.0635 l 4.3000e-4,-4.3200e-4 c 8e-5,-2.7400e-4 -5e-5,-7.6500e-4 0,-8.6500e-4 h 4.3000e-4 v -4.3200e-4 -4.3200e-4 c 0,-0.0090 0.0090,-0.1402 0.0177,-0.2866 0.0090,-0.1464 0.0537,-0.5801 0.0955,-0.9566 0.0448,-0.3795 0.1555,-1.2342 0.2511,-1.8976 0.0926,-0.6634 0.2480,-1.6555 0.3406,-2.2023 0.0926,-0.5469 0.2840,-1.5749 0.4245,-2.2802 0.1375,-0.7052 0.3468,-1.6973 0.4573,-2.2023 0.1136,-0.5050 0.2957,-1.2966 0.4033,-1.7627 0.1106,-0.4632 0.2002,-0.8578 0.2032,-0.8758 v -4.3200e-4 -4.3200e-4 -4.3200e-4 l -4.3000e-4,-4.3300e-4 -4.3000e-4,-4.3200e-4 -4.4000e-4,-4.3200e-4 c -0.0181,-0.0170 -0.2456,-0.0333 -0.5248,-0.0333 z m -24.7104,0.5261 c -0.0060,-0.0030 -0.2062,0.0685 -0.4483,0.1582 -0.2391,0.0926 -0.9800,0.3675 -1.6434,0.6155 -0.6634,0.2450 -1.2670,0.4781 -1.3417,0.5140 -0.0747,0.0389 -0.2064,0.1434 -0.2961,0.2360 -0.0867,0.0896 -0.1972,0.2512 -0.2421,0.3557 -0.0568,0.1315 -0.0834,0.2719 -0.0834,0.4422 -0.0030,0.2181 0.0384,0.3586 0.3493,1.2073 0.1942,0.5259 0.3646,0.9803 0.3795,1.0072 0.0209,0.0418 0.1198,0.0208 0.4664,-0.1107 0.2450,-0.0896 0.4514,-0.1674 0.4604,-0.1764 0.0120,-0.0060 -0.0868,-0.2926 -0.2153,-0.6333 -0.1315,-0.3437 -0.2838,-0.7532 -0.3406,-0.9116 -0.0956,-0.2630 -0.1018,-0.2988 -0.0510,-0.4124 0.0299,-0.0747 0.1015,-0.1495 0.1673,-0.1824 0.0628,-0.0269 0.1914,-0.0804 0.2870,-0.1133 0.0956,-0.0329 0.1883,-0.0601 0.2122,-0.0601 l 4.3000e-4,4.3200e-4 h 4.3000e-4 4.4000e-4 v 4.3200e-4 h 4.3000e-4 v 4.3200e-4 h 4.3000e-4 c 0.0251,0.0170 0.1234,0.2503 0.2248,0.5369 0.1042,0.2866 0.2036,0.5200 0.2287,0.5343 l 4.3000e-4,4.3200e-4 h 4.3000e-4 4.3000e-4 4.4000e-4 c 0.0209,0 0.2298,-0.0685 0.4599,-0.1582 0.2331,-0.0867 0.4245,-0.1582 0.4305,-0.1612 0.0060,-0.0030 -0.0778,-0.2422 -0.1824,-0.5321 -0.1046,-0.2899 -0.1910,-0.5440 -0.1910,-0.5650 v -4.3200e-4 -4.3200e-4 -4.3200e-4 -4.3300e-4 c 0.0080,-0.0231 0.1484,-0.0897 0.3164,-0.1535 0.1733,-0.0628 0.3528,-0.1255 0.3947,-0.1375 0.0508,-0.0120 0.0867,0.0028 0.1076,0.0506 0.0149,0.0389 0.1883,0.4901 0.3826,1.0011 0.3437,0.9174 0.3526,0.9325 0.4482,0.9086 0.0508,-0.0149 0.2540,-0.0896 0.4513,-0.1673 0.1867,-0.0746 0.3430,-0.1472 0.3523,-0.1660 v -4.3200e-4 h 4.4000e-4 v -4.3200e-4 -4.3300e-4 h -4.4000e-4 c 0,-0.0179 -0.2419,-0.6813 -0.5377,-1.4762 -0.2958,-0.7949 -0.5438,-1.4464 -0.5498,-1.4494 z m 39.1789,1.3374 c -0.0311,-4.9300e-4 -0.1175,0.1377 -0.2200,0.3570 -0.1016,0.2092 -0.3976,0.8217 -0.6635,1.3685 -0.2630,0.5439 -0.4780,0.9978 -0.4750,1.0128 0.0030,0.0149 0.5618,0.2840 1.2432,0.5978 0.6813,0.3138 1.6498,0.7589 2.1548,0.9890 0.5080,0.2271 0.9233,0.4127 0.9263,0.4037 0.0030,-0.0060 0.0955,-0.2004 0.2001,-0.4305 0.1076,-0.2331 0.1915,-0.4241 0.1885,-0.4271 -0.0060,-0.0030 -0.2843,-0.1346 -0.6160,-0.2900 -0.3317,-0.1524 -0.6034,-0.2928 -0.6034,-0.3078 0,-0.0179 0.0628,-0.1493 0.1344,-0.2987 l 0.1344,-0.2663 1.5090,0.0182 c 0.3466,-0.7112 0.4364,-0.9265 0.4245,-0.9384 -0.0120,-0.0120 -0.4066,-0.0239 -0.8727,-0.0298 l -0.8485,-0.0151 c -0.1225,-0.3377 -0.2064,-0.4570 -0.3588,-0.6034 -0.1913,-0.1823 -0.3284,-0.2571 -1.2129,-0.6635 -0.5469,-0.2510 -1.0161,-0.4661 -1.0400,-0.4750 l -4.4000e-4,-4.3200e-4 h -4.3000e-4 v -4.3300e-4 c -2.2000e-4,-7.9000e-5 -0.0010,5.4000e-5 -0.0010,0 -5.1000e-4,-6.6000e-5 -0.0010,-4.2400e-4 -0.0020,-4.3200e-4 z m 0.4750,1.2894 h 4.4000e-4 4.3000e-4 4.3000e-4 c 0.0060,0 0.2241,0.0983 0.4811,0.2148 0.2600,0.1195 0.4989,0.2451 0.5377,0.2779 0.0359,0.0359 0.0749,0.1078 0.0869,0.1586 0.0149,0.0687 -0.0390,0.2180 -0.1824,0.5079 -0.1106,0.2271 -0.2089,0.4124 -0.2209,0.4124 -0.0120,0 -0.2872,-0.1225 -0.6129,-0.2719 -0.3257,-0.1494 -0.5974,-0.2749 -0.6034,-0.2779 -0.0060,-0.0030 0.0866,-0.2001 0.2032,-0.4392 0.1176,-0.2324 0.2066,-0.4388 0.2036,-0.4595 l -4.3000e-4,-4.3200e-4 v -4.3200e-4 c -0.0060,-0.0149 0.0151,-0.0509 0.0450,-0.0748 0.0251,-0.0252 0.0530,-0.0451 0.0614,-0.0476 z m -37.6755,2.0705 c -0.0155,5.0600e-4 -0.1229,0.0661 -0.2390,0.1435 -0.1166,0.0807 -0.8905,0.6189 -1.7243,1.1986 -0.8337,0.5767 -1.6050,1.1084 -1.7126,1.1831 -0.1106,0.0747 -0.1971,0.1585 -0.1941,0.1854 0.0060,0.0269 0.1223,0.2122 0.2598,0.4124 0.1375,0.1972 0.2573,0.3614 0.2663,0.3614 0.0119,0.0030 0.2569,-0.1611 0.5468,-0.3614 0.2899,-0.2032 0.5436,-0.3705 0.5645,-0.3765 1.6000e-4,-2.4000e-5 0.0010,0 0.0010,0 h 4.4000e-4 c 0.0265,0.0059 0.1786,0.1938 0.3449,0.4331 0.1673,0.2421 0.3052,0.4603 0.3052,0.4872 0,0.0269 -0.0421,0.0778 -0.0929,0.1137 -0.0478,0.0389 -0.2897,0.2061 -0.5347,0.3735 -0.2374,0.1650 -0.4270,0.3166 -0.4305,0.3449 v 4.3200e-4 c 1e-5,9.8000e-5 1e-5,0.0010 0,0.0013 0.0090,0.0209 0.1288,0.2062 0.2693,0.4124 l 0.2537,0.3735 c 0.2809,-0.1913 0.9592,-0.6573 1.6854,-1.1593 0.7262,-0.5020 1.3776,-0.9774 1.4463,-1.0551 0.0687,-0.0777 0.1644,-0.2212 0.2092,-0.3138 0.0658,-0.1375 0.0839,-0.2448 0.0839,-0.4988 0,-0.2421 -0.0179,-0.3617 -0.0687,-0.4604 -0.0388,-0.0747 -0.2720,-0.4272 -0.5200,-0.7858 -0.2480,-0.3586 -0.5018,-0.7322 -0.5706,-0.8338 -0.0636,-0.0955 -0.1310,-0.1746 -0.1487,-0.1794 -2.6000e-4,-4e-5 -6.3000e-4,0 -8.7000e-4,0 z m -0.2693,1.3806 c 1.5000e-4,-1e-6 0.0010,-2e-5 0.0010,0 l 4.3000e-4,4.3200e-4 c 0.0241,0.0078 0.1526,0.1797 0.2974,0.3882 0.1464,0.2181 0.2689,0.4245 0.2689,0.4604 -0.0030,0.0389 -0.0210,0.1074 -0.0419,0.1552 -0.0209,0.0448 -0.2509,0.2304 -0.5079,0.4037 -0.2450,0.1680 -0.4574,0.2953 -0.4872,0.2913 -1.1000e-4,-2.5000e-5 -6.4000e-4,9.4000e-5 -8.6000e-4,0 l -4.4000e-4,-4.3200e-4 h -4.3000e-4 l -4.3000e-4,-4.3200e-4 h -4.3000e-4 v -4.3300e-4 l -4.4000e-4,-4.3200e-4 c -0.0119,-0.0179 -0.1555,-0.2269 -0.3168,-0.4660 -0.1601,-0.2342 -0.2850,-0.4423 -0.2840,-0.4660 l 4.3000e-4,-4.3300e-4 c 0.0060,-0.0209 0.2418,-0.2001 0.5286,-0.4003 0.2839,-0.2002 0.5289,-0.3648 0.5438,-0.3648 z m 35.2298,0.2083 c -0.0628,0.0019 -0.1224,0.0070 -0.1643,0.0160 -0.0837,0.0179 -0.2123,0.0627 -0.2870,0.0985 -0.0747,0.0389 -0.1704,0.0955 -0.2122,0.1284 -0.0448,0.0359 -0.3767,0.4125 -0.7383,0.8399 -0.3616,0.4243 -0.6601,0.7891 -0.6601,0.8040 0,0.0149 0.6361,0.5707 1.4161,1.2341 1.0310,0.8756 1.4763,1.2310 1.6227,1.2907 0.1285,0.0568 0.2841,0.0869 0.4305,0.0899 0.1255,0 0.3077,-0.0268 0.4033,-0.0597 0.0926,-0.0329 0.2274,-0.0987 0.2961,-0.1435 0.0717,-0.0478 0.4243,-0.4363 0.7858,-0.8636 0.3646,-0.4303 0.6662,-0.7920 0.6722,-0.8040 l 4.3000e-4,-4.3200e-4 v -4.3200e-4 c 0.0040,-0.0167 -0.0673,-0.0962 -0.1556,-0.1785 -0.0926,-0.0837 -0.3139,-0.2747 -0.4902,-0.4271 -0.1793,-0.1494 -0.7381,-0.6218 -1.2432,-1.0491 -0.5469,-0.4602 -0.9982,-0.8128 -1.1118,-0.8636 -0.1046,-0.0478 -0.2780,-0.0957 -0.3826,-0.1076 -0.0538,-0.0045 -0.1192,-0.0058 -0.1820,-0.0039 z m 0.0856,1.0305 c 0.0173,1.4000e-4 0.0338,0.0013 0.0488,0.0043 0.0598,0.0090 0.3554,0.2302 0.7050,0.5261 0.3287,0.2779 0.7620,0.6457 0.9622,0.8131 0.2002,0.1703 0.3709,0.3196 0.3769,0.3346 v 4.3300e-4 4.3200e-4 c 0.0030,0.0243 -0.1235,0.1889 -0.2840,0.3756 -0.1614,0.1913 -0.3167,0.3524 -0.3436,0.3644 -0.0269,0.0089 -0.0958,0.0182 -0.1526,0.0182 -0.0777,0 -0.2179,-0.0958 -0.5286,-0.3557 -0.2331,-0.1942 -0.6786,-0.5708 -0.9894,-0.8338 -0.3078,-0.2630 -0.5615,-0.4900 -0.5615,-0.5079 0,-0.0149 0.1194,-0.1703 0.2628,-0.3436 0.1434,-0.1733 0.3049,-0.3375 0.3558,-0.3644 0.0381,-0.0202 0.0963,-0.0320 0.1483,-0.0316 z M 190.8859,60.8289 c -0.0183,0.0046 -0.1511,0.1521 -0.2952,0.3315 -0.1494,0.1793 -0.2808,0.3527 -0.2987,0.3825 -0.0179,0.0359 0.0805,0.1373 0.3255,0.3315 0.1972,0.1554 0.3764,0.3108 0.4033,0.3467 0.0418,0.0538 -0.0090,0.1315 -0.3436,0.5498 -0.2182,0.2690 -0.7288,0.8998 -1.1412,1.4018 -0.4094,0.5020 -0.7474,0.9353 -0.7474,0.9622 v 4.3300e-4 c 0.0030,0.0287 0.1662,0.1831 0.3648,0.3432 l 0.3644,0.2926 c 0.1494,-0.1942 0.3557,-0.4483 0.5559,-0.6903 0.2002,-0.2450 0.6752,-0.8215 1.0517,-1.2847 0.3765,-0.4632 0.6966,-0.8609 0.7145,-0.8818 l 4.3000e-4,-4.3200e-4 4.4000e-4,-4.3200e-4 4.3000e-4,-4.3200e-4 4.3000e-4,-4.3300e-4 4.3000e-4,-4.3200e-4 c 0.0263,-0.0123 0.1984,0.1059 0.4310,0.2983 0.2189,0.1809 0.4127,0.3248 0.4383,0.3259 l 4.3000e-4,-4.3200e-4 h 4.3000e-4 c 1.7000e-4,-2.4000e-5 10e-4,4.3000e-5 10e-4,0 0.0244,-0.0081 0.1688,-0.1764 0.3276,-0.3735 0.1522,-0.1924 0.2681,-0.3604 0.2611,-0.3864 -8e-5,-1.9300e-4 -3.5000e-4,-0.0011 -4.4000e-4,-0.0013 l -4.3000e-4,-4.3300e-4 -4.3000e-4,-4.3200e-4 c -0.0149,-0.0120 -0.5588,-0.4570 -1.2073,-0.9860 -0.6485,-0.5289 -1.1924,-0.9592 -1.2073,-0.9592 z m 28.7005,1.0340 c -0.0239,0 -0.6007,0.4123 -1.2821,0.9203 -0.6813,0.5050 -1.2402,0.9475 -1.2402,0.9773 0,0.0329 0.1195,0.2212 0.2689,0.4184 0.1563,0.2113 0.2741,0.3408 0.3030,0.3324 2.2000e-4,-8.6000e-5 0.0010,-3.2900e-4 0.0010,-4.3200e-4 1.9000e-4,-1.2200e-4 6.7000e-4,-2.9300e-4 8.6000e-4,-4.3300e-4 0.0209,-0.0179 0.2211,-0.1672 0.4422,-0.3315 l 0.4003,-0.3021 c 0.0897,0.1405 0.2901,0.4155 0.5023,0.7024 0.2122,0.2839 0.6752,0.9116 1.0249,1.3897 0.3496,0.4811 0.6543,0.8723 0.6752,0.8723 0.0209,0 0.2031,-0.1255 0.4063,-0.2779 0.1940,-0.1476 0.3547,-0.2815 0.3618,-0.3060 3e-5,-1.8300e-4 -2e-5,-0.0011 0,-0.0013 v -4.3200e-4 c 0,-0.0149 -0.3674,-0.5229 -0.8157,-1.1295 -0.4512,-0.6036 -0.9324,-1.2551 -1.0729,-1.4463 -0.1404,-0.1883 -0.2572,-0.3616 -0.2572,-0.3825 v -4.3300e-4 l 4.4000e-4,-4.3200e-4 c 0.0090,-0.0247 0.1946,-0.1780 0.4240,-0.3428 0.2301,-0.1703 0.4153,-0.3166 0.4093,-0.3285 -0.0060,-0.0120 -0.1224,-0.1884 -0.2628,-0.3916 -0.1353,-0.2000 -0.2656,-0.3653 -0.2896,-0.3704 z m -24.8150,2.2313 c -0.0346,0.0044 -0.0706,0.0512 -0.1046,0.1323 -0.0359,0.0777 -0.1255,0.2778 -0.2032,0.4422 l -0.1375,0.2961 c 0.7411,0.3556 0.9562,0.4691 0.9562,0.4781 0,0.0120 -0.1822,0.4036 -0.4063,0.8727 -0.2241,0.4692 -0.5771,1.2102 -0.7863,1.6465 -0.2062,0.4363 -0.3765,0.8037 -0.3765,0.8126 0,0.0120 0.1852,0.1076 0.4124,0.2122 0.2241,0.1076 0.4273,0.1915 0.4482,0.1915 h 4.4000e-4 l 4.3000e-4,-4.3200e-4 h 4.3000e-4 4.3000e-4 c 0.0260,-0.0121 0.1663,-0.2730 0.3151,-0.5853 0.1524,-0.3198 0.4184,-0.8759 0.5887,-1.2345 0.1703,-0.3586 0.4034,-0.8454 0.5170,-1.0815 l 0.2062,-0.4305 c 0.7411,0.3556 0.9653,0.4542 0.9743,0.4482 0.0090,-0.0030 0.1047,-0.1943 0.2122,-0.4214 0.1046,-0.2241 0.1911,-0.4242 0.1911,-0.4392 0,-0.0149 -0.6155,-0.3196 -1.3685,-0.6782 -0.7531,-0.3556 -1.3957,-0.6545 -1.4256,-0.6605 -0.0050,-0.0011 -0.0100,-0.0015 -0.0147,-8.6500e-4 z m 20.3087,0.7180 c -0.0239,0 -0.2868,0.1045 -0.5827,0.2300 v 4.3200e-4 c -0.2959,0.1285 -0.9324,0.3972 -1.4195,0.6004 -0.4841,0.2032 -0.8845,0.3735 -0.8904,0.3795 -0.0030,0.0090 0.1253,0.3348 0.2896,0.7292 0.1703,0.4094 0.3466,0.7709 0.4124,0.8515 0.0657,0.0747 0.1944,0.1765 0.2870,0.2243 0.0956,0.0448 0.2748,0.1045 0.4003,0.1284 0.1763,0.0329 0.3915,0.0298 0.8995,-0.0091 0.5289,-0.0389 0.6935,-0.0389 0.7772,-0.0030 0.0777,0.0329 0.1405,0.1255 0.2421,0.3436 0.0747,0.1644 0.1283,0.3141 0.1193,0.3350 v 4.3200e-4 l -4.4000e-4,4.3200e-4 c -0.0161,0.0236 -0.2581,0.1413 -0.5464,0.2619 -0.2929,0.1255 -0.7322,0.3108 -0.9743,0.4154 -0.2420,0.1016 -0.4453,0.1911 -0.4513,0.1941 -0.0030,0.0060 0.0721,0.1974 0.1677,0.4305 0.0986,0.2301 0.1882,0.4333 0.2032,0.4513 0.0119,0.0149 0.4812,-0.1646 1.0400,-0.3977 0.5588,-0.2361 1.2129,-0.5109 1.4550,-0.6125 0.2779,-0.1165 0.4365,-0.2031 0.4275,-0.2360 -0.0060,-0.0269 -0.1495,-0.3768 -0.3168,-0.7772 -0.1703,-0.4004 -0.3346,-0.7859 -0.3704,-0.8576 -0.0359,-0.0687 -0.1167,-0.1793 -0.1824,-0.2421 -0.0628,-0.0657 -0.1791,-0.1492 -0.2568,-0.1880 -0.0777,-0.0389 -0.2511,-0.0897 -0.3826,-0.1107 -0.1703,-0.0269 -0.4365,-0.0238 -0.9116,0.0091 -0.5289,0.0389 -0.6931,0.0389 -0.7737,0 -0.0657,-0.0269 -0.1376,-0.1106 -0.1824,-0.2092 -0.0598,-0.1315 -0.0656,-0.1703 -0.0238,-0.2001 0.0269,-0.0209 0.4751,-0.2215 0.9950,-0.4426 0.5200,-0.2211 0.9440,-0.4183 0.9440,-0.4392 -0.0030,-0.0209 -0.0807,-0.2242 -0.1733,-0.4513 -0.0949,-0.2224 -0.1931,-0.4065 -0.2209,-0.4093 z m -15.3512,1.3655 c -0.0388,-0.0011 -0.0522,0.0132 -0.0597,0.0449 -0.0090,0.0359 -0.1166,0.5113 -0.2451,1.0582 -0.1255,0.5499 -0.2989,1.3146 -0.3886,1.7061 -0.1285,0.5618 -0.1554,0.7499 -0.1375,0.9172 0.0119,0.1165 0.0659,0.2991 0.1167,0.4037 0.0508,0.1046 0.1671,0.2600 0.2598,0.3436 0.0896,0.0807 0.2332,0.1794 0.3199,0.2183 0.0837,0.0359 0.4454,0.1342 0.8040,0.2179 0.3586,0.0837 0.7230,0.1675 0.8096,0.1854 l 0.1612,0.0298 c 0.1554,-0.6813 0.1975,-0.8967 0.1915,-0.9147 -0.0090,-0.0179 -0.3409,-0.1105 -0.7413,-0.2032 -0.6007,-0.1375 -0.7440,-0.1851 -0.8157,-0.2628 -0.0448,-0.0508 -0.0839,-0.1316 -0.0869,-0.1794 0,-0.0478 0.1106,-0.5588 0.2451,-1.1386 0.1345,-0.5797 0.3047,-1.3089 0.3735,-1.6197 0.0717,-0.3078 0.1226,-0.5707 0.1107,-0.5827 -0.0090,-0.0120 -0.1643,-0.0567 -0.3437,-0.0985 -0.1793,-0.0418 -0.3913,-0.0897 -0.4720,-0.1076 -0.0460,-0.0112 -0.0783,-0.0175 -0.1016,-0.0182 z m 27.8032,0.8550 c -0.0060,0 -0.1491,0.1435 -0.3164,0.3168 l -0.3047,0.3164 c 0.4901,-0.4751 0.6302,-0.6182 0.6302,-0.6242 0,-0.0015 -4.9000e-4,-0.0036 -8.6000e-4,-0.0048 -2.4000e-4,-5.1500e-4 -9.7000e-4,-0.0017 -0.0010,-0.0022 l -4.3000e-4,-4.3200e-4 c -4.2000e-4,-3.2900e-4 -0.0020,-0.0011 -0.0020,-0.0013 -0.0010,-3.7500e-4 -0.0030,-4.3200e-4 -0.0040,-4.3200e-4 z m -23.0397,0.0328 -0.0298,0.5498 c -0.0149,0.3018 -0.0241,1.1772 -0.0151,1.9452 l 0.0121,1.3988 c 0.1763,0.3198 0.2897,0.4633 0.3644,0.5291 0.0717,0.0628 0.2271,0.1610 0.3436,0.2148 0.2062,0.0956 0.2361,0.0987 1.1027,0.1076 l 0.8909,0.0091 v -0.9951 c -1.4882,0 -1.4975,1.0100e-4 -1.6110,-0.0955 -0.1106,-0.0926 -0.1133,-0.1049 -0.1133,-0.4396 v -0.3467 h 1.1861 l -0.0177,-0.9769 -1.1684,-0.0181 0.0177,-0.8606 1.7450,0.0181 v -0.9951 c -0.9951,-0.0030 -1.6047,-0.0152 -1.9962,-0.0242 z" /><path
         d="m 206.2820,51.9980 -1.0101,0.0209 c -0.5020,1.2163 -0.6993,1.6914 -0.7620,1.8378 -0.0628,0.1464 -0.1285,0.3108 -0.1464,0.3646 -0.0179,0.0538 -0.0956,0.2421 -0.1703,0.4214 -0.0777,0.1793 -0.1823,0.4363 -0.2361,0.5738 -0.0538,0.1375 -0.0867,0.2719 -0.0747,0.2988 0.0149,0.0329 0.1733,0.0478 0.5977,0.0478 0.5110,0 0.5767,0.0060 0.5977,0.0657 0.0149,0.0359 -0.0717,0.4991 -0.1913,1.0250 -0.1166,0.5259 -0.2839,1.2671 -0.3735,1.6466 -0.0867,0.3795 -0.1823,0.7919 -0.2092,0.9204 -0.0299,0.1255 -0.0508,0.2630 -0.0538,0.3048 0,0.0687 0.0060,0.0717 0.0478,0.0149 0.0269,-0.0329 0.0777,-0.1016 0.1136,-0.1524 0.0359,-0.0508 0.2421,-0.3556 0.4602,-0.6784 0.2152,-0.3227 0.4094,-0.6126 0.4303,-0.6485 0.0209,-0.0329 0.2630,-0.3974 0.5379,-0.8098 0.2749,-0.4124 0.5289,-0.7949 0.5678,-0.8457 0.0359,-0.0538 0.3586,-0.5379 0.7142,-1.0728 0.3556,-0.5379 0.6395,-0.9921 0.6305,-1.0071 -0.0090,-0.0149 -0.2839,-0.0269 -0.6096,-0.0269 -0.3586,0 -0.6037,-0.0179 -0.6156,-0.0389 -0.0090,-0.0209 0.0538,-0.1972 0.1375,-0.3945 0.0867,-0.1942 0.2421,-0.5528 0.3496,-0.7949 0.1046,-0.2421 0.2420,-0.5528 0.3048,-0.6873 0.0657,-0.1375 0.1106,-0.2839 0.1046,-0.3257 -0.0090,-0.0418 -0.0418,-0.0777 -0.0717,-0.0777 -0.0329,-0.0030 -0.5110,0.0060 -1.0698,0.0179 z"
         fill="#75b81d"
         id="path181"
         style="clip-rule:evenodd;display:inline;fill-rule:nonzero;stroke-width:0.2988;stroke-linejoin:round;stroke-miterlimit:2" /></g></g><style
     type="text/css"
     id="style1">
	.st0{fill:#4891CE;}
	.st1{fill:#C7D9EA;}
	.st2{fill:#E3173E;}
	.st3{fill:#FFFFFF;}
</style></svg>
