<svg
  
  
   viewBox="0 0 140.3140 110.6577"
   version="1.1000"
   id="svg1"
   xml:space="preserve"
   sodipodi:docname="group-team-logo-doc.svg"
   inkscape:version="1.4000.2 (2aeb623e1d, 2025-05-12)"
   xmlns:inkscape="http://www.inkscape.org/namespaces/inkscape"
   xmlns:sodipodi="http://sodipodi.sourceforge.net/DTD/sodipodi-0.dtd"
   xmlns="http://www.w3.org/2000/svg"
   xmlns:svg="http://www.w3.org/2000/svg"><sodipodi:namedview
     id="namedview1"
     pagecolor="#ffffff"
     bordercolor="#000000"
     borderopacity="0.2500"
     inkscape:showpageshadow="2"
     inkscape:pageopacity="0.0000"
     inkscape:pagecheckerboard="0"
     inkscape:deskcolor="#d1d1d1"
     inkscape:document-units="px"
     inkscape:zoom="0.6988"
     inkscape:cx="286.2197"
     inkscape:cy="150.9809"
     inkscape:window-width="1854"
     inkscape:window-height="1011"
     inkscape:window-x="0"
     inkscape:window-y="0"
     inkscape:window-maximized="1"
     inkscape:current-layer="layer5"
     showgrid="false"><inkscape:page
       x="0"
       y="0"
      
      
       id="page2"
       margin="0"
       bleed="0" /><inkscape:grid
       id="grid5"
       units="px"
       originx="0"
       originy="0"
       spacingx="0.2213"
       spacingy="0.2213"
       empcolor="#0099e5"
       empopacity="0.3020"
       color="#0099e5"
       opacity="0.1490"
       empspacing="5"
       enabled="true"
       visible="false" /></sodipodi:namedview><defs
     id="defs1"></defs><g
     inkscape:groupmode="layer"
     id="layer5"
     inkscape:label="washington-mystics"
     style="fill:#bb0c2f;fill-opacity:1.0000"><path
       id="path1-2"
       style="clip-rule:evenodd;display:inline;fill:#c8102e;fill-opacity:1;fill-rule:nonzero;stroke-width:0.5077;stroke-linejoin:round;stroke-miterlimit:2"
       d="M 70.1390,2.4707 C 50.2609,2.3453 44.6889,12.4851 43.1324,16.4006 c -2.0580,7.2284 1.6059,11.8472 7.4292,12.4244 5.1953,-0.1757 5.3464,-3.8906 3.4386,-5.1953 -0.8534,-0.4021 -1.4055,-0.1262 -1.9075,0.5516 0,0 0.3263,-0.2504 0.8533,0.1258 0.2762,0.2513 0.2260,0.8532 -0.4517,1.3806 -0.2472,0.1858 -0.5489,0.2862 -0.8580,0.2862 -0.5599,0 -1.0693,-0.3289 -1.3002,-0.8386 -0.4269,-1.2047 0.1253,-2.3596 1.1295,-3.1373 1.3052,-0.7528 3.2880,-0.4270 4.5175,1.2548 1.5565,2.9616 0.1003,5.3465 -2.4846,6.3252 -6.7771,2.3844 -9.4624,-5.0951 -18.7742,-5.0453 -5.8979,0.0254 -8.9603,3.8906 -10.3659,5.2709 -1.9078,2.2088 -5.0449,3.4135 -6.9775,0.8031 -0.1777,-0.3543 -0.2702,-0.7455 -0.2702,-1.1420 0,-1.2026 0.8501,-2.2499 2.0269,-2.4971 2.4093,-0.3259 1.8578,2.2836 1.8578,2.2836 1.0498,-0.5980 1.6587,-1.7572 1.5557,-2.9614 -0.0249,-1.5057 -1.7820,-3.4382 -4.8192,-3.1118 -1.4052,0.1757 -7.8555,2.1079 -8.6084,11.1436 -0.1005,4.1912 1.2796,5.1451 2.4345,7.9310 1.5808,3.8653 -0.8037,8.7093 -1.6819,11.1440 -0.7782,2.1585 -3.5641,11.3699 0.0752,17.0175 5.2963,8.1569 13.9053,4.3418 13.9805,8.9853 0.0756,3.7145 -5.1202,3.2380 -4.5430,1.3054 0.4772,-1.5311 2.0329,-0.8031 2.0329,-0.8031 -0.8280,-2.2839 -3.5642,-2.8116 -5.1953,-0.1007 -1.4737,2.5377 -0.6696,5.8304 1.8073,7.4041 5.6471,3.6647 11.3698,1.4305 15.8625,-1.2047 4.3673,-2.5850 8.6341,-5.3707 10.7926,-5.4209 3.2875,-0.0756 4.4173,2.6351 3.6396,4.7185 -0.7782,2.1332 -2.5354,6.1740 -0.1764,9.3869 2.4098,3.1875 5.9743,4.1666 11.5966,5.2459 4.9694,0.9539 9.1859,5.4968 10.3906,8.2574 1.2052,-2.7606 5.3962,-7.3035 10.3910,-8.2574 5.5974,-1.0793 9.1864,-2.0837 11.5957,-5.2459 2.4098,-3.2129 0.6027,-7.2537 -0.1755,-9.3869 -0.7782,-2.0834 0.4014,-4.7942 3.6392,-4.7185 2.1585,0.0751 6.4253,2.8857 10.7926,5.4209 4.4678,2.6352 10.2154,4.8694 15.8625,1.2047 2.3342,-1.5311 3.3886,-4.7938 1.8073,-7.4041 -1.6565,-2.7109 -4.3673,-2.1832 -5.1953,0.1007 0,0 1.5560,-0.7031 2.0078,0.8031 0.6021,1.9326 -4.5931,2.4091 -4.5179,-1.3054 0.0756,-4.6684 8.6840,-0.8533 13.9550,-8.9853 3.7399,-5.6979 0.9037,-14.8839 0.1509,-17.0175 -0.9036,-2.4347 -3.2881,-7.2788 -1.6819,-11.1440 1.1295,-2.7860 2.5354,-3.7399 2.4349,-7.9310 -0.7782,-9.0357 -7.2038,-10.9679 -8.6343,-11.1436 -3.0621,-0.3264 -4.7936,1.6061 -4.8439,3.1118 -0.1036,1.2041 0.5058,2.3634 1.5561,2.9614 1.0503,0.5985 -0.5270,-2.6095 1.8574,-2.2836 1.1701,0.2381 2.0191,1.2768 2.0191,2.4708 0,0.4071 -0.0986,0.8080 -0.2874,1.1684 -1.9072,2.6103 -5.0447,1.4057 -6.9524,-0.8031 -1.4057,-1.3803 -4.4676,-5.2207 -10.3655,-5.2709 -9.3118,-0.0503 -11.9980,7.4551 -18.7746,5.0453 -2.5850,-1.0041 -4.0157,-3.3885 -2.4846,-6.3252 1.2295,-1.6818 3.2128,-2.0077 4.5179,-1.2548 1.0041,0.7777 1.5559,1.9327 1.1295,3.1373 -0.4269,0.8534 -1.2303,1.0794 -2.1842,0.5524 -0.6772,-0.5021 -0.7272,-1.0791 -0.4262,-1.3806 0.5269,-0.3762 0.8533,-0.1258 0.8533,-0.1258 -0.5021,-0.7026 -1.0542,-0.9535 -1.9075,-0.5520 -1.9072,1.3052 -1.7318,4.9698 3.4386,5.1957 5.8228,-0.5523 9.4621,-5.1959 7.4041,-12.4244 C 95.5894,12.4851 90.0176,2.3453 70.1390,2.4707 Z m 0.0251,1.8323 C 87.6080,4.2030 93.4060,12.1591 95.3387,16.9777 c 0.8031,2.8865 0.5770,5.3718 -0.6276,7.1288 -0.8244,1.1574 -2.0203,1.9990 -3.3885,2.3843 0.1315,-0.1746 0.2494,-0.3590 0.3514,-0.5524 l 0.0501,-0.1003 0.0756,-0.1003 c 0.6772,-1.9326 0.0250,-3.9657 -1.7822,-5.3211 l -0.0752,-0.0752 -0.1007,-0.0756 c -2.2839,-1.3549 -5.2960,-0.5771 -7.0281,1.7571 l -0.0998,0.1003 -0.0756,0.1759 c -1.1793,2.2590 -0.9284,4.0908 -0.5014,5.2204 0.7127,1.7666 2.1474,3.1468 3.9405,3.7905 h 0.0246 l 0.0255,0.0246 c 4.3419,1.5062 7.3792,-0.2762 10.3409,-2.0078 2.5098,-1.4559 5.0948,-2.9868 9.0605,-2.9614 4.4927,0.0249 7.0277,2.6352 8.5085,4.1912 0.1757,0.1762 0.3014,0.3516 0.4521,0.5019 1.6813,1.8824 3.8396,2.9371 5.8225,2.8620 1.6402,-0.0746 3.1547,-0.9111 4.0913,-2.2594 l 0.0756,-0.0748 0.0752,-0.1262 c 0.6853,-1.2828 0.6942,-2.8245 0.0247,-4.1159 -0.5955,-1.2326 -1.7599,-2.0964 -3.1118,-2.3091 0.2838,-0.0249 0.5690,-0.0249 0.8533,0 0.0751,0.0254 6.2242,0.9536 6.9273,9.3618 0.1300,1.7291 -0.3008,3.4554 -1.2298,4.9199 -0.3914,0.7041 -0.7353,1.4335 -1.0292,2.1833 -1.7067,4.0663 0.1008,8.7093 1.2298,11.4704 l 0.4016,1.0538 c 1.3554,3.6896 2.9115,11.0688 0.2758,15.3356 -2.4844,3.8150 -5.7221,4.5181 -8.5838,5.1456 -2.5098,0.5518 -5.6469,1.2294 -5.6971,4.8439 -0.1036,1.8022 0.9026,3.4957 2.5352,4.2668 1.6311,0.7528 3.6897,0.5272 4.8689,-0.5019 0.4330,-0.4000 0.7461,-0.9129 0.9034,-1.4809 0.3462,1.5113 -0.2862,3.0875 -1.5812,3.9409 -3.8399,2.5098 -8.1069,2.1084 -13.8296,-1.2553 l -2.0835,-1.2298 c -4.5678,-2.7109 -7.4542,-4.3672 -9.6376,-4.4423 -1.8793,-0.1452 -3.7083,0.6792 -4.8439,2.1833 -1.0168,1.5062 -1.2505,3.4128 -0.6276,5.1201 l 0.1755,0.5023 c 0.7528,1.9575 1.8325,4.9196 0.2511,7.0527 -1.9078,2.5352 -4.7436,3.4389 -10.4161,4.5430 -4.2419,0.8031 -7.8813,3.7649 -10.0647,6.5509 -2.1839,-2.7357 -5.8484,-5.7478 -10.0400,-6.5509 -5.6725,-1.0793 -8.5333,-2.0078 -10.4157,-4.5430 -1.6067,-2.1083 -0.4773,-5.0952 0.2507,-7.0527 l 0.1755,-0.5023 c 0.6544,-1.7062 0.4092,-3.6322 -0.6523,-5.1201 -1.0544,-1.4559 -2.7610,-2.2336 -4.8439,-2.1833 -2.1839,0.0503 -5.0953,1.7314 -9.6134,4.4423 l -2.0830,1.2298 c -5.7228,3.3637 -10.0148,3.7651 -13.8547,1.2553 -1.2910,-0.8564 -1.9228,-2.4296 -1.5816,-3.9409 0.1416,0.5747 0.4576,1.0921 0.9039,1.4809 1.4016,1.0574 3.2814,1.2511 4.8694,0.5019 1.6159,-0.7929 2.6207,-2.4677 2.5598,-4.2668 -0.0756,-3.6145 -3.2128,-4.3169 -5.7226,-4.8439 -2.8362,-0.6275 -6.0739,-1.3306 -8.5838,-5.1456 -2.7357,-4.2917 -1.2047,-11.6460 0.1253,-15.3356 0.1254,-0.2757 0.2763,-0.6523 0.4271,-1.0538 1.0793,-2.7860 2.8858,-7.4295 1.2293,-11.4704 -0.3117,-0.7462 -0.6635,-1.4752 -1.0538,-2.1833 -0.9178,-1.4696 -1.3485,-3.1919 -1.2302,-4.9199 0.7528,-8.4082 6.8526,-9.3618 6.9278,-9.3618 0.2838,-0.0249 0.5695,-0.0249 0.8533,0 -1.3417,0.2234 -2.4942,1.0852 -3.0872,2.3091 -0.7026,1.2808 -0.7026,2.8351 0,4.1159 l 0.0752,0.1262 0.0752,0.0748 c 0.9153,1.3590 2.4291,2.2000 4.0662,2.2594 2.0078,0.0751 4.1665,-1.0045 5.8229,-2.8620 0.1508,-0.1503 0.3011,-0.3257 0.4768,-0.5019 1.4808,-1.5560 4.0158,-4.1663 8.5085,-4.1912 3.9409,-0.0254 6.5511,1.5054 9.0610,2.9614 2.9368,1.7570 5.9984,3.5389 10.3409,2.0078 l 0.0246,-0.0246 c 1.7788,-0.6665 3.2053,-2.0391 3.9409,-3.7905 0.5934,-1.7301 0.4104,-3.6350 -0.5018,-5.2204 l -0.0756,-0.1759 -0.0998,-0.1003 C 55.8074,19.7142 52.7954,18.9607 50.5115,20.2659 l -0.1007,0.0756 -0.0998,0.0752 c -1.7570,1.3803 -2.4348,3.3885 -1.7571,5.3211 l 0.0497,0.1003 0.0756,0.1003 c 0.1020,0.1934 0.2199,0.3778 0.3514,0.5524 -1.3717,-0.3914 -2.5739,-1.2309 -3.4135,-2.3843 -1.2047,-1.7570 -1.4057,-4.2423 -0.6026,-7.1288 C 46.9222,12.1337 52.7450,4.2030 70.1640,4.3031 Z" /><path
       id="path3-10"
       style="clip-rule:evenodd;display:inline;fill:#0c2340;fill-opacity:1;fill-rule:nonzero;stroke-width:0.5077;stroke-linejoin:round;stroke-miterlimit:2"
       d="M 70.2392,6.2106 C 54.0503,6.1101 48.6794,13.2385 46.9225,17.5556 c -0.3767,1.3549 -0.6275,3.1119 -0.0752,4.5927 0.4691,-1.3052 1.3058,-2.4476 2.4094,-3.2877 l 0.3009,-0.2256 0.1007,-0.0506 c 3.1124,-1.8072 7.2036,-0.8027 9.5377,2.2594 l 0.0752,0.1253 0.1003,0.1254 0.1509,0.3009 c 1.1808,2.0727 1.3831,4.5658 0.5516,6.8020 -0.9087,2.2677 -2.7463,4.0414 -5.0444,4.8694 h -0.0251 v 4.3200e-4 c -2.7400e-4,0.0027 -0.0048,0.0246 -0.0752,0.0246 l -0.0255,0.0246 c -5.1704,1.8072 -8.9351,-0.3759 -11.9216,-2.1583 -2.3596,-1.4052 -4.6186,-2.7105 -8.0823,-2.6856 -3.6642,0 -5.7476,2.1840 -7.1279,3.6145 -0.1508,0.1757 -0.3265,0.3262 -0.4768,0.5018 -2.0083,2.2585 -4.7439,3.5392 -7.2537,3.4641 -2.2250,-0.0975 -4.2843,-1.2201 -5.5722,-3.0375 l -0.0756,-0.1007 -0.0748,-0.0998 -0.1504,-0.2261 c -0.1782,-0.3097 -0.3215,-0.6379 -0.4271,-0.9791 -0.3554,1.0051 -0.5828,2.0507 -0.6778,3.1122 -0.0249,1.9326 0.2764,2.5355 1.0292,3.9158 0.3264,0.6275 0.7279,1.3803 1.1295,2.3342 1.9829,4.7689 -0.0250,9.8641 -1.2302,12.9262 -0.1503,0.3513 -0.2757,0.7275 -0.4016,1.0037 -1.1295,3.1124 -2.6601,9.9893 -0.3259,13.6286 2.0326,3.1627 4.6433,3.7399 7.3791,4.3420 2.4850,0.5274 7.1281,1.5311 7.2286,6.6766 0.0964,2.4895 -1.2827,4.8150 -3.5138,5.9232 2.1834,0.0254 4.6684,-0.8030 7.6803,-2.5849 l 2.0835,-1.2298 c 4.9694,-2.9616 7.8808,-4.6182 10.5414,-4.6939 2.7109,-0.0751 5.0195,0.9791 6.4506,2.9869 1.4158,2.0012 1.7542,4.5781 0.9034,6.8772 -0.0563,0.1635 -0.1233,0.3225 -0.2010,0.4768 -0.6275,1.6819 -1.4808,3.9656 -0.5269,5.2459 1.3803,1.8321 3.4636,2.6856 9.2615,3.8151 3.4134,0.6777 6.8773,2.6857 9.6882,5.5722 2.7860,-2.8865 6.2750,-4.8945 9.6631,-5.5722 5.8233,-1.1295 7.8812,-1.9581 9.2615,-3.8151 0.9788,-1.2803 0.1256,-3.5640 -0.5019,-5.2459 -0.0751,-0.2259 -0.1757,-0.4014 -0.2006,-0.5014 v 0.0246 c -0.8483,-2.2961 -0.5197,-4.8679 0.8783,-6.8772 1.4935,-2.0210 3.9178,-3.1478 6.4251,-2.9869 2.6860,0.0756 5.6478,1.7571 10.5670,4.6939 l 1.0288,0.6272 c 0.3675,0.2000 0.7202,0.4265 1.0547,0.6778 l -0.0251,-0.0752 c 3.0368,1.7570 5.4964,2.6353 7.6803,2.6104 -2.2149,-1.1270 -3.5869,-3.4397 -3.5138,-5.9236 0.1005,-5.1450 4.7184,-6.1494 7.2282,-6.7017 2.7611,-0.5772 5.3210,-1.1289 7.3791,-4.3169 2.3342,-3.6642 0.8032,-10.5413 -0.3263,-13.6537 -0.0751,-0.2762 -0.2508,-0.6275 -0.4016,-1.0037 -1.2047,-3.0622 -3.1871,-8.1573 -1.2043,-12.9262 0.3371,-0.7965 0.7142,-1.5752 1.1295,-2.3342 0.7275,-1.3554 1.0536,-1.9832 1.0288,-3.9158 -0.0919,-1.0620 -0.3199,-2.1076 -0.6778,-3.1122 -0.1096,0.3442 -0.2613,0.6724 -0.4517,0.9791 l -0.0752,0.1258 -0.0501,0.1003 -0.0756,0.0998 -0.0752,0.1007 c -1.2772,1.8164 -3.3287,2.9400 -5.5472,3.0375 -2.5347,0.0751 -5.2203,-1.2056 -7.2788,-3.4641 -0.1640,-0.1548 -0.3151,-0.3226 -0.4517,-0.5018 -1.3803,-1.4306 -3.4635,-3.5891 -7.1526,-3.6145 -3.4388,-0.0249 -5.6979,1.2804 -8.0823,2.6856 -2.9865,1.7570 -6.7512,3.9406 -11.9216,2.1583 l -0.0255,-0.0246 c -0.0264,-0.0031 -0.0524,-0.0118 -0.0752,-0.0251 h -0.0255 C 83.1254,32.2387 81.2883,30.4650 80.3796,28.1973 79.5699,25.9530 79.7908,23.4625 80.9818,21.3954 l 0.1509,-0.3009 0.1003,-0.1254 0.0752,-0.1253 c 2.3342,-3.0875 6.4253,-4.0915 9.5377,-2.2594 l 0.1007,0.0506 0.0998,0.0752 0.2010,0.1504 c 1.1189,0.8244 1.9601,1.9724 2.4094,3.2877 0.5772,-1.4808 0.3017,-3.2378 -0.0501,-4.5927 C 91.8497,13.2386 86.4785,6.1101 70.2393,6.2106 Z m -0.2261,3.2130 c 6.7766,0 12.2737,1.6060 12.1732,3.6392 -0.0498,2.0078 -5.4966,3.6396 -12.1732,3.6396 -6.6512,0 -12.1223,-1.6318 -12.1974,-3.6396 -0.0756,-2.0083 5.3457,-3.6392 12.1974,-3.6392 z m 0.0756,0.6773 c -5.4720,0 -9.8638,1.1045 -9.8135,2.4600 0.0503,1.3300 4.4172,2.4595 9.8135,2.4595 5.3709,0 9.7635,-1.0792 9.7889,-2.4595 0.0503,-1.3306 -4.3428,-2.4600 -9.7889,-2.4600 z m 11.0684,6.0991 c -6.1994,3.6394 -1.3049,12.3991 -9.7634,14.7084 1.1605,-1.5514 1.7379,-3.4621 1.6313,-5.3963 -1.4439,3.2343 -4.6892,5.5530 -6.1229,6.4579 -4.9104,5.7649 -9.6875,13.3514 -6.5016,19.7455 1.5570,3.0871 3.6499,4.1698 5.8260,4.6662 -0.2816,-0.8397 -0.6504,-1.5756 -1.0072,-2.1064 -1.1046,-1.6316 -3.5642,-4.3671 -3.5890,-7.3038 0,-0.2762 1.9500e-4,-0.5273 0.0251,-0.7781 7e-4,-0.0087 0.0014,-0.0176 0.0021,-0.0264 -0.0933,-0.4203 -0.1446,-0.8483 -0.1530,-1.2786 -0.0498,-4.0912 2.3844,-5.1457 4.1916,-5.2208 2.0769,-0.0754 3.1057,2.0694 2.8637,3.7987 0.0100,0.1558 0.0093,0.3124 -0.0021,0.4681 -0.0137,0.8315 -0.7016,1.5090 -1.5336,1.5090 -0.1350,0 -0.2690,-0.0181 -0.3990,-0.0536 0.7026,-0.1000 0.8031,-1.0535 0.7275,-1.4805 -0.1503,-0.7275 -1.0791,-0.8784 -1.6309,-0.5520 -0.4772,0.2508 -1.2550,1.5057 0.0501,3.5389 1.7280,2.6884 4.2374,5.7906 4.5184,10.0746 1.6531,0.2489 3.1832,0.6823 4.3705,1.9884 0.0125,-2.6113 0.2101,-7.9744 0.2723,-12.0630 -1.4016,-0.0452 -2.7923,0.2653 -4.0412,0.9034 0.0934,-1.1869 0.3297,-2.3577 0.7029,-3.4887 1.1138,-0.1919 2.2522,-0.1836 3.3630,0.0251 0.0018,-0.0845 -0.0056,-0.1641 -0.0204,-0.2390 -0.0014,0.0695 -0.0027,0.1410 -0.0044,0.2140 -1.1209,-0.1904 -2.2650,-0.1992 -3.3885,-0.0251 -0.3584,1.1356 -0.6024,2.3049 -0.7284,3.4887 -0.0797,-1.9133 0.1840,-3.8265 0.7785,-5.6474 1.1270,-0.0046 2.2522,0.0874 3.3630,0.2762 0.0254,-1.1295 0.1007,-1.9326 0.1007,-1.9326 2.6352,-0.6777 5.4214,-2.8360 5.4214,-2.8360 0,0 -0.2760,1.2797 -0.3765,2.2590 -1.5712,1.1041 -3.3079,1.9513 -5.1456,2.5097 0,8e-6 4e-6,0.0027 0,0.0077 0.0085,-0.0025 0.0170,-0.0052 0.0255,-0.0077 1.8418,-0.5467 3.5806,-1.3949 5.1452,-2.5097 -0.1868,1.0112 -0.3042,2.0346 -0.3514,3.0621 1.3742,-0.0244 2.7171,-0.4142 3.8903,-1.1295 l -0.2507,2.1833 c -1.1460,0.6623 -2.4417,1.0248 -3.7650,1.0538 v 4.3200e-4 c 1.3361,0.0046 2.6478,-0.3603 3.7900,-1.0543 0,0 -0.9291,2.0833 -3.8907,2.7859 -0.3010,5.5720 -0.6520,11.7468 -0.5520,13.3027 0.1757,2.4601 0.5769,2.8115 1.6313,2.8866 0.8159,0.0778 1.1657,-0.6861 1.2821,-1.0357 0.0013,-0.0592 6.1700e-4,-0.1158 -0.0017,-0.1690 0.0029,0.0442 0.0058,0.0932 0.0087,0.1470 0.0289,-0.0898 0.0411,-0.1470 0.0411,-0.1470 0.0112,0.1638 0.0029,0.3602 -0.0272,0.5762 0.0214,1.6099 -0.2785,4.9927 -3.2354,5.1464 -0.9410,0.0417 -1.6591,-0.1970 -2.2097,-0.6047 -0.7610,2.4008 -2.7103,3.4285 -1.7558,6.2271 0.4518,1.3549 1.9078,2.3590 3.2130,3.7144 0.2934,0.2772 0.5625,0.5790 0.8031,0.9034 -1.7321,-8.6341 5.0697,-8.4836 4.7687,-14.2312 -0.1508,-2.7357 -0.6026,-4.4930 -1.2803,-5.4966 -2.1585,-3.2378 0.7030,-5.2708 2.0584,-3.5138 -1.9078,0 -1.9076,1.9073 -1.4558,3.1373 0.5523,1.4306 3.5139,5.0950 2.3843,9.2862 -0.0503,0.2010 -0.1252,0.3768 -0.1755,0.5524 -1.8575,5.3715 -6.9528,1.8577 -4.3425,13.8296 0.2889,1.0554 0.4405,2.1436 0.4517,3.2376 0,2.9368 -2.0580,9.5379 -10.9932,9.5632 -7.8813,0.0249 -10.4157,-5.1203 -10.8929,-8.3581 -3.7896,-1.1295 -3.9907,-3.7148 -3.6642,-5.5718 0.7026,-4.0663 3.5890,-5.1457 3.5890,-7.3043 0,-2.5850 -2.7613,-3.4637 -2.7613,-3.4637 1.5565,-0.5021 6.4754,-6.4000e-5 5.9734,3.5890 -0.4767,3.5393 -4.9188,5.1456 -5.5463,8.0067 -0.0498,0.1970 -0.0751,0.3995 -0.0756,0.6026 -0.0025,0.3112 0.0223,0.6219 0.0756,0.9285 0.1223,1.2209 1.1107,2.1881 2.3342,2.2840 V 84.5199 c 0.0548,-2.2057 0.7239,-4.3531 1.9326,-6.1994 0.8782,-1.2047 2.1831,-2.8614 2.6852,-4.1168 2.8865,-6.9523 9.1109,-4.7433 7.8057,-11.5702 -0.2225,-1.1881 -0.7067,-2.0692 -1.3685,-2.7496 -0.3453,3.9628 -2.8102,7.6072 -5.9600,7.7443 -3.2603,0.1435 -4.2303,-2.7342 -4.1142,-4.7859 -0.0162,-0.1169 -0.0251,-0.2289 -0.0272,-0.3341 V 62.2319 c 0.0477,-1.0463 0.9104,-1.8872 1.9577,-1.9080 0.5185,0.1077 0.9894,0.3762 1.3465,0.7655 0.0141,0.0112 0.0254,0.0237 0.0337,0.0376 -0.0112,-0.0127 -0.0223,-0.0252 -0.0337,-0.0376 -0.2415,-0.1913 -1.2851,0.0154 -1.5220,0.9164 -0.2762,0.9285 0.8285,1.7319 1.5311,1.7070 0.6777,0 1.8318,-0.1509 2.7608,-2.1587 0.5263,-1.1442 0.5780,-2.4399 0.3808,-3.6560 -2.9962,-0.9748 -6.5146,-1.4920 -8.2501,-4.4445 -0.2167,8.4496 -2.8256,13.4485 -5.4585,15.2038 -2.2426,1.5527 -8.2361,1.6530 -7.2878,-3.8562 -0.0011,-0.1035 0.0020,-0.2072 0.0091,-0.3108 0.1137,-0.9478 0.8605,-1.7054 1.8073,-1.8323 0.3772,-0.0548 0.7628,0.0064 1.1044,0.1759 -0.4848,0.2290 -0.8305,0.6777 -0.9285,1.2051 -0.1254,0.6275 0.1503,2.0075 1.4057,1.9573 2.5601,-0.1005 3.5385,-4.9442 3.5385,-4.9442 -4.4176,0.5021 -5.7977,-4.8440 -6.1744,-9.5377 -0.0014,-0.0208 -0.0029,-0.0415 -0.0044,-0.0622 l -0.0208,0.0622 c -0.4813,-2.9109 -0.5992,-5.8700 -0.3510,-8.8098 1.3280,-0.8945 2.8077,-1.5415 4.3667,-1.9076 -0.0751,0.8031 -0.1251,1.5809 -0.1500,2.2840 -1.3778,0.3208 -2.6759,0.9190 -3.8151,1.7571 -0.0844,1.1238 -0.1277,2.2499 -0.1301,3.3764 0.0039,-1.1097 0.0473,-2.2190 0.1301,-3.3262 1.1488,-0.8214 2.4439,-1.4180 3.8151,-1.7571 v 0.1003 c -1.2803,17.2434 3.3375,13.8802 3.3375,13.8802 1.4057,-5.4466 0.0506,-12.7006 0.0506,-12.7006 0,0 2.1334,-1.8576 4.0909,-2.4850 0.0729,0.4223 0.1402,0.8457 0.2014,1.2695 1.7644,-4.4515 5.6390,-8.1574 8.4415,-10.8816 -0.0869,0.0497 -0.1340,0.0752 -0.1340,0.0752 3.1627,-4.0912 2.1081,-7.4547 2.1081,-7.4547 -1.6813,3.4632 -5.7226,4.8689 -5.7226,4.8689 4.7943,-7.5046 -3.2877,-13.4782 -3.2877,-13.4782 l 0.2758,0.1254 c -0.0236,-0.0238 -0.0415,-0.0362 -0.0540,-0.0428 -0.0135,-0.0048 -0.0206,-0.0073 -0.0208,-0.0073 0.0015,10e-5 0.0085,9.3000e-4 0.0208,0.0073 0.2668,0.0934 2.9921,1.0469 3.0163,1.0469 2.6053,0.8787 4.7503,2.7706 5.9479,5.2459 0.8640,-1.3773 1.4123,-2.9287 1.6067,-4.5430 l 1.6063,-0.0506 c 0,0 1.7822,2.4601 1.9832,4.6187 0,0 1.9828,-3.6893 5.0444,-5.4214 h 0.0756 c 0.1701,-0.1015 0.3462,-0.1940 0.5269,-0.2762 z m -19.0500,1.8073 c 1.3052,1.4306 4.0408,5.1705 2.2590,9.9389 1.5961,-1.0544 2.8793,-2.5199 3.7144,-4.2413 -0.9036,-2.5601 -3.5640,-4.8442 -5.9734,-5.6976 z m 8.8600,0.6778 c -0.2508,1.8067 -1.3804,3.9403 -2.0835,5.1201 0.4269,1.4052 0.8536,3.8900 -0.4262,6.0486 0,0 2.3341,-1.1040 4.5932,-6.0486 -0.2259,-3.4388 -2.0835,-5.1201 -2.0835,-5.1201 z m 6.4004,0.7776 c -1.4214,1.2681 -2.6248,2.7607 -3.5640,4.4177 v 0.0251 c 0.1254,1.4559 0.1005,3.8652 -0.6778,5.4719 3.3886,-1.7570 3.1371,-6.7017 4.2417,-9.9147 z m 0.8282,14.8623 c 0.0924,-0.0033 0.1864,0.0118 0.2762,0.0471 -0.8930,1.1905 -0.0943,2.8222 -0.0514,2.8602 l 4.3200e-4,4.3200e-4 4.3200e-4,4.3200e-4 H 77.3676 C 77.0381,36.5423 76.4917,35.9783 75.8115,35.6270 v 0.2507 c -0.0416,0.6269 -0.4439,1.1762 -1.0292,1.4057 0.2259,-0.4046 0.3224,-0.8690 0.2762,-1.3305 -0.1508,-0.5208 -0.4170,-1.0012 -0.7785,-1.4053 0.3269,-0.0431 0.6587,-0.0265 0.9791,0.0501 h 0.0251 c 0.7539,0.2000 1.4454,0.5889 2.0078,1.1291 0.0172,-0.4041 0.1480,-0.7955 0.3769,-1.1291 0.1281,-0.1689 0.3237,-0.2654 0.5269,-0.2728 z m -10.1118,0.1764 c 0.0915,0.0035 0.1831,0.0187 0.2728,0.0463 -1.1251,1.1747 -0.0834,2.5994 -0.1249,2.6597 l -4.3200e-4,4.3100e-4 H 66.9264 c 0,0 -0.3264,-1.7563 0.4016,-2.4340 0.2094,-0.1877 0.4816,-0.2829 0.7560,-0.2723 z M 85.8411,34.7430 c 0.5598,0.0233 1.0880,0.2885 1.4407,0.7331 -0.4919,-0.2147 -1.0200,-0.3342 -1.5561,-0.3514 -0.6396,-0.0518 -1.2198,0.3972 -1.3305,1.0292 0.0843,0.6737 0.7060,1.1601 1.3806,1.0793 0.1447,-0.0213 0.2875,-0.0555 0.4266,-0.1007 0.1015,-0.1741 0.1290,-0.3826 0.0752,-0.5771 -0.0751,-0.2762 -1.0793,-0.5524 -1.0793,-0.5524 h 2.2339 c -0.1315,0.1523 -0.1948,0.3524 -0.1755,0.5524 0.0249,0.2762 0.0998,0.8031 0.0998,0.8031 -0.5127,0.1492 -1.0477,0.2085 -1.5808,0.1755 -1.2300,-0.0249 -2.4600,-0.6275 -2.4600,-1.4053 0,-0.7534 1.0545,-1.3806 2.2840,-1.3806 0.0809,-0.0066 0.1612,-0.0085 0.2412,-0.0052 z m -25.5606,0.0044 c 0.0901,-0.0023 0.1807,0.0062 0.2706,0.0264 -1.0290,1.2549 0.1003,2.8611 0.1003,2.8611 l -1.3301,0.0752 c -0.0675,-0.3477 -0.1096,-0.7004 -0.1254,-1.0543 l -1.3806,0.0752 c -0.1310,0.5366 -0.5150,0.9775 -1.0288,1.1801 0.2239,-0.4051 0.2950,-0.8776 0.2006,-1.3309 -0.1589,-0.4706 -0.4789,-0.8707 -0.9039,-1.1286 0.3554,-0.1706 0.7670,-0.1798 1.1295,-0.0255 0.3290,0.1416 0.5588,0.4478 0.6030,0.8031 l 1.3802,-0.0752 c -0.0310,-0.3995 0.0946,-0.7962 0.3510,-1.1048 0.2010,-0.1892 0.4634,-0.2946 0.7335,-0.3017 z m 32.7992,0.7288 c 0,0 3.4886,0.1508 3.7399,0.4016 0.2259,0.2508 0.0638,0.9349 -0.1007,0.7024 -0.1645,-0.2320 -0.4036,-0.4002 -0.6778,-0.4763 -0.1254,-0.0249 -0.3514,-0.0505 -0.6778,-0.1007 -0.8534,1.0793 0,2.3597 0,2.3597 l -1.3050,-0.0501 c 0,0 -0.2764,-1.7824 0.5019,-2.4098 v -0.0251 c -0.3513,-0.0249 -0.7025,-0.0752 -0.8533,-0.0752 -0.2625,-0.0095 -0.5166,0.0904 -0.7024,0.2762 z m -44.5670,0.5632 c 0.0804,1.0400e-4 0.1608,0.0046 0.2416,0.0139 1.2300,0.1005 1.5561,0.5269 1.5561,0.5269 0,0 -1.7314,-0.2507 -2.0325,0.1509 -0.1005,0.1005 -2.6600e-4,0.2507 0.2256,0.3264 l 1.3301,0.2006 c 0.4772,0.0756 1.0292,0.4518 0.8286,0.8788 -0.2762,0.6021 -1.2053,0.9036 -2.3597,0.8031 -0.5488,0.0193 -1.0608,-0.2856 -1.3050,-0.7781 0.2960,0.1701 0.6180,0.2886 0.9536,0.3510 0.4960,0.1259 1.0205,0.0729 1.4809,-0.1500 0.1508,-0.1254 0.1508,-0.2764 0,-0.3769 l -1.5557,-0.2758 c -0.7782,-0.1000 -1.2052,-0.6527 -0.8788,-1.0543 0.4069,-0.3980 0.9522,-0.6171 1.5151,-0.6164 z m 55.0920,0.6389 c 0.1515,1.2100e-4 0.3082,0.0093 0.4681,0.0281 h 4.3000e-4 c 1.3047,0.1503 2.1833,0.8780 2.1081,1.5557 -0.0756,0.6523 -1.1293,1.1547 -2.4345,0.9791 -1.2803,-0.1757 -2.1840,-0.8784 -2.0835,-1.5561 0.0657,-0.5712 0.8811,-1.0076 1.9413,-1.0067 z m 0.2888,0.3843 c -0.4733,0.0012 -0.9049,0.3240 -1.0253,0.7979 -10e-4,0.0189 -0.0020,0.0379 -0.0020,0.0566 0,0.5315 0.4247,0.9744 0.9557,0.9972 0.5473,0.1005 1.0861,-0.2405 1.2298,-0.7776 0.0228,-0.5493 -0.4052,-1.0223 -0.9540,-1.0543 -0.0685,-0.0135 -0.1368,-0.0201 -0.2044,-0.0199 z m -65.3317,0.0514 c 0.2105,-0.0071 0.4556,0.1331 0.7802,0.3449 0.7534,0.4518 2.1587,2.3593 2.1587,2.3593 l -1.7065,0.2010 c -0.0360,-0.1899 -0.1134,-0.3701 -0.2261,-0.5269 l -1.9071,0.2006 c -0.1005,0.3513 -0.1759,0.6026 -0.1759,0.6026 l -0.7279,0.0752 c 0.3614,-1.0178 0.8154,-2.0006 1.3556,-2.9368 0.1428,-0.2194 0.2854,-0.3143 0.4491,-0.3199 z m 51.0292,0.6717 c 0.8234,0.0046 1.5104,0.6576 1.5561,1.4805 0.0442,0.5990 -0.1250,1.1946 -0.4768,1.6815 -0.0137,-0.7752 -0.6556,-1.4057 -1.4308,-1.4057 -0.0085,0 -0.0164,-7.7000e-5 -0.0251,4.3200e-4 -0.6848,-0.0106 -1.2956,0.4450 -1.4809,1.1044 0,-0.0254 -0.0501,-0.0503 -0.0501,-0.0752 -0.2005,-0.2513 -2.0400e-4,-2.7859 1.9076,-2.7859 z m 21.9111,0.2001 c 0.3285,4.9800e-4 0.6535,0.0694 0.9540,0.2014 h 0.0255 c 0.7011,0.3366 1.3117,0.8356 1.7818,1.4554 0.0736,-0.3990 0.2661,-0.7669 0.5524,-1.0543 0.2289,-0.2031 0.5658,-0.2340 0.8278,-0.0756 v 4.3200e-4 c -1.0902,1.0165 -0.5658,2.7905 -0.5040,2.8352 l 4.4000e-4,4.3400e-4 -1.0521,-0.1751 c -0.2335,-0.7386 -0.6896,-1.3874 -1.3054,-1.8570 v 0.2507 c -0.1295,0.6112 -0.6155,1.0879 -1.2298,1.2047 0.2787,-0.3508 0.4370,-0.7820 0.4517,-1.2298 -0.0523,-0.5493 -0.2236,-1.0804 -0.5023,-1.5566 z m -72.9736,0.2006 c -0.0064,-2.3900e-4 -0.0125,-6.6000e-5 -0.0187,4.3200e-4 -0.0364,0.0029 -0.0689,0.0191 -0.0964,0.0506 -0.2122,0.2553 -0.3815,0.5431 -0.5019,0.8533 l 1.4057,-0.1509 c -0.2870,-0.3897 -0.5913,-0.7461 -0.7888,-0.7535 z m -7.3432,0.1007 c 0.0249,1.1783 -0.4072,2.3209 -1.2047,3.1875 -0.2092,0.2462 -0.5563,0.3279 -0.8533,0.2010 -0.4508,-0.3777 -0.8554,-0.8073 -1.2047,-1.2799 0,0 -0.4519,1.2298 -0.5524,1.5060 -0.1254,0.2508 -0.1254,0.3262 -0.8031,0.1003 C 25.2867,41.5247 24.0820,39.5419 24.0820,39.5419 l 1.5311,-0.2261 c 0,0 0.5020,1.3810 1.5311,1.8328 l 0.8783,-2.4098 c 0,0 1.3052,2.1586 1.6819,1.9581 0.5523,-0.2513 0.8780,-1.7570 0.8278,-2.3342 z m 26.3037,1.4558 c 0.0452,0.7234 0.1293,1.4439 0.2511,2.1587 -2.0078,0.6275 -4.1164,2.4850 -4.1164,2.4850 -0.1756,-1.2549 -0.3264,-2.1085 -0.3264,-2.1085 0,0 2.1833,-1.9580 4.1916,-2.5352 z m 46.3639,1.1714 c 0.1499,-0.0085 0.2942,-0.0077 0.4318,0.0013 0.1468,0.0098 0.2856,0.0293 0.4158,0.0575 4.0298,0.8874 3.0851,4.9840 2.5114,6.2656 v 4.3400e-4 l -0.0268,0.1591 c -0.5270,2.3591 -2.2585,2.5349 -2.8611,2.3593 -0.7772,-0.2381 -1.3226,-0.9449 -1.3556,-1.7571 0,0 0.9287,0.3264 1.4308,0 0.4772,-0.3010 0.6526,-0.8532 0.6272,-1.6309 -0.0503,-0.9290 -1.1040,-1.4059 -1.9828,-1.2302 -0.8534,0.2010 -2.9615,2.0077 -3.1875,7.9315 -0.2259,5.9481 0.5522,11.4700 2.8615,11.2192 1.9829,-0.1757 2.6603,-1.8323 1.5561,-3.4887 0,0 1.4560,0.8784 1.6819,2.3593 0.0782,0.7011 -0.0816,1.4083 -0.4521,2.0078 0.3884,-0.5924 0.5575,-1.3032 0.4768,-2.0078 0.3259,1.3204 0.1837,2.7135 -0.4016,3.9405 -1.1798,2.0585 -3.2881,2.1840 -4.9446,1.5566 -1.1859,-0.4868 -2.2062,-1.3063 -2.9368,-2.3597 -0.7275,-1.0539 -1.7314,-3.7394 -1.7065,-7.8057 -0.1620,-2.3179 -0.0181,-4.6470 0.4271,-6.9273 0.1005,-0.5021 0.2258,-0.9284 0.3264,-1.3802 0.0089,-0.0330 0.0179,-0.0659 0.0268,-0.0986 l 0.1232,-0.6799 c 1.1913,-6.1987 4.7094,-8.3648 6.9585,-8.4917 z m -11.5763,0.4604 c -0.1508,0.7528 -0.3012,1.4805 -0.4271,2.1583 -1.8159,0.3843 -3.5778,0.9910 -5.2454,1.8073 v 0.2006 c 0,-0.0751 -0.0251,-0.1507 -0.0251,-0.2507 0.0751,-1.2549 0.1003,-2.0584 0.1003,-2.0584 1.0793,-0.4264 5.5973,-1.8570 5.5973,-1.8570 z m 22.4657,1.1727 c 0.1179,-0.0050 0.2343,-0.0025 0.3488,0.0069 3.5896,0.3762 2.8617,4.1664 2.3597,4.8689 0.0030,-0.0199 0.0070,-0.0402 0.0112,-0.0609 -0.0108,0.0375 -0.0232,0.0744 -0.0367,0.1111 -0.4264,1.2803 -1.9823,1.0292 -1.9823,1.0292 0.7275,-0.1254 0.8280,-1.1043 0.7275,-1.5561 -0.1757,-0.7528 -1.2045,-0.8787 -1.8319,-0.5269 -0.5021,0.3259 -1.3301,1.6313 0.2010,3.6396 2.1083,2.8357 5.1450,6.0235 5.3963,10.8172 h 0.0501 c 0.6021,4.9948 -2.1584,10.0897 -6.1242,10.4917 -3.8653,0.3259 -5.0952,-2.9872 -4.9195,-4.8447 0.0509,0.4993 0.2670,1.1184 0.7327,1.6594 -0.4415,-0.5376 -0.6479,-1.1452 -0.7076,-1.6339 v -0.4517 c 0.0609,-1.0960 0.9614,-1.9738 2.0584,-2.0078 0.7109,-0.0459 1.4422,0.5991 1.5635,0.7111 0.0060,0.0052 0.0127,0.0106 0.0177,0.0164 0,0 -0.0060,-0.0058 -0.0177,-0.0164 -0.2472,-0.1961 -1.4452,0.0665 -1.7143,0.9959 -0.2508,0.9534 0.9785,1.7313 1.7567,1.6810 0.7529,-0.0503 2.0080,-0.2259 2.9618,-2.3342 1.1544,-2.6103 -0.1504,-5.8730 -1.3556,-7.4041 -1.2798,-1.6067 -4.1159,-4.3424 -4.2413,-7.3289 -0.0630,-0.9366 0.0654,-1.8755 0.3761,-2.7608 0.6031,-1.6905 2.1514,-2.8734 3.9409,-3.0120 0.1286,-0.0141 0.2543,-0.0220 0.3765,-0.0242 1.8333,-0.0329 2.9303,1.2273 2.8360,2.3333 -0.0010,0.0659 -0.0070,0.1316 -0.0164,0.1967 0.0160,-0.0728 0.0311,-0.1476 0.0419,-0.2222 0.0751,-1.2295 -1.1551,-2.5850 -3.2380,-2.3342 -1.7793,0.1655 -3.3139,1.3387 -3.9409,3.0120 0.5178,-3.2943 2.6016,-4.9780 4.3697,-5.0514 z m -77.7267,0.3009 c 0.1658,-0.0023 0.3157,0.0100 0.4444,0.0320 0.9290,0.1508 5.0201,0.8789 5.4719,8.6343 -0.5004,-2.8269 -1.5619,-4.3885 -2.6065,-5.2623 1.0344,0.8775 2.0844,2.4431 2.5810,5.2623 0.2274,1.3265 0.3365,2.6699 0.3264,4.0157 -0.0081,1.3042 -0.1260,2.6060 -0.3514,3.8903 -0.0208,0.1133 -0.0419,0.2256 -0.0640,0.3372 -0.8619,7.8845 -5.3825,12.1373 -5.3825,12.1373 0.1508,-0.6777 0.1253,-1.2301 0.2507,-1.8825 2.6606,-12.3740 1.4310,-21.2590 -0.8031,-21.1590 -2.6606,0.0756 -2.1834,3.9913 -2.0580,6.4255 0.1756,3.9912 -0.1755,13.6541 -0.1755,13.6541 0.0133,0.6447 -0.0715,1.2882 -0.2507,1.9076 -2.1088,0.1757 -3.9554,-0.6101 -3.9660,-1.2548 -0.0112,-0.6447 0.0735,-1.2877 0.2507,-1.9075 C 31.3358,50.4102 29.6292,48.9546 28.2235,49.1805 26.5670,49.4312 22.9526,62.0061 27.2448,70.2387 22.9526,67.3522 21.5725,63.5371 21.3212,59.7470 c 0.2513,3.8150 1.6063,7.6050 5.9483,10.5164 0,0 -0.1507,1.3805 -0.2507,1.9080 -4.9445,-3.2881 -5.8478,-8.0322 -5.6976,-12.4244 -0.0878,-2.1316 0.0291,-4.2661 0.3514,-6.3749 0.4518,-3.4134 -2.5527,-4.1699 -1.2298,-5.1456 0.0018,-0.0014 0.0037,-0.0025 0.0056,-0.0039 -0.3741,-0.5747 -0.8428,-1.0824 -1.3858,-1.5017 1.6813,-1.3052 4.7937,-3.1373 4.7937,-3.1373 0.3264,0.6935 0.6116,1.4057 0.8533,2.1332 -0.0110,0.0052 -0.0219,0.0108 -0.0328,0.0160 0.0616,0.1424 0.1932,0.4143 0.2836,0.6869 0.1259,-0.2762 1.4059,-3.2130 3.8406,-3.2130 0.0797,-0.0050 0.1598,-0.0069 0.2395,-0.0069 2.0966,0 3.8429,1.6773 3.9266,3.7719 0.9444,-3.3599 2.8880,-4.1068 4.0485,-4.1233 z m 66.8559,0.0363 c -0.0924,0.0029 -0.1844,0.0100 -0.2753,0.0212 0.1161,-0.0127 0.2335,-0.0189 0.3514,-0.0187 0.6260,0.0016 1.2680,0.1835 1.8207,0.5334 -0.5755,-0.3718 -1.2498,-0.5559 -1.8967,-0.5360 z m -0.2753,0.0212 c -1.2025,0.1353 -3.2058,0.8082 -4.8516,2.9904 1.6525,-2.1806 3.6645,-2.8549 4.8516,-2.9904 z m -11.7211,0.6778 c -2.0331,10.0393 -1.7820,14.9589 -1.3556,17.3936 0.3264,1.9575 0.8286,2.9112 1.8825,3.0366 1.0275,0.1004 1.3296,-1.2258 1.3305,-1.2298 0.0249,1.0793 -0.7536,3.6895 -3.2380,3.7900 2.4406,-0.0731 3.2435,-2.5434 3.2402,-3.6954 0.0282,1.2241 0.0819,5.4809 -3.2151,5.6029 -3.3886,0.1254 -4.0410,-3.8653 -4.2167,-5.7477 -0.0732,-0.7762 -0.0985,-1.5554 -0.0756,-2.3342 0,0.1503 0.0255,0.3011 0.0255,0.4016 0,-0.1259 -0.0251,-0.2513 -0.0251,-0.4016 -0.1005,-3.0622 0.3259,-13.3277 0.4016,-14.8588 v -0.2006 c 1.6631,-0.8153 3.4275,-1.4054 5.2459,-1.7567 z m -5.6224,17.2176 c 0.0887,0.9762 0.3054,2.4650 0.9350,3.6863 -0.6296,-1.2276 -0.8462,-2.7229 -0.9350,-3.6863 z M 37.1457,45.0943 c -0.0201,0.0019 -0.0413,0.0058 -0.0618,0.0083 0.0204,-0.0023 0.0417,-0.0062 0.0618,-0.0083 z m -0.2602,0.0376 c -0.0248,0.0046 -0.0501,0.0108 -0.0752,0.0160 0.0251,-0.0052 0.0505,-0.0114 0.0752,-0.0160 z m -0.2732,0.0640 c -0.0294,0.0081 -0.0588,0.0176 -0.0886,0.0268 0.0298,-0.0091 0.0592,-0.0187 0.0886,-0.0268 z m -0.2909,0.0968 c -0.0292,0.0112 -0.0583,0.0219 -0.0877,0.0341 0.0294,-0.0120 0.0586,-0.0231 0.0877,-0.0341 z m -0.3143,0.1388 c -0.0228,0.0114 -0.0454,0.0216 -0.0683,0.0337 0.0229,-0.0120 0.0455,-0.0223 0.0683,-0.0337 z m -6.6892,0.0091 c 0.2469,5.8800e-4 0.4786,0.0158 0.6964,0.0437 -0.2157,-0.0269 -0.4424,-0.0437 -0.6864,-0.0437 -0.0033,0 -0.0066,-1e-5 -0.0100,0 z m 0.6964,0.0437 c 0.2173,0.0278 0.4207,0.0680 0.6108,0.1193 -0.1908,-0.0510 -0.3928,-0.0921 -0.6108,-0.1193 z m -0.7322,-0.0419 c -0.1070,0.0017 -0.2114,0.0098 -0.3138,0.0229 0.1028,-0.0120 0.2063,-0.0221 0.3138,-0.0229 z m 1.3486,0.1630 c 0.1887,0.0512 0.3646,0.1133 0.5282,0.1841 -0.1641,-0.0708 -0.3391,-0.1333 -0.5282,-0.1841 z m 0.5282,0.1841 c 2.1440,0.9285 2.2097,3.3911 2.2097,3.3911 0.0069,-0.0240 0.0137,-0.0480 0.0208,-0.0718 -0.0333,-0.4124 -0.3013,-2.4876 -2.2304,-3.3193 z m 2.9934,1.5198 c -0.0404,0.0714 -0.0792,0.1490 -0.1184,0.2248 0.0395,-0.0748 0.0778,-0.1543 0.1184,-0.2248 z m -8.7515,0.7750 c 0.0693,0.3070 0.1374,0.6194 0.1374,0.6194 0,0 0.0054,-0.0141 0.0160,-0.0402 -0.0133,-0.0602 -0.1147,-0.4136 -0.1535,-0.5792 z m 32.8550,5.1949 c -0.4986,7.3617 -2.9403,11.7355 -5.3349,13.4458 -1.0445,0.7546 -2.4595,1.1653 -3.7585,1.1706 1.3126,0.0054 2.7506,-0.4062 3.8086,-1.1706 2.3600,-1.7031 4.7908,-6.0473 5.3492,-13.3304 -0.0218,-0.0380 -0.0432,-0.0766 -0.0644,-0.1154 z m 11.8162,6.4294 c -0.6832,3.1501 -2.9599,5.8265 -5.8061,5.9617 -1.3209,0.0620 -2.2471,-0.2581 -2.8819,-0.7400 0.6320,0.5080 1.5646,0.8541 2.9069,0.7906 2.8691,-0.1357 5.1486,-2.8130 5.8316,-5.9643 -0.0168,-0.0160 -0.0336,-0.0321 -0.0506,-0.0480 z m 49.8543,2.2534 c -0.0785,1.0839 -0.3594,2.1543 -0.8049,3.1334 0.4463,-0.9757 0.7268,-2.0455 0.8049,-3.1334 z m -22.3036,2.4289 c 0.7315,1.0519 1.7514,1.8710 2.9367,2.3588 -1.1813,-0.4950 -2.1991,-1.3126 -2.9367,-2.3588 z m -20.8490,0.7141 c -1.6400e-4,0.0100 -2.2800e-4,0.0201 -4.3400e-4,0.0302 0.4915,0.2832 1.0987,0.4477 1.8509,0.4366 -0.7547,0.0016 -1.3616,-0.1735 -1.8505,-0.4668 z" /><path
       d="m 70.0134,9.4235 c -6.8518,0 -12.2735,1.6311 -12.1978,3.6394 0.0751,2.0078 5.5466,3.6394 12.1978,3.6394 6.6766,0 12.1232,-1.6316 12.1730,-3.6394 C 82.2869,11.0297 76.7900,9.4235 70.0134,9.4235 Z m 0.0756,5.5969 c -5.3963,0 -9.7637,-1.1295 -9.8139,-2.4596 -0.0503,-1.3554 4.3419,-2.4601 9.8139,-2.4601 5.4461,0 9.8388,1.1295 9.7885,2.4601 -0.0254,1.3803 -4.4176,2.4596 -9.7885,2.4596 z"
       fill="#e03a3e"
       id="path4-6"
       style="clip-rule:evenodd;display:inline;fill:#c8102e;fill-opacity:1;fill-rule:nonzero;stroke-width:0.5077;stroke-linejoin:round;stroke-miterlimit:2" /><path
       d="m 82.8392,57.6387 c -0.4518,-1.2300 -0.4518,-3.1373 1.4559,-3.1373 -1.3554,-1.7570 -4.2171,0.2762 -2.0585,3.5140 0.6777,1.0036 1.1295,2.7606 1.2803,5.4963 0.3010,5.7476 -6.5010,5.5974 -4.7689,14.2315 -0.2406,-0.3244 -0.5097,-0.6264 -0.8031,-0.9036 -1.3052,-1.3554 -2.7611,-2.3596 -3.2129,-3.7145 -1.4554,-4.2673 3.8404,-4.4176 1.3808,-11.5958 -2.8616,-8.1823 -11.3704,-1.2052 -15.7123,-9.8139 -3.6394,-7.3041 3.1124,-16.1641 8.5839,-22.0874 -1.1544,1.2047 -2.0834,2.1839 -1.9829,2.0331 -4.5176,4.4425 -13.0512,11.8968 -8.9854,21.1335 2.7611,6.1994 12.3486,3.1373 13.6035,9.8388 1.3052,6.8269 -4.9191,4.6181 -7.8056,11.5704 -0.5021,1.2554 -1.8072,2.9119 -2.6855,4.1165 -1.2087,1.8463 -1.8778,3.9937 -1.9326,6.1994 v 0.3010 c -1.2234,-0.0959 -2.2118,-1.0630 -2.3342,-2.2839 -0.0533,-0.3066 -0.0782,-0.6173 -0.0756,-0.9285 5.0600e-4,-0.2031 0.0259,-0.4056 0.0756,-0.6026 0.6275,-2.8611 5.0699,-4.4673 5.5466,-8.0067 0.5021,-3.5891 -4.4171,-4.0912 -5.9735,-3.5891 0,0 2.7611,0.8787 2.7611,3.4637 0,2.1585 -2.8865,3.2378 -3.5891,7.3041 -0.3264,1.8570 -0.1254,4.4425 3.6642,5.5720 0.4772,3.2378 3.0119,8.3828 10.8932,8.3580 8.9352,-0.0254 10.9932,-6.6264 10.9932,-9.5631 -0.0112,-1.0940 -0.1629,-2.1824 -0.4518,-3.2378 -2.6103,-11.9719 2.4850,-8.4580 4.3424,-13.8294 0.0503,-0.1757 0.1254,-0.3513 0.1757,-0.5523 1.1295,-4.1912 -1.8321,-7.8559 -2.3844,-9.2865 z"
       fill="#c4ced4"
       id="path6-5"
       style="clip-rule:evenodd;display:inline;fill:#8d9093;fill-opacity:1;fill-rule:nonzero;stroke-width:0.5077;stroke-linejoin:round;stroke-miterlimit:2" /><path
       d="m 70.6662,83.6416 v 2.3591 c 2.5682,0.3721 4.8044,1.9631 5.9984,4.2668 1.0458,-1.1833 1.7412,-2.6352 2.0083,-4.1917 -2.0331,-1.5311 -4.6435,-2.3342 -8.0067,-2.4342 z m -1.1549,-1.1798 v -2.0083 c -1.2107,-0.0518 -2.4058,-0.2975 -3.5388,-0.7275 -0.8793,-0.4016 -1.8631,-0.5153 -2.8109,-0.3264 -1.1052,1.5072 -1.7027,3.3266 -1.7067,5.1953 v 0.2513 c 2.4063,-1.5397 5.1999,-2.3667 8.0564,-2.3844 z m 6.2497,-4.4927 c -1.4392,-1.2250 -3.2342,-1.9555 -5.1202,-2.0834 v 3.3383 c 1.1569,-0.0508 2.2956,-0.3061 3.3632,-0.7528 0.5640,-0.2366 1.1539,-0.4051 1.7570,-0.5021 z m -6.2497,9.2362 c -2.2585,0.2259 -4.1160,1.9829 -5.1450,3.8653 1.4372,1.2595 3.2408,2.0250 5.1450,2.1839 z"
       fill="#002b5c"
       id="path7-94"
       style="clip-rule:evenodd;display:inline;fill:#0c2340;fill-opacity:1;fill-rule:nonzero;stroke-width:0.5077;stroke-linejoin:round;stroke-miterlimit:2" /><path
       id="path10-9"
       style="clip-rule:evenodd;display:inline;fill:#c8102e;fill-opacity:1;fill-rule:nonzero;stroke-width:0.5077;stroke-linejoin:round;stroke-miterlimit:2"
       d="m 58.3673,52.6942 c -0.4518,7.7056 -2.9616,12.2736 -5.3963,14.0306 -2.2585,1.6316 -6.2496,1.6564 -7.0527,-0.5524 -0.2274,-0.5295 -0.3137,-1.1088 -0.2507,-1.6815 -1.2300,5.8228 4.9443,5.7479 7.2282,4.1665 2.7109,-1.8072 5.3964,-7.0530 5.4715,-15.9632 z m 37.6236,5.7979 c -0.0249,4.0663 0.9791,6.7518 1.7065,7.8057 0.7305,1.0534 1.7509,1.8729 2.9368,2.3597 1.6565,0.6275 3.7648,0.5020 4.9446,-1.5566 0.5853,-1.2270 0.7275,-2.6201 0.4016,-3.9405 0.0807,0.7046 -0.0884,1.4154 -0.4768,2.0078 -1.2052,2.0331 -3.2877,2.2087 -4.9442,1.5812 -1.1854,-0.4879 -2.2052,-1.3070 -2.9367,-2.3588 -0.6026,-0.8787 -1.3805,-2.9369 -1.6318,-5.8986 z m -25.7016,0.2006 c -0.3513,3.5896 -2.8109,6.8773 -5.9984,7.0281 -3.1880,0.1508 -4.0660,-2.0080 -4.0909,-3.1624 -0.2259,2.0580 0.6769,5.2202 4.0909,5.0699 3.4637,-0.1508 6.0989,-4.5429 5.9984,-8.9356 z M 42.8562,59.3704 c -1.2549,6.9025 -5.1707,10.6422 -5.1707,10.6422 -0.1254,0.6523 -0.0999,1.2048 -0.2507,1.8825 0,0 4.6685,-4.3921 5.4214,-12.5246 z m -21.5350,0.3765 c -0.1503,4.3922 0.7531,9.1363 5.6976,12.4244 0.1000,-0.5274 0.2507,-1.9080 0.2507,-1.9080 -4.3419,-2.9114 -5.6970,-6.7014 -5.9483,-10.5164 z m 53.3102,0.6026 c -0.0204,0.8916 -0.0233,1.6247 0,1.9071 0.1762,1.9078 0.6777,5.3966 4.0662,5.2463 3.3886,-0.1762 3.2881,-4.5931 3.2130,-5.7226 0.0498,1.1295 -0.7031,3.6896 -3.2130,3.7896 -3.3886,0.1005 -3.8901,-3.3131 -4.0662,-5.2204 z m 11.5957,0.0501 c -0.0228,0.7787 0.0025,1.5580 0.0756,2.3342 0.1757,1.8824 0.8281,5.8731 4.2167,5.7477 3.2970,-0.1220 3.2433,-4.3789 3.2151,-5.6029 0.0033,1.1520 -0.7996,3.6223 -3.2402,3.6954 -3.3886,0.1005 -4.0661,-3.8402 -4.2417,-5.7728 0,-0.1005 -0.0255,-0.2513 -0.0255,-0.4016 z m 33.7087,0.4768 c 0.2259,4.0658 -2.5353,8.2327 -6.3503,8.5591 -3.3886,0.2757 -4.5179,-1.6821 -4.6433,-2.9121 -0.1757,1.8575 1.0543,5.1706 4.9195,4.8447 3.9658,-0.4021 6.7263,-5.4970 6.1242,-10.4917 z M 30.6830,67.6784 c -0.1772,0.6198 -0.2619,1.2628 -0.2507,1.9075 0.0106,0.6447 1.8572,1.4305 3.9660,1.2548 0.1792,-0.6193 0.2639,-1.2628 0.2507,-1.9076 C 32.5407,69.0835 30.6830,67.6784 30.6830,67.6784 Z" /><path
       id="path2-6"
       style="clip-rule:evenodd;fill:#8d9093;fill-opacity:1;fill-rule:nonzero;stroke-width:0.5077;stroke-linejoin:round;stroke-miterlimit:2"
       d="M 70.1640,4.3030 C 52.7450,4.2030 46.9222,12.1337 45.0145,16.9777 c -0.8031,2.8865 -0.6021,5.3718 0.6026,7.1288 0.8397,1.1534 2.0419,1.9929 3.4135,2.3843 -0.1315,-0.1746 -0.2494,-0.3590 -0.3514,-0.5524 l -0.0756,-0.1003 -0.0497,-0.1003 c -0.6777,-1.9326 1.4500e-4,-3.9408 1.7571,-5.3211 l 0.0998,-0.0752 0.1007,-0.0756 c 2.2839,-1.3052 5.2960,-0.5517 7.0281,1.7571 l 0.0998,0.1003 0.0756,0.1759 c 0.9122,1.5854 1.0953,3.4903 0.5018,5.2204 -0.7356,1.7514 -2.1621,3.1239 -3.9409,3.7905 l -0.0246,0.0246 c -4.3424,1.5311 -7.4041,-0.2509 -10.3409,-2.0078 -2.5098,-1.4559 -5.1201,-2.9868 -9.0610,-2.9614 -4.4927,0.0249 -7.0277,2.6352 -8.5085,4.1912 -0.1757,0.1762 -0.3260,0.3516 -0.4768,0.5019 -1.6565,1.8575 -3.8152,2.9371 -5.8229,2.8620 -1.6372,-0.0594 -3.1509,-0.9004 -4.0662,-2.2594 L 15.8998,31.5862 15.8246,31.4600 c -0.7026,-1.2808 -0.7026,-2.8351 0,-4.1159 0.5929,-1.2239 1.7455,-2.0857 3.0872,-2.3091 -0.2838,-0.0249 -0.5695,-0.0249 -0.8533,0 -0.0751,0 -6.1749,0.9536 -6.9278,9.3618 -0.1183,1.7280 0.3124,3.4503 1.2302,4.9199 0.3904,0.7082 0.7421,1.4371 1.0538,2.1833 1.6565,4.0409 -0.1501,8.6844 -1.2293,11.4704 -0.1508,0.4016 -0.3017,0.7782 -0.4271,1.0538 -1.3300,3.6896 -2.8611,11.0439 -0.1253,15.3356 2.5098,3.8150 5.7475,4.5181 8.5838,5.1456 2.5098,0.5269 5.6470,1.2294 5.7226,4.8439 0.0609,1.7991 -0.9440,3.4739 -2.5598,4.2668 -1.5879,0.7493 -3.4677,0.5556 -4.8694,-0.5019 -0.4462,-0.3889 -0.7622,-0.9063 -0.9039,-1.4809 -0.3411,1.5113 0.2907,3.0845 1.5816,3.9409 3.8399,2.5098 8.1319,2.1084 13.8547,-1.2553 l 2.0830,-1.2298 c 4.5181,-2.7109 7.4295,-4.3920 9.6134,-4.4423 2.0829,-0.0503 3.7895,0.7274 4.8439,2.1833 1.0615,1.4879 1.3066,3.4139 0.6523,5.1201 l -0.1755,0.5023 c -0.7280,1.9575 -1.8574,4.9444 -0.2507,7.0527 1.8824,2.5352 4.7432,3.4638 10.4157,4.5430 4.1917,0.8031 7.8561,3.8151 10.0400,6.5509 2.1834,-2.7860 5.8227,-5.7477 10.0647,-6.5509 5.6725,-1.1041 8.5083,-2.0078 10.4161,-4.5430 1.5813,-2.1332 0.5017,-5.0952 -0.2511,-7.0527 l -0.1755,-0.5023 c -0.6229,-1.7072 -0.3892,-3.6139 0.6276,-5.1201 1.1356,-1.5042 2.9645,-2.3285 4.8439,-2.1833 2.1834,0.0751 5.0698,1.7314 9.6376,4.4423 l 2.0835,1.2298 c 5.7227,3.3637 9.9898,3.7651 13.8296,1.2553 1.2950,-0.8534 1.9274,-2.4296 1.5812,-3.9409 -0.1574,0.5681 -0.4704,1.0809 -0.9034,1.4809 -1.1793,1.0290 -3.2378,1.2547 -4.8689,0.5019 -1.6326,-0.7711 -2.6387,-2.4646 -2.5352,-4.2668 0.0503,-3.6145 3.1873,-4.2921 5.6971,-4.8439 2.8616,-0.6275 6.0993,-1.3306 8.5838,-5.1456 2.6357,-4.2668 1.0796,-11.6460 -0.2758,-15.3356 l -0.4016,-1.0538 c -1.1290,-2.7611 -2.9365,-7.4041 -1.2298,-11.4704 0.2939,-0.7498 0.6378,-1.4792 1.0292,-2.1833 0.9290,-1.4646 1.3597,-3.1909 1.2298,-4.9199 -0.7031,-8.4082 -6.8522,-9.3364 -6.9273,-9.3618 -0.2843,-0.0249 -0.5695,-0.0249 -0.8533,0 1.3519,0.2127 2.5163,1.0765 3.1118,2.3091 0.6696,1.2915 0.6607,2.8331 -0.0246,4.1159 l -0.0752,0.1262 -0.0756,0.0748 c -0.9366,1.3483 -2.4511,2.1848 -4.0913,2.2594 -1.9829,0.0751 -4.1412,-0.9796 -5.8225,-2.8620 -0.1508,-0.1503 -0.2765,-0.3257 -0.4521,-0.5019 -1.4808,-1.5560 -4.0158,-4.1663 -8.5085,-4.1912 -3.9658,-0.0254 -6.5507,1.5054 -9.0605,2.9614 -2.9616,1.7316 -5.9989,3.5140 -10.3409,2.0078 l -0.0255,-0.0246 h -0.0246 C 84.2842,30.6663 82.8495,29.2862 82.1368,27.5196 81.7099,26.3900 81.4589,24.5582 82.6382,22.2992 l 0.0756,-0.1759 0.0998,-0.1003 c 1.7321,-2.3342 4.7441,-3.1120 7.0281,-1.7571 l 0.1007,0.0756 0.0752,0.0752 c 1.8072,1.3554 2.4594,3.3885 1.7822,5.3211 l -0.0756,0.1003 -0.0501,0.1003 c -0.1020,0.1934 -0.2199,0.3778 -0.3514,0.5524 1.3681,-0.3853 2.5640,-1.2269 3.3885,-2.3843 1.2047,-1.7570 1.4307,-4.2423 0.6276,-7.1288 C 93.4061,12.1591 87.6080,4.2030 70.1641,4.3030 Z m 0.0752,1.9075 c 16.2392,-0.1005 21.6104,7.0279 23.3674,11.3450 0.3518,1.3549 0.6273,3.1119 0.0501,4.5927 -0.4493,-1.3153 -1.2905,-2.4633 -2.4094,-3.2877 l -0.2010,-0.1504 -0.0998,-0.0752 -0.1007,-0.0506 c -3.1124,-1.8321 -7.2036,-0.8281 -9.5377,2.2594 l -0.0752,0.1253 -0.1003,0.1254 -0.1509,0.3009 c -1.1909,2.0672 -1.4118,4.5577 -0.6021,6.8020 0.9087,2.2677 2.7458,4.0414 5.0444,4.8694 h 0.0255 c 0.0229,0.0133 0.0488,0.0220 0.0752,0.0251 l 0.0255,0.0246 c 5.1704,1.7824 8.9351,-0.4013 11.9216,-2.1583 2.3844,-1.4052 4.6435,-2.7105 8.0823,-2.6856 3.6891,0.0254 5.7722,2.1840 7.1525,3.6145 0.1366,0.1792 0.2878,0.3470 0.4517,0.5018 2.0585,2.2585 4.7441,3.5392 7.2788,3.4641 2.2184,-0.0975 4.2699,-1.2211 5.5472,-3.0375 l 0.0752,-0.1007 0.0756,-0.0998 0.0502,-0.1003 0.0752,-0.1258 c 0.1904,-0.3066 0.3421,-0.6349 0.4517,-0.9791 0.3579,1.0046 0.5859,2.0502 0.6778,3.1122 0.0249,1.9326 -0.3013,2.5604 -1.0288,3.9158 -0.4153,0.7589 -0.7924,1.5377 -1.1295,2.3342 -1.9829,4.7689 -3.9000e-4,9.8641 1.2043,12.9262 0.1508,0.3762 0.3264,0.7275 0.4016,1.0037 1.1295,3.1124 2.6605,9.9895 0.3264,13.6537 -2.0580,3.1880 -4.6180,3.7397 -7.3791,4.3169 -2.5098,0.5523 -7.1277,1.5567 -7.2282,6.7017 -0.0731,2.4839 1.2989,4.7967 3.5138,5.9236 -2.1839,0.0249 -4.6436,-0.8534 -7.6803,-2.6104 l 0.0251,0.0752 c -0.3345,-0.2513 -0.6871,-0.4778 -1.0547,-0.6778 l -1.0288,-0.6272 c -4.9191,-2.9368 -7.8810,-4.6182 -10.5669,-4.6939 -2.5073,-0.1609 -4.9316,0.9659 -6.4251,2.9869 -1.3981,2.0093 -1.7266,4.5811 -0.8783,6.8772 v -0.0246 c 0.0249,0.1000 0.1254,0.2755 0.2006,0.5014 0.6275,1.6819 1.4806,3.9656 0.5019,5.2459 -1.3803,1.8570 -3.4383,2.6856 -9.2615,3.8151 -3.3881,0.6777 -6.8771,2.6857 -9.6631,5.5722 -2.8109,-2.8865 -6.2747,-4.8945 -9.6882,-5.5722 -5.7979,-1.1295 -7.8812,-1.9830 -9.2615,-3.8151 -0.9539,-1.2803 -0.1005,-3.5640 0.5269,-5.2459 0.0777,-0.1543 0.1447,-0.3133 0.2010,-0.4768 0.8508,-2.2992 0.5124,-4.8760 -0.9034,-6.8772 -1.4311,-2.0078 -3.7397,-3.0620 -6.4506,-2.9869 -2.6606,0.0756 -5.5720,1.7322 -10.5414,4.6939 l -2.0835,1.2298 c -3.0119,1.7819 -5.4969,2.6103 -7.6803,2.5849 2.2311,-1.1082 3.6103,-3.4337 3.5138,-5.9232 -0.1005,-5.1456 -4.7437,-6.1492 -7.2286,-6.6766 -2.7357,-0.6021 -5.3464,-1.1794 -7.3791,-4.3420 -2.3342,-3.6394 -0.8036,-10.5162 0.3259,-13.6286 0.1259,-0.2762 0.2513,-0.6524 0.4016,-1.0037 1.2052,-3.0622 3.2131,-8.1573 1.2302,-12.9262 -0.4016,-0.9539 -0.8031,-1.7067 -1.1295,-2.3342 -0.7528,-1.3803 -1.0541,-1.9832 -1.0292,-3.9158 0.0949,-1.0615 0.3224,-2.1071 0.6778,-3.1122 0.1056,0.3411 0.2489,0.6694 0.4271,0.9791 l 0.1504,0.2261 0.0748,0.0998 0.0756,0.1007 c 1.2879,1.8174 3.3472,2.9400 5.5722,3.0375 2.5098,0.0751 5.2454,-1.2056 7.2537,-3.4641 0.1503,-0.1757 0.3260,-0.3262 0.4768,-0.5018 1.3803,-1.4306 3.4637,-3.6145 7.1279,-3.6145 3.4637,-0.0249 5.7228,1.2804 8.0823,2.6856 2.9865,1.7824 6.7512,3.9655 11.9216,2.1583 l 0.0255,-0.0246 c 0.0704,0 0.0749,-0.0219 0.0752,-0.0246 v -4.3200e-4 h 0.0251 c 2.2981,-0.8280 4.1357,-2.6017 5.0444,-4.8694 0.8315,-2.2362 0.6292,-4.7293 -0.5516,-6.8020 l -0.1509,-0.3009 -0.1003,-0.1254 -0.0752,-0.1253 c -2.3342,-3.0622 -6.4253,-4.0666 -9.5377,-2.2594 l -0.1007,0.0506 -0.3009,0.2256 c -1.1036,0.8402 -1.9403,1.9826 -2.4094,3.2877 -0.5523,-1.4808 -0.3015,-3.2378 0.0752,-4.5927 1.7570,-4.3171 7.1278,-11.4455 23.3168,-11.3450 z m 1.9875,0.9639 c -3.6819,0.1396 -6.6808,1.2012 -6.8314,3.3284 -0.1508,2.4093 4.5430,3.0367 5.4715,1.7818 -1.4554,0.0751 -2.0332,-0.5772 -1.8073,-1.5311 1.0295,-4.1663 14.3569,-3.2131 14.6833,2.2335 0.2331,3.7337 -5.3820,2.2272 -10.3487,10.9923 C 78.1839,16.3732 86.2329,16.5494 86.3028,13.4894 86.3967,9.2695 78.3632,6.9418 72.2268,7.1745 Z m 1.1675,16.8048 c -0.3959,0.6287 -0.7768,1.2926 -1.1217,2.0342 0.3653,-0.7888 0.7461,-1.3713 1.1217,-2.0342 z m 7.0856,13.6554 c -0.0044,0.0033 -2.7882,2.1588 -5.4214,2.8360 0,0 -0.0754,0.8031 -0.1007,1.9326 1.8377,-0.5584 3.5744,-1.4055 5.1456,-2.5097 0.1004,-0.9783 0.3759,-2.2564 0.3765,-2.2590 z m -5.5221,4.7687 c -1.1107,-0.1888 -2.2360,-0.2808 -3.3630,-0.2762 -0.5945,1.8209 -0.8582,3.7341 -0.7785,5.6474 0.1259,-1.1838 0.3700,-2.3531 0.7284,-3.4887 1.1234,-0.1741 2.2676,-0.1653 3.3885,0.0251 0.0248,-1.1775 0.0246,-1.9053 0.0246,-1.9075 z M 89.5909,37.7857 c -1.9078,0 -2.1081,2.5346 -1.9076,2.7859 0,0.0249 0.0501,0.0498 0.0501,0.0752 0.1853,-0.6594 0.7961,-1.1151 1.4809,-1.1044 0.0087,-5.0900e-4 0.0164,-4.3200e-4 0.0251,-4.3200e-4 0.7752,0 1.4171,0.6305 1.4308,1.4057 0.3518,-0.4868 0.5209,-1.0825 0.4768,-1.6815 -0.0457,-0.8229 -0.7327,-1.4759 -1.5561,-1.4805 z m -23.8947,1.8820 c -1.8072,0.0751 -4.2413,1.1296 -4.1916,5.2208 0.0091,0.4650 0.0682,0.9274 0.1764,1.3802 0.2508,-3.4637 2.4338,-4.5675 4.0654,-4.6934 1.6316,-0.1503 2.6606,0.8785 2.8114,1.9076 0.2508,-1.7321 -0.7781,-3.8907 -2.8615,-3.8151 z m -8.2073,0.0752 c -2.0083,0.5772 -4.1916,2.5352 -4.1916,2.5352 0,0 0.1507,0.8536 0.3264,2.1085 0,0 2.1086,-1.8576 4.1164,-2.4850 -0.1218,-0.7148 -0.2060,-1.4353 -0.2511,-2.1587 z m -7.1283,1.0543 c -1.5590,0.3660 -3.0386,1.0131 -4.3667,1.9076 -0.2482,2.9398 -0.1303,5.8990 0.3510,8.8098 l 0.0251,-0.0752 c -0.1477,-2.1981 -0.1395,-4.4044 0.0255,-6.6010 1.1392,-0.8381 2.4373,-1.4363 3.8151,-1.7571 0.0249,-0.7031 0.0749,-1.4809 0.1500,-2.2840 z m 53.4922,0.1171 c -2.2490,0.1269 -5.7672,2.2929 -6.9585,8.4917 l -0.1357,0.7491 c 1.5384,-5.6767 5.0612,-7.0495 6.8374,-7.2494 1.8321,-0.2259 4.0410,1.2549 3.6145,4.0658 l -0.0756,0.4266 c 0.5523,-1.0544 1.7821,-5.4966 -2.4345,-6.4251 -0.1302,-0.0282 -0.2691,-0.0478 -0.4158,-0.0575 -0.1376,-0.0091 -0.2819,-0.0098 -0.4318,-0.0013 z m -11.5763,0.4604 c 0,0 -4.5180,1.4305 -5.5973,1.8570 0,0 -0.0251,0.8035 -0.1003,2.0584 0,0.1000 0.0251,0.1756 0.0251,0.2507 v -0.2006 c 1.6676,-0.8163 3.4296,-1.4230 5.2454,-1.8073 0.1259,-0.6777 0.2763,-1.4054 0.4271,-2.1583 z M 83.6673,41.8264 c -1.1732,0.7153 -2.5161,1.1051 -3.8903,1.1295 -0.0751,0.6523 -0.1006,1.3801 -0.1509,2.1081 1.3321,-0.0249 2.6371,-0.3877 3.7905,-1.0543 z m 31.0749,0.7210 c -1.7681,0.0733 -3.8519,1.7570 -4.3697,5.0514 0.6270,-1.6732 2.1616,-2.8465 3.9409,-3.0120 2.0829,-0.2508 3.3132,1.1047 3.2380,2.3342 -0.0254,0.1757 -0.0759,0.3520 -0.1007,0.5023 0.5021,-0.7026 1.2299,-4.4928 -2.3597,-4.8689 -0.1145,-0.0093 -0.2310,-0.0118 -0.3488,-0.0069 z M 37.0156,42.8482 c -1.1605,0.0166 -3.1042,0.7634 -4.0485,4.1233 -0.0838,-2.0946 -1.8300,-3.7719 -3.9266,-3.7719 -0.0797,0 -0.1598,0.0020 -0.2395,0.0069 -2.4347,0 -3.7147,2.9368 -3.8406,3.2130 0.3015,0.9031 0.6026,2.2840 0.6026,2.2840 0,0 1.2551,-3.2631 3.7650,-3.2631 3.9409,0 4.0662,3.7399 4.0662,3.7399 1.0793,-3.8399 3.4380,-4.2420 4.4172,-4.0658 0.8534,0.1503 4.1164,0.7275 5.1205,6.4000 -0.4518,-7.7554 -4.5429,-8.4836 -5.4719,-8.6343 -0.1286,-0.0220 -0.2786,-0.0343 -0.4444,-0.0320 z m -13.1592,0.7353 c 0,0 -3.1124,1.8321 -4.7937,3.1373 0.5523,0.4264 1.0276,0.9442 1.4048,1.5311 1.3341,-0.9727 2.7542,-1.8209 4.2422,-2.5352 -0.2416,-0.7275 -0.5269,-1.4397 -0.8533,-2.1332 z m 72.9018,6.5733 c -0.0048,0.0174 -0.0091,0.0348 -0.0139,0.0523 v 0.0255 z" /><path
       id="path8-9"
       style="clip-rule:evenodd;display:inline;fill:#ffffff;fill-rule:nonzero;stroke:#ffffff;stroke-width:0.0443;stroke-linejoin:round;stroke-miterlimit:2;stroke-dasharray:none;stroke-opacity:1"
       d="m 81.1572,16.2001 -1.8319,0.8282 c -0.1807,0.0822 -0.3569,0.1747 -0.5269,0.2762 h -0.0756 c -3.0616,1.7321 -5.0444,5.4214 -5.0444,5.4214 -0.2010,-2.1585 -1.9832,-4.6187 -1.9832,-4.6187 l -1.6063,0.0506 c -0.1944,1.6143 -0.7427,3.1658 -1.6067,4.5430 -1.1975,-2.4753 -3.3426,-4.3671 -5.9479,-5.2459 -0.0242,0 -2.7495,-0.9535 -3.0163,-1.0469 0.0125,0.0066 0.0305,0.0189 0.0540,0.0428 l -0.2758,-0.1254 c 0,0 8.0820,5.9736 3.2877,13.4782 0,0 4.0413,-1.4057 5.7226,-4.8689 0,0 1.0546,3.3635 -2.1081,7.4547 0,0 4.9443,-2.6607 6.8266,-6.8772 0.1066,1.9342 -0.4708,3.8449 -1.6313,5.3963 8.4585,-2.3093 3.5639,-11.0690 9.7634,-14.7084 z m -21.6392,0.2079 c -0.0123,-0.0064 -0.0193,-0.0073 -0.0208,-0.0073 2.5700e-4,9.1000e-5 0.0073,0.0027 0.0208,0.0073 z m 2.5892,1.5994 c 2.4093,0.8534 5.0697,3.1375 5.9734,5.6976 -0.8351,1.7214 -2.1183,3.1869 -3.7144,4.2413 1.7819,-4.7684 -0.9538,-8.5083 -2.2590,-9.9389 z m 8.8600,0.6778 c 0,0 1.8576,1.6813 2.0835,5.1201 -2.2590,4.9445 -4.5932,6.0486 -4.5932,6.0486 1.2798,-2.1585 0.8531,-4.6434 0.4262,-6.0486 0.7031,-1.1798 1.8327,-3.3133 2.0835,-5.1201 z m 6.4004,0.7776 c -1.1046,3.2129 -0.8532,8.1577 -4.2417,9.9147 0.7782,-1.6067 0.8032,-4.0160 0.6778,-5.4719 V 23.8804 c 0.9392,-1.6570 2.1425,-3.1496 3.5640,-4.4177 z m 0.8282,14.8623 c -0.2032,0.0073 -0.3988,0.1039 -0.5269,0.2728 -0.2290,0.3335 -0.3597,0.7250 -0.3769,1.1291 -0.5625,-0.5401 -1.2540,-0.9290 -2.0078,-1.1291 h -0.0251 c -0.3203,-0.0767 -0.6521,-0.0933 -0.9791,-0.0501 0.3614,0.4041 0.6277,0.8844 0.7785,1.4053 0.0462,0.4615 -0.0503,0.9259 -0.2762,1.3305 0.5853,-0.2295 0.9876,-0.7788 1.0292,-1.4057 v -0.2507 c 0.6803,0.3513 1.2267,0.9154 1.5561,1.6063 h 1.0538 l -4.3200e-4,-4.3200e-4 -4.3200e-4,-4.3200e-4 c -0.0429,-0.0381 -0.8416,-1.6697 0.0514,-2.8602 -0.0898,-0.0352 -0.1839,-0.0505 -0.2762,-0.0471 z m -10.1118,0.1764 c -0.2744,-0.0106 -0.5466,0.0846 -0.7560,0.2723 -0.7280,0.6777 -0.4016,2.4340 -0.4016,2.4340 h 1.3050 l 4.3200e-4,-4.3200e-4 c 0.0415,-0.0603 -1.0002,-1.4850 0.1249,-2.6597 -0.0896,-0.0275 -0.1813,-0.0427 -0.2728,-0.0463 z M 85.8411,34.7430 c -0.0800,-0.0033 -0.1604,-0.0015 -0.2412,0.0052 -1.2295,0 -2.2840,0.6273 -2.2840,1.3806 0,0.7777 1.2299,1.3804 2.4600,1.4053 0.5330,0.0330 1.0680,-0.0262 1.5808,-0.1755 0,0 -0.0750,-0.5270 -0.0998,-0.8031 -0.0193,-0.2000 0.0440,-0.4001 0.1755,-0.5524 h -2.2339 c 0,0 1.0042,0.2763 1.0793,0.5524 0.0538,0.1944 0.0263,0.4029 -0.0752,0.5771 -0.1391,0.0452 -0.2820,0.0794 -0.4266,0.1007 -0.6747,0.0807 -1.2964,-0.4057 -1.3806,-1.0793 0.1107,-0.6320 0.6908,-1.0810 1.3305,-1.0292 0.5361,0.0172 1.0642,0.1367 1.5561,0.3514 -0.3527,-0.4446 -0.8810,-0.7098 -1.4407,-0.7331 z m -25.5606,0.0044 c -0.2701,0.0071 -0.5325,0.1125 -0.7335,0.3017 -0.2564,0.3087 -0.3820,0.7053 -0.3510,1.1048 l -1.3802,0.0752 c -0.0442,-0.3554 -0.2740,-0.6615 -0.6030,-0.8031 -0.3625,-0.1543 -0.7741,-0.1451 -1.1295,0.0255 0.4249,0.2579 0.7450,0.6580 0.9038,1.1286 0.0944,0.4533 0.0233,0.9258 -0.2006,1.3309 0.5137,-0.2025 0.8978,-0.6435 1.0288,-1.1801 l 1.3806,-0.0752 c 0.0158,0.3538 0.0578,0.7065 0.1254,1.0543 l 1.3301,-0.0752 c 0,0 -1.1293,-1.6062 -0.1003,-2.8611 -0.0899,-0.0201 -0.1806,-0.0287 -0.2706,-0.0264 z m 32.7992,0.7288 -0.0752,0.6026 c 0.1858,-0.1858 0.4400,-0.2859 0.7024,-0.2762 0.1508,0 0.5020,0.0503 0.8533,0.0752 v 0.0251 c -0.7782,0.6275 -0.5019,2.4098 -0.5019,2.4098 l 1.3050,0.0501 c 0,0 -0.8534,-1.2804 0,-2.3597 0.3264,0.0503 0.5524,0.0759 0.6778,0.1007 0.2741,0.0761 0.5133,0.2443 0.6778,0.4763 0.1645,0.2325 0.3266,-0.4516 0.1007,-0.7024 -0.2513,-0.2508 -3.7399,-0.4016 -3.7399,-0.4016 z m -44.5670,0.5632 c -0.5629,-7.2900e-4 -1.1082,0.2184 -1.5151,0.6164 -0.3264,0.4016 0.1006,0.9543 0.8788,1.0543 l 1.5557,0.2758 c 0.1508,0.1005 0.1508,0.2515 0,0.3769 -0.4604,0.2228 -0.9849,0.2759 -1.4809,0.1500 -0.3356,-0.0624 -0.6576,-0.1809 -0.9536,-0.3510 0.2442,0.4924 0.7562,0.7974 1.3050,0.7781 1.1544,0.1005 2.0835,-0.2011 2.3597,-0.8031 0.2005,-0.4269 -0.3514,-0.8031 -0.8286,-0.8788 l -1.3301,-0.2006 c -0.2259,-0.0756 -0.3262,-0.2258 -0.2256,-0.3264 0.3010,-0.4016 2.0325,-0.1509 2.0325,-0.1509 0,0 -0.3261,-0.4264 -1.5561,-0.5269 -0.0808,-0.0091 -0.1612,-0.0137 -0.2416,-0.0139 z m 55.0920,0.6389 c -1.0602,-8.4300e-4 -1.8755,0.4355 -1.9413,1.0067 -0.1005,0.6777 0.8032,1.3805 2.0835,1.5561 1.3052,0.1757 2.3588,-0.3267 2.4345,-0.9791 0.0751,-0.6777 -0.8035,-1.4054 -2.1081,-1.5557 h -4.3000e-4 c -0.1600,-0.0189 -0.3167,-0.0280 -0.4681,-0.0281 z m 0.2888,0.3843 c 0.0676,-1.7100e-4 0.1359,0.0064 0.2044,0.0199 0.5488,0.0320 0.9768,0.5050 0.9540,1.0543 -0.1437,0.5371 -0.6825,0.8781 -1.2298,0.7776 -0.5310,-0.0228 -0.9557,-0.4657 -0.9557,-0.9972 0,-0.0187 7.2000e-4,-0.0378 0.0020,-0.0566 0.1204,-0.4740 0.5520,-0.7968 1.0253,-0.7979 z m -65.3317,0.0514 c -0.1637,0.0056 -0.3063,0.1004 -0.4491,0.3199 -0.5401,0.9361 -0.9941,1.9189 -1.3556,2.9368 l 0.7279,-0.0752 c 0,0 0.0754,-0.2513 0.1759,-0.6026 l 1.9071,-0.2006 c 0.1127,0.1569 0.1900,0.3371 0.2261,0.5269 l 1.7065,-0.2010 c 0,0 -1.4053,-1.9074 -2.1587,-2.3593 C 39.0173,37.2470 38.7722,37.1068 38.5617,37.1139 Z m 72.9403,0.8719 c 0.2787,0.4762 0.4500,1.0073 0.5023,1.5566 -0.0147,0.4477 -0.1730,0.8790 -0.4517,1.2298 0.6143,-0.1168 1.1003,-0.5935 1.2298,-1.2047 v -0.2507 c 0.6158,0.4696 1.0719,1.1183 1.3054,1.8570 l 1.0521,0.1751 -4.3000e-4,-4.3400e-4 c -0.0618,-0.0447 -0.5862,-1.8187 0.5040,-2.8352 v -4.3200e-4 c -0.2620,-0.1584 -0.5988,-0.1274 -0.8278,0.0756 -0.2863,0.2873 -0.4788,0.6553 -0.5524,1.0543 -0.4701,-0.6198 -1.0807,-1.1188 -1.7818,-1.4554 h -0.0255 c -0.3005,-0.1320 -0.6255,-0.2009 -0.9540,-0.2014 z m -72.9736,0.2006 c 0.1974,0.0075 0.5017,0.3638 0.7889,0.7534 l -1.4057,0.1509 c 0.1203,-0.3102 0.2897,-0.5979 0.5019,-0.8533 0.0274,-0.0314 0.0600,-0.0476 0.0964,-0.0506 0.0062,-4.9800e-4 0.0123,-6.7100e-4 0.0187,-4.3200e-4 z m -7.3432,0.1007 -0.6531,0.0756 c 0.0503,0.5772 -0.2754,2.0829 -0.8278,2.3342 -0.3767,0.2005 -1.6819,-1.9581 -1.6819,-1.9581 l -0.8783,2.4098 C 26.1151,40.6968 25.6131,39.3159 25.6131,39.3159 l -1.5311,0.2261 c 0,0 1.2047,1.9828 2.4850,2.4600 0.6777,0.2259 0.6777,0.1505 0.8031,-0.1003 0.1005,-0.2762 0.5524,-1.5060 0.5524,-1.5060 0.3493,0.4726 0.7539,0.9022 1.2047,1.2799 0.2970,0.1269 0.6441,0.0452 0.8533,-0.2010 0.7975,-0.8666 1.2296,-2.0092 1.2047,-3.1875 z m 58.0292,1.2298 c -0.6787,-0.0096 -1.2821,0.4485 -1.4563,1.1048 -0.0371,0.1224 -0.0616,0.2486 -0.0748,0.3761 0.0066,0.8148 0.6787,1.4813 1.4934,1.4813 0.8148,0 1.4863,-0.6666 1.4934,-1.4813 v -0.0501 c -0.0116,-0.7899 -0.6659,-1.4333 -1.4558,-1.4308 z m -9.0860,0.3769 c -1.5646,1.1148 -3.3034,1.9629 -5.1452,2.5097 -1.8423,0.5467 -1.1000e-4,0.7280 -0.0255,1.9326 -1.1107,-0.2086 -2.2492,-0.2170 -3.3630,-0.0251 -0.3731,1.1310 -0.6094,2.3019 -0.7029,3.4887 1.2488,-0.6381 2.6395,-0.9486 4.0412,-0.9034 -0.0756,4.9694 -0.3516,11.8216 -0.2516,13.3273 V 60.3240 c 0.1757,1.9078 0.6531,5.3214 4.0412,5.2463 2.5103,-0.1005 3.3132,-2.6859 3.2376,-3.7900 0,0 -0.2757,1.3052 -1.3301,1.2047 -1.0544,-0.0751 -1.4557,-0.4265 -1.6313,-2.8866 -0.1000,-1.5559 0.2510,-7.7307 0.5520,-13.3027 2.9616,-0.7026 3.8907,-2.7859 3.8907,-2.7859 -1.1422,0.6940 -2.4539,1.0588 -3.7900,1.0543 0.0249,-0.7280 0.0751,-1.4558 0.1253,-2.1081 0.0472,-1.0275 0.1646,-2.0509 0.3514,-3.0621 z M 66.0204,41.5187 c -0.0972,-0.0019 -0.1967,-2e-4 -0.2987,0.0060 -1.6316,0.1508 -3.7901,1.2051 -4.0662,4.6688 -0.0249,0.2508 -0.0251,0.5019 -0.0251,0.7781 0.0249,2.9368 2.4844,5.6723 3.5890,7.3038 1.0290,1.5311 2.1585,4.7689 1.0041,7.2788 -0.9290,2.0078 -2.0831,2.1587 -2.7608,2.1587 -0.7026,0.0249 -1.8072,-0.7785 -1.5311,-1.7070 0.2369,-0.9011 1.2805,-1.1077 1.5220,-0.9164 -0.3571,-0.3893 -0.8280,-0.6578 -1.3465,-0.7655 -1.0473,0.0208 -1.9100,0.8617 -1.9577,1.9080 v 0.2762 c 0.0249,1.2047 0.9040,3.3127 4.1164,3.1620 3.1627,-0.1503 5.6221,-3.4381 5.9734,-7.0272 0.0254,-0.3518 0.0752,-0.7032 0.0752,-1.0793 -0.0751,-4.5932 -2.7359,-7.8564 -4.5426,-10.6672 -1.3052,-2.0331 -0.5273,-3.2881 -0.0501,-3.5389 0.5518,-0.3264 1.4806,-0.1755 1.6309,0.5520 0.0756,0.4269 -0.0249,1.3805 -0.7275,1.4805 0.1300,0.0355 0.2639,0.0536 0.3990,0.0536 0.8320,0 1.5199,-0.6775 1.5336,-1.5090 0.0123,-0.1670 0.0123,-0.3348 0,-0.5019 -0.1651,-0.9647 -1.0797,-1.8851 -2.5373,-1.9140 z m -2.5667,19.5709 c 0.0114,0.0125 0.0226,0.0249 0.0337,0.0376 -0.0083,-0.0139 -0.0195,-0.0264 -0.0337,-0.0376 z m -5.7641,-19.1633 c -1.9575,0.6275 -4.0909,2.4850 -4.0909,2.4850 0,0 1.3551,7.2540 -0.0506,12.7006 0,0 -4.6177,3.3632 -3.3375,-13.8802 v -0.1003 c -1.3712,0.3391 -2.6663,0.9357 -3.8151,1.7571 -0.1650,2.2052 -0.1737,4.4198 -0.0255,6.6261 0.3767,4.6937 1.7568,10.0398 6.1744,9.5377 0,0 -0.9784,4.8436 -3.5385,4.9442 -1.2554,0.0503 -1.5311,-1.3298 -1.4057,-1.9573 0.0980,-0.5274 0.4437,-0.9762 0.9285,-1.2051 -0.3417,-0.1695 -0.7272,-0.2307 -1.1044,-0.1759 -0.9468,0.1269 -1.6936,0.8846 -1.8073,1.8323 -0.0391,0.5721 0.0466,1.1463 0.2507,1.6819 0.8031,2.2088 4.7946,2.1840 7.0531,0.5524 2.4601,-1.7570 4.9697,-6.3251 5.3712,-14.0561 0.2117,-3.5916 0.0096,-7.1965 -0.6026,-10.7424 z m 46.2580,0.9609 c -0.1179,-2.9900e-4 -0.2353,0.0060 -0.3514,0.0187 -1.7570,0.2005 -5.3206,1.5814 -6.8517,7.2788 -0.1005,0.4518 -0.2258,0.8781 -0.3264,1.3802 -0.4452,2.2804 -0.5890,4.6094 -0.4271,6.9273 0.2513,2.9870 1.0292,5.0198 1.6318,5.8986 0.7376,1.0463 1.7554,1.8639 2.9367,2.3588 1.6565,0.6275 3.7390,0.4519 4.9442,-1.5812 0.3706,-0.5995 0.5303,-1.3068 0.4521,-2.0078 -0.2259,-1.4808 -1.6819,-2.3593 -1.6819,-2.3593 1.1041,1.6565 0.4268,3.3131 -1.5561,3.4887 -2.3093,0.2508 -3.0874,-5.2711 -2.8615,-11.2192 0.2259,-5.9238 2.3341,-7.7305 3.1875,-7.9315 0.8787,-0.1757 1.9325,0.3012 1.9828,1.2302 0.0254,0.7777 -0.1500,1.3299 -0.6272,1.6309 -0.5021,0.3264 -1.4308,0 -1.4308,0 0.0330,0.8122 0.5784,1.5190 1.3556,1.7571 0.6026,0.1757 2.3342,-2.0400e-4 2.8611,-2.3593 l 0.0756,-0.4517 c 0.3527,-2.6119 -1.5442,-4.0548 -3.3133,-4.0593 z m -12.0725,0.6964 c -1.8184,0.3513 -3.5828,0.9414 -5.2459,1.7567 v 0.2006 c -0.0756,1.5311 -0.5021,11.7967 -0.4016,14.8588 0,0.1503 0.0251,0.2757 0.0251,0.4016 0.1757,1.9072 0.8532,5.8982 4.2417,5.7728 2.4844,-0.1005 3.2629,-2.7108 3.2380,-3.7900 -8.9900e-4,0.0039 -0.3030,1.3301 -1.3305,1.2298 -1.0539,-0.1254 -1.5561,-1.0791 -1.8825,-3.0366 -0.4264,-2.4347 -0.6776,-7.3543 1.3556,-17.3936 z m 22.8149,1.0296 c -0.1222,0.0023 -0.2479,0.0102 -0.3765,0.0242 -1.7895,0.1386 -3.3378,1.3215 -3.9409,3.0120 -0.3107,0.8853 -0.4390,1.8242 -0.3761,2.7608 0.1254,2.9865 2.9615,5.7222 4.2413,7.3289 1.2052,1.5311 2.5099,4.7938 1.3556,7.4041 -0.9539,2.1083 -2.2090,2.2839 -2.9618,2.3342 -0.7782,0.0503 -2.0075,-0.7277 -1.7567,-1.6810 0.2691,-0.9294 1.4671,-1.1921 1.7143,-0.9959 -0.1213,-0.1120 -0.8526,-0.7570 -1.5635,-0.7111 -1.0970,0.0340 -1.9975,0.9118 -2.0584,2.0078 v 0.4517 c 0.1503,1.2295 1.2299,3.2125 4.6433,2.9363 3.7901,-0.3513 6.5511,-4.5679 6.3252,-8.6088 -0.2513,-4.7937 -3.2880,-7.9815 -5.3963,-10.8172 -1.5311,-2.0083 -0.7031,-3.3137 -0.2010,-3.6396 0.6275,-0.3518 1.6563,-0.2259 1.8319,0.5269 0.1005,0.4518 -2e-5,1.4307 -0.7275,1.5561 0,0 1.5559,0.2511 1.9823,-1.0292 0.0624,-0.1691 0.0967,-0.3472 0.1007,-0.5269 0.0942,-1.1060 -1.0028,-2.3662 -2.8360,-2.3333 z m -2.1008,20.1873 c 0.0114,0.0106 0.0177,0.0164 0.0177,0.0164 -0.0050,-0.0058 -0.0112,-0.0112 -0.0177,-0.0164 z M 37.3847,45.0809 c -1.1227,0.0114 -3.0495,0.7396 -4.0161,4.0995 0,0 -0.1000,-3.7399 -4.0658,-3.7399 -2.5352,0 -3.7645,3.2631 -3.7645,3.2631 0,0 -0.2764,-1.3556 -0.5779,-2.2840 -0.1000,-0.3015 -0.2506,-0.6025 -0.3009,-0.7279 -1.4818,0.7107 -2.8937,1.5596 -4.2167,2.5348 -1.3229,0.9757 1.6816,1.7321 1.2298,5.1456 -0.3224,2.1088 -0.4392,4.2433 -0.3514,6.3749 0.2513,3.7901 1.6315,7.6052 5.9236,10.4917 -4.2922,-8.2326 -0.6778,-20.8075 0.9786,-21.0583 1.4057,-0.2259 3.1124,1.2297 2.4595,18.4980 0,0 1.8577,1.4305 3.9660,1.2548 0,0 0.3511,-9.6630 0.1755,-13.6541 -0.1254,-2.4342 -0.6026,-6.3499 2.0580,-6.4255 2.2342,-0.1000 3.4637,8.7850 0.8031,21.1590 0,0 3.9408,-3.7149 5.1957,-10.5920 0.2254,-1.2844 0.3433,-2.5862 0.3514,-3.8903 0.0102,-1.3458 -0.0989,-2.6892 -0.3264,-4.0157 C 41.9027,45.8172 38.6393,45.2400 37.8113,45.1146 37.6889,45.0926 37.5451,45.0792 37.3847,45.0809 Z m 32.1266,30.8549 c -1.9108,0.1310 -3.7232,0.9004 -5.1452,2.1838 0.6904,0.0518 1.3682,0.2127 2.0078,0.4772 1.0051,0.3853 2.0631,0.6134 3.1373,0.6773 z m 6.7921,3.2320 c -0.6368,0.0135 -1.2665,0.1596 -1.8475,0.4323 -1.2092,0.4863 -2.4890,0.7750 -3.7896,0.8537 v 2.0083 c 3.3129,0.1000 5.9984,0.8534 8.1320,2.2585 v -0.1504 c 0.0112,-1.9494 -0.6441,-3.8457 -1.8574,-5.3717 -0.2123,-0.0253 -0.4253,-0.0352 -0.6376,-0.0307 z m -6.7921,4.4739 c -2.8327,0.0376 -5.5885,0.9302 -7.9060,2.5603 0.2584,1.4473 0.9000,2.7991 1.8574,3.9149 1.4306,-2.3591 3.6895,-3.9154 6.0486,-4.1164 z m 1.1550,3.5890 v 6.0239 c 1.8793,-0.1213 3.6686,-0.8529 5.0946,-2.0835 -0.9188,-2.0905 -2.8401,-3.5770 -5.0946,-3.9405 z" /></g><style
     type="text/css"
     id="style1">
	.st0{fill:#4891CE;}
	.st1{fill:#C7D9EA;}
	.st2{fill:#E3173E;}
	.st3{fill:#FFFFFF;}
</style><style
     type="text/css"
     id="style1-7">
	.st0{fill:#211646;}
	.st1{fill:#B3B2B1;}
	.st2{fill:#FFFFFF;}
	.st3{fill:#D35E13;}
</style></svg>
