<svg viewBox="0 0 1024 1024" class="icon" version="1.1000"
    xmlns="http://www.w3.org/2000/svg">
    <path
        d="M390.4000 200.8000l-8-8c-10.4000-10.4000-24-16-38.4000-16H180.8000c-29.6000 0-54.4000 24-54.4000 54.4000v562.4000c0 29.6000 24 54.4000 54.4000 54.4000h757.6000c29.6000 0 54.4000-24 54.4000-54.4000V270.4000c0-29.6000-24-54.4000-54.4000-54.4000H428.8000c-14.4000 0.8000-28-4.8000-38.4000-15.2000z"
        fill="#F1ED7B" />
    <path
        d="M390.4000 200.8000l-8-8c-10.4000-10.4000-24-16-38.4000-16H180.8000c-29.6000 0-54.4000 24-54.4000 54.4000v562.4000c0 29.6000 24 54.4000 54.4000 54.4000h757.6000c29.6000 0 54.4000-24 54.4000-54.4000V270.4000c0-29.6000-24-54.4000-54.4000-54.4000H428.8000c-14.4000 0.8000-28-4.8000-38.4000-15.2000z"
        fill="#0E1115" />
    <path
        d="M937.6000 855.2000H180.8000c-34.4000 0-62.4000-28-62.4000-62.4000V230.4000c0-34.4000 28-62.4000 62.4000-62.4000H344c16.8000 0 32 6.4000 44 18.4000l8 8c8.8000 8.8000 20 13.6000 32.8000 13.6000h509.6000c34.4000 0 62.4000 28 62.4000 62.4000v522.4000c-0.8000 34.4000-28.8000 62.4000-63.2000 62.4000zM180.8000 184.8000c-25.6000 0-46.4000 20.8000-46.4000 46.4000v562.4000c0 25.6000 20.8000 46.4000 46.4000 46.4000h757.6000c25.6000 0 46.4000-20.8000 46.4000-46.4000V270.4000c0-25.6000-20.8000-46.4000-46.4000-46.4000H428.8000c-16.8000 0-32-6.4000-44-18.4000l-8-8C368 188.8000 356.8000 184 344 184H180.8000z"
        fill="#6A576D" />
    <path
        d="M208 256.8000h703.2000c29.6000 0 54.4000 24 54.4000 54.4000v449.6000c0 29.6000-24 54.4000-54.4000 54.4000H208c-29.6000 0-54.4000-24-54.4000-54.4000V311.2000c0-29.6000 24-54.4000 54.4000-54.4000z"
        fill="#FFFFFF" />
    <path
        d="M911.2000 823.2000H208c-34.4000 0-62.4000-28-62.4000-62.4000V311.2000c0-34.4000 28-62.4000 62.4000-62.4000h703.2000c34.4000 0 62.4000 28 62.4000 62.4000v449.6000c-0.8000 34.4000-28.8000 62.4000-62.4000 62.4000zM208 264.8000c-25.6000 0-46.4000 20.8000-46.4000 46.4000v449.6000c0 25.6000 20.8000 46.4000 46.4000 46.4000h703.2000c25.6000 0 46.4000-20.8000 46.4000-46.4000V311.2000c0-25.6000-20.8000-46.4000-46.4000-46.4000H208z"
        fill="#6A576D" />
    <path
        d="M153.6000 836.8000l-38.4000-477.6000c-2.4000-31.2000 22.4000-58.4000 53.6000-58.4000H872c28 0 52 21.6000 53.6000 49.6000l39.2000 486.4000"
        fill="#FFFFFF" />
    <path
        d="M964.8000 844.8000c-4 0-8-3.2000-8-7.2000l-39.2000-486.4000c-1.6000-24-22.4000-42.4000-45.6000-42.4000H168.8000c-12.8000 0-24.8000 5.6000-33.6000 15.2000s-12.8000 21.6000-12 35.2000l38.4000 477.6000c0 4-3.2000 8-7.2000 8.8000-4 0-8-3.2000-8.8000-7.2000l-38.4000-477.6000c-1.6000-17.6000 4.8000-34.4000 16-47.2000 12-12.8000 28-20 45.6000-20H872c32 0 59.2000 24.8000 61.6000 56.8000l39.2000 486.4000c0.8000 3.2000-3.2000 7.2000-8 8 0.8000 0 0 0 0 0z"
        fill="#6A576D" />
    <path d="M153.6000 847.2000l-64.8000-524.8000" fill="#0E1115" />
    <path
        d="M153.6000 836.8000L68.8000 408c-6.4000-33.6000 19.2000-64 53.6000-64h700.8000c25.6000 0 48 18.4000 52.8000 44l88.8000 449.6000"
        fill="#FFFFFF" />
    <path
        d="M964.8000 844.8000c-4 0-7.2000-2.4000-8-6.4000l-88.8000-449.6000c-4-21.6000-23.2000-36.8000-45.6000-36.8000H122.4000c-13.6000 0-27.2000 6.4000-36 16.8000s-12 24.8000-9.6000 38.4000l84.8000 428c0.8000 4-1.6000 8.8000-6.4000 9.6000-4 0.8000-8.8000-1.6000-9.6000-6.4000L60.8000 409.6000c-4-18.4000 0.8000-36.8000 12.8000-51.2000 12-14.4000 29.6000-22.4000 48-22.4000h700.8000c29.6000 0 55.2000 20.8000 60.8000 50.4000l88.8000 449.6000c0.8000 4-1.6000 8.8000-6.4000 9.6000 0-0.8000 0-0.8000-0.8000-0.8000z"
        fill="#6A576D" />
    <path
        d="M86.4000 371.2000h768c25.6000 0 47.2000 17.6000 52.8000 42.4000l83.2000 368c8 33.6000-18.4000 66.4000-52.8000 66.4000h-768c-25.6000 0-47.2000-17.6000-52.8000-42.4000l-83.2000-368c-8-34.4000 17.6000-66.4000 52.8000-66.4000z"
        fill="#F1ED7B" />
    <path
        d="M937.6000 855.2000h-768c-28.8000 0-54.4000-20-60.8000-48l-83.2000-368c-4-18.4000 0-37.6000 12-52.8000 12-15.2000 29.6000-23.2000 48.8000-23.2000h768c28.8000 0 54.4000 20 60.8000 48l83.2000 368c4 18.4000 0 37.6000-12 52.8000-12 15.2000-29.6000 23.2000-48.8000 23.2000zM86.4000 379.2000c-14.4000 0-27.2000 6.4000-36 17.6000-8.8000 11.2000-12 25.6000-8.8000 39.2000l83.2000 368c4.8000 20.8000 23.2000 36 44.8000 36h768c14.4000 0 27.2000-6.4000 36-17.6000 8.8000-11.2000 12-25.6000 8.8000-39.2000l-83.2000-368c-4.8000-20.8000-23.2000-36-44.8000-36h-768z"
        fill="#6A576D" />
</svg>